%TF.GenerationSoftware,KiCad,Pcbnew,8.0.6*%
%TF.CreationDate,2025-07-20T13:06:01+02:00*%
%TF.ProjectId,combined,636f6d62-696e-4656-942e-6b696361645f,v1.0.0*%
%TF.SameCoordinates,Original*%
%TF.FileFunction,Copper,L2,Bot*%
%TF.FilePolarity,Positive*%
%FSLAX46Y46*%
G04 Gerber Fmt 4.6, Leading zero omitted, Abs format (unit mm)*
G04 Created by KiCad (PCBNEW 8.0.6) date 2025-07-20 13:06:01*
%MOMM*%
%LPD*%
G01*
G04 APERTURE LIST*
G04 Aperture macros list*
%AMRoundRect*
0 Rectangle with rounded corners*
0 $1 Rounding radius*
0 $2 $3 $4 $5 $6 $7 $8 $9 X,Y pos of 4 corners*
0 Add a 4 corners polygon primitive as box body*
4,1,4,$2,$3,$4,$5,$6,$7,$8,$9,$2,$3,0*
0 Add four circle primitives for the rounded corners*
1,1,$1+$1,$2,$3*
1,1,$1+$1,$4,$5*
1,1,$1+$1,$6,$7*
1,1,$1+$1,$8,$9*
0 Add four rect primitives between the rounded corners*
20,1,$1+$1,$2,$3,$4,$5,0*
20,1,$1+$1,$4,$5,$6,$7,0*
20,1,$1+$1,$6,$7,$8,$9,0*
20,1,$1+$1,$8,$9,$2,$3,0*%
%AMRotRect*
0 Rectangle, with rotation*
0 The origin of the aperture is its center*
0 $1 length*
0 $2 width*
0 $3 Rotation angle, in degrees counterclockwise*
0 Add horizontal line*
21,1,$1,$2,0,0,$3*%
G04 Aperture macros list end*
%TA.AperFunction,ComponentPad*%
%ADD10C,3.000000*%
%TD*%
%TA.AperFunction,SMDPad,CuDef*%
%ADD11R,0.900000X1.200000*%
%TD*%
%TA.AperFunction,SMDPad,CuDef*%
%ADD12RotRect,1.550000X2.000000X351.000000*%
%TD*%
%TA.AperFunction,ComponentPad*%
%ADD13C,1.400000*%
%TD*%
%TA.AperFunction,SMDPad,CuDef*%
%ADD14RotRect,1.550000X2.000000X20.000000*%
%TD*%
%TA.AperFunction,SMDPad,CuDef*%
%ADD15RotRect,0.900000X1.200000X351.000000*%
%TD*%
%TA.AperFunction,SMDPad,CuDef*%
%ADD16RotRect,1.550000X2.000000X9.000000*%
%TD*%
%TA.AperFunction,SMDPad,CuDef*%
%ADD17R,1.550000X2.000000*%
%TD*%
%TA.AperFunction,SMDPad,CuDef*%
%ADD18RotRect,0.900000X1.200000X356.000000*%
%TD*%
%TA.AperFunction,SMDPad,CuDef*%
%ADD19RotRect,1.550000X2.000000X356.000000*%
%TD*%
%TA.AperFunction,ComponentPad*%
%ADD20O,1.200000X1.750000*%
%TD*%
%TA.AperFunction,ComponentPad*%
%ADD21RoundRect,0.240000X-0.360000X-0.635000X0.360000X-0.635000X0.360000X0.635000X-0.360000X0.635000X0*%
%TD*%
%TA.AperFunction,SMDPad,CuDef*%
%ADD22RotRect,0.900000X1.200000X9.000000*%
%TD*%
%TA.AperFunction,SMDPad,CuDef*%
%ADD23RotRect,0.900000X1.200000X4.000000*%
%TD*%
%TA.AperFunction,SMDPad,CuDef*%
%ADD24RotRect,1.550000X2.000000X340.000000*%
%TD*%
%TA.AperFunction,SMDPad,CuDef*%
%ADD25RotRect,0.900000X1.200000X355.000000*%
%TD*%
%TA.AperFunction,SMDPad,CuDef*%
%ADD26RotRect,1.550000X2.000000X4.000000*%
%TD*%
%TA.AperFunction,ComponentPad*%
%ADD27C,1.700000*%
%TD*%
%TA.AperFunction,ComponentPad*%
%ADD28C,1.500000*%
%TD*%
%TA.AperFunction,ComponentPad*%
%ADD29C,1.524000*%
%TD*%
%TA.AperFunction,SMDPad,CuDef*%
%ADD30RotRect,1.550000X2.000000X355.000000*%
%TD*%
%TA.AperFunction,SMDPad,CuDef*%
%ADD31RotRect,0.900000X1.200000X20.000000*%
%TD*%
%TA.AperFunction,SMDPad,CuDef*%
%ADD32RotRect,0.900000X1.200000X340.000000*%
%TD*%
%TA.AperFunction,SMDPad,CuDef*%
%ADD33RotRect,0.900000X1.200000X5.000000*%
%TD*%
%TA.AperFunction,SMDPad,CuDef*%
%ADD34RotRect,1.550000X2.000000X5.000000*%
%TD*%
%TA.AperFunction,ViaPad*%
%ADD35C,0.600000*%
%TD*%
%TA.AperFunction,Conductor*%
%ADD36C,0.200000*%
%TD*%
%TA.AperFunction,Conductor*%
%ADD37C,0.250000*%
%TD*%
G04 APERTURE END LIST*
D10*
%TO.P,REF\u002A\u002A,1*%
%TO.N,N/C*%
X296887607Y-36403845D03*
%TD*%
%TO.P,REF\u002A\u002A,1*%
%TO.N,N/C*%
X285881607Y-93686122D03*
%TD*%
%TO.P,REF\u002A\u002A,1*%
%TO.N,N/C*%
X151103409Y-93687778D03*
%TD*%
%TO.P,REF\u002A\u002A,1*%
%TO.N,N/C*%
X140129695Y-36388688D03*
%TD*%
D11*
%TO.P,D16,2*%
%TO.N,inner_bottom*%
X187857092Y-80904248D03*
%TO.P,D16,1*%
%TO.N,P2*%
X184557100Y-80904248D03*
%TD*%
D12*
%TO.P,CPG1316,2*%
%TO.N,mirror_pinky_home*%
X322903117Y-81568982D03*
D13*
X322903117Y-81568982D03*
D12*
%TO.P,CPG1316,1*%
%TO.N,P8*%
X318952368Y-80943245D03*
D13*
X318952368Y-80943245D03*
%TD*%
D12*
%TO.P,CPG1316,2*%
%TO.N,mirror_outer_bottom*%
X337034432Y-101019060D03*
D13*
X337034432Y-101019060D03*
D12*
%TO.P,CPG1316,1*%
%TO.N,P9*%
X333083683Y-100393323D03*
D13*
X333083683Y-100393323D03*
%TD*%
D14*
%TO.P,CPG1316,2*%
%TO.N,mirror_far_thumb*%
X234774387Y-109051929D03*
D13*
X234774387Y-109051929D03*
D14*
%TO.P,CPG1316,1*%
%TO.N,P4*%
X231015619Y-110420010D03*
D13*
X231015619Y-110420010D03*
%TD*%
D15*
%TO.P,D1,2*%
%TO.N,mirror_outer_bottom*%
X338019513Y-95758402D03*
%TO.P,D1,1*%
%TO.N,P2*%
X334760141Y-95242160D03*
%TD*%
D16*
%TO.P,CPG1316,2*%
%TO.N,outer_home*%
X100366843Y-83758233D03*
D13*
X100366843Y-83758233D03*
D16*
%TO.P,CPG1316,1*%
%TO.N,P4*%
X96416085Y-84383973D03*
D13*
X96416085Y-84383973D03*
%TD*%
D17*
%TO.P,CPG1316,2*%
%TO.N,mirror_middle_bottom*%
X286390502Y-78255066D03*
D13*
X286390502Y-78255066D03*
D17*
%TO.P,CPG1316,1*%
%TO.N,P6*%
X282390500Y-78255064D03*
D13*
X282390500Y-78255064D03*
%TD*%
D17*
%TO.P,CPG1316,2*%
%TO.N,index_home*%
X170707103Y-67254251D03*
D13*
X170707103Y-67254251D03*
D17*
%TO.P,CPG1316,1*%
%TO.N,P8*%
X166707101Y-67254249D03*
D13*
X166707101Y-67254249D03*
%TD*%
D11*
%TO.P,D18,2*%
%TO.N,inner_top*%
X187857094Y-46904248D03*
%TO.P,D18,1*%
%TO.N,P0*%
X184557102Y-46904248D03*
%TD*%
D18*
%TO.P,D7,2*%
%TO.N,mirror_ring_bottom*%
X304332191Y-79270176D03*
%TO.P,D7,1*%
%TO.N,P2*%
X301040231Y-79039986D03*
%TD*%
D12*
%TO.P,CPG1316,2*%
%TO.N,mirror_pinky_top*%
X325562499Y-64778267D03*
D13*
X325562499Y-64778267D03*
D12*
%TO.P,CPG1316,1*%
%TO.N,P8*%
X321611750Y-64152530D03*
D13*
X321611750Y-64152530D03*
%TD*%
D17*
%TO.P,CPG1316,2*%
%TO.N,near_thumb*%
X169707107Y-104254244D03*
D13*
X169707107Y-104254244D03*
D17*
%TO.P,CPG1316,1*%
%TO.N,P7*%
X165707105Y-104254242D03*
D13*
X165707105Y-104254242D03*
%TD*%
D17*
%TO.P,CPG1316,2*%
%TO.N,mirror_index_home*%
X269390502Y-67255064D03*
D13*
X269390502Y-67255064D03*
D17*
%TO.P,CPG1316,1*%
%TO.N,P5*%
X265390500Y-67255062D03*
D13*
X265390500Y-67255062D03*
%TD*%
D19*
%TO.P,CPG1316,2*%
%TO.N,mirror_ring_bottom*%
X303809358Y-84596682D03*
D13*
X303809358Y-84596682D03*
D19*
%TO.P,CPG1316,1*%
%TO.N,P7*%
X299819104Y-84317655D03*
D13*
X299819104Y-84317655D03*
%TD*%
D15*
%TO.P,D4,2*%
%TO.N,mirror_pinky_bottom*%
X321228805Y-93099012D03*
%TO.P,D4,1*%
%TO.N,P2*%
X317969433Y-92582770D03*
%TD*%
D17*
%TO.P,CPG1316,2*%
%TO.N,middle_bottom*%
X153707103Y-78254249D03*
D13*
X153707103Y-78254249D03*
D17*
%TO.P,CPG1316,1*%
%TO.N,P7*%
X149707101Y-78254247D03*
D13*
X149707101Y-78254247D03*
%TD*%
D20*
%TO.P,JST1,2*%
%TO.N,BAT_P*%
X201700132Y-60776690D03*
D21*
%TO.P,JST1,1*%
%TO.N,GND*%
X199700142Y-60776690D03*
%TD*%
D11*
%TO.P,D16,2*%
%TO.N,mirror_inner_bottom*%
X252540493Y-80905068D03*
%TO.P,D16,1*%
%TO.N,P2*%
X249240503Y-80905076D03*
%TD*%
D17*
%TO.P,CPG1316,2*%
%TO.N,index_top*%
X170707108Y-50254252D03*
D13*
X170707108Y-50254252D03*
D17*
%TO.P,CPG1316,1*%
%TO.N,P8*%
X166707106Y-50254250D03*
D13*
X166707106Y-50254250D03*
%TD*%
D22*
%TO.P,D4,2*%
%TO.N,pinky_bottom*%
X119128166Y-92581958D03*
%TO.P,D4,1*%
%TO.N,P2*%
X115868794Y-93098186D03*
%TD*%
D17*
%TO.P,CPG1316,2*%
%TO.N,inner_top*%
X187707099Y-52254236D03*
D13*
X187707099Y-52254236D03*
D17*
%TO.P,CPG1316,1*%
%TO.N,P9*%
X183707097Y-52254234D03*
D13*
X183707097Y-52254234D03*
%TD*%
D11*
%TO.P,D12,2*%
%TO.N,mirror_middle_top*%
X286540501Y-38905057D03*
%TO.P,D12,1*%
%TO.N,P0*%
X283240511Y-38905065D03*
%TD*%
%TO.P,D14,2*%
%TO.N,mirror_index_home*%
X269540492Y-61905057D03*
%TO.P,D14,1*%
%TO.N,P1*%
X266240502Y-61905065D03*
%TD*%
D23*
%TO.P,D9,2*%
%TO.N,ring_top*%
X133685637Y-45121985D03*
%TO.P,D9,1*%
%TO.N,P0*%
X130393691Y-45352177D03*
%TD*%
D22*
%TO.P,D6,2*%
%TO.N,pinky_top*%
X113809393Y-59000558D03*
%TO.P,D6,1*%
%TO.N,P0*%
X110550021Y-59516786D03*
%TD*%
D24*
%TO.P,CPG1316,2*%
%TO.N,far_thumb*%
X205142285Y-110077172D03*
D13*
X205142285Y-110077172D03*
D24*
%TO.P,CPG1316,1*%
%TO.N,P9*%
X201383516Y-108709091D03*
D13*
X201383516Y-108709091D03*
%TD*%
D25*
%TO.P,D20,2*%
%TO.N,home_thumb*%
X187825830Y-100116661D03*
%TO.P,D20,1*%
%TO.N,P3*%
X184538388Y-99829043D03*
%TD*%
D15*
%TO.P,D3,2*%
%TO.N,mirror_outer_top*%
X343338282Y-62176994D03*
%TO.P,D3,1*%
%TO.N,P0*%
X340078910Y-61660752D03*
%TD*%
D18*
%TO.P,D8,2*%
%TO.N,mirror_ring_home*%
X305518048Y-62311592D03*
%TO.P,D8,1*%
%TO.N,P1*%
X302226088Y-62081402D03*
%TD*%
D12*
%TO.P,CPG1316,2*%
%TO.N,mirror_outer_home*%
X339693814Y-84228359D03*
D13*
X339693814Y-84228359D03*
D12*
%TO.P,CPG1316,1*%
%TO.N,P9*%
X335743065Y-83602622D03*
D13*
X335743065Y-83602622D03*
%TD*%
D11*
%TO.P,D13,2*%
%TO.N,mirror_index_bottom*%
X269540499Y-78905057D03*
%TO.P,D13,1*%
%TO.N,P2*%
X266240509Y-78905065D03*
%TD*%
%TO.P,D14,2*%
%TO.N,index_home*%
X170857092Y-61904243D03*
%TO.P,D14,1*%
%TO.N,P1*%
X167557100Y-61904243D03*
%TD*%
D12*
%TO.P,CPG1316,2*%
%TO.N,mirror_outer_top*%
X342353204Y-67437656D03*
D13*
X342353204Y-67437656D03*
D12*
%TO.P,CPG1316,1*%
%TO.N,P9*%
X338402455Y-66811919D03*
D13*
X338402455Y-66811919D03*
%TD*%
D26*
%TO.P,CPG1316,2*%
%TO.N,ring_home*%
X135095073Y-67428003D03*
D13*
X135095073Y-67428003D03*
D26*
%TO.P,CPG1316,1*%
%TO.N,P6*%
X131104814Y-67707034D03*
D13*
X131104814Y-67707034D03*
%TD*%
D11*
%TO.P,D15,2*%
%TO.N,index_top*%
X170857090Y-44904244D03*
%TO.P,D15,1*%
%TO.N,P0*%
X167557098Y-44904244D03*
%TD*%
D27*
%TO.P,RST1,2*%
%TO.N,GND*%
X318350706Y-45942423D03*
%TO.P,RST1,1*%
%TO.N,RST*%
X323541846Y-49854211D03*
%TD*%
D16*
%TO.P,CPG1316,2*%
%TO.N,outer_bottom*%
X103026239Y-100548941D03*
D13*
X103026239Y-100548941D03*
D16*
%TO.P,CPG1316,1*%
%TO.N,P4*%
X99075481Y-101174681D03*
D13*
X99075481Y-101174681D03*
%TD*%
D12*
%TO.P,CPG1316,2*%
%TO.N,mirror_pinky_bottom*%
X320243733Y-98359683D03*
D13*
X320243733Y-98359683D03*
D12*
%TO.P,CPG1316,1*%
%TO.N,P8*%
X316292984Y-97733946D03*
D13*
X316292984Y-97733946D03*
%TD*%
D17*
%TO.P,CPG1316,2*%
%TO.N,mirror_middle_home*%
X286390510Y-61255071D03*
D13*
X286390510Y-61255071D03*
D17*
%TO.P,CPG1316,1*%
%TO.N,P6*%
X282390508Y-61255069D03*
D13*
X282390508Y-61255069D03*
%TD*%
D17*
%TO.P,CPG1316,2*%
%TO.N,mirror_near_thumb*%
X270390504Y-104255071D03*
D13*
X270390504Y-104255071D03*
D17*
%TO.P,CPG1316,1*%
%TO.N,P6*%
X266390502Y-104255069D03*
D13*
X266390502Y-104255069D03*
%TD*%
D11*
%TO.P,D19,2*%
%TO.N,mirror_near_thumb*%
X270540497Y-98905065D03*
%TO.P,D19,1*%
%TO.N,P3*%
X267240507Y-98905073D03*
%TD*%
D17*
%TO.P,CPG1316,2*%
%TO.N,mirror_inner_top*%
X252390496Y-52255069D03*
D13*
X252390496Y-52255069D03*
D17*
%TO.P,CPG1316,1*%
%TO.N,P4*%
X248390494Y-52255067D03*
D13*
X248390494Y-52255067D03*
%TD*%
D11*
%TO.P,D17,2*%
%TO.N,mirror_inner_home*%
X252540490Y-63905073D03*
%TO.P,D17,1*%
%TO.N,P1*%
X249240500Y-63905081D03*
%TD*%
%TO.P,D18,2*%
%TO.N,mirror_inner_top*%
X252540495Y-46905063D03*
%TO.P,D18,1*%
%TO.N,P0*%
X249240505Y-46905071D03*
%TD*%
D26*
%TO.P,CPG1316,2*%
%TO.N,ring_bottom*%
X136280933Y-84386586D03*
D13*
X136280933Y-84386586D03*
D26*
%TO.P,CPG1316,1*%
%TO.N,P6*%
X132290674Y-84665617D03*
D13*
X132290674Y-84665617D03*
%TD*%
D11*
%TO.P,D11,2*%
%TO.N,mirror_middle_home*%
X286540498Y-55905065D03*
%TO.P,D11,1*%
%TO.N,P1*%
X283240508Y-55905073D03*
%TD*%
D20*
%TO.P,JST1,2*%
%TO.N,BAT_P*%
X237300001Y-60774995D03*
D21*
%TO.P,JST1,1*%
%TO.N,GND*%
X235300001Y-60775005D03*
%TD*%
D17*
%TO.P,CPG1316,2*%
%TO.N,inner_home*%
X187707107Y-69254252D03*
D13*
X187707107Y-69254252D03*
D17*
%TO.P,CPG1316,1*%
%TO.N,P9*%
X183707105Y-69254250D03*
D13*
X183707105Y-69254250D03*
%TD*%
D15*
%TO.P,D5,2*%
%TO.N,mirror_pinky_home*%
X323888196Y-76308311D03*
%TO.P,D5,1*%
%TO.N,P1*%
X320628824Y-75792069D03*
%TD*%
D11*
%TO.P,D19,2*%
%TO.N,near_thumb*%
X169857098Y-98904247D03*
%TO.P,D19,1*%
%TO.N,P3*%
X166557106Y-98904247D03*
%TD*%
%TO.P,D11,2*%
%TO.N,middle_home*%
X153857101Y-55904251D03*
%TO.P,D11,1*%
%TO.N,P1*%
X150557109Y-55904251D03*
%TD*%
D17*
%TO.P,CPG1316,2*%
%TO.N,middle_home*%
X153707096Y-61254243D03*
D13*
X153707096Y-61254243D03*
D17*
%TO.P,CPG1316,1*%
%TO.N,P7*%
X149707094Y-61254241D03*
D13*
X149707094Y-61254241D03*
%TD*%
D11*
%TO.P,D10,2*%
%TO.N,middle_bottom*%
X153857091Y-72904244D03*
%TO.P,D10,1*%
%TO.N,P2*%
X150557099Y-72904244D03*
%TD*%
D16*
%TO.P,CPG1316,2*%
%TO.N,pinky_bottom*%
X119816938Y-97889551D03*
D13*
X119816938Y-97889551D03*
D16*
%TO.P,CPG1316,1*%
%TO.N,P5*%
X115866180Y-98515291D03*
D13*
X115866180Y-98515291D03*
%TD*%
D15*
%TO.P,D6,2*%
%TO.N,mirror_pinky_top*%
X326547582Y-59517611D03*
%TO.P,D6,1*%
%TO.N,P0*%
X323288210Y-59001369D03*
%TD*%
D23*
%TO.P,D8,2*%
%TO.N,ring_home*%
X134871497Y-62080570D03*
%TO.P,D8,1*%
%TO.N,P1*%
X131579551Y-62310762D03*
%TD*%
D27*
%TO.P,REF\u002A\u002A,22*%
%TO.N,GND*%
X207422095Y-42875747D03*
%TO.P,REF\u002A\u002A,21*%
%TO.N,RST*%
X204882095Y-42875755D03*
%TO.P,REF\u002A\u002A,20*%
%TO.N,CLK*%
X207422098Y-40335749D03*
%TO.P,REF\u002A\u002A,19*%
%TO.N,DIO*%
X204882097Y-40335756D03*
D28*
%TO.P,REF\u002A\u002A,16*%
%TO.N,GND*%
X201207094Y-46685756D03*
%TO.P,REF\u002A\u002A,15*%
%TO.N,RAW*%
X201207097Y-48590751D03*
D29*
%TO.P,REF\u002A\u002A,14*%
%TO.N,VCC5*%
X213827095Y-41284251D03*
%TO.P,REF\u002A\u002A,13*%
%TO.N,GND*%
X213827096Y-43824251D03*
%TO.P,REF\u002A\u002A,12*%
%TO.N,VCC33*%
X213827095Y-46364252D03*
%TO.P,REF\u002A\u002A,11*%
%TO.N,P10*%
X213827094Y-48904253D03*
%TO.P,REF\u002A\u002A,10*%
%TO.N,P9*%
X213827098Y-51444253D03*
%TO.P,REF\u002A\u002A,9*%
%TO.N,P8*%
X213827096Y-53984248D03*
%TO.P,REF\u002A\u002A,8*%
%TO.N,P7*%
X213827099Y-56524249D03*
%TO.P,REF\u002A\u002A,7*%
%TO.N,P6*%
X198587101Y-56524253D03*
%TO.P,REF\u002A\u002A,6*%
%TO.N,P5*%
X198587100Y-53984253D03*
%TO.P,REF\u002A\u002A,5*%
%TO.N,P4*%
X198587101Y-51444252D03*
%TO.P,REF\u002A\u002A,4*%
%TO.N,P3*%
X198587102Y-48904251D03*
%TO.P,REF\u002A\u002A,3*%
%TO.N,P2*%
X198587098Y-46364251D03*
%TO.P,REF\u002A\u002A,2*%
%TO.N,P1*%
X198587100Y-43824256D03*
%TO.P,REF\u002A\u002A,1*%
%TO.N,P0*%
X198587097Y-41284255D03*
%TD*%
D22*
%TO.P,D3,2*%
%TO.N,outer_top*%
X97018687Y-61659945D03*
%TO.P,D3,1*%
%TO.N,P0*%
X93759315Y-62176173D03*
%TD*%
D19*
%TO.P,CPG1316,2*%
%TO.N,mirror_ring_top*%
X306181081Y-50679513D03*
D13*
X306181081Y-50679513D03*
D19*
%TO.P,CPG1316,1*%
%TO.N,P7*%
X302190827Y-50400486D03*
D13*
X302190827Y-50400486D03*
%TD*%
D17*
%TO.P,CPG1316,2*%
%TO.N,mirror_inner_bottom*%
X252390502Y-86255061D03*
D13*
X252390502Y-86255061D03*
D17*
%TO.P,CPG1316,1*%
%TO.N,P4*%
X248390500Y-86255059D03*
D13*
X248390500Y-86255059D03*
%TD*%
D17*
%TO.P,CPG1316,2*%
%TO.N,index_bottom*%
X170707096Y-84254248D03*
D13*
X170707096Y-84254248D03*
D17*
%TO.P,CPG1316,1*%
%TO.N,P8*%
X166707094Y-84254246D03*
D13*
X166707094Y-84254246D03*
%TD*%
D30*
%TO.P,CPG1316,2*%
%TO.N,home_thumb*%
X187210120Y-105433220D03*
D13*
X187210120Y-105433220D03*
D30*
%TO.P,CPG1316,1*%
%TO.N,P8*%
X183225336Y-105084596D03*
D13*
X183225336Y-105084596D03*
%TD*%
D17*
%TO.P,CPG1316,2*%
%TO.N,middle_top*%
X153707102Y-44254253D03*
D13*
X153707102Y-44254253D03*
D17*
%TO.P,CPG1316,1*%
%TO.N,P7*%
X149707100Y-44254251D03*
D13*
X149707100Y-44254251D03*
%TD*%
D22*
%TO.P,D5,2*%
%TO.N,pinky_home*%
X116468782Y-75791257D03*
%TO.P,D5,1*%
%TO.N,P1*%
X113209410Y-76307485D03*
%TD*%
D11*
%TO.P,D10,2*%
%TO.N,mirror_middle_bottom*%
X286540493Y-72905063D03*
%TO.P,D10,1*%
%TO.N,P2*%
X283240503Y-72905071D03*
%TD*%
D31*
%TO.P,D21,2*%
%TO.N,mirror_far_thumb*%
X233085526Y-103973271D03*
%TO.P,D21,1*%
%TO.N,P3*%
X229984548Y-105101933D03*
%TD*%
D19*
%TO.P,CPG1316,2*%
%TO.N,mirror_ring_home*%
X304995223Y-67638094D03*
D13*
X304995223Y-67638094D03*
D19*
%TO.P,CPG1316,1*%
%TO.N,P7*%
X301004969Y-67359067D03*
D13*
X301004969Y-67359067D03*
%TD*%
D26*
%TO.P,CPG1316,2*%
%TO.N,ring_top*%
X133909216Y-50469412D03*
D13*
X133909216Y-50469412D03*
D26*
%TO.P,CPG1316,1*%
%TO.N,P6*%
X129918957Y-50748443D03*
D13*
X129918957Y-50748443D03*
%TD*%
D11*
%TO.P,D13,2*%
%TO.N,index_bottom*%
X170857093Y-78904250D03*
%TO.P,D13,1*%
%TO.N,P2*%
X167557101Y-78904250D03*
%TD*%
D16*
%TO.P,CPG1316,2*%
%TO.N,pinky_top*%
X114498160Y-64308150D03*
D13*
X114498160Y-64308150D03*
D16*
%TO.P,CPG1316,1*%
%TO.N,P5*%
X110547402Y-64933890D03*
D13*
X110547402Y-64933890D03*
%TD*%
D16*
%TO.P,CPG1316,2*%
%TO.N,outer_top*%
X97707466Y-66967530D03*
D13*
X97707466Y-66967530D03*
D16*
%TO.P,CPG1316,1*%
%TO.N,P4*%
X93756708Y-67593270D03*
D13*
X93756708Y-67593270D03*
%TD*%
D27*
%TO.P,RST1,2*%
%TO.N,GND*%
X113555749Y-49853399D03*
%TO.P,RST1,1*%
%TO.N,RST*%
X118746889Y-45941609D03*
%TD*%
%TO.P,REF\u002A\u002A,22*%
%TO.N,GND*%
X232105494Y-42876566D03*
%TO.P,REF\u002A\u002A,21*%
%TO.N,RST*%
X229565494Y-42876565D03*
%TO.P,REF\u002A\u002A,20*%
%TO.N,CLK*%
X232105504Y-40336566D03*
%TO.P,REF\u002A\u002A,19*%
%TO.N,DIO*%
X229565499Y-40336561D03*
D28*
%TO.P,REF\u002A\u002A,16*%
%TO.N,GND*%
X225890497Y-46686567D03*
%TO.P,REF\u002A\u002A,15*%
%TO.N,RAW*%
X225890501Y-48591560D03*
D29*
%TO.P,REF\u002A\u002A,14*%
%TO.N,VCC5*%
X238510501Y-41285067D03*
%TO.P,REF\u002A\u002A,13*%
%TO.N,GND*%
X238510499Y-43825065D03*
%TO.P,REF\u002A\u002A,12*%
%TO.N,VCC33*%
X238510502Y-46365064D03*
%TO.P,REF\u002A\u002A,11*%
%TO.N,P10*%
X238510498Y-48905061D03*
%TO.P,REF\u002A\u002A,10*%
%TO.N,P9*%
X238510492Y-51445063D03*
%TO.P,REF\u002A\u002A,9*%
%TO.N,P8*%
X238510498Y-53985059D03*
%TO.P,REF\u002A\u002A,8*%
%TO.N,P7*%
X238510494Y-56525066D03*
%TO.P,REF\u002A\u002A,7*%
%TO.N,P6*%
X223270495Y-56525059D03*
%TO.P,REF\u002A\u002A,6*%
%TO.N,P5*%
X223270497Y-53985061D03*
%TO.P,REF\u002A\u002A,5*%
%TO.N,P4*%
X223270494Y-51445062D03*
%TO.P,REF\u002A\u002A,4*%
%TO.N,P3*%
X223270498Y-48905065D03*
%TO.P,REF\u002A\u002A,3*%
%TO.N,P2*%
X223270504Y-46365063D03*
%TO.P,REF\u002A\u002A,2*%
%TO.N,P1*%
X223270498Y-43825067D03*
%TO.P,REF\u002A\u002A,1*%
%TO.N,P0*%
X223270502Y-41285060D03*
%TD*%
D22*
%TO.P,D2,2*%
%TO.N,outer_home*%
X99678078Y-78450641D03*
%TO.P,D2,1*%
%TO.N,P1*%
X96418706Y-78966869D03*
%TD*%
D32*
%TO.P,D21,2*%
%TO.N,far_thumb*%
X207113056Y-105101113D03*
%TO.P,D21,1*%
%TO.N,P3*%
X204012074Y-103972439D03*
%TD*%
D11*
%TO.P,D17,2*%
%TO.N,inner_home*%
X187857097Y-63904244D03*
%TO.P,D17,1*%
%TO.N,P1*%
X184557105Y-63904244D03*
%TD*%
D23*
%TO.P,D7,2*%
%TO.N,ring_bottom*%
X136057354Y-79039168D03*
%TO.P,D7,1*%
%TO.N,P2*%
X132765408Y-79269360D03*
%TD*%
D22*
%TO.P,D1,2*%
%TO.N,outer_bottom*%
X102337457Y-95241345D03*
%TO.P,D1,1*%
%TO.N,P2*%
X99078085Y-95757573D03*
%TD*%
D18*
%TO.P,D9,2*%
%TO.N,mirror_ring_top*%
X306703914Y-45352990D03*
%TO.P,D9,1*%
%TO.N,P0*%
X303411954Y-45122800D03*
%TD*%
D17*
%TO.P,CPG1316,2*%
%TO.N,mirror_middle_top*%
X286390500Y-44255068D03*
D13*
X286390500Y-44255068D03*
D17*
%TO.P,CPG1316,1*%
%TO.N,P6*%
X282390498Y-44255066D03*
D13*
X282390498Y-44255066D03*
%TD*%
D17*
%TO.P,CPG1316,2*%
%TO.N,mirror_index_top*%
X269390505Y-50255069D03*
D13*
X269390505Y-50255069D03*
D17*
%TO.P,CPG1316,1*%
%TO.N,P5*%
X265390503Y-50255067D03*
D13*
X265390503Y-50255067D03*
%TD*%
D17*
%TO.P,CPG1316,2*%
%TO.N,mirror_inner_home*%
X252390506Y-69255068D03*
D13*
X252390506Y-69255068D03*
D17*
%TO.P,CPG1316,1*%
%TO.N,P4*%
X248390504Y-69255066D03*
D13*
X248390504Y-69255066D03*
%TD*%
D11*
%TO.P,D15,2*%
%TO.N,mirror_index_top*%
X269540489Y-44905060D03*
%TO.P,D15,1*%
%TO.N,P0*%
X266240499Y-44905068D03*
%TD*%
D17*
%TO.P,CPG1316,2*%
%TO.N,mirror_index_bottom*%
X269390506Y-84255063D03*
D13*
X269390506Y-84255063D03*
D17*
%TO.P,CPG1316,1*%
%TO.N,P5*%
X265390504Y-84255061D03*
D13*
X265390504Y-84255061D03*
%TD*%
D16*
%TO.P,CPG1316,2*%
%TO.N,pinky_home*%
X117157542Y-81098845D03*
D13*
X117157542Y-81098845D03*
D16*
%TO.P,CPG1316,1*%
%TO.N,P5*%
X113206784Y-81724585D03*
D13*
X113206784Y-81724585D03*
%TD*%
D33*
%TO.P,D20,2*%
%TO.N,mirror_home_thumb*%
X252559222Y-99829861D03*
%TO.P,D20,1*%
%TO.N,P3*%
X249271774Y-100117473D03*
%TD*%
D11*
%TO.P,D12,2*%
%TO.N,middle_top*%
X153857098Y-38904252D03*
%TO.P,D12,1*%
%TO.N,P0*%
X150557106Y-38904252D03*
%TD*%
D17*
%TO.P,CPG1316,2*%
%TO.N,inner_bottom*%
X187707097Y-86254246D03*
D13*
X187707097Y-86254246D03*
D17*
%TO.P,CPG1316,1*%
%TO.N,P9*%
X183707095Y-86254244D03*
D13*
X183707095Y-86254244D03*
%TD*%
D15*
%TO.P,D2,2*%
%TO.N,mirror_outer_home*%
X340678899Y-78967698D03*
%TO.P,D2,1*%
%TO.N,P1*%
X337419527Y-78451456D03*
%TD*%
D34*
%TO.P,CPG1316,2*%
%TO.N,mirror_home_thumb*%
X252876071Y-105172575D03*
D13*
X252876071Y-105172575D03*
D34*
%TO.P,CPG1316,1*%
%TO.N,P5*%
X248891284Y-105521201D03*
D13*
X248891284Y-105521201D03*
%TD*%
D35*
%TO.N,outer_bottom*%
X103522690Y-95053626D03*
%TO.N,outer_home*%
X100863298Y-78262920D03*
%TO.N,outer_top*%
X98203915Y-61472214D03*
%TO.N,pinky_bottom*%
X120313387Y-92394239D03*
%TO.N,pinky_home*%
X117654004Y-75603533D03*
%TO.N,pinky_top*%
X114994621Y-58812837D03*
%TO.N,ring_bottom*%
X137254441Y-78955450D03*
%TO.N,ring_home*%
X136068587Y-61996871D03*
%TO.N,ring_top*%
X134882721Y-45038272D03*
%TO.N,middle_bottom*%
X155057103Y-72904249D03*
%TO.N,middle_home*%
X155057102Y-55904247D03*
%TO.N,middle_top*%
X155057097Y-38904246D03*
%TO.N,index_bottom*%
X172057098Y-78904244D03*
%TO.N,index_home*%
X172057105Y-61904246D03*
%TO.N,index_top*%
X172057099Y-44904249D03*
%TO.N,inner_bottom*%
X189057100Y-80904246D03*
%TO.N,inner_home*%
X189057102Y-63904254D03*
%TO.N,inner_top*%
X189057100Y-46904250D03*
%TO.N,near_thumb*%
X171057095Y-98904249D03*
%TO.N,home_thumb*%
X189021259Y-100221239D03*
%TO.N,far_thumb*%
X208240694Y-105511536D03*
%TO.N,P2*%
X131568330Y-79353067D03*
X299843162Y-78956271D03*
X282040510Y-72905067D03*
X97892864Y-95945298D03*
X265040503Y-78905069D03*
X333574920Y-95054437D03*
X183357101Y-80904244D03*
X114683559Y-93285910D03*
X166357093Y-78904238D03*
X316784216Y-92395051D03*
X149357102Y-72904249D03*
X248040501Y-80905066D03*
%TO.N,P1*%
X183357096Y-63904241D03*
X149357094Y-55904252D03*
X319443598Y-75604356D03*
X130382469Y-62394485D03*
X282040498Y-55905064D03*
X112024180Y-76495212D03*
X336234302Y-78263740D03*
X265040508Y-61905067D03*
X301029022Y-61997688D03*
X95233478Y-79154597D03*
X248040502Y-63905072D03*
X166357101Y-61904248D03*
%TO.N,P0*%
X322102990Y-58813654D03*
X183357104Y-46904252D03*
X92574090Y-62363891D03*
X149357097Y-38904253D03*
X265040494Y-44905072D03*
X248040508Y-46905067D03*
X282040498Y-38905062D03*
X129196613Y-45435892D03*
X338893691Y-61473040D03*
X166357092Y-44904240D03*
X109364789Y-59704513D03*
X302214879Y-45039101D03*
%TO.N,P3*%
X165357098Y-98904244D03*
X202884450Y-103562029D03*
X248076337Y-100222065D03*
X183342953Y-99724456D03*
X228856912Y-105512359D03*
X266040500Y-98905067D03*
%TO.N,GND*%
X235055894Y-51581772D03*
%TO.N,RAW*%
X246955900Y-42381763D03*
%TO.N,BAT_P*%
X247805895Y-42431771D03*
X235855893Y-51581770D03*
X205150133Y-50701689D03*
%TO.N,mirror_outer_bottom*%
X339204741Y-95946117D03*
%TO.N,mirror_outer_home*%
X341864120Y-79155415D03*
%TO.N,mirror_outer_top*%
X344523507Y-62364717D03*
%TO.N,mirror_pinky_bottom*%
X322414040Y-93286738D03*
%TO.N,mirror_pinky_home*%
X325073429Y-76496027D03*
%TO.N,mirror_pinky_top*%
X327732803Y-59705338D03*
%TO.N,mirror_ring_bottom*%
X305529270Y-79353887D03*
%TO.N,mirror_ring_home*%
X306715131Y-62395293D03*
%TO.N,mirror_ring_top*%
X307900998Y-45436714D03*
%TO.N,mirror_middle_bottom*%
X287740500Y-72905062D03*
%TO.N,mirror_middle_home*%
X287740499Y-55905063D03*
%TO.N,mirror_middle_top*%
X287740499Y-38905075D03*
%TO.N,mirror_index_bottom*%
X270740503Y-78905067D03*
%TO.N,mirror_index_home*%
X270740504Y-61905063D03*
%TO.N,mirror_index_top*%
X270740509Y-44905058D03*
%TO.N,mirror_inner_bottom*%
X253740501Y-80905071D03*
%TO.N,mirror_inner_home*%
X253740502Y-63905065D03*
%TO.N,mirror_inner_top*%
X253740502Y-46905067D03*
%TO.N,mirror_near_thumb*%
X271740504Y-98905069D03*
%TO.N,mirror_home_thumb*%
X253754645Y-99725274D03*
%TO.N,mirror_far_thumb*%
X234213164Y-103562848D03*
%TD*%
D36*
%TO.N,RST*%
X295525000Y-43250000D02*
X299625000Y-43250000D01*
X300350000Y-43261607D02*
X315771968Y-44340011D01*
X299625000Y-43250000D02*
X300350000Y-43261607D01*
%TO.N,GND*%
X295620343Y-42779657D02*
X300700000Y-42779657D01*
X301350000Y-42824542D02*
X315911216Y-43842757D01*
X300700000Y-42779657D02*
X301350000Y-42824542D01*
X232911102Y-42876568D02*
X232980893Y-42806777D01*
X232980893Y-42806777D02*
X233655892Y-42131774D01*
X295620343Y-42770343D02*
X295620343Y-42779657D01*
X315911216Y-43842757D02*
X315911925Y-43843580D01*
X245805895Y-40131770D02*
X272805896Y-40131772D01*
X233655896Y-40431770D02*
X234905895Y-39181775D01*
X315911925Y-43843580D02*
X318309662Y-45650405D01*
X244855893Y-39181766D02*
X245805895Y-40131770D01*
X272805896Y-40131772D02*
X276705892Y-36231770D01*
X234905895Y-39181775D02*
X244855893Y-39181766D01*
X276705892Y-36231770D02*
X291855893Y-36231769D01*
X292399562Y-36775438D02*
X292399562Y-39549562D01*
X291855893Y-36231769D02*
X292399562Y-36775438D01*
X233655892Y-42131774D02*
X233655896Y-40431770D01*
X292399562Y-39549562D02*
X295620343Y-42770343D01*
X318309662Y-45650405D02*
X318350709Y-45942422D01*
%TO.N,RST*%
X228155892Y-44031771D02*
X228605895Y-44481771D01*
X316948695Y-46846663D02*
X321940171Y-50608004D01*
X235155891Y-39631769D02*
X244555890Y-39631771D01*
X277005896Y-36731770D02*
X291705895Y-36731767D01*
X234155895Y-42731771D02*
X234155893Y-40631769D01*
X228155896Y-43281776D02*
X228155892Y-44031771D01*
X234155893Y-40631769D02*
X235155891Y-39631769D01*
X232405897Y-44481772D02*
X234130894Y-42756772D01*
X228480893Y-42956772D02*
X228155896Y-43281776D01*
X244555890Y-39631771D02*
X245555891Y-40631773D01*
X245555891Y-40631773D02*
X273105897Y-40631766D01*
X228605895Y-44481771D02*
X232405897Y-44481772D01*
X234130894Y-42756772D02*
X234155895Y-42731771D01*
X291962064Y-36987936D02*
X291962064Y-39687064D01*
X291962064Y-39687064D02*
X295525000Y-43250000D01*
X273105897Y-40631766D02*
X277005896Y-36731770D01*
X291705895Y-36731767D02*
X291962064Y-36987936D01*
X323096261Y-50445531D02*
X323541845Y-49854211D01*
X315771968Y-44340011D02*
X315771977Y-44340006D01*
X316694063Y-45034850D02*
X316948695Y-46846663D01*
X315771977Y-44340006D02*
X316694063Y-45034850D01*
X321940171Y-50608004D02*
X323096261Y-50445531D01*
%TO.N,P4*%
X228105901Y-56281769D02*
X229130894Y-57306769D01*
X223270499Y-51445070D02*
X224069190Y-51445067D01*
X224555895Y-51931770D02*
X224555896Y-51931773D01*
X229630897Y-57806773D02*
X247430896Y-57806773D01*
X224755896Y-52131767D02*
X224755897Y-56031770D01*
X224755897Y-56031770D02*
X225005893Y-56281765D01*
X224555896Y-51931773D02*
X224755896Y-52131767D01*
X225005893Y-56281765D02*
X228105901Y-56281769D01*
X248255889Y-56981778D02*
X248255897Y-52389669D01*
X247430896Y-57806773D02*
X248255889Y-56981778D01*
X229130894Y-57306769D02*
X229630897Y-57806773D01*
X248255897Y-52389669D02*
X248390503Y-52255065D01*
X224069190Y-51445067D02*
X224555895Y-51931770D01*
D37*
%TO.N,outer_bottom*%
X103522690Y-95053626D02*
X102337456Y-95241338D01*
%TO.N,outer_home*%
X100863298Y-78262920D02*
X99678073Y-78450632D01*
%TO.N,outer_top*%
X98203915Y-61472214D02*
X97018688Y-61659937D01*
D36*
%TO.N,P5*%
X227855897Y-56731773D02*
X224655897Y-56731771D01*
X261463802Y-54181773D02*
X251655893Y-54181771D01*
X229380893Y-58256770D02*
X227855897Y-56731773D01*
X251655893Y-54181771D02*
X247580897Y-58256775D01*
X223270502Y-53985063D02*
X223809189Y-53985071D01*
X224655897Y-56731771D02*
X224355897Y-56431772D01*
X265390503Y-50255062D02*
X261463802Y-54181773D01*
X224355894Y-55070459D02*
X223270500Y-53985065D01*
X229380893Y-58256770D02*
X247580897Y-58256775D01*
X229380893Y-58256770D02*
X229380893Y-58256770D01*
X224355897Y-56431772D02*
X224355894Y-55070459D01*
D37*
%TO.N,pinky_bottom*%
X120313387Y-92394239D02*
X119128160Y-92581957D01*
%TO.N,pinky_home*%
X117654004Y-75603533D02*
X116468771Y-75791254D01*
%TO.N,pinky_top*%
X114994621Y-58812837D02*
X113809390Y-59000551D01*
D36*
%TO.N,P6*%
X278430890Y-46356770D02*
X278255891Y-46531770D01*
X264105894Y-52131774D02*
X261655899Y-54581772D01*
X261655899Y-54581772D02*
X251821578Y-54581775D01*
X251821578Y-54581775D02*
X247713736Y-58689615D01*
X281113793Y-45531771D02*
X280655894Y-45531772D01*
X280655894Y-45531772D02*
X279255895Y-45531774D01*
X278255891Y-46531770D02*
X278255895Y-46831770D01*
X278255895Y-46831770D02*
X278255896Y-48389672D01*
X247713736Y-58689615D02*
X229248047Y-58689616D01*
X271305887Y-52131771D02*
X264605892Y-52131778D01*
X273155894Y-49181773D02*
X272255893Y-50081771D01*
X281113790Y-45531769D02*
X282390500Y-44255065D01*
X224455895Y-57181770D02*
X223799184Y-56525059D01*
X280655894Y-45531772D02*
X281113790Y-45531769D01*
X282390498Y-44255067D02*
X281113793Y-45531771D01*
X277463790Y-49181765D02*
X273155894Y-49181773D01*
X272255893Y-50081771D02*
X272255893Y-51181767D01*
X223799184Y-56525059D02*
X223270497Y-56525060D01*
X227740197Y-57181775D02*
X224455895Y-57181770D01*
X272255893Y-51181767D02*
X271305887Y-52131771D01*
X229248047Y-58689616D02*
X227740197Y-57181775D01*
X264605892Y-52131778D02*
X264105894Y-52131774D01*
X279255895Y-45531774D02*
X278430890Y-46356770D01*
X278255896Y-48389672D02*
X277463790Y-49181765D01*
D37*
%TO.N,ring_bottom*%
X137254441Y-78955450D02*
X136057370Y-79039162D01*
%TO.N,ring_home*%
X136068587Y-61996871D02*
X134871505Y-62080577D01*
%TO.N,ring_top*%
X134882721Y-45038272D02*
X133685653Y-45121985D01*
D36*
%TO.N,P7*%
X240005895Y-56281771D02*
X240005897Y-54681770D01*
X261805899Y-48731771D02*
X277205892Y-48731775D01*
X240005897Y-54681770D02*
X241473051Y-53214613D01*
X279355889Y-42781766D02*
X292105893Y-42781770D01*
X277805894Y-44031771D02*
X277813737Y-44023923D01*
X278721581Y-42781771D02*
X279355889Y-42781766D01*
X241473051Y-53214613D02*
X242238739Y-53214614D01*
X238510496Y-56525069D02*
X239003799Y-56031772D01*
X277205892Y-48731775D02*
X277805894Y-48131769D01*
X277805894Y-48131769D02*
X277805894Y-44031771D01*
X292105893Y-42781770D02*
X298305900Y-48981774D01*
X239762597Y-56525066D02*
X240005895Y-56281771D01*
X277813737Y-44023923D02*
X277813736Y-43689614D01*
X277813736Y-43689614D02*
X278721581Y-42781771D01*
X260055891Y-50481772D02*
X261805899Y-48731771D01*
X238510495Y-56525071D02*
X239762597Y-56525066D01*
X242238739Y-53214614D02*
X244971578Y-50481771D01*
X244971578Y-50481771D02*
X260055891Y-50481772D01*
X300772126Y-48981772D02*
X302190827Y-50400479D01*
X298305900Y-48981774D02*
X300772126Y-48981772D01*
D37*
%TO.N,middle_bottom*%
X155057103Y-72904249D02*
X153857107Y-72904244D01*
%TO.N,middle_home*%
X155057102Y-55904247D02*
X153857096Y-55904242D01*
%TO.N,middle_top*%
X155057097Y-38904246D02*
X153857097Y-38904248D01*
D36*
%TO.N,P8*%
X300955892Y-48531770D02*
X308085551Y-49030325D01*
X276855895Y-48281772D02*
X276955894Y-48281768D01*
X238510498Y-53985066D02*
X239805895Y-53985065D01*
X320491633Y-62610826D02*
X321611748Y-64152522D01*
X317892773Y-57071533D02*
X317217829Y-61332956D01*
X292455896Y-42381770D02*
X298605899Y-48531770D01*
X309010790Y-50094701D02*
X309196357Y-50308162D01*
X316861741Y-55731086D02*
X317209672Y-56131328D01*
X309196357Y-50308162D02*
X312338681Y-50527897D01*
X298605899Y-48531770D02*
X300955892Y-48531770D01*
X259755897Y-50081773D02*
X259805891Y-50031776D01*
X277405893Y-47831766D02*
X277405899Y-43931773D01*
X259805891Y-50031776D02*
X261555895Y-48281775D01*
X277405899Y-43931773D02*
X277405896Y-43531771D01*
X239805895Y-53985065D02*
X239852596Y-53985068D01*
X261555895Y-48281775D02*
X276855895Y-48281772D01*
X317209672Y-56131328D02*
X317892773Y-57071533D01*
X278555900Y-42381769D02*
X292455896Y-42381770D01*
X239852596Y-53985068D02*
X241155895Y-52681770D01*
X317841269Y-62191056D02*
X320491633Y-62610826D01*
X242205895Y-52681768D02*
X242380895Y-52506767D01*
X244805891Y-50081771D02*
X259755897Y-50081773D01*
X242380895Y-52506767D02*
X244805891Y-50081771D01*
X317217829Y-61332956D02*
X317841269Y-62191056D01*
X312338681Y-50527897D02*
X316861741Y-55731086D01*
X308085551Y-49030325D02*
X309010790Y-50094701D01*
X276955894Y-48281768D02*
X277405893Y-47831766D01*
X241155895Y-52681770D02*
X242205895Y-52681768D01*
X277405896Y-43531771D02*
X278555900Y-42381769D01*
D37*
%TO.N,index_bottom*%
X172057098Y-78904244D02*
X170857102Y-78904250D01*
%TO.N,index_home*%
X172057105Y-61904246D02*
X170857101Y-61904247D01*
%TO.N,index_top*%
X172057099Y-44904249D02*
X170857103Y-44904242D01*
D36*
%TO.N,P9*%
X244505896Y-49731778D02*
X244605895Y-49631771D01*
X278355896Y-41981772D02*
X278230898Y-42106774D01*
X318025927Y-61764690D02*
X336875289Y-64750136D01*
X308424427Y-48504023D02*
X309580378Y-49833794D01*
X279055895Y-41981772D02*
X292705894Y-41981769D01*
X261255892Y-47881771D02*
X276455893Y-47881771D01*
X242792600Y-51445066D02*
X242792600Y-51445070D01*
X317255648Y-55482776D02*
X317555271Y-55782396D01*
X244605895Y-49631771D02*
X259505890Y-49631772D01*
X317555271Y-55782396D02*
X318374066Y-56909376D01*
X277005894Y-43331772D02*
X278230898Y-42106774D01*
X242792600Y-51445066D02*
X244505896Y-49731778D01*
X317254895Y-55482773D02*
X317255648Y-55482776D01*
X318374066Y-56909376D02*
X317680387Y-61289101D01*
X309580378Y-49833794D02*
X312523194Y-50039576D01*
X317680387Y-61289101D02*
X318025927Y-61764690D01*
X277005891Y-47581770D02*
X277005894Y-43681776D01*
X298162638Y-47438516D02*
X298633531Y-47980206D01*
X276705899Y-47881774D02*
X277005891Y-47581770D01*
X298655898Y-47981770D02*
X300955896Y-47981776D01*
X242055893Y-52181771D02*
X239247204Y-52181770D01*
X312523194Y-50039576D02*
X317254895Y-55482773D01*
X292705894Y-41981769D02*
X293205892Y-42481774D01*
X239247204Y-52181770D02*
X238510501Y-51445068D01*
X336875289Y-64750136D02*
X338369456Y-66806688D01*
X259505890Y-49631772D02*
X261255892Y-47881771D01*
X298633531Y-47980206D02*
X298655898Y-47981770D01*
X242792600Y-51445070D02*
X242055893Y-52181771D01*
X279055895Y-41981772D02*
X278355896Y-41981772D01*
X276455893Y-47881771D02*
X276705899Y-47881774D01*
X300955896Y-47981776D02*
X308424427Y-48504023D01*
X293205892Y-42481774D02*
X298162638Y-47438516D01*
X338369456Y-66806688D02*
X338402451Y-66811912D01*
X277005894Y-43681776D02*
X277005894Y-43331772D01*
D37*
%TO.N,inner_bottom*%
X189057100Y-80904246D02*
X187857096Y-80904253D01*
%TO.N,inner_home*%
X189057102Y-63904254D02*
X187857098Y-63904249D01*
%TO.N,inner_top*%
X189057100Y-46904250D02*
X187857105Y-46904249D01*
%TO.N,near_thumb*%
X171057095Y-98904249D02*
X169857101Y-98904251D01*
%TO.N,home_thumb*%
X189021259Y-100221239D02*
X187825831Y-100116662D01*
%TO.N,far_thumb*%
X208240694Y-105511536D02*
X207113057Y-105101115D01*
%TO.N,P2*%
X131568330Y-79353067D02*
X132765407Y-79269358D01*
D36*
X160900140Y-77701692D02*
X154825142Y-71626692D01*
X115906399Y-93335614D02*
X117640318Y-94595385D01*
X190600137Y-58676686D02*
X186573633Y-62703196D01*
X132765410Y-79269358D02*
X132752626Y-79086588D01*
X266240504Y-78905071D02*
X267567210Y-80231766D01*
D37*
X183357101Y-80904244D02*
X184557102Y-80904256D01*
D36*
X167557103Y-78904234D02*
X167502695Y-78904241D01*
X166350142Y-77751687D02*
X160950140Y-77751685D01*
X249240501Y-80905064D02*
X250417200Y-82081769D01*
X99953950Y-94156732D02*
X114216554Y-91897763D01*
X183300140Y-79651694D02*
X178225142Y-79651694D01*
X125444744Y-86018904D02*
X130121242Y-79582261D01*
X151834658Y-71626689D02*
X150557096Y-72904244D01*
X267567210Y-80231766D02*
X274305893Y-80231774D01*
X184552694Y-80904244D02*
X183300140Y-79651694D01*
X185649683Y-79811664D02*
X184557096Y-80904249D01*
D37*
X282040510Y-72905067D02*
X283240504Y-72905064D01*
D36*
X132752626Y-79086588D02*
X134324584Y-77278262D01*
X250417200Y-82081769D02*
X261863797Y-82081771D01*
X114216554Y-91897763D02*
X115868788Y-93098183D01*
X126293410Y-91377114D02*
X125444744Y-86018904D01*
X198587097Y-46364246D02*
X196800135Y-46364250D01*
X310739611Y-82631763D02*
X302727889Y-81362836D01*
D37*
X299843162Y-78956271D02*
X301040235Y-79039982D01*
D36*
X319384644Y-94530647D02*
X332812267Y-96657372D01*
X196800135Y-46364250D02*
X196462578Y-46364248D01*
X178225142Y-79651694D02*
X176000136Y-77426692D01*
X130121242Y-79582261D02*
X131568330Y-79353067D01*
X186573633Y-62703196D02*
X185649682Y-63627146D01*
X297263133Y-75988303D02*
X299843162Y-78956271D01*
D37*
X316784216Y-92395051D02*
X317969435Y-92582774D01*
D36*
X302727889Y-81362836D02*
X301040242Y-79039975D01*
X261863797Y-82081771D02*
X265040503Y-78905069D01*
X281632601Y-72905063D02*
X283240504Y-72905070D01*
X285186627Y-75143824D02*
X297263133Y-75988303D01*
X185649682Y-63627146D02*
X185649683Y-79811664D01*
D37*
X248040501Y-80905066D02*
X249240502Y-80905063D01*
D36*
X176000136Y-77426692D02*
X169034645Y-77426687D01*
X317969436Y-92582772D02*
X310739611Y-82631763D01*
D37*
X333574920Y-95054437D02*
X334760148Y-95242165D01*
D36*
X184557096Y-80904249D02*
X184552694Y-80904244D01*
X115868788Y-93098183D02*
X115906399Y-93335614D01*
X99026682Y-95433010D02*
X99953950Y-94156732D01*
X167502695Y-78904241D02*
X166350142Y-77751687D01*
X134324584Y-77278262D02*
X146281651Y-76442135D01*
X194950138Y-47876691D02*
X190650139Y-52176695D01*
X283240505Y-72905067D02*
X285186627Y-75143824D01*
X196462578Y-46364248D02*
X194950138Y-47876691D01*
D37*
X265040503Y-78905069D02*
X266240501Y-78905067D01*
D36*
X124776369Y-93465142D02*
X126293410Y-91377114D01*
D37*
X97892864Y-95945298D02*
X99078085Y-95757576D01*
D36*
X169034645Y-77426687D02*
X167557103Y-78904234D01*
X99078089Y-95757567D02*
X99026682Y-95433010D01*
X154825142Y-71626692D02*
X151834658Y-71626689D01*
D37*
X149357102Y-72904249D02*
X150557098Y-72904252D01*
X114683559Y-93285910D02*
X115868790Y-93098189D01*
D36*
X274305893Y-80231774D02*
X281632601Y-72905063D01*
X160950140Y-77751685D02*
X160900140Y-77701692D01*
X190650139Y-52176695D02*
X190600138Y-52226692D01*
X117640318Y-94595385D02*
X124776369Y-93465142D01*
D37*
X166357093Y-78904238D02*
X167557097Y-78904240D01*
D36*
X146281651Y-76442135D02*
X149357102Y-72904249D01*
X332812267Y-96657372D02*
X334760144Y-95242164D01*
X317969436Y-92582772D02*
X319384644Y-94530647D01*
X190600138Y-52226692D02*
X190600137Y-58676686D01*
%TO.N,P1*%
X249240502Y-63905063D02*
X249240506Y-64066382D01*
X144219874Y-60020958D02*
X147697604Y-56020299D01*
X190200137Y-58401691D02*
X184697587Y-63904249D01*
X194600142Y-44601689D02*
X194600137Y-47576692D01*
X274105893Y-63281770D02*
X281405891Y-55981769D01*
X319706911Y-75646059D02*
X312227712Y-65351807D01*
D37*
X130382469Y-62394485D02*
X131579543Y-62310768D01*
D36*
X98627874Y-80571925D02*
X111823018Y-78482027D01*
X184557097Y-63904251D02*
X184557104Y-63833649D01*
X169150137Y-60301691D02*
X167557098Y-61894723D01*
X266240502Y-61916379D02*
X267605893Y-63281773D01*
D37*
X149357094Y-55904252D02*
X150557102Y-55904246D01*
D36*
X303610600Y-63986996D02*
X302226097Y-62081393D01*
X115103945Y-77683951D02*
X121706260Y-76638241D01*
X154862643Y-54564190D02*
X154857879Y-54568956D01*
X136951611Y-60729696D02*
X137137174Y-60516231D01*
X183475139Y-62751686D02*
X177675137Y-62751684D01*
X132711959Y-61026170D02*
X136951611Y-60729696D01*
D37*
X282040498Y-55905064D02*
X283240500Y-55905066D01*
D36*
X184697587Y-63904249D02*
X184557097Y-63904251D01*
X131579551Y-62310769D02*
X131596290Y-62309597D01*
X312227712Y-65351807D02*
X303610600Y-63986996D01*
X96418708Y-78966874D02*
X98627874Y-80571925D01*
D37*
X301029022Y-61997688D02*
X302226097Y-62081393D01*
D36*
X160650142Y-60351697D02*
X154862643Y-54564190D01*
X123877915Y-73649226D02*
X123279554Y-69871316D01*
D37*
X166357101Y-61904248D02*
X167557099Y-61904250D01*
X265040508Y-61905067D02*
X266240504Y-61905067D01*
D36*
X137137174Y-60516231D02*
X144219874Y-60020958D01*
X267605893Y-63281773D02*
X274105893Y-63281770D01*
D37*
X112024180Y-76495212D02*
X113209416Y-76307492D01*
D36*
X281405891Y-55981769D02*
X283163800Y-55981770D01*
X151892396Y-54568952D02*
X150557104Y-55904247D01*
X177675137Y-62751684D02*
X175225138Y-60301688D01*
X121706260Y-76638241D02*
X123877915Y-73649226D01*
X167557094Y-61858651D02*
X166050139Y-60351687D01*
X249240506Y-64066382D02*
X250355896Y-65181772D01*
X154857879Y-54568956D02*
X151892396Y-54568952D01*
D37*
X95233478Y-79154597D02*
X96418702Y-78966881D01*
D36*
X266240502Y-61905069D02*
X266240502Y-61916379D01*
D37*
X248040502Y-63905072D02*
X249240500Y-63905066D01*
D36*
X147697604Y-56020299D02*
X149357094Y-55904252D01*
X283163800Y-55981770D02*
X283240500Y-55905066D01*
X190200143Y-51976689D02*
X190200137Y-58401691D01*
X166050139Y-60351687D02*
X160650142Y-60351697D01*
X128494543Y-62693494D02*
X130382469Y-62394485D01*
D37*
X319443598Y-75604356D02*
X320628826Y-75792070D01*
D36*
X175225138Y-60301688D02*
X169150137Y-60301691D01*
X131596290Y-62309597D02*
X132711959Y-61026170D01*
X167557104Y-61904238D02*
X167557094Y-61858651D01*
X113244042Y-76526149D02*
X113209412Y-76307490D01*
D37*
X183357096Y-63904241D02*
X184557098Y-63904252D01*
D36*
X184557104Y-63833649D02*
X183475139Y-62751686D01*
X322210288Y-77968766D02*
X335242832Y-80032924D01*
X111823018Y-78482027D02*
X113244042Y-76526149D01*
X320628827Y-75792065D02*
X322210288Y-77968766D01*
X198587095Y-43824250D02*
X195377577Y-43824248D01*
X195377577Y-43824248D02*
X194600142Y-44601689D01*
D37*
X336234302Y-78263740D02*
X337419529Y-78451460D01*
D36*
X167557098Y-61894723D02*
X167557104Y-61904238D01*
X335242832Y-80032924D02*
X337419527Y-78451459D01*
X286447132Y-59593878D02*
X283240500Y-55905066D01*
X261763797Y-65181773D02*
X265040508Y-61905067D01*
X300945008Y-60607666D02*
X286447132Y-59593878D01*
X250355896Y-65181772D02*
X261763797Y-65181773D01*
X194600137Y-47576692D02*
X190200143Y-51976689D01*
X123279554Y-69871316D02*
X128494543Y-62693494D01*
X320628827Y-75792065D02*
X319706911Y-75646059D01*
X302226099Y-62081393D02*
X300945008Y-60607666D01*
X113209412Y-76307490D02*
X115103945Y-77683951D01*
%TO.N,P0*%
X160775140Y-43526692D02*
X154825139Y-37576697D01*
X138099067Y-42896916D02*
X137550135Y-43445844D01*
X196642577Y-41284249D02*
X196250141Y-41676688D01*
X281249999Y-41581772D02*
X278105893Y-41581769D01*
X285475000Y-41581770D02*
X292905895Y-41581771D01*
X193117291Y-48493848D02*
X184974263Y-48493852D01*
X323288215Y-59001375D02*
X324944330Y-57798136D01*
D37*
X282040498Y-38905062D02*
X283240497Y-38905063D01*
X322102990Y-58813654D02*
X323288212Y-59001376D01*
D36*
X196250134Y-42876690D02*
X195750138Y-43376685D01*
X112415949Y-60872466D02*
X119166414Y-59803296D01*
X285475000Y-41581770D02*
X283240510Y-39347279D01*
X317487682Y-55049984D02*
X317499907Y-55049988D01*
X320144001Y-58503381D02*
X322102990Y-58813654D01*
X150557099Y-38904254D02*
X150557092Y-38894732D01*
X95691953Y-63571907D02*
X109152779Y-61439925D01*
X167557096Y-44904250D02*
X166179545Y-43526693D01*
X150557092Y-38894732D02*
X151875132Y-37576694D01*
X145400144Y-42896912D02*
X138099067Y-42896916D01*
X166179545Y-43526693D02*
X160775140Y-43526692D01*
X93759322Y-62176164D02*
X93768822Y-62174667D01*
D37*
X183357104Y-46904252D02*
X184557096Y-46904246D01*
D36*
X194200140Y-44326690D02*
X194200136Y-47411006D01*
X169184649Y-43276688D02*
X167557096Y-44904250D01*
X110550021Y-59516786D02*
X112415949Y-60872466D01*
X283240510Y-39591262D02*
X281249999Y-41581772D01*
X297027206Y-45681770D02*
X298876105Y-47530668D01*
X292905895Y-41581771D02*
X297005895Y-45681773D01*
X324944330Y-57798136D02*
X338875675Y-60004639D01*
X184557101Y-48076691D02*
X184557098Y-46904251D01*
X303411954Y-45122802D02*
X303381272Y-45561568D01*
X283217719Y-39230931D02*
X283240504Y-38905065D01*
X251240508Y-44905065D02*
X265040494Y-44905072D01*
X312754099Y-49604626D02*
X317487682Y-55049984D01*
X121629011Y-56413832D02*
X121460845Y-55352065D01*
D37*
X265040494Y-44905072D02*
X266240502Y-44905063D01*
D36*
X303372624Y-45685221D02*
X301249685Y-47530666D01*
X249240508Y-46905063D02*
X249240502Y-47116381D01*
X303411954Y-45122802D02*
X303372624Y-45685221D01*
X184974263Y-48493852D02*
X184557101Y-48076691D01*
X145400140Y-42861210D02*
X149357097Y-38904253D01*
X175575136Y-43276688D02*
X169184649Y-43276688D01*
X303344822Y-45546659D02*
X303411956Y-45122806D01*
X338875675Y-60004639D02*
X340078918Y-61660762D01*
X196250141Y-41676688D02*
X196250134Y-42876690D01*
X145400144Y-42896912D02*
X145400140Y-42861210D01*
D37*
X338893691Y-61473040D02*
X340078910Y-61660760D01*
X248040508Y-46905067D02*
X249240510Y-46905067D01*
D36*
X276155897Y-43531772D02*
X267005892Y-43531771D01*
X121460845Y-55352065D02*
X128596288Y-45530974D01*
X198587096Y-41284249D02*
X196800134Y-41284252D01*
X194200136Y-47411006D02*
X193117291Y-48493848D01*
D37*
X166357092Y-44904240D02*
X167557094Y-44904258D01*
D36*
X276155897Y-43531772D02*
X276155896Y-43531763D01*
X196800134Y-41284252D02*
X196642577Y-41284249D01*
X266240500Y-44905064D02*
X266240498Y-44297168D01*
D37*
X149357097Y-38904253D02*
X150557103Y-38904251D01*
X109364789Y-59704513D02*
X110550022Y-59516783D01*
D36*
X128596288Y-45530974D02*
X129196613Y-45435892D01*
X283240511Y-38905064D02*
X283240510Y-39591262D01*
X154825139Y-37576697D02*
X151875132Y-37576694D01*
X119166414Y-59803296D02*
X121629011Y-56413832D01*
X309811280Y-49398843D02*
X312754099Y-49604626D01*
X321576142Y-58730205D02*
X323288215Y-59001375D01*
X303381272Y-45561568D02*
X305310550Y-47780947D01*
X130393681Y-45352173D02*
X131694918Y-43855276D01*
X317499907Y-55049988D02*
X317993794Y-55543868D01*
X297005895Y-45681773D02*
X297027206Y-45681770D01*
X283240510Y-39347279D02*
X283240511Y-38905064D01*
X317993794Y-55543868D02*
X320144001Y-58503381D01*
D37*
X92574090Y-62363891D02*
X93759324Y-62176178D01*
D36*
X93768822Y-62174667D02*
X95691953Y-63571907D01*
X267005892Y-43531771D02*
X266855894Y-43681769D01*
X305310550Y-47780947D02*
X308605130Y-48011324D01*
D37*
X302214879Y-45039101D02*
X303411955Y-45122803D01*
D36*
X249240504Y-46905070D02*
X251240508Y-44905065D01*
X266240498Y-44297168D02*
X266855894Y-43681769D01*
X266240501Y-44297164D02*
X266855894Y-43681769D01*
X195750138Y-43376685D02*
X195150132Y-43376688D01*
X308605130Y-48011324D02*
X309811280Y-49398843D01*
X195150132Y-43376688D02*
X194200140Y-44326690D01*
D37*
X129196613Y-45435892D02*
X130393683Y-45352179D01*
D36*
X131694918Y-43855276D02*
X137550135Y-43445844D01*
X283240503Y-38905063D02*
X283240503Y-38847160D01*
X276155896Y-43531763D02*
X278105893Y-41581769D01*
X298876105Y-47530668D02*
X301249685Y-47530666D01*
X266240505Y-44905066D02*
X266240501Y-44297164D01*
X109152779Y-61439925D02*
X110550021Y-59516786D01*
X184557099Y-46904245D02*
X183029541Y-45376686D01*
X177675140Y-45376691D02*
X175575136Y-43276688D01*
X183029541Y-45376686D02*
X177675140Y-45376691D01*
%TO.N,P3*%
X183342953Y-99724456D02*
X183359999Y-99529677D01*
X195825140Y-48904243D02*
X198587100Y-48904249D01*
X186000134Y-80076689D02*
X186273628Y-79803196D01*
X186000139Y-86951697D02*
X186000134Y-80076689D01*
X191207975Y-52184531D02*
X194488271Y-48904248D01*
D37*
X248076337Y-100222065D02*
X249271775Y-100117477D01*
D36*
X186273629Y-63603199D02*
X187261132Y-62615695D01*
D37*
X183342953Y-99724456D02*
X184538395Y-99829044D01*
D36*
X182300231Y-98266701D02*
X182250422Y-98262348D01*
X192620730Y-99208045D02*
X193534506Y-100297033D01*
X187261132Y-62615695D02*
X190675143Y-59201689D01*
D37*
X266040500Y-98905067D02*
X267240501Y-98905063D01*
D36*
X165325135Y-97672285D02*
X165325134Y-88976694D01*
X175433099Y-97326688D02*
X168134654Y-97326689D01*
X186273628Y-79803196D02*
X186273629Y-63603199D01*
D37*
X165357098Y-98904244D02*
X166557097Y-98904246D01*
D36*
X190675145Y-59201687D02*
X191050135Y-58826688D01*
X185537642Y-87414190D02*
X186000139Y-86951697D01*
X175800062Y-97697999D02*
X175777330Y-97670918D01*
X191050138Y-52342377D02*
X191207975Y-52184531D01*
X166557102Y-98904248D02*
X165325135Y-97672285D01*
X248012862Y-99061122D02*
X242543715Y-99539613D01*
X191050135Y-58826688D02*
X191050138Y-52342377D01*
X249271773Y-100117474D02*
X250509933Y-98641886D01*
X184538392Y-99829047D02*
X185971723Y-98626335D01*
X249271773Y-100117474D02*
X248012862Y-99061122D01*
X264290082Y-97436285D02*
X266040500Y-98905067D01*
X250509933Y-98641886D02*
X264290082Y-97436285D01*
X185971723Y-98626335D02*
X192620730Y-99208045D01*
X194034002Y-100340731D02*
X202884450Y-103562029D01*
X168134654Y-97326689D02*
X166557102Y-98904248D01*
X231229577Y-102431960D02*
X238110647Y-99927451D01*
X242543715Y-99539613D02*
X238110647Y-99927451D01*
X165925138Y-88376691D02*
X184575133Y-88376688D01*
X193534506Y-100297033D02*
X194034002Y-100340731D01*
X194488271Y-48904248D02*
X195825140Y-48904243D01*
X190675143Y-59201689D02*
X190675145Y-59201687D01*
X175777330Y-97670918D02*
X175433099Y-97326688D01*
X165325134Y-88976694D02*
X165925138Y-88376691D01*
X184575133Y-88376688D02*
X185537642Y-87414190D01*
X182250422Y-98262348D02*
X175800062Y-97697999D01*
X229984544Y-105101937D02*
X231229577Y-102431960D01*
D37*
X202884450Y-103562029D02*
X204012072Y-103972445D01*
X228856912Y-105512359D02*
X229984546Y-105101934D01*
D36*
X183359999Y-99529677D02*
X182300231Y-98266701D01*
%TO.N,GND*%
X120912976Y-46046281D02*
X127311199Y-45598872D01*
X201207103Y-46685756D02*
X200025140Y-47867714D01*
X208350141Y-44476693D02*
X208750140Y-44076687D01*
X137295066Y-43062702D02*
X137826040Y-42451877D01*
X225001099Y-46686565D02*
X225001094Y-46686572D01*
X200549686Y-39501692D02*
X200922581Y-39501691D01*
X120897581Y-46044117D02*
X120912976Y-46046281D01*
X207422095Y-42875745D02*
X208374198Y-42875741D01*
X162175138Y-39501690D02*
X177500134Y-39501694D01*
X113555751Y-49853395D02*
X113765347Y-50131546D01*
X145225140Y-42451691D02*
X148700139Y-38976690D01*
X232105493Y-42876568D02*
X232911102Y-42876568D01*
X195775135Y-39501690D02*
X196550138Y-39501686D01*
X200025140Y-47867714D02*
X200025136Y-60951691D01*
X225890498Y-46686571D02*
X225001094Y-46686572D01*
X224405891Y-47281774D02*
X224405893Y-49831774D01*
X208750140Y-44076687D02*
X208750141Y-43251689D01*
X113765347Y-50131546D02*
X115204900Y-50333861D01*
X179500138Y-41326691D02*
X193950133Y-41326687D01*
X207650138Y-44476693D02*
X208350141Y-44476693D01*
X208374198Y-42875741D02*
X208750141Y-43251689D01*
X225001094Y-46686572D02*
X224405891Y-47281774D01*
X200922581Y-39501691D02*
X203225138Y-41804247D01*
X137828735Y-42451693D02*
X145225140Y-42451691D01*
X203225138Y-41804247D02*
X203225142Y-43701692D01*
X177500134Y-39501694D02*
X177675137Y-39501689D01*
X177675137Y-39501689D02*
X179500138Y-41326691D01*
X159375133Y-36701687D02*
X162175138Y-39501690D01*
X225255901Y-50681771D02*
X233855895Y-50681772D01*
X127311199Y-45598872D02*
X128249633Y-44519325D01*
X200025136Y-60951691D02*
X199700138Y-61276690D01*
X234055893Y-50681767D02*
X234955893Y-51581769D01*
X208374199Y-42875743D02*
X207422093Y-42875754D01*
X150000135Y-36701690D02*
X159375133Y-36701687D01*
X235305896Y-61281775D02*
X235655900Y-61281771D01*
X137826040Y-42451877D02*
X137828735Y-42451693D01*
X196550138Y-39501686D02*
X200549686Y-39501692D01*
X199207099Y-61004241D02*
X199207098Y-60594725D01*
X128249633Y-44519325D02*
X130546932Y-44358679D01*
X148700139Y-38976690D02*
X148700135Y-38001685D01*
X193950133Y-41326687D02*
X195775135Y-39501690D01*
X204000140Y-44476687D02*
X207650138Y-44476693D01*
X224405893Y-49831774D02*
X225255901Y-50681771D01*
X232105495Y-42876567D02*
X232911102Y-42876568D01*
X131309673Y-43481246D02*
X137295066Y-43062702D01*
X148700135Y-38001685D02*
X150000135Y-36701690D01*
X233855895Y-50681772D02*
X234055893Y-50681767D01*
X130546932Y-44358679D02*
X131309673Y-43481246D01*
X208750141Y-43251689D02*
X208374199Y-42875743D01*
X115204900Y-50333861D02*
X120897581Y-46044117D01*
X203225142Y-43701692D02*
X204000140Y-44476687D01*
X225890496Y-46686571D02*
X225001099Y-46686565D01*
%TO.N,RST*%
X204882097Y-42875754D02*
X204882096Y-42875755D01*
X131079357Y-43096370D02*
X137101876Y-42675236D01*
X127925362Y-44141021D02*
X130316619Y-43973810D01*
X137101876Y-42675236D02*
X137713795Y-41971308D01*
X201249680Y-39103793D02*
X203650140Y-41504250D01*
X195575139Y-39101689D02*
X201249683Y-39101688D01*
X148250141Y-37751694D02*
X149750134Y-36251686D01*
X137713795Y-41971308D02*
X137994263Y-41951691D01*
X148250138Y-38801688D02*
X148250141Y-37751694D01*
X204199198Y-42875752D02*
X204882097Y-42875754D01*
X149750134Y-36251686D02*
X159550141Y-36251685D01*
X159550141Y-36251685D02*
X159575135Y-36226690D01*
X203650140Y-41504250D02*
X203650136Y-42326684D01*
X177840827Y-39101692D02*
X179657982Y-40918849D01*
X228480893Y-42956772D02*
X228561103Y-42876571D01*
X179657982Y-40918849D02*
X193757983Y-40918846D01*
X118905101Y-45759604D02*
X127011082Y-45192786D01*
X145100140Y-41951688D02*
X148250138Y-38801688D01*
X118746894Y-45941606D02*
X118905101Y-45759604D01*
X323069407Y-49381768D02*
X323541843Y-49854209D01*
X127011082Y-45192786D02*
X127925362Y-44141021D01*
X137994263Y-41951691D02*
X145100140Y-41951688D01*
X159575135Y-36226690D02*
X162450135Y-39101690D01*
X228561103Y-42876571D02*
X229565497Y-42876567D01*
X177600136Y-39101695D02*
X177840827Y-39101692D01*
X228561108Y-42876568D02*
X228480893Y-42956772D01*
X162450135Y-39101690D02*
X177600136Y-39101695D01*
X203650136Y-42326684D02*
X204199198Y-42875752D01*
X229565496Y-42876564D02*
X228561108Y-42876568D01*
X130316619Y-43973810D02*
X131079357Y-43096370D01*
X201249683Y-39101688D02*
X201249680Y-39103793D01*
X193757983Y-40918846D02*
X195575139Y-39101689D01*
%TO.N,RAW*%
X225005891Y-49031769D02*
X225005892Y-49831770D01*
X237005896Y-48481776D02*
X237080898Y-48406771D01*
X246955895Y-43281770D02*
X246955900Y-42381763D01*
X237905895Y-47581774D02*
X244455892Y-47581772D01*
X225890504Y-48591555D02*
X225446101Y-48591556D01*
X244455892Y-47581772D02*
X246355895Y-45681776D01*
X236355891Y-50231773D02*
X236355894Y-50231776D01*
X236355894Y-50231776D02*
X237005896Y-49581766D01*
X246355897Y-43881774D02*
X246955895Y-43281770D01*
X225005892Y-49831770D02*
X225405892Y-50231771D01*
X225446103Y-48591562D02*
X225005891Y-49031769D01*
X246355895Y-45681776D02*
X246355897Y-43881774D01*
X225405892Y-50231771D02*
X236355891Y-50231773D01*
X225446101Y-48591556D02*
X225005891Y-49031769D01*
X237080898Y-48406771D02*
X237905895Y-47581774D01*
X225890506Y-48591561D02*
X225446103Y-48591562D01*
X237005896Y-49581766D02*
X237005896Y-48481776D01*
%TO.N,BAT_P*%
X247805896Y-43281772D02*
X247805895Y-42431771D01*
X201700133Y-60654696D02*
X201700127Y-60776691D01*
X237305894Y-50131770D02*
X240755899Y-50131773D01*
X246905895Y-45981775D02*
X246905893Y-44181771D01*
X241705895Y-48081771D02*
X244805900Y-48081768D01*
X237055897Y-61031765D02*
X237305895Y-61281772D01*
X240755899Y-50131773D02*
X241305895Y-49581774D01*
X200425136Y-59379703D02*
X201700133Y-60654696D01*
X241305894Y-48481771D02*
X241705895Y-48081771D01*
X205075139Y-50776688D02*
X200700135Y-50776687D01*
X241305895Y-49581774D02*
X241305894Y-48481771D01*
X200425141Y-51051692D02*
X200425136Y-59379703D01*
X205150133Y-50701689D02*
X205075139Y-50776688D01*
X237305892Y-50131769D02*
X237305894Y-50131770D01*
X200700135Y-50776687D02*
X200425141Y-51051692D01*
X246905893Y-44181771D02*
X247805896Y-43281772D01*
X244805900Y-48081768D02*
X246905895Y-45981775D01*
X235855893Y-51581770D02*
X237305892Y-50131769D01*
D37*
%TO.N,mirror_outer_bottom*%
X339204741Y-95946117D02*
X338019508Y-95758390D01*
%TO.N,mirror_outer_home*%
X341864120Y-79155415D02*
X340678900Y-78967690D01*
%TO.N,mirror_outer_top*%
X344523507Y-62364717D02*
X343338283Y-62176989D01*
%TO.N,mirror_pinky_bottom*%
X322414040Y-93286738D02*
X321228806Y-93099008D01*
%TO.N,mirror_pinky_home*%
X325073429Y-76496027D02*
X323888197Y-76308312D01*
%TO.N,mirror_pinky_top*%
X327732803Y-59705338D02*
X326547587Y-59517610D01*
%TO.N,mirror_ring_bottom*%
X305529270Y-79353887D02*
X304332194Y-79270177D01*
%TO.N,mirror_ring_home*%
X306715131Y-62395293D02*
X305518055Y-62311588D01*
%TO.N,mirror_ring_top*%
X307900998Y-45436714D02*
X306703915Y-45352997D01*
%TO.N,mirror_middle_bottom*%
X287740500Y-72905062D02*
X286540501Y-72905069D01*
%TO.N,mirror_middle_home*%
X287740499Y-55905063D02*
X286540500Y-55905066D01*
%TO.N,mirror_middle_top*%
X287740499Y-38905075D02*
X286540502Y-38905070D01*
%TO.N,mirror_index_bottom*%
X270740503Y-78905067D02*
X269540494Y-78905067D01*
%TO.N,mirror_index_home*%
X270740504Y-61905063D02*
X269540498Y-61905071D01*
%TO.N,mirror_index_top*%
X270740509Y-44905058D02*
X269540492Y-44905067D01*
%TO.N,mirror_inner_bottom*%
X253740501Y-80905071D02*
X252540502Y-80905063D01*
%TO.N,mirror_inner_home*%
X253740502Y-63905065D02*
X252540496Y-63905065D01*
%TO.N,mirror_inner_top*%
X253740502Y-46905067D02*
X252540505Y-46905072D01*
%TO.N,mirror_near_thumb*%
X271740504Y-98905069D02*
X270540500Y-98905068D01*
%TO.N,mirror_home_thumb*%
X253754645Y-99725274D02*
X252559214Y-99829863D01*
%TO.N,mirror_far_thumb*%
X234213164Y-103562848D02*
X233085546Y-103973266D01*
%TD*%
M02*
