%TF.GenerationSoftware,KiCad,Pcbnew,8.0.6*%
%TF.CreationDate,2025-07-15T00:24:02+02:00*%
%TF.ProjectId,combined,636f6d62-696e-4656-942e-6b696361645f,v1.0.0*%
%TF.SameCoordinates,Original*%
%TF.FileFunction,Paste,Bot*%
%TF.FilePolarity,Positive*%
%FSLAX46Y46*%
G04 Gerber Fmt 4.6, Leading zero omitted, Abs format (unit mm)*
G04 Created by KiCad (PCBNEW 8.0.6) date 2025-07-15 00:24:02*
%MOMM*%
%LPD*%
G01*
G04 APERTURE LIST*
G04 Aperture macros list*
%AMRotRect*
0 Rectangle, with rotation*
0 The origin of the aperture is its center*
0 $1 length*
0 $2 width*
0 $3 Rotation angle, in degrees counterclockwise*
0 Add horizontal line*
21,1,$1,$2,0,0,$3*%
G04 Aperture macros list end*
%ADD10R,0.900000X1.200000*%
%ADD11RotRect,1.550000X2.000000X351.000000*%
%ADD12RotRect,1.550000X2.000000X20.000000*%
%ADD13RotRect,0.900000X1.200000X351.000000*%
%ADD14RotRect,1.550000X2.000000X9.000000*%
%ADD15R,1.550000X2.000000*%
%ADD16RotRect,0.900000X1.200000X356.000000*%
%ADD17RotRect,1.550000X2.000000X356.000000*%
%ADD18RotRect,0.900000X1.200000X9.000000*%
%ADD19RotRect,0.900000X1.200000X4.000000*%
%ADD20RotRect,1.550000X2.000000X340.000000*%
%ADD21RotRect,0.900000X1.200000X355.000000*%
%ADD22RotRect,1.550000X2.000000X4.000000*%
%ADD23RotRect,1.550000X2.000000X355.000000*%
%ADD24RotRect,0.900000X1.200000X20.000000*%
%ADD25RotRect,0.900000X1.200000X340.000000*%
%ADD26RotRect,0.900000X1.200000X5.000000*%
%ADD27RotRect,1.550000X2.000000X5.000000*%
G04 APERTURE END LIST*
D10*
%TO.C,D16*%
X184507413Y-80899999D03*
X187807409Y-80899997D03*
%TD*%
D11*
%TO.C,CPG1316*%
X318902681Y-80938987D03*
X323841123Y-81721162D03*
%TD*%
%TO.C,CPG1316*%
X333033997Y-100389069D03*
X337972439Y-101171244D03*
%TD*%
D12*
%TO.C,CPG1316*%
X230965936Y-110415762D03*
X235664396Y-108705663D03*
%TD*%
D13*
%TO.C,D1*%
X334710459Y-95237914D03*
X337969831Y-95754146D03*
%TD*%
D14*
%TO.C,CPG1316*%
X96366406Y-84379717D03*
X101304845Y-83597545D03*
%TD*%
D15*
%TO.C,CPG1316*%
X282340819Y-78250817D03*
X287340817Y-78250823D03*
%TD*%
%TO.C,CPG1316*%
X166657414Y-67250000D03*
X171657417Y-67249999D03*
%TD*%
D10*
%TO.C,D18*%
X184507420Y-46900002D03*
X187807416Y-46900000D03*
%TD*%
D16*
%TO.C,D7*%
X300990548Y-79035733D03*
X304282510Y-79265925D03*
%TD*%
D11*
%TO.C,CPG1316*%
X321562062Y-64148277D03*
X326500504Y-64930452D03*
%TD*%
D15*
%TO.C,CPG1316*%
X165657419Y-104249994D03*
X170657422Y-104249993D03*
%TD*%
%TO.C,CPG1316*%
X265340817Y-67250817D03*
X270340815Y-67250823D03*
%TD*%
D17*
%TO.C,CPG1316*%
X299769420Y-84313405D03*
X304757243Y-84662193D03*
%TD*%
D13*
%TO.C,D4*%
X317919752Y-92578527D03*
X321179124Y-93094759D03*
%TD*%
D15*
%TO.C,CPG1316*%
X149657416Y-78249999D03*
X154657419Y-78249998D03*
%TD*%
D10*
%TO.C,D16*%
X249190818Y-80900824D03*
X252490812Y-80900820D03*
%TD*%
D15*
%TO.C,CPG1316*%
X166657419Y-50250001D03*
X171657422Y-50250000D03*
%TD*%
D18*
%TO.C,D4*%
X115819113Y-93093942D03*
X119078485Y-92577708D03*
%TD*%
D15*
%TO.C,CPG1316*%
X183657412Y-52249990D03*
X188657415Y-52249989D03*
%TD*%
D10*
%TO.C,D12*%
X283190823Y-38900814D03*
X286490817Y-38900810D03*
%TD*%
%TO.C,D14*%
X266190820Y-61900817D03*
X269490814Y-61900813D03*
%TD*%
D19*
%TO.C,D9*%
X130344005Y-45347924D03*
X133635957Y-45117736D03*
%TD*%
D18*
%TO.C,D6*%
X110500337Y-59512539D03*
X113759709Y-58996305D03*
%TD*%
D20*
%TO.C,CPG1316*%
X201333833Y-108704849D03*
X206032298Y-110414942D03*
%TD*%
D21*
%TO.C,D20*%
X184488707Y-99824794D03*
X187776145Y-100112414D03*
%TD*%
D13*
%TO.C,D3*%
X340029230Y-61656510D03*
X343288602Y-62172742D03*
%TD*%
D16*
%TO.C,D8*%
X302176410Y-62077149D03*
X305468372Y-62307341D03*
%TD*%
D11*
%TO.C,CPG1316*%
X335693381Y-83598366D03*
X340631823Y-84380541D03*
%TD*%
D10*
%TO.C,D13*%
X266190824Y-78900817D03*
X269490818Y-78900813D03*
%TD*%
%TO.C,D14*%
X167507413Y-61899995D03*
X170807409Y-61899993D03*
%TD*%
D11*
%TO.C,CPG1316*%
X338352767Y-66807665D03*
X343291209Y-67589840D03*
%TD*%
D22*
%TO.C,CPG1316*%
X131055125Y-67702783D03*
X136042948Y-67353999D03*
%TD*%
D10*
%TO.C,D15*%
X167507416Y-44899997D03*
X170807412Y-44899995D03*
%TD*%
D14*
%TO.C,CPG1316*%
X99025801Y-101170427D03*
X103964240Y-100388255D03*
%TD*%
D11*
%TO.C,CPG1316*%
X316243299Y-97729686D03*
X321181741Y-98511861D03*
%TD*%
D15*
%TO.C,CPG1316*%
X282340824Y-61250820D03*
X287340822Y-61250826D03*
%TD*%
%TO.C,CPG1316*%
X266340818Y-104250821D03*
X271340816Y-104250827D03*
%TD*%
D10*
%TO.C,D19*%
X267190821Y-98900820D03*
X270490815Y-98900816D03*
%TD*%
D15*
%TO.C,CPG1316*%
X248340816Y-52250820D03*
X253340814Y-52250826D03*
%TD*%
D10*
%TO.C,D17*%
X249190817Y-63900826D03*
X252490811Y-63900822D03*
%TD*%
%TO.C,D18*%
X249190821Y-46900822D03*
X252490815Y-46900818D03*
%TD*%
D22*
%TO.C,CPG1316*%
X132240985Y-84661367D03*
X137228808Y-84312583D03*
%TD*%
D10*
%TO.C,D11*%
X283190821Y-55900822D03*
X286490815Y-55900818D03*
%TD*%
D15*
%TO.C,CPG1316*%
X183657417Y-69249997D03*
X188657420Y-69249996D03*
%TD*%
D13*
%TO.C,D5*%
X320579137Y-75787825D03*
X323838509Y-76304057D03*
%TD*%
D10*
%TO.C,D19*%
X166507421Y-98899999D03*
X169807417Y-98899997D03*
%TD*%
%TO.C,D11*%
X150507422Y-55900004D03*
X153807418Y-55900002D03*
%TD*%
D15*
%TO.C,CPG1316*%
X149657410Y-61249995D03*
X154657413Y-61249994D03*
%TD*%
D10*
%TO.C,D10*%
X150507412Y-72899998D03*
X153807408Y-72899996D03*
%TD*%
D14*
%TO.C,CPG1316*%
X115816498Y-98511037D03*
X120754937Y-97728865D03*
%TD*%
D13*
%TO.C,D6*%
X323238527Y-58997127D03*
X326497899Y-59513359D03*
%TD*%
D19*
%TO.C,D8*%
X131529863Y-62306512D03*
X134821815Y-62076324D03*
%TD*%
D18*
%TO.C,D3*%
X93709631Y-62171924D03*
X96969003Y-61655690D03*
%TD*%
D17*
%TO.C,CPG1316*%
X302141139Y-50396230D03*
X307128962Y-50745018D03*
%TD*%
D15*
%TO.C,CPG1316*%
X248340817Y-86250813D03*
X253340815Y-86250819D03*
%TD*%
%TO.C,CPG1316*%
X166657409Y-84249999D03*
X171657412Y-84249998D03*
%TD*%
D23*
%TO.C,CPG1316*%
X183175652Y-105080346D03*
X188156624Y-105516126D03*
%TD*%
D15*
%TO.C,CPG1316*%
X149657412Y-44249997D03*
X154657415Y-44249996D03*
%TD*%
D18*
%TO.C,D5*%
X113159725Y-76303237D03*
X116419097Y-75787003D03*
%TD*%
D10*
%TO.C,D10*%
X283190818Y-72900818D03*
X286490812Y-72900814D03*
%TD*%
D24*
%TO.C,D21*%
X229934865Y-105097687D03*
X233035841Y-103969019D03*
%TD*%
D17*
%TO.C,CPG1316*%
X300955283Y-67354812D03*
X305943106Y-67703600D03*
%TD*%
D22*
%TO.C,CPG1316*%
X129869268Y-50744196D03*
X134857091Y-50395412D03*
%TD*%
D10*
%TO.C,D13*%
X167507415Y-78900001D03*
X170807411Y-78899999D03*
%TD*%
D14*
%TO.C,CPG1316*%
X110497721Y-64929638D03*
X115436160Y-64147466D03*
%TD*%
%TO.C,CPG1316*%
X93707026Y-67589017D03*
X98645465Y-66806845D03*
%TD*%
D18*
%TO.C,D2*%
X96369020Y-78962624D03*
X99628392Y-78446390D03*
%TD*%
D25*
%TO.C,D21*%
X203962392Y-103968196D03*
X207063370Y-105096864D03*
%TD*%
D10*
%TO.C,D17*%
X184507419Y-63899995D03*
X187807415Y-63899993D03*
%TD*%
D19*
%TO.C,D7*%
X132715723Y-79265109D03*
X136007675Y-79034921D03*
%TD*%
D18*
%TO.C,D1*%
X99028403Y-95753327D03*
X102287775Y-95237093D03*
%TD*%
D16*
%TO.C,D9*%
X303362270Y-45118553D03*
X306654232Y-45348745D03*
%TD*%
D15*
%TO.C,CPG1316*%
X282340816Y-44250817D03*
X287340814Y-44250823D03*
%TD*%
%TO.C,CPG1316*%
X265340818Y-50250819D03*
X270340816Y-50250825D03*
%TD*%
%TO.C,CPG1316*%
X248340821Y-69250819D03*
X253340819Y-69250825D03*
%TD*%
D10*
%TO.C,D15*%
X266190819Y-44900818D03*
X269490813Y-44900814D03*
%TD*%
D15*
%TO.C,CPG1316*%
X265340821Y-84250816D03*
X270340819Y-84250822D03*
%TD*%
D14*
%TO.C,CPG1316*%
X113157107Y-81720332D03*
X118095546Y-80938160D03*
%TD*%
D26*
%TO.C,D20*%
X249222092Y-100113226D03*
X252509538Y-99825610D03*
%TD*%
D10*
%TO.C,D12*%
X150507424Y-38900004D03*
X153807420Y-38900002D03*
%TD*%
D15*
%TO.C,CPG1316*%
X183657413Y-86249993D03*
X188657416Y-86249992D03*
%TD*%
D13*
%TO.C,D2*%
X337369842Y-78447211D03*
X340629214Y-78963443D03*
%TD*%
D27*
%TO.C,CPG1316*%
X248841599Y-105516944D03*
X253822577Y-105081175D03*
%TD*%
M02*
