%TF.GenerationSoftware,KiCad,Pcbnew,8.0.6*%
%TF.CreationDate,2025-07-15T00:24:02+02:00*%
%TF.ProjectId,combined,636f6d62-696e-4656-942e-6b696361645f,v1.0.0*%
%TF.SameCoordinates,Original*%
%TF.FileFunction,Legend,Bot*%
%TF.FilePolarity,Positive*%
%FSLAX46Y46*%
G04 Gerber Fmt 4.6, Leading zero omitted, Abs format (unit mm)*
G04 Created by KiCad (PCBNEW 8.0.6) date 2025-07-15 00:24:02*
%MOMM*%
%LPD*%
G01*
G04 APERTURE LIST*
%ADD10C,0.100000*%
G04 APERTURE END LIST*
D10*
%TO.C,D16*%
X185407410Y-80899996D02*
X185807410Y-80899994D01*
X185807410Y-80899994D02*
X185807414Y-81449997D01*
X185807410Y-80899994D02*
X185807415Y-80349996D01*
X185807410Y-80899994D02*
X186407412Y-80499997D01*
X186407411Y-81300000D02*
X185807410Y-80899994D01*
X186407412Y-80499997D02*
X186407411Y-81300000D01*
X186407413Y-80899996D02*
X186907412Y-80900000D01*
%TO.C,D1*%
X335599376Y-95378702D02*
X335994454Y-95441282D01*
X335994454Y-95441282D02*
X335908418Y-95984510D01*
X335994454Y-95441282D02*
X336080497Y-94898047D01*
X335994454Y-95441282D02*
X336649638Y-95140058D01*
X336524494Y-95930215D02*
X335994454Y-95441282D01*
X336587072Y-95535135D02*
X337080914Y-95613358D01*
X336649638Y-95140058D02*
X336524494Y-95930215D01*
%TO.C,D18*%
X185407417Y-46899999D02*
X185807417Y-46899997D01*
X185807417Y-46899997D02*
X185807421Y-47450000D01*
X185807417Y-46899997D02*
X185807422Y-46349999D01*
X185807417Y-46899997D02*
X186407419Y-46500000D01*
X186407418Y-47300003D02*
X185807417Y-46899997D01*
X186407419Y-46500000D02*
X186407418Y-47300003D01*
X186407420Y-46899999D02*
X186907419Y-46900003D01*
%TO.C,D7*%
X301888350Y-79098522D02*
X302287382Y-79126420D01*
X302287382Y-79126420D02*
X302249014Y-79675075D01*
X302287382Y-79126420D02*
X302325746Y-78577757D01*
X302287382Y-79126420D02*
X302913823Y-78769238D01*
X302858018Y-79567297D02*
X302287382Y-79126420D01*
X302885916Y-79168267D02*
X303384708Y-79203136D01*
X302913823Y-78769238D02*
X302858018Y-79567297D01*
%TO.C,D4*%
X318808669Y-92719315D02*
X319203747Y-92781895D01*
X319203747Y-92781895D02*
X319117711Y-93325123D01*
X319203747Y-92781895D02*
X319289790Y-92238660D01*
X319203747Y-92781895D02*
X319858931Y-92480671D01*
X319733787Y-93270828D02*
X319203747Y-92781895D01*
X319796365Y-92875748D02*
X320290207Y-92953971D01*
X319858931Y-92480671D02*
X319733787Y-93270828D01*
%TO.C,D16*%
X250090811Y-80900824D02*
X250490814Y-80900824D01*
X250490814Y-80900824D02*
X250490814Y-81450822D01*
X250490814Y-80900824D02*
X250490815Y-80350823D01*
X250490814Y-80900824D02*
X251090815Y-80500820D01*
X251090813Y-80900821D02*
X251590819Y-80900820D01*
X251090815Y-80500820D02*
X251090817Y-81300822D01*
X251090817Y-81300822D02*
X250490814Y-80900824D01*
%TO.C,D4*%
X116708029Y-92953160D02*
X117103108Y-92890581D01*
X117103108Y-92890581D02*
X117017068Y-92347345D01*
X117103108Y-92890581D02*
X117189149Y-93433810D01*
X117103108Y-92890581D02*
X117633142Y-92401642D01*
X117633142Y-92401642D02*
X117758295Y-93191797D01*
X117695722Y-92796717D02*
X118189569Y-92718490D01*
X117758295Y-93191797D02*
X117103108Y-92890581D01*
%TO.C,D12*%
X284090816Y-38900814D02*
X284490819Y-38900814D01*
X284490819Y-38900814D02*
X284490819Y-39450812D01*
X284490819Y-38900814D02*
X284490820Y-38350813D01*
X284490819Y-38900814D02*
X285090820Y-38500810D01*
X285090818Y-38900811D02*
X285590824Y-38900810D01*
X285090820Y-38500810D02*
X285090822Y-39300812D01*
X285090822Y-39300812D02*
X284490819Y-38900814D01*
%TO.C,D14*%
X267090813Y-61900817D02*
X267490816Y-61900817D01*
X267490816Y-61900817D02*
X267490816Y-62450815D01*
X267490816Y-61900817D02*
X267490817Y-61350816D01*
X267490816Y-61900817D02*
X268090817Y-61500813D01*
X268090815Y-61900814D02*
X268590821Y-61900813D01*
X268090817Y-61500813D02*
X268090819Y-62300815D01*
X268090819Y-62300815D02*
X267490816Y-61900817D01*
%TO.C,D9*%
X131241805Y-45285147D02*
X131640831Y-45257245D01*
X131640831Y-45257245D02*
X131602470Y-44708580D01*
X131640831Y-45257245D02*
X131679202Y-45805905D01*
X131640831Y-45257245D02*
X132211469Y-44816364D01*
X132211469Y-44816364D02*
X132267274Y-45614419D01*
X132239377Y-45215391D02*
X132738157Y-45180513D01*
X132267274Y-45614419D02*
X131640831Y-45257245D01*
%TO.C,D6*%
X111389253Y-59371757D02*
X111784332Y-59309178D01*
X111784332Y-59309178D02*
X111698292Y-58765942D01*
X111784332Y-59309178D02*
X111870373Y-59852407D01*
X111784332Y-59309178D02*
X112314366Y-58820239D01*
X112314366Y-58820239D02*
X112439519Y-59610394D01*
X112376946Y-59215314D02*
X112870793Y-59137087D01*
X112439519Y-59610394D02*
X111784332Y-59309178D01*
%TO.C,D20*%
X185385278Y-99903235D02*
X185783754Y-99938094D01*
X185783754Y-99938094D02*
X185735823Y-100486009D01*
X185783754Y-99938094D02*
X185831696Y-99390185D01*
X185783754Y-99938094D02*
X186416335Y-99591917D01*
X186346610Y-100388876D02*
X185783754Y-99938094D01*
X186381475Y-99990395D02*
X186879574Y-100033973D01*
X186416335Y-99591917D02*
X186346610Y-100388876D01*
%TO.C,D3*%
X340918147Y-61797298D02*
X341313225Y-61859878D01*
X341313225Y-61859878D02*
X341227189Y-62403106D01*
X341313225Y-61859878D02*
X341399268Y-61316643D01*
X341313225Y-61859878D02*
X341968409Y-61558654D01*
X341843265Y-62348811D02*
X341313225Y-61859878D01*
X341905843Y-61953731D02*
X342399685Y-62031954D01*
X341968409Y-61558654D02*
X341843265Y-62348811D01*
%TO.C,D8*%
X303074212Y-62139938D02*
X303473244Y-62167836D01*
X303473244Y-62167836D02*
X303434876Y-62716491D01*
X303473244Y-62167836D02*
X303511608Y-61619173D01*
X303473244Y-62167836D02*
X304099685Y-61810654D01*
X304043880Y-62608713D02*
X303473244Y-62167836D01*
X304071778Y-62209683D02*
X304570570Y-62244552D01*
X304099685Y-61810654D02*
X304043880Y-62608713D01*
%TO.C,D13*%
X267090817Y-78900817D02*
X267490820Y-78900817D01*
X267490820Y-78900817D02*
X267490820Y-79450815D01*
X267490820Y-78900817D02*
X267490821Y-78350816D01*
X267490820Y-78900817D02*
X268090821Y-78500813D01*
X268090819Y-78900814D02*
X268590825Y-78900813D01*
X268090821Y-78500813D02*
X268090823Y-79300815D01*
X268090823Y-79300815D02*
X267490820Y-78900817D01*
%TO.C,D14*%
X168407410Y-61899992D02*
X168807410Y-61899990D01*
X168807410Y-61899990D02*
X168807414Y-62449993D01*
X168807410Y-61899990D02*
X168807415Y-61349992D01*
X168807410Y-61899990D02*
X169407412Y-61499993D01*
X169407411Y-62299996D02*
X168807410Y-61899990D01*
X169407412Y-61499993D02*
X169407411Y-62299996D01*
X169407413Y-61899992D02*
X169907412Y-61899996D01*
%TO.C,D15*%
X168407413Y-44899994D02*
X168807413Y-44899992D01*
X168807413Y-44899992D02*
X168807417Y-45449995D01*
X168807413Y-44899992D02*
X168807418Y-44349994D01*
X168807413Y-44899992D02*
X169407415Y-44499995D01*
X169407414Y-45299998D02*
X168807413Y-44899992D01*
X169407415Y-44499995D02*
X169407414Y-45299998D01*
X169407416Y-44899994D02*
X169907415Y-44899998D01*
%TO.C,D19*%
X268090814Y-98900820D02*
X268490817Y-98900820D01*
X268490817Y-98900820D02*
X268490817Y-99450818D01*
X268490817Y-98900820D02*
X268490818Y-98350819D01*
X268490817Y-98900820D02*
X269090818Y-98500816D01*
X269090816Y-98900817D02*
X269590822Y-98900816D01*
X269090818Y-98500816D02*
X269090820Y-99300818D01*
X269090820Y-99300818D02*
X268490817Y-98900820D01*
%TO.C,D17*%
X250090810Y-63900826D02*
X250490813Y-63900826D01*
X250490813Y-63900826D02*
X250490813Y-64450824D01*
X250490813Y-63900826D02*
X250490814Y-63350825D01*
X250490813Y-63900826D02*
X251090814Y-63500822D01*
X251090812Y-63900823D02*
X251590818Y-63900822D01*
X251090814Y-63500822D02*
X251090816Y-64300824D01*
X251090816Y-64300824D02*
X250490813Y-63900826D01*
%TO.C,D18*%
X250090814Y-46900822D02*
X250490817Y-46900822D01*
X250490817Y-46900822D02*
X250490817Y-47450820D01*
X250490817Y-46900822D02*
X250490818Y-46350821D01*
X250490817Y-46900822D02*
X251090818Y-46500818D01*
X251090816Y-46900819D02*
X251590822Y-46900818D01*
X251090818Y-46500818D02*
X251090820Y-47300820D01*
X251090820Y-47300820D02*
X250490817Y-46900822D01*
%TO.C,D11*%
X284090814Y-55900822D02*
X284490817Y-55900822D01*
X284490817Y-55900822D02*
X284490817Y-56450820D01*
X284490817Y-55900822D02*
X284490818Y-55350821D01*
X284490817Y-55900822D02*
X285090818Y-55500818D01*
X285090816Y-55900819D02*
X285590822Y-55900818D01*
X285090818Y-55500818D02*
X285090820Y-56300820D01*
X285090820Y-56300820D02*
X284490817Y-55900822D01*
%TO.C,D5*%
X321468054Y-75928613D02*
X321863132Y-75991193D01*
X321863132Y-75991193D02*
X321777096Y-76534421D01*
X321863132Y-75991193D02*
X321949175Y-75447958D01*
X321863132Y-75991193D02*
X322518316Y-75689969D01*
X322393172Y-76480126D02*
X321863132Y-75991193D01*
X322455750Y-76085046D02*
X322949592Y-76163269D01*
X322518316Y-75689969D02*
X322393172Y-76480126D01*
%TO.C,D19*%
X167407418Y-98899996D02*
X167807418Y-98899994D01*
X167807418Y-98899994D02*
X167807422Y-99449997D01*
X167807418Y-98899994D02*
X167807423Y-98349996D01*
X167807418Y-98899994D02*
X168407420Y-98499997D01*
X168407419Y-99300000D02*
X167807418Y-98899994D01*
X168407420Y-98499997D02*
X168407419Y-99300000D01*
X168407421Y-98899996D02*
X168907420Y-98900000D01*
%TO.C,D11*%
X151407419Y-55900001D02*
X151807419Y-55899999D01*
X151807419Y-55899999D02*
X151807423Y-56450002D01*
X151807419Y-55899999D02*
X151807424Y-55350001D01*
X151807419Y-55899999D02*
X152407421Y-55500002D01*
X152407420Y-56300005D02*
X151807419Y-55899999D01*
X152407421Y-55500002D02*
X152407420Y-56300005D01*
X152407422Y-55900001D02*
X152907421Y-55900005D01*
%TO.C,D10*%
X151407409Y-72899995D02*
X151807409Y-72899993D01*
X151807409Y-72899993D02*
X151807413Y-73449996D01*
X151807409Y-72899993D02*
X151807414Y-72349995D01*
X151807409Y-72899993D02*
X152407411Y-72499996D01*
X152407410Y-73299999D02*
X151807409Y-72899993D01*
X152407411Y-72499996D02*
X152407410Y-73299999D01*
X152407412Y-72899995D02*
X152907411Y-72899999D01*
%TO.C,D6*%
X324127444Y-59137915D02*
X324522522Y-59200495D01*
X324522522Y-59200495D02*
X324436486Y-59743723D01*
X324522522Y-59200495D02*
X324608565Y-58657260D01*
X324522522Y-59200495D02*
X325177706Y-58899271D01*
X325052562Y-59689428D02*
X324522522Y-59200495D01*
X325115140Y-59294348D02*
X325608982Y-59372571D01*
X325177706Y-58899271D02*
X325052562Y-59689428D01*
%TO.C,D8*%
X132427663Y-62243735D02*
X132826689Y-62215833D01*
X132826689Y-62215833D02*
X132788328Y-61667168D01*
X132826689Y-62215833D02*
X132865060Y-62764493D01*
X132826689Y-62215833D02*
X133397327Y-61774952D01*
X133397327Y-61774952D02*
X133453132Y-62573007D01*
X133425235Y-62173979D02*
X133924015Y-62139101D01*
X133453132Y-62573007D02*
X132826689Y-62215833D01*
%TO.C,D3*%
X94598547Y-62031142D02*
X94993626Y-61968563D01*
X94993626Y-61968563D02*
X94907586Y-61425327D01*
X94993626Y-61968563D02*
X95079667Y-62511792D01*
X94993626Y-61968563D02*
X95523660Y-61479624D01*
X95523660Y-61479624D02*
X95648813Y-62269779D01*
X95586240Y-61874699D02*
X96080087Y-61796472D01*
X95648813Y-62269779D02*
X94993626Y-61968563D01*
%TO.C,D5*%
X114048641Y-76162455D02*
X114443720Y-76099876D01*
X114443720Y-76099876D02*
X114357680Y-75556640D01*
X114443720Y-76099876D02*
X114529761Y-76643105D01*
X114443720Y-76099876D02*
X114973754Y-75610937D01*
X114973754Y-75610937D02*
X115098907Y-76401092D01*
X115036334Y-76006012D02*
X115530181Y-75927785D01*
X115098907Y-76401092D02*
X114443720Y-76099876D01*
%TO.C,D10*%
X284090811Y-72900818D02*
X284490814Y-72900818D01*
X284490814Y-72900818D02*
X284490814Y-73450816D01*
X284490814Y-72900818D02*
X284490815Y-72350817D01*
X284490814Y-72900818D02*
X285090815Y-72500814D01*
X285090813Y-72900815D02*
X285590819Y-72900814D01*
X285090815Y-72500814D02*
X285090817Y-73300816D01*
X285090817Y-73300816D02*
X284490814Y-72900818D01*
%TO.C,D21*%
X230780588Y-104789869D02*
X231156458Y-104653060D01*
X231156458Y-104653060D02*
X230968350Y-104136229D01*
X231156458Y-104653060D02*
X231344569Y-105169889D01*
X231156458Y-104653060D02*
X231583469Y-104071975D01*
X231583469Y-104071975D02*
X231857086Y-104823727D01*
X231720270Y-104447847D02*
X232190118Y-104276837D01*
X231857086Y-104823727D02*
X231156458Y-104653060D01*
%TO.C,D13*%
X168407412Y-78899998D02*
X168807412Y-78899996D01*
X168807412Y-78899996D02*
X168807416Y-79449999D01*
X168807412Y-78899996D02*
X168807417Y-78349998D01*
X168807412Y-78899996D02*
X169407414Y-78499999D01*
X169407413Y-79300002D02*
X168807412Y-78899996D01*
X169407414Y-78499999D02*
X169407413Y-79300002D01*
X169407415Y-78899998D02*
X169907414Y-78900002D01*
%TO.C,D2*%
X97257936Y-78821842D02*
X97653015Y-78759263D01*
X97653015Y-78759263D02*
X97566975Y-78216027D01*
X97653015Y-78759263D02*
X97739056Y-79302492D01*
X97653015Y-78759263D02*
X98183049Y-78270324D01*
X98183049Y-78270324D02*
X98308202Y-79060479D01*
X98245629Y-78665399D02*
X98739476Y-78587172D01*
X98308202Y-79060479D02*
X97653015Y-78759263D01*
%TO.C,D21*%
X204808110Y-104276013D02*
X205183994Y-104412825D01*
X205183994Y-104412825D02*
X204995881Y-104929653D01*
X205183994Y-104412825D02*
X205372095Y-103895995D01*
X205183994Y-104412825D02*
X205884615Y-104242162D01*
X205610997Y-104993915D02*
X205183994Y-104412825D01*
X205747806Y-104618033D02*
X206217652Y-104789047D01*
X205884615Y-104242162D02*
X205610997Y-104993915D01*
%TO.C,D17*%
X185407416Y-63899992D02*
X185807416Y-63899990D01*
X185807416Y-63899990D02*
X185807420Y-64449993D01*
X185807416Y-63899990D02*
X185807421Y-63349992D01*
X185807416Y-63899990D02*
X186407418Y-63499993D01*
X186407417Y-64299996D02*
X185807416Y-63899990D01*
X186407418Y-63499993D02*
X186407417Y-64299996D01*
X186407419Y-63899992D02*
X186907418Y-63899996D01*
%TO.C,D7*%
X133613523Y-79202332D02*
X134012549Y-79174430D01*
X134012549Y-79174430D02*
X133974188Y-78625765D01*
X134012549Y-79174430D02*
X134050920Y-79723090D01*
X134012549Y-79174430D02*
X134583187Y-78733549D01*
X134583187Y-78733549D02*
X134638992Y-79531604D01*
X134611095Y-79132576D02*
X135109875Y-79097698D01*
X134638992Y-79531604D02*
X134012549Y-79174430D01*
%TO.C,D1*%
X99917319Y-95612545D02*
X100312398Y-95549966D01*
X100312398Y-95549966D02*
X100226358Y-95006730D01*
X100312398Y-95549966D02*
X100398439Y-96093195D01*
X100312398Y-95549966D02*
X100842432Y-95061027D01*
X100842432Y-95061027D02*
X100967585Y-95851182D01*
X100905012Y-95456102D02*
X101398859Y-95377875D01*
X100967585Y-95851182D02*
X100312398Y-95549966D01*
%TO.C,D9*%
X304260072Y-45181342D02*
X304659104Y-45209240D01*
X304659104Y-45209240D02*
X304620736Y-45757895D01*
X304659104Y-45209240D02*
X304697468Y-44660577D01*
X304659104Y-45209240D02*
X305285545Y-44852058D01*
X305229740Y-45650117D02*
X304659104Y-45209240D01*
X305257638Y-45251087D02*
X305756430Y-45285956D01*
X305285545Y-44852058D02*
X305229740Y-45650117D01*
%TO.C,D15*%
X267090812Y-44900818D02*
X267490815Y-44900818D01*
X267490815Y-44900818D02*
X267490815Y-45450816D01*
X267490815Y-44900818D02*
X267490816Y-44350817D01*
X267490815Y-44900818D02*
X268090816Y-44500814D01*
X268090814Y-44900815D02*
X268590820Y-44900814D01*
X268090816Y-44500814D02*
X268090818Y-45300816D01*
X268090818Y-45300816D02*
X267490815Y-44900818D01*
%TO.C,D20*%
X250118668Y-100034787D02*
X250517147Y-99999925D01*
X250517147Y-99999925D02*
X250469211Y-99452015D01*
X250517147Y-99999925D02*
X250565082Y-100547833D01*
X250517147Y-99999925D02*
X251079996Y-99549148D01*
X251079996Y-99549148D02*
X251149733Y-100346107D01*
X251114866Y-99947626D02*
X251612962Y-99904049D01*
X251149733Y-100346107D02*
X250517147Y-99999925D01*
%TO.C,D12*%
X151407421Y-38900001D02*
X151807421Y-38899999D01*
X151807421Y-38899999D02*
X151807425Y-39450002D01*
X151807421Y-38899999D02*
X151807426Y-38350001D01*
X151807421Y-38899999D02*
X152407423Y-38500002D01*
X152407422Y-39300005D02*
X151807421Y-38899999D01*
X152407423Y-38500002D02*
X152407422Y-39300005D01*
X152407424Y-38900001D02*
X152907423Y-38900005D01*
%TO.C,D2*%
X338258759Y-78587999D02*
X338653837Y-78650579D01*
X338653837Y-78650579D02*
X338567801Y-79193807D01*
X338653837Y-78650579D02*
X338739880Y-78107344D01*
X338653837Y-78650579D02*
X339309021Y-78349355D01*
X339183877Y-79139512D02*
X338653837Y-78650579D01*
X339246455Y-78744432D02*
X339740297Y-78822655D01*
X339309021Y-78349355D02*
X339183877Y-79139512D01*
%TD*%
M02*
