%TF.GenerationSoftware,KiCad,Pcbnew,8.0.6*%
%TF.CreationDate,2025-07-28T21:33:20+02:00*%
%TF.ProjectId,combined,636f6d62-696e-4656-942e-6b696361645f,v1.0.0*%
%TF.SameCoordinates,Original*%
%TF.FileFunction,Soldermask,Top*%
%TF.FilePolarity,Negative*%
%FSLAX46Y46*%
G04 Gerber Fmt 4.6, Leading zero omitted, Abs format (unit mm)*
G04 Created by KiCad (PCBNEW 8.0.6) date 2025-07-28 21:33:20*
%MOMM*%
%LPD*%
G01*
G04 APERTURE LIST*
G04 Aperture macros list*
%AMRoundRect*
0 Rectangle with rounded corners*
0 $1 Rounding radius*
0 $2 $3 $4 $5 $6 $7 $8 $9 X,Y pos of 4 corners*
0 Add a 4 corners polygon primitive as box body*
4,1,4,$2,$3,$4,$5,$6,$7,$8,$9,$2,$3,0*
0 Add four circle primitives for the rounded corners*
1,1,$1+$1,$2,$3*
1,1,$1+$1,$4,$5*
1,1,$1+$1,$6,$7*
1,1,$1+$1,$8,$9*
0 Add four rect primitives between the rounded corners*
20,1,$1+$1,$2,$3,$4,$5,0*
20,1,$1+$1,$4,$5,$6,$7,0*
20,1,$1+$1,$6,$7,$8,$9,0*
20,1,$1+$1,$8,$9,$2,$3,0*%
G04 Aperture macros list end*
%ADD10RoundRect,0.050000X-0.450000X-0.600000X0.450000X-0.600000X0.450000X0.600000X-0.450000X0.600000X0*%
%ADD11C,1.500000*%
%ADD12RoundRect,0.050000X-0.921893X-0.866452X0.609024X-1.108925X0.921893X0.866452X-0.609024X1.108925X0*%
%ADD13RoundRect,0.050000X-1.144123X-0.831254X0.831254X-1.144123X1.144123X0.831254X-0.831254X1.144123X0*%
%ADD14RoundRect,0.050000X-0.386242X-1.204758X1.070282X-0.674627X0.386242X1.204758X-1.070282X0.674627X0*%
%ADD15RoundRect,0.050000X-0.597672X-1.281713X1.281713X-0.597672X0.597672X1.281713X-1.281713X0.597672X0*%
%ADD16RoundRect,0.050000X-0.538320X-0.522217X0.350599X-0.663009X0.538320X0.522217X-0.350599X0.663009X0*%
%ADD17RoundRect,0.050000X-0.609024X-1.108925X0.921893X-0.866452X0.609024X1.108925X-0.921893X0.866452X0*%
%ADD18RoundRect,0.050000X-0.831254X-1.144123X1.144123X-0.831254X0.831254X1.144123X-1.144123X0.831254X0*%
%ADD19RoundRect,0.050000X-0.775000X-1.000000X0.775000X-1.000000X0.775000X1.000000X-0.775000X1.000000X0*%
%ADD20RoundRect,0.050000X-1.000000X-1.000000X1.000000X-1.000000X1.000000X1.000000X-1.000000X1.000000X0*%
%ADD21RoundRect,0.050000X-0.490758X-0.567148X0.407050X-0.629929X0.490758X0.567148X-0.407050X0.629929X0*%
%ADD22C,3.100000*%
%ADD23C,0.600000*%
%ADD24RoundRect,0.050000X-0.842869X-0.943503X0.703356X-1.051625X0.842869X0.943503X-0.703356X1.051625X0*%
%ADD25RoundRect,0.050000X-1.067321X-0.927808X0.927808X-1.067321X1.067321X0.927808X-0.927808X1.067321X0*%
%ADD26RoundRect,0.260000X-0.390000X-0.665000X0.390000X-0.665000X0.390000X0.665000X-0.390000X0.665000X0*%
%ADD27O,1.300000X1.850000*%
%ADD28RoundRect,0.050000X-0.350599X-0.663009X0.538320X-0.522217X0.350599X0.663009X-0.538320X0.522217X0*%
%ADD29RoundRect,0.050000X-0.407050X-0.629929X0.490758X-0.567148X0.407050X0.629929X-0.490758X0.567148X0*%
%ADD30RoundRect,0.050000X-1.070282X-0.674627X0.386242X-1.204758X1.070282X0.674627X-0.386242X1.204758X0*%
%ADD31RoundRect,0.050000X-1.281713X-0.597672X0.597672X-1.281713X1.281713X0.597672X-0.597672X1.281713X0*%
%ADD32RoundRect,0.050000X-0.500581X-0.558497X0.395994X-0.636937X0.500581X0.558497X-0.395994X0.636937X0*%
%ADD33RoundRect,0.050000X-0.703356X-1.051625X0.842869X-0.943503X0.703356X1.051625X-0.842869X0.943503X0*%
%ADD34RoundRect,0.050000X-0.927808X-1.067321X1.067321X-0.927808X0.927808X1.067321X-1.067321X0.927808X0*%
%ADD35C,1.800000*%
%ADD36RoundRect,0.162400X1.103600X0.649600X-1.103600X0.649600X-1.103600X-0.649600X1.103600X-0.649600X0*%
%ADD37C,1.624000*%
%ADD38RoundRect,0.162400X-1.103600X-0.649600X1.103600X-0.649600X1.103600X0.649600X-1.103600X0.649600X0*%
%ADD39C,1.600000*%
%ADD40RoundRect,0.050000X-0.859207X-0.928649X0.684895X-1.063740X0.859207X0.928649X-0.684895X1.063740X0*%
%ADD41RoundRect,0.050000X-1.083350X-0.909039X0.909039X-1.083350X1.083350X0.909039X-0.909039X1.083350X0*%
%ADD42RoundRect,0.050000X-0.217650X-0.717725X0.628074X-0.409907X0.217650X0.717725X-0.628074X0.409907X0*%
%ADD43RoundRect,0.050000X0.602987X0.215423X-0.342532X0.540992X-0.602987X-0.215423X0.342532X-0.540992X0*%
%ADD44C,1.000000*%
%ADD45RoundRect,0.050000X0.575108X0.595190X-0.086755X0.823088X-0.575108X-0.595190X0.086755X-0.823088X0*%
%ADD46RoundRect,0.050000X-0.628074X-0.409907X0.217650X-0.717725X0.628074X0.409907X-0.217650X0.717725X0*%
%ADD47RoundRect,0.050000X0.342532X0.540992X-0.602987X0.215423X-0.342532X-0.540992X0.602987X-0.215423X0*%
%ADD48RoundRect,0.050000X0.086755X0.823088X-0.575108X0.595190X-0.086755X-0.823088X0.575108X-0.595190X0*%
%ADD49RoundRect,0.050000X-0.395994X-0.636937X0.500581X-0.558497X0.395994X0.636937X-0.500581X0.558497X0*%
%ADD50RoundRect,0.050000X-0.684895X-1.063740X0.859207X-0.928649X0.684895X1.063740X-0.859207X0.928649X0*%
%ADD51RoundRect,0.050000X-0.909039X-1.083350X1.083350X-0.909039X0.909039X1.083350X-1.083350X0.909039X0*%
G04 APERTURE END LIST*
D10*
%TO.C,D16*%
X184557104Y-80904248D03*
X187857092Y-80904250D03*
%TD*%
D11*
%TO.C,CPG1316*%
X319940054Y-81099678D03*
D12*
X319940054Y-81099678D03*
D11*
X322903123Y-81568982D03*
D12*
X322903123Y-81568982D03*
D13*
X316502925Y-71797471D03*
X314625714Y-83649728D03*
X329046566Y-73784184D03*
X327169355Y-85636441D03*
%TD*%
D11*
%TO.C,CPG1316*%
X334071367Y-100549759D03*
D12*
X334071367Y-100549759D03*
D11*
X337034436Y-101019063D03*
D12*
X337034436Y-101019063D03*
D13*
X330634238Y-91247552D03*
X328757027Y-103099809D03*
X343177879Y-93234265D03*
X341300668Y-105086522D03*
%TD*%
D11*
%TO.C,CPG1316*%
X231955305Y-110077994D03*
D14*
X231955305Y-110077994D03*
D11*
X234774385Y-109051932D03*
D14*
X234774385Y-109051932D03*
D15*
X228543565Y-114884766D03*
X224439323Y-103608450D03*
X240477663Y-110541110D03*
X236373421Y-99264794D03*
%TD*%
D16*
%TO.C,D1*%
X334760144Y-95242158D03*
X338019518Y-95758400D03*
%TD*%
D11*
%TO.C,CPG1316*%
X97403782Y-84227536D03*
D17*
X97403782Y-84227536D03*
D11*
X100366842Y-83758231D03*
D17*
X100366842Y-83758231D03*
D18*
X93137545Y-88294999D03*
X91260332Y-76442740D03*
X105681186Y-86308284D03*
X103803973Y-74456025D03*
%TD*%
D11*
%TO.C,CPG1316*%
X283390500Y-78255067D03*
D19*
X283390500Y-78255067D03*
D11*
X286390502Y-78255066D03*
D19*
X286390502Y-78255066D03*
D20*
X278540500Y-69605066D03*
X278540501Y-81605067D03*
X291240501Y-69605065D03*
X291240502Y-81605066D03*
%TD*%
D11*
%TO.C,CPG1316*%
X167707098Y-67254254D03*
D19*
X167707098Y-67254254D03*
D11*
X170707100Y-67254253D03*
D19*
X170707100Y-67254253D03*
D20*
X162857098Y-58604253D03*
X162857099Y-70604254D03*
X175557099Y-58604252D03*
X175557100Y-70604253D03*
%TD*%
D10*
%TO.C,D18*%
X184557104Y-46904247D03*
X187857092Y-46904249D03*
%TD*%
D21*
%TO.C,D7*%
X301040230Y-79039988D03*
X304332190Y-79270178D03*
%TD*%
D22*
%TO.C,REF\u002A\u002A*%
X301445000Y-95510000D03*
%TD*%
D11*
%TO.C,CPG1316*%
X322599432Y-64308964D03*
D12*
X322599432Y-64308964D03*
D11*
X325562501Y-64778268D03*
D12*
X325562501Y-64778268D03*
D13*
X319162303Y-55006757D03*
X317285092Y-66859014D03*
X331705944Y-56993470D03*
X329828733Y-68845727D03*
%TD*%
D11*
%TO.C,CPG1316*%
X166707103Y-104254245D03*
D19*
X166707103Y-104254245D03*
D11*
X169707105Y-104254244D03*
D19*
X169707105Y-104254244D03*
D20*
X161857103Y-95604244D03*
X161857104Y-107604245D03*
X174557104Y-95604243D03*
X174557105Y-107604244D03*
%TD*%
D23*
%TO.C,mouse-bite-1mm-3mm*%
X217839679Y-100904253D03*
X217839684Y-100304246D03*
X218549681Y-100904251D03*
X218549687Y-100304245D03*
X219249680Y-100904246D03*
X219259689Y-100304243D03*
%TD*%
D11*
%TO.C,CPG1316*%
X266390498Y-67255062D03*
D19*
X266390498Y-67255062D03*
D11*
X269390500Y-67255061D03*
D19*
X269390500Y-67255061D03*
D20*
X261540498Y-58605061D03*
X261540499Y-70605062D03*
X274240499Y-58605060D03*
X274240500Y-70605061D03*
%TD*%
D11*
%TO.C,CPG1316*%
X300816665Y-84387415D03*
D24*
X300816665Y-84387415D03*
D11*
X303809355Y-84596685D03*
D24*
X303809355Y-84596685D03*
D25*
X296581872Y-75420166D03*
X295744797Y-87390936D03*
X309250935Y-76306072D03*
X308413860Y-88276842D03*
%TD*%
D16*
%TO.C,D4*%
X317969431Y-92582765D03*
X321228805Y-93099007D03*
%TD*%
D11*
%TO.C,CPG1316*%
X150707100Y-78254249D03*
D19*
X150707100Y-78254249D03*
D11*
X153707102Y-78254248D03*
D19*
X153707102Y-78254248D03*
D20*
X145857100Y-69604248D03*
X145857101Y-81604249D03*
X158557101Y-69604247D03*
X158557102Y-81604248D03*
%TD*%
D26*
%TO.C,JST1*%
X199700142Y-60776690D03*
D27*
X201700134Y-60776690D03*
%TD*%
D10*
%TO.C,D16*%
X249240504Y-80905073D03*
X252540496Y-80905069D03*
%TD*%
D11*
%TO.C,CPG1316*%
X167707108Y-50254251D03*
D19*
X167707108Y-50254251D03*
D11*
X170707110Y-50254250D03*
D19*
X170707110Y-50254250D03*
D20*
X162857108Y-41604250D03*
X162857109Y-53604251D03*
X175557109Y-41604249D03*
X175557110Y-53604250D03*
%TD*%
D28*
%TO.C,D4*%
X115868793Y-93098186D03*
X119128165Y-92581958D03*
%TD*%
D11*
%TO.C,CPG1316*%
X184707097Y-52254237D03*
D19*
X184707097Y-52254237D03*
D11*
X187707099Y-52254236D03*
D19*
X187707099Y-52254236D03*
D20*
X179857097Y-43604236D03*
X179857098Y-55604237D03*
X192557098Y-43604235D03*
X192557099Y-55604236D03*
%TD*%
D23*
%TO.C,mouse-bite-1mm-3mm*%
X217839994Y-43600006D03*
X217840000Y-42999998D03*
X218549996Y-43600004D03*
X218550002Y-42999998D03*
X219249997Y-43600000D03*
X219260004Y-42999996D03*
%TD*%
D10*
%TO.C,D12*%
X283240507Y-38905060D03*
X286540499Y-38905056D03*
%TD*%
D23*
%TO.C,mouse-bite-1mm-3mm*%
X217839996Y-44824997D03*
X217839998Y-44225001D03*
X218549997Y-44224999D03*
X218549997Y-44824999D03*
X219249998Y-44825000D03*
X219259998Y-44225001D03*
%TD*%
D10*
%TO.C,D14*%
X266240502Y-61905059D03*
X269540494Y-61905055D03*
%TD*%
D29*
%TO.C,D9*%
X130393690Y-45352177D03*
X133685638Y-45121979D03*
%TD*%
D28*
%TO.C,D6*%
X110550022Y-59516786D03*
X113809394Y-59000558D03*
%TD*%
D11*
%TO.C,CPG1316*%
X202323205Y-109051108D03*
D30*
X202323205Y-109051108D03*
D11*
X205142286Y-110077173D03*
D30*
X205142286Y-110077173D03*
D31*
X200724170Y-99263970D03*
X196619930Y-110540286D03*
X212658266Y-103607626D03*
X208554026Y-114883942D03*
%TD*%
D32*
%TO.C,D20*%
X184538387Y-99829043D03*
X187825831Y-100116665D03*
%TD*%
D22*
%TO.C,REF\u002A\u002A*%
X296887607Y-36403845D03*
%TD*%
D16*
%TO.C,D3*%
X340078908Y-61660747D03*
X343338282Y-62176989D03*
%TD*%
D21*
%TO.C,D8*%
X302226086Y-62081403D03*
X305518046Y-62311593D03*
%TD*%
D22*
%TO.C,REF\u002A\u002A*%
X135545000Y-95560000D03*
%TD*%
D11*
%TO.C,CPG1316*%
X336730746Y-83759053D03*
D12*
X336730746Y-83759053D03*
D11*
X339693815Y-84228357D03*
D12*
X339693815Y-84228357D03*
D13*
X333293617Y-74456846D03*
X331416406Y-86309103D03*
X345837258Y-76443559D03*
X343960047Y-88295816D03*
%TD*%
D10*
%TO.C,D13*%
X266240507Y-78905062D03*
X269540499Y-78905058D03*
%TD*%
%TO.C,D14*%
X167557102Y-61904243D03*
X170857090Y-61904245D03*
%TD*%
D11*
%TO.C,CPG1316*%
X339390135Y-66968354D03*
D12*
X339390135Y-66968354D03*
D11*
X342353204Y-67437658D03*
D12*
X342353204Y-67437658D03*
D13*
X335953006Y-57666147D03*
X334075795Y-69518404D03*
X348496647Y-59652860D03*
X346619436Y-71505117D03*
%TD*%
D11*
%TO.C,CPG1316*%
X132102378Y-67637274D03*
D33*
X132102378Y-67637274D03*
D11*
X135095066Y-67428008D03*
D33*
X135095066Y-67428008D03*
D34*
X127497874Y-71317437D03*
X126660798Y-59346669D03*
X140166938Y-70431527D03*
X139329862Y-58460759D03*
%TD*%
D10*
%TO.C,D15*%
X167557100Y-44904245D03*
X170857088Y-44904247D03*
%TD*%
D35*
%TO.C,RST1*%
X323541846Y-49854210D03*
X318350708Y-45942428D03*
%TD*%
D11*
%TO.C,CPG1316*%
X100063175Y-101018243D03*
D17*
X100063175Y-101018243D03*
D11*
X103026235Y-100548938D03*
D17*
X103026235Y-100548938D03*
D18*
X95796938Y-105085706D03*
X93919725Y-93233447D03*
X108340579Y-103098991D03*
X106463366Y-91246732D03*
%TD*%
D11*
%TO.C,CPG1316*%
X317280668Y-97890375D03*
D12*
X317280668Y-97890375D03*
D11*
X320243737Y-98359679D03*
D12*
X320243737Y-98359679D03*
D13*
X313843539Y-88588168D03*
X311966328Y-100440425D03*
X326387180Y-90574881D03*
X324509969Y-102427138D03*
%TD*%
D11*
%TO.C,CPG1316*%
X283390508Y-61255074D03*
D19*
X283390508Y-61255074D03*
D11*
X286390510Y-61255073D03*
D19*
X286390510Y-61255073D03*
D20*
X278540508Y-52605073D03*
X278540509Y-64605074D03*
X291240509Y-52605072D03*
X291240510Y-64605073D03*
%TD*%
D11*
%TO.C,CPG1316*%
X267390501Y-104255071D03*
D19*
X267390501Y-104255071D03*
D11*
X270390503Y-104255070D03*
D19*
X270390503Y-104255070D03*
D20*
X262540501Y-95605070D03*
X262540502Y-107605071D03*
X275240502Y-95605069D03*
X275240503Y-107605070D03*
%TD*%
D10*
%TO.C,D19*%
X267240506Y-98905071D03*
X270540498Y-98905067D03*
%TD*%
D11*
%TO.C,CPG1316*%
X249390496Y-52255067D03*
D19*
X249390496Y-52255067D03*
D11*
X252390498Y-52255066D03*
D19*
X252390498Y-52255066D03*
D20*
X244540496Y-43605066D03*
X244540497Y-55605067D03*
X257240497Y-43605065D03*
X257240498Y-55605066D03*
%TD*%
D10*
%TO.C,D17*%
X249240498Y-63905078D03*
X252540490Y-63905074D03*
%TD*%
%TO.C,D18*%
X249240503Y-46905069D03*
X252540495Y-46905065D03*
%TD*%
D11*
%TO.C,CPG1316*%
X133288235Y-84595855D03*
D33*
X133288235Y-84595855D03*
D11*
X136280923Y-84386589D03*
D33*
X136280923Y-84386589D03*
D34*
X128683731Y-88276018D03*
X127846655Y-76305250D03*
X141352795Y-87390108D03*
X140515719Y-75419340D03*
%TD*%
D10*
%TO.C,D11*%
X283240502Y-55905069D03*
X286540494Y-55905065D03*
%TD*%
D26*
%TO.C,JST1*%
X235300001Y-60775005D03*
D27*
X237299999Y-60774999D03*
%TD*%
D11*
%TO.C,CPG1316*%
X184707104Y-69254249D03*
D19*
X184707104Y-69254249D03*
D11*
X187707106Y-69254248D03*
D19*
X187707106Y-69254248D03*
D20*
X179857104Y-60604248D03*
X179857105Y-72604249D03*
X192557105Y-60604247D03*
X192557106Y-72604248D03*
%TD*%
D16*
%TO.C,D5*%
X320628820Y-75792070D03*
X323888194Y-76308312D03*
%TD*%
D10*
%TO.C,D19*%
X166557110Y-98904248D03*
X169857098Y-98904250D03*
%TD*%
%TO.C,D11*%
X150557111Y-55904251D03*
X153857099Y-55904253D03*
%TD*%
D11*
%TO.C,CPG1316*%
X150707097Y-61254243D03*
D19*
X150707097Y-61254243D03*
D11*
X153707099Y-61254242D03*
D19*
X153707099Y-61254242D03*
D20*
X145857097Y-52604242D03*
X145857098Y-64604243D03*
X158557098Y-52604241D03*
X158557099Y-64604242D03*
%TD*%
D10*
%TO.C,D10*%
X150557098Y-72904244D03*
X153857086Y-72904246D03*
%TD*%
D11*
%TO.C,CPG1316*%
X116853875Y-98358855D03*
D17*
X116853875Y-98358855D03*
D11*
X119816935Y-97889550D03*
D17*
X119816935Y-97889550D03*
D18*
X112587638Y-102426318D03*
X110710425Y-90574059D03*
X125131279Y-100439603D03*
X123254066Y-88587344D03*
%TD*%
D16*
%TO.C,D6*%
X323288209Y-59001368D03*
X326547583Y-59517610D03*
%TD*%
D29*
%TO.C,D8*%
X131579552Y-62310765D03*
X134871500Y-62080567D03*
%TD*%
D36*
%TO.C,REF\u002A\u002A*%
X197752098Y-41284247D03*
D37*
X198587099Y-41284256D03*
D36*
X197752099Y-43824246D03*
D37*
X198587104Y-43824257D03*
D36*
X197752103Y-46364251D03*
D37*
X198587096Y-46364250D03*
D36*
X197752096Y-48904244D03*
D37*
X198587103Y-48904252D03*
D36*
X197752097Y-51444252D03*
D37*
X198587104Y-51444253D03*
D36*
X197752102Y-53984264D03*
D37*
X198587104Y-53984250D03*
D36*
X197752099Y-56524255D03*
D37*
X198587104Y-56524253D03*
X213827101Y-56524248D03*
D38*
X214662102Y-56524257D03*
D37*
X213827096Y-53984247D03*
D38*
X214662101Y-53984258D03*
D37*
X213827104Y-51444254D03*
D38*
X214662097Y-51444253D03*
D37*
X213827097Y-48904252D03*
D38*
X214662104Y-48904260D03*
D37*
X213827096Y-46364251D03*
D38*
X214662103Y-46364252D03*
D37*
X213827096Y-43824254D03*
D38*
X214662098Y-43824240D03*
D37*
X213827096Y-41284251D03*
D38*
X214662101Y-41284249D03*
D39*
X201207100Y-48590751D03*
X201207094Y-46685757D03*
D35*
X204882097Y-40335756D03*
X207422102Y-40335749D03*
X204882097Y-42875757D03*
X207422096Y-42875750D03*
%TD*%
D28*
%TO.C,D3*%
X93759316Y-62176173D03*
X97018688Y-61659945D03*
%TD*%
D11*
%TO.C,CPG1316*%
X303188389Y-50470244D03*
D24*
X303188389Y-50470244D03*
D11*
X306181079Y-50679514D03*
D24*
X306181079Y-50679514D03*
D25*
X298953596Y-41502995D03*
X298116521Y-53473765D03*
X311622659Y-42388901D03*
X310785584Y-54359671D03*
%TD*%
D11*
%TO.C,CPG1316*%
X249390500Y-86255062D03*
D19*
X249390500Y-86255062D03*
D11*
X252390502Y-86255061D03*
D19*
X252390502Y-86255061D03*
D20*
X244540500Y-77605061D03*
X244540501Y-89605062D03*
X257240501Y-77605060D03*
X257240502Y-89605061D03*
%TD*%
D11*
%TO.C,CPG1316*%
X167707095Y-84254248D03*
D19*
X167707095Y-84254248D03*
D11*
X170707097Y-84254247D03*
D19*
X170707097Y-84254247D03*
D20*
X162857095Y-75604247D03*
X162857096Y-87604248D03*
X175557096Y-75604246D03*
X175557097Y-87604247D03*
%TD*%
D11*
%TO.C,CPG1316*%
X184221529Y-105171753D03*
D40*
X184221529Y-105171753D03*
D11*
X187210117Y-105433216D03*
D40*
X187210117Y-105433216D03*
D41*
X179098015Y-108086296D03*
X180143886Y-96131957D03*
X191749686Y-109193177D03*
X192795557Y-97238838D03*
%TD*%
D23*
%TO.C,mouse-bite-1mm-3mm*%
X217840000Y-98374998D03*
X217840002Y-97775002D03*
X218550001Y-97775000D03*
X218550001Y-98375000D03*
X219250002Y-98375001D03*
X219260002Y-97775002D03*
%TD*%
D11*
%TO.C,CPG1316*%
X150707099Y-44254257D03*
D19*
X150707099Y-44254257D03*
D11*
X153707101Y-44254256D03*
D19*
X153707101Y-44254256D03*
D20*
X145857099Y-35604256D03*
X145857100Y-47604257D03*
X158557100Y-35604255D03*
X158557101Y-47604256D03*
%TD*%
D28*
%TO.C,D5*%
X113209410Y-76307486D03*
X116468782Y-75791258D03*
%TD*%
D23*
%TO.C,mouse-bite-1mm-3mm*%
X217839999Y-97150001D03*
X217840001Y-96550005D03*
X218550000Y-96550003D03*
X218550000Y-97150003D03*
X219250001Y-97150004D03*
X219260001Y-96550005D03*
%TD*%
D10*
%TO.C,D10*%
X283240503Y-72905069D03*
X286540495Y-72905065D03*
%TD*%
D42*
%TO.C,D21*%
X229984546Y-105101930D03*
X233085526Y-103973264D03*
%TD*%
D11*
%TO.C,CPG1316*%
X302002531Y-67428825D03*
D24*
X302002531Y-67428825D03*
D11*
X304995221Y-67638095D03*
D24*
X304995221Y-67638095D03*
D25*
X297767738Y-58461576D03*
X296930663Y-70432346D03*
X310436801Y-59347482D03*
X309599726Y-71318252D03*
%TD*%
D11*
%TO.C,CPG1316*%
X130916522Y-50678683D03*
D33*
X130916522Y-50678683D03*
D11*
X133909210Y-50469417D03*
D33*
X133909210Y-50469417D03*
D34*
X126312018Y-54358846D03*
X125474942Y-42388078D03*
X138981082Y-53472936D03*
X138144006Y-41502168D03*
%TD*%
D43*
%TO.C,PWR1*%
X163195757Y-35864255D03*
X170098039Y-38240902D03*
D44*
X165589993Y-35514706D03*
X168426554Y-36491402D03*
D43*
X163915257Y-33774660D03*
X170817542Y-36151304D03*
D45*
X168562699Y-38399701D03*
X165726132Y-37422985D03*
X164307862Y-36934640D03*
%TD*%
D10*
%TO.C,D13*%
X167557106Y-78904249D03*
X170857094Y-78904251D03*
%TD*%
D11*
%TO.C,CPG1316*%
X111535095Y-64777451D03*
D17*
X111535095Y-64777451D03*
D11*
X114498155Y-64308146D03*
D17*
X114498155Y-64308146D03*
D18*
X107268858Y-68844914D03*
X105391645Y-56992655D03*
X119812499Y-66858199D03*
X117935286Y-55005940D03*
%TD*%
D11*
%TO.C,CPG1316*%
X94744403Y-67436835D03*
D17*
X94744403Y-67436835D03*
D11*
X97707463Y-66967530D03*
D17*
X97707463Y-66967530D03*
D18*
X90478166Y-71504298D03*
X88600953Y-59652039D03*
X103021807Y-69517583D03*
X101144594Y-57665324D03*
%TD*%
D35*
%TO.C,RST1*%
X118746888Y-45941607D03*
X113555750Y-49853401D03*
%TD*%
D36*
%TO.C,REF\u002A\u002A*%
X222435492Y-41285064D03*
D37*
X223270500Y-41285060D03*
D36*
X222435496Y-43825065D03*
D37*
X223270497Y-43825066D03*
D36*
X222435492Y-46365063D03*
D37*
X223270499Y-46365059D03*
D36*
X222435492Y-48905058D03*
D37*
X223270494Y-48905062D03*
D36*
X222435496Y-51445067D03*
D37*
X223270492Y-51445060D03*
D36*
X222435499Y-53985064D03*
D37*
X223270495Y-53985060D03*
D36*
X222435493Y-56525062D03*
D37*
X223270495Y-56525057D03*
X238510492Y-56525062D03*
D38*
X239345500Y-56525058D03*
D37*
X238510495Y-53985056D03*
D38*
X239345496Y-53985057D03*
D37*
X238510493Y-51445063D03*
D38*
X239345500Y-51445059D03*
D37*
X238510498Y-48905060D03*
D38*
X239345500Y-48905064D03*
D37*
X238510500Y-46365062D03*
D38*
X239345496Y-46365055D03*
D37*
X238510497Y-43825062D03*
D38*
X239345493Y-43825058D03*
D37*
X238510497Y-41285065D03*
D38*
X239345499Y-41285060D03*
D39*
X225890500Y-48591559D03*
X225890492Y-46686564D03*
D35*
X229565495Y-40336560D03*
X232105504Y-40336563D03*
X229565490Y-42876564D03*
X232105491Y-42876564D03*
%TD*%
D22*
%TO.C,REF\u002A\u002A*%
X140129696Y-36388690D03*
%TD*%
%TO.C,REF\u002A\u002A*%
X223595000Y-97210000D03*
%TD*%
%TO.C,REF\u002A\u002A*%
X151103411Y-93687780D03*
%TD*%
D28*
%TO.C,D2*%
X96418708Y-78966868D03*
X99678080Y-78450640D03*
%TD*%
D46*
%TO.C,D21*%
X204012077Y-103972437D03*
X207113057Y-105101113D03*
%TD*%
D10*
%TO.C,D17*%
X184557106Y-63904243D03*
X187857094Y-63904245D03*
%TD*%
D47*
%TO.C,PWR1*%
X273750137Y-35881321D03*
X266847849Y-38257966D03*
D44*
X271355896Y-35531771D03*
X268519334Y-36508472D03*
D47*
X273030637Y-33791728D03*
X266128337Y-36168376D03*
D48*
X272638026Y-36951707D03*
X269801483Y-37928406D03*
X268383199Y-38416756D03*
%TD*%
D29*
%TO.C,D7*%
X132765406Y-79269363D03*
X136057354Y-79039165D03*
%TD*%
D28*
%TO.C,D1*%
X99078085Y-95757575D03*
X102337457Y-95241347D03*
%TD*%
D21*
%TO.C,D9*%
X303411954Y-45122802D03*
X306703914Y-45352992D03*
%TD*%
D11*
%TO.C,CPG1316*%
X283390500Y-44255069D03*
D19*
X283390500Y-44255069D03*
D11*
X286390502Y-44255068D03*
D19*
X286390502Y-44255068D03*
D20*
X278540500Y-35605068D03*
X278540501Y-47605069D03*
X291240501Y-35605067D03*
X291240502Y-47605068D03*
%TD*%
D11*
%TO.C,CPG1316*%
X266390504Y-50255065D03*
D19*
X266390504Y-50255065D03*
D11*
X269390506Y-50255064D03*
D19*
X269390506Y-50255064D03*
D20*
X261540504Y-41605064D03*
X261540505Y-53605065D03*
X274240505Y-41605063D03*
X274240506Y-53605064D03*
%TD*%
D11*
%TO.C,CPG1316*%
X249390503Y-69255071D03*
D19*
X249390503Y-69255071D03*
D11*
X252390505Y-69255070D03*
D19*
X252390505Y-69255070D03*
D20*
X244540503Y-60605070D03*
X244540504Y-72605071D03*
X257240504Y-60605069D03*
X257240505Y-72605070D03*
%TD*%
D10*
%TO.C,D15*%
X266240497Y-44905066D03*
X269540489Y-44905062D03*
%TD*%
D11*
%TO.C,CPG1316*%
X266390502Y-84255061D03*
D19*
X266390502Y-84255061D03*
D11*
X269390504Y-84255060D03*
D19*
X269390504Y-84255060D03*
D20*
X261540502Y-75605060D03*
X261540503Y-87605061D03*
X274240503Y-75605059D03*
X274240504Y-87605060D03*
%TD*%
D22*
%TO.C,REF\u002A\u002A*%
X213370000Y-97185000D03*
%TD*%
D23*
%TO.C,mouse-bite-1mm-3mm*%
X217840002Y-42350000D03*
X217840004Y-41750004D03*
X218550003Y-41750002D03*
X218550003Y-42350002D03*
X219250004Y-42350003D03*
X219260004Y-41750004D03*
%TD*%
D11*
%TO.C,CPG1316*%
X114194482Y-81568149D03*
D17*
X114194482Y-81568149D03*
D11*
X117157542Y-81098844D03*
D17*
X117157542Y-81098844D03*
D18*
X109928245Y-85635612D03*
X108051032Y-73783353D03*
X122471886Y-83648897D03*
X120594673Y-71796638D03*
%TD*%
D23*
%TO.C,mouse-bite-1mm-3mm*%
X217839675Y-41104255D03*
X217839680Y-40504248D03*
X218549677Y-41104253D03*
X218549683Y-40504247D03*
X219249676Y-41104248D03*
X219259685Y-40504245D03*
%TD*%
D49*
%TO.C,D20*%
X249271773Y-100117473D03*
X252559227Y-99829859D03*
%TD*%
D10*
%TO.C,D12*%
X150557114Y-38904250D03*
X153857102Y-38904252D03*
%TD*%
D22*
%TO.C,REF\u002A\u002A*%
X285881604Y-93686124D03*
%TD*%
D11*
%TO.C,CPG1316*%
X184707098Y-86254247D03*
D19*
X184707098Y-86254247D03*
D11*
X187707100Y-86254246D03*
D19*
X187707100Y-86254246D03*
D20*
X179857098Y-77604246D03*
X179857099Y-89604247D03*
X192557099Y-77604245D03*
X192557100Y-89604246D03*
%TD*%
D16*
%TO.C,D2*%
X337419527Y-78451456D03*
X340678901Y-78967698D03*
%TD*%
D23*
%TO.C,mouse-bite-1mm-3mm*%
X217839999Y-99650007D03*
X217840005Y-99049999D03*
X218550001Y-99650005D03*
X218550007Y-99049999D03*
X219250002Y-99650001D03*
X219260009Y-99049997D03*
%TD*%
D11*
%TO.C,CPG1316*%
X249887483Y-105434041D03*
D50*
X249887483Y-105434041D03*
D11*
X252876071Y-105172574D03*
D50*
X252876071Y-105172574D03*
D51*
X245347911Y-109194002D03*
X244302045Y-97239663D03*
X257999583Y-108087123D03*
X256953717Y-96132784D03*
%TD*%
M02*
