%TF.GenerationSoftware,KiCad,Pcbnew,8.0.6*%
%TF.CreationDate,2025-07-17T00:06:11+02:00*%
%TF.ProjectId,combined,636f6d62-696e-4656-942e-6b696361645f,v1.0.0*%
%TF.SameCoordinates,Original*%
%TF.FileFunction,Copper,L2,Bot*%
%TF.FilePolarity,Positive*%
%FSLAX46Y46*%
G04 Gerber Fmt 4.6, Leading zero omitted, Abs format (unit mm)*
G04 Created by KiCad (PCBNEW 8.0.6) date 2025-07-17 00:06:11*
%MOMM*%
%LPD*%
G01*
G04 APERTURE LIST*
G04 Aperture macros list*
%AMRoundRect*
0 Rectangle with rounded corners*
0 $1 Rounding radius*
0 $2 $3 $4 $5 $6 $7 $8 $9 X,Y pos of 4 corners*
0 Add a 4 corners polygon primitive as box body*
4,1,4,$2,$3,$4,$5,$6,$7,$8,$9,$2,$3,0*
0 Add four circle primitives for the rounded corners*
1,1,$1+$1,$2,$3*
1,1,$1+$1,$4,$5*
1,1,$1+$1,$6,$7*
1,1,$1+$1,$8,$9*
0 Add four rect primitives between the rounded corners*
20,1,$1+$1,$2,$3,$4,$5,0*
20,1,$1+$1,$4,$5,$6,$7,0*
20,1,$1+$1,$6,$7,$8,$9,0*
20,1,$1+$1,$8,$9,$2,$3,0*%
%AMRotRect*
0 Rectangle, with rotation*
0 The origin of the aperture is its center*
0 $1 length*
0 $2 width*
0 $3 Rotation angle, in degrees counterclockwise*
0 Add horizontal line*
21,1,$1,$2,0,0,$3*%
G04 Aperture macros list end*
%TA.AperFunction,SMDPad,CuDef*%
%ADD10R,0.900000X1.200000*%
%TD*%
%TA.AperFunction,ComponentPad*%
%ADD11C,1.400000*%
%TD*%
%TA.AperFunction,SMDPad,CuDef*%
%ADD12RotRect,1.550000X2.000000X351.000000*%
%TD*%
%TA.AperFunction,SMDPad,CuDef*%
%ADD13RotRect,1.550000X2.000000X20.000000*%
%TD*%
%TA.AperFunction,SMDPad,CuDef*%
%ADD14RotRect,0.900000X1.200000X351.000000*%
%TD*%
%TA.AperFunction,SMDPad,CuDef*%
%ADD15RotRect,1.550000X2.000000X9.000000*%
%TD*%
%TA.AperFunction,SMDPad,CuDef*%
%ADD16R,1.550000X2.000000*%
%TD*%
%TA.AperFunction,SMDPad,CuDef*%
%ADD17RotRect,0.900000X1.200000X356.000000*%
%TD*%
%TA.AperFunction,SMDPad,CuDef*%
%ADD18RotRect,1.550000X2.000000X356.000000*%
%TD*%
%TA.AperFunction,ComponentPad*%
%ADD19RoundRect,0.240000X-0.360000X-0.635000X0.360000X-0.635000X0.360000X0.635000X-0.360000X0.635000X0*%
%TD*%
%TA.AperFunction,ComponentPad*%
%ADD20O,1.200000X1.750000*%
%TD*%
%TA.AperFunction,SMDPad,CuDef*%
%ADD21RotRect,0.900000X1.200000X9.000000*%
%TD*%
%TA.AperFunction,SMDPad,CuDef*%
%ADD22RotRect,0.900000X1.200000X4.000000*%
%TD*%
%TA.AperFunction,SMDPad,CuDef*%
%ADD23RotRect,1.550000X2.000000X340.000000*%
%TD*%
%TA.AperFunction,SMDPad,CuDef*%
%ADD24RotRect,0.900000X1.200000X355.000000*%
%TD*%
%TA.AperFunction,SMDPad,CuDef*%
%ADD25RotRect,1.550000X2.000000X4.000000*%
%TD*%
%TA.AperFunction,ComponentPad*%
%ADD26C,1.700000*%
%TD*%
%TA.AperFunction,ComponentPad*%
%ADD27C,1.524000*%
%TD*%
%TA.AperFunction,ComponentPad*%
%ADD28C,1.500000*%
%TD*%
%TA.AperFunction,SMDPad,CuDef*%
%ADD29RotRect,1.550000X2.000000X355.000000*%
%TD*%
%TA.AperFunction,SMDPad,CuDef*%
%ADD30RotRect,0.900000X1.200000X20.000000*%
%TD*%
%TA.AperFunction,SMDPad,CuDef*%
%ADD31RotRect,0.900000X1.200000X340.000000*%
%TD*%
%TA.AperFunction,SMDPad,CuDef*%
%ADD32RotRect,0.900000X1.200000X5.000000*%
%TD*%
%TA.AperFunction,SMDPad,CuDef*%
%ADD33RotRect,1.550000X2.000000X5.000000*%
%TD*%
%TA.AperFunction,ViaPad*%
%ADD34C,0.600000*%
%TD*%
%TA.AperFunction,Conductor*%
%ADD35C,0.200000*%
%TD*%
%TA.AperFunction,Conductor*%
%ADD36C,0.250000*%
%TD*%
G04 APERTURE END LIST*
D10*
%TO.P,D16,1*%
%TO.N,P2*%
X184507414Y-80899999D03*
%TO.P,D16,2*%
%TO.N,inner_bottom*%
X187807408Y-80899997D03*
%TD*%
D11*
%TO.P,CPG1316,1*%
%TO.N,P8*%
X318902681Y-80938988D03*
D12*
X318902681Y-80938988D03*
D11*
%TO.P,CPG1316,2*%
%TO.N,mirror_pinky_home*%
X323841124Y-81721163D03*
D12*
X323841124Y-81721163D03*
%TD*%
D11*
%TO.P,CPG1316,1*%
%TO.N,P9*%
X333033997Y-100389069D03*
D12*
X333033997Y-100389069D03*
D11*
%TO.P,CPG1316,2*%
%TO.N,mirror_outer_bottom*%
X337972440Y-101171244D03*
D12*
X337972440Y-101171244D03*
%TD*%
D11*
%TO.P,CPG1316,1*%
%TO.N,P4*%
X230965935Y-110415763D03*
D13*
X230965935Y-110415763D03*
D11*
%TO.P,CPG1316,2*%
%TO.N,mirror_far_thumb*%
X235664396Y-108705664D03*
D13*
X235664396Y-108705664D03*
%TD*%
D14*
%TO.P,D1,1*%
%TO.N,P2*%
X334710458Y-95237914D03*
%TO.P,D1,2*%
%TO.N,mirror_outer_bottom*%
X337969832Y-95754146D03*
%TD*%
D11*
%TO.P,CPG1316,1*%
%TO.N,P4*%
X96366407Y-84379717D03*
D15*
X96366407Y-84379717D03*
D11*
%TO.P,CPG1316,2*%
%TO.N,outer_home*%
X101304845Y-83597545D03*
D15*
X101304845Y-83597545D03*
%TD*%
D11*
%TO.P,CPG1316,1*%
%TO.N,P6*%
X282340819Y-78250817D03*
D16*
X282340819Y-78250817D03*
D11*
%TO.P,CPG1316,2*%
%TO.N,mirror_middle_bottom*%
X287340817Y-78250823D03*
D16*
X287340817Y-78250823D03*
%TD*%
D11*
%TO.P,CPG1316,1*%
%TO.N,P8*%
X166657415Y-67250000D03*
D16*
X166657415Y-67250000D03*
D11*
%TO.P,CPG1316,2*%
%TO.N,index_home*%
X171657416Y-67249999D03*
D16*
X171657416Y-67249999D03*
%TD*%
D10*
%TO.P,D18,1*%
%TO.N,P0*%
X184507420Y-46900002D03*
%TO.P,D18,2*%
%TO.N,inner_top*%
X187807414Y-46900000D03*
%TD*%
D17*
%TO.P,D7,1*%
%TO.N,P2*%
X300990548Y-79035735D03*
%TO.P,D7,2*%
%TO.N,mirror_ring_bottom*%
X304282510Y-79265925D03*
%TD*%
D11*
%TO.P,CPG1316,1*%
%TO.N,P8*%
X321562062Y-64148276D03*
D12*
X321562062Y-64148276D03*
D11*
%TO.P,CPG1316,2*%
%TO.N,mirror_pinky_top*%
X326500505Y-64930451D03*
D12*
X326500505Y-64930451D03*
%TD*%
D11*
%TO.P,CPG1316,1*%
%TO.N,P7*%
X165657420Y-104249993D03*
D16*
X165657420Y-104249993D03*
D11*
%TO.P,CPG1316,2*%
%TO.N,near_thumb*%
X170657421Y-104249992D03*
D16*
X170657421Y-104249992D03*
%TD*%
D11*
%TO.P,CPG1316,1*%
%TO.N,P5*%
X265340817Y-67250817D03*
D16*
X265340817Y-67250817D03*
D11*
%TO.P,CPG1316,2*%
%TO.N,mirror_index_home*%
X270340815Y-67250823D03*
D16*
X270340815Y-67250823D03*
%TD*%
D11*
%TO.P,CPG1316,1*%
%TO.N,P7*%
X299769420Y-84313405D03*
D18*
X299769420Y-84313405D03*
D11*
%TO.P,CPG1316,2*%
%TO.N,mirror_ring_bottom*%
X304757243Y-84662193D03*
D18*
X304757243Y-84662193D03*
%TD*%
D14*
%TO.P,D4,1*%
%TO.N,P2*%
X317919750Y-92578527D03*
%TO.P,D4,2*%
%TO.N,mirror_pinky_bottom*%
X321179124Y-93094759D03*
%TD*%
D11*
%TO.P,CPG1316,1*%
%TO.N,P7*%
X149657416Y-78249999D03*
D16*
X149657416Y-78249999D03*
D11*
%TO.P,CPG1316,2*%
%TO.N,middle_bottom*%
X154657417Y-78249998D03*
D16*
X154657417Y-78249998D03*
%TD*%
D19*
%TO.P,JST1,1*%
%TO.N,GND*%
X199650455Y-60772438D03*
D20*
%TO.P,JST1,2*%
%TO.N,BAT_P*%
X201650447Y-60772442D03*
%TD*%
D10*
%TO.P,D16,1*%
%TO.N,P2*%
X249190819Y-80900824D03*
%TO.P,D16,2*%
%TO.N,mirror_inner_bottom*%
X252490811Y-80900820D03*
%TD*%
D11*
%TO.P,CPG1316,1*%
%TO.N,P8*%
X166657421Y-50250001D03*
D16*
X166657421Y-50250001D03*
D11*
%TO.P,CPG1316,2*%
%TO.N,index_top*%
X171657422Y-50250000D03*
D16*
X171657422Y-50250000D03*
%TD*%
D21*
%TO.P,D4,1*%
%TO.N,P2*%
X115819113Y-93093941D03*
%TO.P,D4,2*%
%TO.N,pinky_bottom*%
X119078485Y-92577707D03*
%TD*%
D11*
%TO.P,CPG1316,1*%
%TO.N,P9*%
X183657413Y-52249990D03*
D16*
X183657413Y-52249990D03*
D11*
%TO.P,CPG1316,2*%
%TO.N,inner_top*%
X188657414Y-52249989D03*
D16*
X188657414Y-52249989D03*
%TD*%
D10*
%TO.P,D12,1*%
%TO.N,P0*%
X283190824Y-38900814D03*
%TO.P,D12,2*%
%TO.N,mirror_middle_top*%
X286490816Y-38900810D03*
%TD*%
%TO.P,D14,1*%
%TO.N,P1*%
X266190820Y-61900816D03*
%TO.P,D14,2*%
%TO.N,mirror_index_home*%
X269490812Y-61900812D03*
%TD*%
D22*
%TO.P,D9,1*%
%TO.N,P0*%
X130344006Y-45347925D03*
%TO.P,D9,2*%
%TO.N,ring_top*%
X133635956Y-45117737D03*
%TD*%
D21*
%TO.P,D6,1*%
%TO.N,P0*%
X110500338Y-59512540D03*
%TO.P,D6,2*%
%TO.N,pinky_top*%
X113759710Y-58996306D03*
%TD*%
D11*
%TO.P,CPG1316,1*%
%TO.N,P9*%
X201333833Y-108704849D03*
D23*
X201333833Y-108704849D03*
D11*
%TO.P,CPG1316,2*%
%TO.N,far_thumb*%
X206032297Y-110414942D03*
D23*
X206032297Y-110414942D03*
%TD*%
D24*
%TO.P,D20,1*%
%TO.N,P3*%
X184488707Y-99824794D03*
%TO.P,D20,2*%
%TO.N,home_thumb*%
X187776145Y-100112412D03*
%TD*%
D14*
%TO.P,D3,1*%
%TO.N,P0*%
X340029229Y-61656510D03*
%TO.P,D3,2*%
%TO.N,mirror_outer_top*%
X343288603Y-62172742D03*
%TD*%
D17*
%TO.P,D8,1*%
%TO.N,P1*%
X302176409Y-62077151D03*
%TO.P,D8,2*%
%TO.N,mirror_ring_home*%
X305468371Y-62307341D03*
%TD*%
D11*
%TO.P,CPG1316,1*%
%TO.N,P9*%
X335693381Y-83598366D03*
D12*
X335693381Y-83598366D03*
D11*
%TO.P,CPG1316,2*%
%TO.N,mirror_outer_home*%
X340631824Y-84380541D03*
D12*
X340631824Y-84380541D03*
%TD*%
D10*
%TO.P,D13,1*%
%TO.N,P2*%
X266190825Y-78900817D03*
%TO.P,D13,2*%
%TO.N,mirror_index_bottom*%
X269490817Y-78900813D03*
%TD*%
%TO.P,D14,1*%
%TO.N,P1*%
X167507414Y-61899995D03*
%TO.P,D14,2*%
%TO.N,index_home*%
X170807408Y-61899993D03*
%TD*%
D11*
%TO.P,CPG1316,1*%
%TO.N,P9*%
X338352766Y-66807665D03*
D12*
X338352766Y-66807665D03*
D11*
%TO.P,CPG1316,2*%
%TO.N,mirror_outer_top*%
X343291209Y-67589840D03*
D12*
X343291209Y-67589840D03*
%TD*%
D11*
%TO.P,CPG1316,1*%
%TO.N,P6*%
X131055125Y-67702784D03*
D25*
X131055125Y-67702784D03*
D11*
%TO.P,CPG1316,2*%
%TO.N,ring_home*%
X136042948Y-67353999D03*
D25*
X136042948Y-67353999D03*
%TD*%
D10*
%TO.P,D15,1*%
%TO.N,P0*%
X167507417Y-44899997D03*
%TO.P,D15,2*%
%TO.N,index_top*%
X170807411Y-44899995D03*
%TD*%
D26*
%TO.P,RST1,1*%
%TO.N,RST*%
X323492164Y-49849961D03*
%TO.P,RST1,2*%
%TO.N,GND*%
X318301026Y-45938173D03*
%TD*%
D11*
%TO.P,CPG1316,1*%
%TO.N,P4*%
X99025802Y-101170428D03*
D15*
X99025802Y-101170428D03*
D11*
%TO.P,CPG1316,2*%
%TO.N,outer_bottom*%
X103964240Y-100388256D03*
D15*
X103964240Y-100388256D03*
%TD*%
D11*
%TO.P,CPG1316,1*%
%TO.N,P8*%
X316243299Y-97729687D03*
D12*
X316243299Y-97729687D03*
D11*
%TO.P,CPG1316,2*%
%TO.N,mirror_pinky_bottom*%
X321181742Y-98511862D03*
D12*
X321181742Y-98511862D03*
%TD*%
D11*
%TO.P,CPG1316,1*%
%TO.N,P6*%
X282340824Y-61250820D03*
D16*
X282340824Y-61250820D03*
D11*
%TO.P,CPG1316,2*%
%TO.N,mirror_middle_home*%
X287340822Y-61250826D03*
D16*
X287340822Y-61250826D03*
%TD*%
D11*
%TO.P,CPG1316,1*%
%TO.N,P6*%
X266340819Y-104250821D03*
D16*
X266340819Y-104250821D03*
D11*
%TO.P,CPG1316,2*%
%TO.N,mirror_near_thumb*%
X271340817Y-104250827D03*
D16*
X271340817Y-104250827D03*
%TD*%
D10*
%TO.P,D19,1*%
%TO.N,P3*%
X267190822Y-98900820D03*
%TO.P,D19,2*%
%TO.N,mirror_near_thumb*%
X270490814Y-98900816D03*
%TD*%
D11*
%TO.P,CPG1316,1*%
%TO.N,P4*%
X248340815Y-52250820D03*
D16*
X248340815Y-52250820D03*
D11*
%TO.P,CPG1316,2*%
%TO.N,mirror_inner_top*%
X253340813Y-52250826D03*
D16*
X253340813Y-52250826D03*
%TD*%
D10*
%TO.P,D17,1*%
%TO.N,P1*%
X249190818Y-63900827D03*
%TO.P,D17,2*%
%TO.N,mirror_inner_home*%
X252490810Y-63900823D03*
%TD*%
%TO.P,D18,1*%
%TO.N,P0*%
X249190822Y-46900822D03*
%TO.P,D18,2*%
%TO.N,mirror_inner_top*%
X252490814Y-46900818D03*
%TD*%
D11*
%TO.P,CPG1316,1*%
%TO.N,P6*%
X132240986Y-84661368D03*
D25*
X132240986Y-84661368D03*
D11*
%TO.P,CPG1316,2*%
%TO.N,ring_bottom*%
X137228809Y-84312583D03*
D25*
X137228809Y-84312583D03*
%TD*%
D10*
%TO.P,D11,1*%
%TO.N,P1*%
X283190822Y-55900822D03*
%TO.P,D11,2*%
%TO.N,mirror_middle_home*%
X286490814Y-55900818D03*
%TD*%
D19*
%TO.P,JST1,1*%
%TO.N,GND*%
X235256213Y-60727527D03*
D20*
%TO.P,JST1,2*%
%TO.N,BAT_P*%
X237256209Y-60727521D03*
%TD*%
D11*
%TO.P,CPG1316,1*%
%TO.N,P9*%
X183657418Y-69249997D03*
D16*
X183657418Y-69249997D03*
D11*
%TO.P,CPG1316,2*%
%TO.N,inner_home*%
X188657419Y-69249996D03*
D16*
X188657419Y-69249996D03*
%TD*%
D14*
%TO.P,D5,1*%
%TO.N,P1*%
X320579137Y-75787825D03*
%TO.P,D5,2*%
%TO.N,mirror_pinky_home*%
X323838511Y-76304057D03*
%TD*%
D10*
%TO.P,D19,1*%
%TO.N,P3*%
X166507422Y-98899999D03*
%TO.P,D19,2*%
%TO.N,near_thumb*%
X169807416Y-98899997D03*
%TD*%
%TO.P,D11,1*%
%TO.N,P1*%
X150507423Y-55900005D03*
%TO.P,D11,2*%
%TO.N,middle_home*%
X153807417Y-55900003D03*
%TD*%
D11*
%TO.P,CPG1316,1*%
%TO.N,P7*%
X149657411Y-61249995D03*
D16*
X149657411Y-61249995D03*
D11*
%TO.P,CPG1316,2*%
%TO.N,middle_home*%
X154657412Y-61249994D03*
D16*
X154657412Y-61249994D03*
%TD*%
D10*
%TO.P,D10,1*%
%TO.N,P2*%
X150507413Y-72899997D03*
%TO.P,D10,2*%
%TO.N,middle_bottom*%
X153807407Y-72899995D03*
%TD*%
D11*
%TO.P,CPG1316,1*%
%TO.N,P5*%
X115816499Y-98511037D03*
D15*
X115816499Y-98511037D03*
D11*
%TO.P,CPG1316,2*%
%TO.N,pinky_bottom*%
X120754937Y-97728865D03*
D15*
X120754937Y-97728865D03*
%TD*%
D14*
%TO.P,D6,1*%
%TO.N,P0*%
X323238526Y-58997128D03*
%TO.P,D6,2*%
%TO.N,mirror_pinky_top*%
X326497900Y-59513360D03*
%TD*%
D22*
%TO.P,D8,1*%
%TO.N,P1*%
X131529864Y-62306512D03*
%TO.P,D8,2*%
%TO.N,ring_home*%
X134821814Y-62076324D03*
%TD*%
D27*
%TO.P,REF\u002A\u002A,1*%
%TO.N,P0*%
X198537412Y-41280007D03*
%TO.P,REF\u002A\u002A,2*%
%TO.N,P1*%
X198537418Y-43820005D03*
%TO.P,REF\u002A\u002A,3*%
%TO.N,P2*%
X198537414Y-46360004D03*
%TO.P,REF\u002A\u002A,4*%
%TO.N,P3*%
X198537419Y-48900003D03*
%TO.P,REF\u002A\u002A,5*%
%TO.N,P4*%
X198537420Y-51440004D03*
%TO.P,REF\u002A\u002A,6*%
%TO.N,P5*%
X198537417Y-53980006D03*
%TO.P,REF\u002A\u002A,7*%
%TO.N,P6*%
X198537419Y-56520008D03*
%TO.P,REF\u002A\u002A,8*%
%TO.N,P7*%
X213777420Y-56520001D03*
%TO.P,REF\u002A\u002A,9*%
%TO.N,P8*%
X213777414Y-53980003D03*
%TO.P,REF\u002A\u002A,10*%
%TO.N,P9*%
X213777418Y-51440004D03*
%TO.P,REF\u002A\u002A,11*%
%TO.N,P10*%
X213777413Y-48900005D03*
%TO.P,REF\u002A\u002A,12*%
%TO.N,VCC33*%
X213777412Y-46360004D03*
%TO.P,REF\u002A\u002A,13*%
%TO.N,GND*%
X213777415Y-43820002D03*
%TO.P,REF\u002A\u002A,14*%
%TO.N,VCC5*%
X213777413Y-41280000D03*
D28*
%TO.P,REF\u002A\u002A,15*%
%TO.N,RAW*%
X201157416Y-48586501D03*
%TO.P,REF\u002A\u002A,16*%
%TO.N,GND*%
X201157412Y-46681508D03*
D26*
%TO.P,REF\u002A\u002A,19*%
%TO.N,DIO*%
X204832417Y-40331508D03*
%TO.P,REF\u002A\u002A,20*%
%TO.N,CLK*%
X207372419Y-40331502D03*
%TO.P,REF\u002A\u002A,21*%
%TO.N,RST*%
X204832413Y-42871506D03*
%TO.P,REF\u002A\u002A,22*%
%TO.N,GND*%
X207372413Y-42871498D03*
%TD*%
D21*
%TO.P,D3,1*%
%TO.N,P0*%
X93709631Y-62171923D03*
%TO.P,D3,2*%
%TO.N,outer_top*%
X96969003Y-61655689D03*
%TD*%
D11*
%TO.P,CPG1316,1*%
%TO.N,P7*%
X302141140Y-50396231D03*
D18*
X302141140Y-50396231D03*
D11*
%TO.P,CPG1316,2*%
%TO.N,mirror_ring_top*%
X307128963Y-50745019D03*
D18*
X307128963Y-50745019D03*
%TD*%
D11*
%TO.P,CPG1316,1*%
%TO.N,P4*%
X248340817Y-86250813D03*
D16*
X248340817Y-86250813D03*
D11*
%TO.P,CPG1316,2*%
%TO.N,mirror_inner_bottom*%
X253340815Y-86250819D03*
D16*
X253340815Y-86250819D03*
%TD*%
D11*
%TO.P,CPG1316,1*%
%TO.N,P8*%
X166657411Y-84249999D03*
D16*
X166657411Y-84249999D03*
D11*
%TO.P,CPG1316,2*%
%TO.N,index_bottom*%
X171657412Y-84249998D03*
D16*
X171657412Y-84249998D03*
%TD*%
D11*
%TO.P,CPG1316,1*%
%TO.N,P8*%
X183175652Y-105080345D03*
D29*
X183175652Y-105080345D03*
D11*
%TO.P,CPG1316,2*%
%TO.N,home_thumb*%
X188156624Y-105516126D03*
D29*
X188156624Y-105516126D03*
%TD*%
D11*
%TO.P,CPG1316,1*%
%TO.N,P7*%
X149657414Y-44249997D03*
D16*
X149657414Y-44249997D03*
D11*
%TO.P,CPG1316,2*%
%TO.N,middle_top*%
X154657415Y-44249996D03*
D16*
X154657415Y-44249996D03*
%TD*%
D21*
%TO.P,D5,1*%
%TO.N,P1*%
X113159726Y-76303237D03*
%TO.P,D5,2*%
%TO.N,pinky_home*%
X116419098Y-75787003D03*
%TD*%
D10*
%TO.P,D10,1*%
%TO.N,P2*%
X283190818Y-72900818D03*
%TO.P,D10,2*%
%TO.N,mirror_middle_bottom*%
X286490810Y-72900814D03*
%TD*%
D30*
%TO.P,D21,1*%
%TO.N,P3*%
X229934865Y-105097685D03*
%TO.P,D21,2*%
%TO.N,mirror_far_thumb*%
X233035841Y-103969021D03*
%TD*%
D11*
%TO.P,CPG1316,1*%
%TO.N,P7*%
X300955283Y-67354812D03*
D18*
X300955283Y-67354812D03*
D11*
%TO.P,CPG1316,2*%
%TO.N,mirror_ring_home*%
X305943106Y-67703600D03*
D18*
X305943106Y-67703600D03*
%TD*%
D11*
%TO.P,CPG1316,1*%
%TO.N,P6*%
X129869268Y-50744197D03*
D25*
X129869268Y-50744197D03*
D11*
%TO.P,CPG1316,2*%
%TO.N,ring_top*%
X134857091Y-50395412D03*
D25*
X134857091Y-50395412D03*
%TD*%
D10*
%TO.P,D13,1*%
%TO.N,P2*%
X167507416Y-78900001D03*
%TO.P,D13,2*%
%TO.N,index_bottom*%
X170807410Y-78899999D03*
%TD*%
D11*
%TO.P,CPG1316,1*%
%TO.N,P5*%
X110497723Y-64929638D03*
D15*
X110497723Y-64929638D03*
D11*
%TO.P,CPG1316,2*%
%TO.N,pinky_top*%
X115436161Y-64147466D03*
D15*
X115436161Y-64147466D03*
%TD*%
D11*
%TO.P,CPG1316,1*%
%TO.N,P4*%
X93707027Y-67589017D03*
D15*
X93707027Y-67589017D03*
D11*
%TO.P,CPG1316,2*%
%TO.N,outer_top*%
X98645465Y-66806845D03*
D15*
X98645465Y-66806845D03*
%TD*%
D26*
%TO.P,RST1,1*%
%TO.N,RST*%
X118697210Y-45937361D03*
%TO.P,RST1,2*%
%TO.N,GND*%
X113506070Y-49849149D03*
%TD*%
D27*
%TO.P,REF\u002A\u002A,1*%
%TO.N,P0*%
X223220820Y-41280812D03*
%TO.P,REF\u002A\u002A,2*%
%TO.N,P1*%
X223220817Y-43820817D03*
%TO.P,REF\u002A\u002A,3*%
%TO.N,P2*%
X223220821Y-46360815D03*
%TO.P,REF\u002A\u002A,4*%
%TO.N,P3*%
X223220818Y-48900816D03*
%TO.P,REF\u002A\u002A,5*%
%TO.N,P4*%
X223220817Y-51440818D03*
%TO.P,REF\u002A\u002A,6*%
%TO.N,P5*%
X223220816Y-53980816D03*
%TO.P,REF\u002A\u002A,7*%
%TO.N,P6*%
X223220813Y-56520813D03*
%TO.P,REF\u002A\u002A,8*%
%TO.N,P7*%
X238460814Y-56520820D03*
%TO.P,REF\u002A\u002A,9*%
%TO.N,P8*%
X238460817Y-53980815D03*
%TO.P,REF\u002A\u002A,10*%
%TO.N,P9*%
X238460813Y-51440817D03*
%TO.P,REF\u002A\u002A,11*%
%TO.N,P10*%
X238460816Y-48900816D03*
%TO.P,REF\u002A\u002A,12*%
%TO.N,VCC33*%
X238460817Y-46360814D03*
%TO.P,REF\u002A\u002A,13*%
%TO.N,GND*%
X238460818Y-43820816D03*
%TO.P,REF\u002A\u002A,14*%
%TO.N,VCC5*%
X238460821Y-41280819D03*
D28*
%TO.P,REF\u002A\u002A,15*%
%TO.N,RAW*%
X225840819Y-48587311D03*
%TO.P,REF\u002A\u002A,16*%
%TO.N,GND*%
X225840815Y-46682319D03*
D26*
%TO.P,REF\u002A\u002A,19*%
%TO.N,DIO*%
X229515820Y-40332318D03*
%TO.P,REF\u002A\u002A,20*%
%TO.N,CLK*%
X232055823Y-40332320D03*
%TO.P,REF\u002A\u002A,21*%
%TO.N,RST*%
X229515813Y-42872316D03*
%TO.P,REF\u002A\u002A,22*%
%TO.N,GND*%
X232055813Y-42872319D03*
%TD*%
D21*
%TO.P,D2,1*%
%TO.N,P1*%
X96369020Y-78962624D03*
%TO.P,D2,2*%
%TO.N,outer_home*%
X99628392Y-78446390D03*
%TD*%
D31*
%TO.P,D21,1*%
%TO.N,P3*%
X203962392Y-103968196D03*
%TO.P,D21,2*%
%TO.N,far_thumb*%
X207063370Y-105096864D03*
%TD*%
D10*
%TO.P,D17,1*%
%TO.N,P1*%
X184507420Y-63899995D03*
%TO.P,D17,2*%
%TO.N,inner_home*%
X187807414Y-63899993D03*
%TD*%
D22*
%TO.P,D7,1*%
%TO.N,P2*%
X132715724Y-79265110D03*
%TO.P,D7,2*%
%TO.N,ring_bottom*%
X136007674Y-79034922D03*
%TD*%
D21*
%TO.P,D1,1*%
%TO.N,P2*%
X99028404Y-95753327D03*
%TO.P,D1,2*%
%TO.N,outer_bottom*%
X102287776Y-95237093D03*
%TD*%
D17*
%TO.P,D9,1*%
%TO.N,P0*%
X303362270Y-45118554D03*
%TO.P,D9,2*%
%TO.N,mirror_ring_top*%
X306654232Y-45348744D03*
%TD*%
D11*
%TO.P,CPG1316,1*%
%TO.N,P6*%
X282340817Y-44250816D03*
D16*
X282340817Y-44250816D03*
D11*
%TO.P,CPG1316,2*%
%TO.N,mirror_middle_top*%
X287340815Y-44250822D03*
D16*
X287340815Y-44250822D03*
%TD*%
D11*
%TO.P,CPG1316,1*%
%TO.N,P5*%
X265340818Y-50250819D03*
D16*
X265340818Y-50250819D03*
D11*
%TO.P,CPG1316,2*%
%TO.N,mirror_index_top*%
X270340816Y-50250825D03*
D16*
X270340816Y-50250825D03*
%TD*%
D11*
%TO.P,CPG1316,1*%
%TO.N,P4*%
X248340821Y-69250819D03*
D16*
X248340821Y-69250819D03*
D11*
%TO.P,CPG1316,2*%
%TO.N,mirror_inner_home*%
X253340819Y-69250825D03*
D16*
X253340819Y-69250825D03*
%TD*%
D10*
%TO.P,D15,1*%
%TO.N,P0*%
X266190820Y-44900818D03*
%TO.P,D15,2*%
%TO.N,mirror_index_top*%
X269490812Y-44900814D03*
%TD*%
D11*
%TO.P,CPG1316,1*%
%TO.N,P5*%
X265340822Y-84250817D03*
D16*
X265340822Y-84250817D03*
D11*
%TO.P,CPG1316,2*%
%TO.N,mirror_index_bottom*%
X270340820Y-84250823D03*
D16*
X270340820Y-84250823D03*
%TD*%
D11*
%TO.P,CPG1316,1*%
%TO.N,P5*%
X113157108Y-81720332D03*
D15*
X113157108Y-81720332D03*
D11*
%TO.P,CPG1316,2*%
%TO.N,pinky_home*%
X118095546Y-80938160D03*
D15*
X118095546Y-80938160D03*
%TD*%
D32*
%TO.P,D20,1*%
%TO.N,P3*%
X249222092Y-100113226D03*
%TO.P,D20,2*%
%TO.N,mirror_home_thumb*%
X252509538Y-99825610D03*
%TD*%
D10*
%TO.P,D12,1*%
%TO.N,P0*%
X150507425Y-38900005D03*
%TO.P,D12,2*%
%TO.N,middle_top*%
X153807419Y-38900003D03*
%TD*%
D11*
%TO.P,CPG1316,1*%
%TO.N,P9*%
X183657413Y-86249993D03*
D16*
X183657413Y-86249993D03*
D11*
%TO.P,CPG1316,2*%
%TO.N,inner_bottom*%
X188657414Y-86249992D03*
D16*
X188657414Y-86249992D03*
%TD*%
D14*
%TO.P,D2,1*%
%TO.N,P1*%
X337369842Y-78447211D03*
%TO.P,D2,2*%
%TO.N,mirror_outer_home*%
X340629216Y-78963443D03*
%TD*%
D11*
%TO.P,CPG1316,1*%
%TO.N,P5*%
X248841599Y-105516945D03*
D33*
X248841599Y-105516945D03*
D11*
%TO.P,CPG1316,2*%
%TO.N,mirror_home_thumb*%
X253822577Y-105081177D03*
D33*
X253822577Y-105081177D03*
%TD*%
D34*
%TO.N,outer_bottom*%
X103473003Y-95049375D03*
%TO.N,outer_home*%
X100813617Y-78258672D03*
%TO.N,outer_top*%
X98154233Y-61467967D03*
%TO.N,pinky_bottom*%
X120263707Y-92389990D03*
%TO.N,pinky_home*%
X117604321Y-75599285D03*
%TO.N,pinky_top*%
X114944938Y-58808586D03*
%TO.N,ring_bottom*%
X137204758Y-78951203D03*
%TO.N,ring_home*%
X136018903Y-61992618D03*
%TO.N,ring_top*%
X134833039Y-45034023D03*
%TO.N,middle_bottom*%
X155007419Y-72899998D03*
%TO.N,middle_home*%
X155007419Y-55899999D03*
%TO.N,middle_top*%
X155007415Y-38900002D03*
%TO.N,index_bottom*%
X172007415Y-78899999D03*
%TO.N,index_home*%
X172007418Y-61899998D03*
%TO.N,index_top*%
X172007418Y-44900002D03*
%TO.N,inner_bottom*%
X189007418Y-80900000D03*
%TO.N,inner_home*%
X189007420Y-63900004D03*
%TO.N,inner_top*%
X189007416Y-46900001D03*
%TO.N,near_thumb*%
X171007414Y-98900002D03*
%TO.N,home_thumb*%
X188971578Y-100216994D03*
%TO.N,far_thumb*%
X208191010Y-105507289D03*
%TO.N,P2*%
X131518643Y-79348820D03*
X299793478Y-78952025D03*
X281990825Y-72900819D03*
X97843181Y-95941048D03*
X264990819Y-78900821D03*
X333525234Y-95050190D03*
X183307415Y-80899995D03*
X114633876Y-93281664D03*
X166307412Y-78899989D03*
X316734530Y-92390803D03*
X149307416Y-72899999D03*
X247990820Y-80900816D03*
%TO.N,P1*%
X183307414Y-63899994D03*
X149307413Y-55900004D03*
X319393914Y-75600108D03*
X130332786Y-62390234D03*
X281990817Y-55900816D03*
X111974497Y-76490963D03*
X336184618Y-78259491D03*
X264990825Y-61900818D03*
X300979338Y-61993438D03*
X95183796Y-79150350D03*
X247990821Y-63900821D03*
X166307418Y-61899998D03*
%TO.N,P0*%
X322053306Y-58809404D03*
X183307418Y-46900004D03*
X92524404Y-62359644D03*
X149307413Y-38900004D03*
X264990813Y-44900819D03*
X247990823Y-46900822D03*
X281990816Y-38900815D03*
X129146931Y-45431643D03*
X338844004Y-61468790D03*
X166307408Y-44899996D03*
X109315108Y-59700262D03*
X302165197Y-45034848D03*
%TO.N,P3*%
X165307414Y-98899998D03*
X202834764Y-103557780D03*
X248026654Y-100217815D03*
X183293272Y-99720207D03*
X228807229Y-105508110D03*
X265990816Y-98900818D03*
%TO.N,GND*%
X235006211Y-51577523D03*
%TO.N,RAW*%
X246906214Y-42377521D03*
%TO.N,BAT_P*%
X247756212Y-42427523D03*
X235806212Y-51577521D03*
X205100451Y-50697444D03*
%TO.N,mirror_outer_bottom*%
X339155055Y-95941871D03*
%TO.N,mirror_outer_home*%
X341814437Y-79151167D03*
%TO.N,mirror_outer_top*%
X344473824Y-62360465D03*
%TO.N,mirror_pinky_bottom*%
X322364358Y-93282485D03*
%TO.N,mirror_pinky_home*%
X325023746Y-76491783D03*
%TO.N,mirror_pinky_top*%
X327683118Y-59701086D03*
%TO.N,mirror_ring_bottom*%
X305479588Y-79349637D03*
%TO.N,mirror_ring_home*%
X306665447Y-62391047D03*
%TO.N,mirror_ring_top*%
X307851309Y-45432464D03*
%TO.N,mirror_middle_bottom*%
X287690819Y-72900816D03*
%TO.N,mirror_middle_home*%
X287690815Y-55900815D03*
%TO.N,mirror_middle_top*%
X287690820Y-38900825D03*
%TO.N,mirror_index_bottom*%
X270690820Y-78900818D03*
%TO.N,mirror_index_home*%
X270690820Y-61900816D03*
%TO.N,mirror_index_top*%
X270690822Y-44900812D03*
%TO.N,mirror_inner_bottom*%
X253690820Y-80900822D03*
%TO.N,mirror_inner_home*%
X253690820Y-63900817D03*
%TO.N,mirror_inner_top*%
X253690819Y-46900817D03*
%TO.N,mirror_near_thumb*%
X271690819Y-98900819D03*
%TO.N,mirror_home_thumb*%
X253704962Y-99721028D03*
%TO.N,mirror_far_thumb*%
X234163478Y-103558598D03*
%TD*%
D35*
%TO.N,P4*%
X228056211Y-56277523D02*
X229081213Y-57302521D01*
X223220820Y-51440822D02*
X224019509Y-51440817D01*
X224506214Y-51927524D02*
X224506214Y-51927526D01*
X229581213Y-57802523D02*
X247381211Y-57802524D01*
X224706211Y-52127523D02*
X224706211Y-56027524D01*
X224706211Y-56027524D02*
X224956211Y-56277520D01*
X224506214Y-51927526D02*
X224706211Y-52127523D01*
X224956211Y-56277520D02*
X228056211Y-56277523D01*
X248206209Y-56977525D02*
X248206211Y-52385421D01*
X247381211Y-57802524D02*
X248206209Y-56977525D01*
X229081213Y-57302521D02*
X229581213Y-57802523D01*
X248206211Y-52385421D02*
X248340817Y-52250818D01*
X224019509Y-51440817D02*
X224506214Y-51927524D01*
D36*
%TO.N,outer_bottom*%
X103473003Y-95049375D02*
X102287773Y-95237093D01*
%TO.N,outer_home*%
X100813617Y-78258672D02*
X99628392Y-78446383D01*
%TO.N,outer_top*%
X98154233Y-61467967D02*
X96969003Y-61655689D01*
D35*
%TO.N,P5*%
X227806216Y-56727523D02*
X224606213Y-56727522D01*
X261414117Y-54177525D02*
X251606209Y-54177524D01*
X229331212Y-58252522D02*
X227806216Y-56727523D01*
X251606209Y-54177524D02*
X247531211Y-58252523D01*
X223220820Y-53980817D02*
X223759507Y-53980820D01*
X224606213Y-56727522D02*
X224306213Y-56427521D01*
X265340819Y-50250817D02*
X261414117Y-54177525D01*
X224306211Y-55066211D02*
X223220817Y-53980817D01*
X229331213Y-58252523D02*
X247531211Y-58252523D01*
X229331212Y-58252522D02*
X229331213Y-58252523D01*
X224306213Y-56427521D02*
X224306211Y-55066211D01*
D36*
%TO.N,pinky_bottom*%
X120263707Y-92389990D02*
X119078479Y-92577708D01*
%TO.N,pinky_home*%
X117604321Y-75599285D02*
X116419091Y-75787003D01*
%TO.N,pinky_top*%
X114944938Y-58808586D02*
X113759708Y-58996303D01*
D35*
%TO.N,P6*%
X278381210Y-46352522D02*
X278206210Y-46527521D01*
X264056208Y-52127526D02*
X261606213Y-54577521D01*
X261606213Y-54577521D02*
X251771893Y-54577524D01*
X251771893Y-54577524D02*
X247664054Y-58685365D01*
X281064106Y-45527526D02*
X280606212Y-45527524D01*
X280606212Y-45527524D02*
X279206211Y-45527522D01*
X278206210Y-46527521D02*
X278206211Y-46827523D01*
X278206211Y-46827523D02*
X278206213Y-48385421D01*
X247664054Y-58685365D02*
X229198365Y-58685366D01*
X271256208Y-52127523D02*
X264556211Y-52127527D01*
X273106210Y-49177522D02*
X272206211Y-50077523D01*
X281064104Y-45527525D02*
X282340815Y-44250816D01*
X224406211Y-57177523D02*
X223749501Y-56520813D01*
X280606212Y-45527524D02*
X281064104Y-45527525D01*
X282340814Y-44250819D02*
X281064106Y-45527526D01*
X277414108Y-49177521D02*
X273106210Y-49177522D01*
X272206211Y-50077523D02*
X272206211Y-51177520D01*
X223749501Y-56520813D02*
X223220813Y-56520813D01*
X227690520Y-57177523D02*
X224406211Y-57177523D01*
X272206211Y-51177520D02*
X271256208Y-52127523D01*
X229198365Y-58685366D02*
X227690520Y-57177523D01*
X264556211Y-52127527D02*
X264056208Y-52127526D01*
X279206211Y-45527522D02*
X278381210Y-46352522D01*
X278206213Y-48385421D02*
X277414108Y-49177521D01*
D36*
%TO.N,ring_bottom*%
X137204758Y-78951203D02*
X136007683Y-79034915D01*
%TO.N,ring_home*%
X136018903Y-61992618D02*
X134821822Y-62076328D01*
%TO.N,ring_top*%
X134833039Y-45034023D02*
X133635966Y-45117738D01*
D35*
%TO.N,P7*%
X239956212Y-56277522D02*
X239956211Y-54677524D01*
X261756212Y-48727523D02*
X277156210Y-48727526D01*
X239956211Y-54677524D02*
X241423367Y-53210367D01*
X279306211Y-42777520D02*
X292056208Y-42777520D01*
X277756210Y-44027519D02*
X277764054Y-44019675D01*
X278671899Y-42777521D02*
X279306211Y-42777520D01*
X241423367Y-53210367D02*
X242189055Y-53210366D01*
X238460815Y-56520820D02*
X238954114Y-56027525D01*
X277156210Y-48727526D02*
X277756211Y-48127521D01*
X277756211Y-48127521D02*
X277756210Y-44027519D01*
X292056208Y-42777520D02*
X298256213Y-48977525D01*
X239712913Y-56520818D02*
X239956212Y-56277522D01*
X277764054Y-44019675D02*
X277764053Y-43685366D01*
X277764053Y-43685366D02*
X278671899Y-42777521D01*
X260006208Y-50477525D02*
X261756212Y-48727523D01*
X238460814Y-56520821D02*
X239712913Y-56520818D01*
X242189055Y-53210366D02*
X244921894Y-50477522D01*
X244921894Y-50477522D02*
X260006208Y-50477525D01*
X300722436Y-48977524D02*
X302141143Y-50396230D01*
X298256213Y-48977525D02*
X300722436Y-48977524D01*
D36*
%TO.N,middle_bottom*%
X155007419Y-72899998D02*
X153807422Y-72899995D01*
%TO.N,middle_home*%
X155007419Y-55899999D02*
X153807414Y-55899996D01*
%TO.N,middle_top*%
X155007415Y-38900002D02*
X153807412Y-38899999D01*
D35*
%TO.N,P8*%
X300906209Y-48527524D02*
X308035867Y-49026078D01*
X276806212Y-48277525D02*
X276906212Y-48277521D01*
X238460819Y-53980818D02*
X239756210Y-53980818D01*
X320441954Y-62606581D02*
X321562063Y-64148277D01*
X317843089Y-57067285D02*
X317168145Y-61328711D01*
X292406211Y-42377521D02*
X298556213Y-48527523D01*
X308961107Y-50090451D02*
X309146673Y-50303915D01*
X316812061Y-55726836D02*
X317159991Y-56127079D01*
X309146673Y-50303915D02*
X312288996Y-50523648D01*
X298556213Y-48527523D02*
X300906209Y-48527524D01*
X259706212Y-50077523D02*
X259756209Y-50027526D01*
X277356211Y-47827520D02*
X277356215Y-43927522D01*
X259756209Y-50027526D02*
X261506213Y-48277526D01*
X277356215Y-43927522D02*
X277356212Y-43527521D01*
X239756210Y-53980818D02*
X239802912Y-53980818D01*
X261506213Y-48277526D02*
X276806212Y-48277525D01*
X317159991Y-56127079D02*
X317843089Y-57067285D01*
X278506212Y-42377522D02*
X292406211Y-42377521D01*
X239802912Y-53980818D02*
X241106211Y-52677521D01*
X317791587Y-62186806D02*
X320441954Y-62606581D01*
X242156211Y-52677521D02*
X242331211Y-52502523D01*
X244756212Y-50077524D02*
X259706212Y-50077523D01*
X242331211Y-52502523D02*
X244756212Y-50077524D01*
X317168145Y-61328711D02*
X317791587Y-62186806D01*
X312288996Y-50523648D02*
X316812061Y-55726836D01*
X308035867Y-49026078D02*
X308961107Y-50090451D01*
X276906212Y-48277521D02*
X277356211Y-47827520D01*
X241106211Y-52677521D02*
X242156211Y-52677521D01*
X277356212Y-43527521D02*
X278506212Y-42377522D01*
D36*
%TO.N,index_bottom*%
X172007415Y-78899999D02*
X170807414Y-78899998D01*
%TO.N,index_home*%
X172007418Y-61899998D02*
X170807420Y-61899998D01*
%TO.N,index_top*%
X172007418Y-44900002D02*
X170807420Y-44899996D01*
D35*
%TO.N,P9*%
X244456213Y-49727526D02*
X244556211Y-49627524D01*
X278306213Y-41977522D02*
X278181211Y-42102523D01*
X317976245Y-61760441D02*
X336825602Y-64745886D01*
X308374745Y-48499775D02*
X309530695Y-49829545D01*
X279006211Y-41977522D02*
X292656212Y-41977519D01*
X261206209Y-47877523D02*
X276406213Y-47877525D01*
X242742916Y-51440818D02*
X242742917Y-51440820D01*
X317205965Y-55478526D02*
X317505586Y-55778148D01*
X244556211Y-49627524D02*
X259456210Y-49627521D01*
X317505586Y-55778148D02*
X318324384Y-56905129D01*
X276956209Y-43327523D02*
X278181211Y-42102523D01*
X242742916Y-51440818D02*
X244456213Y-49727526D01*
X317205209Y-55478525D02*
X317205965Y-55478526D01*
X318324384Y-56905129D02*
X317630704Y-61284848D01*
X309530695Y-49829545D02*
X312473511Y-50035328D01*
X317630704Y-61284848D02*
X317976245Y-61760441D01*
X276956208Y-47577524D02*
X276956212Y-43677526D01*
X298112956Y-47434267D02*
X298583844Y-47975958D01*
X276656213Y-47877522D02*
X276956208Y-47577524D01*
X298606213Y-47977522D02*
X300906210Y-47977525D01*
X242006210Y-52177524D02*
X239197522Y-52177523D01*
X312473511Y-50035328D02*
X317205209Y-55478525D01*
X292656212Y-41977519D02*
X293156210Y-42477525D01*
X239197522Y-52177523D02*
X238460816Y-51440819D01*
X336825602Y-64745886D02*
X338319772Y-66802444D01*
X259456210Y-49627521D02*
X261206209Y-47877523D01*
X298583844Y-47975958D02*
X298606213Y-47977522D01*
X242742917Y-51440820D02*
X242006210Y-52177524D01*
X279006211Y-41977522D02*
X278306213Y-41977522D01*
X276406213Y-47877525D02*
X276656213Y-47877522D01*
X300906210Y-47977525D02*
X308374745Y-48499775D01*
X293156210Y-42477525D02*
X298112956Y-47434267D01*
X338319772Y-66802444D02*
X338352769Y-66807663D01*
X276956212Y-43677526D02*
X276956209Y-43327523D01*
D36*
%TO.N,inner_bottom*%
X189007418Y-80900000D02*
X187807414Y-80900004D01*
%TO.N,inner_home*%
X189007420Y-63900004D02*
X187807413Y-63899997D01*
%TO.N,inner_top*%
X189007416Y-46900001D02*
X187807419Y-46900001D01*
%TO.N,near_thumb*%
X171007414Y-98900002D02*
X169807418Y-98900002D01*
%TO.N,home_thumb*%
X188971578Y-100216994D02*
X187776148Y-100112415D01*
%TO.N,far_thumb*%
X208191010Y-105507289D02*
X207063374Y-105096866D01*
%TO.N,P2*%
X131518643Y-79348820D02*
X132715723Y-79265110D01*
D35*
X115856716Y-93331364D02*
X117590635Y-94591134D01*
X168984963Y-77422440D02*
X167507418Y-78899989D01*
X132715727Y-79265107D02*
X132702940Y-79082340D01*
X266190819Y-78900823D02*
X267517525Y-80227519D01*
D36*
X183307415Y-80899995D02*
X184507416Y-80900005D01*
D35*
X160850455Y-77697444D02*
X154775457Y-71622441D01*
X249190819Y-80900820D02*
X250367521Y-82077523D01*
X99904267Y-94152483D02*
X114166871Y-91893511D01*
X167453010Y-78899993D02*
X166300458Y-77747439D01*
X184507415Y-80900002D02*
X184503013Y-80899995D01*
X190550455Y-52222443D02*
X190550455Y-58672441D01*
X151784972Y-71622441D02*
X150507415Y-72899996D01*
X125395063Y-86014655D02*
X130071558Y-79578013D01*
X186375456Y-63322441D02*
X186375456Y-79031961D01*
X186375456Y-79031961D02*
X184507415Y-80900002D01*
X267517525Y-80227519D02*
X274256212Y-80227522D01*
X175950454Y-77422442D02*
X168984963Y-77422440D01*
D36*
X281990825Y-72900819D02*
X283190817Y-72900817D01*
D35*
X132702940Y-79082340D02*
X134274900Y-77274013D01*
X178175456Y-79647446D02*
X175950454Y-77422442D01*
X250367521Y-82077523D02*
X261814117Y-82077522D01*
X183250456Y-79647443D02*
X178175456Y-79647446D01*
X114166871Y-91893511D02*
X115819111Y-93093936D01*
X166300458Y-77747439D02*
X160900456Y-77747440D01*
X126243722Y-91372866D02*
X125395063Y-86014655D01*
X167507418Y-78899989D02*
X167453010Y-78899993D01*
X310689927Y-82627517D02*
X302678206Y-81358586D01*
D36*
X299793478Y-78952025D02*
X300990551Y-79035732D01*
D35*
X319334961Y-94526396D02*
X332762588Y-96653125D01*
X130071558Y-79578013D02*
X131518643Y-79348820D01*
X198537414Y-46359998D02*
X196750456Y-46360000D01*
X297213451Y-75984054D02*
X299793478Y-78952025D01*
X186375458Y-62847438D02*
X186375456Y-63322441D01*
D36*
X316734530Y-92390803D02*
X317919754Y-92578526D01*
D35*
X302678206Y-81358586D02*
X300990556Y-79035730D01*
X190600458Y-52172442D02*
X190550455Y-52222443D01*
X261814117Y-82077522D02*
X264990819Y-78900821D01*
X281582916Y-72900816D02*
X283190819Y-72900821D01*
X285136943Y-75139578D02*
X297213451Y-75984054D01*
D36*
X247990820Y-80900816D02*
X249190820Y-80900818D01*
D35*
X317919755Y-92578524D02*
X310689927Y-82627517D01*
D36*
X333525234Y-95050190D02*
X334710464Y-95237916D01*
D35*
X154775457Y-71622441D02*
X151784972Y-71622441D01*
X196412897Y-46360000D02*
X194900455Y-47872441D01*
X196750456Y-46360000D02*
X196412897Y-46360000D01*
X115819111Y-93093936D02*
X115856716Y-93331364D01*
X160900456Y-77747440D02*
X160850455Y-77697444D01*
X98977001Y-95428761D02*
X99904267Y-94152483D01*
X134274900Y-77274013D02*
X146231967Y-76437889D01*
X283190819Y-72900819D02*
X285136943Y-75139578D01*
D36*
X264990819Y-78900821D02*
X266190817Y-78900820D01*
D35*
X190550455Y-58672441D02*
X186375458Y-62847438D01*
X184503013Y-80899995D02*
X183250456Y-79647443D01*
X124726684Y-93460893D02*
X126243722Y-91372866D01*
D36*
X97843181Y-95941048D02*
X99028403Y-95753327D01*
D35*
X99028406Y-95753320D02*
X98977001Y-95428761D01*
X194900455Y-47872441D02*
X190600458Y-52172442D01*
D36*
X149307416Y-72899999D02*
X150507415Y-72900003D01*
X114633876Y-93281664D02*
X115819106Y-93093940D01*
D35*
X274256212Y-80227522D02*
X281582916Y-72900816D01*
X117590635Y-94591134D02*
X124726684Y-93460893D01*
D36*
X166307412Y-78899989D02*
X167507416Y-78899996D01*
D35*
X146231967Y-76437889D02*
X149307416Y-72899999D01*
X332762588Y-96653125D02*
X334710461Y-95237916D01*
X317919755Y-92578524D02*
X319334961Y-94526396D01*
%TO.N,P1*%
X249190818Y-63900814D02*
X249190821Y-64062131D01*
X144170188Y-60016715D02*
X147647920Y-56016048D01*
X190150455Y-58397443D02*
X184647901Y-63899998D01*
X194550457Y-44597444D02*
X194550456Y-47572442D01*
X274056213Y-63277522D02*
X281356208Y-55977521D01*
X319657228Y-75641809D02*
X312178023Y-65347559D01*
D36*
X130332786Y-62390234D02*
X131529860Y-62306520D01*
D35*
X98578194Y-80567679D02*
X111773329Y-78477777D01*
X184507415Y-63900000D02*
X184507419Y-63829402D01*
X169100452Y-60297440D02*
X167507414Y-61890475D01*
X266190820Y-61912132D02*
X267556208Y-63277526D01*
D36*
X149307413Y-55900004D02*
X150507415Y-55899996D01*
D35*
X303560915Y-63982745D02*
X302176415Y-62077146D01*
X115054259Y-77679701D02*
X121656576Y-76633993D01*
X154812957Y-54559941D02*
X154808194Y-54564702D01*
X136901926Y-60725450D02*
X137087491Y-60511984D01*
X183425455Y-62747440D02*
X177625453Y-62747441D01*
X132662280Y-61021917D02*
X136901926Y-60725450D01*
D36*
X281990817Y-55900816D02*
X283190817Y-55900819D01*
D35*
X184647901Y-63899998D02*
X184507415Y-63900000D01*
X131529867Y-62306516D02*
X131546607Y-62305350D01*
X312178023Y-65347559D02*
X303560915Y-63982745D01*
X96369025Y-78962624D02*
X98578194Y-80567679D01*
D36*
X300979338Y-61993438D02*
X302176415Y-62077146D01*
D35*
X160600459Y-60347445D02*
X154812957Y-54559941D01*
X123828229Y-73644975D02*
X123229868Y-69867067D01*
D36*
X166307418Y-61899998D02*
X167507415Y-61900002D01*
X264990825Y-61900818D02*
X266190821Y-61900819D01*
D35*
X137087491Y-60511984D02*
X144170188Y-60016715D01*
X267556208Y-63277526D02*
X274056213Y-63277522D01*
D36*
X111974497Y-76490963D02*
X113159729Y-76303241D01*
D35*
X281356208Y-55977521D02*
X283114115Y-55977521D01*
X151842714Y-54564704D02*
X150507417Y-55899997D01*
X177625453Y-62747441D02*
X175175455Y-60297443D01*
X121656576Y-76633993D02*
X123828229Y-73644975D01*
X167507413Y-61854400D02*
X166000456Y-60347441D01*
X249190821Y-64062131D02*
X250306212Y-65177524D01*
X154808194Y-54564702D02*
X151842714Y-54564704D01*
D36*
X95183796Y-79150350D02*
X96369020Y-78962633D01*
D35*
X266190820Y-61900820D02*
X266190820Y-61912132D01*
D36*
X247990821Y-63900821D02*
X249190816Y-63900817D01*
D35*
X147647920Y-56016048D02*
X149307413Y-55900004D01*
X283114115Y-55977521D02*
X283190817Y-55900819D01*
X190150455Y-51972442D02*
X190150455Y-58397443D01*
X166000456Y-60347441D02*
X160600459Y-60347445D01*
X128444858Y-62689248D02*
X130332786Y-62390234D01*
D36*
X319393914Y-75600108D02*
X320579143Y-75787822D01*
D35*
X175175455Y-60297443D02*
X169100452Y-60297440D01*
X131546607Y-62305350D02*
X132662280Y-61021917D01*
X167507416Y-61899995D02*
X167507413Y-61854400D01*
X113194359Y-76521900D02*
X113159725Y-76303240D01*
D36*
X183307414Y-63899994D02*
X184507417Y-63900001D01*
D35*
X184507419Y-63829402D02*
X183425455Y-62747440D01*
X322160605Y-77964516D02*
X335193147Y-80028673D01*
X111773329Y-78477777D02*
X113194359Y-76521900D01*
X320579142Y-75787818D02*
X322160605Y-77964516D01*
X198537411Y-43820001D02*
X195327893Y-43820000D01*
X195327893Y-43820000D02*
X194550457Y-44597444D01*
D36*
X336184618Y-78259491D02*
X337369846Y-78447214D01*
D35*
X167507414Y-61890475D02*
X167507416Y-61899995D01*
X335193147Y-80028673D02*
X337369843Y-78447212D01*
X286397447Y-59589629D02*
X283190817Y-55900819D01*
X261714114Y-65177523D02*
X264990825Y-61900818D01*
X300895322Y-60603417D02*
X286397447Y-59589629D01*
X250306212Y-65177524D02*
X261714114Y-65177523D01*
X194550456Y-47572442D02*
X190150455Y-51972442D01*
X123229868Y-69867067D02*
X128444858Y-62689248D01*
X320579142Y-75787818D02*
X319657228Y-75641809D01*
X302176416Y-62077145D02*
X300895322Y-60603417D01*
X113159725Y-76303240D02*
X115054259Y-77679701D01*
%TO.N,P0*%
X283906211Y-41577523D02*
X284656211Y-41577522D01*
X160725456Y-43522441D02*
X154775454Y-37572444D01*
X138049384Y-42892669D02*
X137500457Y-43441592D01*
X196592895Y-41280001D02*
X196200457Y-41672441D01*
X303581361Y-47659255D02*
X305260866Y-47776697D01*
X193067612Y-48489599D02*
X184924575Y-48489600D01*
X323238530Y-58997125D02*
X324894649Y-57793885D01*
D36*
X281990816Y-38900815D02*
X283190814Y-38900813D01*
X322053306Y-58809404D02*
X323238527Y-58997125D01*
D35*
X196200454Y-42872441D02*
X195700455Y-43372441D01*
X112366266Y-60868218D02*
X119116736Y-59799050D01*
X317437996Y-55045738D02*
X317450226Y-55045738D01*
X303260938Y-46567747D02*
X303214151Y-47236827D01*
X320094318Y-58499132D02*
X322053306Y-58809404D01*
X150507417Y-38900005D02*
X150507412Y-38890482D01*
X95642271Y-63567660D02*
X109103098Y-61435676D01*
X167507413Y-44900002D02*
X166129860Y-43522442D01*
X150507412Y-38890482D02*
X151825452Y-37572446D01*
X303214151Y-47236827D02*
X303581361Y-47659255D01*
X145350460Y-42892664D02*
X138049384Y-42892669D01*
X166129860Y-43522442D02*
X160725456Y-43522441D01*
X93709635Y-62171919D02*
X93719136Y-62170417D01*
D36*
X183307418Y-46900004D02*
X184507414Y-46900002D01*
D35*
X194150454Y-44322441D02*
X194150453Y-47406758D01*
X282456210Y-41577523D02*
X278056210Y-41577521D01*
X169134968Y-43272438D02*
X167507413Y-44900002D01*
X110500340Y-59512541D02*
X112366266Y-60868218D01*
X277156211Y-42477523D02*
X276806211Y-42827526D01*
X296977523Y-45677523D02*
X298826422Y-47526422D01*
X292856213Y-41577522D02*
X296956213Y-45677523D01*
X324894649Y-57793885D02*
X338825992Y-60000391D01*
X184507419Y-48072441D02*
X184507419Y-46900003D01*
X283168037Y-39226684D02*
X283190817Y-38900818D01*
X251190824Y-44900816D02*
X264990813Y-44900819D01*
X312704416Y-49600377D02*
X317437996Y-55045738D01*
X121579330Y-56409582D02*
X121411164Y-55347815D01*
D36*
X264990813Y-44900819D02*
X266190818Y-44900816D01*
D35*
X278056210Y-41577521D02*
X277156211Y-42477523D01*
X301200000Y-47526422D02*
X302764612Y-47635830D01*
X249190824Y-46900817D02*
X249190820Y-47112133D01*
X184924575Y-48489600D02*
X184507419Y-48072441D01*
X145350456Y-42856961D02*
X149307413Y-38900004D01*
X303310850Y-45853965D02*
X303214151Y-47236827D01*
X175525452Y-43272440D02*
X169134968Y-43272438D01*
X283190821Y-40112135D02*
X283190822Y-40842910D01*
X303295142Y-45542413D02*
X303362273Y-45118554D01*
X338825992Y-60000391D02*
X340029232Y-61656512D01*
X276106211Y-43527525D02*
X277156211Y-42477523D01*
X196200457Y-41672441D02*
X196200454Y-42872441D01*
X145350460Y-42892664D02*
X145350456Y-42856961D01*
D36*
X338844004Y-61468790D02*
X340029228Y-61656510D01*
X247990823Y-46900822D02*
X249190826Y-46900818D01*
D35*
X276106211Y-43527525D02*
X266956212Y-43527523D01*
X283190822Y-40842910D02*
X283190822Y-40862134D01*
X121411164Y-55347815D02*
X128546606Y-45526724D01*
X302764612Y-47635830D02*
X303213539Y-47245584D01*
X198537410Y-41280001D02*
X196750455Y-41280001D01*
X194150453Y-47406758D02*
X193067612Y-48489599D01*
D36*
X166307408Y-44899996D02*
X167507412Y-44900009D01*
D35*
X196750455Y-41280001D02*
X196592895Y-41280001D01*
X266190816Y-44900818D02*
X266190816Y-44292916D01*
X283190822Y-38900814D02*
X283190822Y-40842910D01*
D36*
X149307413Y-38900004D02*
X150507417Y-38900000D01*
D35*
X303362270Y-45118554D02*
X303260933Y-46567742D01*
D36*
X109315108Y-59700262D02*
X110500339Y-59512539D01*
D35*
X128546606Y-45526724D02*
X129146931Y-45431643D01*
X154775454Y-37572444D02*
X151825452Y-37572446D01*
X119116736Y-59799050D02*
X121579330Y-56409582D01*
X309761600Y-49394594D02*
X312704416Y-49600377D01*
X321526463Y-58725958D02*
X323238530Y-58997125D01*
X130343998Y-45347924D02*
X131645238Y-43851029D01*
X303260933Y-46567742D02*
X303260938Y-46567747D01*
X317450226Y-55045738D02*
X317944113Y-55539623D01*
X296956213Y-45677523D02*
X296977523Y-45677523D01*
X317944113Y-55539623D02*
X320094318Y-58499132D01*
D36*
X92524404Y-62359644D02*
X93709640Y-62171930D01*
D35*
X93719136Y-62170417D02*
X95642271Y-63567660D01*
X266956212Y-43527523D02*
X266806213Y-43677523D01*
X305260866Y-47776697D02*
X308555449Y-48007076D01*
D36*
X302165197Y-45034848D02*
X303362270Y-45118552D01*
D35*
X249190820Y-46900821D02*
X251190824Y-44900816D01*
X283190821Y-38900815D02*
X283190821Y-40112135D01*
X266190816Y-44292916D02*
X266806213Y-43677523D01*
X266190820Y-44292917D02*
X266806213Y-43677523D01*
X195700455Y-43372441D02*
X195100453Y-43372440D01*
X308555449Y-48007076D02*
X309761600Y-49394594D01*
X195100453Y-43372440D02*
X194150454Y-44322441D01*
X283190822Y-40862134D02*
X283906211Y-41577523D01*
D36*
X129146931Y-45431643D02*
X130344000Y-45347932D01*
D35*
X131645238Y-43851029D02*
X137500457Y-43441592D01*
X283190819Y-38900819D02*
X283190822Y-38842913D01*
X298826422Y-47526422D02*
X301200000Y-47526422D01*
X266190819Y-44900818D02*
X266190820Y-44292917D01*
X109103098Y-61435676D02*
X110500340Y-59512541D01*
X284656211Y-41577522D02*
X292856213Y-41577522D01*
X283190822Y-40842910D02*
X282456210Y-41577523D01*
X184507417Y-46899999D02*
X182979859Y-45372439D01*
X177625458Y-45372442D02*
X175525452Y-43272440D01*
X182979859Y-45372439D02*
X177625458Y-45372442D01*
X303362272Y-45118550D02*
X303310850Y-45853965D01*
X303213539Y-47245584D02*
X303214151Y-47236827D01*
%TO.N,P3*%
X183293272Y-99720207D02*
X183310312Y-99525427D01*
X195775458Y-48899997D02*
X198537417Y-48900002D01*
X185950456Y-86947446D02*
X185950455Y-80072442D01*
X191158297Y-52180285D02*
X194438587Y-48899997D01*
X186887951Y-79134940D02*
X186887952Y-62934941D01*
D36*
X248026654Y-100217815D02*
X249222091Y-100113231D01*
X183293272Y-99720207D02*
X184488712Y-99824795D01*
D35*
X182250548Y-98262448D02*
X182200738Y-98258096D01*
X192571052Y-99203794D02*
X193484822Y-100292784D01*
D36*
X265990816Y-98900818D02*
X267190817Y-98900818D01*
D35*
X165275451Y-97668036D02*
X165275448Y-88972444D01*
X175383416Y-97322439D02*
X168084974Y-97322438D01*
D36*
X165307414Y-98899998D02*
X166507414Y-98899997D01*
D35*
X190625458Y-59197438D02*
X191000454Y-58822440D01*
X185487957Y-87409940D02*
X185950456Y-86947446D01*
X175750377Y-97693752D02*
X175727650Y-97666669D01*
X191000456Y-52338130D02*
X191158297Y-52180285D01*
X166507421Y-98899996D02*
X165275451Y-97668036D01*
X247963178Y-99056873D02*
X242494033Y-99535362D01*
X191000454Y-58822440D02*
X191000456Y-52338130D01*
X249222093Y-100113228D02*
X250460249Y-98637638D01*
X185950455Y-80072442D02*
X186887951Y-79134940D01*
X184488712Y-99824798D02*
X185922044Y-98622086D01*
X186887952Y-62934941D02*
X190625458Y-59197442D01*
X249222093Y-100113228D02*
X247963178Y-99056873D01*
X264240394Y-97432038D02*
X265990816Y-98900818D01*
X250460249Y-98637638D02*
X264240394Y-97432038D01*
X185922044Y-98622086D02*
X192571052Y-99203794D01*
X193984319Y-100336482D02*
X202834764Y-103557780D01*
X168084974Y-97322438D02*
X166507421Y-98899996D01*
X231179895Y-102427711D02*
X238060964Y-99923204D01*
X242494033Y-99535362D02*
X238060964Y-99923204D01*
X165875452Y-88372442D02*
X184525452Y-88372438D01*
X193484822Y-100292784D02*
X193984319Y-100336482D01*
X194438587Y-48899997D02*
X195775458Y-48899997D01*
X190625458Y-59197442D02*
X190625458Y-59197438D01*
X175727650Y-97666669D02*
X175383416Y-97322439D01*
X165275448Y-88972444D02*
X165875452Y-88372442D01*
X184525452Y-88372438D02*
X185487957Y-87409940D01*
X182200738Y-98258096D02*
X175750377Y-97693752D01*
X229934863Y-105097688D02*
X231179895Y-102427711D01*
D36*
X202834764Y-103557780D02*
X203962387Y-103968196D01*
X228807229Y-105508110D02*
X229934864Y-105097685D01*
D35*
X183310312Y-99525427D02*
X182250548Y-98262448D01*
%TO.N,GND*%
X244806211Y-39177521D02*
X245756209Y-40127523D01*
X120863294Y-46042031D02*
X127261515Y-45594624D01*
X201157418Y-46681505D02*
X199975456Y-47863465D01*
X208300456Y-44472443D02*
X208700456Y-44072441D01*
X137245379Y-43058456D02*
X137776358Y-42447630D01*
X315861530Y-43838510D02*
X315862242Y-43839332D01*
X224951415Y-46682319D02*
X224951412Y-46682322D01*
X200500000Y-39497442D02*
X200872897Y-39497442D01*
X120847897Y-46039868D02*
X120863294Y-46042031D01*
X207372414Y-42871498D02*
X208324514Y-42871496D01*
X162125456Y-39497443D02*
X177450455Y-39497442D01*
X113506072Y-49849149D02*
X113715668Y-50127297D01*
X145175459Y-42447443D02*
X148650456Y-38972440D01*
X232055813Y-42872319D02*
X232861417Y-42872320D01*
X195725453Y-39497441D02*
X196500455Y-39497441D01*
X318259983Y-45646158D02*
X318301026Y-45938169D01*
X199975456Y-47863465D02*
X199975456Y-60947442D01*
X225840815Y-46682321D02*
X224951412Y-46682322D01*
X296656210Y-41106210D02*
X298149999Y-42599999D01*
X276656210Y-36227523D02*
X291806211Y-36227523D01*
X224356209Y-47277523D02*
X224356211Y-49827524D01*
X208700456Y-44072441D02*
X208700459Y-43247442D01*
X296656210Y-41077522D02*
X296656210Y-41106210D01*
X233606209Y-42127521D02*
X233606211Y-40427523D01*
X234856211Y-39177524D02*
X244806211Y-39177521D01*
X272756213Y-40127521D02*
X276656210Y-36227523D01*
X113715668Y-50127297D02*
X115155216Y-50329612D01*
X179450455Y-41322441D02*
X193900455Y-41322439D01*
X291806211Y-36227523D02*
X296656210Y-41077522D01*
X207600454Y-44472443D02*
X208300456Y-44472443D01*
X208324514Y-42871496D02*
X208700459Y-43247442D01*
X224951412Y-46682322D02*
X224356209Y-47277523D01*
X232931211Y-42802526D02*
X233606209Y-42127521D01*
X200872897Y-39497442D02*
X203175455Y-41800000D01*
X137779056Y-42447442D02*
X145175459Y-42447443D01*
X203175455Y-41800000D02*
X203175456Y-43697443D01*
X177450455Y-39497442D02*
X177625455Y-39497442D01*
X177625455Y-39497442D02*
X179450455Y-41322441D01*
X159325452Y-36697440D02*
X162125456Y-39497443D01*
X225206213Y-50677523D02*
X233806211Y-50677522D01*
X232861417Y-42872320D02*
X232931211Y-42802526D01*
X127261515Y-45594624D02*
X128199951Y-44515075D01*
X199975456Y-60947442D02*
X199650455Y-61272441D01*
X234006209Y-50677521D02*
X234906211Y-51577523D01*
X208324515Y-42871498D02*
X207372410Y-42871504D01*
X149950452Y-36697442D02*
X159325452Y-36697440D01*
X235256213Y-61277527D02*
X235606215Y-61277526D01*
X137776358Y-42447630D02*
X137779056Y-42447442D01*
X196500455Y-39497441D02*
X200500000Y-39497442D01*
X199157416Y-60999993D02*
X199157416Y-60590477D01*
X128199951Y-44515075D02*
X130497247Y-44354434D01*
X148650456Y-38972440D02*
X148650453Y-37997441D01*
X193900455Y-41322439D02*
X195725453Y-39497441D01*
X233606211Y-40427523D02*
X234856211Y-39177524D01*
X203950457Y-44472438D02*
X207600454Y-44472443D01*
X224356211Y-49827524D02*
X225206213Y-50677523D01*
X245756209Y-40127523D02*
X272756213Y-40127521D01*
X232055814Y-42872318D02*
X232861417Y-42872320D01*
X131259991Y-43476996D02*
X137245379Y-43058456D01*
X148650453Y-37997441D02*
X149950452Y-36697442D01*
X233806211Y-50677522D02*
X234006209Y-50677521D01*
X130497247Y-44354434D02*
X131259991Y-43476996D01*
X298149999Y-42599999D02*
X315861530Y-43838510D01*
X208700459Y-43247442D02*
X208324515Y-42871498D01*
X115155216Y-50329612D02*
X120847897Y-46039868D01*
X203175456Y-43697443D02*
X203950457Y-44472438D01*
X225840815Y-46682320D02*
X224951415Y-46682319D01*
X315862242Y-43839332D02*
X318259983Y-45646158D01*
%TO.N,RST*%
X204832416Y-42871503D02*
X204832414Y-42871506D01*
X131029676Y-43092122D02*
X137052193Y-42670989D01*
X127875677Y-44136777D02*
X130266933Y-43969561D01*
X244506208Y-39627524D02*
X235106209Y-39627522D01*
X137052193Y-42670989D02*
X137664111Y-41967056D01*
X245506209Y-40627522D02*
X244506208Y-39627524D01*
X201200000Y-39099546D02*
X203600454Y-41500000D01*
X234081209Y-42752523D02*
X232356212Y-44477524D01*
X195525455Y-39097441D02*
X201200000Y-39097441D01*
X148200458Y-37747445D02*
X149700454Y-36247440D01*
X321890484Y-50603758D02*
X316899012Y-46842415D01*
X137664111Y-41967056D02*
X137944579Y-41947445D01*
X273056213Y-40627522D02*
X245506209Y-40627522D01*
X148200455Y-38797439D02*
X148200458Y-37747445D01*
X298050000Y-43099999D02*
X315722284Y-44335766D01*
X296506213Y-41577525D02*
X296527522Y-41577523D01*
X204149517Y-42871505D02*
X204832416Y-42871503D01*
X149700454Y-36247440D02*
X159500455Y-36247441D01*
X296527522Y-41577523D02*
X298050000Y-43099999D01*
X159500455Y-36247441D02*
X159525452Y-36222442D01*
X203600454Y-41500000D02*
X203600456Y-42322437D01*
X177791144Y-39097441D02*
X179608297Y-40914598D01*
X228431209Y-42952523D02*
X228511417Y-42872321D01*
X179608297Y-40914598D02*
X193708300Y-40914598D01*
X118855421Y-45755356D02*
X126961398Y-45188534D01*
X323046574Y-50441281D02*
X321890484Y-50603758D01*
X145050457Y-41947441D02*
X148200455Y-38797439D01*
X228106209Y-44027522D02*
X228106211Y-43277526D01*
X234106211Y-40627522D02*
X234106210Y-42727524D01*
X316644379Y-45030603D02*
X315722291Y-44335759D01*
X316899012Y-46842415D02*
X316644379Y-45030603D01*
X296506213Y-41577525D02*
X291656210Y-36727521D01*
X118697212Y-45937357D02*
X118855421Y-45755356D01*
X291656210Y-36727521D02*
X276956212Y-36727523D01*
X323019725Y-49377522D02*
X323492163Y-49849962D01*
X228106211Y-43277526D02*
X228431209Y-42952523D01*
X126961398Y-45188534D02*
X127875677Y-44136777D01*
X228556211Y-44477520D02*
X228106209Y-44027522D01*
X234106210Y-42727524D02*
X234081209Y-42752523D01*
X137944579Y-41947445D02*
X145050457Y-41947441D01*
X276956212Y-36727523D02*
X273056213Y-40627522D01*
X159525452Y-36222442D02*
X162400454Y-39097441D01*
X228511417Y-42872321D02*
X229515815Y-42872319D01*
X177550455Y-39097442D02*
X177791144Y-39097441D01*
X228511420Y-42872316D02*
X228431209Y-42952523D01*
X162400454Y-39097441D02*
X177550455Y-39097442D01*
X203600456Y-42322437D02*
X204149517Y-42871505D01*
X323492164Y-49849964D02*
X323046574Y-50441281D01*
X232356212Y-44477524D02*
X228556211Y-44477520D01*
X229515813Y-42872317D02*
X228511420Y-42872316D01*
X130266933Y-43969561D02*
X131029676Y-43092122D01*
X201200000Y-39097441D02*
X201200000Y-39099546D01*
X235106209Y-39627522D02*
X234106211Y-40627522D01*
X315722284Y-44335766D02*
X315722291Y-44335759D01*
X193708300Y-40914598D02*
X195525455Y-39097441D01*
%TO.N,RAW*%
X224956208Y-49027522D02*
X224956210Y-49827521D01*
X236956211Y-48477524D02*
X237031213Y-48402524D01*
X246906211Y-43277524D02*
X246906214Y-42377521D01*
X237856212Y-47577524D02*
X244406212Y-47577523D01*
X225840820Y-48587309D02*
X225396418Y-48587310D01*
X244406212Y-47577523D02*
X246306209Y-45677526D01*
X236306211Y-50227523D02*
X236306211Y-50227525D01*
X236306211Y-50227525D02*
X236956212Y-49577523D01*
X246306212Y-43877523D02*
X246906211Y-43277524D01*
X224956210Y-49827521D02*
X225356211Y-50227521D01*
X225396422Y-48587316D02*
X224956208Y-49027522D01*
X246306209Y-45677526D02*
X246306212Y-43877523D01*
X225356211Y-50227521D02*
X236306211Y-50227523D01*
X225396418Y-48587310D02*
X224956208Y-49027522D01*
X237031213Y-48402524D02*
X237856212Y-47577524D01*
X225840821Y-48587314D02*
X225396422Y-48587316D01*
X236956212Y-49577523D02*
X236956211Y-48477524D01*
%TO.N,BAT_P*%
X247756214Y-43277524D02*
X247756212Y-42427523D01*
X201650447Y-60650447D02*
X201650447Y-60772442D01*
X237256211Y-50127524D02*
X240706212Y-50127525D01*
X246856209Y-45977525D02*
X246856211Y-44177524D01*
X241656212Y-48077524D02*
X244756215Y-48077521D01*
X237006212Y-61027522D02*
X237256212Y-61277523D01*
X240706212Y-50127525D02*
X241256212Y-49577524D01*
X200375456Y-59375456D02*
X201650447Y-60650447D01*
X241256211Y-48477522D02*
X241656212Y-48077524D01*
X205025455Y-50772441D02*
X200650455Y-50772442D01*
X241256212Y-49577524D02*
X241256211Y-48477522D01*
X200375456Y-51047441D02*
X200375456Y-59375456D01*
X205100451Y-50697444D02*
X205025455Y-50772441D01*
X237256210Y-50127524D02*
X237256211Y-50127524D01*
X200650455Y-50772442D02*
X200375456Y-51047441D01*
X246856211Y-44177524D02*
X247756214Y-43277524D01*
X244756215Y-48077521D02*
X246856209Y-45977525D01*
X235806212Y-51577521D02*
X237256210Y-50127524D01*
D36*
%TO.N,mirror_outer_bottom*%
X339155055Y-95941871D02*
X337969824Y-95754142D01*
%TO.N,mirror_outer_home*%
X341814437Y-79151167D02*
X340629216Y-78963443D01*
%TO.N,mirror_outer_top*%
X344473824Y-62360465D02*
X343288603Y-62172743D01*
%TO.N,mirror_pinky_bottom*%
X322364358Y-93282485D02*
X321179123Y-93094761D01*
%TO.N,mirror_pinky_home*%
X325023746Y-76491783D02*
X323838511Y-76304060D01*
%TO.N,mirror_pinky_top*%
X327683118Y-59701086D02*
X326497904Y-59513363D01*
%TO.N,mirror_ring_bottom*%
X305479588Y-79349637D02*
X304282508Y-79265929D01*
%TO.N,mirror_ring_home*%
X306665447Y-62391047D02*
X305468373Y-62307342D01*
%TO.N,mirror_ring_top*%
X307851309Y-45432464D02*
X306654234Y-45348750D01*
%TO.N,mirror_middle_bottom*%
X287690819Y-72900816D02*
X286490815Y-72900821D01*
%TO.N,mirror_middle_home*%
X287690815Y-55900815D02*
X286490818Y-55900818D01*
%TO.N,mirror_middle_top*%
X287690820Y-38900825D02*
X286490817Y-38900820D01*
%TO.N,mirror_index_bottom*%
X270690820Y-78900818D02*
X269490813Y-78900818D01*
%TO.N,mirror_index_home*%
X270690820Y-61900816D02*
X269490818Y-61900824D01*
%TO.N,mirror_index_top*%
X270690822Y-44900812D02*
X269490811Y-44900820D01*
%TO.N,mirror_inner_bottom*%
X253690820Y-80900822D02*
X252490815Y-80900818D01*
%TO.N,mirror_inner_home*%
X253690820Y-63900817D02*
X252490812Y-63900818D01*
%TO.N,mirror_inner_top*%
X253690819Y-46900817D02*
X252490820Y-46900821D01*
%TO.N,mirror_near_thumb*%
X271690819Y-98900819D02*
X270490819Y-98900821D01*
%TO.N,mirror_home_thumb*%
X253704962Y-99721028D02*
X252509534Y-99825613D01*
%TO.N,mirror_far_thumb*%
X234163478Y-103558598D02*
X233035858Y-103969016D01*
%TD*%
M02*
