%TF.GenerationSoftware,KiCad,Pcbnew,8.0.6*%
%TF.CreationDate,2025-07-21T16:03:13+02:00*%
%TF.ProjectId,combined,636f6d62-696e-4656-942e-6b696361645f,v1.0.0*%
%TF.SameCoordinates,Original*%
%TF.FileFunction,Copper,L1,Top*%
%TF.FilePolarity,Positive*%
%FSLAX46Y46*%
G04 Gerber Fmt 4.6, Leading zero omitted, Abs format (unit mm)*
G04 Created by KiCad (PCBNEW 8.0.6) date 2025-07-21 16:03:13*
%MOMM*%
%LPD*%
G01*
G04 APERTURE LIST*
G04 Aperture macros list*
%AMRoundRect*
0 Rectangle with rounded corners*
0 $1 Rounding radius*
0 $2 $3 $4 $5 $6 $7 $8 $9 X,Y pos of 4 corners*
0 Add a 4 corners polygon primitive as box body*
4,1,4,$2,$3,$4,$5,$6,$7,$8,$9,$2,$3,0*
0 Add four circle primitives for the rounded corners*
1,1,$1+$1,$2,$3*
1,1,$1+$1,$4,$5*
1,1,$1+$1,$6,$7*
1,1,$1+$1,$8,$9*
0 Add four rect primitives between the rounded corners*
20,1,$1+$1,$2,$3,$4,$5,0*
20,1,$1+$1,$4,$5,$6,$7,0*
20,1,$1+$1,$6,$7,$8,$9,0*
20,1,$1+$1,$8,$9,$2,$3,0*%
%AMRotRect*
0 Rectangle, with rotation*
0 The origin of the aperture is its center*
0 $1 length*
0 $2 width*
0 $3 Rotation angle, in degrees counterclockwise*
0 Add horizontal line*
21,1,$1,$2,0,0,$3*%
G04 Aperture macros list end*
%TA.AperFunction,ComponentPad*%
%ADD10C,1.400000*%
%TD*%
%TA.AperFunction,SMDPad,CuDef*%
%ADD11RotRect,1.550000X2.000000X351.000000*%
%TD*%
%TA.AperFunction,SMDPad,CuDef*%
%ADD12RotRect,2.000000X2.000000X351.000000*%
%TD*%
%TA.AperFunction,SMDPad,CuDef*%
%ADD13RotRect,1.550000X2.000000X20.000000*%
%TD*%
%TA.AperFunction,SMDPad,CuDef*%
%ADD14RotRect,2.000000X2.000000X20.000000*%
%TD*%
%TA.AperFunction,SMDPad,CuDef*%
%ADD15RotRect,1.550000X2.000000X9.000000*%
%TD*%
%TA.AperFunction,SMDPad,CuDef*%
%ADD16RotRect,2.000000X2.000000X9.000000*%
%TD*%
%TA.AperFunction,SMDPad,CuDef*%
%ADD17R,1.550000X2.000000*%
%TD*%
%TA.AperFunction,SMDPad,CuDef*%
%ADD18R,2.000000X2.000000*%
%TD*%
%TA.AperFunction,SMDPad,CuDef*%
%ADD19RotRect,1.550000X2.000000X356.000000*%
%TD*%
%TA.AperFunction,SMDPad,CuDef*%
%ADD20RotRect,2.000000X2.000000X356.000000*%
%TD*%
%TA.AperFunction,SMDPad,CuDef*%
%ADD21RotRect,1.550000X2.000000X340.000000*%
%TD*%
%TA.AperFunction,SMDPad,CuDef*%
%ADD22RotRect,2.000000X2.000000X340.000000*%
%TD*%
%TA.AperFunction,SMDPad,CuDef*%
%ADD23RotRect,1.550000X2.000000X4.000000*%
%TD*%
%TA.AperFunction,SMDPad,CuDef*%
%ADD24RotRect,2.000000X2.000000X4.000000*%
%TD*%
%TA.AperFunction,SMDPad,CuDef*%
%ADD25RotRect,1.550000X2.000000X355.000000*%
%TD*%
%TA.AperFunction,SMDPad,CuDef*%
%ADD26RotRect,2.000000X2.000000X355.000000*%
%TD*%
%TA.AperFunction,SMDPad,CuDef*%
%ADD27RotRect,1.550000X2.000000X5.000000*%
%TD*%
%TA.AperFunction,SMDPad,CuDef*%
%ADD28RotRect,2.000000X2.000000X5.000000*%
%TD*%
%TA.AperFunction,SMDPad,CuDef*%
%ADD29R,0.900000X1.200000*%
%TD*%
%TA.AperFunction,SMDPad,CuDef*%
%ADD30RotRect,0.900000X1.200000X351.000000*%
%TD*%
%TA.AperFunction,SMDPad,CuDef*%
%ADD31RotRect,0.900000X1.200000X356.000000*%
%TD*%
%TA.AperFunction,ComponentPad*%
%ADD32RoundRect,0.240000X-0.360000X-0.635000X0.360000X-0.635000X0.360000X0.635000X-0.360000X0.635000X0*%
%TD*%
%TA.AperFunction,ComponentPad*%
%ADD33O,1.200000X1.750000*%
%TD*%
%TA.AperFunction,SMDPad,CuDef*%
%ADD34RotRect,0.900000X1.200000X9.000000*%
%TD*%
%TA.AperFunction,SMDPad,CuDef*%
%ADD35RotRect,0.900000X1.200000X4.000000*%
%TD*%
%TA.AperFunction,SMDPad,CuDef*%
%ADD36RotRect,0.900000X1.200000X355.000000*%
%TD*%
%TA.AperFunction,ComponentPad*%
%ADD37C,3.000000*%
%TD*%
%TA.AperFunction,ComponentPad*%
%ADD38C,1.700000*%
%TD*%
%TA.AperFunction,SMDPad,CuDef*%
%ADD39RoundRect,0.152400X1.063600X0.609600X-1.063600X0.609600X-1.063600X-0.609600X1.063600X-0.609600X0*%
%TD*%
%TA.AperFunction,ComponentPad*%
%ADD40C,1.524000*%
%TD*%
%TA.AperFunction,SMDPad,CuDef*%
%ADD41RoundRect,0.152400X-1.063600X-0.609600X1.063600X-0.609600X1.063600X0.609600X-1.063600X0.609600X0*%
%TD*%
%TA.AperFunction,ComponentPad*%
%ADD42C,1.500000*%
%TD*%
%TA.AperFunction,SMDPad,CuDef*%
%ADD43RotRect,0.900000X1.200000X20.000000*%
%TD*%
%TA.AperFunction,SMDPad,CuDef*%
%ADD44RotRect,1.000000X0.800000X161.000000*%
%TD*%
%TA.AperFunction,SMDPad,CuDef*%
%ADD45RotRect,0.700000X1.500000X161.000000*%
%TD*%
%TA.AperFunction,SMDPad,CuDef*%
%ADD46RotRect,0.900000X1.200000X340.000000*%
%TD*%
%TA.AperFunction,SMDPad,CuDef*%
%ADD47RotRect,1.000000X0.800000X199.000000*%
%TD*%
%TA.AperFunction,SMDPad,CuDef*%
%ADD48RotRect,0.700000X1.500000X199.000000*%
%TD*%
%TA.AperFunction,SMDPad,CuDef*%
%ADD49RotRect,0.900000X1.200000X5.000000*%
%TD*%
%TA.AperFunction,ViaPad*%
%ADD50C,0.600000*%
%TD*%
%TA.AperFunction,Conductor*%
%ADD51C,0.200000*%
%TD*%
%TA.AperFunction,Conductor*%
%ADD52C,0.250000*%
%TD*%
G04 APERTURE END LIST*
D10*
%TO.P,CPG1316,1*%
%TO.N,P8*%
X319940054Y-81099678D03*
D11*
X319940054Y-81099678D03*
D10*
%TO.P,CPG1316,2*%
%TO.N,mirror_pinky_home*%
X322903123Y-81568982D03*
D11*
X322903123Y-81568982D03*
D12*
%TO.P,CPG1316,3*%
%TO.N,N/C*%
X316502925Y-71797471D03*
X314625714Y-83649727D03*
X329046566Y-73784185D03*
X327169355Y-85636441D03*
%TD*%
D10*
%TO.P,CPG1316,1*%
%TO.N,P9*%
X334071367Y-100549759D03*
D11*
X334071367Y-100549759D03*
D10*
%TO.P,CPG1316,2*%
%TO.N,mirror_outer_bottom*%
X337034436Y-101019063D03*
D11*
X337034436Y-101019063D03*
D12*
%TO.P,CPG1316,3*%
%TO.N,N/C*%
X330634238Y-91247552D03*
X328757027Y-103099808D03*
X343177879Y-93234266D03*
X341300668Y-105086522D03*
%TD*%
D10*
%TO.P,CPG1316,1*%
%TO.N,P4*%
X231955305Y-110077994D03*
D13*
X231955305Y-110077994D03*
D10*
%TO.P,CPG1316,2*%
%TO.N,mirror_far_thumb*%
X234774385Y-109051932D03*
D13*
X234774385Y-109051932D03*
D14*
%TO.P,CPG1316,3*%
%TO.N,N/C*%
X224439323Y-103608450D03*
X228543565Y-114884766D03*
X236373421Y-99264794D03*
X240477663Y-110541110D03*
%TD*%
D10*
%TO.P,CPG1316,1*%
%TO.N,P4*%
X97403782Y-84227536D03*
D15*
X97403782Y-84227536D03*
D10*
%TO.P,CPG1316,2*%
%TO.N,outer_home*%
X100366842Y-83758231D03*
D15*
X100366842Y-83758231D03*
D16*
%TO.P,CPG1316,3*%
%TO.N,N/C*%
X91260332Y-76442740D03*
X93137545Y-88294999D03*
X103803973Y-74456025D03*
X105681186Y-86308284D03*
%TD*%
D10*
%TO.P,CPG1316,1*%
%TO.N,P6*%
X283390500Y-78255067D03*
D17*
X283390500Y-78255067D03*
D10*
%TO.P,CPG1316,2*%
%TO.N,mirror_middle_bottom*%
X286390502Y-78255066D03*
D17*
X286390502Y-78255066D03*
D18*
%TO.P,CPG1316,3*%
%TO.N,N/C*%
X278540500Y-69605066D03*
X278540501Y-81605067D03*
X291240501Y-69605065D03*
X291240502Y-81605066D03*
%TD*%
D10*
%TO.P,CPG1316,1*%
%TO.N,P8*%
X322599432Y-64308964D03*
D11*
X322599432Y-64308964D03*
D10*
%TO.P,CPG1316,2*%
%TO.N,mirror_pinky_top*%
X325562501Y-64778268D03*
D11*
X325562501Y-64778268D03*
D12*
%TO.P,CPG1316,3*%
%TO.N,N/C*%
X319162303Y-55006757D03*
X317285092Y-66859013D03*
X331705944Y-56993471D03*
X329828733Y-68845727D03*
%TD*%
D10*
%TO.P,CPG1316,1*%
%TO.N,P7*%
X166707103Y-104254245D03*
D17*
X166707103Y-104254245D03*
D10*
%TO.P,CPG1316,2*%
%TO.N,near_thumb*%
X169707105Y-104254244D03*
D17*
X169707105Y-104254244D03*
D18*
%TO.P,CPG1316,3*%
%TO.N,N/C*%
X161857103Y-95604244D03*
X161857104Y-107604245D03*
X174557104Y-95604243D03*
X174557105Y-107604244D03*
%TD*%
D10*
%TO.P,CPG1316,1*%
%TO.N,P5*%
X266390498Y-67255062D03*
D17*
X266390498Y-67255062D03*
D10*
%TO.P,CPG1316,2*%
%TO.N,mirror_index_home*%
X269390500Y-67255061D03*
D17*
X269390500Y-67255061D03*
D18*
%TO.P,CPG1316,3*%
%TO.N,N/C*%
X261540498Y-58605061D03*
X261540499Y-70605062D03*
X274240499Y-58605060D03*
X274240500Y-70605061D03*
%TD*%
D10*
%TO.P,CPG1316,1*%
%TO.N,P7*%
X300816665Y-84387415D03*
D19*
X300816665Y-84387415D03*
D10*
%TO.P,CPG1316,2*%
%TO.N,mirror_ring_bottom*%
X303809355Y-84596685D03*
D19*
X303809355Y-84596685D03*
D20*
%TO.P,CPG1316,3*%
%TO.N,N/C*%
X296581872Y-75420166D03*
X295744797Y-87390936D03*
X309250935Y-76306072D03*
X308413860Y-88276842D03*
%TD*%
D18*
%TO.P,CPG1316,3*%
%TO.N,N/C*%
X158557102Y-81604248D03*
X158557101Y-69604247D03*
X145857101Y-81604249D03*
X145857100Y-69604248D03*
D17*
%TO.P,CPG1316,2*%
%TO.N,middle_bottom*%
X153707102Y-78254248D03*
D10*
X153707102Y-78254248D03*
D17*
%TO.P,CPG1316,1*%
%TO.N,P7*%
X150707100Y-78254249D03*
D10*
X150707100Y-78254249D03*
%TD*%
%TO.P,CPG1316,1*%
%TO.N,P8*%
X167707108Y-50254251D03*
D17*
X167707108Y-50254251D03*
D10*
%TO.P,CPG1316,2*%
%TO.N,index_top*%
X170707110Y-50254250D03*
D17*
X170707110Y-50254250D03*
D18*
%TO.P,CPG1316,3*%
%TO.N,N/C*%
X162857108Y-41604250D03*
X162857109Y-53604251D03*
X175557109Y-41604249D03*
X175557110Y-53604250D03*
%TD*%
D10*
%TO.P,CPG1316,1*%
%TO.N,P9*%
X184707097Y-52254237D03*
D17*
X184707097Y-52254237D03*
D10*
%TO.P,CPG1316,2*%
%TO.N,inner_top*%
X187707099Y-52254236D03*
D17*
X187707099Y-52254236D03*
D18*
%TO.P,CPG1316,3*%
%TO.N,N/C*%
X179857097Y-43604236D03*
X179857098Y-55604237D03*
X192557098Y-43604235D03*
X192557099Y-55604236D03*
%TD*%
D10*
%TO.P,CPG1316,1*%
%TO.N,P9*%
X202323205Y-109051108D03*
D21*
X202323205Y-109051108D03*
D10*
%TO.P,CPG1316,2*%
%TO.N,far_thumb*%
X205142286Y-110077173D03*
D21*
X205142286Y-110077173D03*
D22*
%TO.P,CPG1316,3*%
%TO.N,N/C*%
X200724171Y-99263970D03*
X196619930Y-110540286D03*
X212658266Y-103607626D03*
X208554025Y-114883942D03*
%TD*%
D10*
%TO.P,CPG1316,1*%
%TO.N,P9*%
X339390135Y-66968354D03*
D11*
X339390135Y-66968354D03*
D10*
%TO.P,CPG1316,2*%
%TO.N,mirror_outer_top*%
X342353204Y-67437658D03*
D11*
X342353204Y-67437658D03*
D12*
%TO.P,CPG1316,3*%
%TO.N,N/C*%
X335953006Y-57666147D03*
X334075795Y-69518403D03*
X348496647Y-59652861D03*
X346619436Y-71505117D03*
%TD*%
D10*
%TO.P,CPG1316,1*%
%TO.N,P6*%
X132102378Y-67637274D03*
D23*
X132102378Y-67637274D03*
D10*
%TO.P,CPG1316,2*%
%TO.N,ring_home*%
X135095066Y-67428008D03*
D23*
X135095066Y-67428008D03*
D24*
%TO.P,CPG1316,3*%
%TO.N,N/C*%
X126660798Y-59346669D03*
X127497874Y-71317437D03*
X139329862Y-58460759D03*
X140166938Y-70431527D03*
%TD*%
D10*
%TO.P,CPG1316,1*%
%TO.N,P4*%
X100063175Y-101018243D03*
D15*
X100063175Y-101018243D03*
D10*
%TO.P,CPG1316,2*%
%TO.N,outer_bottom*%
X103026235Y-100548938D03*
D15*
X103026235Y-100548938D03*
D16*
%TO.P,CPG1316,3*%
%TO.N,N/C*%
X93919725Y-93233447D03*
X95796938Y-105085706D03*
X106463366Y-91246732D03*
X108340579Y-103098991D03*
%TD*%
D10*
%TO.P,CPG1316,1*%
%TO.N,P8*%
X317280668Y-97890375D03*
D11*
X317280668Y-97890375D03*
D10*
%TO.P,CPG1316,2*%
%TO.N,mirror_pinky_bottom*%
X320243737Y-98359679D03*
D11*
X320243737Y-98359679D03*
D12*
%TO.P,CPG1316,3*%
%TO.N,N/C*%
X313843539Y-88588168D03*
X311966328Y-100440424D03*
X326387180Y-90574882D03*
X324509969Y-102427138D03*
%TD*%
D10*
%TO.P,CPG1316,1*%
%TO.N,P6*%
X283390508Y-61255074D03*
D17*
X283390508Y-61255074D03*
D10*
%TO.P,CPG1316,2*%
%TO.N,mirror_middle_home*%
X286390510Y-61255073D03*
D17*
X286390510Y-61255073D03*
D18*
%TO.P,CPG1316,3*%
%TO.N,N/C*%
X278540508Y-52605073D03*
X278540509Y-64605074D03*
X291240509Y-52605072D03*
X291240510Y-64605073D03*
%TD*%
D10*
%TO.P,CPG1316,1*%
%TO.N,P6*%
X267390501Y-104255071D03*
D17*
X267390501Y-104255071D03*
D10*
%TO.P,CPG1316,2*%
%TO.N,mirror_near_thumb*%
X270390503Y-104255070D03*
D17*
X270390503Y-104255070D03*
D18*
%TO.P,CPG1316,3*%
%TO.N,N/C*%
X262540501Y-95605070D03*
X262540502Y-107605071D03*
X275240502Y-95605069D03*
X275240503Y-107605070D03*
%TD*%
D10*
%TO.P,CPG1316,1*%
%TO.N,P4*%
X249390496Y-52255067D03*
D17*
X249390496Y-52255067D03*
D10*
%TO.P,CPG1316,2*%
%TO.N,mirror_inner_top*%
X252390498Y-52255066D03*
D17*
X252390498Y-52255066D03*
D18*
%TO.P,CPG1316,3*%
%TO.N,N/C*%
X244540496Y-43605066D03*
X244540497Y-55605067D03*
X257240497Y-43605065D03*
X257240498Y-55605066D03*
%TD*%
D10*
%TO.P,CPG1316,1*%
%TO.N,P6*%
X133288235Y-84595855D03*
D23*
X133288235Y-84595855D03*
D10*
%TO.P,CPG1316,2*%
%TO.N,ring_bottom*%
X136280923Y-84386589D03*
D23*
X136280923Y-84386589D03*
D24*
%TO.P,CPG1316,3*%
%TO.N,N/C*%
X127846655Y-76305250D03*
X128683731Y-88276018D03*
X140515719Y-75419340D03*
X141352795Y-87390108D03*
%TD*%
D10*
%TO.P,CPG1316,1*%
%TO.N,P9*%
X184707104Y-69254249D03*
D17*
X184707104Y-69254249D03*
D10*
%TO.P,CPG1316,2*%
%TO.N,inner_home*%
X187707106Y-69254248D03*
D17*
X187707106Y-69254248D03*
D18*
%TO.P,CPG1316,3*%
%TO.N,N/C*%
X179857104Y-60604248D03*
X179857105Y-72604249D03*
X192557105Y-60604247D03*
X192557106Y-72604248D03*
%TD*%
D10*
%TO.P,CPG1316,1*%
%TO.N,P7*%
X150707097Y-61254243D03*
D17*
X150707097Y-61254243D03*
D10*
%TO.P,CPG1316,2*%
%TO.N,middle_home*%
X153707099Y-61254242D03*
D17*
X153707099Y-61254242D03*
D18*
%TO.P,CPG1316,3*%
%TO.N,N/C*%
X145857097Y-52604242D03*
X145857098Y-64604243D03*
X158557098Y-52604241D03*
X158557099Y-64604242D03*
%TD*%
D10*
%TO.P,CPG1316,1*%
%TO.N,P5*%
X116853875Y-98358855D03*
D15*
X116853875Y-98358855D03*
D10*
%TO.P,CPG1316,2*%
%TO.N,pinky_bottom*%
X119816935Y-97889550D03*
D15*
X119816935Y-97889550D03*
D16*
%TO.P,CPG1316,3*%
%TO.N,N/C*%
X110710425Y-90574059D03*
X112587638Y-102426318D03*
X123254066Y-88587344D03*
X125131279Y-100439603D03*
%TD*%
D10*
%TO.P,CPG1316,1*%
%TO.N,P7*%
X303188389Y-50470244D03*
D19*
X303188389Y-50470244D03*
D10*
%TO.P,CPG1316,2*%
%TO.N,mirror_ring_top*%
X306181079Y-50679514D03*
D19*
X306181079Y-50679514D03*
D20*
%TO.P,CPG1316,3*%
%TO.N,N/C*%
X298953596Y-41502995D03*
X298116521Y-53473765D03*
X311622659Y-42388901D03*
X310785584Y-54359671D03*
%TD*%
D10*
%TO.P,CPG1316,1*%
%TO.N,P4*%
X249390500Y-86255062D03*
D17*
X249390500Y-86255062D03*
D10*
%TO.P,CPG1316,2*%
%TO.N,mirror_inner_bottom*%
X252390502Y-86255061D03*
D17*
X252390502Y-86255061D03*
D18*
%TO.P,CPG1316,3*%
%TO.N,N/C*%
X244540500Y-77605061D03*
X244540501Y-89605062D03*
X257240501Y-77605060D03*
X257240502Y-89605061D03*
%TD*%
D10*
%TO.P,CPG1316,1*%
%TO.N,P8*%
X167707095Y-84254248D03*
D17*
X167707095Y-84254248D03*
D10*
%TO.P,CPG1316,2*%
%TO.N,index_bottom*%
X170707097Y-84254247D03*
D17*
X170707097Y-84254247D03*
D18*
%TO.P,CPG1316,3*%
%TO.N,N/C*%
X162857095Y-75604247D03*
X162857096Y-87604248D03*
X175557096Y-75604246D03*
X175557097Y-87604247D03*
%TD*%
D10*
%TO.P,CPG1316,1*%
%TO.N,P8*%
X184221529Y-105171753D03*
D25*
X184221529Y-105171753D03*
D10*
%TO.P,CPG1316,2*%
%TO.N,home_thumb*%
X187210117Y-105433216D03*
D25*
X187210117Y-105433216D03*
D26*
%TO.P,CPG1316,3*%
%TO.N,N/C*%
X180143886Y-96131957D03*
X179098015Y-108086296D03*
X192795557Y-97238838D03*
X191749686Y-109193177D03*
%TD*%
D10*
%TO.P,CPG1316,1*%
%TO.N,P7*%
X302002531Y-67428825D03*
D19*
X302002531Y-67428825D03*
D10*
%TO.P,CPG1316,2*%
%TO.N,mirror_ring_home*%
X304995221Y-67638095D03*
D19*
X304995221Y-67638095D03*
D20*
%TO.P,CPG1316,3*%
%TO.N,N/C*%
X297767738Y-58461576D03*
X296930663Y-70432346D03*
X310436801Y-59347482D03*
X309599726Y-71318252D03*
%TD*%
D10*
%TO.P,CPG1316,1*%
%TO.N,P6*%
X130916522Y-50678683D03*
D23*
X130916522Y-50678683D03*
D10*
%TO.P,CPG1316,2*%
%TO.N,ring_top*%
X133909210Y-50469417D03*
D23*
X133909210Y-50469417D03*
D24*
%TO.P,CPG1316,3*%
%TO.N,N/C*%
X125474942Y-42388078D03*
X126312018Y-54358846D03*
X138144006Y-41502168D03*
X138981082Y-53472936D03*
%TD*%
D10*
%TO.P,CPG1316,1*%
%TO.N,P5*%
X111535095Y-64777451D03*
D15*
X111535095Y-64777451D03*
D10*
%TO.P,CPG1316,2*%
%TO.N,pinky_top*%
X114498155Y-64308146D03*
D15*
X114498155Y-64308146D03*
D16*
%TO.P,CPG1316,3*%
%TO.N,N/C*%
X105391645Y-56992655D03*
X107268858Y-68844914D03*
X117935286Y-55005940D03*
X119812499Y-66858199D03*
%TD*%
D10*
%TO.P,CPG1316,1*%
%TO.N,P4*%
X94744403Y-67436835D03*
D15*
X94744403Y-67436835D03*
D10*
%TO.P,CPG1316,2*%
%TO.N,outer_top*%
X97707463Y-66967530D03*
D15*
X97707463Y-66967530D03*
D16*
%TO.P,CPG1316,3*%
%TO.N,N/C*%
X88600953Y-59652039D03*
X90478166Y-71504298D03*
X101144594Y-57665324D03*
X103021807Y-69517583D03*
%TD*%
D10*
%TO.P,CPG1316,1*%
%TO.N,P6*%
X283390500Y-44255069D03*
D17*
X283390500Y-44255069D03*
D10*
%TO.P,CPG1316,2*%
%TO.N,mirror_middle_top*%
X286390502Y-44255068D03*
D17*
X286390502Y-44255068D03*
D18*
%TO.P,CPG1316,3*%
%TO.N,N/C*%
X278540500Y-35605068D03*
X278540501Y-47605069D03*
X291240501Y-35605067D03*
X291240502Y-47605068D03*
%TD*%
D10*
%TO.P,CPG1316,1*%
%TO.N,P5*%
X266390504Y-50255065D03*
D17*
X266390504Y-50255065D03*
D10*
%TO.P,CPG1316,2*%
%TO.N,mirror_index_top*%
X269390506Y-50255064D03*
D17*
X269390506Y-50255064D03*
D18*
%TO.P,CPG1316,3*%
%TO.N,N/C*%
X261540504Y-41605064D03*
X261540505Y-53605065D03*
X274240505Y-41605063D03*
X274240506Y-53605064D03*
%TD*%
D10*
%TO.P,CPG1316,1*%
%TO.N,P4*%
X249390503Y-69255071D03*
D17*
X249390503Y-69255071D03*
D10*
%TO.P,CPG1316,2*%
%TO.N,mirror_inner_home*%
X252390505Y-69255070D03*
D17*
X252390505Y-69255070D03*
D18*
%TO.P,CPG1316,3*%
%TO.N,N/C*%
X244540503Y-60605070D03*
X244540504Y-72605071D03*
X257240504Y-60605069D03*
X257240505Y-72605070D03*
%TD*%
D10*
%TO.P,CPG1316,1*%
%TO.N,P5*%
X266390502Y-84255061D03*
D17*
X266390502Y-84255061D03*
D10*
%TO.P,CPG1316,2*%
%TO.N,mirror_index_bottom*%
X269390504Y-84255060D03*
D17*
X269390504Y-84255060D03*
D18*
%TO.P,CPG1316,3*%
%TO.N,N/C*%
X261540502Y-75605060D03*
X261540503Y-87605061D03*
X274240503Y-75605059D03*
X274240504Y-87605060D03*
%TD*%
D10*
%TO.P,CPG1316,1*%
%TO.N,P5*%
X114194482Y-81568149D03*
D15*
X114194482Y-81568149D03*
D10*
%TO.P,CPG1316,2*%
%TO.N,pinky_home*%
X117157542Y-81098844D03*
D15*
X117157542Y-81098844D03*
D16*
%TO.P,CPG1316,3*%
%TO.N,N/C*%
X108051032Y-73783353D03*
X109928245Y-85635612D03*
X120594673Y-71796638D03*
X122471886Y-83648897D03*
%TD*%
D10*
%TO.P,CPG1316,1*%
%TO.N,P9*%
X184707098Y-86254247D03*
D17*
X184707098Y-86254247D03*
D10*
%TO.P,CPG1316,2*%
%TO.N,inner_bottom*%
X187707100Y-86254246D03*
D17*
X187707100Y-86254246D03*
D18*
%TO.P,CPG1316,3*%
%TO.N,N/C*%
X179857098Y-77604246D03*
X179857099Y-89604247D03*
X192557099Y-77604245D03*
X192557100Y-89604246D03*
%TD*%
D10*
%TO.P,CPG1316,1*%
%TO.N,P5*%
X249887483Y-105434041D03*
D27*
X249887483Y-105434041D03*
D10*
%TO.P,CPG1316,2*%
%TO.N,mirror_home_thumb*%
X252876071Y-105172574D03*
D27*
X252876071Y-105172574D03*
D28*
%TO.P,CPG1316,3*%
%TO.N,N/C*%
X244302045Y-97239663D03*
X245347911Y-109194002D03*
X256953717Y-96132784D03*
X257999583Y-108087123D03*
%TD*%
D29*
%TO.P,D16,1*%
%TO.N,P2*%
X184557104Y-80904248D03*
%TO.P,D16,2*%
%TO.N,inner_bottom*%
X187857092Y-80904250D03*
%TD*%
D30*
%TO.P,D1,1*%
%TO.N,P2*%
X334760144Y-95242158D03*
%TO.P,D1,2*%
%TO.N,mirror_outer_bottom*%
X338019518Y-95758400D03*
%TD*%
D29*
%TO.P,D18,1*%
%TO.N,P0*%
X184557104Y-46904247D03*
%TO.P,D18,2*%
%TO.N,inner_top*%
X187857092Y-46904249D03*
%TD*%
D31*
%TO.P,D7,1*%
%TO.N,P2*%
X301040230Y-79039988D03*
%TO.P,D7,2*%
%TO.N,mirror_ring_bottom*%
X304332190Y-79270178D03*
%TD*%
D30*
%TO.P,D4,1*%
%TO.N,P2*%
X317969431Y-92582765D03*
%TO.P,D4,2*%
%TO.N,mirror_pinky_bottom*%
X321228805Y-93099007D03*
%TD*%
D32*
%TO.P,JST1,1*%
%TO.N,GND*%
X199700142Y-60776690D03*
D33*
%TO.P,JST1,2*%
%TO.N,BAT_P*%
X201700134Y-60776690D03*
%TD*%
D29*
%TO.P,D16,1*%
%TO.N,P2*%
X249240504Y-80905073D03*
%TO.P,D16,2*%
%TO.N,mirror_inner_bottom*%
X252540496Y-80905069D03*
%TD*%
D34*
%TO.P,D4,1*%
%TO.N,P2*%
X115868793Y-93098186D03*
%TO.P,D4,2*%
%TO.N,pinky_bottom*%
X119128165Y-92581958D03*
%TD*%
D29*
%TO.P,D12,1*%
%TO.N,P0*%
X283240507Y-38905060D03*
%TO.P,D12,2*%
%TO.N,mirror_middle_top*%
X286540499Y-38905056D03*
%TD*%
%TO.P,D14,1*%
%TO.N,P1*%
X266240502Y-61905059D03*
%TO.P,D14,2*%
%TO.N,mirror_index_home*%
X269540494Y-61905055D03*
%TD*%
D35*
%TO.P,D9,1*%
%TO.N,P0*%
X130393690Y-45352177D03*
%TO.P,D9,2*%
%TO.N,ring_top*%
X133685638Y-45121979D03*
%TD*%
D34*
%TO.P,D6,1*%
%TO.N,P0*%
X110550022Y-59516786D03*
%TO.P,D6,2*%
%TO.N,pinky_top*%
X113809394Y-59000558D03*
%TD*%
D36*
%TO.P,D20,1*%
%TO.N,P3*%
X184538387Y-99829043D03*
%TO.P,D20,2*%
%TO.N,home_thumb*%
X187825831Y-100116665D03*
%TD*%
D37*
%TO.P,REF\u002A\u002A,1*%
%TO.N,N/C*%
X296887607Y-36403845D03*
%TD*%
D30*
%TO.P,D3,1*%
%TO.N,P0*%
X340078908Y-61660747D03*
%TO.P,D3,2*%
%TO.N,mirror_outer_top*%
X343338282Y-62176989D03*
%TD*%
D31*
%TO.P,D8,1*%
%TO.N,P1*%
X302226086Y-62081403D03*
%TO.P,D8,2*%
%TO.N,mirror_ring_home*%
X305518046Y-62311593D03*
%TD*%
D29*
%TO.P,D13,1*%
%TO.N,P2*%
X266240507Y-78905062D03*
%TO.P,D13,2*%
%TO.N,mirror_index_bottom*%
X269540499Y-78905058D03*
%TD*%
%TO.P,D14,1*%
%TO.N,P1*%
X167557102Y-61904243D03*
%TO.P,D14,2*%
%TO.N,index_home*%
X170857090Y-61904245D03*
%TD*%
%TO.P,D15,1*%
%TO.N,P0*%
X167557100Y-44904245D03*
%TO.P,D15,2*%
%TO.N,index_top*%
X170857088Y-44904247D03*
%TD*%
D38*
%TO.P,RST1,1*%
%TO.N,RST*%
X323541846Y-49854210D03*
%TO.P,RST1,2*%
%TO.N,GND*%
X318350708Y-45942428D03*
%TD*%
D29*
%TO.P,D19,1*%
%TO.N,P3*%
X267240506Y-98905071D03*
%TO.P,D19,2*%
%TO.N,mirror_near_thumb*%
X270540498Y-98905067D03*
%TD*%
%TO.P,D17,1*%
%TO.N,P1*%
X249240498Y-63905078D03*
%TO.P,D17,2*%
%TO.N,mirror_inner_home*%
X252540490Y-63905074D03*
%TD*%
%TO.P,D18,1*%
%TO.N,P0*%
X249240503Y-46905069D03*
%TO.P,D18,2*%
%TO.N,mirror_inner_top*%
X252540495Y-46905065D03*
%TD*%
%TO.P,D11,1*%
%TO.N,P1*%
X283240502Y-55905069D03*
%TO.P,D11,2*%
%TO.N,mirror_middle_home*%
X286540494Y-55905065D03*
%TD*%
D32*
%TO.P,JST1,1*%
%TO.N,GND*%
X235300001Y-60775005D03*
D33*
%TO.P,JST1,2*%
%TO.N,BAT_P*%
X237299999Y-60774999D03*
%TD*%
D30*
%TO.P,D5,1*%
%TO.N,P1*%
X320628820Y-75792070D03*
%TO.P,D5,2*%
%TO.N,mirror_pinky_home*%
X323888194Y-76308312D03*
%TD*%
D29*
%TO.P,D19,1*%
%TO.N,P3*%
X166557110Y-98904248D03*
%TO.P,D19,2*%
%TO.N,near_thumb*%
X169857098Y-98904250D03*
%TD*%
%TO.P,D11,1*%
%TO.N,P1*%
X150557111Y-55904251D03*
%TO.P,D11,2*%
%TO.N,middle_home*%
X153857099Y-55904253D03*
%TD*%
%TO.P,D10,1*%
%TO.N,P2*%
X150557098Y-72904244D03*
%TO.P,D10,2*%
%TO.N,middle_bottom*%
X153857086Y-72904246D03*
%TD*%
D30*
%TO.P,D6,1*%
%TO.N,P0*%
X323288209Y-59001368D03*
%TO.P,D6,2*%
%TO.N,mirror_pinky_top*%
X326547583Y-59517610D03*
%TD*%
D35*
%TO.P,D8,1*%
%TO.N,P1*%
X131579552Y-62310765D03*
%TO.P,D8,2*%
%TO.N,ring_home*%
X134871500Y-62080567D03*
%TD*%
D39*
%TO.P,REF\u002A\u002A,1*%
%TO.N,P0*%
X197752098Y-41284247D03*
D40*
X198587099Y-41284256D03*
D39*
%TO.P,REF\u002A\u002A,2*%
%TO.N,P1*%
X197752099Y-43824246D03*
D40*
X198587104Y-43824257D03*
D39*
%TO.P,REF\u002A\u002A,3*%
%TO.N,P2*%
X197752103Y-46364251D03*
D40*
X198587096Y-46364250D03*
D39*
%TO.P,REF\u002A\u002A,4*%
%TO.N,P3*%
X197752096Y-48904244D03*
D40*
X198587103Y-48904252D03*
D39*
%TO.P,REF\u002A\u002A,5*%
%TO.N,P4*%
X197752097Y-51444252D03*
D40*
X198587104Y-51444253D03*
D39*
%TO.P,REF\u002A\u002A,6*%
%TO.N,P5*%
X197752102Y-53984264D03*
D40*
X198587104Y-53984250D03*
D39*
%TO.P,REF\u002A\u002A,7*%
%TO.N,P6*%
X197752099Y-56524255D03*
D40*
X198587104Y-56524253D03*
%TO.P,REF\u002A\u002A,8*%
%TO.N,P7*%
X213827101Y-56524248D03*
D41*
X214662102Y-56524257D03*
D40*
%TO.P,REF\u002A\u002A,9*%
%TO.N,P8*%
X213827096Y-53984247D03*
D41*
X214662101Y-53984258D03*
D40*
%TO.P,REF\u002A\u002A,10*%
%TO.N,P9*%
X213827104Y-51444254D03*
D41*
X214662097Y-51444253D03*
D40*
%TO.P,REF\u002A\u002A,11*%
%TO.N,P10*%
X213827097Y-48904252D03*
D41*
X214662104Y-48904260D03*
D40*
%TO.P,REF\u002A\u002A,12*%
%TO.N,VCC33*%
X213827096Y-46364251D03*
D41*
X214662103Y-46364252D03*
D40*
%TO.P,REF\u002A\u002A,13*%
%TO.N,GND*%
X213827096Y-43824254D03*
D41*
X214662098Y-43824240D03*
D40*
%TO.P,REF\u002A\u002A,14*%
%TO.N,VCC5*%
X213827096Y-41284251D03*
D41*
X214662101Y-41284249D03*
D42*
%TO.P,REF\u002A\u002A,15*%
%TO.N,RAW*%
X201207100Y-48590751D03*
%TO.P,REF\u002A\u002A,16*%
%TO.N,GND*%
X201207094Y-46685757D03*
D38*
%TO.P,REF\u002A\u002A,19*%
%TO.N,DIO*%
X204882097Y-40335756D03*
%TO.P,REF\u002A\u002A,20*%
%TO.N,CLK*%
X207422102Y-40335749D03*
%TO.P,REF\u002A\u002A,21*%
%TO.N,RST*%
X204882097Y-42875757D03*
%TO.P,REF\u002A\u002A,22*%
%TO.N,GND*%
X207422096Y-42875750D03*
%TD*%
D34*
%TO.P,D3,1*%
%TO.N,P0*%
X93759316Y-62176173D03*
%TO.P,D3,2*%
%TO.N,outer_top*%
X97018688Y-61659945D03*
%TD*%
%TO.P,D5,1*%
%TO.N,P1*%
X113209410Y-76307486D03*
%TO.P,D5,2*%
%TO.N,pinky_home*%
X116468782Y-75791258D03*
%TD*%
D29*
%TO.P,D10,1*%
%TO.N,P2*%
X283240503Y-72905069D03*
%TO.P,D10,2*%
%TO.N,mirror_middle_bottom*%
X286540495Y-72905065D03*
%TD*%
D43*
%TO.P,D21,1*%
%TO.N,P3*%
X229984546Y-105101930D03*
%TO.P,D21,2*%
%TO.N,mirror_far_thumb*%
X233085526Y-103973264D03*
%TD*%
D44*
%TO.P,PWR1,*%
%TO.N,*%
X170098039Y-38240901D03*
X163195757Y-35864255D03*
X163915257Y-33774660D03*
X170817542Y-36151303D03*
D45*
%TO.P,PWR1,1*%
%TO.N,N/C*%
X168562699Y-38399701D03*
%TO.P,PWR1,2*%
%TO.N,RAW*%
X165726132Y-37422986D03*
%TO.P,PWR1,3*%
%TO.N,BAT_P*%
X164307862Y-36934640D03*
%TD*%
D29*
%TO.P,D13,1*%
%TO.N,P2*%
X167557106Y-78904249D03*
%TO.P,D13,2*%
%TO.N,index_bottom*%
X170857094Y-78904251D03*
%TD*%
D38*
%TO.P,RST1,1*%
%TO.N,RST*%
X118746888Y-45941607D03*
%TO.P,RST1,2*%
%TO.N,GND*%
X113555750Y-49853401D03*
%TD*%
D39*
%TO.P,REF\u002A\u002A,1*%
%TO.N,P0*%
X222435492Y-41285064D03*
D40*
X223270500Y-41285060D03*
D39*
%TO.P,REF\u002A\u002A,2*%
%TO.N,P1*%
X222435496Y-43825065D03*
D40*
X223270497Y-43825066D03*
D39*
%TO.P,REF\u002A\u002A,3*%
%TO.N,P2*%
X222435492Y-46365063D03*
D40*
X223270499Y-46365059D03*
D39*
%TO.P,REF\u002A\u002A,4*%
%TO.N,P3*%
X222435492Y-48905058D03*
D40*
X223270494Y-48905062D03*
D39*
%TO.P,REF\u002A\u002A,5*%
%TO.N,P4*%
X222435496Y-51445067D03*
D40*
X223270492Y-51445060D03*
D39*
%TO.P,REF\u002A\u002A,6*%
%TO.N,P5*%
X222435499Y-53985064D03*
D40*
X223270495Y-53985060D03*
D39*
%TO.P,REF\u002A\u002A,7*%
%TO.N,P6*%
X222435493Y-56525062D03*
D40*
X223270495Y-56525057D03*
%TO.P,REF\u002A\u002A,8*%
%TO.N,P7*%
X238510492Y-56525062D03*
D41*
X239345500Y-56525058D03*
D40*
%TO.P,REF\u002A\u002A,9*%
%TO.N,P8*%
X238510495Y-53985056D03*
D41*
X239345496Y-53985057D03*
D40*
%TO.P,REF\u002A\u002A,10*%
%TO.N,P9*%
X238510493Y-51445063D03*
D41*
X239345500Y-51445059D03*
D40*
%TO.P,REF\u002A\u002A,11*%
%TO.N,P10*%
X238510498Y-48905060D03*
D41*
X239345500Y-48905064D03*
D40*
%TO.P,REF\u002A\u002A,12*%
%TO.N,VCC33*%
X238510500Y-46365062D03*
D41*
X239345496Y-46365055D03*
D40*
%TO.P,REF\u002A\u002A,13*%
%TO.N,GND*%
X238510497Y-43825062D03*
D41*
X239345493Y-43825058D03*
D40*
%TO.P,REF\u002A\u002A,14*%
%TO.N,VCC5*%
X238510497Y-41285065D03*
D41*
X239345499Y-41285060D03*
D42*
%TO.P,REF\u002A\u002A,15*%
%TO.N,RAW*%
X225890500Y-48591559D03*
%TO.P,REF\u002A\u002A,16*%
%TO.N,GND*%
X225890492Y-46686564D03*
D38*
%TO.P,REF\u002A\u002A,19*%
%TO.N,DIO*%
X229565495Y-40336560D03*
%TO.P,REF\u002A\u002A,20*%
%TO.N,CLK*%
X232105504Y-40336563D03*
%TO.P,REF\u002A\u002A,21*%
%TO.N,RST*%
X229565490Y-42876564D03*
%TO.P,REF\u002A\u002A,22*%
%TO.N,GND*%
X232105491Y-42876564D03*
%TD*%
D37*
%TO.P,REF\u002A\u002A,1*%
%TO.N,N/C*%
X140129696Y-36388690D03*
%TD*%
%TO.P,REF\u002A\u002A,1*%
%TO.N,N/C*%
X151103411Y-93687780D03*
%TD*%
D34*
%TO.P,D2,1*%
%TO.N,P1*%
X96418708Y-78966868D03*
%TO.P,D2,2*%
%TO.N,outer_home*%
X99678080Y-78450640D03*
%TD*%
D46*
%TO.P,D21,1*%
%TO.N,P3*%
X204012077Y-103972438D03*
%TO.P,D21,2*%
%TO.N,far_thumb*%
X207113057Y-105101112D03*
%TD*%
D29*
%TO.P,D17,1*%
%TO.N,P1*%
X184557106Y-63904243D03*
%TO.P,D17,2*%
%TO.N,inner_home*%
X187857094Y-63904245D03*
%TD*%
D47*
%TO.P,PWR1,*%
%TO.N,*%
X266847849Y-38257965D03*
X273750137Y-35881321D03*
X273030637Y-33791728D03*
X266128337Y-36168376D03*
D48*
%TO.P,PWR1,1*%
%TO.N,N/C*%
X272638026Y-36951707D03*
%TO.P,PWR1,2*%
%TO.N,RAW*%
X269801483Y-37928406D03*
%TO.P,PWR1,3*%
%TO.N,BAT_P*%
X268383199Y-38416756D03*
%TD*%
D35*
%TO.P,D7,1*%
%TO.N,P2*%
X132765406Y-79269363D03*
%TO.P,D7,2*%
%TO.N,ring_bottom*%
X136057354Y-79039165D03*
%TD*%
D34*
%TO.P,D1,1*%
%TO.N,P2*%
X99078085Y-95757575D03*
%TO.P,D1,2*%
%TO.N,outer_bottom*%
X102337457Y-95241347D03*
%TD*%
D31*
%TO.P,D9,1*%
%TO.N,P0*%
X303411954Y-45122802D03*
%TO.P,D9,2*%
%TO.N,mirror_ring_top*%
X306703914Y-45352992D03*
%TD*%
D29*
%TO.P,D15,1*%
%TO.N,P0*%
X266240497Y-44905066D03*
%TO.P,D15,2*%
%TO.N,mirror_index_top*%
X269540489Y-44905062D03*
%TD*%
D49*
%TO.P,D20,1*%
%TO.N,P3*%
X249271773Y-100117473D03*
%TO.P,D20,2*%
%TO.N,mirror_home_thumb*%
X252559227Y-99829859D03*
%TD*%
D29*
%TO.P,D12,1*%
%TO.N,P0*%
X150557114Y-38904250D03*
%TO.P,D12,2*%
%TO.N,middle_top*%
X153857102Y-38904252D03*
%TD*%
D37*
%TO.P,REF\u002A\u002A,1*%
%TO.N,N/C*%
X285881604Y-93686124D03*
%TD*%
D30*
%TO.P,D2,1*%
%TO.N,P1*%
X337419527Y-78451456D03*
%TO.P,D2,2*%
%TO.N,mirror_outer_home*%
X340678901Y-78967698D03*
%TD*%
D10*
%TO.P,CPG1316,1*%
%TO.N,P7*%
X150707099Y-44254257D03*
D17*
X150707099Y-44254257D03*
D10*
%TO.P,CPG1316,2*%
%TO.N,middle_top*%
X153707101Y-44254256D03*
D17*
X153707101Y-44254256D03*
D18*
%TO.P,CPG1316,3*%
%TO.N,N/C*%
X145857099Y-35604256D03*
X145857100Y-47604257D03*
X158557100Y-35604255D03*
X158557101Y-47604256D03*
%TD*%
D10*
%TO.P,CPG1316,1*%
%TO.N,P8*%
X167707098Y-67254254D03*
D17*
X167707098Y-67254254D03*
D10*
%TO.P,CPG1316,2*%
%TO.N,index_home*%
X170707100Y-67254253D03*
D17*
X170707100Y-67254253D03*
D18*
%TO.P,CPG1316,3*%
%TO.N,N/C*%
X162857098Y-58604253D03*
X162857099Y-70604254D03*
X175557099Y-58604252D03*
X175557100Y-70604253D03*
%TD*%
D10*
%TO.P,CPG1316,1*%
%TO.N,P9*%
X336730746Y-83759053D03*
D11*
X336730746Y-83759053D03*
D10*
%TO.P,CPG1316,2*%
%TO.N,mirror_outer_home*%
X339693815Y-84228357D03*
D11*
X339693815Y-84228357D03*
D12*
%TO.P,CPG1316,3*%
%TO.N,N/C*%
X333293617Y-74456846D03*
X331416406Y-86309102D03*
X345837258Y-76443560D03*
X343960047Y-88295816D03*
%TD*%
D50*
%TO.N,outer_bottom*%
X103522688Y-95053622D03*
%TO.N,outer_home*%
X100863297Y-78262918D03*
%TO.N,outer_top*%
X98203916Y-61472213D03*
%TO.N,pinky_bottom*%
X120313385Y-92394238D03*
%TO.N,pinky_home*%
X117654007Y-75603534D03*
%TO.N,pinky_top*%
X114994621Y-58812840D03*
%TO.N,ring_bottom*%
X137254443Y-78955454D03*
%TO.N,ring_home*%
X136068586Y-61996870D03*
%TO.N,ring_top*%
X134882719Y-45038271D03*
%TO.N,middle_bottom*%
X155057102Y-72904252D03*
%TO.N,middle_home*%
X155057100Y-55904249D03*
%TO.N,middle_top*%
X155057097Y-38904248D03*
%TO.N,index_bottom*%
X172057099Y-78904245D03*
%TO.N,index_home*%
X172057109Y-61904246D03*
%TO.N,index_top*%
X172057100Y-44904248D03*
%TO.N,inner_bottom*%
X189057099Y-80904247D03*
%TO.N,inner_home*%
X189057101Y-63904254D03*
%TO.N,inner_top*%
X189057101Y-46904248D03*
%TO.N,near_thumb*%
X171057094Y-98904254D03*
%TO.N,home_thumb*%
X189021258Y-100221239D03*
%TO.N,far_thumb*%
X208240694Y-105511540D03*
%TO.N,P2*%
X131568330Y-79353068D03*
X299843162Y-78956272D03*
X282040512Y-72905069D03*
X97892865Y-95945296D03*
X265040503Y-78905068D03*
X333574921Y-95054440D03*
X183357102Y-80904243D03*
X114683560Y-93285910D03*
X166357095Y-78904240D03*
X316784217Y-92395049D03*
X149357096Y-72904248D03*
X248040500Y-80905067D03*
%TO.N,P1*%
X183357098Y-63904239D03*
X149357097Y-55904251D03*
X319443596Y-75604357D03*
X130382468Y-62394487D03*
X282040498Y-55905063D03*
X112024176Y-76495210D03*
X336234302Y-78263740D03*
X265040506Y-61905070D03*
X301029021Y-61997688D03*
X95233475Y-79154595D03*
X248040501Y-63905072D03*
X166357100Y-61904248D03*
%TO.N,P0*%
X322102991Y-58813654D03*
X183357107Y-46904253D03*
X92574089Y-62363893D03*
X149357098Y-38904253D03*
X265040490Y-44905070D03*
X248040511Y-46905067D03*
X282040497Y-38905062D03*
X129196613Y-45435891D03*
X338893694Y-61473040D03*
X166357090Y-44904240D03*
X109364792Y-59704512D03*
X302214877Y-45039099D03*
%TO.N,P3*%
X165357097Y-98904242D03*
X202884450Y-103562031D03*
X248076338Y-100222068D03*
X183342956Y-99724456D03*
X228856912Y-105512358D03*
X266040497Y-98905067D03*
%TO.N,GND*%
X235055893Y-51581772D03*
%TO.N,RAW*%
X246955897Y-42381763D03*
%TO.N,BAT_P*%
X247805896Y-42431771D03*
X235855893Y-51581766D03*
X205150133Y-50701691D03*
%TO.N,mirror_outer_bottom*%
X339204744Y-95946119D03*
%TO.N,mirror_outer_home*%
X341864121Y-79155419D03*
%TO.N,mirror_outer_top*%
X344523508Y-62364720D03*
%TO.N,mirror_pinky_bottom*%
X322414039Y-93286738D03*
%TO.N,mirror_pinky_home*%
X325073429Y-76496024D03*
%TO.N,mirror_pinky_top*%
X327732803Y-59705337D03*
%TO.N,mirror_ring_bottom*%
X305529270Y-79353889D03*
%TO.N,mirror_ring_home*%
X306715132Y-62395296D03*
%TO.N,mirror_ring_top*%
X307900999Y-45436711D03*
%TO.N,mirror_middle_bottom*%
X287740502Y-72905059D03*
%TO.N,mirror_middle_home*%
X287740499Y-55905062D03*
%TO.N,mirror_middle_top*%
X287740498Y-38905075D03*
%TO.N,mirror_index_bottom*%
X270740504Y-78905067D03*
%TO.N,mirror_index_home*%
X270740504Y-61905061D03*
%TO.N,mirror_index_top*%
X270740510Y-44905057D03*
%TO.N,mirror_inner_bottom*%
X253740502Y-80905072D03*
%TO.N,mirror_inner_home*%
X253740503Y-63905065D03*
%TO.N,mirror_inner_top*%
X253740504Y-46905063D03*
%TO.N,mirror_near_thumb*%
X271740502Y-98905069D03*
%TO.N,mirror_home_thumb*%
X253754648Y-99725271D03*
%TO.N,mirror_far_thumb*%
X234213167Y-103562850D03*
%TD*%
D51*
%TO.N,P8*%
X167707095Y-84254248D02*
X166677695Y-84254248D01*
X166677695Y-84254248D02*
X165726724Y-83303277D01*
X167707108Y-50254251D02*
X167322583Y-50254251D01*
X167322583Y-50254251D02*
X165408418Y-52168416D01*
X323903758Y-66104212D02*
X323772453Y-66933230D01*
X323772453Y-66933230D02*
X321735292Y-79795361D01*
X321735292Y-79795361D02*
X321735286Y-79795366D01*
%TO.N,P4*%
X250505893Y-85139668D02*
X250505893Y-83690003D01*
X250505893Y-83690003D02*
X250505896Y-83690000D01*
X250605889Y-68039686D02*
X250605889Y-53031775D01*
X250605889Y-53031775D02*
X250605892Y-53031772D01*
X231955306Y-110077994D02*
X232299184Y-111022790D01*
X232299184Y-111022790D02*
X233167302Y-111427600D01*
%TO.N,P5*%
X264205893Y-70610000D02*
X264205902Y-82790000D01*
X266390503Y-85255074D02*
X267717715Y-86582283D01*
X270230897Y-86925000D02*
X270705896Y-87399998D01*
X264205891Y-52940001D02*
X264205895Y-65080000D01*
X264205898Y-69439666D02*
X264205893Y-70610000D01*
X266380957Y-67255064D02*
X266390499Y-67255063D01*
X266390499Y-67255063D02*
X264205898Y-69439666D01*
X264205895Y-65080000D02*
X266380957Y-67255064D01*
X255387768Y-105117111D02*
X253946498Y-106834750D01*
X265670967Y-84255063D02*
X266390507Y-84255063D01*
X269105899Y-102131777D02*
X268605894Y-102631772D01*
X266390507Y-84255063D02*
X266390503Y-85255074D01*
X267717715Y-86582283D02*
X268060430Y-86925000D01*
X268060430Y-86925000D02*
X270230897Y-86925000D01*
X270705896Y-87399998D02*
X270705898Y-95731770D01*
X270705898Y-95731770D02*
X269105891Y-97331759D01*
X269105891Y-97331759D02*
X269105899Y-102131777D01*
X264205902Y-82790000D02*
X265670967Y-84255063D01*
X258382569Y-104855099D02*
X255387768Y-105117111D01*
X264205891Y-52439682D02*
X264205891Y-52940001D01*
X249974774Y-106431777D02*
X249887482Y-105434041D01*
X268605894Y-102631772D02*
X260605894Y-102631774D01*
X266390504Y-50255068D02*
X264205891Y-52439682D01*
X260605894Y-102631774D02*
X258382569Y-104855099D01*
X253946498Y-106834750D02*
X250784683Y-107111374D01*
X250784683Y-107111374D02*
X249974774Y-106431777D01*
%TO.N,P4*%
X260405892Y-102181777D02*
X268405899Y-102181767D01*
X240089868Y-107634286D02*
X246515333Y-107072126D01*
X268705896Y-101881772D02*
X268705898Y-97166085D01*
X268705898Y-97166085D02*
X270305895Y-95566085D01*
X233167302Y-111427600D02*
X237161000Y-109974011D01*
X268405899Y-102181767D02*
X268705896Y-101881772D01*
X254941886Y-104714136D02*
X258154613Y-104433058D01*
X254455894Y-87781782D02*
X249917203Y-87781777D01*
X246515333Y-107072126D02*
X247106210Y-106367944D01*
X237876354Y-108439933D02*
X240089868Y-107634286D01*
X249682747Y-103833743D02*
X253495172Y-103500200D01*
X247106210Y-106367944D02*
X246958037Y-104674410D01*
X246958037Y-104674410D02*
X247503466Y-104024409D01*
X253495172Y-103500200D02*
X254941886Y-104714136D01*
X258154613Y-104433058D02*
X260405892Y-102181777D01*
X270305895Y-95566085D02*
X270305902Y-87649998D01*
X237161000Y-109974011D02*
X237876354Y-108439933D01*
X270305902Y-87649998D02*
X269980903Y-87325001D01*
X269980903Y-87325001D02*
X265475001Y-87325000D01*
X265475001Y-87325000D02*
X263731767Y-85581767D01*
X247503466Y-104024409D02*
X249682747Y-103833743D01*
X263731767Y-85581767D02*
X263724998Y-85581765D01*
X263724998Y-85581765D02*
X256655897Y-85581771D01*
X256655897Y-85581771D02*
X254455894Y-87781782D01*
X249917203Y-87781777D02*
X249390501Y-87255076D01*
X249390501Y-87255076D02*
X249390499Y-86255065D01*
X249390499Y-86255065D02*
X250505893Y-85139668D01*
%TO.N,P9*%
X336730748Y-83759053D02*
X337868825Y-85325482D01*
X337868825Y-85325482D02*
X335637787Y-99411686D01*
X335637787Y-99411686D02*
X334071365Y-100549758D01*
X339390134Y-66968352D02*
X340539062Y-68549716D01*
X340539062Y-68549716D02*
X338312113Y-82610125D01*
X338312113Y-82610125D02*
X336730748Y-83759053D01*
X339390134Y-66968352D02*
X339455918Y-66978774D01*
%TO.N,P8*%
X317280668Y-97890377D02*
X318618263Y-96918558D01*
X318809495Y-95711156D02*
X320725816Y-83611975D01*
X318618263Y-96918558D02*
X318809495Y-95711156D01*
X320911871Y-82437271D02*
X320725816Y-83611975D01*
X319940054Y-81099678D02*
X320911871Y-82437271D01*
X321735286Y-79795366D02*
X319940054Y-81099678D01*
X322599432Y-64308967D02*
X323903758Y-66104212D01*
%TO.N,P7*%
X302238548Y-67445330D02*
X303533145Y-66319953D01*
X302002533Y-67428824D02*
X302238548Y-67445330D01*
X303533145Y-66319953D02*
X304533280Y-52017361D01*
X304533280Y-52017361D02*
X303188390Y-50470245D01*
X302002533Y-67428824D02*
X301999912Y-67466261D01*
X301999912Y-67466261D02*
X303275217Y-68933328D01*
X303275217Y-68933328D02*
X302283740Y-83112108D01*
X302283740Y-83112108D02*
X300816667Y-84387415D01*
%TO.N,P6*%
X280855891Y-76720456D02*
X280855900Y-64920001D01*
X283390508Y-61255074D02*
X280855899Y-63789681D01*
X280855899Y-63789681D02*
X280855900Y-64920001D01*
X280855896Y-58549999D02*
X280855888Y-48780001D01*
X280855895Y-58720462D02*
X280855896Y-58549999D01*
X283390508Y-61255074D02*
X280855895Y-58720462D01*
X283390502Y-78255067D02*
X282390501Y-78255066D01*
X282390501Y-78255066D02*
X280855891Y-76720456D01*
X283370000Y-78275570D02*
X283369999Y-79640000D01*
X283390502Y-78255067D02*
X283370000Y-78275570D01*
X283369999Y-79640000D02*
X282928236Y-80081765D01*
X282928236Y-80081765D02*
X280563799Y-80081765D01*
%TO.N,P4*%
X250505888Y-71370455D02*
X250505896Y-83690000D01*
X250505888Y-71370455D02*
X250505888Y-70370456D01*
X250505888Y-70370456D02*
X249390505Y-69255071D01*
X250605889Y-68039686D02*
X249390505Y-69255071D01*
X249390496Y-52255070D02*
X249829193Y-52255069D01*
X249829193Y-52255069D02*
X250605892Y-53031772D01*
%TO.N,P6*%
X283390499Y-44255070D02*
X280855889Y-46789679D01*
X280855889Y-46789679D02*
X280855888Y-48780001D01*
X269530899Y-102456774D02*
X267732601Y-104255072D01*
X267732601Y-104255072D02*
X267390504Y-104255072D01*
%TO.N,P7*%
X164800141Y-86679999D02*
X164800141Y-86176692D01*
X164800141Y-86679999D02*
X164800142Y-95890000D01*
X164425133Y-102972287D02*
X164425135Y-98570000D01*
X164800142Y-95890000D02*
X164800142Y-98194990D01*
X164800142Y-98194990D02*
X164425135Y-98570000D01*
%TO.N,P9*%
X166850000Y-96970001D02*
X171210000Y-96969997D01*
X172669999Y-98399999D02*
X172670002Y-104629999D01*
X171210000Y-96969997D02*
X171239994Y-96970000D01*
X171239994Y-96970000D02*
X172669999Y-98399999D01*
%TO.N,P7*%
X166707103Y-104254245D02*
X165707090Y-104254248D01*
X165707090Y-104254248D02*
X164425133Y-102972287D01*
%TO.N,P9*%
X195354695Y-107937017D02*
X200610241Y-109849880D01*
X200610241Y-109849880D02*
X202323209Y-109051108D01*
X190046332Y-107472595D02*
X195354695Y-107937017D01*
%TO.N,P8*%
X184221530Y-105171752D02*
X184202104Y-105393771D01*
X184202104Y-105393771D02*
X182505782Y-106817152D01*
%TO.N,P9*%
X182720001Y-54241333D02*
X182720001Y-67267144D01*
X182720001Y-67267144D02*
X184707103Y-69254250D01*
X184707103Y-69254250D02*
X182519999Y-71441356D01*
X182519999Y-71441356D02*
X182520000Y-84067152D01*
X182520000Y-84067152D02*
X184707095Y-86254243D01*
X184707099Y-52254233D02*
X182720001Y-54241333D01*
X179349998Y-88110000D02*
X177240001Y-86000003D01*
X183659998Y-88110000D02*
X179349998Y-88110000D01*
X165600140Y-95736010D02*
X166842067Y-96977933D01*
X184707095Y-86254243D02*
X184707093Y-87062906D01*
X177240001Y-86000003D02*
X166780002Y-86000003D01*
X166780002Y-86000003D02*
X165600144Y-87179857D01*
X165600144Y-87179857D02*
X165600140Y-95736010D01*
X166842067Y-96977933D02*
X166850000Y-96970001D01*
X172670002Y-104629999D02*
X173570001Y-105529999D01*
X184707093Y-87062906D02*
X183659998Y-88110000D01*
X182343739Y-105674424D02*
X182514566Y-103721886D01*
X177809620Y-105530000D02*
X178234810Y-105955192D01*
X173570001Y-105529999D02*
X177809620Y-105530000D01*
X181652765Y-106254222D02*
X182343739Y-105674424D01*
X178234810Y-105955192D02*
X181652765Y-106254222D01*
X182514566Y-103721886D02*
X183067074Y-103258277D01*
X183067074Y-103258277D02*
X188805158Y-103760294D01*
X188805158Y-103760294D02*
X189359669Y-104421133D01*
X189359669Y-104421133D02*
X189182742Y-106443413D01*
X189182742Y-106443413D02*
X190046332Y-107472595D01*
X184707097Y-52254236D02*
X184707100Y-53258646D01*
X184707100Y-53258646D02*
X185600138Y-54151688D01*
%TO.N,P4*%
X97777473Y-100231618D02*
X95629474Y-86669656D01*
X95629474Y-86669656D02*
X97403775Y-84227539D01*
X98442575Y-100714845D02*
X97777473Y-100231618D01*
X100063174Y-101018246D02*
X99075489Y-101174680D01*
X99075489Y-101174680D02*
X98442575Y-100714845D01*
X92942092Y-69917498D02*
X94927863Y-82455171D01*
X97403775Y-84227539D02*
X97373843Y-84232278D01*
X97373843Y-84232278D02*
X94927863Y-82455171D01*
X94744397Y-67436835D02*
X92942092Y-69917498D01*
X94423992Y-63813352D02*
X95288596Y-62623325D01*
X94744397Y-67436835D02*
X94215869Y-64099813D01*
X94215869Y-64099813D02*
X94423992Y-63813352D01*
%TO.N,P5*%
X111535094Y-64777455D02*
X109282820Y-67877448D01*
X109282820Y-67877448D02*
X109361450Y-68373898D01*
X109361450Y-68373898D02*
X111250928Y-80303569D01*
X111250928Y-80303569D02*
X112716906Y-81368663D01*
X116853873Y-98358856D02*
X114119053Y-96371896D01*
X114119053Y-96371896D02*
X112207519Y-84302960D01*
X112207519Y-84302960D02*
X114194478Y-81568152D01*
X113206795Y-81724593D02*
X112716906Y-81368663D01*
X114194478Y-81568152D02*
X113206789Y-81724582D01*
X113206789Y-81724582D02*
X112716906Y-81368663D01*
%TO.N,P6*%
X129836951Y-65953690D02*
X128858963Y-51967822D01*
X129836951Y-65953690D02*
X131798162Y-67658548D01*
X131798162Y-67658548D02*
X132102376Y-67637272D01*
X128858963Y-51967822D02*
X129918955Y-50748445D01*
X132102376Y-67637272D02*
X130054272Y-69993351D01*
X130932160Y-82547755D02*
X130054272Y-69993351D01*
X133288236Y-84595859D02*
X130932160Y-82547755D01*
%TO.N,P4*%
X127052535Y-43717686D02*
X127407331Y-43294853D01*
X136559439Y-44011302D02*
X136699307Y-46011451D01*
X127407331Y-43294853D02*
X135115224Y-42755865D01*
X135115224Y-42755865D02*
X136559439Y-44011302D01*
%TO.N,P5*%
X155675132Y-36526690D02*
X148325141Y-36526693D01*
X119658430Y-55878006D02*
X119367487Y-56278449D01*
X194587636Y-51298501D02*
X194587636Y-42389193D01*
X194587636Y-42389193D02*
X194125138Y-41926689D01*
X178025142Y-43851694D02*
X177325143Y-43151691D01*
X181650138Y-43426692D02*
X181650140Y-44901684D01*
X194125138Y-41926689D02*
X191000145Y-41926692D01*
X177325143Y-43151691D02*
X174450141Y-43151691D01*
X182250135Y-42826687D02*
X181650138Y-43426692D01*
X196150135Y-53626691D02*
X196150135Y-52861003D01*
X144521112Y-43183941D02*
X144617032Y-44555585D01*
X127694682Y-43678869D02*
X127533825Y-43863908D01*
X127533825Y-43863908D02*
X127318895Y-44111156D01*
X196507708Y-53984262D02*
X196150135Y-53626691D01*
X119349475Y-53927316D02*
X119658430Y-55878006D01*
X181650140Y-44901684D02*
X181250142Y-45301693D01*
X136021018Y-44196031D02*
X134850469Y-43178487D01*
X164125135Y-39551688D02*
X161300132Y-39551694D01*
X181250142Y-45301693D02*
X178600136Y-45301698D01*
X178025137Y-44726694D02*
X178025142Y-43851694D01*
X174450141Y-43151691D02*
X172750138Y-41451693D01*
X196150135Y-52861003D02*
X194587636Y-51298501D01*
X145500137Y-37776684D02*
X145495484Y-37772031D01*
X191000145Y-41926692D02*
X190100135Y-42826693D01*
X144617032Y-44555585D02*
X142715033Y-46743586D01*
X190100135Y-42826693D02*
X182250135Y-42826687D01*
X165315831Y-41451688D02*
X164875141Y-41011007D01*
X157125139Y-40076683D02*
X156800141Y-39751694D01*
X142715033Y-46743586D02*
X137278300Y-47123756D01*
X178600136Y-45301698D02*
X178025137Y-44726694D01*
X197752095Y-53984256D02*
X196507708Y-53984262D01*
X172750138Y-41451693D02*
X165315831Y-41451688D01*
X164875141Y-41011007D02*
X164875139Y-40301685D01*
X136157622Y-46149561D02*
X136028221Y-44299060D01*
X145495484Y-37772031D02*
X144521114Y-38746394D01*
X164875139Y-40301685D02*
X164125135Y-39551688D01*
X161300132Y-39551694D02*
X160775144Y-40076686D01*
X160775144Y-40076686D02*
X157125139Y-40076683D01*
X156800141Y-39751694D02*
X156800149Y-37651685D01*
X156800149Y-37651685D02*
X155675132Y-36526690D01*
X147075134Y-37776690D02*
X145500137Y-37776684D01*
X125432599Y-44268123D02*
X125425088Y-44261599D01*
X148325141Y-36526693D02*
X147075134Y-37776690D01*
X144521114Y-38746394D02*
X144521112Y-43183941D01*
X125192842Y-44528762D02*
X125290968Y-45932051D01*
X137278300Y-47123756D02*
X136157622Y-46149561D01*
X136028221Y-44299060D02*
X136021018Y-44196031D01*
X134850469Y-43178487D02*
X127694682Y-43678869D01*
X127318895Y-44111156D02*
X127295698Y-44137840D01*
X127295698Y-44137840D02*
X125432599Y-44268123D01*
X125425088Y-44261599D02*
X125192842Y-44528762D01*
X125290968Y-45932051D02*
X125292717Y-45956993D01*
X125292717Y-45956993D02*
X124495635Y-46873928D01*
X124495635Y-46873928D02*
X124472895Y-46875522D01*
X124472895Y-46875522D02*
X119349475Y-53927316D01*
%TO.N,P6*%
X189625140Y-43226687D02*
X191500137Y-45101690D01*
X194150134Y-50876686D02*
X194150132Y-51426683D01*
X164400130Y-41101689D02*
X165200137Y-41901686D01*
X161087642Y-40514189D02*
X161575140Y-40026690D01*
X177575137Y-45026691D02*
X178325136Y-45776684D01*
X135777771Y-46451797D02*
X137031873Y-47541973D01*
X144939660Y-43076686D02*
X144939657Y-38962171D01*
X181425138Y-45776688D02*
X182050135Y-45151688D01*
X156862640Y-40514192D02*
X161087642Y-40514189D01*
X131746217Y-49724226D02*
X131375816Y-44427203D01*
X147275134Y-38201694D02*
X148525141Y-36951685D01*
X131898446Y-43825988D02*
X134748195Y-43626716D01*
X131375816Y-44427203D02*
X131898446Y-43825988D01*
X165200137Y-41901686D02*
X172625146Y-41901684D01*
X135634074Y-44396792D02*
X135777771Y-46451797D01*
X144939657Y-38962171D02*
X145700134Y-38201689D01*
X145053210Y-44700508D02*
X144939660Y-43076686D01*
X195700148Y-52976697D02*
X195700139Y-55251691D01*
X144589303Y-45234172D02*
X145053210Y-44700508D01*
X134748195Y-43626716D02*
X135634074Y-44396792D01*
X155450139Y-36951683D02*
X156400142Y-37901694D01*
X142942442Y-47128672D02*
X144589303Y-45234172D01*
X156400142Y-37901694D02*
X156400140Y-40051688D01*
X194150142Y-45951691D02*
X194150134Y-50876686D01*
X156400140Y-40051688D02*
X156862640Y-40514192D01*
X137031873Y-47541973D02*
X142942442Y-47128672D01*
X161575140Y-40026690D02*
X164000138Y-40026696D01*
X164000138Y-40026696D02*
X164400142Y-40426685D01*
X164400142Y-40426685D02*
X164400130Y-41101689D01*
X148525141Y-36951685D02*
X155450139Y-36951683D01*
X178325136Y-45776684D02*
X181425138Y-45776688D01*
X172625146Y-41901684D02*
X174275138Y-43551680D01*
X177125134Y-43551691D02*
X177575130Y-44001687D01*
X177575130Y-44001687D02*
X177575137Y-45026691D01*
X194150132Y-51426683D02*
X195700148Y-52976697D01*
X182050135Y-45151688D02*
X182050131Y-43651693D01*
X182050131Y-43651693D02*
X182475135Y-43226690D01*
X182475135Y-43226690D02*
X189625140Y-43226687D01*
X145700134Y-38201689D02*
X147275134Y-38201694D01*
X191500137Y-45101690D02*
X193300134Y-45101683D01*
X130916519Y-50678685D02*
X131746217Y-49724226D01*
X193300134Y-45101683D02*
X194150142Y-45951691D01*
X174275138Y-43551680D02*
X177125134Y-43551691D01*
X195950138Y-56626686D02*
X197649659Y-56626686D01*
X195700139Y-55251691D02*
X195700132Y-55251691D01*
X195700132Y-55251691D02*
X195700137Y-56376691D01*
X195700137Y-56376691D02*
X195950138Y-56626686D01*
X197649659Y-56626686D02*
X197752090Y-56524249D01*
%TO.N,P7*%
X150707103Y-44254251D02*
X150922577Y-44254252D01*
X150922577Y-44254252D02*
X151675143Y-43501691D01*
X160650140Y-79876682D02*
X163649999Y-79876681D01*
X163650002Y-79929859D02*
X164800140Y-81080005D01*
X164800140Y-81080005D02*
X164800141Y-86176692D01*
X163649999Y-79876681D02*
X163650002Y-79929859D01*
%TO.N,P8*%
X165466719Y-83043278D02*
X165726724Y-83303277D01*
X165905675Y-69055674D02*
X167707102Y-67254250D01*
X165466719Y-83043278D02*
X165466721Y-69494635D01*
X165466721Y-69494635D02*
X165905675Y-69055674D01*
X167707102Y-67254250D02*
X166707096Y-67254251D01*
X166707096Y-67254251D02*
X165325140Y-65872292D01*
X165325140Y-65872292D02*
X165325148Y-52251690D01*
X165325148Y-52251690D02*
X165408418Y-52168416D01*
%TO.N,P7*%
X149707102Y-61254241D02*
X148595669Y-62365670D01*
X150707099Y-78254247D02*
X148595669Y-76142816D01*
X148595669Y-76142816D02*
X148595669Y-62365670D01*
X150707099Y-78254247D02*
X150707100Y-79254247D01*
X150707100Y-79254247D02*
X151329543Y-79876690D01*
X149909387Y-78254246D02*
X150707099Y-78254247D01*
%TO.N,P8*%
X172225136Y-104851685D02*
X173351723Y-105978272D01*
X178150001Y-106436071D02*
X182505782Y-106817152D01*
X173351723Y-105978272D02*
X177692208Y-105978274D01*
X177692208Y-105978274D02*
X178150001Y-106436071D01*
X165200143Y-86976685D02*
X165200146Y-95919996D01*
X165200146Y-95919996D02*
X165218444Y-95919998D01*
X165218444Y-95919998D02*
X166700134Y-97401687D01*
X166700134Y-97401687D02*
X171025139Y-97401685D01*
X167707095Y-84254246D02*
X167707091Y-84469732D01*
X171025139Y-97401685D02*
X171025133Y-97401686D01*
X171025133Y-97401686D02*
X172225133Y-98601692D01*
X172225133Y-98601692D02*
X172225135Y-100651694D01*
X172225135Y-100651694D02*
X172225136Y-104851685D01*
X167707091Y-84469732D02*
X165200143Y-86976685D01*
X168975134Y-47579997D02*
X168975139Y-44401690D01*
X167707107Y-50254253D02*
X168975139Y-48986219D01*
X168975139Y-48986219D02*
X168975134Y-47579997D01*
X167707107Y-50254253D02*
X167322581Y-50254252D01*
%TO.N,P7*%
X150707093Y-61254242D02*
X149707102Y-61254241D01*
X150707093Y-61254242D02*
X148639999Y-59187145D01*
X148639999Y-59187145D02*
X148639999Y-46321352D01*
X148639999Y-46321352D02*
X150707103Y-44254251D01*
%TO.N,P4*%
X111624644Y-57732594D02*
X112040273Y-57160526D01*
X165275139Y-40801690D02*
X165450138Y-40976690D01*
X189750133Y-42376688D02*
X190625132Y-41501691D01*
X194975141Y-42201696D02*
X195000138Y-42226685D01*
X112040273Y-57160526D02*
X113793417Y-56882868D01*
X137473112Y-46684105D02*
X142435988Y-46337067D01*
X159500134Y-39676697D02*
X160550133Y-39676688D01*
X145375136Y-37326691D02*
X146900133Y-37326689D01*
X113793417Y-56882868D02*
X115913114Y-53965349D01*
X177275135Y-40751694D02*
X178450136Y-41926693D01*
X190625132Y-41501691D02*
X194275139Y-41501684D01*
X157525142Y-37651692D02*
X158825144Y-37651688D01*
X146900133Y-37326689D02*
X148100140Y-36126690D01*
X156000135Y-36126684D02*
X157525142Y-37651692D01*
X95288596Y-62623325D02*
X95073498Y-61265255D01*
X178450136Y-41926693D02*
X180925140Y-41926692D01*
X176600143Y-40076693D02*
X177275135Y-40751687D01*
X195000138Y-42226685D02*
X195000138Y-51145320D01*
X136699307Y-46011451D02*
X137473112Y-46684105D01*
X195000138Y-51145320D02*
X195581509Y-51726692D01*
X124793984Y-45726128D02*
X124678153Y-44402235D01*
X174275137Y-40076694D02*
X176600143Y-40076693D01*
X159325140Y-38151687D02*
X159325143Y-39501695D01*
X160550133Y-39676688D02*
X161075138Y-39151690D01*
X124227628Y-46401078D02*
X124793984Y-45726128D01*
X95073498Y-61265255D02*
X95821627Y-60235554D01*
X165275135Y-40076686D02*
X165275139Y-40801690D01*
X164350139Y-39151683D02*
X165275135Y-40076686D01*
X194275139Y-41501684D02*
X194975141Y-42201696D01*
X144118601Y-43161954D02*
X144118607Y-38583224D01*
X180925140Y-41926692D02*
X181375138Y-42376697D01*
X181375138Y-42376697D02*
X189750133Y-42376688D01*
X95821627Y-60235554D02*
X111624644Y-57732594D01*
X173375141Y-40976697D02*
X174275137Y-40076694D01*
X115913114Y-53965349D02*
X119098412Y-53460848D01*
X195581509Y-51726692D02*
X197469661Y-51726696D01*
X197469661Y-51726696D02*
X197752100Y-51444248D01*
X119098412Y-53460848D02*
X124227628Y-46401078D01*
X124678153Y-44402235D02*
X125109956Y-43887641D01*
X177275135Y-40751687D02*
X177275135Y-40751694D01*
X148100140Y-36126690D02*
X156000135Y-36126684D01*
X249829189Y-52255068D02*
X250605892Y-53031772D01*
X158825144Y-37651688D02*
X159325140Y-38151687D01*
X142435988Y-46337067D02*
X144198828Y-44309154D01*
X125109956Y-43887641D02*
X127052535Y-43717686D01*
X144198828Y-44309154D02*
X144118601Y-43161954D01*
X144118607Y-38583224D02*
X145375136Y-37326691D01*
X197092698Y-51444248D02*
X197752094Y-51444247D01*
X165450138Y-40976690D02*
X173375141Y-40976697D01*
X159325143Y-39501695D02*
X159500134Y-39676697D01*
X161075138Y-39151690D02*
X164350139Y-39151683D01*
%TO.N,outer_bottom*%
X103026238Y-100548947D02*
X102212773Y-95412957D01*
D52*
X102337455Y-95241341D02*
X103522688Y-95053622D01*
D51*
X102212773Y-95412957D02*
X102337463Y-95241340D01*
%TO.N,outer_home*%
X99553386Y-78622259D02*
X99678079Y-78450638D01*
D52*
X99678073Y-78450629D02*
X100863297Y-78262918D01*
D51*
X100366843Y-83758232D02*
X99553386Y-78622259D01*
D52*
%TO.N,outer_top*%
X97018688Y-61659937D02*
X98203916Y-61472213D01*
D51*
X96894004Y-61831545D02*
X97018688Y-61659937D01*
X97707468Y-66967534D02*
X96894004Y-61831545D01*
%TO.N,P5*%
X119284366Y-56392859D02*
X119367487Y-56278449D01*
X111841967Y-58305651D02*
X112351107Y-57604879D01*
X112351107Y-57604879D02*
X119190845Y-56521565D01*
X112025371Y-64699807D02*
X112706262Y-63762631D01*
X119190845Y-56521565D02*
X119367487Y-56278449D01*
X112706262Y-63762631D02*
X111841967Y-58305651D01*
%TO.N,pinky_bottom*%
X119816934Y-97889549D02*
X119941623Y-97717929D01*
X119941623Y-97717929D02*
X119128166Y-92581949D01*
D52*
X119128160Y-92581957D02*
X120313385Y-92394238D01*
D51*
%TO.N,pinky_home*%
X116344084Y-75962879D02*
X116468783Y-75791252D01*
X117157544Y-81098846D02*
X116344084Y-75962879D01*
D52*
X116468772Y-75791253D02*
X117654007Y-75603534D01*
D51*
%TO.N,pinky_top*%
X113684709Y-59172184D02*
X113809395Y-59000560D01*
D52*
X113809390Y-59000551D02*
X114994621Y-58812840D01*
D51*
X114498158Y-64308153D02*
X113684709Y-59172184D01*
%TO.N,P6*%
X271155894Y-95531774D02*
X271155895Y-87131764D01*
X274705899Y-81331771D02*
X275955878Y-80081771D01*
X196972696Y-56524246D02*
X197752101Y-56524242D01*
X269530899Y-102456774D02*
X269530898Y-97472451D01*
X271155895Y-87131764D02*
X272355890Y-85931771D01*
X275955878Y-80081771D02*
X280563799Y-80081765D01*
X269530898Y-97472451D02*
X271155898Y-95847450D01*
X129918955Y-50748445D02*
X131157711Y-50661816D01*
X273655896Y-85931766D02*
X274705892Y-84881771D01*
X198587102Y-56524249D02*
X197472698Y-56524252D01*
X272355890Y-85931771D02*
X273655896Y-85931766D01*
X271155898Y-95847450D02*
X271155894Y-95531774D01*
X274705892Y-84881771D02*
X274705899Y-81331771D01*
%TO.N,ring_bottom*%
X135918195Y-79199255D02*
X136057357Y-79039168D01*
D52*
X136057368Y-79039163D02*
X137254443Y-78955454D01*
D51*
X136280931Y-84386589D02*
X135918195Y-79199255D01*
%TO.N,ring_home*%
X134732337Y-62240662D02*
X134871494Y-62080575D01*
X135095066Y-67428004D02*
X134732337Y-62240662D01*
D52*
X134871505Y-62080575D02*
X136068586Y-61996870D01*
%TO.N,ring_top*%
X133685651Y-45121984D02*
X134882719Y-45038271D01*
D51*
X133546474Y-45282077D02*
X133685640Y-45121984D01*
X133909210Y-50469419D02*
X133546474Y-45282077D01*
%TO.N,P7*%
X182725138Y-43626688D02*
X189425136Y-43626699D01*
X159625140Y-40926695D02*
X160500130Y-41801689D01*
X160500130Y-41801689D02*
X160500132Y-42551686D01*
X165707099Y-104254244D02*
X164425133Y-102972287D01*
X165100142Y-42301686D02*
X172459455Y-42301687D01*
X151675146Y-38026695D02*
X152250140Y-37451686D01*
X151675143Y-43501691D02*
X151675142Y-38101689D01*
X193025143Y-45526692D02*
X193650138Y-46151694D01*
X161300136Y-43351693D02*
X164050140Y-43351689D01*
X181637633Y-46189200D02*
X174487635Y-46189189D01*
X173729794Y-43572031D02*
X173725139Y-43576686D01*
X164050140Y-43351689D02*
X165100142Y-42301686D01*
X173725139Y-43576686D02*
X173725136Y-45426693D01*
X191325137Y-45526688D02*
X193025143Y-45526692D01*
X155950136Y-40251691D02*
X156625138Y-40926690D01*
X182450140Y-45376688D02*
X182450140Y-43901695D01*
X160500132Y-42551686D02*
X161300136Y-43351693D01*
X152250140Y-37451686D02*
X155250133Y-37451690D01*
X155950143Y-38151684D02*
X155950136Y-40251691D01*
X195275137Y-53151693D02*
X195275135Y-56751689D01*
X156625138Y-40926690D02*
X159625140Y-40926695D01*
X189425136Y-43626699D02*
X191325137Y-45526688D01*
X196375140Y-57851685D02*
X212499653Y-57851694D01*
X182450140Y-43901695D02*
X182725138Y-43626688D01*
X181725137Y-46101688D02*
X181637633Y-46189200D01*
X173725136Y-45426693D02*
X174487635Y-46189189D01*
X181725137Y-46101688D02*
X182450140Y-45376688D01*
X193650138Y-46151694D02*
X193650133Y-51526689D01*
X151329543Y-79876690D02*
X160650140Y-79876682D01*
X212499653Y-57851694D02*
X213827102Y-56524243D01*
X155250133Y-37451690D02*
X155950143Y-38151684D01*
X195275135Y-56751689D02*
X196375140Y-57851685D01*
X172459455Y-42301687D02*
X173729794Y-43572031D01*
X151675142Y-38101689D02*
X151675146Y-38026695D01*
X193650133Y-51526689D02*
X195275137Y-53151693D01*
%TO.N,middle_bottom*%
X153857089Y-72904244D02*
X153857086Y-78104260D01*
X153857086Y-78104260D02*
X153707099Y-78254250D01*
D52*
X153857107Y-72904242D02*
X155057102Y-72904252D01*
D51*
%TO.N,middle_home*%
X153707096Y-56054256D02*
X153707093Y-61254242D01*
D52*
X153857095Y-55904242D02*
X155057100Y-55904249D01*
D51*
X153857101Y-55904250D02*
X153707096Y-56054256D01*
%TO.N,middle_top*%
X153707097Y-39054249D02*
X153857103Y-38904249D01*
D52*
X153857098Y-38904249D02*
X155057097Y-38904248D01*
D51*
X153707094Y-44254248D02*
X153707097Y-39054249D01*
%TO.N,P8*%
X183075137Y-44026692D02*
X189175137Y-44026692D01*
X181875140Y-46601685D02*
X182950135Y-45526688D01*
X182950135Y-45526688D02*
X182950141Y-44151693D01*
X168975139Y-44401690D02*
X170075131Y-43301685D01*
X190725136Y-45576683D02*
X190725138Y-47501689D01*
X172700138Y-43301694D02*
X173300145Y-43901689D01*
X215500136Y-58376689D02*
X216325134Y-57551686D01*
X173300145Y-43901689D02*
X173325140Y-43901691D01*
X194825142Y-53326691D02*
X194825140Y-56901689D01*
X174275136Y-46601693D02*
X181875140Y-46601685D01*
X193225135Y-50001692D02*
X193225143Y-51726688D01*
X173325140Y-43901691D02*
X173325138Y-45651688D01*
X173325138Y-45651688D02*
X174275135Y-46601694D01*
X194825140Y-56901689D02*
X196300143Y-58376687D01*
X193225143Y-51726688D02*
X194825142Y-53326691D01*
X190725138Y-47501689D02*
X193225135Y-50001692D01*
X189175137Y-44026692D02*
X190725136Y-45576683D01*
X216325134Y-57551686D02*
X216325137Y-55301692D01*
X174275135Y-46601694D02*
X174275136Y-46601693D01*
X216325137Y-55301692D02*
X215007702Y-53984252D01*
X170075131Y-43301685D02*
X172700138Y-43301694D01*
X182950141Y-44151693D02*
X183075137Y-44026692D01*
X215007702Y-53984252D02*
X214662086Y-53984253D01*
X196300143Y-58376687D02*
X215500136Y-58376689D01*
D52*
%TO.N,index_bottom*%
X170857100Y-78904250D02*
X172057099Y-78904245D01*
D51*
X170857095Y-84104249D02*
X170707091Y-84254250D01*
X170857094Y-78904251D02*
X170857095Y-84104249D01*
%TO.N,index_home*%
X170707099Y-67254249D02*
X170707102Y-62054234D01*
X170707102Y-62054234D02*
X170857086Y-61904243D01*
D52*
X170857101Y-61904249D02*
X172057109Y-61904246D01*
D51*
%TO.N,index_top*%
X170857095Y-50104262D02*
X170857094Y-44904243D01*
X170707102Y-50254256D02*
X170857095Y-50104262D01*
D52*
X170857103Y-44904240D02*
X172057100Y-44904248D01*
D51*
%TO.N,P9*%
X216725141Y-57717375D02*
X215590823Y-58851687D01*
X216725135Y-52976687D02*
X216725141Y-57717375D01*
X194350135Y-54751693D02*
X193750135Y-54151682D01*
X215192694Y-51444252D02*
X216725135Y-52976687D01*
X196200143Y-58851685D02*
X194350136Y-57001687D01*
X194350135Y-56726691D02*
X194350135Y-54751693D01*
X215590823Y-58851687D02*
X196200143Y-58851685D01*
X193750135Y-54151682D02*
X185600138Y-54151688D01*
X214662095Y-51444249D02*
X215192694Y-51444252D01*
X194350136Y-57001687D02*
X194350135Y-56726691D01*
%TO.N,inner_bottom*%
X187857094Y-86104253D02*
X187707101Y-86254243D01*
D52*
X187857095Y-80904255D02*
X189057099Y-80904247D01*
D51*
X187857094Y-80904247D02*
X187857094Y-86104253D01*
%TO.N,inner_home*%
X187857097Y-69104256D02*
X187707101Y-69254247D01*
X187857095Y-63904245D02*
X187857097Y-69104256D01*
D52*
X187857097Y-63904250D02*
X189057101Y-63904254D01*
%TO.N,inner_top*%
X187857103Y-46904249D02*
X189057101Y-46904248D01*
D51*
X187857097Y-52104238D02*
X187857097Y-46904252D01*
X187707098Y-52254245D02*
X187857097Y-52104238D01*
D52*
%TO.N,near_thumb*%
X169857101Y-98904250D02*
X171057094Y-98904254D01*
D51*
X169707102Y-99054246D02*
X169707107Y-104254247D01*
X169857103Y-98904243D02*
X169707102Y-99054246D01*
%TO.N,home_thumb*%
X187210115Y-105433223D02*
X187372621Y-105296865D01*
D52*
X187825827Y-100116661D02*
X189021258Y-100221239D01*
%TO.N,far_thumb*%
X207113060Y-105101113D02*
X208240694Y-105511540D01*
D51*
X205334544Y-109987519D02*
X207113053Y-105101113D01*
X205142287Y-110077168D02*
X205334544Y-109987519D01*
%TO.N,P2*%
X248655893Y-72731774D02*
X248655899Y-80320461D01*
X248655899Y-80320461D02*
X249240505Y-80905065D01*
X241955893Y-41231775D02*
X241955889Y-45831767D01*
D52*
X115868789Y-93098186D02*
X114683560Y-93285910D01*
D51*
X223270504Y-46365066D02*
X223472599Y-46365065D01*
X234155900Y-43981769D02*
X234155896Y-43981772D01*
X234155896Y-43981772D02*
X233505897Y-44631773D01*
X246905890Y-63431781D02*
X246905894Y-70531776D01*
X241955889Y-45831767D02*
X244055891Y-47931771D01*
D52*
X167557099Y-78904243D02*
X166357095Y-78904240D01*
X249240503Y-80905064D02*
X248040500Y-80905067D01*
D51*
X246655889Y-48331774D02*
X246655900Y-54881771D01*
D52*
X283240506Y-72905065D02*
X282040512Y-72905069D01*
D51*
X248840503Y-57066381D02*
X248840502Y-61497163D01*
D52*
X301040234Y-79039983D02*
X299843162Y-78956272D01*
D51*
X246905894Y-70531776D02*
X246905890Y-70666087D01*
D52*
X184557101Y-80904259D02*
X183357102Y-80904243D01*
D51*
X246255890Y-47931771D02*
X246655889Y-48331774D01*
X223270504Y-46365066D02*
X223270503Y-45767163D01*
D52*
X99078087Y-95757574D02*
X97892865Y-95945296D01*
D51*
X246905890Y-70666087D02*
X248655890Y-72416079D01*
D52*
X266240503Y-78905068D02*
X265040503Y-78905068D01*
X334760147Y-95242162D02*
X333574921Y-95054440D01*
D51*
X228180894Y-43906771D02*
X228905896Y-44631769D01*
X234155889Y-41131773D02*
X235305894Y-39981770D01*
X235305894Y-39981770D02*
X240705890Y-39981767D01*
X246655900Y-54881771D02*
X248840503Y-57066381D01*
X223270503Y-45767163D02*
X225130899Y-43906769D01*
D52*
X132765407Y-79269359D02*
X131568330Y-79353068D01*
D51*
X244055891Y-47931771D02*
X246255890Y-47931771D01*
X228905896Y-44631769D02*
X233505897Y-44631773D01*
D52*
X150557097Y-72904254D02*
X149357096Y-72904248D01*
D51*
X225130899Y-43906769D02*
X228180894Y-43906771D01*
X234155900Y-43981769D02*
X234155889Y-41131773D01*
X240705890Y-39981767D02*
X241955893Y-41231775D01*
D52*
X317969436Y-92582771D02*
X316784217Y-92395049D01*
D51*
X248655890Y-72416079D02*
X248655893Y-72731774D01*
X248840502Y-61497163D02*
X246905890Y-63431781D01*
%TO.N,P1*%
X233755898Y-43731765D02*
X233755896Y-40831772D01*
X233305891Y-44181777D02*
X233755898Y-43731765D01*
X235055896Y-39531772D02*
X240840204Y-39531764D01*
X247105895Y-48081772D02*
X247105896Y-54731772D01*
D52*
X320628827Y-75792070D02*
X319443596Y-75604357D01*
D51*
X223270503Y-43825068D02*
X223862605Y-43825066D01*
X229055899Y-44181775D02*
X233305891Y-44181777D01*
D52*
X96418703Y-78966883D02*
X95233475Y-79154595D01*
D51*
X242405893Y-41097458D02*
X242405892Y-45581775D01*
X228355895Y-43481768D02*
X224205893Y-43481773D01*
X247105896Y-54731772D02*
X249240497Y-56866385D01*
D52*
X283240502Y-55905066D02*
X282040498Y-55905063D01*
D51*
X242405892Y-45581775D02*
X244355891Y-47531774D01*
D52*
X131579542Y-62310770D02*
X130382468Y-62394487D01*
X337419531Y-78451463D02*
X336234302Y-78263740D01*
X167557098Y-61904250D02*
X166357100Y-61904248D01*
D51*
X229055899Y-44181775D02*
X229055900Y-44181773D01*
X223862605Y-43825066D02*
X224205893Y-43481773D01*
D52*
X302226097Y-62081393D02*
X301029021Y-61997688D01*
X266240502Y-61905067D02*
X265040506Y-61905070D01*
X113209416Y-76307494D02*
X112024176Y-76495210D01*
D51*
X246555903Y-47531763D02*
X247105895Y-48081772D01*
D52*
X249240502Y-63905063D02*
X248040501Y-63905072D01*
D51*
X233755896Y-40831772D02*
X235055896Y-39531772D01*
X249240497Y-56866385D02*
X249240501Y-63905061D01*
D52*
X150557100Y-55904246D02*
X149357097Y-55904251D01*
X184557099Y-63904253D02*
X183357098Y-63904239D01*
D51*
X240840204Y-39531764D02*
X242405893Y-41097458D01*
X244355891Y-47531774D02*
X246555903Y-47531763D01*
X229055900Y-44181773D02*
X228355895Y-43481768D01*
%TO.N,P0*%
X240905886Y-39031770D02*
X242805897Y-40931778D01*
X223270509Y-41285062D02*
X223270503Y-41996380D01*
D52*
X93759322Y-62176178D02*
X92574089Y-62363893D01*
X266240501Y-44905059D02*
X265040490Y-44905070D01*
D51*
X227705891Y-42631769D02*
X227705890Y-39931768D01*
X227705890Y-39931768D02*
X228605892Y-39031772D01*
D52*
X249240510Y-46905066D02*
X248040511Y-46905067D01*
D51*
X228605892Y-39031772D02*
X240905886Y-39031770D01*
D52*
X340078911Y-61660761D02*
X338893694Y-61473040D01*
X130393685Y-45352180D02*
X129196613Y-45435891D01*
X184557096Y-46904248D02*
X183357107Y-46904253D01*
D51*
X244429193Y-46905069D02*
X248040511Y-46905067D01*
D52*
X303411957Y-45122802D02*
X302214877Y-45039099D01*
D51*
X227255896Y-43081771D02*
X227705891Y-42631769D01*
D52*
X323288212Y-59001374D02*
X322102991Y-58813654D01*
X283240496Y-38905062D02*
X282040497Y-38905062D01*
X150557103Y-38904254D02*
X149357098Y-38904253D01*
D51*
X223270503Y-41996380D02*
X224355893Y-43081768D01*
D52*
X167557093Y-44904258D02*
X166357090Y-44904240D01*
X110550019Y-59516784D02*
X109364792Y-59704512D01*
D51*
X242805902Y-45281767D02*
X244429193Y-46905069D01*
X224355893Y-43081768D02*
X227255896Y-43081771D01*
X242805897Y-40931778D02*
X242805902Y-45281767D01*
%TO.N,P3*%
X263349999Y-86041801D02*
X263516803Y-86041799D01*
X269680899Y-87725002D02*
X269905900Y-87949999D01*
X269905894Y-95231771D02*
X269905901Y-95381770D01*
X225655892Y-44331773D02*
X224405889Y-45581777D01*
D52*
X249271773Y-100117478D02*
X248076338Y-100222068D01*
D51*
X223270494Y-48905064D02*
X223329194Y-48905069D01*
X265200000Y-87724999D02*
X269680899Y-87725002D01*
X246055893Y-48381774D02*
X243855895Y-48381772D01*
X263516803Y-86041799D02*
X265200000Y-87724999D01*
X247880895Y-88206781D02*
X247755900Y-88081769D01*
X247105888Y-87431770D02*
X247105898Y-80581774D01*
D52*
X204012068Y-103972446D02*
X202884450Y-103562031D01*
D51*
X246480896Y-70806775D02*
X246480886Y-63206772D01*
D52*
X229984545Y-105101935D02*
X228856912Y-105512358D01*
D51*
X241055889Y-42581770D02*
X236155905Y-42581761D01*
X224405889Y-46181768D02*
X224405894Y-47769675D01*
X228740207Y-45031768D02*
X228040205Y-44331766D01*
X246255893Y-48581779D02*
X246055893Y-48381774D01*
X236155905Y-42581761D02*
X233705892Y-45031767D01*
X269905901Y-95381770D02*
X267240498Y-98047161D01*
X243855895Y-48381772D02*
X241555900Y-46081772D01*
X248355895Y-57231773D02*
X246255888Y-55131767D01*
X269905894Y-95231771D02*
X269905900Y-87949999D01*
X263349999Y-86041801D02*
X256895865Y-86041803D01*
X224405889Y-45581777D02*
X224405889Y-46181768D01*
X256895865Y-86041803D02*
X254730899Y-88206775D01*
X233705892Y-45031767D02*
X228740207Y-45031768D01*
X246480886Y-63206772D02*
X248355888Y-61331768D01*
X228040205Y-44331766D02*
X225655892Y-44331773D01*
X224405894Y-47769675D02*
X223270506Y-48905061D01*
D52*
X166557098Y-98904247D02*
X165357097Y-98904242D01*
D51*
X254730899Y-88206775D02*
X247880895Y-88206781D01*
X247105898Y-80581774D02*
X248255894Y-79431767D01*
X241555900Y-46081772D02*
X241555901Y-43081768D01*
X248255894Y-79431767D02*
X248255889Y-72581769D01*
X248255889Y-72581769D02*
X246480896Y-70806775D01*
X247755900Y-88081769D02*
X247105888Y-87431770D01*
X248355888Y-61331768D02*
X248355895Y-57231773D01*
X241555901Y-43081768D02*
X241055889Y-42581770D01*
X246255888Y-55131767D02*
X246255893Y-48581779D01*
D52*
X184538395Y-99829042D02*
X183342956Y-99724456D01*
D51*
X267240498Y-98047161D02*
X267240501Y-98905060D01*
D52*
X267240498Y-98905061D02*
X266040497Y-98905067D01*
D51*
%TO.N,GND*%
X235055896Y-60530897D02*
X235300003Y-60775007D01*
X235055893Y-51581772D02*
X235055896Y-60530897D01*
X235305896Y-61281773D02*
X235055896Y-61031770D01*
X235055896Y-60481769D02*
X235305896Y-60731771D01*
%TO.N,RST*%
X323899997Y-48999999D02*
X323900002Y-49496054D01*
X323900002Y-49496054D02*
X323541844Y-49854210D01*
%TO.N,RAW*%
X178600139Y-39826687D02*
X178000136Y-39226689D01*
X195500137Y-39326691D02*
X195000138Y-39826691D01*
X178000136Y-39226689D02*
X173900141Y-39226688D01*
X200325137Y-50701689D02*
X200825131Y-51201691D01*
X200125140Y-39326688D02*
X195500137Y-39326691D01*
X206700136Y-50026686D02*
X206700140Y-45701687D01*
X201207097Y-48590757D02*
X200325138Y-49472710D01*
X206700140Y-45701687D02*
X205750137Y-44751697D01*
X203200137Y-44751692D02*
X201525141Y-43076687D01*
X269446221Y-39681768D02*
X259355894Y-39681775D01*
X195000138Y-39826691D02*
X178600139Y-39826687D01*
X165726128Y-37422987D02*
X165726129Y-37802677D01*
X269746225Y-39381773D02*
X269446221Y-39681768D01*
X165726135Y-37802680D02*
X165726130Y-37422987D01*
X247655892Y-43281771D02*
X246955890Y-42581766D01*
X246955890Y-42581766D02*
X246955897Y-42381763D01*
X248555896Y-42881780D02*
X248155892Y-43281776D01*
X200825131Y-51201691D02*
X200925134Y-51301694D01*
X259355894Y-39681775D02*
X257130891Y-41906769D01*
X248555889Y-42231770D02*
X248555896Y-42881780D01*
X257130891Y-41906769D02*
X248880896Y-41906770D01*
X173900141Y-39226688D02*
X173000138Y-40126689D01*
X200925134Y-51301694D02*
X205425139Y-51301690D01*
X168050144Y-40126692D02*
X166099225Y-38175771D01*
X166099225Y-38175771D02*
X165726135Y-37802680D01*
X205750137Y-44751697D02*
X203200137Y-44751692D01*
X205425139Y-51301690D02*
X206700136Y-50026686D01*
X173000138Y-40126689D02*
X168050144Y-40126692D01*
X248880896Y-41906770D02*
X248555889Y-42231770D01*
X200325138Y-49472710D02*
X200325137Y-50701689D01*
X165726129Y-37802677D02*
X166099225Y-38175771D01*
X269801475Y-37928407D02*
X269801468Y-39326519D01*
X269801468Y-39326519D02*
X269446221Y-39681768D01*
X201525141Y-43076687D02*
X201525139Y-40726691D01*
X248155892Y-43281776D02*
X247655892Y-43281771D01*
X201525139Y-40726691D02*
X200125140Y-39326688D01*
X165726136Y-37827687D02*
X165726130Y-37422987D01*
%TO.N,BAT_P*%
X201075144Y-43276682D02*
X203000137Y-45201693D01*
X205525137Y-45201690D02*
X206275137Y-45951690D01*
X195150136Y-40301693D02*
X195525131Y-39926698D01*
X259055894Y-39181771D02*
X267344240Y-39181772D01*
X204200133Y-45201686D02*
X205525137Y-45201690D01*
X235705895Y-51731772D02*
X235705901Y-52431771D01*
X165875135Y-38676691D02*
X166987636Y-39789192D01*
X201075131Y-40976689D02*
X201075144Y-43276682D01*
X267344240Y-39181772D02*
X267618181Y-39181777D01*
X247805896Y-42431771D02*
X247805894Y-41981769D01*
X203000137Y-45201693D02*
X204200133Y-45201686D01*
X177825132Y-39676688D02*
X177887635Y-39739198D01*
X177887635Y-39739198D02*
X178450136Y-40301691D01*
X235455898Y-52681768D02*
X235455891Y-58930888D01*
X235455891Y-58930888D02*
X237299996Y-60774994D01*
X206275137Y-45951690D02*
X206275137Y-49576688D01*
X166987636Y-39789192D02*
X167775133Y-40576694D01*
X164307862Y-38134409D02*
X164514823Y-38341370D01*
X235705901Y-52431771D02*
X235455898Y-52681768D01*
X256755893Y-41481767D02*
X259055894Y-39181771D01*
X200025144Y-39926697D02*
X201075131Y-40976689D01*
X164307860Y-36934635D02*
X164514812Y-37141585D01*
X164850142Y-38676681D02*
X165875135Y-38676691D01*
X237305895Y-60731766D02*
X237305896Y-60731766D01*
X164307861Y-36934635D02*
X164307862Y-38134409D01*
X174050139Y-39676693D02*
X177825132Y-39676688D01*
X247805894Y-41981769D02*
X248305895Y-41481770D01*
X178450136Y-40301691D02*
X195150136Y-40301693D01*
X235855893Y-51581766D02*
X235705895Y-51731772D01*
X164514823Y-38341370D02*
X164850142Y-38676681D01*
X195525131Y-39926698D02*
X200025144Y-39926697D01*
X167775133Y-40576694D02*
X173150141Y-40576688D01*
X248305895Y-41481770D02*
X256755893Y-41481767D01*
X173150141Y-40576688D02*
X174050139Y-39676693D01*
X206275137Y-49576688D02*
X205150133Y-50701691D01*
X267618181Y-39181777D02*
X268383194Y-38416766D01*
D52*
%TO.N,mirror_outer_bottom*%
X338019509Y-95758389D02*
X339204744Y-95946119D01*
D51*
X337847890Y-95883086D02*
X338019517Y-95758390D01*
X337034434Y-101019057D02*
X337847890Y-95883086D01*
D52*
%TO.N,mirror_outer_home*%
X340678901Y-78967688D02*
X341864121Y-79155419D01*
D51*
X339693817Y-84228359D02*
X340507276Y-79092382D01*
X340507276Y-79092382D02*
X340678901Y-78967689D01*
%TO.N,mirror_outer_top*%
X343166662Y-62301685D02*
X343338283Y-62176987D01*
D52*
X343338283Y-62176987D02*
X344523508Y-62364720D01*
D51*
X342353207Y-67437656D02*
X343166662Y-62301685D01*
%TO.N,mirror_pinky_bottom*%
X320243736Y-98359679D02*
X321057205Y-93223685D01*
X321057205Y-93223685D02*
X321228806Y-93099008D01*
D52*
X321228805Y-93099008D02*
X322414039Y-93286738D01*
%TO.N,mirror_pinky_home*%
X323888196Y-76308313D02*
X325073429Y-76496024D01*
D51*
X322903122Y-81568980D02*
X323716580Y-76432992D01*
X323716580Y-76432992D02*
X323888197Y-76308308D01*
%TO.N,mirror_pinky_top*%
X325562502Y-64778270D02*
X325734129Y-64653576D01*
X325734129Y-64653576D02*
X326547584Y-59517612D01*
D52*
X326547586Y-59517608D02*
X327732803Y-59705337D01*
D51*
%TO.N,mirror_ring_bottom*%
X303809363Y-84596681D02*
X304172096Y-79409346D01*
X304172096Y-79409346D02*
X304332189Y-79270171D01*
D52*
X304332195Y-79270178D02*
X305529270Y-79353889D01*
%TO.N,mirror_ring_home*%
X305518056Y-62311588D02*
X306715132Y-62395296D01*
D51*
X304995229Y-67638089D02*
X305155323Y-67498921D01*
X305155323Y-67498921D02*
X305518052Y-62311589D01*
%TO.N,mirror_ring_top*%
X306181084Y-50679507D02*
X306543818Y-45492162D01*
X306543818Y-45492162D02*
X306703913Y-45352989D01*
D52*
X306703916Y-45352997D02*
X307900999Y-45436711D01*
D51*
%TO.N,mirror_middle_bottom*%
X286390500Y-73055057D02*
X286540492Y-72905066D01*
D52*
X286540502Y-72905069D02*
X287740502Y-72905059D01*
D51*
X286390499Y-78255064D02*
X286390500Y-73055057D01*
%TO.N,mirror_middle_home*%
X286390507Y-61255066D02*
X286540496Y-61105078D01*
D52*
X286540498Y-55905067D02*
X287740499Y-55905062D01*
D51*
X286540496Y-61105078D02*
X286540495Y-55905068D01*
%TO.N,mirror_middle_top*%
X286390502Y-39055060D02*
X286540497Y-38905057D01*
X286390501Y-44255068D02*
X286390502Y-39055060D01*
D52*
X286540501Y-38905070D02*
X287740498Y-38905075D01*
%TO.N,mirror_index_bottom*%
X269540496Y-78905067D02*
X270740504Y-78905067D01*
D51*
X269390507Y-84255066D02*
X269390506Y-79055053D01*
X269390506Y-79055053D02*
X269540499Y-78905061D01*
%TO.N,mirror_index_home*%
X269390504Y-62055048D02*
X269540495Y-61905056D01*
D52*
X269540498Y-61905074D02*
X270740504Y-61905061D01*
D51*
X269390504Y-67255064D02*
X269390504Y-62055048D01*
%TO.N,mirror_index_top*%
X269390506Y-45055044D02*
X269540489Y-44905063D01*
D52*
X269540488Y-44905068D02*
X270740510Y-44905057D01*
D51*
X269390509Y-50255064D02*
X269390506Y-45055044D01*
D52*
%TO.N,mirror_inner_bottom*%
X252540503Y-80905063D02*
X253740502Y-80905072D01*
D51*
X252390504Y-86255066D02*
X252540494Y-86105065D01*
X252540494Y-86105065D02*
X252540494Y-80905068D01*
D52*
%TO.N,mirror_inner_home*%
X252540496Y-63905063D02*
X253740503Y-63905065D01*
D51*
X252390505Y-69255071D02*
X252540494Y-69105081D01*
X252540494Y-69105081D02*
X252540494Y-63905068D01*
D52*
%TO.N,mirror_inner_top*%
X252540505Y-46905070D02*
X253740504Y-46905063D01*
D51*
X252390495Y-52255066D02*
X252540499Y-52105070D01*
X252540499Y-52105070D02*
X252540497Y-46905068D01*
%TO.N,mirror_near_thumb*%
X270390502Y-104255069D02*
X270390506Y-99055061D01*
X270390506Y-99055061D02*
X270540498Y-98905061D01*
D52*
X270540499Y-98905068D02*
X271740502Y-98905069D01*
%TO.N,mirror_home_thumb*%
X252559215Y-99829866D02*
X253754648Y-99725271D01*
D51*
X252422862Y-99992368D02*
X252559221Y-99829857D01*
%TO.N,mirror_far_thumb*%
X234864038Y-108859684D02*
X233085525Y-103973270D01*
X234774390Y-109051925D02*
X234864038Y-108859684D01*
D52*
X233085547Y-103973265D02*
X234213167Y-103562850D01*
%TD*%
M02*
