%TF.GenerationSoftware,KiCad,Pcbnew,8.0.6*%
%TF.CreationDate,2025-07-17T00:06:11+02:00*%
%TF.ProjectId,combined,636f6d62-696e-4656-942e-6b696361645f,v1.0.0*%
%TF.SameCoordinates,Original*%
%TF.FileFunction,Legend,Bot*%
%TF.FilePolarity,Positive*%
%FSLAX46Y46*%
G04 Gerber Fmt 4.6, Leading zero omitted, Abs format (unit mm)*
G04 Created by KiCad (PCBNEW 8.0.6) date 2025-07-17 00:06:11*
%MOMM*%
%LPD*%
G01*
G04 APERTURE LIST*
%ADD10C,0.100000*%
G04 APERTURE END LIST*
D10*
%TO.C,D16*%
X185407410Y-80899997D02*
X185807411Y-80899994D01*
X185807411Y-80899994D02*
X185807413Y-81449996D01*
X185807411Y-80899994D02*
X185807415Y-80349996D01*
X185807411Y-80899994D02*
X186407412Y-80499997D01*
X186407411Y-81300001D02*
X185807411Y-80899994D01*
X186407412Y-80499997D02*
X186407411Y-81300001D01*
X186407412Y-80899996D02*
X186907412Y-80899999D01*
%TO.C,D1*%
X335599376Y-95378702D02*
X335994454Y-95441281D01*
X335994454Y-95441281D02*
X335908419Y-95984510D01*
X335994454Y-95441281D02*
X336080497Y-94898046D01*
X335994454Y-95441281D02*
X336649637Y-95140057D01*
X336524494Y-95930215D02*
X335994454Y-95441281D01*
X336587073Y-95535135D02*
X337080914Y-95613358D01*
X336649637Y-95140057D02*
X336524494Y-95930215D01*
%TO.C,D18*%
X185407416Y-46900000D02*
X185807417Y-46899997D01*
X185807417Y-46899997D02*
X185807419Y-47449999D01*
X185807417Y-46899997D02*
X185807421Y-46349999D01*
X185807417Y-46899997D02*
X186407418Y-46500000D01*
X186407417Y-47300004D02*
X185807417Y-46899997D01*
X186407418Y-46500000D02*
X186407417Y-47300004D01*
X186407418Y-46899999D02*
X186907418Y-46900002D01*
%TO.C,D7*%
X301888350Y-79098523D02*
X302287382Y-79126421D01*
X302287382Y-79126421D02*
X302249015Y-79675075D01*
X302287382Y-79126421D02*
X302325745Y-78577758D01*
X302287382Y-79126421D02*
X302913823Y-78769239D01*
X302858018Y-79567298D02*
X302287382Y-79126421D01*
X302885916Y-79168268D02*
X303384708Y-79203137D01*
X302913823Y-78769239D02*
X302858018Y-79567298D01*
%TO.C,D4*%
X318808668Y-92719315D02*
X319203746Y-92781894D01*
X319203746Y-92781894D02*
X319117711Y-93325123D01*
X319203746Y-92781894D02*
X319289789Y-92238659D01*
X319203746Y-92781894D02*
X319858929Y-92480670D01*
X319733786Y-93270828D02*
X319203746Y-92781894D01*
X319796365Y-92875748D02*
X320290206Y-92953971D01*
X319858929Y-92480670D02*
X319733786Y-93270828D01*
%TO.C,D16*%
X250090811Y-80900823D02*
X250490814Y-80900824D01*
X250490814Y-80900824D02*
X250490814Y-80350822D01*
X250490814Y-80900824D02*
X250490814Y-81450822D01*
X250490814Y-80900824D02*
X251090815Y-80500820D01*
X251090813Y-80900821D02*
X251590819Y-80900821D01*
X251090815Y-80500820D02*
X251090817Y-81300823D01*
X251090817Y-81300823D02*
X250490814Y-80900824D01*
%TO.C,D4*%
X116708029Y-92953159D02*
X117103108Y-92890580D01*
X117103108Y-92890580D02*
X117017068Y-92347344D01*
X117103108Y-92890580D02*
X117189149Y-93433808D01*
X117103108Y-92890580D02*
X117633142Y-92401641D01*
X117633142Y-92401641D02*
X117758295Y-93191795D01*
X117695723Y-92796716D02*
X118189569Y-92718489D01*
X117758295Y-93191795D02*
X117103108Y-92890580D01*
%TO.C,D12*%
X284090816Y-38900813D02*
X284490819Y-38900814D01*
X284490819Y-38900814D02*
X284490819Y-38350812D01*
X284490819Y-38900814D02*
X284490819Y-39450812D01*
X284490819Y-38900814D02*
X285090820Y-38500810D01*
X285090818Y-38900811D02*
X285590824Y-38900811D01*
X285090820Y-38500810D02*
X285090822Y-39300813D01*
X285090822Y-39300813D02*
X284490819Y-38900814D01*
%TO.C,D14*%
X267090812Y-61900815D02*
X267490815Y-61900816D01*
X267490815Y-61900816D02*
X267490815Y-61350814D01*
X267490815Y-61900816D02*
X267490815Y-62450814D01*
X267490815Y-61900816D02*
X268090816Y-61500812D01*
X268090814Y-61900813D02*
X268590820Y-61900813D01*
X268090816Y-61500812D02*
X268090818Y-62300815D01*
X268090818Y-62300815D02*
X267490815Y-61900816D01*
%TO.C,D9*%
X131241805Y-45285148D02*
X131640831Y-45257246D01*
X131640831Y-45257246D02*
X131602470Y-44708582D01*
X131640831Y-45257246D02*
X131679201Y-45805905D01*
X131640831Y-45257246D02*
X132211469Y-44816365D01*
X132211469Y-44816365D02*
X132267273Y-45614419D01*
X132239377Y-45215392D02*
X132738157Y-45180514D01*
X132267273Y-45614419D02*
X131640831Y-45257246D01*
%TO.C,D6*%
X111389254Y-59371758D02*
X111784333Y-59309179D01*
X111784333Y-59309179D02*
X111698293Y-58765943D01*
X111784333Y-59309179D02*
X111870374Y-59852407D01*
X111784333Y-59309179D02*
X112314367Y-58820240D01*
X112314367Y-58820240D02*
X112439520Y-59610394D01*
X112376948Y-59215315D02*
X112870794Y-59137088D01*
X112439520Y-59610394D02*
X111784333Y-59309179D01*
%TO.C,D20*%
X185385278Y-99903234D02*
X185783754Y-99938094D01*
X185783754Y-99938094D02*
X185735823Y-100486008D01*
X185783754Y-99938094D02*
X185831696Y-99390183D01*
X185783754Y-99938094D02*
X186416335Y-99591916D01*
X186346610Y-100388874D02*
X185783754Y-99938094D01*
X186381476Y-99990394D02*
X186879574Y-100033972D01*
X186416335Y-99591916D02*
X186346610Y-100388874D01*
%TO.C,D3*%
X340918147Y-61797298D02*
X341313225Y-61859877D01*
X341313225Y-61859877D02*
X341227190Y-62403106D01*
X341313225Y-61859877D02*
X341399268Y-61316642D01*
X341313225Y-61859877D02*
X341968408Y-61558653D01*
X341843265Y-62348811D02*
X341313225Y-61859877D01*
X341905844Y-61953731D02*
X342399685Y-62031954D01*
X341968408Y-61558653D02*
X341843265Y-62348811D01*
%TO.C,D8*%
X303074211Y-62139939D02*
X303473243Y-62167837D01*
X303473243Y-62167837D02*
X303434876Y-62716491D01*
X303473243Y-62167837D02*
X303511606Y-61619174D01*
X303473243Y-62167837D02*
X304099684Y-61810655D01*
X304043879Y-62608714D02*
X303473243Y-62167837D01*
X304071777Y-62209684D02*
X304570569Y-62244553D01*
X304099684Y-61810655D02*
X304043879Y-62608714D01*
%TO.C,D13*%
X267090817Y-78900816D02*
X267490820Y-78900817D01*
X267490820Y-78900817D02*
X267490820Y-78350815D01*
X267490820Y-78900817D02*
X267490820Y-79450815D01*
X267490820Y-78900817D02*
X268090821Y-78500813D01*
X268090819Y-78900814D02*
X268590825Y-78900814D01*
X268090821Y-78500813D02*
X268090823Y-79300816D01*
X268090823Y-79300816D02*
X267490820Y-78900817D01*
%TO.C,D14*%
X168407410Y-61899993D02*
X168807411Y-61899990D01*
X168807411Y-61899990D02*
X168807413Y-62449992D01*
X168807411Y-61899990D02*
X168807415Y-61349992D01*
X168807411Y-61899990D02*
X169407412Y-61499993D01*
X169407411Y-62299997D02*
X168807411Y-61899990D01*
X169407412Y-61499993D02*
X169407411Y-62299997D01*
X169407412Y-61899992D02*
X169907412Y-61899995D01*
%TO.C,D15*%
X168407413Y-44899995D02*
X168807414Y-44899992D01*
X168807414Y-44899992D02*
X168807416Y-45449994D01*
X168807414Y-44899992D02*
X168807418Y-44349994D01*
X168807414Y-44899992D02*
X169407415Y-44499995D01*
X169407414Y-45299999D02*
X168807414Y-44899992D01*
X169407415Y-44499995D02*
X169407414Y-45299999D01*
X169407415Y-44899994D02*
X169907415Y-44899997D01*
%TO.C,D19*%
X268090814Y-98900819D02*
X268490817Y-98900820D01*
X268490817Y-98900820D02*
X268490817Y-98350818D01*
X268490817Y-98900820D02*
X268490817Y-99450818D01*
X268490817Y-98900820D02*
X269090818Y-98500816D01*
X269090816Y-98900817D02*
X269590822Y-98900817D01*
X269090818Y-98500816D02*
X269090820Y-99300819D01*
X269090820Y-99300819D02*
X268490817Y-98900820D01*
%TO.C,D17*%
X250090810Y-63900826D02*
X250490813Y-63900827D01*
X250490813Y-63900827D02*
X250490813Y-63350825D01*
X250490813Y-63900827D02*
X250490813Y-64450825D01*
X250490813Y-63900827D02*
X251090814Y-63500823D01*
X251090812Y-63900824D02*
X251590818Y-63900824D01*
X251090814Y-63500823D02*
X251090816Y-64300826D01*
X251090816Y-64300826D02*
X250490813Y-63900827D01*
%TO.C,D18*%
X250090814Y-46900821D02*
X250490817Y-46900822D01*
X250490817Y-46900822D02*
X250490817Y-46350820D01*
X250490817Y-46900822D02*
X250490817Y-47450820D01*
X250490817Y-46900822D02*
X251090818Y-46500818D01*
X251090816Y-46900819D02*
X251590822Y-46900819D01*
X251090818Y-46500818D02*
X251090820Y-47300821D01*
X251090820Y-47300821D02*
X250490817Y-46900822D01*
%TO.C,D11*%
X284090814Y-55900821D02*
X284490817Y-55900822D01*
X284490817Y-55900822D02*
X284490817Y-55350820D01*
X284490817Y-55900822D02*
X284490817Y-56450820D01*
X284490817Y-55900822D02*
X285090818Y-55500818D01*
X285090816Y-55900819D02*
X285590822Y-55900819D01*
X285090818Y-55500818D02*
X285090820Y-56300821D01*
X285090820Y-56300821D02*
X284490817Y-55900822D01*
%TO.C,D5*%
X321468055Y-75928613D02*
X321863133Y-75991192D01*
X321863133Y-75991192D02*
X321777098Y-76534421D01*
X321863133Y-75991192D02*
X321949176Y-75447957D01*
X321863133Y-75991192D02*
X322518316Y-75689968D01*
X322393173Y-76480126D02*
X321863133Y-75991192D01*
X322455752Y-76085046D02*
X322949593Y-76163269D01*
X322518316Y-75689968D02*
X322393173Y-76480126D01*
%TO.C,D19*%
X167407418Y-98899997D02*
X167807419Y-98899994D01*
X167807419Y-98899994D02*
X167807421Y-99449996D01*
X167807419Y-98899994D02*
X167807423Y-98349996D01*
X167807419Y-98899994D02*
X168407420Y-98499997D01*
X168407419Y-99300001D02*
X167807419Y-98899994D01*
X168407420Y-98499997D02*
X168407419Y-99300001D01*
X168407420Y-98899996D02*
X168907420Y-98899999D01*
%TO.C,D11*%
X151407419Y-55900003D02*
X151807420Y-55900000D01*
X151807420Y-55900000D02*
X151807422Y-56450002D01*
X151807420Y-55900000D02*
X151807424Y-55350002D01*
X151807420Y-55900000D02*
X152407421Y-55500003D01*
X152407420Y-56300007D02*
X151807420Y-55900000D01*
X152407421Y-55500003D02*
X152407420Y-56300007D01*
X152407421Y-55900002D02*
X152907421Y-55900005D01*
%TO.C,D10*%
X151407409Y-72899995D02*
X151807410Y-72899992D01*
X151807410Y-72899992D02*
X151807412Y-73449994D01*
X151807410Y-72899992D02*
X151807414Y-72349994D01*
X151807410Y-72899992D02*
X152407411Y-72499995D01*
X152407410Y-73299999D02*
X151807410Y-72899992D01*
X152407411Y-72499995D02*
X152407410Y-73299999D01*
X152407411Y-72899994D02*
X152907411Y-72899997D01*
%TO.C,D6*%
X324127444Y-59137916D02*
X324522522Y-59200495D01*
X324522522Y-59200495D02*
X324436487Y-59743724D01*
X324522522Y-59200495D02*
X324608565Y-58657260D01*
X324522522Y-59200495D02*
X325177705Y-58899271D01*
X325052562Y-59689429D02*
X324522522Y-59200495D01*
X325115141Y-59294349D02*
X325608982Y-59372572D01*
X325177705Y-58899271D02*
X325052562Y-59689429D01*
%TO.C,D8*%
X132427663Y-62243735D02*
X132826689Y-62215833D01*
X132826689Y-62215833D02*
X132788328Y-61667169D01*
X132826689Y-62215833D02*
X132865059Y-62764492D01*
X132826689Y-62215833D02*
X133397327Y-61774952D01*
X133397327Y-61774952D02*
X133453131Y-62573006D01*
X133425235Y-62173979D02*
X133924015Y-62139101D01*
X133453131Y-62573006D02*
X132826689Y-62215833D01*
%TO.C,D3*%
X94598547Y-62031141D02*
X94993626Y-61968562D01*
X94993626Y-61968562D02*
X94907586Y-61425326D01*
X94993626Y-61968562D02*
X95079667Y-62511790D01*
X94993626Y-61968562D02*
X95523660Y-61479623D01*
X95523660Y-61479623D02*
X95648813Y-62269777D01*
X95586241Y-61874698D02*
X96080087Y-61796471D01*
X95648813Y-62269777D02*
X94993626Y-61968562D01*
%TO.C,D5*%
X114048642Y-76162455D02*
X114443721Y-76099876D01*
X114443721Y-76099876D02*
X114357681Y-75556640D01*
X114443721Y-76099876D02*
X114529762Y-76643104D01*
X114443721Y-76099876D02*
X114973755Y-75610937D01*
X114973755Y-75610937D02*
X115098908Y-76401091D01*
X115036336Y-76006012D02*
X115530182Y-75927785D01*
X115098908Y-76401091D02*
X114443721Y-76099876D01*
%TO.C,D10*%
X284090810Y-72900817D02*
X284490813Y-72900818D01*
X284490813Y-72900818D02*
X284490813Y-72350816D01*
X284490813Y-72900818D02*
X284490813Y-73450816D01*
X284490813Y-72900818D02*
X285090814Y-72500814D01*
X285090812Y-72900815D02*
X285590818Y-72900815D01*
X285090814Y-72500814D02*
X285090816Y-73300817D01*
X285090816Y-73300817D02*
X284490813Y-72900818D01*
%TO.C,D21*%
X230780589Y-104789869D02*
X231156458Y-104653060D01*
X231156458Y-104653060D02*
X230968350Y-104136229D01*
X231156458Y-104653060D02*
X231344569Y-105169889D01*
X231156458Y-104653060D02*
X231583469Y-104071974D01*
X231583469Y-104071974D02*
X231857086Y-104823727D01*
X231720270Y-104447847D02*
X232190117Y-104276837D01*
X231857086Y-104823727D02*
X231156458Y-104653060D01*
%TO.C,D13*%
X168407412Y-78899999D02*
X168807413Y-78899996D01*
X168807413Y-78899996D02*
X168807415Y-79449998D01*
X168807413Y-78899996D02*
X168807417Y-78349998D01*
X168807413Y-78899996D02*
X169407414Y-78499999D01*
X169407413Y-79300003D02*
X168807413Y-78899996D01*
X169407414Y-78499999D02*
X169407413Y-79300003D01*
X169407414Y-78899998D02*
X169907414Y-78900001D01*
%TO.C,D2*%
X97257936Y-78821842D02*
X97653015Y-78759263D01*
X97653015Y-78759263D02*
X97566975Y-78216027D01*
X97653015Y-78759263D02*
X97739056Y-79302491D01*
X97653015Y-78759263D02*
X98183049Y-78270324D01*
X98183049Y-78270324D02*
X98308202Y-79060478D01*
X98245630Y-78665399D02*
X98739476Y-78587172D01*
X98308202Y-79060478D02*
X97653015Y-78759263D01*
%TO.C,D21*%
X204808110Y-104276013D02*
X205183994Y-104412825D01*
X205183994Y-104412825D02*
X204995881Y-104929652D01*
X205183994Y-104412825D02*
X205372094Y-103895996D01*
X205183994Y-104412825D02*
X205884615Y-104242162D01*
X205610997Y-104993915D02*
X205183994Y-104412825D01*
X205747806Y-104618033D02*
X206217652Y-104789047D01*
X205884615Y-104242162D02*
X205610997Y-104993915D01*
%TO.C,D17*%
X185407416Y-63899993D02*
X185807417Y-63899990D01*
X185807417Y-63899990D02*
X185807419Y-64449992D01*
X185807417Y-63899990D02*
X185807421Y-63349992D01*
X185807417Y-63899990D02*
X186407418Y-63499993D01*
X186407417Y-64299997D02*
X185807417Y-63899990D01*
X186407418Y-63499993D02*
X186407417Y-64299997D01*
X186407418Y-63899992D02*
X186907418Y-63899995D01*
%TO.C,D7*%
X133613523Y-79202333D02*
X134012549Y-79174431D01*
X134012549Y-79174431D02*
X133974188Y-78625767D01*
X134012549Y-79174431D02*
X134050919Y-79723090D01*
X134012549Y-79174431D02*
X134583187Y-78733550D01*
X134583187Y-78733550D02*
X134638991Y-79531604D01*
X134611095Y-79132577D02*
X135109875Y-79097699D01*
X134638991Y-79531604D02*
X134012549Y-79174431D01*
%TO.C,D1*%
X99917320Y-95612545D02*
X100312399Y-95549966D01*
X100312399Y-95549966D02*
X100226359Y-95006730D01*
X100312399Y-95549966D02*
X100398440Y-96093194D01*
X100312399Y-95549966D02*
X100842433Y-95061027D01*
X100842433Y-95061027D02*
X100967586Y-95851181D01*
X100905014Y-95456102D02*
X101398860Y-95377875D01*
X100967586Y-95851181D02*
X100312399Y-95549966D01*
%TO.C,D9*%
X304260072Y-45181342D02*
X304659104Y-45209240D01*
X304659104Y-45209240D02*
X304620737Y-45757894D01*
X304659104Y-45209240D02*
X304697467Y-44660577D01*
X304659104Y-45209240D02*
X305285545Y-44852058D01*
X305229740Y-45650117D02*
X304659104Y-45209240D01*
X305257638Y-45251087D02*
X305756430Y-45285956D01*
X305285545Y-44852058D02*
X305229740Y-45650117D01*
%TO.C,D15*%
X267090812Y-44900817D02*
X267490815Y-44900818D01*
X267490815Y-44900818D02*
X267490815Y-44350816D01*
X267490815Y-44900818D02*
X267490815Y-45450816D01*
X267490815Y-44900818D02*
X268090816Y-44500814D01*
X268090814Y-44900815D02*
X268590820Y-44900815D01*
X268090816Y-44500814D02*
X268090818Y-45300817D01*
X268090818Y-45300817D02*
X267490815Y-44900818D01*
%TO.C,D20*%
X250118668Y-100034787D02*
X250517148Y-99999925D01*
X250517148Y-99999925D02*
X250469211Y-99452015D01*
X250517148Y-99999925D02*
X250565082Y-100547834D01*
X250517148Y-99999925D02*
X251079996Y-99549148D01*
X251079996Y-99549148D02*
X251149733Y-100346108D01*
X251114866Y-99947626D02*
X251612962Y-99904049D01*
X251149733Y-100346108D02*
X250517148Y-99999925D01*
%TO.C,D12*%
X151407421Y-38900003D02*
X151807422Y-38900000D01*
X151807422Y-38900000D02*
X151807424Y-39450002D01*
X151807422Y-38900000D02*
X151807426Y-38350002D01*
X151807422Y-38900000D02*
X152407423Y-38500003D01*
X152407422Y-39300007D02*
X151807422Y-38900000D01*
X152407423Y-38500003D02*
X152407422Y-39300007D01*
X152407423Y-38900002D02*
X152907423Y-38900005D01*
%TO.C,D2*%
X338258760Y-78587999D02*
X338653838Y-78650578D01*
X338653838Y-78650578D02*
X338567803Y-79193807D01*
X338653838Y-78650578D02*
X338739881Y-78107343D01*
X338653838Y-78650578D02*
X339309021Y-78349354D01*
X339183878Y-79139512D02*
X338653838Y-78650578D01*
X339246457Y-78744432D02*
X339740298Y-78822655D01*
X339309021Y-78349354D02*
X339183878Y-79139512D01*
%TD*%
M02*
