%TF.GenerationSoftware,KiCad,Pcbnew,8.0.6*%
%TF.CreationDate,2025-07-18T20:30:30+02:00*%
%TF.ProjectId,combined,636f6d62-696e-4656-942e-6b696361645f,v1.0.0*%
%TF.SameCoordinates,Original*%
%TF.FileFunction,Legend,Top*%
%TF.FilePolarity,Positive*%
%FSLAX46Y46*%
G04 Gerber Fmt 4.6, Leading zero omitted, Abs format (unit mm)*
G04 Created by KiCad (PCBNEW 8.0.6) date 2025-07-18 20:30:30*
%MOMM*%
%LPD*%
G01*
G04 APERTURE LIST*
%ADD10C,0.100000*%
%ADD11C,0.150000*%
%ADD12C,0.120000*%
%ADD13C,0.127000*%
%ADD14C,0.503998*%
%ADD15C,0.503997*%
%ADD16C,0.503986*%
%ADD17C,0.504005*%
G04 APERTURE END LIST*
D10*
X238902010Y-61673239D02*
X238140106Y-61673239D01*
X238521058Y-62054192D02*
X238521058Y-61292287D01*
X234402011Y-61673233D02*
X233640107Y-61673233D01*
X198054021Y-61718155D02*
X198815926Y-61718155D01*
X202554020Y-61718154D02*
X203315925Y-61718154D01*
X202934972Y-62099107D02*
X202934972Y-61337202D01*
D11*
X320235209Y-47931986D02*
X320255576Y-47351078D01*
X319778846Y-47588091D02*
X320380661Y-46789456D01*
X320380661Y-46789456D02*
X320684903Y-47018719D01*
X320684903Y-47018719D02*
X320732306Y-47114065D01*
X320732306Y-47114065D02*
X320741678Y-47180753D01*
X320741678Y-47180753D02*
X320722393Y-47285471D01*
X320722393Y-47285471D02*
X320636419Y-47399562D01*
X320636419Y-47399562D02*
X320541073Y-47446965D01*
X320541073Y-47446965D02*
X320474385Y-47456337D01*
X320474385Y-47456337D02*
X320369667Y-47437052D01*
X320369667Y-47437052D02*
X320065425Y-47207789D01*
X320568109Y-48123218D02*
X320653542Y-48247222D01*
X320653542Y-48247222D02*
X320843694Y-48390511D01*
X320843694Y-48390511D02*
X320948412Y-48409797D01*
X320948412Y-48409797D02*
X321015100Y-48400424D01*
X321015100Y-48400424D02*
X321110446Y-48353022D01*
X321110446Y-48353022D02*
X321167762Y-48276961D01*
X321167762Y-48276961D02*
X321187047Y-48172243D01*
X321187047Y-48172243D02*
X321177675Y-48105555D01*
X321177675Y-48105555D02*
X321130272Y-48010209D01*
X321130272Y-48010209D02*
X321006809Y-47857547D01*
X321006809Y-47857547D02*
X320959406Y-47762201D01*
X320959406Y-47762201D02*
X320950034Y-47695513D01*
X320950034Y-47695513D02*
X320969319Y-47590795D01*
X320969319Y-47590795D02*
X321026635Y-47514734D01*
X321026635Y-47514734D02*
X321121981Y-47467331D01*
X321121981Y-47467331D02*
X321188669Y-47457959D01*
X321188669Y-47457959D02*
X321293388Y-47477244D01*
X321293388Y-47477244D02*
X321483539Y-47620534D01*
X321483539Y-47620534D02*
X321568972Y-47744538D01*
X321825811Y-47878455D02*
X322282174Y-48222349D01*
X321452178Y-48849037D02*
X322053993Y-48050402D01*
X170902184Y-38377530D02*
X170964197Y-38197432D01*
X170964197Y-38197432D02*
X171040228Y-38122886D01*
X171040228Y-38122886D02*
X171161284Y-38063843D01*
X171161284Y-38063843D02*
X171356886Y-38080831D01*
X171356886Y-38080831D02*
X171672059Y-38189354D01*
X171672059Y-38189354D02*
X171836654Y-38296391D01*
X171836654Y-38296391D02*
X171895697Y-38417447D01*
X171895697Y-38417447D02*
X171909716Y-38523000D01*
X171909716Y-38523000D02*
X171847703Y-38703099D01*
X171847703Y-38703099D02*
X171771671Y-38777645D01*
X171771671Y-38777645D02*
X171650616Y-38836688D01*
X171650616Y-38836688D02*
X171455013Y-38819699D01*
X171455013Y-38819699D02*
X171139841Y-38711177D01*
X171139841Y-38711177D02*
X170975245Y-38604139D01*
X170975245Y-38604139D02*
X170916202Y-38483083D01*
X170916202Y-38483083D02*
X170902184Y-38377530D01*
X171740012Y-37406946D02*
X171631489Y-37722118D01*
X172126761Y-37892654D02*
X171181242Y-37567086D01*
X171181242Y-37567086D02*
X171336275Y-37116839D01*
X172019071Y-36596501D02*
X171910548Y-36911674D01*
X172405819Y-37082210D02*
X171460301Y-36756641D01*
X171460301Y-36756641D02*
X171615333Y-36306394D01*
X161555525Y-34806674D02*
X161617538Y-34626575D01*
X161617538Y-34626575D02*
X161693569Y-34552029D01*
X161693569Y-34552029D02*
X161814625Y-34492986D01*
X161814625Y-34492986D02*
X162010227Y-34509974D01*
X162010227Y-34509974D02*
X162325400Y-34618497D01*
X162325400Y-34618497D02*
X162489995Y-34725535D01*
X162489995Y-34725535D02*
X162549038Y-34846591D01*
X162549038Y-34846591D02*
X162563056Y-34952143D01*
X162563056Y-34952143D02*
X162501043Y-35132242D01*
X162501043Y-35132242D02*
X162425012Y-35206788D01*
X162425012Y-35206788D02*
X162303956Y-35265831D01*
X162303956Y-35265831D02*
X162108354Y-35248843D01*
X162108354Y-35248843D02*
X161793181Y-35140320D01*
X161793181Y-35140320D02*
X161628586Y-35033282D01*
X161628586Y-35033282D02*
X161569543Y-34912227D01*
X161569543Y-34912227D02*
X161555525Y-34806674D01*
X162780102Y-34321798D02*
X161834583Y-33996229D01*
X161834583Y-33996229D02*
X162966141Y-33781501D01*
X162966141Y-33781501D02*
X162020622Y-33455933D01*
X115987687Y-48590304D02*
X115434897Y-48410606D01*
X115531324Y-48934198D02*
X114929509Y-48135562D01*
X114929509Y-48135562D02*
X115233751Y-47906300D01*
X115233751Y-47906300D02*
X115338470Y-47887014D01*
X115338470Y-47887014D02*
X115405158Y-47896386D01*
X115405158Y-47896386D02*
X115500504Y-47943789D01*
X115500504Y-47943789D02*
X115586477Y-48057880D01*
X115586477Y-48057880D02*
X115605763Y-48162598D01*
X115605763Y-48162598D02*
X115596390Y-48229286D01*
X115596390Y-48229286D02*
X115548988Y-48324632D01*
X115548988Y-48324632D02*
X115244746Y-48553895D01*
X116263272Y-48323010D02*
X116406020Y-48275067D01*
X116406020Y-48275067D02*
X116596172Y-48131778D01*
X116596172Y-48131778D02*
X116643574Y-48036432D01*
X116643574Y-48036432D02*
X116652947Y-47969744D01*
X116652947Y-47969744D02*
X116633661Y-47865025D01*
X116633661Y-47865025D02*
X116576345Y-47788965D01*
X116576345Y-47788965D02*
X116480999Y-47741562D01*
X116480999Y-47741562D02*
X116414311Y-47732190D01*
X116414311Y-47732190D02*
X116309593Y-47751475D01*
X116309593Y-47751475D02*
X116128814Y-47828076D01*
X116128814Y-47828076D02*
X116024096Y-47847362D01*
X116024096Y-47847362D02*
X115957408Y-47837989D01*
X115957408Y-47837989D02*
X115862062Y-47790587D01*
X115862062Y-47790587D02*
X115804746Y-47714526D01*
X115804746Y-47714526D02*
X115785460Y-47609808D01*
X115785460Y-47609808D02*
X115794833Y-47543120D01*
X115794833Y-47543120D02*
X115842235Y-47447774D01*
X115842235Y-47447774D02*
X116032387Y-47304484D01*
X116032387Y-47304484D02*
X116175135Y-47256541D01*
X116374659Y-47046564D02*
X116831022Y-46702669D01*
X117204656Y-47673252D02*
X116602841Y-46874617D01*
X274878759Y-33337927D02*
X274940772Y-33518026D01*
X274940772Y-33518026D02*
X274926754Y-33623579D01*
X274926754Y-33623579D02*
X274867711Y-33744635D01*
X274867711Y-33744635D02*
X274703116Y-33851672D01*
X274703116Y-33851672D02*
X274387943Y-33960195D01*
X274387943Y-33960195D02*
X274192341Y-33977183D01*
X274192341Y-33977183D02*
X274071285Y-33918140D01*
X274071285Y-33918140D02*
X273995254Y-33843594D01*
X273995254Y-33843594D02*
X273933241Y-33663496D01*
X273933241Y-33663496D02*
X273947259Y-33557943D01*
X273947259Y-33557943D02*
X274006302Y-33436887D01*
X274006302Y-33436887D02*
X274170897Y-33329849D01*
X274170897Y-33329849D02*
X274486070Y-33221327D01*
X274486070Y-33221327D02*
X274681672Y-33204338D01*
X274681672Y-33204338D02*
X274802728Y-33263381D01*
X274802728Y-33263381D02*
X274878759Y-33337927D01*
X274816094Y-34618577D02*
X274707571Y-34303404D01*
X274212299Y-34473940D02*
X275157818Y-34148372D01*
X275157818Y-34148372D02*
X275312850Y-34598619D01*
X275095152Y-35429022D02*
X274986629Y-35113849D01*
X274491358Y-35284385D02*
X275436876Y-34958816D01*
X275436876Y-34958816D02*
X275591909Y-35409063D01*
X265532094Y-36908780D02*
X265594107Y-37088879D01*
X265594107Y-37088879D02*
X265580089Y-37194431D01*
X265580089Y-37194431D02*
X265521046Y-37315487D01*
X265521046Y-37315487D02*
X265356450Y-37422525D01*
X265356450Y-37422525D02*
X265041278Y-37531048D01*
X265041278Y-37531048D02*
X264845676Y-37548036D01*
X264845676Y-37548036D02*
X264724620Y-37488993D01*
X264724620Y-37488993D02*
X264648588Y-37414447D01*
X264648588Y-37414447D02*
X264586575Y-37234348D01*
X264586575Y-37234348D02*
X264600594Y-37128795D01*
X264600594Y-37128795D02*
X264659637Y-37007740D01*
X264659637Y-37007740D02*
X264824232Y-36900702D01*
X264824232Y-36900702D02*
X265139405Y-36792179D01*
X265139405Y-36792179D02*
X265335007Y-36775191D01*
X265335007Y-36775191D02*
X265456063Y-36834234D01*
X265456063Y-36834234D02*
X265532094Y-36908780D01*
X264865634Y-38044793D02*
X265811152Y-37719224D01*
X265811152Y-37719224D02*
X265051673Y-38585089D01*
X265051673Y-38585089D02*
X265997191Y-38259521D01*
D10*
%TO.C,D16*%
X185457095Y-80904250D02*
X185857095Y-80904242D01*
X185857095Y-80904242D02*
X185857098Y-80354245D01*
X185857095Y-80904242D02*
X185857098Y-81454247D01*
X185857095Y-80904242D02*
X186457097Y-80504246D01*
X186457094Y-81304253D02*
X185857095Y-80904242D01*
X186457097Y-80504246D02*
X186457094Y-81304253D01*
X186457098Y-80904247D02*
X186957097Y-80904246D01*
%TO.C,D1*%
X335649060Y-95382952D02*
X336044136Y-95445528D01*
X336044136Y-95445528D02*
X335958105Y-95988760D01*
X336044136Y-95445528D02*
X336130180Y-94902295D01*
X336044136Y-95445528D02*
X336699319Y-95144306D01*
X336574175Y-95934465D02*
X336044136Y-95445528D01*
X336636755Y-95539389D02*
X337130594Y-95617610D01*
X336699319Y-95144306D02*
X336574175Y-95934465D01*
%TO.C,D18*%
X185457097Y-46904250D02*
X185857097Y-46904242D01*
X185857097Y-46904242D02*
X185857100Y-46354245D01*
X185857097Y-46904242D02*
X185857100Y-47454247D01*
X185857097Y-46904242D02*
X186457099Y-46504246D01*
X186457096Y-47304253D02*
X185857097Y-46904242D01*
X186457099Y-46504246D02*
X186457096Y-47304253D01*
X186457100Y-46904247D02*
X186957099Y-46904246D01*
%TO.C,D7*%
X301938029Y-79102775D02*
X302337064Y-79130674D01*
X302337064Y-79130674D02*
X302298699Y-79679330D01*
X302337064Y-79130674D02*
X302375426Y-78582009D01*
X302337064Y-79130674D02*
X302963509Y-78773487D01*
X302907699Y-79571550D02*
X302337064Y-79130674D01*
X302935601Y-79172519D02*
X303434393Y-79207389D01*
X302963509Y-78773487D02*
X302907699Y-79571550D01*
%TO.C,mouse-bite-1mm-3mm*%
X217049684Y-100104246D02*
G75*
G02*
X217049682Y-101104242I-1J-499998D01*
G01*
X220049684Y-101104246D02*
G75*
G02*
X220049686Y-100104246I0J500000D01*
G01*
%TO.C,D4*%
X318858351Y-92723562D02*
X319253427Y-92786138D01*
X319253427Y-92786138D02*
X319167396Y-93329370D01*
X319253427Y-92786138D02*
X319339471Y-92242905D01*
X319253427Y-92786138D02*
X319908610Y-92484916D01*
X319783466Y-93275075D02*
X319253427Y-92786138D01*
X319846046Y-92879999D02*
X320339885Y-92958220D01*
X319908610Y-92484916D02*
X319783466Y-93275075D01*
D12*
%TO.C,JST1*%
X197640136Y-59316692D02*
X197640138Y-60316684D01*
X197640145Y-67136691D02*
X197640138Y-66136690D01*
X198560135Y-67136686D02*
X197640145Y-67136691D01*
X198640134Y-59316688D02*
X197640136Y-59316692D01*
D10*
X199200132Y-68176688D02*
X200200138Y-68176691D01*
X201700131Y-67676690D02*
X201700136Y-68676698D01*
X202200136Y-68176690D02*
X201200144Y-68176691D01*
D12*
X202840133Y-67136686D02*
X203760132Y-67136688D01*
X202840139Y-59316686D02*
X203760132Y-59316697D01*
X203760132Y-59316697D02*
X203760131Y-60316692D01*
X203760132Y-67136688D02*
X203760134Y-66136687D01*
D10*
%TO.C,D16*%
X250140496Y-80905074D02*
X250540494Y-80905072D01*
X250540494Y-80905072D02*
X250540492Y-80355072D01*
X250540494Y-80905072D02*
X250540498Y-81455074D01*
X250540494Y-80905072D02*
X251140498Y-80505067D01*
X251140498Y-80505067D02*
X251140498Y-81305074D01*
X251140498Y-81305074D02*
X250540494Y-80905072D01*
X251140500Y-80905072D02*
X251640500Y-80905070D01*
%TO.C,D4*%
X116757707Y-92957405D02*
X117152790Y-92894830D01*
X117152790Y-92894830D02*
X117066750Y-92351591D01*
X117152790Y-92894830D02*
X117238830Y-93438056D01*
X117152790Y-92894830D02*
X117682821Y-92405887D01*
X117682821Y-92405887D02*
X117807975Y-93196042D01*
X117745404Y-92800963D02*
X118239253Y-92722739D01*
X117807975Y-93196042D02*
X117152790Y-92894830D01*
%TO.C,mouse-bite-1mm-3mm*%
X217049682Y-43854251D02*
G75*
G02*
X217049681Y-44854247I0J-499998D01*
G01*
X220049684Y-44854249D02*
G75*
G02*
X220049685Y-43854251I-1J499999D01*
G01*
%TO.C,D12*%
X284140504Y-38905063D02*
X284540502Y-38905061D01*
X284540502Y-38905061D02*
X284540500Y-38355061D01*
X284540502Y-38905061D02*
X284540506Y-39455063D01*
X284540502Y-38905061D02*
X285140506Y-38505056D01*
X285140506Y-38505056D02*
X285140506Y-39305063D01*
X285140506Y-39305063D02*
X284540502Y-38905061D01*
X285140508Y-38905061D02*
X285640508Y-38905059D01*
%TO.C,D14*%
X267140495Y-61905063D02*
X267540493Y-61905061D01*
X267540493Y-61905061D02*
X267540491Y-61355061D01*
X267540493Y-61905061D02*
X267540497Y-62455063D01*
X267540493Y-61905061D02*
X268140497Y-61505056D01*
X268140497Y-61505056D02*
X268140497Y-62305063D01*
X268140497Y-62305063D02*
X267540493Y-61905061D01*
X268140499Y-61905061D02*
X268640499Y-61905059D01*
%TO.C,D9*%
X131291486Y-45289401D02*
X131690512Y-45261497D01*
X131690512Y-45261497D02*
X131652149Y-44712830D01*
X131690512Y-45261497D02*
X131728882Y-45810154D01*
X131690512Y-45261497D02*
X132261154Y-44820613D01*
X132261154Y-44820613D02*
X132316952Y-45618669D01*
X132289060Y-45219643D02*
X132787842Y-45184761D01*
X132316952Y-45618669D02*
X131690512Y-45261497D01*
%TO.C,D6*%
X111438934Y-59376005D02*
X111834017Y-59313430D01*
X111834017Y-59313430D02*
X111747977Y-58770191D01*
X111834017Y-59313430D02*
X111920057Y-59856656D01*
X111834017Y-59313430D02*
X112364048Y-58824487D01*
X112364048Y-58824487D02*
X112489202Y-59614642D01*
X112426631Y-59219563D02*
X112920480Y-59141339D01*
X112489202Y-59614642D02*
X111834017Y-59313430D01*
%TO.C,D20*%
X185434963Y-99907482D02*
X185833432Y-99942343D01*
X185833432Y-99942343D02*
X185785507Y-100490258D01*
X185833432Y-99942343D02*
X185881380Y-99394430D01*
X185833432Y-99942343D02*
X186466018Y-99596163D01*
X186396289Y-100393123D02*
X185833432Y-99942343D01*
X186431162Y-99994646D02*
X186929255Y-100038222D01*
X186466018Y-99596163D02*
X186396289Y-100393123D01*
%TO.C,D3*%
X340967829Y-61801544D02*
X341362905Y-61864120D01*
X341362905Y-61864120D02*
X341276874Y-62407352D01*
X341362905Y-61864120D02*
X341448949Y-61320887D01*
X341362905Y-61864120D02*
X342018088Y-61562898D01*
X341892944Y-62353057D02*
X341362905Y-61864120D01*
X341955524Y-61957981D02*
X342449363Y-62036202D01*
X342018088Y-61562898D02*
X341892944Y-62353057D01*
%TO.C,D8*%
X303123887Y-62144190D02*
X303522922Y-62172089D01*
X303522922Y-62172089D02*
X303484557Y-62720745D01*
X303522922Y-62172089D02*
X303561284Y-61623424D01*
X303522922Y-62172089D02*
X304149367Y-61814902D01*
X304093557Y-62612965D02*
X303522922Y-62172089D01*
X304121459Y-62213934D02*
X304620251Y-62248804D01*
X304149367Y-61814902D02*
X304093557Y-62612965D01*
%TO.C,D13*%
X267140502Y-78905063D02*
X267540500Y-78905061D01*
X267540500Y-78905061D02*
X267540498Y-78355061D01*
X267540500Y-78905061D02*
X267540504Y-79455063D01*
X267540500Y-78905061D02*
X268140504Y-78505056D01*
X268140504Y-78505056D02*
X268140504Y-79305063D01*
X268140504Y-79305063D02*
X267540500Y-78905061D01*
X268140506Y-78905061D02*
X268640506Y-78905059D01*
%TO.C,D14*%
X168457094Y-61904245D02*
X168857094Y-61904237D01*
X168857094Y-61904237D02*
X168857097Y-61354240D01*
X168857094Y-61904237D02*
X168857097Y-62454242D01*
X168857094Y-61904237D02*
X169457096Y-61504241D01*
X169457093Y-62304248D02*
X168857094Y-61904237D01*
X169457096Y-61504241D02*
X169457093Y-62304248D01*
X169457097Y-61904242D02*
X169957096Y-61904241D01*
%TO.C,D15*%
X168457093Y-44904247D02*
X168857093Y-44904239D01*
X168857093Y-44904239D02*
X168857096Y-44354242D01*
X168857093Y-44904239D02*
X168857096Y-45454244D01*
X168857093Y-44904239D02*
X169457095Y-44504243D01*
X169457092Y-45304250D02*
X168857093Y-44904239D01*
X169457095Y-44504243D02*
X169457092Y-45304250D01*
X169457096Y-44904244D02*
X169957095Y-44904243D01*
D11*
%TO.C,RST1*%
X317497194Y-47490485D02*
X317647642Y-47290822D01*
X317497194Y-47490485D02*
X322289007Y-51101370D01*
X319603543Y-44695264D02*
X319453087Y-44894916D01*
X319603543Y-44695264D02*
X324395356Y-48306149D01*
X322289007Y-51101370D02*
X322439463Y-50901718D01*
X324395356Y-48306149D02*
X324244908Y-48505812D01*
D10*
%TO.C,D19*%
X268140500Y-98905071D02*
X268540498Y-98905069D01*
X268540498Y-98905069D02*
X268540496Y-98355069D01*
X268540498Y-98905069D02*
X268540502Y-99455071D01*
X268540498Y-98905069D02*
X269140502Y-98505064D01*
X269140502Y-98505064D02*
X269140502Y-99305071D01*
X269140502Y-99305071D02*
X268540498Y-98905069D01*
X269140504Y-98905069D02*
X269640504Y-98905067D01*
%TO.C,D17*%
X250140494Y-63905079D02*
X250540492Y-63905077D01*
X250540492Y-63905077D02*
X250540490Y-63355077D01*
X250540492Y-63905077D02*
X250540496Y-64455079D01*
X250540492Y-63905077D02*
X251140496Y-63505072D01*
X251140496Y-63505072D02*
X251140496Y-64305079D01*
X251140496Y-64305079D02*
X250540492Y-63905077D01*
X251140498Y-63905077D02*
X251640498Y-63905075D01*
%TO.C,D18*%
X250140498Y-46905069D02*
X250540496Y-46905067D01*
X250540496Y-46905067D02*
X250540494Y-46355067D01*
X250540496Y-46905067D02*
X250540500Y-47455069D01*
X250540496Y-46905067D02*
X251140500Y-46505062D01*
X251140500Y-46505062D02*
X251140500Y-47305069D01*
X251140500Y-47305069D02*
X250540496Y-46905067D01*
X251140502Y-46905067D02*
X251640502Y-46905065D01*
%TO.C,D11*%
X284140501Y-55905071D02*
X284540499Y-55905069D01*
X284540499Y-55905069D02*
X284540497Y-55355069D01*
X284540499Y-55905069D02*
X284540503Y-56455071D01*
X284540499Y-55905069D02*
X285140503Y-55505064D01*
X285140503Y-55505064D02*
X285140503Y-56305071D01*
X285140503Y-56305071D02*
X284540499Y-55905069D01*
X285140505Y-55905069D02*
X285640505Y-55905067D01*
D12*
%TO.C,JST1*%
X233240002Y-59315007D02*
X233240005Y-60315001D01*
X233240006Y-67135000D02*
X233239996Y-66134997D01*
X234159998Y-67135008D02*
X233240006Y-67135000D01*
X234240003Y-59314993D02*
X233240002Y-59315007D01*
D10*
X234799997Y-68175003D02*
X235800002Y-68175000D01*
X237299996Y-67675004D02*
X237299997Y-68675004D01*
X237799993Y-68174999D02*
X236799997Y-68174998D01*
D12*
X238439996Y-59315004D02*
X239360003Y-59315003D01*
X238439998Y-67134999D02*
X239359997Y-67135000D01*
X239359997Y-67135000D02*
X239360000Y-66135000D01*
X239360003Y-59315003D02*
X239360001Y-60315002D01*
D10*
%TO.C,D5*%
X321517742Y-75932862D02*
X321912818Y-75995438D01*
X321912818Y-75995438D02*
X321826787Y-76538670D01*
X321912818Y-75995438D02*
X321998862Y-75452205D01*
X321912818Y-75995438D02*
X322568001Y-75694216D01*
X322442857Y-76484375D02*
X321912818Y-75995438D01*
X322505437Y-76089299D02*
X322999276Y-76167520D01*
X322568001Y-75694216D02*
X322442857Y-76484375D01*
%TO.C,D19*%
X167457101Y-98904248D02*
X167857101Y-98904240D01*
X167857101Y-98904240D02*
X167857104Y-98354243D01*
X167857101Y-98904240D02*
X167857104Y-99454245D01*
X167857101Y-98904240D02*
X168457103Y-98504244D01*
X168457100Y-99304251D02*
X167857101Y-98904240D01*
X168457103Y-98504244D02*
X168457100Y-99304251D01*
X168457104Y-98904245D02*
X168957103Y-98904244D01*
%TO.C,D11*%
X151457104Y-55904253D02*
X151857104Y-55904245D01*
X151857104Y-55904245D02*
X151857107Y-55354248D01*
X151857104Y-55904245D02*
X151857107Y-56454250D01*
X151857104Y-55904245D02*
X152457106Y-55504249D01*
X152457103Y-56304256D02*
X151857104Y-55904245D01*
X152457106Y-55504249D02*
X152457103Y-56304256D01*
X152457107Y-55904250D02*
X152957106Y-55904249D01*
%TO.C,D10*%
X151457094Y-72904246D02*
X151857094Y-72904238D01*
X151857094Y-72904238D02*
X151857097Y-72354241D01*
X151857094Y-72904238D02*
X151857097Y-73454243D01*
X151857094Y-72904238D02*
X152457096Y-72504242D01*
X152457093Y-73304249D02*
X151857094Y-72904238D01*
X152457096Y-72504242D02*
X152457093Y-73304249D01*
X152457097Y-72904243D02*
X152957096Y-72904242D01*
%TO.C,D6*%
X324177129Y-59142162D02*
X324572205Y-59204738D01*
X324572205Y-59204738D02*
X324486174Y-59747970D01*
X324572205Y-59204738D02*
X324658249Y-58661505D01*
X324572205Y-59204738D02*
X325227388Y-58903516D01*
X325102244Y-59693675D02*
X324572205Y-59204738D01*
X325164824Y-59298599D02*
X325658663Y-59376820D01*
X325227388Y-58903516D02*
X325102244Y-59693675D01*
%TO.C,D8*%
X132477346Y-62247985D02*
X132876372Y-62220081D01*
X132876372Y-62220081D02*
X132838009Y-61671414D01*
X132876372Y-62220081D02*
X132914742Y-62768738D01*
X132876372Y-62220081D02*
X133447014Y-61779197D01*
X133447014Y-61779197D02*
X133502812Y-62577253D01*
X133474920Y-62178227D02*
X133973702Y-62143345D01*
X133502812Y-62577253D02*
X132876372Y-62220081D01*
%TO.C,REF\u002A\u002A*%
X197262101Y-57417253D02*
X197262098Y-40272258D01*
X199167101Y-59322252D02*
X213137100Y-59322253D01*
D13*
X201657100Y-38367250D02*
X201660831Y-37356979D01*
X202160825Y-36857251D02*
X210156087Y-36857256D01*
X210656095Y-37357249D02*
X210656103Y-38367248D01*
D10*
X213137095Y-38367248D02*
X199167099Y-38367257D01*
X215042090Y-57417250D02*
X215042098Y-40272249D01*
X197262098Y-40268244D02*
G75*
G02*
X199167099Y-38363250I1905010J-16D01*
G01*
X199167101Y-59322252D02*
G75*
G02*
X197262101Y-57417253I-5J1904995D01*
G01*
D13*
X201660831Y-37356979D02*
G75*
G02*
X202160825Y-36857251I500015J-287D01*
G01*
X210156087Y-36857256D02*
G75*
G02*
X210656094Y-37357249I-89J-500096D01*
G01*
D10*
X213137095Y-38367248D02*
G75*
G02*
X215042102Y-40272249I-57J-1905064D01*
G01*
X215042090Y-57417250D02*
G75*
G02*
X213137100Y-59322254I-1905012J8D01*
G01*
D14*
X197304101Y-38783252D02*
G75*
G02*
X196800103Y-38783252I-251999J0D01*
G01*
X196800103Y-38783252D02*
G75*
G02*
X197304101Y-38783252I251999J0D01*
G01*
D15*
X198578096Y-39500250D02*
G75*
G02*
X198074100Y-39500250I-251998J0D01*
G01*
X198074100Y-39500250D02*
G75*
G02*
X198578096Y-39500250I251998J0D01*
G01*
D10*
%TO.C,D3*%
X94648228Y-62035392D02*
X95043311Y-61972817D01*
X95043311Y-61972817D02*
X94957271Y-61429578D01*
X95043311Y-61972817D02*
X95129351Y-62516043D01*
X95043311Y-61972817D02*
X95573342Y-61483874D01*
X95573342Y-61483874D02*
X95698496Y-62274029D01*
X95635925Y-61878950D02*
X96129774Y-61800726D01*
X95698496Y-62274029D02*
X95043311Y-61972817D01*
%TO.C,D5*%
X114098323Y-76166704D02*
X114493406Y-76104129D01*
X114493406Y-76104129D02*
X114407366Y-75560890D01*
X114493406Y-76104129D02*
X114579446Y-76647355D01*
X114493406Y-76104129D02*
X115023437Y-75615186D01*
X115023437Y-75615186D02*
X115148591Y-76405341D01*
X115086020Y-76010262D02*
X115579869Y-75932038D01*
X115148591Y-76405341D02*
X114493406Y-76104129D01*
%TO.C,D10*%
X284140497Y-72905069D02*
X284540495Y-72905067D01*
X284540495Y-72905067D02*
X284540493Y-72355067D01*
X284540495Y-72905067D02*
X284540499Y-73455069D01*
X284540495Y-72905067D02*
X285140499Y-72505062D01*
X285140499Y-72505062D02*
X285140499Y-73305069D01*
X285140499Y-73305069D02*
X284540495Y-72905067D01*
X285140501Y-72905067D02*
X285640501Y-72905065D01*
%TO.C,D21*%
X230830276Y-104794115D02*
X231206147Y-104657307D01*
X231206147Y-104657307D02*
X231018037Y-104140478D01*
X231206147Y-104657307D02*
X231394252Y-105174138D01*
X231206147Y-104657307D02*
X231633150Y-104076222D01*
X231633150Y-104076222D02*
X231906769Y-104827976D01*
X231769952Y-104452096D02*
X232239798Y-104281089D01*
X231906769Y-104827976D02*
X231206147Y-104657307D01*
D12*
%TO.C,PWR1*%
X163873204Y-34511096D02*
X163616010Y-35258048D01*
X165212477Y-36918253D02*
X165023371Y-36853138D01*
X168049033Y-37894966D02*
X166441648Y-37341491D01*
X170140086Y-37504470D02*
X170397293Y-36757511D01*
X170158801Y-35607190D02*
X164769345Y-33751448D01*
D10*
%TO.C,D13*%
X168457097Y-78904252D02*
X168857097Y-78904244D01*
X168857097Y-78904244D02*
X168857100Y-78354247D01*
X168857097Y-78904244D02*
X168857100Y-79454249D01*
X168857097Y-78904244D02*
X169457099Y-78504248D01*
X169457096Y-79304255D02*
X168857097Y-78904244D01*
X169457099Y-78504248D02*
X169457096Y-79304255D01*
X169457100Y-78904249D02*
X169957099Y-78904248D01*
D11*
%TO.C,RST1*%
X112702235Y-48305343D02*
X112852699Y-48504998D01*
X112702235Y-48305343D02*
X117494050Y-44694449D01*
X114808588Y-51100559D02*
X114658143Y-50900905D01*
X114808588Y-51100559D02*
X119600403Y-47489665D01*
X117494050Y-44694449D02*
X117644495Y-44894103D01*
X119600403Y-47489665D02*
X119449939Y-47290010D01*
D10*
%TO.C,REF\u002A\u002A*%
X221945494Y-57418062D02*
X221945498Y-40273062D01*
X223850499Y-59323064D02*
X237820499Y-59323064D01*
D13*
X226340501Y-38368065D02*
X226344236Y-37357791D01*
X226844233Y-36858065D02*
X234839500Y-36858063D01*
X235339500Y-37358060D02*
X235339500Y-38368063D01*
D10*
X237820498Y-38368058D02*
X223850502Y-38368064D01*
X239725495Y-57418069D02*
X239725500Y-40273056D01*
X221945502Y-40269063D02*
G75*
G02*
X223850499Y-38364062I1905010J-9D01*
G01*
X223850499Y-59323064D02*
G75*
G02*
X221945494Y-57418062I3J1905008D01*
G01*
D13*
X226344236Y-37357791D02*
G75*
G02*
X226844233Y-36858065I500010J-284D01*
G01*
X234839500Y-36858063D02*
G75*
G02*
X235339499Y-37358060I-101J-500100D01*
G01*
D10*
X237820498Y-38368058D02*
G75*
G02*
X239725494Y-40273056I-39J-1905035D01*
G01*
X239725495Y-57418069D02*
G75*
G02*
X237820499Y-59323059I-1905006J16D01*
G01*
D16*
X221987497Y-38784059D02*
G75*
G02*
X221483511Y-38784059I-251993J0D01*
G01*
X221483511Y-38784059D02*
G75*
G02*
X221987497Y-38784059I251993J0D01*
G01*
D17*
X223261506Y-39501065D02*
G75*
G02*
X222757502Y-39501065I-252002J0D01*
G01*
X222757502Y-39501065D02*
G75*
G02*
X223261506Y-39501065I252002J0D01*
G01*
D10*
%TO.C,D2*%
X97307619Y-78826089D02*
X97702702Y-78763514D01*
X97702702Y-78763514D02*
X97616662Y-78220275D01*
X97702702Y-78763514D02*
X97788742Y-79306740D01*
X97702702Y-78763514D02*
X98232733Y-78274571D01*
X98232733Y-78274571D02*
X98357887Y-79064726D01*
X98295316Y-78669647D02*
X98789165Y-78591423D01*
X98357887Y-79064726D02*
X97702702Y-78763514D01*
%TO.C,D21*%
X204857792Y-104280263D02*
X205233681Y-104417073D01*
X205233681Y-104417073D02*
X205045563Y-104933897D01*
X205233681Y-104417073D02*
X205421779Y-103900241D01*
X205233681Y-104417073D02*
X205934295Y-104246407D01*
X205660680Y-104998164D02*
X205233681Y-104417073D01*
X205797487Y-104622278D02*
X206267338Y-104793289D01*
X205934295Y-104246407D02*
X205660680Y-104998164D01*
%TO.C,D17*%
X185457099Y-63904246D02*
X185857099Y-63904238D01*
X185857099Y-63904238D02*
X185857102Y-63354241D01*
X185857099Y-63904238D02*
X185857102Y-64454243D01*
X185857099Y-63904238D02*
X186457101Y-63504242D01*
X186457098Y-64304249D02*
X185857099Y-63904238D01*
X186457101Y-63504242D02*
X186457098Y-64304249D01*
X186457102Y-63904243D02*
X186957101Y-63904242D01*
D12*
%TO.C,PWR1*%
X266548591Y-36774581D02*
X266805801Y-37521540D01*
X269085960Y-37846916D02*
X268896854Y-37912025D01*
X271922519Y-36870205D02*
X270315136Y-37423675D01*
X272176548Y-33768522D02*
X266787086Y-35624256D01*
X273329877Y-35275115D02*
X273072681Y-34528159D01*
D10*
%TO.C,D7*%
X133663203Y-79206584D02*
X134062229Y-79178680D01*
X134062229Y-79178680D02*
X134023866Y-78630013D01*
X134062229Y-79178680D02*
X134100599Y-79727337D01*
X134062229Y-79178680D02*
X134632871Y-78737796D01*
X134632871Y-78737796D02*
X134688669Y-79535852D01*
X134660777Y-79136826D02*
X135159559Y-79101944D01*
X134688669Y-79535852D02*
X134062229Y-79178680D01*
%TO.C,D1*%
X99966998Y-95616792D02*
X100362081Y-95554217D01*
X100362081Y-95554217D02*
X100276041Y-95010978D01*
X100362081Y-95554217D02*
X100448121Y-96097443D01*
X100362081Y-95554217D02*
X100892112Y-95065274D01*
X100892112Y-95065274D02*
X101017266Y-95855429D01*
X100954695Y-95460350D02*
X101448544Y-95382126D01*
X101017266Y-95855429D02*
X100362081Y-95554217D01*
%TO.C,D9*%
X304309752Y-45185589D02*
X304708787Y-45213488D01*
X304708787Y-45213488D02*
X304670422Y-45762144D01*
X304708787Y-45213488D02*
X304747149Y-44664823D01*
X304708787Y-45213488D02*
X305335232Y-44856301D01*
X305279422Y-45654364D02*
X304708787Y-45213488D01*
X305307324Y-45255333D02*
X305806116Y-45290203D01*
X305335232Y-44856301D02*
X305279422Y-45654364D01*
%TO.C,D15*%
X267140492Y-44905067D02*
X267540490Y-44905065D01*
X267540490Y-44905065D02*
X267540488Y-44355065D01*
X267540490Y-44905065D02*
X267540494Y-45455067D01*
X267540490Y-44905065D02*
X268140494Y-44505060D01*
X268140494Y-44505060D02*
X268140494Y-45305067D01*
X268140494Y-45305067D02*
X267540490Y-44905065D01*
X268140496Y-44905065D02*
X268640496Y-44905063D01*
%TO.C,mouse-bite-1mm-3mm*%
X217049681Y-40304247D02*
G75*
G02*
X217049679Y-41304243I-1J-499998D01*
G01*
X220049681Y-41304247D02*
G75*
G02*
X220049683Y-40304247I0J500000D01*
G01*
%TO.C,D20*%
X250168351Y-100039038D02*
X250566835Y-100004173D01*
X250566835Y-100004173D02*
X250518891Y-99456264D01*
X250566835Y-100004173D02*
X250614768Y-100552086D01*
X250566835Y-100004173D02*
X251129681Y-99553396D01*
X251129681Y-99553396D02*
X251199414Y-100350357D01*
X251164548Y-99951874D02*
X251662645Y-99908296D01*
X251199414Y-100350357D02*
X250566835Y-100004173D01*
%TO.C,D12*%
X151457101Y-38904255D02*
X151857101Y-38904247D01*
X151857101Y-38904247D02*
X151857104Y-38354250D01*
X151857101Y-38904247D02*
X151857104Y-39454252D01*
X151857101Y-38904247D02*
X152457103Y-38504251D01*
X152457100Y-39304258D02*
X151857101Y-38904247D01*
X152457103Y-38504251D02*
X152457100Y-39304258D01*
X152457104Y-38904252D02*
X152957103Y-38904251D01*
%TO.C,D2*%
X338308446Y-78592248D02*
X338703522Y-78654824D01*
X338703522Y-78654824D02*
X338617491Y-79198056D01*
X338703522Y-78654824D02*
X338789566Y-78111591D01*
X338703522Y-78654824D02*
X339358705Y-78353602D01*
X339233561Y-79143761D02*
X338703522Y-78654824D01*
X339296141Y-78748685D02*
X339789980Y-78826906D01*
X339358705Y-78353602D02*
X339233561Y-79143761D01*
%TO.C,mouse-bite-1mm-3mm*%
X217049682Y-96504250D02*
G75*
G02*
X217049681Y-97504246I0J-499998D01*
G01*
X220049684Y-97504248D02*
G75*
G02*
X220049685Y-96504250I-1J499999D01*
G01*
%TD*%
M02*
