%TF.GenerationSoftware,KiCad,Pcbnew,8.0.6*%
%TF.CreationDate,2025-07-17T00:06:11+02:00*%
%TF.ProjectId,combined,636f6d62-696e-4656-942e-6b696361645f,v1.0.0*%
%TF.SameCoordinates,Original*%
%TF.FileFunction,Legend,Top*%
%TF.FilePolarity,Positive*%
%FSLAX46Y46*%
G04 Gerber Fmt 4.6, Leading zero omitted, Abs format (unit mm)*
G04 Created by KiCad (PCBNEW 8.0.6) date 2025-07-17 00:06:11*
%MOMM*%
%LPD*%
G01*
G04 APERTURE LIST*
%ADD10C,0.100000*%
%ADD11C,0.150000*%
%ADD12C,0.120000*%
%ADD13C,0.127000*%
%ADD14C,0.503998*%
%ADD15C,0.504000*%
%ADD16C,0.503992*%
%ADD17C,0.504003*%
G04 APERTURE END LIST*
D10*
X238852328Y-61668989D02*
X238090424Y-61668989D01*
X238471376Y-62049942D02*
X238471376Y-61288037D01*
X234352326Y-61668987D02*
X233590422Y-61668987D01*
X198004339Y-61713907D02*
X198766244Y-61713907D01*
X202504339Y-61713907D02*
X203266244Y-61713907D01*
X202885291Y-62094860D02*
X202885291Y-61332955D01*
D11*
X320185529Y-47927736D02*
X320205896Y-47346828D01*
X319729166Y-47583841D02*
X320330981Y-46785206D01*
X320330981Y-46785206D02*
X320635223Y-47014469D01*
X320635223Y-47014469D02*
X320682626Y-47109815D01*
X320682626Y-47109815D02*
X320691998Y-47176503D01*
X320691998Y-47176503D02*
X320672713Y-47281221D01*
X320672713Y-47281221D02*
X320586739Y-47395312D01*
X320586739Y-47395312D02*
X320491393Y-47442715D01*
X320491393Y-47442715D02*
X320424705Y-47452087D01*
X320424705Y-47452087D02*
X320319987Y-47432802D01*
X320319987Y-47432802D02*
X320015745Y-47203539D01*
X320518429Y-48118968D02*
X320603862Y-48242972D01*
X320603862Y-48242972D02*
X320794014Y-48386261D01*
X320794014Y-48386261D02*
X320898732Y-48405547D01*
X320898732Y-48405547D02*
X320965420Y-48396174D01*
X320965420Y-48396174D02*
X321060766Y-48348772D01*
X321060766Y-48348772D02*
X321118082Y-48272711D01*
X321118082Y-48272711D02*
X321137367Y-48167993D01*
X321137367Y-48167993D02*
X321127995Y-48101305D01*
X321127995Y-48101305D02*
X321080592Y-48005959D01*
X321080592Y-48005959D02*
X320957129Y-47853297D01*
X320957129Y-47853297D02*
X320909726Y-47757951D01*
X320909726Y-47757951D02*
X320900354Y-47691263D01*
X320900354Y-47691263D02*
X320919639Y-47586545D01*
X320919639Y-47586545D02*
X320976955Y-47510484D01*
X320976955Y-47510484D02*
X321072301Y-47463081D01*
X321072301Y-47463081D02*
X321138989Y-47453709D01*
X321138989Y-47453709D02*
X321243708Y-47472994D01*
X321243708Y-47472994D02*
X321433859Y-47616284D01*
X321433859Y-47616284D02*
X321519292Y-47740288D01*
X321776131Y-47874205D02*
X322232494Y-48218099D01*
X321402498Y-48844787D02*
X322004313Y-48046152D01*
X170852503Y-38373279D02*
X170914516Y-38193181D01*
X170914516Y-38193181D02*
X170990547Y-38118635D01*
X170990547Y-38118635D02*
X171111603Y-38059592D01*
X171111603Y-38059592D02*
X171307205Y-38076580D01*
X171307205Y-38076580D02*
X171622378Y-38185103D01*
X171622378Y-38185103D02*
X171786973Y-38292140D01*
X171786973Y-38292140D02*
X171846016Y-38413196D01*
X171846016Y-38413196D02*
X171860035Y-38518749D01*
X171860035Y-38518749D02*
X171798022Y-38698848D01*
X171798022Y-38698848D02*
X171721990Y-38773394D01*
X171721990Y-38773394D02*
X171600935Y-38832437D01*
X171600935Y-38832437D02*
X171405332Y-38815448D01*
X171405332Y-38815448D02*
X171090160Y-38706926D01*
X171090160Y-38706926D02*
X170925564Y-38599888D01*
X170925564Y-38599888D02*
X170866521Y-38478832D01*
X170866521Y-38478832D02*
X170852503Y-38373279D01*
X171690331Y-37402695D02*
X171581808Y-37717867D01*
X172077080Y-37888403D02*
X171131561Y-37562835D01*
X171131561Y-37562835D02*
X171286594Y-37112588D01*
X171969390Y-36592250D02*
X171860867Y-36907423D01*
X172356138Y-37077959D02*
X171410620Y-36752390D01*
X171410620Y-36752390D02*
X171565652Y-36302143D01*
X161505844Y-34802429D02*
X161567857Y-34622330D01*
X161567857Y-34622330D02*
X161643888Y-34547784D01*
X161643888Y-34547784D02*
X161764944Y-34488741D01*
X161764944Y-34488741D02*
X161960546Y-34505729D01*
X161960546Y-34505729D02*
X162275719Y-34614252D01*
X162275719Y-34614252D02*
X162440314Y-34721290D01*
X162440314Y-34721290D02*
X162499357Y-34842346D01*
X162499357Y-34842346D02*
X162513375Y-34947898D01*
X162513375Y-34947898D02*
X162451362Y-35127997D01*
X162451362Y-35127997D02*
X162375331Y-35202543D01*
X162375331Y-35202543D02*
X162254275Y-35261586D01*
X162254275Y-35261586D02*
X162058673Y-35244598D01*
X162058673Y-35244598D02*
X161743500Y-35136075D01*
X161743500Y-35136075D02*
X161578905Y-35029037D01*
X161578905Y-35029037D02*
X161519862Y-34907982D01*
X161519862Y-34907982D02*
X161505844Y-34802429D01*
X162730421Y-34317553D02*
X161784902Y-33991984D01*
X161784902Y-33991984D02*
X162916460Y-33777256D01*
X162916460Y-33777256D02*
X161970941Y-33451688D01*
X115938008Y-48586055D02*
X115385218Y-48406357D01*
X115481645Y-48929949D02*
X114879830Y-48131313D01*
X114879830Y-48131313D02*
X115184072Y-47902051D01*
X115184072Y-47902051D02*
X115288791Y-47882765D01*
X115288791Y-47882765D02*
X115355479Y-47892137D01*
X115355479Y-47892137D02*
X115450825Y-47939540D01*
X115450825Y-47939540D02*
X115536798Y-48053631D01*
X115536798Y-48053631D02*
X115556084Y-48158349D01*
X115556084Y-48158349D02*
X115546711Y-48225037D01*
X115546711Y-48225037D02*
X115499309Y-48320383D01*
X115499309Y-48320383D02*
X115195067Y-48549646D01*
X116213593Y-48318761D02*
X116356341Y-48270818D01*
X116356341Y-48270818D02*
X116546493Y-48127529D01*
X116546493Y-48127529D02*
X116593895Y-48032183D01*
X116593895Y-48032183D02*
X116603268Y-47965495D01*
X116603268Y-47965495D02*
X116583982Y-47860776D01*
X116583982Y-47860776D02*
X116526666Y-47784716D01*
X116526666Y-47784716D02*
X116431320Y-47737313D01*
X116431320Y-47737313D02*
X116364632Y-47727941D01*
X116364632Y-47727941D02*
X116259914Y-47747226D01*
X116259914Y-47747226D02*
X116079135Y-47823827D01*
X116079135Y-47823827D02*
X115974417Y-47843113D01*
X115974417Y-47843113D02*
X115907729Y-47833740D01*
X115907729Y-47833740D02*
X115812383Y-47786338D01*
X115812383Y-47786338D02*
X115755067Y-47710277D01*
X115755067Y-47710277D02*
X115735781Y-47605559D01*
X115735781Y-47605559D02*
X115745154Y-47538871D01*
X115745154Y-47538871D02*
X115792556Y-47443525D01*
X115792556Y-47443525D02*
X115982708Y-47300235D01*
X115982708Y-47300235D02*
X116125456Y-47252292D01*
X116324980Y-47042315D02*
X116781343Y-46698420D01*
X117154977Y-47669003D02*
X116553162Y-46870368D01*
X274829079Y-33333678D02*
X274891092Y-33513777D01*
X274891092Y-33513777D02*
X274877074Y-33619330D01*
X274877074Y-33619330D02*
X274818031Y-33740386D01*
X274818031Y-33740386D02*
X274653436Y-33847423D01*
X274653436Y-33847423D02*
X274338263Y-33955946D01*
X274338263Y-33955946D02*
X274142661Y-33972934D01*
X274142661Y-33972934D02*
X274021605Y-33913891D01*
X274021605Y-33913891D02*
X273945574Y-33839345D01*
X273945574Y-33839345D02*
X273883561Y-33659247D01*
X273883561Y-33659247D02*
X273897579Y-33553694D01*
X273897579Y-33553694D02*
X273956622Y-33432638D01*
X273956622Y-33432638D02*
X274121217Y-33325600D01*
X274121217Y-33325600D02*
X274436390Y-33217078D01*
X274436390Y-33217078D02*
X274631992Y-33200089D01*
X274631992Y-33200089D02*
X274753048Y-33259132D01*
X274753048Y-33259132D02*
X274829079Y-33333678D01*
X274766414Y-34614328D02*
X274657891Y-34299155D01*
X274162619Y-34469691D02*
X275108138Y-34144123D01*
X275108138Y-34144123D02*
X275263170Y-34594370D01*
X275045472Y-35424773D02*
X274936949Y-35109600D01*
X274441678Y-35280136D02*
X275387196Y-34954567D01*
X275387196Y-34954567D02*
X275542229Y-35404814D01*
X265482412Y-36904537D02*
X265544425Y-37084636D01*
X265544425Y-37084636D02*
X265530407Y-37190188D01*
X265530407Y-37190188D02*
X265471364Y-37311244D01*
X265471364Y-37311244D02*
X265306768Y-37418282D01*
X265306768Y-37418282D02*
X264991596Y-37526805D01*
X264991596Y-37526805D02*
X264795994Y-37543793D01*
X264795994Y-37543793D02*
X264674938Y-37484750D01*
X264674938Y-37484750D02*
X264598906Y-37410204D01*
X264598906Y-37410204D02*
X264536893Y-37230105D01*
X264536893Y-37230105D02*
X264550912Y-37124552D01*
X264550912Y-37124552D02*
X264609955Y-37003497D01*
X264609955Y-37003497D02*
X264774550Y-36896459D01*
X264774550Y-36896459D02*
X265089723Y-36787936D01*
X265089723Y-36787936D02*
X265285325Y-36770948D01*
X265285325Y-36770948D02*
X265406381Y-36829991D01*
X265406381Y-36829991D02*
X265482412Y-36904537D01*
X264815952Y-38040550D02*
X265761470Y-37714981D01*
X265761470Y-37714981D02*
X265001991Y-38580846D01*
X265001991Y-38580846D02*
X265947509Y-38255278D01*
D10*
%TO.C,D16*%
X185407410Y-80899997D02*
X185807411Y-80899994D01*
X185807411Y-80899994D02*
X185807413Y-81449996D01*
X185807411Y-80899994D02*
X185807415Y-80349996D01*
X185807411Y-80899994D02*
X186407412Y-80499997D01*
X186407411Y-81300001D02*
X185807411Y-80899994D01*
X186407412Y-80499997D02*
X186407411Y-81300001D01*
X186407412Y-80899996D02*
X186907412Y-80899999D01*
%TO.C,D1*%
X335599376Y-95378702D02*
X335994454Y-95441281D01*
X335994454Y-95441281D02*
X335908419Y-95984510D01*
X335994454Y-95441281D02*
X336080497Y-94898046D01*
X335994454Y-95441281D02*
X336649637Y-95140057D01*
X336524494Y-95930215D02*
X335994454Y-95441281D01*
X336587073Y-95535135D02*
X337080914Y-95613358D01*
X336649637Y-95140057D02*
X336524494Y-95930215D01*
%TO.C,D18*%
X185407416Y-46900000D02*
X185807417Y-46899997D01*
X185807417Y-46899997D02*
X185807419Y-47449999D01*
X185807417Y-46899997D02*
X185807421Y-46349999D01*
X185807417Y-46899997D02*
X186407418Y-46500000D01*
X186407417Y-47300004D02*
X185807417Y-46899997D01*
X186407418Y-46500000D02*
X186407417Y-47300004D01*
X186407418Y-46899999D02*
X186907418Y-46900002D01*
%TO.C,D7*%
X301888350Y-79098523D02*
X302287382Y-79126421D01*
X302287382Y-79126421D02*
X302249015Y-79675075D01*
X302287382Y-79126421D02*
X302325745Y-78577758D01*
X302287382Y-79126421D02*
X302913823Y-78769239D01*
X302858018Y-79567298D02*
X302287382Y-79126421D01*
X302885916Y-79168268D02*
X303384708Y-79203137D01*
X302913823Y-78769239D02*
X302858018Y-79567298D01*
%TO.C,mouse-bite-1mm-3mm*%
X217000000Y-100099998D02*
G75*
G02*
X217000000Y-101100000I2J-500001D01*
G01*
X220000000Y-101100002D02*
G75*
G02*
X220000000Y-100099998I0J500002D01*
G01*
%TO.C,D4*%
X318808668Y-92719315D02*
X319203746Y-92781894D01*
X319203746Y-92781894D02*
X319117711Y-93325123D01*
X319203746Y-92781894D02*
X319289789Y-92238659D01*
X319203746Y-92781894D02*
X319858929Y-92480670D01*
X319733786Y-93270828D02*
X319203746Y-92781894D01*
X319796365Y-92875748D02*
X320290206Y-92953971D01*
X319858929Y-92480670D02*
X319733786Y-93270828D01*
D12*
%TO.C,JST1*%
X197590450Y-59312442D02*
X197590453Y-60312435D01*
X197590457Y-67132440D02*
X197590454Y-66132441D01*
X198510450Y-67132438D02*
X197590457Y-67132440D01*
X198590450Y-59312436D02*
X197590450Y-59312442D01*
D10*
X199150447Y-68172439D02*
X200150450Y-68172440D01*
X201650447Y-67672440D02*
X201650449Y-68672448D01*
X202150450Y-68172440D02*
X201150456Y-68172440D01*
D12*
X202790448Y-67132437D02*
X203710448Y-67132438D01*
X202790452Y-59312437D02*
X203710447Y-59312444D01*
X203710447Y-59312444D02*
X203710447Y-60312439D01*
X203710448Y-67132438D02*
X203710450Y-66132439D01*
D10*
%TO.C,D16*%
X250090811Y-80900823D02*
X250490814Y-80900824D01*
X250490814Y-80900824D02*
X250490814Y-80350822D01*
X250490814Y-80900824D02*
X250490814Y-81450822D01*
X250490814Y-80900824D02*
X251090815Y-80500820D01*
X251090813Y-80900821D02*
X251590819Y-80900821D01*
X251090815Y-80500820D02*
X251090817Y-81300823D01*
X251090817Y-81300823D02*
X250490814Y-80900824D01*
%TO.C,D4*%
X116708029Y-92953159D02*
X117103108Y-92890580D01*
X117103108Y-92890580D02*
X117017068Y-92347344D01*
X117103108Y-92890580D02*
X117189149Y-93433808D01*
X117103108Y-92890580D02*
X117633142Y-92401641D01*
X117633142Y-92401641D02*
X117758295Y-93191795D01*
X117695723Y-92796716D02*
X118189569Y-92718489D01*
X117758295Y-93191795D02*
X117103108Y-92890580D01*
%TO.C,mouse-bite-1mm-3mm*%
X217000000Y-43849999D02*
G75*
G02*
X217000000Y-44849999I1J-500000D01*
G01*
X220000000Y-44850001D02*
G75*
G02*
X220000000Y-43849999I0J500001D01*
G01*
%TO.C,D12*%
X284090816Y-38900813D02*
X284490819Y-38900814D01*
X284490819Y-38900814D02*
X284490819Y-38350812D01*
X284490819Y-38900814D02*
X284490819Y-39450812D01*
X284490819Y-38900814D02*
X285090820Y-38500810D01*
X285090818Y-38900811D02*
X285590824Y-38900811D01*
X285090820Y-38500810D02*
X285090822Y-39300813D01*
X285090822Y-39300813D02*
X284490819Y-38900814D01*
%TO.C,D14*%
X267090812Y-61900815D02*
X267490815Y-61900816D01*
X267490815Y-61900816D02*
X267490815Y-61350814D01*
X267490815Y-61900816D02*
X267490815Y-62450814D01*
X267490815Y-61900816D02*
X268090816Y-61500812D01*
X268090814Y-61900813D02*
X268590820Y-61900813D01*
X268090816Y-61500812D02*
X268090818Y-62300815D01*
X268090818Y-62300815D02*
X267490815Y-61900816D01*
%TO.C,D9*%
X131241805Y-45285148D02*
X131640831Y-45257246D01*
X131640831Y-45257246D02*
X131602470Y-44708582D01*
X131640831Y-45257246D02*
X131679201Y-45805905D01*
X131640831Y-45257246D02*
X132211469Y-44816365D01*
X132211469Y-44816365D02*
X132267273Y-45614419D01*
X132239377Y-45215392D02*
X132738157Y-45180514D01*
X132267273Y-45614419D02*
X131640831Y-45257246D01*
%TO.C,D6*%
X111389254Y-59371758D02*
X111784333Y-59309179D01*
X111784333Y-59309179D02*
X111698293Y-58765943D01*
X111784333Y-59309179D02*
X111870374Y-59852407D01*
X111784333Y-59309179D02*
X112314367Y-58820240D01*
X112314367Y-58820240D02*
X112439520Y-59610394D01*
X112376948Y-59215315D02*
X112870794Y-59137088D01*
X112439520Y-59610394D02*
X111784333Y-59309179D01*
%TO.C,D20*%
X185385278Y-99903234D02*
X185783754Y-99938094D01*
X185783754Y-99938094D02*
X185735823Y-100486008D01*
X185783754Y-99938094D02*
X185831696Y-99390183D01*
X185783754Y-99938094D02*
X186416335Y-99591916D01*
X186346610Y-100388874D02*
X185783754Y-99938094D01*
X186381476Y-99990394D02*
X186879574Y-100033972D01*
X186416335Y-99591916D02*
X186346610Y-100388874D01*
%TO.C,D3*%
X340918147Y-61797298D02*
X341313225Y-61859877D01*
X341313225Y-61859877D02*
X341227190Y-62403106D01*
X341313225Y-61859877D02*
X341399268Y-61316642D01*
X341313225Y-61859877D02*
X341968408Y-61558653D01*
X341843265Y-62348811D02*
X341313225Y-61859877D01*
X341905844Y-61953731D02*
X342399685Y-62031954D01*
X341968408Y-61558653D02*
X341843265Y-62348811D01*
%TO.C,D8*%
X303074211Y-62139939D02*
X303473243Y-62167837D01*
X303473243Y-62167837D02*
X303434876Y-62716491D01*
X303473243Y-62167837D02*
X303511606Y-61619174D01*
X303473243Y-62167837D02*
X304099684Y-61810655D01*
X304043879Y-62608714D02*
X303473243Y-62167837D01*
X304071777Y-62209684D02*
X304570569Y-62244553D01*
X304099684Y-61810655D02*
X304043879Y-62608714D01*
%TO.C,D13*%
X267090817Y-78900816D02*
X267490820Y-78900817D01*
X267490820Y-78900817D02*
X267490820Y-78350815D01*
X267490820Y-78900817D02*
X267490820Y-79450815D01*
X267490820Y-78900817D02*
X268090821Y-78500813D01*
X268090819Y-78900814D02*
X268590825Y-78900814D01*
X268090821Y-78500813D02*
X268090823Y-79300816D01*
X268090823Y-79300816D02*
X267490820Y-78900817D01*
%TO.C,D14*%
X168407410Y-61899993D02*
X168807411Y-61899990D01*
X168807411Y-61899990D02*
X168807413Y-62449992D01*
X168807411Y-61899990D02*
X168807415Y-61349992D01*
X168807411Y-61899990D02*
X169407412Y-61499993D01*
X169407411Y-62299997D02*
X168807411Y-61899990D01*
X169407412Y-61499993D02*
X169407411Y-62299997D01*
X169407412Y-61899992D02*
X169907412Y-61899995D01*
%TO.C,D15*%
X168407413Y-44899995D02*
X168807414Y-44899992D01*
X168807414Y-44899992D02*
X168807416Y-45449994D01*
X168807414Y-44899992D02*
X168807418Y-44349994D01*
X168807414Y-44899992D02*
X169407415Y-44499995D01*
X169407414Y-45299999D02*
X168807414Y-44899992D01*
X169407415Y-44499995D02*
X169407414Y-45299999D01*
X169407415Y-44899994D02*
X169907415Y-44899997D01*
D11*
%TO.C,RST1*%
X317447514Y-47486234D02*
X317597961Y-47286573D01*
X317447514Y-47486234D02*
X322239326Y-51097123D01*
X319553864Y-44691011D02*
X319403409Y-44890665D01*
X319553864Y-44691011D02*
X324345676Y-48301900D01*
X322239326Y-51097123D02*
X322389781Y-50897469D01*
X324345676Y-48301900D02*
X324195229Y-48501561D01*
D10*
%TO.C,D19*%
X268090814Y-98900819D02*
X268490817Y-98900820D01*
X268490817Y-98900820D02*
X268490817Y-98350818D01*
X268490817Y-98900820D02*
X268490817Y-99450818D01*
X268490817Y-98900820D02*
X269090818Y-98500816D01*
X269090816Y-98900817D02*
X269590822Y-98900817D01*
X269090818Y-98500816D02*
X269090820Y-99300819D01*
X269090820Y-99300819D02*
X268490817Y-98900820D01*
%TO.C,D17*%
X250090810Y-63900826D02*
X250490813Y-63900827D01*
X250490813Y-63900827D02*
X250490813Y-63350825D01*
X250490813Y-63900827D02*
X250490813Y-64450825D01*
X250490813Y-63900827D02*
X251090814Y-63500823D01*
X251090812Y-63900824D02*
X251590818Y-63900824D01*
X251090814Y-63500823D02*
X251090816Y-64300826D01*
X251090816Y-64300826D02*
X250490813Y-63900827D01*
%TO.C,D18*%
X250090814Y-46900821D02*
X250490817Y-46900822D01*
X250490817Y-46900822D02*
X250490817Y-46350820D01*
X250490817Y-46900822D02*
X250490817Y-47450820D01*
X250490817Y-46900822D02*
X251090818Y-46500818D01*
X251090816Y-46900819D02*
X251590822Y-46900819D01*
X251090818Y-46500818D02*
X251090820Y-47300821D01*
X251090820Y-47300821D02*
X250490817Y-46900822D01*
%TO.C,D11*%
X284090814Y-55900821D02*
X284490817Y-55900822D01*
X284490817Y-55900822D02*
X284490817Y-55350820D01*
X284490817Y-55900822D02*
X284490817Y-56450820D01*
X284490817Y-55900822D02*
X285090818Y-55500818D01*
X285090816Y-55900819D02*
X285590822Y-55900819D01*
X285090818Y-55500818D02*
X285090820Y-56300821D01*
X285090820Y-56300821D02*
X284490817Y-55900822D01*
D12*
%TO.C,JST1*%
X233196213Y-59267529D02*
X233196214Y-60267525D01*
X233196213Y-67087523D02*
X233196211Y-66087524D01*
X234116209Y-67087532D02*
X233196213Y-67087523D01*
X234196216Y-59267518D02*
X233196213Y-59267529D01*
D10*
X234756208Y-68127525D02*
X235756211Y-68127522D01*
X237256209Y-67627525D02*
X237256207Y-68627529D01*
X237756207Y-68127521D02*
X236756207Y-68127523D01*
D12*
X238396206Y-59267525D02*
X239316211Y-59267525D01*
X238396210Y-67087522D02*
X239316211Y-67087524D01*
X239316211Y-59267525D02*
X239316214Y-60267525D01*
X239316211Y-67087524D02*
X239316211Y-66087525D01*
D10*
%TO.C,D5*%
X321468055Y-75928613D02*
X321863133Y-75991192D01*
X321863133Y-75991192D02*
X321777098Y-76534421D01*
X321863133Y-75991192D02*
X321949176Y-75447957D01*
X321863133Y-75991192D02*
X322518316Y-75689968D01*
X322393173Y-76480126D02*
X321863133Y-75991192D01*
X322455752Y-76085046D02*
X322949593Y-76163269D01*
X322518316Y-75689968D02*
X322393173Y-76480126D01*
%TO.C,D19*%
X167407418Y-98899997D02*
X167807419Y-98899994D01*
X167807419Y-98899994D02*
X167807421Y-99449996D01*
X167807419Y-98899994D02*
X167807423Y-98349996D01*
X167807419Y-98899994D02*
X168407420Y-98499997D01*
X168407419Y-99300001D02*
X167807419Y-98899994D01*
X168407420Y-98499997D02*
X168407419Y-99300001D01*
X168407420Y-98899996D02*
X168907420Y-98899999D01*
%TO.C,D11*%
X151407419Y-55900003D02*
X151807420Y-55900000D01*
X151807420Y-55900000D02*
X151807422Y-56450002D01*
X151807420Y-55900000D02*
X151807424Y-55350002D01*
X151807420Y-55900000D02*
X152407421Y-55500003D01*
X152407420Y-56300007D02*
X151807420Y-55900000D01*
X152407421Y-55500003D02*
X152407420Y-56300007D01*
X152407421Y-55900002D02*
X152907421Y-55900005D01*
%TO.C,D10*%
X151407409Y-72899995D02*
X151807410Y-72899992D01*
X151807410Y-72899992D02*
X151807412Y-73449994D01*
X151807410Y-72899992D02*
X151807414Y-72349994D01*
X151807410Y-72899992D02*
X152407411Y-72499995D01*
X152407410Y-73299999D02*
X151807410Y-72899992D01*
X152407411Y-72499995D02*
X152407410Y-73299999D01*
X152407411Y-72899994D02*
X152907411Y-72899997D01*
%TO.C,D6*%
X324127444Y-59137916D02*
X324522522Y-59200495D01*
X324522522Y-59200495D02*
X324436487Y-59743724D01*
X324522522Y-59200495D02*
X324608565Y-58657260D01*
X324522522Y-59200495D02*
X325177705Y-58899271D01*
X325052562Y-59689429D02*
X324522522Y-59200495D01*
X325115141Y-59294349D02*
X325608982Y-59372572D01*
X325177705Y-58899271D02*
X325052562Y-59689429D01*
%TO.C,D8*%
X132427663Y-62243735D02*
X132826689Y-62215833D01*
X132826689Y-62215833D02*
X132788328Y-61667169D01*
X132826689Y-62215833D02*
X132865059Y-62764492D01*
X132826689Y-62215833D02*
X133397327Y-61774952D01*
X133397327Y-61774952D02*
X133453131Y-62573006D01*
X133425235Y-62173979D02*
X133924015Y-62139101D01*
X133453131Y-62573006D02*
X132826689Y-62215833D01*
%TO.C,REF\u002A\u002A*%
X197212420Y-57413005D02*
X197212416Y-40268006D01*
X199117417Y-59318006D02*
X213087420Y-59318003D01*
D13*
X201607417Y-38363003D02*
X201611151Y-37352729D01*
X202111145Y-36853001D02*
X210106408Y-36853010D01*
X210606415Y-37353005D02*
X210606421Y-38363000D01*
D10*
X213087414Y-38363003D02*
X199117417Y-38363008D01*
X214992411Y-57413003D02*
X214992416Y-40268002D01*
X197212419Y-40263997D02*
G75*
G02*
X199117414Y-38359001I1905008J-12D01*
G01*
X199117417Y-59318006D02*
G75*
G02*
X197212420Y-57413005I-4J1904993D01*
G01*
D13*
X201611151Y-37352729D02*
G75*
G02*
X202111145Y-36853001I500025J-297D01*
G01*
X210106408Y-36853010D02*
G75*
G02*
X210606410Y-37353005I-92J-500094D01*
G01*
D10*
X213087414Y-38363003D02*
G75*
G02*
X214992417Y-40268002I-58J-1905061D01*
G01*
X214992411Y-57413003D02*
G75*
G02*
X213087420Y-59318009I-1905015J9D01*
G01*
D14*
X197254417Y-38779004D02*
G75*
G02*
X196750419Y-38779004I-251999J0D01*
G01*
X196750419Y-38779004D02*
G75*
G02*
X197254417Y-38779004I251999J0D01*
G01*
D15*
X198528416Y-39496006D02*
G75*
G02*
X198024416Y-39496006I-252000J0D01*
G01*
X198024416Y-39496006D02*
G75*
G02*
X198528416Y-39496006I252000J0D01*
G01*
D10*
%TO.C,D3*%
X94598547Y-62031141D02*
X94993626Y-61968562D01*
X94993626Y-61968562D02*
X94907586Y-61425326D01*
X94993626Y-61968562D02*
X95079667Y-62511790D01*
X94993626Y-61968562D02*
X95523660Y-61479623D01*
X95523660Y-61479623D02*
X95648813Y-62269777D01*
X95586241Y-61874698D02*
X96080087Y-61796471D01*
X95648813Y-62269777D02*
X94993626Y-61968562D01*
%TO.C,D5*%
X114048642Y-76162455D02*
X114443721Y-76099876D01*
X114443721Y-76099876D02*
X114357681Y-75556640D01*
X114443721Y-76099876D02*
X114529762Y-76643104D01*
X114443721Y-76099876D02*
X114973755Y-75610937D01*
X114973755Y-75610937D02*
X115098908Y-76401091D01*
X115036336Y-76006012D02*
X115530182Y-75927785D01*
X115098908Y-76401091D02*
X114443721Y-76099876D01*
%TO.C,D10*%
X284090810Y-72900817D02*
X284490813Y-72900818D01*
X284490813Y-72900818D02*
X284490813Y-72350816D01*
X284490813Y-72900818D02*
X284490813Y-73450816D01*
X284490813Y-72900818D02*
X285090814Y-72500814D01*
X285090812Y-72900815D02*
X285590818Y-72900815D01*
X285090814Y-72500814D02*
X285090816Y-73300817D01*
X285090816Y-73300817D02*
X284490813Y-72900818D01*
%TO.C,D21*%
X230780589Y-104789869D02*
X231156458Y-104653060D01*
X231156458Y-104653060D02*
X230968350Y-104136229D01*
X231156458Y-104653060D02*
X231344569Y-105169889D01*
X231156458Y-104653060D02*
X231583469Y-104071974D01*
X231583469Y-104071974D02*
X231857086Y-104823727D01*
X231720270Y-104447847D02*
X232190117Y-104276837D01*
X231857086Y-104823727D02*
X231156458Y-104653060D01*
D12*
%TO.C,PWR1*%
X163823525Y-34506847D02*
X163566327Y-35253800D01*
X165162797Y-36914008D02*
X164973691Y-36848892D01*
X167999352Y-37890718D02*
X166391967Y-37337247D01*
X170090407Y-37500222D02*
X170347612Y-36753261D01*
X170109118Y-35602943D02*
X164719661Y-33747202D01*
D10*
%TO.C,D13*%
X168407412Y-78899999D02*
X168807413Y-78899996D01*
X168807413Y-78899996D02*
X168807415Y-79449998D01*
X168807413Y-78899996D02*
X168807417Y-78349998D01*
X168807413Y-78899996D02*
X169407414Y-78499999D01*
X169407413Y-79300003D02*
X168807413Y-78899996D01*
X169407414Y-78499999D02*
X169407413Y-79300003D01*
X169407414Y-78899998D02*
X169907414Y-78900001D01*
D11*
%TO.C,RST1*%
X112652555Y-48301091D02*
X112803018Y-48500746D01*
X112652555Y-48301091D02*
X117444369Y-44690198D01*
X114758911Y-51096312D02*
X114608462Y-50896654D01*
X114758911Y-51096312D02*
X119550725Y-47485419D01*
X117444369Y-44690198D02*
X117594818Y-44889856D01*
X119550725Y-47485419D02*
X119400262Y-47285764D01*
D10*
%TO.C,REF\u002A\u002A*%
X221895813Y-57413817D02*
X221895819Y-40268813D01*
X223800815Y-59318820D02*
X237770818Y-59318815D01*
D13*
X226290816Y-38363817D02*
X226294553Y-37353544D01*
X226794551Y-36853814D02*
X234789821Y-36853816D01*
X235289821Y-37353816D02*
X235289816Y-38363817D01*
D10*
X237770818Y-38363812D02*
X223800821Y-38363818D01*
X239675813Y-57413822D02*
X239675817Y-40268810D01*
X221895821Y-40264815D02*
G75*
G02*
X223800818Y-38359816I1905003J-4D01*
G01*
X223800815Y-59318820D02*
G75*
G02*
X221895813Y-57413817I3J1905005D01*
G01*
D13*
X226294553Y-37353544D02*
G75*
G02*
X226794551Y-36853814I500020J-290D01*
G01*
X234789821Y-36853816D02*
G75*
G02*
X235289817Y-37353816I-104J-500100D01*
G01*
D10*
X237770818Y-38363812D02*
G75*
G02*
X239675811Y-40268810I-41J-1905034D01*
G01*
X239675813Y-57413822D02*
G75*
G02*
X237770818Y-59318812I-1904996J6D01*
G01*
D16*
X221937813Y-38779815D02*
G75*
G02*
X221433821Y-38779815I-251996J0D01*
G01*
X221433821Y-38779815D02*
G75*
G02*
X221937813Y-38779815I251996J0D01*
G01*
D17*
X223211820Y-39496818D02*
G75*
G02*
X222707818Y-39496818I-252001J0D01*
G01*
X222707818Y-39496818D02*
G75*
G02*
X223211820Y-39496818I252001J0D01*
G01*
D10*
%TO.C,D2*%
X97257936Y-78821842D02*
X97653015Y-78759263D01*
X97653015Y-78759263D02*
X97566975Y-78216027D01*
X97653015Y-78759263D02*
X97739056Y-79302491D01*
X97653015Y-78759263D02*
X98183049Y-78270324D01*
X98183049Y-78270324D02*
X98308202Y-79060478D01*
X98245630Y-78665399D02*
X98739476Y-78587172D01*
X98308202Y-79060478D02*
X97653015Y-78759263D01*
%TO.C,D21*%
X204808110Y-104276013D02*
X205183994Y-104412825D01*
X205183994Y-104412825D02*
X204995881Y-104929652D01*
X205183994Y-104412825D02*
X205372094Y-103895996D01*
X205183994Y-104412825D02*
X205884615Y-104242162D01*
X205610997Y-104993915D02*
X205183994Y-104412825D01*
X205747806Y-104618033D02*
X206217652Y-104789047D01*
X205884615Y-104242162D02*
X205610997Y-104993915D01*
%TO.C,D17*%
X185407416Y-63899993D02*
X185807417Y-63899990D01*
X185807417Y-63899990D02*
X185807419Y-64449992D01*
X185807417Y-63899990D02*
X185807421Y-63349992D01*
X185807417Y-63899990D02*
X186407418Y-63499993D01*
X186407417Y-64299997D02*
X185807417Y-63899990D01*
X186407418Y-63499993D02*
X186407417Y-64299997D01*
X186407418Y-63899992D02*
X186907418Y-63899995D01*
D12*
%TO.C,PWR1*%
X266498913Y-36770330D02*
X266756119Y-37517292D01*
X269036281Y-37842668D02*
X268847170Y-37907776D01*
X271872834Y-36865961D02*
X270265453Y-37419429D01*
X272126864Y-33764273D02*
X266737408Y-35620014D01*
X273280197Y-35270867D02*
X273022999Y-34523911D01*
D10*
%TO.C,D7*%
X133613523Y-79202333D02*
X134012549Y-79174431D01*
X134012549Y-79174431D02*
X133974188Y-78625767D01*
X134012549Y-79174431D02*
X134050919Y-79723090D01*
X134012549Y-79174431D02*
X134583187Y-78733550D01*
X134583187Y-78733550D02*
X134638991Y-79531604D01*
X134611095Y-79132577D02*
X135109875Y-79097699D01*
X134638991Y-79531604D02*
X134012549Y-79174431D01*
%TO.C,D1*%
X99917320Y-95612545D02*
X100312399Y-95549966D01*
X100312399Y-95549966D02*
X100226359Y-95006730D01*
X100312399Y-95549966D02*
X100398440Y-96093194D01*
X100312399Y-95549966D02*
X100842433Y-95061027D01*
X100842433Y-95061027D02*
X100967586Y-95851181D01*
X100905014Y-95456102D02*
X101398860Y-95377875D01*
X100967586Y-95851181D02*
X100312399Y-95549966D01*
%TO.C,D9*%
X304260072Y-45181342D02*
X304659104Y-45209240D01*
X304659104Y-45209240D02*
X304620737Y-45757894D01*
X304659104Y-45209240D02*
X304697467Y-44660577D01*
X304659104Y-45209240D02*
X305285545Y-44852058D01*
X305229740Y-45650117D02*
X304659104Y-45209240D01*
X305257638Y-45251087D02*
X305756430Y-45285956D01*
X305285545Y-44852058D02*
X305229740Y-45650117D01*
%TO.C,D15*%
X267090812Y-44900817D02*
X267490815Y-44900818D01*
X267490815Y-44900818D02*
X267490815Y-44350816D01*
X267490815Y-44900818D02*
X267490815Y-45450816D01*
X267490815Y-44900818D02*
X268090816Y-44500814D01*
X268090814Y-44900815D02*
X268590820Y-44900815D01*
X268090816Y-44500814D02*
X268090818Y-45300817D01*
X268090818Y-45300817D02*
X267490815Y-44900818D01*
%TO.C,mouse-bite-1mm-3mm*%
X217000000Y-40299998D02*
G75*
G02*
X217000000Y-41300000I2J-500001D01*
G01*
X220000000Y-41300002D02*
G75*
G02*
X220000000Y-40299998I0J500002D01*
G01*
%TO.C,D20*%
X250118668Y-100034787D02*
X250517148Y-99999925D01*
X250517148Y-99999925D02*
X250469211Y-99452015D01*
X250517148Y-99999925D02*
X250565082Y-100547834D01*
X250517148Y-99999925D02*
X251079996Y-99549148D01*
X251079996Y-99549148D02*
X251149733Y-100346108D01*
X251114866Y-99947626D02*
X251612962Y-99904049D01*
X251149733Y-100346108D02*
X250517148Y-99999925D01*
%TO.C,D12*%
X151407421Y-38900003D02*
X151807422Y-38900000D01*
X151807422Y-38900000D02*
X151807424Y-39450002D01*
X151807422Y-38900000D02*
X151807426Y-38350002D01*
X151807422Y-38900000D02*
X152407423Y-38500003D01*
X152407422Y-39300007D02*
X151807422Y-38900000D01*
X152407423Y-38500003D02*
X152407422Y-39300007D01*
X152407423Y-38900002D02*
X152907423Y-38900005D01*
%TO.C,D2*%
X338258760Y-78587999D02*
X338653838Y-78650578D01*
X338653838Y-78650578D02*
X338567803Y-79193807D01*
X338653838Y-78650578D02*
X338739881Y-78107343D01*
X338653838Y-78650578D02*
X339309021Y-78349354D01*
X339183878Y-79139512D02*
X338653838Y-78650578D01*
X339246457Y-78744432D02*
X339740298Y-78822655D01*
X339309021Y-78349354D02*
X339183878Y-79139512D01*
%TO.C,mouse-bite-1mm-3mm*%
X217000000Y-96499999D02*
G75*
G02*
X217000000Y-97499999I1J-500000D01*
G01*
X220000000Y-97500001D02*
G75*
G02*
X220000000Y-96499999I0J500001D01*
G01*
%TD*%
M02*
