%TF.GenerationSoftware,KiCad,Pcbnew,8.0.6*%
%TF.CreationDate,2025-07-20T13:06:01+02:00*%
%TF.ProjectId,combined,636f6d62-696e-4656-942e-6b696361645f,v1.0.0*%
%TF.SameCoordinates,Original*%
%TF.FileFunction,Legend,Bot*%
%TF.FilePolarity,Positive*%
%FSLAX46Y46*%
G04 Gerber Fmt 4.6, Leading zero omitted, Abs format (unit mm)*
G04 Created by KiCad (PCBNEW 8.0.6) date 2025-07-20 13:06:01*
%MOMM*%
%LPD*%
G01*
G04 APERTURE LIST*
%ADD10C,0.100000*%
G04 APERTURE END LIST*
D10*
%TO.C,D16*%
X186457098Y-80904248D02*
X186957097Y-80904247D01*
X186457096Y-80504245D02*
X186457094Y-81304253D01*
X186457094Y-81304253D02*
X185857095Y-80904242D01*
X185857095Y-80904242D02*
X186457096Y-80504245D01*
X185857095Y-80904242D02*
X185857098Y-81454247D01*
X185857095Y-80904242D02*
X185857098Y-80354245D01*
X185457095Y-80904249D02*
X185857095Y-80904242D01*
%TO.C,D1*%
X336699319Y-95144306D02*
X336574175Y-95934465D01*
X336636756Y-95539389D02*
X337130594Y-95617611D01*
X336574175Y-95934465D02*
X336044137Y-95445529D01*
X336044137Y-95445529D02*
X336699319Y-95144306D01*
X336044137Y-95445529D02*
X336130180Y-94902295D01*
X336044137Y-95445529D02*
X335958105Y-95988759D01*
X335649060Y-95382951D02*
X336044137Y-95445529D01*
%TO.C,D18*%
X186457100Y-46904248D02*
X186957099Y-46904247D01*
X186457098Y-46504245D02*
X186457096Y-47304253D01*
X186457096Y-47304253D02*
X185857097Y-46904242D01*
X185857097Y-46904242D02*
X186457098Y-46504245D01*
X185857097Y-46904242D02*
X185857100Y-47454247D01*
X185857097Y-46904242D02*
X185857100Y-46354245D01*
X185457097Y-46904249D02*
X185857097Y-46904242D01*
%TO.C,D7*%
X302963509Y-78773486D02*
X302907699Y-79571548D01*
X302935601Y-79172518D02*
X303434393Y-79207388D01*
X302907699Y-79571548D02*
X302337064Y-79130673D01*
X302337064Y-79130673D02*
X302963509Y-78773486D01*
X302337064Y-79130673D02*
X302375428Y-78582008D01*
X302337064Y-79130673D02*
X302298700Y-79679328D01*
X301938029Y-79102774D02*
X302337064Y-79130673D01*
%TO.C,D4*%
X319908611Y-92484916D02*
X319783467Y-93275075D01*
X319846048Y-92879999D02*
X320339886Y-92958221D01*
X319783467Y-93275075D02*
X319253429Y-92786139D01*
X319253429Y-92786139D02*
X319908611Y-92484916D01*
X319253429Y-92786139D02*
X319339472Y-92242905D01*
X319253429Y-92786139D02*
X319167397Y-93329369D01*
X318858352Y-92723561D02*
X319253429Y-92786139D01*
%TO.C,D16*%
X251140500Y-80905073D02*
X251640500Y-80905071D01*
X251140499Y-81305073D02*
X250540494Y-80905072D01*
X251140498Y-80505066D02*
X251140499Y-81305073D01*
X250540494Y-80905072D02*
X251140498Y-80505066D01*
X250540494Y-80905072D02*
X250540499Y-81455074D01*
X250540494Y-80905072D02*
X250540492Y-80355072D01*
X250140496Y-80905073D02*
X250540494Y-80905072D01*
%TO.C,D4*%
X117807975Y-93196043D02*
X117152791Y-92894830D01*
X117745403Y-92800963D02*
X118239253Y-92722738D01*
X117682821Y-92405887D02*
X117807975Y-93196043D01*
X117152791Y-92894830D02*
X117682821Y-92405887D01*
X117152791Y-92894830D02*
X117238830Y-93438056D01*
X117152791Y-92894830D02*
X117066750Y-92351591D01*
X116757707Y-92957406D02*
X117152791Y-92894830D01*
%TO.C,D12*%
X285140508Y-38905062D02*
X285640508Y-38905060D01*
X285140507Y-39305062D02*
X284540502Y-38905061D01*
X285140506Y-38505055D02*
X285140507Y-39305062D01*
X284540502Y-38905061D02*
X285140506Y-38505055D01*
X284540502Y-38905061D02*
X284540507Y-39455063D01*
X284540502Y-38905061D02*
X284540500Y-38355061D01*
X284140504Y-38905062D02*
X284540502Y-38905061D01*
%TO.C,D14*%
X268140499Y-61905062D02*
X268640499Y-61905060D01*
X268140498Y-62305062D02*
X267540493Y-61905061D01*
X268140497Y-61505055D02*
X268140498Y-62305062D01*
X267540493Y-61905061D02*
X268140497Y-61505055D01*
X267540493Y-61905061D02*
X267540498Y-62455063D01*
X267540493Y-61905061D02*
X267540491Y-61355061D01*
X267140495Y-61905062D02*
X267540493Y-61905061D01*
%TO.C,D9*%
X132316953Y-45618669D02*
X131690513Y-45261497D01*
X132289060Y-45219643D02*
X132787842Y-45184761D01*
X132261154Y-44820613D02*
X132316953Y-45618669D01*
X131690513Y-45261497D02*
X132261154Y-44820613D01*
X131690513Y-45261497D02*
X131728883Y-45810154D01*
X131690513Y-45261497D02*
X131652149Y-44712831D01*
X131291486Y-45289401D02*
X131690513Y-45261497D01*
%TO.C,D6*%
X112489202Y-59614643D02*
X111834018Y-59313430D01*
X112426630Y-59219563D02*
X112920480Y-59141338D01*
X112364048Y-58824487D02*
X112489202Y-59614643D01*
X111834018Y-59313430D02*
X112364048Y-58824487D01*
X111834018Y-59313430D02*
X111920057Y-59856656D01*
X111834018Y-59313430D02*
X111747977Y-58770191D01*
X111438934Y-59376006D02*
X111834018Y-59313430D01*
%TO.C,D20*%
X186466018Y-99596163D02*
X186396289Y-100393123D01*
X186431162Y-99994646D02*
X186929255Y-100038222D01*
X186396289Y-100393123D02*
X185833431Y-99942343D01*
X185833431Y-99942343D02*
X186466018Y-99596163D01*
X185833431Y-99942343D02*
X185881380Y-99394430D01*
X185833431Y-99942343D02*
X185785507Y-100490258D01*
X185434963Y-99907482D02*
X185833431Y-99942343D01*
%TO.C,D3*%
X342018088Y-61562898D02*
X341892944Y-62353057D01*
X341955525Y-61957981D02*
X342449363Y-62036203D01*
X341892944Y-62353057D02*
X341362906Y-61864121D01*
X341362906Y-61864121D02*
X342018088Y-61562898D01*
X341362906Y-61864121D02*
X341448949Y-61320887D01*
X341362906Y-61864121D02*
X341276874Y-62407351D01*
X340967829Y-61801543D02*
X341362906Y-61864121D01*
%TO.C,D8*%
X304149366Y-61814902D02*
X304093556Y-62612964D01*
X304121458Y-62213934D02*
X304620250Y-62248804D01*
X304093556Y-62612964D02*
X303522921Y-62172089D01*
X303522921Y-62172089D02*
X304149366Y-61814902D01*
X303522921Y-62172089D02*
X303561285Y-61623424D01*
X303522921Y-62172089D02*
X303484557Y-62720744D01*
X303123886Y-62144190D02*
X303522921Y-62172089D01*
%TO.C,D13*%
X268140506Y-78905062D02*
X268640506Y-78905060D01*
X268140505Y-79305062D02*
X267540500Y-78905061D01*
X268140504Y-78505055D02*
X268140505Y-79305062D01*
X267540500Y-78905061D02*
X268140504Y-78505055D01*
X267540500Y-78905061D02*
X267540505Y-79455063D01*
X267540500Y-78905061D02*
X267540498Y-78355061D01*
X267140502Y-78905062D02*
X267540500Y-78905061D01*
%TO.C,D14*%
X169457098Y-61904243D02*
X169957097Y-61904242D01*
X169457096Y-61504240D02*
X169457094Y-62304248D01*
X169457094Y-62304248D02*
X168857095Y-61904237D01*
X168857095Y-61904237D02*
X169457096Y-61504240D01*
X168857095Y-61904237D02*
X168857098Y-62454242D01*
X168857095Y-61904237D02*
X168857098Y-61354240D01*
X168457095Y-61904244D02*
X168857095Y-61904237D01*
%TO.C,D15*%
X169457096Y-44904244D02*
X169957095Y-44904243D01*
X169457094Y-44504241D02*
X169457092Y-45304249D01*
X169457092Y-45304249D02*
X168857093Y-44904238D01*
X168857093Y-44904238D02*
X169457094Y-44504241D01*
X168857093Y-44904238D02*
X168857096Y-45454243D01*
X168857093Y-44904238D02*
X168857096Y-44354241D01*
X168457093Y-44904245D02*
X168857093Y-44904238D01*
%TO.C,D19*%
X269140504Y-98905070D02*
X269640504Y-98905068D01*
X269140503Y-99305070D02*
X268540498Y-98905069D01*
X269140502Y-98505063D02*
X269140503Y-99305070D01*
X268540498Y-98905069D02*
X269140502Y-98505063D01*
X268540498Y-98905069D02*
X268540503Y-99455071D01*
X268540498Y-98905069D02*
X268540496Y-98355069D01*
X268140500Y-98905070D02*
X268540498Y-98905069D01*
%TO.C,D17*%
X251140497Y-63905078D02*
X251640497Y-63905076D01*
X251140496Y-64305078D02*
X250540491Y-63905077D01*
X251140495Y-63505071D02*
X251140496Y-64305078D01*
X250540491Y-63905077D02*
X251140495Y-63505071D01*
X250540491Y-63905077D02*
X250540496Y-64455079D01*
X250540491Y-63905077D02*
X250540489Y-63355077D01*
X250140493Y-63905078D02*
X250540491Y-63905077D01*
%TO.C,D18*%
X251140502Y-46905068D02*
X251640502Y-46905066D01*
X251140501Y-47305068D02*
X250540496Y-46905067D01*
X251140500Y-46505061D02*
X251140501Y-47305068D01*
X250540496Y-46905067D02*
X251140500Y-46505061D01*
X250540496Y-46905067D02*
X250540501Y-47455069D01*
X250540496Y-46905067D02*
X250540494Y-46355067D01*
X250140498Y-46905068D02*
X250540496Y-46905067D01*
%TO.C,D11*%
X285140505Y-55905070D02*
X285640505Y-55905068D01*
X285140504Y-56305070D02*
X284540499Y-55905069D01*
X285140503Y-55505063D02*
X285140504Y-56305070D01*
X284540499Y-55905069D02*
X285140503Y-55505063D01*
X284540499Y-55905069D02*
X284540504Y-56455071D01*
X284540499Y-55905069D02*
X284540497Y-55355069D01*
X284140501Y-55905070D02*
X284540499Y-55905069D01*
%TO.C,D5*%
X322568002Y-75694215D02*
X322442858Y-76484374D01*
X322505439Y-76089298D02*
X322999277Y-76167520D01*
X322442858Y-76484374D02*
X321912820Y-75995438D01*
X321912820Y-75995438D02*
X322568002Y-75694215D01*
X321912820Y-75995438D02*
X321998863Y-75452204D01*
X321912820Y-75995438D02*
X321826788Y-76538668D01*
X321517743Y-75932860D02*
X321912820Y-75995438D01*
%TO.C,D19*%
X168457104Y-98904247D02*
X168957103Y-98904246D01*
X168457102Y-98504244D02*
X168457100Y-99304252D01*
X168457100Y-99304252D02*
X167857101Y-98904241D01*
X167857101Y-98904241D02*
X168457102Y-98504244D01*
X167857101Y-98904241D02*
X167857104Y-99454246D01*
X167857101Y-98904241D02*
X167857104Y-98354244D01*
X167457101Y-98904248D02*
X167857101Y-98904241D01*
%TO.C,D11*%
X152457107Y-55904251D02*
X152957106Y-55904250D01*
X152457105Y-55504248D02*
X152457103Y-56304256D01*
X152457103Y-56304256D02*
X151857104Y-55904245D01*
X151857104Y-55904245D02*
X152457105Y-55504248D01*
X151857104Y-55904245D02*
X151857107Y-56454250D01*
X151857104Y-55904245D02*
X151857107Y-55354248D01*
X151457104Y-55904252D02*
X151857104Y-55904245D01*
%TO.C,D10*%
X152457097Y-72904244D02*
X152957096Y-72904243D01*
X152457095Y-72504241D02*
X152457093Y-73304249D01*
X152457093Y-73304249D02*
X151857094Y-72904238D01*
X151857094Y-72904238D02*
X152457095Y-72504241D01*
X151857094Y-72904238D02*
X151857097Y-73454243D01*
X151857094Y-72904238D02*
X151857097Y-72354241D01*
X151457094Y-72904245D02*
X151857094Y-72904238D01*
%TO.C,D6*%
X325227388Y-58903515D02*
X325102244Y-59693674D01*
X325164825Y-59298598D02*
X325658663Y-59376820D01*
X325102244Y-59693674D02*
X324572206Y-59204738D01*
X324572206Y-59204738D02*
X325227388Y-58903515D01*
X324572206Y-59204738D02*
X324658249Y-58661504D01*
X324572206Y-59204738D02*
X324486174Y-59747968D01*
X324177129Y-59142160D02*
X324572206Y-59204738D01*
%TO.C,D8*%
X133502813Y-62577254D02*
X132876373Y-62220082D01*
X133474920Y-62178228D02*
X133973702Y-62143346D01*
X133447014Y-61779198D02*
X133502813Y-62577254D01*
X132876373Y-62220082D02*
X133447014Y-61779198D01*
X132876373Y-62220082D02*
X132914743Y-62768739D01*
X132876373Y-62220082D02*
X132838009Y-61671416D01*
X132477346Y-62247986D02*
X132876373Y-62220082D01*
%TO.C,D3*%
X95698496Y-62274030D02*
X95043312Y-61972817D01*
X95635924Y-61878950D02*
X96129774Y-61800725D01*
X95573342Y-61483874D02*
X95698496Y-62274030D01*
X95043312Y-61972817D02*
X95573342Y-61483874D01*
X95043312Y-61972817D02*
X95129351Y-62516043D01*
X95043312Y-61972817D02*
X94957271Y-61429578D01*
X94648228Y-62035393D02*
X95043312Y-61972817D01*
%TO.C,D5*%
X115148591Y-76405342D02*
X114493407Y-76104129D01*
X115086019Y-76010262D02*
X115579869Y-75932037D01*
X115023437Y-75615186D02*
X115148591Y-76405342D01*
X114493407Y-76104129D02*
X115023437Y-75615186D01*
X114493407Y-76104129D02*
X114579446Y-76647355D01*
X114493407Y-76104129D02*
X114407366Y-75560890D01*
X114098323Y-76166705D02*
X114493407Y-76104129D01*
%TO.C,D10*%
X285140500Y-72905068D02*
X285640500Y-72905066D01*
X285140499Y-73305068D02*
X284540494Y-72905067D01*
X285140498Y-72505061D02*
X285140499Y-73305068D01*
X284540494Y-72905067D02*
X285140498Y-72505061D01*
X284540494Y-72905067D02*
X284540499Y-73455069D01*
X284540494Y-72905067D02*
X284540492Y-72355067D01*
X284140496Y-72905068D02*
X284540494Y-72905067D01*
%TO.C,D21*%
X231906769Y-104827976D02*
X231206147Y-104657308D01*
X231769952Y-104452096D02*
X232239798Y-104281088D01*
X231633150Y-104076222D02*
X231906769Y-104827976D01*
X231206147Y-104657308D02*
X231633150Y-104076222D01*
X231206147Y-104657308D02*
X231394252Y-105174138D01*
X231206147Y-104657308D02*
X231018037Y-104140478D01*
X230830276Y-104794116D02*
X231206147Y-104657308D01*
%TO.C,D13*%
X169457099Y-78904250D02*
X169957098Y-78904249D01*
X169457097Y-78504247D02*
X169457095Y-79304255D01*
X169457095Y-79304255D02*
X168857096Y-78904244D01*
X168857096Y-78904244D02*
X169457097Y-78504247D01*
X168857096Y-78904244D02*
X168857099Y-79454249D01*
X168857096Y-78904244D02*
X168857099Y-78354247D01*
X168457096Y-78904251D02*
X168857096Y-78904244D01*
%TO.C,D2*%
X98357887Y-79064726D02*
X97702703Y-78763513D01*
X98295315Y-78669646D02*
X98789165Y-78591421D01*
X98232733Y-78274570D02*
X98357887Y-79064726D01*
X97702703Y-78763513D02*
X98232733Y-78274570D01*
X97702703Y-78763513D02*
X97788742Y-79306739D01*
X97702703Y-78763513D02*
X97616662Y-78220274D01*
X97307619Y-78826089D02*
X97702703Y-78763513D01*
%TO.C,D21*%
X205934294Y-104246407D02*
X205660680Y-104998164D01*
X205797487Y-104622278D02*
X206267338Y-104793289D01*
X205660680Y-104998164D02*
X205233681Y-104417072D01*
X205233681Y-104417072D02*
X205934294Y-104246407D01*
X205233681Y-104417072D02*
X205421780Y-103900241D01*
X205233681Y-104417072D02*
X205045562Y-104933898D01*
X204857792Y-104280263D02*
X205233681Y-104417072D01*
%TO.C,D17*%
X186457103Y-63904244D02*
X186957102Y-63904243D01*
X186457101Y-63504241D02*
X186457099Y-64304249D01*
X186457099Y-64304249D02*
X185857100Y-63904238D01*
X185857100Y-63904238D02*
X186457101Y-63504241D01*
X185857100Y-63904238D02*
X185857103Y-64454243D01*
X185857100Y-63904238D02*
X185857103Y-63354241D01*
X185457100Y-63904245D02*
X185857100Y-63904238D01*
%TO.C,D7*%
X134688670Y-79535852D02*
X134062230Y-79178680D01*
X134660777Y-79136826D02*
X135159559Y-79101944D01*
X134632871Y-78737796D02*
X134688670Y-79535852D01*
X134062230Y-79178680D02*
X134632871Y-78737796D01*
X134062230Y-79178680D02*
X134100600Y-79727337D01*
X134062230Y-79178680D02*
X134023866Y-78630014D01*
X133663203Y-79206584D02*
X134062230Y-79178680D01*
%TO.C,D1*%
X101017266Y-95855430D02*
X100362082Y-95554217D01*
X100954694Y-95460350D02*
X101448544Y-95382125D01*
X100892112Y-95065274D02*
X101017266Y-95855430D01*
X100362082Y-95554217D02*
X100892112Y-95065274D01*
X100362082Y-95554217D02*
X100448121Y-96097443D01*
X100362082Y-95554217D02*
X100276041Y-95010978D01*
X99966998Y-95616793D02*
X100362082Y-95554217D01*
%TO.C,D9*%
X305335232Y-44856300D02*
X305279422Y-45654362D01*
X305307324Y-45255332D02*
X305806116Y-45290202D01*
X305279422Y-45654362D02*
X304708787Y-45213487D01*
X304708787Y-45213487D02*
X305335232Y-44856300D01*
X304708787Y-45213487D02*
X304747151Y-44664822D01*
X304708787Y-45213487D02*
X304670423Y-45762142D01*
X304309752Y-45185588D02*
X304708787Y-45213487D01*
%TO.C,D15*%
X268140496Y-44905065D02*
X268640496Y-44905063D01*
X268140495Y-45305065D02*
X267540490Y-44905064D01*
X268140494Y-44505058D02*
X268140495Y-45305065D01*
X267540490Y-44905064D02*
X268140494Y-44505058D01*
X267540490Y-44905064D02*
X267540495Y-45455066D01*
X267540490Y-44905064D02*
X267540488Y-44355064D01*
X267140492Y-44905065D02*
X267540490Y-44905064D01*
%TO.C,D20*%
X251199414Y-100350357D02*
X250566835Y-100004173D01*
X251164547Y-99951874D02*
X251662645Y-99908296D01*
X251129681Y-99553396D02*
X251199414Y-100350357D01*
X250566835Y-100004173D02*
X251129681Y-99553396D01*
X250566835Y-100004173D02*
X250614768Y-100552086D01*
X250566835Y-100004173D02*
X250518891Y-99456264D01*
X250168351Y-100039038D02*
X250566835Y-100004173D01*
%TO.C,D12*%
X152457104Y-38904252D02*
X152957103Y-38904251D01*
X152457102Y-38504249D02*
X152457100Y-39304257D01*
X152457100Y-39304257D02*
X151857101Y-38904246D01*
X151857101Y-38904246D02*
X152457102Y-38504249D01*
X151857101Y-38904246D02*
X151857104Y-39454251D01*
X151857101Y-38904246D02*
X151857104Y-38354249D01*
X151457101Y-38904253D02*
X151857101Y-38904246D01*
%TO.C,D2*%
X339358705Y-78353602D02*
X339233561Y-79143761D01*
X339296142Y-78748685D02*
X339789980Y-78826907D01*
X339233561Y-79143761D02*
X338703523Y-78654825D01*
X338703523Y-78654825D02*
X339358705Y-78353602D01*
X338703523Y-78654825D02*
X338789566Y-78111591D01*
X338703523Y-78654825D02*
X338617491Y-79198055D01*
X338308446Y-78592247D02*
X338703523Y-78654825D01*
%TD*%
M02*
