%TF.GenerationSoftware,KiCad,Pcbnew,8.0.6*%
%TF.CreationDate,2025-07-15T00:14:33+02:00*%
%TF.ProjectId,combined,636f6d62-696e-4656-942e-6b696361645f,v1.0.0*%
%TF.SameCoordinates,Original*%
%TF.FileFunction,Legend,Top*%
%TF.FilePolarity,Positive*%
%FSLAX46Y46*%
G04 Gerber Fmt 4.6, Leading zero omitted, Abs format (unit mm)*
G04 Created by KiCad (PCBNEW 8.0.6) date 2025-07-15 00:14:33*
%MOMM*%
%LPD*%
G01*
G04 APERTURE LIST*
%ADD10C,0.100000*%
%ADD11C,0.150000*%
%ADD12C,0.120000*%
%ADD13C,0.504000*%
%ADD14C,0.503999*%
%ADD15C,0.127000*%
%ADD16C,0.504003*%
%ADD17C,0.503994*%
G04 APERTURE END LIST*
D10*
X238852327Y-61668990D02*
X238090423Y-61668990D01*
X238471375Y-62049943D02*
X238471375Y-61288038D01*
X234352326Y-61668988D02*
X233590422Y-61668988D01*
X198004339Y-61713907D02*
X198766244Y-61713907D01*
X202504339Y-61713907D02*
X203266244Y-61713907D01*
X202885291Y-62094860D02*
X202885291Y-61332955D01*
D11*
X320185528Y-47927736D02*
X320205895Y-47346828D01*
X319729165Y-47583841D02*
X320330980Y-46785206D01*
X320330980Y-46785206D02*
X320635222Y-47014469D01*
X320635222Y-47014469D02*
X320682625Y-47109815D01*
X320682625Y-47109815D02*
X320691997Y-47176503D01*
X320691997Y-47176503D02*
X320672712Y-47281221D01*
X320672712Y-47281221D02*
X320586738Y-47395312D01*
X320586738Y-47395312D02*
X320491392Y-47442715D01*
X320491392Y-47442715D02*
X320424704Y-47452087D01*
X320424704Y-47452087D02*
X320319986Y-47432802D01*
X320319986Y-47432802D02*
X320015744Y-47203539D01*
X320518428Y-48118968D02*
X320603861Y-48242972D01*
X320603861Y-48242972D02*
X320794013Y-48386261D01*
X320794013Y-48386261D02*
X320898731Y-48405547D01*
X320898731Y-48405547D02*
X320965419Y-48396174D01*
X320965419Y-48396174D02*
X321060765Y-48348772D01*
X321060765Y-48348772D02*
X321118081Y-48272711D01*
X321118081Y-48272711D02*
X321137366Y-48167993D01*
X321137366Y-48167993D02*
X321127994Y-48101305D01*
X321127994Y-48101305D02*
X321080591Y-48005959D01*
X321080591Y-48005959D02*
X320957128Y-47853297D01*
X320957128Y-47853297D02*
X320909725Y-47757951D01*
X320909725Y-47757951D02*
X320900353Y-47691263D01*
X320900353Y-47691263D02*
X320919638Y-47586545D01*
X320919638Y-47586545D02*
X320976954Y-47510484D01*
X320976954Y-47510484D02*
X321072300Y-47463081D01*
X321072300Y-47463081D02*
X321138988Y-47453709D01*
X321138988Y-47453709D02*
X321243707Y-47472994D01*
X321243707Y-47472994D02*
X321433858Y-47616284D01*
X321433858Y-47616284D02*
X321519291Y-47740288D01*
X321776130Y-47874205D02*
X322232493Y-48218099D01*
X321402497Y-48844787D02*
X322004312Y-48046152D01*
X161505845Y-34802429D02*
X161567858Y-34622330D01*
X161567858Y-34622330D02*
X161643889Y-34547784D01*
X161643889Y-34547784D02*
X161764945Y-34488741D01*
X161764945Y-34488741D02*
X161960547Y-34505729D01*
X161960547Y-34505729D02*
X162275720Y-34614252D01*
X162275720Y-34614252D02*
X162440315Y-34721290D01*
X162440315Y-34721290D02*
X162499358Y-34842346D01*
X162499358Y-34842346D02*
X162513376Y-34947898D01*
X162513376Y-34947898D02*
X162451363Y-35127997D01*
X162451363Y-35127997D02*
X162375332Y-35202543D01*
X162375332Y-35202543D02*
X162254276Y-35261586D01*
X162254276Y-35261586D02*
X162058674Y-35244598D01*
X162058674Y-35244598D02*
X161743501Y-35136075D01*
X161743501Y-35136075D02*
X161578906Y-35029037D01*
X161578906Y-35029037D02*
X161519863Y-34907982D01*
X161519863Y-34907982D02*
X161505845Y-34802429D01*
X162730422Y-34317553D02*
X161784903Y-33991984D01*
X161784903Y-33991984D02*
X162916461Y-33777256D01*
X162916461Y-33777256D02*
X161970942Y-33451688D01*
X170852502Y-38373279D02*
X170914515Y-38193181D01*
X170914515Y-38193181D02*
X170990546Y-38118635D01*
X170990546Y-38118635D02*
X171111602Y-38059592D01*
X171111602Y-38059592D02*
X171307204Y-38076580D01*
X171307204Y-38076580D02*
X171622377Y-38185103D01*
X171622377Y-38185103D02*
X171786972Y-38292140D01*
X171786972Y-38292140D02*
X171846015Y-38413196D01*
X171846015Y-38413196D02*
X171860034Y-38518749D01*
X171860034Y-38518749D02*
X171798021Y-38698848D01*
X171798021Y-38698848D02*
X171721989Y-38773394D01*
X171721989Y-38773394D02*
X171600934Y-38832437D01*
X171600934Y-38832437D02*
X171405331Y-38815448D01*
X171405331Y-38815448D02*
X171090159Y-38706926D01*
X171090159Y-38706926D02*
X170925563Y-38599888D01*
X170925563Y-38599888D02*
X170866520Y-38478832D01*
X170866520Y-38478832D02*
X170852502Y-38373279D01*
X171690330Y-37402695D02*
X171581807Y-37717867D01*
X172077079Y-37888403D02*
X171131560Y-37562835D01*
X171131560Y-37562835D02*
X171286593Y-37112588D01*
X171969389Y-36592250D02*
X171860866Y-36907423D01*
X172356137Y-37077959D02*
X171410619Y-36752390D01*
X171410619Y-36752390D02*
X171565651Y-36302143D01*
X115938009Y-48586055D02*
X115385219Y-48406357D01*
X115481646Y-48929949D02*
X114879831Y-48131313D01*
X114879831Y-48131313D02*
X115184073Y-47902051D01*
X115184073Y-47902051D02*
X115288792Y-47882765D01*
X115288792Y-47882765D02*
X115355480Y-47892137D01*
X115355480Y-47892137D02*
X115450826Y-47939540D01*
X115450826Y-47939540D02*
X115536799Y-48053631D01*
X115536799Y-48053631D02*
X115556085Y-48158349D01*
X115556085Y-48158349D02*
X115546712Y-48225037D01*
X115546712Y-48225037D02*
X115499310Y-48320383D01*
X115499310Y-48320383D02*
X115195068Y-48549646D01*
X116213594Y-48318761D02*
X116356342Y-48270818D01*
X116356342Y-48270818D02*
X116546494Y-48127529D01*
X116546494Y-48127529D02*
X116593896Y-48032183D01*
X116593896Y-48032183D02*
X116603269Y-47965495D01*
X116603269Y-47965495D02*
X116583983Y-47860776D01*
X116583983Y-47860776D02*
X116526667Y-47784716D01*
X116526667Y-47784716D02*
X116431321Y-47737313D01*
X116431321Y-47737313D02*
X116364633Y-47727941D01*
X116364633Y-47727941D02*
X116259915Y-47747226D01*
X116259915Y-47747226D02*
X116079136Y-47823827D01*
X116079136Y-47823827D02*
X115974418Y-47843113D01*
X115974418Y-47843113D02*
X115907730Y-47833740D01*
X115907730Y-47833740D02*
X115812384Y-47786338D01*
X115812384Y-47786338D02*
X115755068Y-47710277D01*
X115755068Y-47710277D02*
X115735782Y-47605559D01*
X115735782Y-47605559D02*
X115745155Y-47538871D01*
X115745155Y-47538871D02*
X115792557Y-47443525D01*
X115792557Y-47443525D02*
X115982709Y-47300235D01*
X115982709Y-47300235D02*
X116125457Y-47252292D01*
X116324981Y-47042315D02*
X116781344Y-46698420D01*
X117154978Y-47669003D02*
X116553163Y-46870368D01*
X265482412Y-36904537D02*
X265544425Y-37084636D01*
X265544425Y-37084636D02*
X265530407Y-37190188D01*
X265530407Y-37190188D02*
X265471364Y-37311244D01*
X265471364Y-37311244D02*
X265306768Y-37418282D01*
X265306768Y-37418282D02*
X264991596Y-37526805D01*
X264991596Y-37526805D02*
X264795994Y-37543793D01*
X264795994Y-37543793D02*
X264674938Y-37484750D01*
X264674938Y-37484750D02*
X264598906Y-37410204D01*
X264598906Y-37410204D02*
X264536893Y-37230105D01*
X264536893Y-37230105D02*
X264550912Y-37124552D01*
X264550912Y-37124552D02*
X264609955Y-37003497D01*
X264609955Y-37003497D02*
X264774550Y-36896459D01*
X264774550Y-36896459D02*
X265089723Y-36787936D01*
X265089723Y-36787936D02*
X265285325Y-36770948D01*
X265285325Y-36770948D02*
X265406381Y-36829991D01*
X265406381Y-36829991D02*
X265482412Y-36904537D01*
X264815952Y-38040550D02*
X265761470Y-37714981D01*
X265761470Y-37714981D02*
X265001991Y-38580846D01*
X265001991Y-38580846D02*
X265947509Y-38255278D01*
X274829079Y-33333678D02*
X274891092Y-33513777D01*
X274891092Y-33513777D02*
X274877074Y-33619330D01*
X274877074Y-33619330D02*
X274818031Y-33740386D01*
X274818031Y-33740386D02*
X274653436Y-33847423D01*
X274653436Y-33847423D02*
X274338263Y-33955946D01*
X274338263Y-33955946D02*
X274142661Y-33972934D01*
X274142661Y-33972934D02*
X274021605Y-33913891D01*
X274021605Y-33913891D02*
X273945574Y-33839345D01*
X273945574Y-33839345D02*
X273883561Y-33659247D01*
X273883561Y-33659247D02*
X273897579Y-33553694D01*
X273897579Y-33553694D02*
X273956622Y-33432638D01*
X273956622Y-33432638D02*
X274121217Y-33325600D01*
X274121217Y-33325600D02*
X274436390Y-33217078D01*
X274436390Y-33217078D02*
X274631992Y-33200089D01*
X274631992Y-33200089D02*
X274753048Y-33259132D01*
X274753048Y-33259132D02*
X274829079Y-33333678D01*
X274766414Y-34614328D02*
X274657891Y-34299155D01*
X274162619Y-34469691D02*
X275108138Y-34144123D01*
X275108138Y-34144123D02*
X275263170Y-34594370D01*
X275045472Y-35424773D02*
X274936949Y-35109600D01*
X274441678Y-35280136D02*
X275387196Y-34954567D01*
X275387196Y-34954567D02*
X275542229Y-35404814D01*
D10*
%TO.C,D16*%
X186407413Y-80899996D02*
X186907412Y-80900000D01*
X186407412Y-80499997D02*
X186407411Y-81300000D01*
X186407411Y-81300000D02*
X185807410Y-80899994D01*
X185807410Y-80899994D02*
X186407412Y-80499997D01*
X185807410Y-80899994D02*
X185807415Y-80349996D01*
X185807410Y-80899994D02*
X185807414Y-81449997D01*
X185407410Y-80899996D02*
X185807410Y-80899994D01*
%TO.C,D1*%
X336649638Y-95140058D02*
X336524494Y-95930215D01*
X336587072Y-95535135D02*
X337080914Y-95613358D01*
X336524494Y-95930215D02*
X335994454Y-95441282D01*
X335994454Y-95441282D02*
X336649638Y-95140058D01*
X335994454Y-95441282D02*
X336080497Y-94898047D01*
X335994454Y-95441282D02*
X335908418Y-95984510D01*
X335599376Y-95378702D02*
X335994454Y-95441282D01*
%TO.C,D18*%
X186407420Y-46899999D02*
X186907419Y-46900003D01*
X186407419Y-46500000D02*
X186407418Y-47300003D01*
X186407418Y-47300003D02*
X185807417Y-46899997D01*
X185807417Y-46899997D02*
X186407419Y-46500000D01*
X185807417Y-46899997D02*
X185807422Y-46349999D01*
X185807417Y-46899997D02*
X185807421Y-47450000D01*
X185407417Y-46899999D02*
X185807417Y-46899997D01*
%TO.C,D7*%
X302913823Y-78769238D02*
X302858018Y-79567297D01*
X302885916Y-79168267D02*
X303384708Y-79203136D01*
X302858018Y-79567297D02*
X302287382Y-79126420D01*
X302287382Y-79126420D02*
X302913823Y-78769238D01*
X302287382Y-79126420D02*
X302325746Y-78577757D01*
X302287382Y-79126420D02*
X302249014Y-79675075D01*
X301888350Y-79098522D02*
X302287382Y-79126420D01*
%TO.C,mouse-bite-1mm-3mm*%
X220000000Y-101100001D02*
G75*
G02*
X220000000Y-100099997I-1J500002D01*
G01*
X217000000Y-100099999D02*
G75*
G02*
X217000000Y-101100003I1J-500002D01*
G01*
%TO.C,D4*%
X319858931Y-92480671D02*
X319733787Y-93270828D01*
X319796365Y-92875748D02*
X320290207Y-92953971D01*
X319733787Y-93270828D02*
X319203747Y-92781895D01*
X319203747Y-92781895D02*
X319858931Y-92480671D01*
X319203747Y-92781895D02*
X319289790Y-92238660D01*
X319203747Y-92781895D02*
X319117711Y-93325123D01*
X318808669Y-92719315D02*
X319203747Y-92781895D01*
D12*
%TO.C,JST1*%
X203710448Y-67132438D02*
X203710450Y-66132440D01*
X203710447Y-59312444D02*
X203710447Y-60312439D01*
X202790452Y-59312438D02*
X203710447Y-59312444D01*
X202790448Y-67132438D02*
X203710448Y-67132438D01*
D10*
X202150450Y-68172440D02*
X201150456Y-68172440D01*
X201650448Y-67672440D02*
X201650449Y-68672448D01*
X199150448Y-68172439D02*
X200150450Y-68172439D01*
D12*
X198590450Y-59312436D02*
X197590450Y-59312442D01*
X198510450Y-67132437D02*
X197590457Y-67132441D01*
X197590457Y-67132441D02*
X197590454Y-66132441D01*
X197590450Y-59312442D02*
X197590453Y-60312435D01*
D10*
%TO.C,D16*%
X251090817Y-81300822D02*
X250490814Y-80900824D01*
X251090815Y-80500820D02*
X251090817Y-81300822D01*
X251090813Y-80900821D02*
X251590819Y-80900820D01*
X250490814Y-80900824D02*
X251090815Y-80500820D01*
X250490814Y-80900824D02*
X250490815Y-80350823D01*
X250490814Y-80900824D02*
X250490814Y-81450822D01*
X250090811Y-80900824D02*
X250490814Y-80900824D01*
%TO.C,D4*%
X117758295Y-93191797D02*
X117103108Y-92890581D01*
X117695722Y-92796717D02*
X118189569Y-92718490D01*
X117633142Y-92401642D02*
X117758295Y-93191797D01*
X117103108Y-92890581D02*
X117633142Y-92401642D01*
X117103108Y-92890581D02*
X117189149Y-93433810D01*
X117103108Y-92890581D02*
X117017068Y-92347345D01*
X116708029Y-92953160D02*
X117103108Y-92890581D01*
%TO.C,D12*%
X285090822Y-39300812D02*
X284490819Y-38900814D01*
X285090820Y-38500810D02*
X285090822Y-39300812D01*
X285090818Y-38900811D02*
X285590824Y-38900810D01*
X284490819Y-38900814D02*
X285090820Y-38500810D01*
X284490819Y-38900814D02*
X284490820Y-38350813D01*
X284490819Y-38900814D02*
X284490819Y-39450812D01*
X284090816Y-38900814D02*
X284490819Y-38900814D01*
%TO.C,D14*%
X268090819Y-62300815D02*
X267490816Y-61900817D01*
X268090817Y-61500813D02*
X268090819Y-62300815D01*
X268090815Y-61900814D02*
X268590821Y-61900813D01*
X267490816Y-61900817D02*
X268090817Y-61500813D01*
X267490816Y-61900817D02*
X267490817Y-61350816D01*
X267490816Y-61900817D02*
X267490816Y-62450815D01*
X267090813Y-61900817D02*
X267490816Y-61900817D01*
%TO.C,D9*%
X132267274Y-45614419D02*
X131640831Y-45257245D01*
X132239377Y-45215391D02*
X132738157Y-45180513D01*
X132211469Y-44816364D02*
X132267274Y-45614419D01*
X131640831Y-45257245D02*
X132211469Y-44816364D01*
X131640831Y-45257245D02*
X131679202Y-45805905D01*
X131640831Y-45257245D02*
X131602470Y-44708580D01*
X131241805Y-45285147D02*
X131640831Y-45257245D01*
%TO.C,D6*%
X112439519Y-59610394D02*
X111784332Y-59309178D01*
X112376946Y-59215314D02*
X112870793Y-59137087D01*
X112314366Y-58820239D02*
X112439519Y-59610394D01*
X111784332Y-59309178D02*
X112314366Y-58820239D01*
X111784332Y-59309178D02*
X111870373Y-59852407D01*
X111784332Y-59309178D02*
X111698292Y-58765942D01*
X111389253Y-59371757D02*
X111784332Y-59309178D01*
%TO.C,D20*%
X186416335Y-99591917D02*
X186346610Y-100388876D01*
X186381475Y-99990395D02*
X186879574Y-100033973D01*
X186346610Y-100388876D02*
X185783754Y-99938094D01*
X185783754Y-99938094D02*
X186416335Y-99591917D01*
X185783754Y-99938094D02*
X185831696Y-99390185D01*
X185783754Y-99938094D02*
X185735823Y-100486009D01*
X185385278Y-99903235D02*
X185783754Y-99938094D01*
%TO.C,D3*%
X341968409Y-61558654D02*
X341843265Y-62348811D01*
X341905843Y-61953731D02*
X342399685Y-62031954D01*
X341843265Y-62348811D02*
X341313225Y-61859878D01*
X341313225Y-61859878D02*
X341968409Y-61558654D01*
X341313225Y-61859878D02*
X341399268Y-61316643D01*
X341313225Y-61859878D02*
X341227189Y-62403106D01*
X340918147Y-61797298D02*
X341313225Y-61859878D01*
%TO.C,D8*%
X304099685Y-61810654D02*
X304043880Y-62608713D01*
X304071778Y-62209683D02*
X304570570Y-62244552D01*
X304043880Y-62608713D02*
X303473244Y-62167836D01*
X303473244Y-62167836D02*
X304099685Y-61810654D01*
X303473244Y-62167836D02*
X303511608Y-61619173D01*
X303473244Y-62167836D02*
X303434876Y-62716491D01*
X303074212Y-62139938D02*
X303473244Y-62167836D01*
%TO.C,D13*%
X268090823Y-79300815D02*
X267490820Y-78900817D01*
X268090821Y-78500813D02*
X268090823Y-79300815D01*
X268090819Y-78900814D02*
X268590825Y-78900813D01*
X267490820Y-78900817D02*
X268090821Y-78500813D01*
X267490820Y-78900817D02*
X267490821Y-78350816D01*
X267490820Y-78900817D02*
X267490820Y-79450815D01*
X267090817Y-78900817D02*
X267490820Y-78900817D01*
%TO.C,D14*%
X169407413Y-61899992D02*
X169907412Y-61899996D01*
X169407412Y-61499993D02*
X169407411Y-62299996D01*
X169407411Y-62299996D02*
X168807410Y-61899990D01*
X168807410Y-61899990D02*
X169407412Y-61499993D01*
X168807410Y-61899990D02*
X168807415Y-61349992D01*
X168807410Y-61899990D02*
X168807414Y-62449993D01*
X168407410Y-61899992D02*
X168807410Y-61899990D01*
%TO.C,D15*%
X169407416Y-44899994D02*
X169907415Y-44899998D01*
X169407415Y-44499995D02*
X169407414Y-45299998D01*
X169407414Y-45299998D02*
X168807413Y-44899992D01*
X168807413Y-44899992D02*
X169407415Y-44499995D01*
X168807413Y-44899992D02*
X168807418Y-44349994D01*
X168807413Y-44899992D02*
X168807417Y-45449995D01*
X168407413Y-44899994D02*
X168807413Y-44899992D01*
D11*
%TO.C,RST1*%
X324345675Y-48301900D02*
X324195228Y-48501561D01*
X322239325Y-51097124D02*
X322389779Y-50897469D01*
X319553863Y-44691010D02*
X324345675Y-48301900D01*
X319553863Y-44691010D02*
X319403409Y-44890665D01*
X317447513Y-47486234D02*
X322239325Y-51097124D01*
X317447513Y-47486234D02*
X317597960Y-47286573D01*
D10*
%TO.C,D19*%
X269090820Y-99300818D02*
X268490817Y-98900820D01*
X269090818Y-98500816D02*
X269090820Y-99300818D01*
X269090816Y-98900817D02*
X269590822Y-98900816D01*
X268490817Y-98900820D02*
X269090818Y-98500816D01*
X268490817Y-98900820D02*
X268490818Y-98350819D01*
X268490817Y-98900820D02*
X268490817Y-99450818D01*
X268090814Y-98900820D02*
X268490817Y-98900820D01*
%TO.C,D17*%
X251090816Y-64300824D02*
X250490813Y-63900826D01*
X251090814Y-63500822D02*
X251090816Y-64300824D01*
X251090812Y-63900823D02*
X251590818Y-63900822D01*
X250490813Y-63900826D02*
X251090814Y-63500822D01*
X250490813Y-63900826D02*
X250490814Y-63350825D01*
X250490813Y-63900826D02*
X250490813Y-64450824D01*
X250090810Y-63900826D02*
X250490813Y-63900826D01*
%TO.C,D18*%
X251090820Y-47300820D02*
X250490817Y-46900822D01*
X251090818Y-46500818D02*
X251090820Y-47300820D01*
X251090816Y-46900819D02*
X251590822Y-46900818D01*
X250490817Y-46900822D02*
X251090818Y-46500818D01*
X250490817Y-46900822D02*
X250490818Y-46350821D01*
X250490817Y-46900822D02*
X250490817Y-47450820D01*
X250090814Y-46900822D02*
X250490817Y-46900822D01*
%TO.C,D11*%
X285090820Y-56300820D02*
X284490817Y-55900822D01*
X285090818Y-55500818D02*
X285090820Y-56300820D01*
X285090816Y-55900819D02*
X285590822Y-55900818D01*
X284490817Y-55900822D02*
X285090818Y-55500818D01*
X284490817Y-55900822D02*
X284490818Y-55350821D01*
X284490817Y-55900822D02*
X284490817Y-56450820D01*
X284090814Y-55900822D02*
X284490817Y-55900822D01*
D12*
%TO.C,JST1*%
X239316212Y-67087524D02*
X239316212Y-66087525D01*
X239316213Y-59267525D02*
X239316215Y-60267525D01*
X238396211Y-67087523D02*
X239316212Y-67087524D01*
X238396208Y-59267525D02*
X239316213Y-59267525D01*
D10*
X237756209Y-68127522D02*
X236756208Y-68127523D01*
X237256211Y-67627525D02*
X237256208Y-68627529D01*
X234756209Y-68127525D02*
X235756212Y-68127521D01*
D12*
X234196217Y-59267519D02*
X233196214Y-59267529D01*
X234116211Y-67087531D02*
X233196214Y-67087523D01*
X233196214Y-67087523D02*
X233196212Y-66087524D01*
X233196214Y-59267529D02*
X233196215Y-60267525D01*
D10*
%TO.C,D5*%
X322518316Y-75689969D02*
X322393172Y-76480126D01*
X322455750Y-76085046D02*
X322949592Y-76163269D01*
X322393172Y-76480126D02*
X321863132Y-75991193D01*
X321863132Y-75991193D02*
X322518316Y-75689969D01*
X321863132Y-75991193D02*
X321949175Y-75447958D01*
X321863132Y-75991193D02*
X321777096Y-76534421D01*
X321468054Y-75928613D02*
X321863132Y-75991193D01*
%TO.C,D19*%
X168407421Y-98899996D02*
X168907420Y-98900000D01*
X168407420Y-98499997D02*
X168407419Y-99300000D01*
X168407419Y-99300000D02*
X167807418Y-98899994D01*
X167807418Y-98899994D02*
X168407420Y-98499997D01*
X167807418Y-98899994D02*
X167807423Y-98349996D01*
X167807418Y-98899994D02*
X167807422Y-99449997D01*
X167407418Y-98899996D02*
X167807418Y-98899994D01*
%TO.C,D11*%
X152407422Y-55900001D02*
X152907421Y-55900005D01*
X152407421Y-55500002D02*
X152407420Y-56300005D01*
X152407420Y-56300005D02*
X151807419Y-55899999D01*
X151807419Y-55899999D02*
X152407421Y-55500002D01*
X151807419Y-55899999D02*
X151807424Y-55350001D01*
X151807419Y-55899999D02*
X151807423Y-56450002D01*
X151407419Y-55900001D02*
X151807419Y-55899999D01*
%TO.C,D10*%
X152407412Y-72899995D02*
X152907411Y-72899999D01*
X152407411Y-72499996D02*
X152407410Y-73299999D01*
X152407410Y-73299999D02*
X151807409Y-72899993D01*
X151807409Y-72899993D02*
X152407411Y-72499996D01*
X151807409Y-72899993D02*
X151807414Y-72349995D01*
X151807409Y-72899993D02*
X151807413Y-73449996D01*
X151407409Y-72899995D02*
X151807409Y-72899993D01*
%TO.C,D6*%
X325177706Y-58899271D02*
X325052562Y-59689428D01*
X325115140Y-59294348D02*
X325608982Y-59372571D01*
X325052562Y-59689428D02*
X324522522Y-59200495D01*
X324522522Y-59200495D02*
X325177706Y-58899271D01*
X324522522Y-59200495D02*
X324608565Y-58657260D01*
X324522522Y-59200495D02*
X324436486Y-59743723D01*
X324127444Y-59137915D02*
X324522522Y-59200495D01*
%TO.C,D8*%
X133453132Y-62573007D02*
X132826689Y-62215833D01*
X133425235Y-62173979D02*
X133924015Y-62139101D01*
X133397327Y-61774952D02*
X133453132Y-62573007D01*
X132826689Y-62215833D02*
X133397327Y-61774952D01*
X132826689Y-62215833D02*
X132865060Y-62764493D01*
X132826689Y-62215833D02*
X132788328Y-61667168D01*
X132427663Y-62243735D02*
X132826689Y-62215833D01*
%TO.C,REF\u002A\u002A*%
D13*
X198528416Y-39496006D02*
G75*
G02*
X198024416Y-39496006I-252000J0D01*
G01*
X198024416Y-39496006D02*
G75*
G02*
X198528416Y-39496006I252000J0D01*
G01*
D14*
X197254417Y-38779004D02*
G75*
G02*
X196750419Y-38779004I-251999J0D01*
G01*
X196750419Y-38779004D02*
G75*
G02*
X197254417Y-38779004I251999J0D01*
G01*
D10*
X214992411Y-57413003D02*
G75*
G02*
X213087420Y-59317998I-1904995J0D01*
G01*
X213087414Y-38363003D02*
G75*
G02*
X214992418Y-40268003I-38J-1905042D01*
G01*
D15*
X210106409Y-36853010D02*
G75*
G02*
X210606410Y-37353005I-93J-500094D01*
G01*
X201611150Y-37352729D02*
G75*
G02*
X202111145Y-36853002I500023J-296D01*
G01*
D10*
X199117417Y-59318006D02*
G75*
G02*
X197212419Y-57413005I-4J1904994D01*
G01*
X197212419Y-40263997D02*
G75*
G02*
X199117414Y-38359000I1905009J-12D01*
G01*
X214992411Y-57413003D02*
X214992415Y-40268003D01*
X213087414Y-38363003D02*
X199117416Y-38363008D01*
D15*
X210606415Y-37353005D02*
X210606421Y-38363000D01*
X202111145Y-36853001D02*
X210106409Y-36853010D01*
X201607417Y-38363003D02*
X201611150Y-37352729D01*
D10*
X199117417Y-59318006D02*
X213087420Y-59318003D01*
X197212420Y-57413005D02*
X197212416Y-40268007D01*
%TO.C,D3*%
X95648813Y-62269779D02*
X94993626Y-61968563D01*
X95586240Y-61874699D02*
X96080087Y-61796472D01*
X95523660Y-61479624D02*
X95648813Y-62269779D01*
X94993626Y-61968563D02*
X95523660Y-61479624D01*
X94993626Y-61968563D02*
X95079667Y-62511792D01*
X94993626Y-61968563D02*
X94907586Y-61425327D01*
X94598547Y-62031142D02*
X94993626Y-61968563D01*
%TO.C,D5*%
X115098907Y-76401092D02*
X114443720Y-76099876D01*
X115036334Y-76006012D02*
X115530181Y-75927785D01*
X114973754Y-75610937D02*
X115098907Y-76401092D01*
X114443720Y-76099876D02*
X114973754Y-75610937D01*
X114443720Y-76099876D02*
X114529761Y-76643105D01*
X114443720Y-76099876D02*
X114357680Y-75556640D01*
X114048641Y-76162455D02*
X114443720Y-76099876D01*
%TO.C,D10*%
X285090817Y-73300816D02*
X284490814Y-72900818D01*
X285090815Y-72500814D02*
X285090817Y-73300816D01*
X285090813Y-72900815D02*
X285590819Y-72900814D01*
X284490814Y-72900818D02*
X285090815Y-72500814D01*
X284490814Y-72900818D02*
X284490815Y-72350817D01*
X284490814Y-72900818D02*
X284490814Y-73450816D01*
X284090811Y-72900818D02*
X284490814Y-72900818D01*
%TO.C,D21*%
X231857086Y-104823726D02*
X231156458Y-104653060D01*
X231720271Y-104447847D02*
X232190118Y-104276837D01*
X231583468Y-104071975D02*
X231857086Y-104823726D01*
X231156458Y-104653060D02*
X231583468Y-104071975D01*
X231156458Y-104653060D02*
X231344569Y-105169889D01*
X231156458Y-104653060D02*
X230968350Y-104136229D01*
X230780588Y-104789869D02*
X231156458Y-104653060D01*
D12*
%TO.C,PWR1*%
X170109118Y-35602943D02*
X164719662Y-33747202D01*
X170090407Y-37500222D02*
X170347612Y-36753261D01*
X167999351Y-37890719D02*
X166391967Y-37337247D01*
X165162797Y-36914008D02*
X164973692Y-36848894D01*
X163823527Y-34506847D02*
X163566327Y-35253800D01*
D10*
%TO.C,D13*%
X169407415Y-78899998D02*
X169907414Y-78900002D01*
X169407414Y-78499999D02*
X169407413Y-79300002D01*
X169407413Y-79300002D02*
X168807412Y-78899996D01*
X168807412Y-78899996D02*
X169407414Y-78499999D01*
X168807412Y-78899996D02*
X168807417Y-78349998D01*
X168807412Y-78899996D02*
X168807416Y-79449999D01*
X168407412Y-78899998D02*
X168807412Y-78899996D01*
D11*
%TO.C,RST1*%
X119550726Y-47485419D02*
X119400263Y-47285763D01*
X117444369Y-44690197D02*
X117594820Y-44889855D01*
X114758913Y-51096313D02*
X119550726Y-47485419D01*
X114758913Y-51096313D02*
X114608462Y-50896655D01*
X112652556Y-48301091D02*
X117444369Y-44690197D01*
X112652556Y-48301091D02*
X112803019Y-48500747D01*
%TO.C,REF\u002A\u002A*%
D16*
X223211820Y-39496818D02*
G75*
G02*
X222707818Y-39496818I-252001J0D01*
G01*
X222707818Y-39496818D02*
G75*
G02*
X223211820Y-39496818I252001J0D01*
G01*
D17*
X221937814Y-38779816D02*
G75*
G02*
X221433820Y-38779816I-251997J0D01*
G01*
X221433820Y-38779816D02*
G75*
G02*
X221937814Y-38779816I251997J0D01*
G01*
D10*
X239675813Y-57413822D02*
G75*
G02*
X237770818Y-59318811I-1904996J7D01*
G01*
X237770818Y-38363812D02*
G75*
G02*
X239675812Y-40268811I-40J-1905034D01*
G01*
D15*
X234789820Y-36853816D02*
G75*
G02*
X235289817Y-37353816I-103J-500100D01*
G01*
X226294552Y-37353544D02*
G75*
G02*
X226794551Y-36853816I500015J-287D01*
G01*
D10*
X223800815Y-59318820D02*
G75*
G02*
X221895815Y-57413817I1J1905001D01*
G01*
X221895822Y-40264815D02*
G75*
G02*
X223800818Y-38359815I1905006J-6D01*
G01*
X239675813Y-57413822D02*
X239675817Y-40268811D01*
X237770818Y-38363812D02*
X223800821Y-38363818D01*
D15*
X235289820Y-37353816D02*
X235289817Y-38363817D01*
X226794551Y-36853814D02*
X234789820Y-36853816D01*
X226290816Y-38363818D02*
X226294552Y-37353544D01*
D10*
X223800815Y-59318820D02*
X237770818Y-59318815D01*
X221895814Y-57413817D02*
X221895818Y-40268814D01*
%TO.C,D2*%
X98308202Y-79060479D02*
X97653015Y-78759263D01*
X98245629Y-78665399D02*
X98739476Y-78587172D01*
X98183049Y-78270324D02*
X98308202Y-79060479D01*
X97653015Y-78759263D02*
X98183049Y-78270324D01*
X97653015Y-78759263D02*
X97739056Y-79302492D01*
X97653015Y-78759263D02*
X97566975Y-78216027D01*
X97257936Y-78821842D02*
X97653015Y-78759263D01*
%TO.C,D21*%
X205884615Y-104242162D02*
X205610997Y-104993915D01*
X205747806Y-104618034D02*
X206217652Y-104789047D01*
X205610997Y-104993915D02*
X205183994Y-104412825D01*
X205183994Y-104412825D02*
X205884615Y-104242162D01*
X205183994Y-104412825D02*
X205372095Y-103895995D01*
X205183994Y-104412825D02*
X204995881Y-104929653D01*
X204808110Y-104276013D02*
X205183994Y-104412825D01*
%TO.C,D17*%
X186407419Y-63899992D02*
X186907418Y-63899996D01*
X186407418Y-63499993D02*
X186407417Y-64299996D01*
X186407417Y-64299996D02*
X185807416Y-63899990D01*
X185807416Y-63899990D02*
X186407418Y-63499993D01*
X185807416Y-63899990D02*
X185807421Y-63349992D01*
X185807416Y-63899990D02*
X185807420Y-64449993D01*
X185407416Y-63899992D02*
X185807416Y-63899990D01*
D12*
%TO.C,PWR1*%
X273280197Y-35270867D02*
X273022999Y-34523910D01*
X272126864Y-33764272D02*
X266737408Y-35620014D01*
X271872834Y-36865961D02*
X270265455Y-37419429D01*
X269036280Y-37842669D02*
X268847170Y-37907777D01*
X266498914Y-36770330D02*
X266756119Y-37517292D01*
D10*
%TO.C,D7*%
X134638992Y-79531604D02*
X134012549Y-79174430D01*
X134611095Y-79132576D02*
X135109875Y-79097698D01*
X134583187Y-78733549D02*
X134638992Y-79531604D01*
X134012549Y-79174430D02*
X134583187Y-78733549D01*
X134012549Y-79174430D02*
X134050920Y-79723090D01*
X134012549Y-79174430D02*
X133974188Y-78625765D01*
X133613523Y-79202332D02*
X134012549Y-79174430D01*
%TO.C,D1*%
X100967585Y-95851182D02*
X100312398Y-95549966D01*
X100905012Y-95456102D02*
X101398859Y-95377875D01*
X100842432Y-95061027D02*
X100967585Y-95851182D01*
X100312398Y-95549966D02*
X100842432Y-95061027D01*
X100312398Y-95549966D02*
X100398439Y-96093195D01*
X100312398Y-95549966D02*
X100226358Y-95006730D01*
X99917319Y-95612545D02*
X100312398Y-95549966D01*
%TO.C,D9*%
X305285545Y-44852058D02*
X305229740Y-45650117D01*
X305257638Y-45251087D02*
X305756430Y-45285956D01*
X305229740Y-45650117D02*
X304659104Y-45209240D01*
X304659104Y-45209240D02*
X305285545Y-44852058D01*
X304659104Y-45209240D02*
X304697468Y-44660577D01*
X304659104Y-45209240D02*
X304620736Y-45757895D01*
X304260072Y-45181342D02*
X304659104Y-45209240D01*
%TO.C,D15*%
X268090818Y-45300816D02*
X267490815Y-44900818D01*
X268090816Y-44500814D02*
X268090818Y-45300816D01*
X268090814Y-44900815D02*
X268590820Y-44900814D01*
X267490815Y-44900818D02*
X268090816Y-44500814D01*
X267490815Y-44900818D02*
X267490816Y-44350817D01*
X267490815Y-44900818D02*
X267490815Y-45450816D01*
X267090812Y-44900818D02*
X267490815Y-44900818D01*
%TO.C,mouse-bite-1mm-3mm*%
X220000000Y-41300001D02*
G75*
G02*
X220000000Y-40299997I-1J500002D01*
G01*
X217000000Y-40299999D02*
G75*
G02*
X217000000Y-41300003I1J-500002D01*
G01*
%TO.C,D20*%
X251149733Y-100346107D02*
X250517147Y-99999925D01*
X251114866Y-99947626D02*
X251612962Y-99904049D01*
X251079996Y-99549148D02*
X251149733Y-100346107D01*
X250517147Y-99999925D02*
X251079996Y-99549148D01*
X250517147Y-99999925D02*
X250565082Y-100547833D01*
X250517147Y-99999925D02*
X250469211Y-99452015D01*
X250118668Y-100034787D02*
X250517147Y-99999925D01*
%TO.C,D12*%
X152407424Y-38900001D02*
X152907423Y-38900005D01*
X152407423Y-38500002D02*
X152407422Y-39300005D01*
X152407422Y-39300005D02*
X151807421Y-38899999D01*
X151807421Y-38899999D02*
X152407423Y-38500002D01*
X151807421Y-38899999D02*
X151807426Y-38350001D01*
X151807421Y-38899999D02*
X151807425Y-39450002D01*
X151407421Y-38900001D02*
X151807421Y-38899999D01*
%TO.C,D2*%
X339309021Y-78349355D02*
X339183877Y-79139512D01*
X339246455Y-78744432D02*
X339740297Y-78822655D01*
X339183877Y-79139512D02*
X338653837Y-78650579D01*
X338653837Y-78650579D02*
X339309021Y-78349355D01*
X338653837Y-78650579D02*
X338739880Y-78107344D01*
X338653837Y-78650579D02*
X338567801Y-79193807D01*
X338258759Y-78587999D02*
X338653837Y-78650579D01*
%TD*%
M02*
