%TF.GenerationSoftware,KiCad,Pcbnew,8.0.6*%
%TF.CreationDate,2025-07-20T13:06:01+02:00*%
%TF.ProjectId,combined,636f6d62-696e-4656-942e-6b696361645f,v1.0.0*%
%TF.SameCoordinates,Original*%
%TF.FileFunction,Paste,Bot*%
%TF.FilePolarity,Positive*%
%FSLAX46Y46*%
G04 Gerber Fmt 4.6, Leading zero omitted, Abs format (unit mm)*
G04 Created by KiCad (PCBNEW 8.0.6) date 2025-07-20 13:06:01*
%MOMM*%
%LPD*%
G01*
G04 APERTURE LIST*
G04 Aperture macros list*
%AMRotRect*
0 Rectangle, with rotation*
0 The origin of the aperture is its center*
0 $1 length*
0 $2 width*
0 $3 Rotation angle, in degrees counterclockwise*
0 Add horizontal line*
21,1,$1,$2,0,0,$3*%
G04 Aperture macros list end*
%ADD10R,0.900000X1.200000*%
%ADD11RotRect,1.550000X2.000000X351.000000*%
%ADD12RotRect,1.550000X2.000000X20.000000*%
%ADD13RotRect,0.900000X1.200000X351.000000*%
%ADD14RotRect,1.550000X2.000000X9.000000*%
%ADD15R,1.550000X2.000000*%
%ADD16RotRect,0.900000X1.200000X356.000000*%
%ADD17RotRect,1.550000X2.000000X356.000000*%
%ADD18RotRect,0.900000X1.200000X9.000000*%
%ADD19RotRect,0.900000X1.200000X4.000000*%
%ADD20RotRect,1.550000X2.000000X340.000000*%
%ADD21RotRect,0.900000X1.200000X355.000000*%
%ADD22RotRect,1.550000X2.000000X4.000000*%
%ADD23RotRect,1.550000X2.000000X355.000000*%
%ADD24RotRect,0.900000X1.200000X20.000000*%
%ADD25RotRect,0.900000X1.200000X340.000000*%
%ADD26RotRect,0.900000X1.200000X5.000000*%
%ADD27RotRect,1.550000X2.000000X5.000000*%
G04 APERTURE END LIST*
D10*
%TO.C,D16*%
X187857092Y-80904248D03*
X184557100Y-80904248D03*
%TD*%
D11*
%TO.C,CPG1316*%
X322903117Y-81568982D03*
X318952368Y-80943245D03*
%TD*%
%TO.C,CPG1316*%
X337034432Y-101019060D03*
X333083683Y-100393323D03*
%TD*%
D12*
%TO.C,CPG1316*%
X234774387Y-109051929D03*
X231015619Y-110420010D03*
%TD*%
D13*
%TO.C,D1*%
X338019513Y-95758402D03*
X334760141Y-95242160D03*
%TD*%
D14*
%TO.C,CPG1316*%
X100366843Y-83758233D03*
X96416085Y-84383973D03*
%TD*%
D15*
%TO.C,CPG1316*%
X286390502Y-78255066D03*
X282390500Y-78255064D03*
%TD*%
%TO.C,CPG1316*%
X170707103Y-67254251D03*
X166707101Y-67254249D03*
%TD*%
D10*
%TO.C,D18*%
X187857094Y-46904248D03*
X184557102Y-46904248D03*
%TD*%
D16*
%TO.C,D7*%
X304332191Y-79270176D03*
X301040231Y-79039986D03*
%TD*%
D11*
%TO.C,CPG1316*%
X325562499Y-64778267D03*
X321611750Y-64152530D03*
%TD*%
D15*
%TO.C,CPG1316*%
X169707107Y-104254244D03*
X165707105Y-104254242D03*
%TD*%
%TO.C,CPG1316*%
X269390502Y-67255064D03*
X265390500Y-67255062D03*
%TD*%
D17*
%TO.C,CPG1316*%
X303809358Y-84596682D03*
X299819104Y-84317655D03*
%TD*%
D13*
%TO.C,D4*%
X321228805Y-93099012D03*
X317969433Y-92582770D03*
%TD*%
D15*
%TO.C,CPG1316*%
X153707103Y-78254249D03*
X149707101Y-78254247D03*
%TD*%
D10*
%TO.C,D16*%
X252540493Y-80905068D03*
X249240503Y-80905076D03*
%TD*%
D15*
%TO.C,CPG1316*%
X170707108Y-50254252D03*
X166707106Y-50254250D03*
%TD*%
D18*
%TO.C,D4*%
X119128166Y-92581958D03*
X115868794Y-93098186D03*
%TD*%
D15*
%TO.C,CPG1316*%
X187707099Y-52254236D03*
X183707097Y-52254234D03*
%TD*%
D10*
%TO.C,D12*%
X286540501Y-38905057D03*
X283240511Y-38905065D03*
%TD*%
%TO.C,D14*%
X269540492Y-61905057D03*
X266240502Y-61905065D03*
%TD*%
D19*
%TO.C,D9*%
X133685637Y-45121985D03*
X130393691Y-45352177D03*
%TD*%
D18*
%TO.C,D6*%
X113809393Y-59000558D03*
X110550021Y-59516786D03*
%TD*%
D20*
%TO.C,CPG1316*%
X205142285Y-110077172D03*
X201383516Y-108709091D03*
%TD*%
D21*
%TO.C,D20*%
X187825830Y-100116661D03*
X184538388Y-99829043D03*
%TD*%
D13*
%TO.C,D3*%
X343338282Y-62176994D03*
X340078910Y-61660752D03*
%TD*%
D16*
%TO.C,D8*%
X305518048Y-62311592D03*
X302226088Y-62081402D03*
%TD*%
D11*
%TO.C,CPG1316*%
X339693814Y-84228359D03*
X335743065Y-83602622D03*
%TD*%
D10*
%TO.C,D13*%
X269540499Y-78905057D03*
X266240509Y-78905065D03*
%TD*%
%TO.C,D14*%
X170857092Y-61904243D03*
X167557100Y-61904243D03*
%TD*%
D11*
%TO.C,CPG1316*%
X342353204Y-67437656D03*
X338402455Y-66811919D03*
%TD*%
D22*
%TO.C,CPG1316*%
X135095073Y-67428003D03*
X131104814Y-67707034D03*
%TD*%
D10*
%TO.C,D15*%
X170857090Y-44904244D03*
X167557098Y-44904244D03*
%TD*%
D14*
%TO.C,CPG1316*%
X103026239Y-100548941D03*
X99075481Y-101174681D03*
%TD*%
D11*
%TO.C,CPG1316*%
X320243733Y-98359683D03*
X316292984Y-97733946D03*
%TD*%
D15*
%TO.C,CPG1316*%
X286390510Y-61255071D03*
X282390508Y-61255069D03*
%TD*%
%TO.C,CPG1316*%
X270390504Y-104255071D03*
X266390502Y-104255069D03*
%TD*%
D10*
%TO.C,D19*%
X270540497Y-98905065D03*
X267240507Y-98905073D03*
%TD*%
D15*
%TO.C,CPG1316*%
X252390496Y-52255069D03*
X248390494Y-52255067D03*
%TD*%
D10*
%TO.C,D17*%
X252540490Y-63905073D03*
X249240500Y-63905081D03*
%TD*%
%TO.C,D18*%
X252540495Y-46905063D03*
X249240505Y-46905071D03*
%TD*%
D22*
%TO.C,CPG1316*%
X136280933Y-84386586D03*
X132290674Y-84665617D03*
%TD*%
D10*
%TO.C,D11*%
X286540498Y-55905065D03*
X283240508Y-55905073D03*
%TD*%
D15*
%TO.C,CPG1316*%
X187707107Y-69254252D03*
X183707105Y-69254250D03*
%TD*%
D13*
%TO.C,D5*%
X323888196Y-76308311D03*
X320628824Y-75792069D03*
%TD*%
D10*
%TO.C,D19*%
X169857098Y-98904247D03*
X166557106Y-98904247D03*
%TD*%
%TO.C,D11*%
X153857101Y-55904251D03*
X150557109Y-55904251D03*
%TD*%
D15*
%TO.C,CPG1316*%
X153707096Y-61254243D03*
X149707094Y-61254241D03*
%TD*%
D10*
%TO.C,D10*%
X153857091Y-72904244D03*
X150557099Y-72904244D03*
%TD*%
D14*
%TO.C,CPG1316*%
X119816938Y-97889551D03*
X115866180Y-98515291D03*
%TD*%
D13*
%TO.C,D6*%
X326547582Y-59517611D03*
X323288210Y-59001369D03*
%TD*%
D19*
%TO.C,D8*%
X134871497Y-62080570D03*
X131579551Y-62310762D03*
%TD*%
D18*
%TO.C,D3*%
X97018687Y-61659945D03*
X93759315Y-62176173D03*
%TD*%
D17*
%TO.C,CPG1316*%
X306181081Y-50679513D03*
X302190827Y-50400486D03*
%TD*%
D15*
%TO.C,CPG1316*%
X252390502Y-86255061D03*
X248390500Y-86255059D03*
%TD*%
%TO.C,CPG1316*%
X170707096Y-84254248D03*
X166707094Y-84254246D03*
%TD*%
D23*
%TO.C,CPG1316*%
X187210120Y-105433220D03*
X183225336Y-105084596D03*
%TD*%
D15*
%TO.C,CPG1316*%
X153707102Y-44254253D03*
X149707100Y-44254251D03*
%TD*%
D18*
%TO.C,D5*%
X116468782Y-75791257D03*
X113209410Y-76307485D03*
%TD*%
D10*
%TO.C,D10*%
X286540493Y-72905063D03*
X283240503Y-72905071D03*
%TD*%
D24*
%TO.C,D21*%
X233085526Y-103973271D03*
X229984548Y-105101933D03*
%TD*%
D17*
%TO.C,CPG1316*%
X304995223Y-67638094D03*
X301004969Y-67359067D03*
%TD*%
D22*
%TO.C,CPG1316*%
X133909216Y-50469412D03*
X129918957Y-50748443D03*
%TD*%
D10*
%TO.C,D13*%
X170857093Y-78904250D03*
X167557101Y-78904250D03*
%TD*%
D14*
%TO.C,CPG1316*%
X114498160Y-64308150D03*
X110547402Y-64933890D03*
%TD*%
%TO.C,CPG1316*%
X97707466Y-66967530D03*
X93756708Y-67593270D03*
%TD*%
D18*
%TO.C,D2*%
X99678078Y-78450641D03*
X96418706Y-78966869D03*
%TD*%
D25*
%TO.C,D21*%
X207113056Y-105101113D03*
X204012074Y-103972439D03*
%TD*%
D10*
%TO.C,D17*%
X187857097Y-63904244D03*
X184557105Y-63904244D03*
%TD*%
D19*
%TO.C,D7*%
X136057354Y-79039168D03*
X132765408Y-79269360D03*
%TD*%
D18*
%TO.C,D1*%
X102337457Y-95241345D03*
X99078085Y-95757573D03*
%TD*%
D16*
%TO.C,D9*%
X306703914Y-45352990D03*
X303411954Y-45122800D03*
%TD*%
D15*
%TO.C,CPG1316*%
X286390500Y-44255068D03*
X282390498Y-44255066D03*
%TD*%
%TO.C,CPG1316*%
X269390505Y-50255069D03*
X265390503Y-50255067D03*
%TD*%
%TO.C,CPG1316*%
X252390506Y-69255068D03*
X248390504Y-69255066D03*
%TD*%
D10*
%TO.C,D15*%
X269540489Y-44905060D03*
X266240499Y-44905068D03*
%TD*%
D15*
%TO.C,CPG1316*%
X269390506Y-84255063D03*
X265390504Y-84255061D03*
%TD*%
D14*
%TO.C,CPG1316*%
X117157542Y-81098845D03*
X113206784Y-81724585D03*
%TD*%
D26*
%TO.C,D20*%
X252559222Y-99829861D03*
X249271774Y-100117473D03*
%TD*%
D10*
%TO.C,D12*%
X153857098Y-38904252D03*
X150557106Y-38904252D03*
%TD*%
D15*
%TO.C,CPG1316*%
X187707097Y-86254246D03*
X183707095Y-86254244D03*
%TD*%
D13*
%TO.C,D2*%
X340678899Y-78967698D03*
X337419527Y-78451456D03*
%TD*%
D27*
%TO.C,CPG1316*%
X252876071Y-105172575D03*
X248891284Y-105521201D03*
%TD*%
M02*
