%TF.GenerationSoftware,KiCad,Pcbnew,8.0.6*%
%TF.CreationDate,2025-07-18T11:45:52+02:00*%
%TF.ProjectId,combined,636f6d62-696e-4656-942e-6b696361645f,v1.0.0*%
%TF.SameCoordinates,Original*%
%TF.FileFunction,Legend,Bot*%
%TF.FilePolarity,Positive*%
%FSLAX46Y46*%
G04 Gerber Fmt 4.6, Leading zero omitted, Abs format (unit mm)*
G04 Created by KiCad (PCBNEW 8.0.6) date 2025-07-18 11:45:52*
%MOMM*%
%LPD*%
G01*
G04 APERTURE LIST*
%ADD10C,0.100000*%
G04 APERTURE END LIST*
D10*
%TO.C,D16*%
X185457094Y-80904251D02*
X185857094Y-80904241D01*
X185857094Y-80904241D02*
X185857097Y-81454247D01*
X185857094Y-80904241D02*
X185857097Y-80354245D01*
X185857094Y-80904241D02*
X186457096Y-80504246D01*
X186457093Y-81304253D02*
X185857094Y-80904241D01*
X186457096Y-80904247D02*
X186957096Y-80904245D01*
X186457096Y-80504246D02*
X186457093Y-81304253D01*
%TO.C,D1*%
X335649061Y-95382951D02*
X336044136Y-95445529D01*
X336044136Y-95445529D02*
X335958104Y-95988760D01*
X336044136Y-95445529D02*
X336130180Y-94902295D01*
X336044136Y-95445529D02*
X336699319Y-95144305D01*
X336574176Y-95934465D02*
X336044136Y-95445529D01*
X336636756Y-95539388D02*
X337130593Y-95617611D01*
X336699319Y-95144305D02*
X336574176Y-95934465D01*
%TO.C,D18*%
X185457096Y-46904251D02*
X185857096Y-46904241D01*
X185857096Y-46904241D02*
X185857099Y-47454247D01*
X185857096Y-46904241D02*
X185857099Y-46354245D01*
X185857096Y-46904241D02*
X186457098Y-46504246D01*
X186457095Y-47304253D02*
X185857096Y-46904241D01*
X186457098Y-46904247D02*
X186957098Y-46904245D01*
X186457098Y-46504246D02*
X186457095Y-47304253D01*
%TO.C,D7*%
X301938029Y-79102776D02*
X302337064Y-79130675D01*
X302337064Y-79130675D02*
X302298698Y-79679330D01*
X302337064Y-79130675D02*
X302375424Y-78582009D01*
X302337064Y-79130675D02*
X302963509Y-78773488D01*
X302907699Y-79571550D02*
X302337064Y-79130675D01*
X302935602Y-79172519D02*
X303434393Y-79207388D01*
X302963509Y-78773488D02*
X302907699Y-79571550D01*
%TO.C,D4*%
X318858352Y-92723562D02*
X319253427Y-92786140D01*
X319253427Y-92786140D02*
X319167395Y-93329371D01*
X319253427Y-92786140D02*
X319339471Y-92242906D01*
X319253427Y-92786140D02*
X319908610Y-92484916D01*
X319783467Y-93275076D02*
X319253427Y-92786140D01*
X319846047Y-92879999D02*
X320339884Y-92958222D01*
X319908610Y-92484916D02*
X319783467Y-93275076D01*
%TO.C,D16*%
X250140497Y-80905074D02*
X250540495Y-80905071D01*
X250540495Y-80905071D02*
X250540493Y-80355071D01*
X250540495Y-80905071D02*
X250540499Y-81455073D01*
X250540495Y-80905071D02*
X251140499Y-80505066D01*
X251140500Y-80905071D02*
X251640501Y-80905068D01*
X251140499Y-81305074D02*
X250540495Y-80905071D01*
X251140499Y-80505066D02*
X251140499Y-81305074D01*
%TO.C,D4*%
X116757708Y-92957404D02*
X117152792Y-92894830D01*
X117152792Y-92894830D02*
X117066751Y-92351591D01*
X117152792Y-92894830D02*
X117238831Y-93438056D01*
X117152792Y-92894830D02*
X117682821Y-92405888D01*
X117682821Y-92405888D02*
X117807977Y-93196042D01*
X117745405Y-92800963D02*
X118239254Y-92722740D01*
X117807977Y-93196042D02*
X117152792Y-92894830D01*
%TO.C,D12*%
X284140503Y-38905064D02*
X284540501Y-38905061D01*
X284540501Y-38905061D02*
X284540499Y-38355061D01*
X284540501Y-38905061D02*
X284540505Y-39455063D01*
X284540501Y-38905061D02*
X285140505Y-38505056D01*
X285140506Y-38905061D02*
X285640507Y-38905058D01*
X285140505Y-39305064D02*
X284540501Y-38905061D01*
X285140505Y-38505056D02*
X285140505Y-39305064D01*
%TO.C,D14*%
X267140495Y-61905064D02*
X267540493Y-61905061D01*
X267540493Y-61905061D02*
X267540491Y-61355061D01*
X267540493Y-61905061D02*
X267540497Y-62455063D01*
X267540493Y-61905061D02*
X268140497Y-61505056D01*
X268140498Y-61905061D02*
X268640499Y-61905058D01*
X268140497Y-62305064D02*
X267540493Y-61905061D01*
X268140497Y-61505056D02*
X268140497Y-62305064D01*
%TO.C,D9*%
X131291485Y-45289400D02*
X131690511Y-45261497D01*
X131690511Y-45261497D02*
X131652150Y-44712831D01*
X131690511Y-45261497D02*
X131728883Y-45810154D01*
X131690511Y-45261497D02*
X132261153Y-44820613D01*
X132261153Y-44820613D02*
X132316952Y-45618668D01*
X132289060Y-45219642D02*
X132787843Y-45184762D01*
X132316952Y-45618668D02*
X131690511Y-45261497D01*
%TO.C,D6*%
X111438934Y-59376004D02*
X111834018Y-59313430D01*
X111834018Y-59313430D02*
X111747977Y-58770191D01*
X111834018Y-59313430D02*
X111920057Y-59856656D01*
X111834018Y-59313430D02*
X112364047Y-58824488D01*
X112364047Y-58824488D02*
X112489203Y-59614642D01*
X112426631Y-59219563D02*
X112920480Y-59141340D01*
X112489203Y-59614642D02*
X111834018Y-59313430D01*
%TO.C,D20*%
X185434962Y-99907482D02*
X185833432Y-99942342D01*
X185833432Y-99942342D02*
X185785506Y-100490257D01*
X185833432Y-99942342D02*
X185881379Y-99394429D01*
X185833432Y-99942342D02*
X186466017Y-99596162D01*
X186396288Y-100393122D02*
X185833432Y-99942342D01*
X186431162Y-99994645D02*
X186929254Y-100038220D01*
X186466017Y-99596162D02*
X186396288Y-100393122D01*
%TO.C,D3*%
X340967830Y-61801542D02*
X341362905Y-61864120D01*
X341362905Y-61864120D02*
X341276873Y-62407351D01*
X341362905Y-61864120D02*
X341448949Y-61320886D01*
X341362905Y-61864120D02*
X342018088Y-61562896D01*
X341892945Y-62353056D02*
X341362905Y-61864120D01*
X341955525Y-61957979D02*
X342449362Y-62036202D01*
X342018088Y-61562896D02*
X341892945Y-62353056D01*
%TO.C,D8*%
X303123888Y-62144191D02*
X303522923Y-62172090D01*
X303522923Y-62172090D02*
X303484557Y-62720745D01*
X303522923Y-62172090D02*
X303561283Y-61623424D01*
X303522923Y-62172090D02*
X304149368Y-61814903D01*
X304093558Y-62612965D02*
X303522923Y-62172090D01*
X304121461Y-62213934D02*
X304620252Y-62248803D01*
X304149368Y-61814903D02*
X304093558Y-62612965D01*
%TO.C,D13*%
X267140502Y-78905064D02*
X267540500Y-78905061D01*
X267540500Y-78905061D02*
X267540498Y-78355061D01*
X267540500Y-78905061D02*
X267540504Y-79455063D01*
X267540500Y-78905061D02*
X268140504Y-78505056D01*
X268140505Y-78905061D02*
X268640506Y-78905058D01*
X268140504Y-79305064D02*
X267540500Y-78905061D01*
X268140504Y-78505056D02*
X268140504Y-79305064D01*
%TO.C,D14*%
X168457094Y-61904246D02*
X168857094Y-61904236D01*
X168857094Y-61904236D02*
X168857097Y-62454242D01*
X168857094Y-61904236D02*
X168857097Y-61354240D01*
X168857094Y-61904236D02*
X169457096Y-61504241D01*
X169457093Y-62304248D02*
X168857094Y-61904236D01*
X169457096Y-61904242D02*
X169957096Y-61904240D01*
X169457096Y-61504241D02*
X169457093Y-62304248D01*
%TO.C,D15*%
X168457093Y-44904248D02*
X168857093Y-44904238D01*
X168857093Y-44904238D02*
X168857096Y-45454244D01*
X168857093Y-44904238D02*
X168857096Y-44354242D01*
X168857093Y-44904238D02*
X169457095Y-44504243D01*
X169457092Y-45304250D02*
X168857093Y-44904238D01*
X169457095Y-44904244D02*
X169957095Y-44904242D01*
X169457095Y-44504243D02*
X169457092Y-45304250D01*
%TO.C,D19*%
X268140500Y-98905072D02*
X268540498Y-98905069D01*
X268540498Y-98905069D02*
X268540496Y-98355069D01*
X268540498Y-98905069D02*
X268540502Y-99455071D01*
X268540498Y-98905069D02*
X269140502Y-98505064D01*
X269140503Y-98905069D02*
X269640504Y-98905066D01*
X269140502Y-99305072D02*
X268540498Y-98905069D01*
X269140502Y-98505064D02*
X269140502Y-99305072D01*
%TO.C,D17*%
X250140494Y-63905079D02*
X250540492Y-63905076D01*
X250540492Y-63905076D02*
X250540490Y-63355076D01*
X250540492Y-63905076D02*
X250540496Y-64455078D01*
X250540492Y-63905076D02*
X251140496Y-63505071D01*
X251140497Y-63905076D02*
X251640498Y-63905073D01*
X251140496Y-64305079D02*
X250540492Y-63905076D01*
X251140496Y-63505071D02*
X251140496Y-64305079D01*
%TO.C,D18*%
X250140498Y-46905071D02*
X250540496Y-46905068D01*
X250540496Y-46905068D02*
X250540494Y-46355068D01*
X250540496Y-46905068D02*
X250540500Y-47455070D01*
X250540496Y-46905068D02*
X251140500Y-46505063D01*
X251140501Y-46905068D02*
X251640502Y-46905065D01*
X251140500Y-47305071D02*
X250540496Y-46905068D01*
X251140500Y-46505063D02*
X251140500Y-47305071D01*
%TO.C,D11*%
X284140501Y-55905073D02*
X284540499Y-55905070D01*
X284540499Y-55905070D02*
X284540497Y-55355070D01*
X284540499Y-55905070D02*
X284540503Y-56455072D01*
X284540499Y-55905070D02*
X285140503Y-55505065D01*
X285140504Y-55905070D02*
X285640505Y-55905067D01*
X285140503Y-56305073D02*
X284540499Y-55905070D01*
X285140503Y-55505065D02*
X285140503Y-56305073D01*
%TO.C,D5*%
X321517743Y-75932861D02*
X321912818Y-75995439D01*
X321912818Y-75995439D02*
X321826786Y-76538670D01*
X321912818Y-75995439D02*
X321998862Y-75452205D01*
X321912818Y-75995439D02*
X322568001Y-75694215D01*
X322442858Y-76484375D02*
X321912818Y-75995439D01*
X322505438Y-76089298D02*
X322999275Y-76167521D01*
X322568001Y-75694215D02*
X322442858Y-76484375D01*
%TO.C,D19*%
X167457101Y-98904249D02*
X167857101Y-98904239D01*
X167857101Y-98904239D02*
X167857104Y-99454245D01*
X167857101Y-98904239D02*
X167857104Y-98354243D01*
X167857101Y-98904239D02*
X168457103Y-98504244D01*
X168457100Y-99304251D02*
X167857101Y-98904239D01*
X168457103Y-98904245D02*
X168957103Y-98904243D01*
X168457103Y-98504244D02*
X168457100Y-99304251D01*
%TO.C,D11*%
X151457104Y-55904255D02*
X151857104Y-55904245D01*
X151857104Y-55904245D02*
X151857107Y-56454251D01*
X151857104Y-55904245D02*
X151857107Y-55354249D01*
X151857104Y-55904245D02*
X152457106Y-55504250D01*
X152457103Y-56304257D02*
X151857104Y-55904245D01*
X152457106Y-55904251D02*
X152957106Y-55904249D01*
X152457106Y-55504250D02*
X152457103Y-56304257D01*
%TO.C,D10*%
X151457094Y-72904247D02*
X151857094Y-72904237D01*
X151857094Y-72904237D02*
X151857097Y-73454243D01*
X151857094Y-72904237D02*
X151857097Y-72354241D01*
X151857094Y-72904237D02*
X152457096Y-72504242D01*
X152457093Y-73304249D02*
X151857094Y-72904237D01*
X152457096Y-72904243D02*
X152957096Y-72904241D01*
X152457096Y-72504242D02*
X152457093Y-73304249D01*
%TO.C,D6*%
X324177130Y-59142162D02*
X324572205Y-59204740D01*
X324572205Y-59204740D02*
X324486173Y-59747971D01*
X324572205Y-59204740D02*
X324658249Y-58661506D01*
X324572205Y-59204740D02*
X325227388Y-58903516D01*
X325102245Y-59693676D02*
X324572205Y-59204740D01*
X325164825Y-59298599D02*
X325658662Y-59376822D01*
X325227388Y-58903516D02*
X325102245Y-59693676D01*
%TO.C,D8*%
X132477344Y-62247984D02*
X132876370Y-62220081D01*
X132876370Y-62220081D02*
X132838009Y-61671415D01*
X132876370Y-62220081D02*
X132914742Y-62768738D01*
X132876370Y-62220081D02*
X133447012Y-61779197D01*
X133447012Y-61779197D02*
X133502811Y-62577252D01*
X133474919Y-62178226D02*
X133973702Y-62143346D01*
X133502811Y-62577252D02*
X132876370Y-62220081D01*
%TO.C,D3*%
X94648228Y-62035391D02*
X95043312Y-61972817D01*
X95043312Y-61972817D02*
X94957271Y-61429578D01*
X95043312Y-61972817D02*
X95129351Y-62516043D01*
X95043312Y-61972817D02*
X95573341Y-61483875D01*
X95573341Y-61483875D02*
X95698497Y-62274029D01*
X95635925Y-61878950D02*
X96129774Y-61800727D01*
X95698497Y-62274029D02*
X95043312Y-61972817D01*
%TO.C,D5*%
X114098323Y-76166703D02*
X114493407Y-76104129D01*
X114493407Y-76104129D02*
X114407366Y-75560890D01*
X114493407Y-76104129D02*
X114579446Y-76647355D01*
X114493407Y-76104129D02*
X115023436Y-75615187D01*
X115023436Y-75615187D02*
X115148592Y-76405341D01*
X115086020Y-76010262D02*
X115579869Y-75932039D01*
X115148592Y-76405341D02*
X114493407Y-76104129D01*
%TO.C,D10*%
X284140497Y-72905070D02*
X284540495Y-72905067D01*
X284540495Y-72905067D02*
X284540493Y-72355067D01*
X284540495Y-72905067D02*
X284540499Y-73455069D01*
X284540495Y-72905067D02*
X285140499Y-72505062D01*
X285140500Y-72905067D02*
X285640501Y-72905064D01*
X285140499Y-73305070D02*
X284540495Y-72905067D01*
X285140499Y-72505062D02*
X285140499Y-73305070D01*
%TO.C,D21*%
X230830276Y-104794115D02*
X231206146Y-104657306D01*
X231206146Y-104657306D02*
X231018036Y-104140477D01*
X231206146Y-104657306D02*
X231394252Y-105174139D01*
X231206146Y-104657306D02*
X231633151Y-104076223D01*
X231633151Y-104076223D02*
X231906770Y-104827976D01*
X231769952Y-104452096D02*
X232239798Y-104281089D01*
X231906770Y-104827976D02*
X231206146Y-104657306D01*
%TO.C,D13*%
X168457097Y-78904252D02*
X168857097Y-78904242D01*
X168857097Y-78904242D02*
X168857100Y-79454248D01*
X168857097Y-78904242D02*
X168857100Y-78354246D01*
X168857097Y-78904242D02*
X169457099Y-78504247D01*
X169457096Y-79304254D02*
X168857097Y-78904242D01*
X169457099Y-78904248D02*
X169957099Y-78904246D01*
X169457099Y-78504247D02*
X169457096Y-79304254D01*
%TO.C,D2*%
X97307618Y-78826088D02*
X97702702Y-78763514D01*
X97702702Y-78763514D02*
X97616661Y-78220275D01*
X97702702Y-78763514D02*
X97788741Y-79306740D01*
X97702702Y-78763514D02*
X98232731Y-78274572D01*
X98232731Y-78274572D02*
X98357887Y-79064726D01*
X98295315Y-78669647D02*
X98789164Y-78591424D01*
X98357887Y-79064726D02*
X97702702Y-78763514D01*
%TO.C,D21*%
X204857792Y-104280263D02*
X205233681Y-104417072D01*
X205233681Y-104417072D02*
X205045563Y-104933897D01*
X205233681Y-104417072D02*
X205421779Y-103900241D01*
X205233681Y-104417072D02*
X205934295Y-104246407D01*
X205660680Y-104998165D02*
X205233681Y-104417072D01*
X205797488Y-104622279D02*
X206267338Y-104793289D01*
X205934295Y-104246407D02*
X205660680Y-104998165D01*
%TO.C,D17*%
X185457099Y-63904247D02*
X185857099Y-63904237D01*
X185857099Y-63904237D02*
X185857102Y-64454243D01*
X185857099Y-63904237D02*
X185857102Y-63354241D01*
X185857099Y-63904237D02*
X186457101Y-63504242D01*
X186457098Y-64304249D02*
X185857099Y-63904237D01*
X186457101Y-63904243D02*
X186957101Y-63904241D01*
X186457101Y-63504242D02*
X186457098Y-64304249D01*
%TO.C,D7*%
X133663202Y-79206583D02*
X134062228Y-79178680D01*
X134062228Y-79178680D02*
X134023867Y-78630014D01*
X134062228Y-79178680D02*
X134100600Y-79727337D01*
X134062228Y-79178680D02*
X134632870Y-78737796D01*
X134632870Y-78737796D02*
X134688669Y-79535851D01*
X134660777Y-79136825D02*
X135159560Y-79101945D01*
X134688669Y-79535851D02*
X134062228Y-79178680D01*
%TO.C,D1*%
X99966998Y-95616791D02*
X100362082Y-95554217D01*
X100362082Y-95554217D02*
X100276041Y-95010978D01*
X100362082Y-95554217D02*
X100448121Y-96097443D01*
X100362082Y-95554217D02*
X100892111Y-95065275D01*
X100892111Y-95065275D02*
X101017267Y-95855429D01*
X100954695Y-95460350D02*
X101448544Y-95382127D01*
X101017267Y-95855429D02*
X100362082Y-95554217D01*
%TO.C,D9*%
X304309753Y-45185590D02*
X304708788Y-45213489D01*
X304708788Y-45213489D02*
X304670422Y-45762144D01*
X304708788Y-45213489D02*
X304747148Y-44664823D01*
X304708788Y-45213489D02*
X305335233Y-44856302D01*
X305279423Y-45654364D02*
X304708788Y-45213489D01*
X305307326Y-45255333D02*
X305806117Y-45290202D01*
X305335233Y-44856302D02*
X305279423Y-45654364D01*
%TO.C,D15*%
X267140493Y-44905068D02*
X267540491Y-44905065D01*
X267540491Y-44905065D02*
X267540489Y-44355065D01*
X267540491Y-44905065D02*
X267540495Y-45455067D01*
X267540491Y-44905065D02*
X268140495Y-44505060D01*
X268140496Y-44905065D02*
X268640497Y-44905062D01*
X268140495Y-45305068D02*
X267540491Y-44905065D01*
X268140495Y-44505060D02*
X268140495Y-45305068D01*
%TO.C,D20*%
X250168351Y-100039038D02*
X250566835Y-100004174D01*
X250566835Y-100004174D02*
X250518892Y-99456265D01*
X250566835Y-100004174D02*
X250614768Y-100552085D01*
X250566835Y-100004174D02*
X251129682Y-99553396D01*
X251129682Y-99553396D02*
X251199415Y-100350357D01*
X251164549Y-99951873D02*
X251662647Y-99908296D01*
X251199415Y-100350357D02*
X250566835Y-100004174D01*
%TO.C,D12*%
X151457102Y-38904255D02*
X151857102Y-38904245D01*
X151857102Y-38904245D02*
X151857105Y-39454251D01*
X151857102Y-38904245D02*
X151857105Y-38354249D01*
X151857102Y-38904245D02*
X152457104Y-38504250D01*
X152457101Y-39304257D02*
X151857102Y-38904245D01*
X152457104Y-38904251D02*
X152957104Y-38904249D01*
X152457104Y-38504250D02*
X152457101Y-39304257D01*
%TO.C,D2*%
X338308447Y-78592247D02*
X338703522Y-78654825D01*
X338703522Y-78654825D02*
X338617490Y-79198056D01*
X338703522Y-78654825D02*
X338789566Y-78111591D01*
X338703522Y-78654825D02*
X339358705Y-78353601D01*
X339233562Y-79143761D02*
X338703522Y-78654825D01*
X339296142Y-78748684D02*
X339789979Y-78826907D01*
X339358705Y-78353601D02*
X339233562Y-79143761D01*
%TD*%
M02*
