%TF.GenerationSoftware,KiCad,Pcbnew,8.0.6*%
%TF.CreationDate,2025-07-17T00:06:11+02:00*%
%TF.ProjectId,combined,636f6d62-696e-4656-942e-6b696361645f,v1.0.0*%
%TF.SameCoordinates,Original*%
%TF.FileFunction,Paste,Top*%
%TF.FilePolarity,Positive*%
%FSLAX46Y46*%
G04 Gerber Fmt 4.6, Leading zero omitted, Abs format (unit mm)*
G04 Created by KiCad (PCBNEW 8.0.6) date 2025-07-17 00:06:11*
%MOMM*%
%LPD*%
G01*
G04 APERTURE LIST*
G04 Aperture macros list*
%AMRotRect*
0 Rectangle, with rotation*
0 The origin of the aperture is its center*
0 $1 length*
0 $2 width*
0 $3 Rotation angle, in degrees counterclockwise*
0 Add horizontal line*
21,1,$1,$2,0,0,$3*%
G04 Aperture macros list end*
%ADD10R,0.900000X1.200000*%
%ADD11RotRect,1.550000X2.000000X351.000000*%
%ADD12RotRect,2.000000X2.000000X351.000000*%
%ADD13RotRect,1.550000X2.000000X20.000000*%
%ADD14RotRect,2.000000X2.000000X20.000000*%
%ADD15RotRect,0.900000X1.200000X351.000000*%
%ADD16RotRect,1.550000X2.000000X9.000000*%
%ADD17RotRect,2.000000X2.000000X9.000000*%
%ADD18R,1.550000X2.000000*%
%ADD19R,2.000000X2.000000*%
%ADD20RotRect,0.900000X1.200000X356.000000*%
%ADD21RotRect,1.550000X2.000000X356.000000*%
%ADD22RotRect,2.000000X2.000000X356.000000*%
%ADD23RotRect,0.900000X1.200000X9.000000*%
%ADD24RotRect,0.900000X1.200000X4.000000*%
%ADD25RotRect,1.550000X2.000000X340.000000*%
%ADD26RotRect,2.000000X2.000000X340.000000*%
%ADD27RotRect,0.900000X1.200000X355.000000*%
%ADD28RotRect,1.550000X2.000000X4.000000*%
%ADD29RotRect,2.000000X2.000000X4.000000*%
%ADD30RotRect,1.550000X2.000000X355.000000*%
%ADD31RotRect,2.000000X2.000000X355.000000*%
%ADD32RotRect,0.900000X1.200000X20.000000*%
%ADD33RotRect,1.000000X0.800000X161.000000*%
%ADD34RotRect,0.700000X1.500000X161.000000*%
%ADD35RotRect,0.900000X1.200000X340.000000*%
%ADD36RotRect,1.000000X0.800000X199.000000*%
%ADD37RotRect,0.700000X1.500000X199.000000*%
%ADD38RotRect,0.900000X1.200000X5.000000*%
%ADD39RotRect,1.550000X2.000000X5.000000*%
%ADD40RotRect,2.000000X2.000000X5.000000*%
G04 APERTURE END LIST*
D10*
%TO.C,D16*%
X184507414Y-80899999D03*
X187807408Y-80899997D03*
%TD*%
D11*
%TO.C,CPG1316*%
X318902681Y-80938988D03*
X323841124Y-81721163D03*
D12*
X314576027Y-83645482D03*
X316453244Y-71793223D03*
X327119666Y-85632191D03*
X328996883Y-73779932D03*
%TD*%
D11*
%TO.C,CPG1316*%
X333033997Y-100389069D03*
X337972440Y-101171244D03*
D12*
X328707343Y-103095563D03*
X330584560Y-91243304D03*
X341250982Y-105082272D03*
X343128199Y-93230013D03*
%TD*%
D13*
%TO.C,CPG1316*%
X230965935Y-110415763D03*
X235664396Y-108705664D03*
D14*
X224389643Y-103604196D03*
X228493888Y-114880508D03*
X236323738Y-99260540D03*
X240427983Y-110536852D03*
%TD*%
D15*
%TO.C,D1*%
X334710458Y-95237914D03*
X337969832Y-95754146D03*
%TD*%
D16*
%TO.C,CPG1316*%
X96366407Y-84379717D03*
X101304845Y-83597545D03*
D17*
X91210647Y-76438492D03*
X93087863Y-88290746D03*
X103754287Y-74451778D03*
X105631503Y-86304032D03*
%TD*%
D18*
%TO.C,CPG1316*%
X282340819Y-78250817D03*
X287340817Y-78250823D03*
D19*
X278490820Y-81600814D03*
X278490822Y-69600822D03*
X291190816Y-81600812D03*
X291190818Y-69600820D03*
%TD*%
D18*
%TO.C,CPG1316*%
X166657415Y-67250000D03*
X171657416Y-67249999D03*
D19*
X162807410Y-58600003D03*
X162807419Y-70599995D03*
X175507413Y-58600009D03*
X175507422Y-70600001D03*
%TD*%
D10*
%TO.C,D18*%
X184507420Y-46900002D03*
X187807414Y-46900000D03*
%TD*%
D20*
%TO.C,D7*%
X300990548Y-79035735D03*
X304282510Y-79265925D03*
%TD*%
D11*
%TO.C,CPG1316*%
X321562062Y-64148276D03*
X326500505Y-64930451D03*
D12*
X317235408Y-66854770D03*
X319112625Y-55002511D03*
X329779047Y-68841479D03*
X331656264Y-56989220D03*
%TD*%
D18*
%TO.C,CPG1316*%
X165657420Y-104249993D03*
X170657421Y-104249992D03*
D19*
X161807415Y-95599996D03*
X161807424Y-107599988D03*
X174507418Y-95600002D03*
X174507427Y-107599994D03*
%TD*%
D18*
%TO.C,CPG1316*%
X265340817Y-67250817D03*
X270340815Y-67250823D03*
D19*
X261490818Y-70600814D03*
X261490820Y-58600822D03*
X274190814Y-70600812D03*
X274190816Y-58600820D03*
%TD*%
D21*
%TO.C,CPG1316*%
X299769420Y-84313405D03*
X304757243Y-84662193D03*
D22*
X295695116Y-87386683D03*
X296532196Y-75415916D03*
X308364180Y-88272596D03*
X309201260Y-76301829D03*
%TD*%
D15*
%TO.C,D4*%
X317919750Y-92578527D03*
X321179124Y-93094759D03*
%TD*%
D18*
%TO.C,CPG1316*%
X149657416Y-78249999D03*
X154657417Y-78249998D03*
D19*
X145807411Y-69600002D03*
X145807420Y-81599994D03*
X158507414Y-69600008D03*
X158507423Y-81600000D03*
%TD*%
D10*
%TO.C,D16*%
X249190819Y-80900824D03*
X252490811Y-80900820D03*
%TD*%
D18*
%TO.C,CPG1316*%
X166657421Y-50250001D03*
X171657422Y-50250000D03*
D19*
X162807416Y-41600004D03*
X162807425Y-53599996D03*
X175507419Y-41600010D03*
X175507428Y-53600002D03*
%TD*%
D23*
%TO.C,D4*%
X115819113Y-93093941D03*
X119078485Y-92577707D03*
%TD*%
D18*
%TO.C,CPG1316*%
X183657413Y-52249990D03*
X188657414Y-52249989D03*
D19*
X179807408Y-43599993D03*
X179807417Y-55599985D03*
X192507411Y-43599999D03*
X192507420Y-55599991D03*
%TD*%
D10*
%TO.C,D12*%
X283190824Y-38900814D03*
X286490816Y-38900810D03*
%TD*%
%TO.C,D14*%
X266190820Y-61900816D03*
X269490812Y-61900812D03*
%TD*%
D24*
%TO.C,D9*%
X130344006Y-45347925D03*
X133635956Y-45117737D03*
%TD*%
D23*
%TO.C,D6*%
X110500338Y-59512540D03*
X113759710Y-58996306D03*
%TD*%
D25*
%TO.C,CPG1316*%
X201333833Y-108704849D03*
X206032297Y-110414942D03*
D26*
X200674494Y-99259728D03*
X196570256Y-110536035D03*
X212608580Y-103603379D03*
X208504342Y-114879686D03*
%TD*%
D27*
%TO.C,D20*%
X184488707Y-99824794D03*
X187776145Y-100112412D03*
%TD*%
D15*
%TO.C,D3*%
X340029229Y-61656510D03*
X343288603Y-62172742D03*
%TD*%
D20*
%TO.C,D8*%
X302176409Y-62077151D03*
X305468371Y-62307341D03*
%TD*%
D11*
%TO.C,CPG1316*%
X335693381Y-83598366D03*
X340631824Y-84380541D03*
D12*
X331366727Y-86304860D03*
X333243944Y-74452601D03*
X343910366Y-88291569D03*
X345787583Y-76439310D03*
%TD*%
D10*
%TO.C,D13*%
X266190825Y-78900817D03*
X269490817Y-78900813D03*
%TD*%
%TO.C,D14*%
X167507414Y-61899995D03*
X170807408Y-61899993D03*
%TD*%
D11*
%TO.C,CPG1316*%
X338352766Y-66807665D03*
X343291209Y-67589840D03*
D12*
X334026112Y-69514159D03*
X335903329Y-57661900D03*
X346569751Y-71500868D03*
X348446968Y-59648609D03*
%TD*%
D28*
%TO.C,CPG1316*%
X131055125Y-67702784D03*
X136042948Y-67353999D03*
D29*
X126611111Y-59342424D03*
X127448197Y-71313182D03*
X139280171Y-58456514D03*
X140117257Y-70427272D03*
%TD*%
D10*
%TO.C,D15*%
X167507417Y-44899997D03*
X170807411Y-44899995D03*
%TD*%
D16*
%TO.C,CPG1316*%
X99025802Y-101170428D03*
X103964240Y-100388256D03*
D17*
X93870042Y-93229203D03*
X95747258Y-105081457D03*
X106413682Y-91242489D03*
X108290898Y-103094743D03*
%TD*%
D11*
%TO.C,CPG1316*%
X316243299Y-97729687D03*
X321181742Y-98511862D03*
D12*
X311916645Y-100436181D03*
X313793862Y-88583922D03*
X324460284Y-102422890D03*
X326337501Y-90570631D03*
%TD*%
D18*
%TO.C,CPG1316*%
X282340824Y-61250820D03*
X287340822Y-61250826D03*
D19*
X278490825Y-64600817D03*
X278490827Y-52600825D03*
X291190821Y-64600815D03*
X291190823Y-52600823D03*
%TD*%
D18*
%TO.C,CPG1316*%
X266340819Y-104250821D03*
X271340817Y-104250827D03*
D19*
X262490820Y-107600818D03*
X262490822Y-95600826D03*
X275190816Y-107600816D03*
X275190818Y-95600824D03*
%TD*%
D10*
%TO.C,D19*%
X267190822Y-98900820D03*
X270490814Y-98900816D03*
%TD*%
D18*
%TO.C,CPG1316*%
X248340815Y-52250820D03*
X253340813Y-52250826D03*
D19*
X244490816Y-55600817D03*
X244490818Y-43600825D03*
X257190812Y-55600815D03*
X257190814Y-43600823D03*
%TD*%
D10*
%TO.C,D17*%
X249190818Y-63900827D03*
X252490810Y-63900823D03*
%TD*%
%TO.C,D18*%
X249190822Y-46900822D03*
X252490814Y-46900818D03*
%TD*%
D28*
%TO.C,CPG1316*%
X132240986Y-84661368D03*
X137228809Y-84312583D03*
D29*
X127796972Y-76301008D03*
X128634058Y-88271766D03*
X140466032Y-75415098D03*
X141303118Y-87385856D03*
%TD*%
D10*
%TO.C,D11*%
X283190822Y-55900822D03*
X286490814Y-55900818D03*
%TD*%
D18*
%TO.C,CPG1316*%
X183657418Y-69249997D03*
X188657419Y-69249996D03*
D19*
X179807413Y-60600000D03*
X179807422Y-72599992D03*
X192507416Y-60600006D03*
X192507425Y-72599998D03*
%TD*%
D15*
%TO.C,D5*%
X320579137Y-75787825D03*
X323838511Y-76304057D03*
%TD*%
D10*
%TO.C,D19*%
X166507422Y-98899999D03*
X169807416Y-98899997D03*
%TD*%
%TO.C,D11*%
X150507423Y-55900005D03*
X153807417Y-55900003D03*
%TD*%
D18*
%TO.C,CPG1316*%
X149657411Y-61249995D03*
X154657412Y-61249994D03*
D19*
X145807406Y-52599998D03*
X145807415Y-64599990D03*
X158507409Y-52600004D03*
X158507418Y-64599996D03*
%TD*%
D10*
%TO.C,D10*%
X150507413Y-72899997D03*
X153807407Y-72899995D03*
%TD*%
D16*
%TO.C,CPG1316*%
X115816499Y-98511037D03*
X120754937Y-97728865D03*
D17*
X110660739Y-90569812D03*
X112537955Y-102422066D03*
X123204379Y-88583098D03*
X125081595Y-100435352D03*
%TD*%
D15*
%TO.C,D6*%
X323238526Y-58997128D03*
X326497900Y-59513360D03*
%TD*%
D24*
%TO.C,D8*%
X131529864Y-62306512D03*
X134821814Y-62076324D03*
%TD*%
D23*
%TO.C,D3*%
X93709631Y-62171923D03*
X96969003Y-61655689D03*
%TD*%
D21*
%TO.C,CPG1316*%
X302141140Y-50396231D03*
X307128963Y-50745019D03*
D22*
X298066836Y-53469509D03*
X298903916Y-41498742D03*
X310735900Y-54355422D03*
X311572980Y-42384655D03*
%TD*%
D18*
%TO.C,CPG1316*%
X248340817Y-86250813D03*
X253340815Y-86250819D03*
D19*
X244490818Y-89600810D03*
X244490820Y-77600818D03*
X257190814Y-89600808D03*
X257190816Y-77600816D03*
%TD*%
D18*
%TO.C,CPG1316*%
X166657411Y-84249999D03*
X171657412Y-84249998D03*
D19*
X162807406Y-75600002D03*
X162807415Y-87599994D03*
X175507409Y-75600008D03*
X175507418Y-87600000D03*
%TD*%
D30*
%TO.C,CPG1316*%
X183175652Y-105080345D03*
X188156624Y-105516126D03*
D31*
X179048328Y-108082048D03*
X180094201Y-96127715D03*
X191699999Y-109188933D03*
X192745872Y-97234600D03*
%TD*%
D18*
%TO.C,CPG1316*%
X149657414Y-44249997D03*
X154657415Y-44249996D03*
D19*
X145807409Y-35600000D03*
X145807418Y-47599992D03*
X158507412Y-35600006D03*
X158507421Y-47599998D03*
%TD*%
D23*
%TO.C,D5*%
X113159726Y-76303237D03*
X116419098Y-75787003D03*
%TD*%
D10*
%TO.C,D10*%
X283190818Y-72900818D03*
X286490810Y-72900814D03*
%TD*%
D32*
%TO.C,D21*%
X229934865Y-105097685D03*
X233035841Y-103969021D03*
%TD*%
D21*
%TO.C,CPG1316*%
X300955283Y-67354812D03*
X305943106Y-67703600D03*
D22*
X296880979Y-70428090D03*
X297718059Y-58457323D03*
X309550043Y-71314003D03*
X310387123Y-59343236D03*
%TD*%
D28*
%TO.C,CPG1316*%
X129869268Y-50744197D03*
X134857091Y-50395412D03*
D29*
X125425254Y-42383837D03*
X126262340Y-54354595D03*
X138094314Y-41497927D03*
X138931400Y-53468685D03*
%TD*%
D33*
%TO.C,PWR1*%
X170048360Y-38236653D03*
X163146076Y-35860005D03*
X170767859Y-36147055D03*
X163865573Y-33770406D03*
D34*
X168513020Y-38395446D03*
X165676451Y-37418737D03*
X164258179Y-36930383D03*
%TD*%
D10*
%TO.C,D13*%
X167507416Y-78900001D03*
X170807410Y-78899999D03*
%TD*%
D16*
%TO.C,CPG1316*%
X110497723Y-64929638D03*
X115436161Y-64147466D03*
D17*
X105341963Y-56988413D03*
X107219179Y-68840667D03*
X117885603Y-55001699D03*
X119762819Y-66853953D03*
%TD*%
D16*
%TO.C,CPG1316*%
X93707027Y-67589017D03*
X98645465Y-66806845D03*
D17*
X88551267Y-59647792D03*
X90428483Y-71500046D03*
X101094907Y-57661078D03*
X102972123Y-69513332D03*
%TD*%
D23*
%TO.C,D2*%
X96369020Y-78962624D03*
X99628392Y-78446390D03*
%TD*%
D35*
%TO.C,D21*%
X203962392Y-103968196D03*
X207063370Y-105096864D03*
%TD*%
D10*
%TO.C,D17*%
X184507420Y-63899995D03*
X187807414Y-63899993D03*
%TD*%
D36*
%TO.C,PWR1*%
X266798169Y-38253719D03*
X273700453Y-35877072D03*
X272980952Y-33787481D03*
X266078660Y-36164128D03*
D37*
X272588346Y-36947456D03*
X269751795Y-37924156D03*
X268333517Y-38412511D03*
%TD*%
D24*
%TO.C,D7*%
X132715724Y-79265110D03*
X136007674Y-79034922D03*
%TD*%
D23*
%TO.C,D1*%
X99028404Y-95753327D03*
X102287776Y-95237093D03*
%TD*%
D20*
%TO.C,D9*%
X303362270Y-45118554D03*
X306654232Y-45348744D03*
%TD*%
D18*
%TO.C,CPG1316*%
X282340817Y-44250816D03*
X287340815Y-44250822D03*
D19*
X278490818Y-47600813D03*
X278490820Y-35600821D03*
X291190814Y-47600811D03*
X291190816Y-35600819D03*
%TD*%
D18*
%TO.C,CPG1316*%
X265340818Y-50250819D03*
X270340816Y-50250825D03*
D19*
X261490819Y-53600816D03*
X261490821Y-41600824D03*
X274190815Y-53600814D03*
X274190817Y-41600822D03*
%TD*%
D18*
%TO.C,CPG1316*%
X248340821Y-69250819D03*
X253340819Y-69250825D03*
D19*
X244490822Y-72600816D03*
X244490824Y-60600824D03*
X257190818Y-72600814D03*
X257190820Y-60600822D03*
%TD*%
D10*
%TO.C,D15*%
X266190820Y-44900818D03*
X269490812Y-44900814D03*
%TD*%
D18*
%TO.C,CPG1316*%
X265340822Y-84250817D03*
X270340820Y-84250823D03*
D19*
X261490823Y-87600814D03*
X261490825Y-75600822D03*
X274190819Y-87600812D03*
X274190821Y-75600820D03*
%TD*%
D16*
%TO.C,CPG1316*%
X113157108Y-81720332D03*
X118095546Y-80938160D03*
D17*
X108001348Y-73779107D03*
X109878564Y-85631361D03*
X120544988Y-71792393D03*
X122422204Y-83644647D03*
%TD*%
D38*
%TO.C,D20*%
X249222092Y-100113226D03*
X252509538Y-99825610D03*
%TD*%
D10*
%TO.C,D12*%
X150507425Y-38900005D03*
X153807419Y-38900003D03*
%TD*%
D18*
%TO.C,CPG1316*%
X183657413Y-86249993D03*
X188657414Y-86249992D03*
D19*
X179807408Y-77599996D03*
X179807417Y-89599988D03*
X192507411Y-77600002D03*
X192507420Y-89599994D03*
%TD*%
D15*
%TO.C,D2*%
X337369842Y-78447211D03*
X340629216Y-78963443D03*
%TD*%
D39*
%TO.C,CPG1316*%
X248841599Y-105516945D03*
X253822577Y-105081177D03*
D40*
X244252356Y-97235415D03*
X245298226Y-109189748D03*
X256904030Y-96128544D03*
X257949900Y-108082877D03*
%TD*%
M02*
