%TF.GenerationSoftware,KiCad,Pcbnew,8.0.6*%
%TF.CreationDate,2025-07-20T13:06:01+02:00*%
%TF.ProjectId,combined,636f6d62-696e-4656-942e-6b696361645f,v1.0.0*%
%TF.SameCoordinates,Original*%
%TF.FileFunction,Profile,NP*%
%FSLAX46Y46*%
G04 Gerber Fmt 4.6, Leading zero omitted, Abs format (unit mm)*
G04 Created by KiCad (PCBNEW 8.0.6) date 2025-07-20 13:06:01*
%MOMM*%
%LPD*%
G01*
G04 APERTURE LIST*
%TA.AperFunction,Profile*%
%ADD10C,0.150000*%
%TD*%
%TA.AperFunction,Profile*%
%ADD11C,0.050000*%
%TD*%
%TA.AperFunction,Profile*%
%ADD12C,0.100000*%
%TD*%
G04 APERTURE END LIST*
D10*
X121879974Y-39051988D02*
X141892607Y-32211744D01*
X121342467Y-39332886D02*
G75*
G02*
X121879971Y-39051980I1185134J-1613015D01*
G01*
X101630629Y-53818979D02*
G75*
G02*
X100759132Y-54182759I-1184629J1612179D01*
G01*
X179549687Y-38104246D02*
X215447921Y-38104253D01*
X141386832Y-100469438D02*
G75*
G02*
X142900635Y-100772378I394869J-1960562D01*
G01*
X274567445Y-32219086D02*
X258213560Y-37991043D01*
X101630629Y-53818979D02*
X121342467Y-39332886D01*
X336338467Y-54183563D02*
G75*
G02*
X335466986Y-53819789I312433J1974263D01*
G01*
D11*
X217450000Y-45274999D02*
X219650000Y-45275000D01*
D10*
X161864514Y-32104251D02*
G75*
G02*
X162530155Y-32218278I-114J-2000550D01*
G01*
X245375901Y-112560291D02*
X261871217Y-111261157D01*
X94730319Y-108779112D02*
G75*
G02*
X92423586Y-107119625I-331319J1972412D01*
G01*
D11*
X217447922Y-40103423D02*
X219649685Y-40104248D01*
D10*
X219752503Y-101976961D02*
G75*
G02*
X219624590Y-101272359I1870397J703461D01*
G01*
D11*
X241505898Y-62331774D02*
X241505896Y-94331771D01*
X220505893Y-94331772D01*
X220505893Y-62331771D01*
X241505898Y-62331774D01*
D10*
X215447921Y-38104253D02*
G75*
G02*
X217447947Y-40103423I79J-1999947D01*
G01*
X211483256Y-117568750D02*
G75*
G02*
X208927144Y-118744342I-1872056J703750D01*
G01*
X191721696Y-112559466D02*
G75*
G02*
X192248714Y-112673892I-157296J-1995334D01*
G01*
X162530159Y-32218266D02*
X178884051Y-37990225D01*
X179549687Y-38104246D02*
G75*
G02*
X178884053Y-37990220I-87J1999346D01*
G01*
X315217619Y-39052805D02*
G75*
G02*
X315755116Y-39333717I-646920J-1892496D01*
G01*
X279389573Y-110768192D02*
G75*
G02*
X278288400Y-111110418I-1119073J1658092D01*
G01*
D11*
X217473019Y-101271540D02*
X219624585Y-101272359D01*
D10*
X295710770Y-100470257D02*
X309786882Y-103305077D01*
X344674023Y-107120433D02*
X352336365Y-58742319D01*
X262010478Y-111255066D02*
X278288400Y-111110416D01*
X219650000Y-45275000D02*
X219650000Y-96150000D01*
X221649685Y-38105061D02*
X257547920Y-38105065D01*
X294558143Y-32105072D02*
X275233081Y-32105074D01*
X127247242Y-103315982D02*
X94730319Y-108779112D01*
X228170461Y-118745172D02*
G75*
G02*
X225614326Y-117569584I-684060J1879372D01*
G01*
X86423745Y-56453250D02*
X100759131Y-54182753D01*
X191721696Y-112559466D02*
X175226386Y-111260342D01*
X217345093Y-101976140D02*
X211483256Y-117568750D01*
X84761235Y-58741498D02*
G75*
G02*
X86423747Y-56453260I1975465J312798D01*
G01*
X279389573Y-110768192D02*
X294196975Y-100773201D01*
X309850358Y-103316798D02*
X342367272Y-108779927D01*
X127310716Y-103304254D02*
G75*
G02*
X127247242Y-103315980I-395216J1961653D01*
G01*
X244848886Y-112674722D02*
G75*
G02*
X245375900Y-112560283I683814J-1878378D01*
G01*
X274567445Y-32219086D02*
G75*
G02*
X275233081Y-32105091I665555J-1885914D01*
G01*
X175087133Y-111254245D02*
G75*
G02*
X175226386Y-111260344I-17433J-1990855D01*
G01*
X141892607Y-32211744D02*
G75*
G02*
X142539465Y-32104256I646794J-1892256D01*
G01*
X142539465Y-32104249D02*
X161864514Y-32104251D01*
X258213560Y-37991043D02*
G75*
G02*
X257547920Y-38105076I-665760J1886442D01*
G01*
X217473019Y-101271540D02*
G75*
G02*
X217345109Y-101976146I-2001018J-660D01*
G01*
X350673853Y-56454068D02*
G75*
G02*
X352336405Y-58742325I-312753J-1975332D01*
G01*
D11*
X294558143Y-32105071D02*
G75*
G02*
X295202526Y-32218400I76557J-1453329D01*
G01*
D10*
X309850358Y-103316798D02*
G75*
G02*
X309786882Y-103305078I332242J1977198D01*
G01*
X344674023Y-107120433D02*
G75*
G02*
X342367278Y-108779889I-1975323J312833D01*
G01*
D11*
X217450000Y-96149999D02*
X219650000Y-96150000D01*
D10*
X228170461Y-118745172D02*
X244848884Y-112674725D01*
X208927137Y-118744361D02*
X192248711Y-112673902D01*
X219649685Y-40104248D02*
G75*
G02*
X221649685Y-38104985I1999915J-652D01*
G01*
X315217619Y-39052805D02*
X295204999Y-32212560D01*
X294196975Y-100773201D02*
G75*
G02*
X295710769Y-100470263I1118925J-1657599D01*
G01*
X217450000Y-45274999D02*
X217450000Y-96149999D01*
X92423577Y-107119626D02*
X84761235Y-58741498D01*
X158809206Y-111109599D02*
G75*
G02*
X157708051Y-110767348I17794J1999798D01*
G01*
D11*
X216600137Y-62326690D02*
X216600136Y-94326690D01*
X195600138Y-94326690D01*
X195600138Y-62326687D01*
X216600137Y-62326690D01*
D10*
X157708033Y-110767374D02*
X142900632Y-100772383D01*
X350673853Y-56454068D02*
X336338467Y-54183563D01*
X141386832Y-100469438D02*
X127310716Y-103304254D01*
X261871217Y-111261157D02*
G75*
G02*
X262010478Y-111255064I157083J-1995643D01*
G01*
X335466979Y-53819798D02*
X315755125Y-39333704D01*
X219752504Y-101976962D02*
X225614346Y-117569576D01*
X175087133Y-111254245D02*
X158809206Y-111109599D01*
D12*
%TO.C,CPG1316*%
X328594923Y-76908131D02*
G75*
G02*
X327394927Y-76908131I-599998J0D01*
G01*
X327394927Y-76908131D02*
G75*
G02*
X328594923Y-76908131I599998J0D01*
G01*
X316177351Y-80525781D02*
G75*
G02*
X315177351Y-80525781I-500000J0D01*
G01*
X315177351Y-80525781D02*
G75*
G02*
X316177351Y-80525781I500000J0D01*
G01*
X342726238Y-96358209D02*
G75*
G02*
X341526242Y-96358209I-599998J0D01*
G01*
X341526242Y-96358209D02*
G75*
G02*
X342726238Y-96358209I599998J0D01*
G01*
X330308666Y-99975859D02*
G75*
G02*
X329308666Y-99975859I-500000J0D01*
G01*
X329308666Y-99975859D02*
G75*
G02*
X330308666Y-99975859I500000J0D01*
G01*
X237568158Y-102506905D02*
G75*
G02*
X236368156Y-102506905I-600001J0D01*
G01*
X236368156Y-102506905D02*
G75*
G02*
X237568158Y-102506905I600001J0D01*
G01*
X228448835Y-111642649D02*
G75*
G02*
X227448835Y-111642649I-500000J0D01*
G01*
X227448835Y-111642649D02*
G75*
G02*
X228448835Y-111642649I500000J0D01*
G01*
X104369156Y-77752049D02*
G75*
G02*
X103169150Y-77752049I-600003J0D01*
G01*
X103169150Y-77752049D02*
G75*
G02*
X104369156Y-77752049I600003J0D01*
G01*
X93672351Y-84998975D02*
G75*
G02*
X92672367Y-84998975I-499992J0D01*
G01*
X92672367Y-84998975D02*
G75*
G02*
X93672351Y-84998975I499992J0D01*
G01*
X291290501Y-72855062D02*
G75*
G02*
X290090495Y-72855062I-600003J0D01*
G01*
X290090495Y-72855062D02*
G75*
G02*
X291290501Y-72855062I600003J0D01*
G01*
X279590503Y-78355068D02*
G75*
G02*
X278590501Y-78355068I-500001J0D01*
G01*
X278590501Y-78355068D02*
G75*
G02*
X279590503Y-78355068I500001J0D01*
G01*
X175607102Y-61854247D02*
G75*
G02*
X174407096Y-61854247I-600003J0D01*
G01*
X174407096Y-61854247D02*
G75*
G02*
X175607102Y-61854247I600003J0D01*
G01*
X163907104Y-67354253D02*
G75*
G02*
X162907102Y-67354253I-500001J0D01*
G01*
X162907102Y-67354253D02*
G75*
G02*
X163907104Y-67354253I500001J0D01*
G01*
X331254305Y-60117416D02*
G75*
G02*
X330054309Y-60117416I-599998J0D01*
G01*
X330054309Y-60117416D02*
G75*
G02*
X331254305Y-60117416I599998J0D01*
G01*
X318836733Y-63735066D02*
G75*
G02*
X317836733Y-63735066I-500000J0D01*
G01*
X317836733Y-63735066D02*
G75*
G02*
X318836733Y-63735066I500000J0D01*
G01*
X174607106Y-98854240D02*
G75*
G02*
X173407100Y-98854240I-600003J0D01*
G01*
X173407100Y-98854240D02*
G75*
G02*
X174607106Y-98854240I600003J0D01*
G01*
X162907108Y-104354246D02*
G75*
G02*
X161907106Y-104354246I-500001J0D01*
G01*
X161907106Y-104354246D02*
G75*
G02*
X162907108Y-104354246I500001J0D01*
G01*
X274290501Y-61855060D02*
G75*
G02*
X273090495Y-61855060I-600003J0D01*
G01*
X273090495Y-61855060D02*
G75*
G02*
X274290501Y-61855060I600003J0D01*
G01*
X262590503Y-67355066D02*
G75*
G02*
X261590501Y-67355066I-500001J0D01*
G01*
X261590501Y-67355066D02*
G75*
G02*
X262590503Y-67355066I500001J0D01*
G01*
X309075574Y-79509789D02*
G75*
G02*
X307875564Y-79509789I-600005J0D01*
G01*
X307875564Y-79509789D02*
G75*
G02*
X309075574Y-79509789I600005J0D01*
G01*
X297020168Y-84187215D02*
G75*
G02*
X296020170Y-84187215I-499999J0D01*
G01*
X296020170Y-84187215D02*
G75*
G02*
X297020168Y-84187215I499999J0D01*
G01*
X158607102Y-72854245D02*
G75*
G02*
X157407096Y-72854245I-600003J0D01*
G01*
X157407096Y-72854245D02*
G75*
G02*
X158607102Y-72854245I600003J0D01*
G01*
X146907104Y-78354251D02*
G75*
G02*
X145907102Y-78354251I-500001J0D01*
G01*
X145907102Y-78354251D02*
G75*
G02*
X146907104Y-78354251I500001J0D01*
G01*
X175607107Y-44854248D02*
G75*
G02*
X174407101Y-44854248I-600003J0D01*
G01*
X174407101Y-44854248D02*
G75*
G02*
X175607107Y-44854248I600003J0D01*
G01*
X163907109Y-50354254D02*
G75*
G02*
X162907107Y-50354254I-500001J0D01*
G01*
X162907107Y-50354254D02*
G75*
G02*
X163907109Y-50354254I500001J0D01*
G01*
X192607098Y-46854232D02*
G75*
G02*
X191407092Y-46854232I-600003J0D01*
G01*
X191407092Y-46854232D02*
G75*
G02*
X192607098Y-46854232I600003J0D01*
G01*
X180907100Y-52354238D02*
G75*
G02*
X179907098Y-52354238I-500001J0D01*
G01*
X179907098Y-52354238D02*
G75*
G02*
X180907100Y-52354238I500001J0D01*
G01*
X211629872Y-106473517D02*
G75*
G02*
X210429868Y-106473517I-600002J0D01*
G01*
X210429868Y-106473517D02*
G75*
G02*
X211629872Y-106473517I600002J0D01*
G01*
X198748328Y-107674393D02*
G75*
G02*
X197748332Y-107674393I-499998J0D01*
G01*
X197748332Y-107674393D02*
G75*
G02*
X198748328Y-107674393I499998J0D01*
G01*
X345385620Y-79567508D02*
G75*
G02*
X344185624Y-79567508I-599998J0D01*
G01*
X344185624Y-79567508D02*
G75*
G02*
X345385620Y-79567508I599998J0D01*
G01*
X332968048Y-83185158D02*
G75*
G02*
X331968048Y-83185158I-500000J0D01*
G01*
X331968048Y-83185158D02*
G75*
G02*
X332968048Y-83185158I500000J0D01*
G01*
X348045010Y-62776805D02*
G75*
G02*
X346845014Y-62776805I-599998J0D01*
G01*
X346845014Y-62776805D02*
G75*
G02*
X348045010Y-62776805I599998J0D01*
G01*
X335627438Y-66394455D02*
G75*
G02*
X334627438Y-66394455I-500000J0D01*
G01*
X334627438Y-66394455D02*
G75*
G02*
X335627438Y-66394455I500000J0D01*
G01*
X139607909Y-61741202D02*
G75*
G02*
X138407913Y-61741202I-599998J0D01*
G01*
X138407913Y-61741202D02*
G75*
G02*
X139607909Y-61741202I599998J0D01*
G01*
X128319831Y-68036992D02*
G75*
G02*
X127319823Y-68036992I-500004J0D01*
G01*
X127319823Y-68036992D02*
G75*
G02*
X128319831Y-68036992I500004J0D01*
G01*
X107028552Y-94542757D02*
G75*
G02*
X105828546Y-94542757I-600003J0D01*
G01*
X105828546Y-94542757D02*
G75*
G02*
X107028552Y-94542757I600003J0D01*
G01*
X96331747Y-101789683D02*
G75*
G02*
X95331763Y-101789683I-499992J0D01*
G01*
X95331763Y-101789683D02*
G75*
G02*
X96331747Y-101789683I499992J0D01*
G01*
X325935539Y-93698832D02*
G75*
G02*
X324735543Y-93698832I-599998J0D01*
G01*
X324735543Y-93698832D02*
G75*
G02*
X325935539Y-93698832I599998J0D01*
G01*
X313517967Y-97316482D02*
G75*
G02*
X312517967Y-97316482I-500000J0D01*
G01*
X312517967Y-97316482D02*
G75*
G02*
X313517967Y-97316482I500000J0D01*
G01*
X291290509Y-55855067D02*
G75*
G02*
X290090503Y-55855067I-600003J0D01*
G01*
X290090503Y-55855067D02*
G75*
G02*
X291290509Y-55855067I600003J0D01*
G01*
X279590511Y-61355073D02*
G75*
G02*
X278590509Y-61355073I-500001J0D01*
G01*
X278590509Y-61355073D02*
G75*
G02*
X279590511Y-61355073I500001J0D01*
G01*
X275290503Y-98855067D02*
G75*
G02*
X274090497Y-98855067I-600003J0D01*
G01*
X274090497Y-98855067D02*
G75*
G02*
X275290503Y-98855067I600003J0D01*
G01*
X263590505Y-104355073D02*
G75*
G02*
X262590503Y-104355073I-500001J0D01*
G01*
X262590503Y-104355073D02*
G75*
G02*
X263590505Y-104355073I500001J0D01*
G01*
X257290495Y-46855065D02*
G75*
G02*
X256090489Y-46855065I-600003J0D01*
G01*
X256090489Y-46855065D02*
G75*
G02*
X257290495Y-46855065I600003J0D01*
G01*
X245590497Y-52355071D02*
G75*
G02*
X244590495Y-52355071I-500001J0D01*
G01*
X244590495Y-52355071D02*
G75*
G02*
X245590497Y-52355071I500001J0D01*
G01*
X140793769Y-78699785D02*
G75*
G02*
X139593773Y-78699785I-599998J0D01*
G01*
X139593773Y-78699785D02*
G75*
G02*
X140793769Y-78699785I599998J0D01*
G01*
X129505691Y-84995575D02*
G75*
G02*
X128505683Y-84995575I-500004J0D01*
G01*
X128505683Y-84995575D02*
G75*
G02*
X129505691Y-84995575I500004J0D01*
G01*
X192607106Y-63854248D02*
G75*
G02*
X191407100Y-63854248I-600003J0D01*
G01*
X191407100Y-63854248D02*
G75*
G02*
X192607106Y-63854248I600003J0D01*
G01*
X180907108Y-69354254D02*
G75*
G02*
X179907106Y-69354254I-500001J0D01*
G01*
X179907106Y-69354254D02*
G75*
G02*
X180907108Y-69354254I500001J0D01*
G01*
X158607095Y-55854239D02*
G75*
G02*
X157407089Y-55854239I-600003J0D01*
G01*
X157407089Y-55854239D02*
G75*
G02*
X158607095Y-55854239I600003J0D01*
G01*
X146907097Y-61354245D02*
G75*
G02*
X145907095Y-61354245I-500001J0D01*
G01*
X145907095Y-61354245D02*
G75*
G02*
X146907097Y-61354245I500001J0D01*
G01*
X123819251Y-91883367D02*
G75*
G02*
X122619245Y-91883367I-600003J0D01*
G01*
X122619245Y-91883367D02*
G75*
G02*
X123819251Y-91883367I600003J0D01*
G01*
X113122446Y-99130293D02*
G75*
G02*
X112122462Y-99130293I-499992J0D01*
G01*
X112122462Y-99130293D02*
G75*
G02*
X113122446Y-99130293I499992J0D01*
G01*
D10*
%TO.C,REF\u002A\u002A*%
X207422101Y-40785758D02*
G75*
G02*
X207422099Y-39885756I-2J450001D01*
G01*
X207422099Y-43325749D02*
G75*
G02*
X207422095Y-42425753I-3J449998D01*
G01*
X204882099Y-42425752D02*
G75*
G02*
X204882098Y-43325752I-2J-450000D01*
G01*
X204882099Y-39885748D02*
G75*
G02*
X204882100Y-40785748I0J-450000D01*
G01*
X201207100Y-48140747D02*
G75*
G02*
X201207094Y-49040759I-19J-450006D01*
G01*
X201207099Y-46235753D02*
G75*
G02*
X201207100Y-47135757I-3J-450002D01*
G01*
X207422101Y-40785758D02*
X207422095Y-42425752D01*
X207422099Y-43325749D02*
X204882098Y-43325751D01*
X204882099Y-42425752D02*
X204882100Y-40785748D01*
X204882099Y-39885748D02*
X207422099Y-39885756D01*
X204207101Y-45804253D02*
X204207096Y-49504255D01*
X204207096Y-49504255D02*
X201207093Y-49504251D01*
X201207101Y-45804249D02*
X204207101Y-45804253D01*
X201207100Y-48140747D02*
X201207100Y-47135756D01*
X201207099Y-46235753D02*
X201207101Y-45804249D01*
X201207093Y-49504251D02*
X201207094Y-49040758D01*
D12*
%TO.C,CPG1316*%
X311447297Y-45592620D02*
G75*
G02*
X310247287Y-45592620I-600005J0D01*
G01*
X310247287Y-45592620D02*
G75*
G02*
X311447297Y-45592620I600005J0D01*
G01*
X299391891Y-50270046D02*
G75*
G02*
X298391893Y-50270046I-499999J0D01*
G01*
X298391893Y-50270046D02*
G75*
G02*
X299391891Y-50270046I499999J0D01*
G01*
X257290501Y-80855057D02*
G75*
G02*
X256090495Y-80855057I-600003J0D01*
G01*
X256090495Y-80855057D02*
G75*
G02*
X257290501Y-80855057I600003J0D01*
G01*
X245590503Y-86355063D02*
G75*
G02*
X244590501Y-86355063I-500001J0D01*
G01*
X244590501Y-86355063D02*
G75*
G02*
X245590503Y-86355063I500001J0D01*
G01*
X175607095Y-78854244D02*
G75*
G02*
X174407089Y-78854244I-600003J0D01*
G01*
X174407089Y-78854244D02*
G75*
G02*
X175607095Y-78854244I600003J0D01*
G01*
X163907097Y-84354250D02*
G75*
G02*
X162907095Y-84354250I-500001J0D01*
G01*
X162907095Y-84354250D02*
G75*
G02*
X163907097Y-84354250I500001J0D01*
G01*
X192564393Y-100428534D02*
G75*
G02*
X191364389Y-100428534I-600002J0D01*
G01*
X191364389Y-100428534D02*
G75*
G02*
X192564393Y-100428534I600002J0D01*
G01*
X180429179Y-104896600D02*
G75*
G02*
X179429179Y-104896600I-500000J0D01*
G01*
X179429179Y-104896600D02*
G75*
G02*
X180429179Y-104896600I500000J0D01*
G01*
X158607101Y-38854249D02*
G75*
G02*
X157407095Y-38854249I-600003J0D01*
G01*
X157407095Y-38854249D02*
G75*
G02*
X158607101Y-38854249I600003J0D01*
G01*
X146907103Y-44354255D02*
G75*
G02*
X145907101Y-44354255I-500001J0D01*
G01*
X145907101Y-44354255D02*
G75*
G02*
X146907103Y-44354255I500001J0D01*
G01*
X310261439Y-62551201D02*
G75*
G02*
X309061429Y-62551201I-600005J0D01*
G01*
X309061429Y-62551201D02*
G75*
G02*
X310261439Y-62551201I600005J0D01*
G01*
X298206033Y-67228627D02*
G75*
G02*
X297206035Y-67228627I-499999J0D01*
G01*
X297206035Y-67228627D02*
G75*
G02*
X298206033Y-67228627I499999J0D01*
G01*
X138422052Y-44782611D02*
G75*
G02*
X137222056Y-44782611I-599998J0D01*
G01*
X137222056Y-44782611D02*
G75*
G02*
X138422052Y-44782611I599998J0D01*
G01*
X127133974Y-51078401D02*
G75*
G02*
X126133966Y-51078401I-500004J0D01*
G01*
X126133966Y-51078401D02*
G75*
G02*
X127133974Y-51078401I500004J0D01*
G01*
X118500473Y-58301966D02*
G75*
G02*
X117300467Y-58301966I-600003J0D01*
G01*
X117300467Y-58301966D02*
G75*
G02*
X118500473Y-58301966I600003J0D01*
G01*
X107803668Y-65548892D02*
G75*
G02*
X106803684Y-65548892I-499992J0D01*
G01*
X106803684Y-65548892D02*
G75*
G02*
X107803668Y-65548892I499992J0D01*
G01*
X101709779Y-60961346D02*
G75*
G02*
X100509773Y-60961346I-600003J0D01*
G01*
X100509773Y-60961346D02*
G75*
G02*
X101709779Y-60961346I600003J0D01*
G01*
X91012974Y-68208272D02*
G75*
G02*
X90012990Y-68208272I-499992J0D01*
G01*
X90012990Y-68208272D02*
G75*
G02*
X91012974Y-68208272I499992J0D01*
G01*
D10*
%TO.C,REF\u002A\u002A*%
X232105499Y-43326560D02*
G75*
G02*
X232105498Y-42426568I2J449996D01*
G01*
X232105497Y-40786568D02*
G75*
G02*
X232105499Y-39886568I17J450000D01*
G01*
X229565503Y-42426562D02*
G75*
G02*
X229565489Y-43326562I-10J-450000D01*
G01*
X229565501Y-39886558D02*
G75*
G02*
X229565500Y-40786564I-5J-450003D01*
G01*
X225890500Y-48141565D02*
G75*
G02*
X225890495Y-49041571I-24J-450003D01*
G01*
X225890495Y-46236566D02*
G75*
G02*
X225890500Y-47136566I3J-450000D01*
G01*
X232105499Y-43326560D02*
X229565489Y-43326560D01*
X232105497Y-40786568D02*
X232105498Y-42426566D01*
X229565503Y-42426562D02*
X229565500Y-40786566D01*
X229565501Y-39886558D02*
X232105499Y-39886568D01*
X228890502Y-49505066D02*
X225890496Y-49505062D01*
X228890499Y-45805060D02*
X228890502Y-49505066D01*
X225890500Y-48141565D02*
X225890500Y-47136566D01*
X225890496Y-49505062D02*
X225890495Y-49041572D01*
X225890495Y-46236566D02*
X225890491Y-45805066D01*
X225890491Y-45805066D02*
X228890499Y-45805060D01*
D12*
%TO.C,CPG1316*%
X291290499Y-38855064D02*
G75*
G02*
X290090493Y-38855064I-600003J0D01*
G01*
X290090493Y-38855064D02*
G75*
G02*
X291290499Y-38855064I600003J0D01*
G01*
X279590501Y-44355070D02*
G75*
G02*
X278590499Y-44355070I-500001J0D01*
G01*
X278590499Y-44355070D02*
G75*
G02*
X279590501Y-44355070I500001J0D01*
G01*
X274290504Y-44855065D02*
G75*
G02*
X273090498Y-44855065I-600003J0D01*
G01*
X273090498Y-44855065D02*
G75*
G02*
X274290504Y-44855065I600003J0D01*
G01*
X262590506Y-50355071D02*
G75*
G02*
X261590504Y-50355071I-500001J0D01*
G01*
X261590504Y-50355071D02*
G75*
G02*
X262590506Y-50355071I500001J0D01*
G01*
X257290505Y-63855064D02*
G75*
G02*
X256090499Y-63855064I-600003J0D01*
G01*
X256090499Y-63855064D02*
G75*
G02*
X257290505Y-63855064I600003J0D01*
G01*
X245590507Y-69355070D02*
G75*
G02*
X244590505Y-69355070I-500001J0D01*
G01*
X244590505Y-69355070D02*
G75*
G02*
X245590507Y-69355070I500001J0D01*
G01*
X274290505Y-78855059D02*
G75*
G02*
X273090499Y-78855059I-600003J0D01*
G01*
X273090499Y-78855059D02*
G75*
G02*
X274290505Y-78855059I600003J0D01*
G01*
X262590507Y-84355065D02*
G75*
G02*
X261590505Y-84355065I-500001J0D01*
G01*
X261590505Y-84355065D02*
G75*
G02*
X262590507Y-84355065I500001J0D01*
G01*
X121159855Y-75092661D02*
G75*
G02*
X119959849Y-75092661I-600003J0D01*
G01*
X119959849Y-75092661D02*
G75*
G02*
X121159855Y-75092661I600003J0D01*
G01*
X110463050Y-82339587D02*
G75*
G02*
X109463066Y-82339587I-499992J0D01*
G01*
X109463066Y-82339587D02*
G75*
G02*
X110463050Y-82339587I499992J0D01*
G01*
X192607096Y-80854242D02*
G75*
G02*
X191407090Y-80854242I-600003J0D01*
G01*
X191407090Y-80854242D02*
G75*
G02*
X192607096Y-80854242I600003J0D01*
G01*
X180907098Y-86354248D02*
G75*
G02*
X179907096Y-86354248I-500001J0D01*
G01*
X179907096Y-86354248D02*
G75*
G02*
X180907098Y-86354248I500001J0D01*
G01*
X257289061Y-99418354D02*
G75*
G02*
X256089059Y-99418354I-600001J0D01*
G01*
X256089059Y-99418354D02*
G75*
G02*
X257289061Y-99418354I600001J0D01*
G01*
X246112561Y-105908438D02*
G75*
G02*
X245112567Y-105908438I-499997J0D01*
G01*
X245112567Y-105908438D02*
G75*
G02*
X246112561Y-105908438I499997J0D01*
G01*
%TD*%
M02*
