%TF.GenerationSoftware,KiCad,Pcbnew,8.0.6*%
%TF.CreationDate,2025-07-20T13:06:01+02:00*%
%TF.ProjectId,combined,636f6d62-696e-4656-942e-6b696361645f,v1.0.0*%
%TF.SameCoordinates,Original*%
%TF.FileFunction,Soldermask,Top*%
%TF.FilePolarity,Negative*%
%FSLAX46Y46*%
G04 Gerber Fmt 4.6, Leading zero omitted, Abs format (unit mm)*
G04 Created by KiCad (PCBNEW 8.0.6) date 2025-07-20 13:06:01*
%MOMM*%
%LPD*%
G01*
G04 APERTURE LIST*
G04 Aperture macros list*
%AMRoundRect*
0 Rectangle with rounded corners*
0 $1 Rounding radius*
0 $2 $3 $4 $5 $6 $7 $8 $9 X,Y pos of 4 corners*
0 Add a 4 corners polygon primitive as box body*
4,1,4,$2,$3,$4,$5,$6,$7,$8,$9,$2,$3,0*
0 Add four circle primitives for the rounded corners*
1,1,$1+$1,$2,$3*
1,1,$1+$1,$4,$5*
1,1,$1+$1,$6,$7*
1,1,$1+$1,$8,$9*
0 Add four rect primitives between the rounded corners*
20,1,$1+$1,$2,$3,$4,$5,0*
20,1,$1+$1,$4,$5,$6,$7,0*
20,1,$1+$1,$6,$7,$8,$9,0*
20,1,$1+$1,$8,$9,$2,$3,0*%
G04 Aperture macros list end*
%ADD10C,3.100000*%
%ADD11RoundRect,0.050000X-0.450000X-0.600000X0.450000X-0.600000X0.450000X0.600000X-0.450000X0.600000X0*%
%ADD12RoundRect,0.050000X-1.144123X-0.831254X0.831254X-1.144123X1.144123X0.831254X-0.831254X1.144123X0*%
%ADD13RoundRect,0.050000X-0.921893X-0.866452X0.609024X-1.108925X0.921893X0.866452X-0.609024X1.108925X0*%
%ADD14C,1.500000*%
%ADD15RoundRect,0.050000X-0.597672X-1.281713X1.281713X-0.597672X0.597672X1.281713X-1.281713X0.597672X0*%
%ADD16RoundRect,0.050000X-0.386242X-1.204758X1.070282X-0.674627X0.386242X1.204758X-1.070282X0.674627X0*%
%ADD17RoundRect,0.050000X-0.538320X-0.522217X0.350599X-0.663009X0.538320X0.522217X-0.350599X0.663009X0*%
%ADD18RoundRect,0.050000X-0.831254X-1.144123X1.144123X-0.831254X0.831254X1.144123X-1.144123X0.831254X0*%
%ADD19RoundRect,0.050000X-0.609024X-1.108925X0.921893X-0.866452X0.609024X1.108925X-0.921893X0.866452X0*%
%ADD20RoundRect,0.050000X-1.000000X-1.000000X1.000000X-1.000000X1.000000X1.000000X-1.000000X1.000000X0*%
%ADD21RoundRect,0.050000X-0.775000X-1.000000X0.775000X-1.000000X0.775000X1.000000X-0.775000X1.000000X0*%
%ADD22RoundRect,0.050000X-0.490758X-0.567148X0.407050X-0.629929X0.490758X0.567148X-0.407050X0.629929X0*%
%ADD23C,0.600000*%
%ADD24RoundRect,0.050000X-1.067321X-0.927808X0.927808X-1.067321X1.067321X0.927808X-0.927808X1.067321X0*%
%ADD25RoundRect,0.050000X-0.842869X-0.943503X0.703356X-1.051625X0.842869X0.943503X-0.703356X1.051625X0*%
%ADD26O,1.300000X1.850000*%
%ADD27RoundRect,0.260000X-0.390000X-0.665000X0.390000X-0.665000X0.390000X0.665000X-0.390000X0.665000X0*%
%ADD28RoundRect,0.050000X-0.350599X-0.663009X0.538320X-0.522217X0.350599X0.663009X-0.538320X0.522217X0*%
%ADD29RoundRect,0.050000X-0.407050X-0.629929X0.490758X-0.567148X0.407050X0.629929X-0.490758X0.567148X0*%
%ADD30RoundRect,0.050000X-1.281713X-0.597672X0.597672X-1.281713X1.281713X0.597672X-0.597672X1.281713X0*%
%ADD31RoundRect,0.050000X-1.070282X-0.674627X0.386242X-1.204758X1.070282X0.674627X-0.386242X1.204758X0*%
%ADD32RoundRect,0.050000X-0.500581X-0.558497X0.395994X-0.636937X0.500581X0.558497X-0.395994X0.636937X0*%
%ADD33RoundRect,0.050000X-0.927808X-1.067321X1.067321X-0.927808X0.927808X1.067321X-1.067321X0.927808X0*%
%ADD34RoundRect,0.050000X-0.703356X-1.051625X0.842869X-0.943503X0.703356X1.051625X-0.842869X0.943503X0*%
%ADD35C,1.800000*%
%ADD36C,1.600000*%
%ADD37RoundRect,0.162400X-1.103600X-0.649600X1.103600X-0.649600X1.103600X0.649600X-1.103600X0.649600X0*%
%ADD38C,1.624000*%
%ADD39RoundRect,0.162400X1.103600X0.649600X-1.103600X0.649600X-1.103600X-0.649600X1.103600X-0.649600X0*%
%ADD40RoundRect,0.050000X-1.083350X-0.909039X0.909039X-1.083350X1.083350X0.909039X-0.909039X1.083350X0*%
%ADD41RoundRect,0.050000X-0.859207X-0.928649X0.684895X-1.063740X0.859207X0.928649X-0.684895X1.063740X0*%
%ADD42RoundRect,0.050000X-0.217650X-0.717725X0.628074X-0.409907X0.217650X0.717725X-0.628074X0.409907X0*%
%ADD43RoundRect,0.050000X0.575108X0.595190X-0.086755X0.823088X-0.575108X-0.595190X0.086755X-0.823088X0*%
%ADD44RoundRect,0.050000X0.602987X0.215423X-0.342532X0.540992X-0.602987X-0.215423X0.342532X-0.540992X0*%
%ADD45C,1.000000*%
%ADD46RoundRect,0.050000X-0.628074X-0.409907X0.217650X-0.717725X0.628074X0.409907X-0.217650X0.717725X0*%
%ADD47RoundRect,0.050000X0.086755X0.823088X-0.575108X0.595190X-0.086755X-0.823088X0.575108X-0.595190X0*%
%ADD48RoundRect,0.050000X0.342532X0.540992X-0.602987X0.215423X-0.342532X-0.540992X0.602987X-0.215423X0*%
%ADD49RoundRect,0.050000X-0.395994X-0.636937X0.500581X-0.558497X0.395994X0.636937X-0.500581X0.558497X0*%
%ADD50RoundRect,0.050000X-0.909039X-1.083350X1.083350X-0.909039X0.909039X1.083350X-1.083350X0.909039X0*%
%ADD51RoundRect,0.050000X-0.684895X-1.063740X0.859207X-0.928649X0.684895X1.063740X-0.859207X0.928649X0*%
G04 APERTURE END LIST*
D10*
%TO.C,REF\u002A\u002A*%
X296887607Y-36403845D03*
%TD*%
%TO.C,REF\u002A\u002A*%
X285881607Y-93686122D03*
%TD*%
%TO.C,REF\u002A\u002A*%
X151103409Y-93687778D03*
%TD*%
%TO.C,REF\u002A\u002A*%
X140129695Y-36388688D03*
%TD*%
D11*
%TO.C,D16*%
X187857092Y-80904248D03*
X184557100Y-80904248D03*
%TD*%
D12*
%TO.C,CPG1316*%
X327169354Y-85636446D03*
X329046567Y-73784184D03*
X314625709Y-83649728D03*
X316502922Y-71797466D03*
D13*
X322903117Y-81568982D03*
D14*
X322903117Y-81568982D03*
D13*
X318952368Y-80943245D03*
D14*
X318952368Y-80943245D03*
%TD*%
D12*
%TO.C,CPG1316*%
X341300669Y-105086524D03*
X343177882Y-93234262D03*
X328757024Y-103099806D03*
X330634237Y-91247544D03*
D13*
X337034432Y-101019060D03*
D14*
X337034432Y-101019060D03*
D13*
X333083683Y-100393323D03*
D14*
X333083683Y-100393323D03*
%TD*%
D15*
%TO.C,CPG1316*%
X236373427Y-99264798D03*
X240477662Y-110541102D03*
X224439330Y-103608452D03*
X228543565Y-114884756D03*
D16*
X234774387Y-109051929D03*
D14*
X234774387Y-109051929D03*
D16*
X231015619Y-110420010D03*
D14*
X231015619Y-110420010D03*
%TD*%
D17*
%TO.C,D1*%
X338019513Y-95758402D03*
X334760141Y-95242160D03*
%TD*%
D18*
%TO.C,CPG1316*%
X105681183Y-86308280D03*
X103803970Y-74456025D03*
X93137542Y-88294999D03*
X91260329Y-76442744D03*
D19*
X100366843Y-83758233D03*
D14*
X100366843Y-83758233D03*
D19*
X96416085Y-84383973D03*
D14*
X96416085Y-84383973D03*
%TD*%
D20*
%TO.C,CPG1316*%
X291240500Y-81605063D03*
X291240498Y-69605064D03*
X278540502Y-81605066D03*
X278540500Y-69605067D03*
D21*
X286390502Y-78255066D03*
D14*
X286390502Y-78255066D03*
D21*
X282390500Y-78255064D03*
D14*
X282390500Y-78255064D03*
%TD*%
D20*
%TO.C,CPG1316*%
X175557101Y-70604248D03*
X175557099Y-58604249D03*
X162857103Y-70604251D03*
X162857101Y-58604252D03*
D21*
X170707103Y-67254251D03*
D14*
X170707103Y-67254251D03*
D21*
X166707101Y-67254249D03*
D14*
X166707101Y-67254249D03*
%TD*%
D11*
%TO.C,D18*%
X187857094Y-46904248D03*
X184557102Y-46904248D03*
%TD*%
D22*
%TO.C,D7*%
X304332191Y-79270176D03*
X301040231Y-79039986D03*
%TD*%
D12*
%TO.C,CPG1316*%
X329828736Y-68845731D03*
X331705949Y-56993469D03*
X317285091Y-66859013D03*
X319162304Y-55006751D03*
D13*
X325562499Y-64778267D03*
D14*
X325562499Y-64778267D03*
D13*
X321611750Y-64152530D03*
D14*
X321611750Y-64152530D03*
%TD*%
D20*
%TO.C,CPG1316*%
X174557105Y-107604241D03*
X174557103Y-95604242D03*
X161857107Y-107604244D03*
X161857105Y-95604245D03*
D21*
X169707107Y-104254244D03*
D14*
X169707107Y-104254244D03*
D21*
X165707105Y-104254242D03*
D14*
X165707105Y-104254242D03*
%TD*%
D23*
%TO.C,mouse-bite-1mm-3mm*%
X219259686Y-100304244D03*
X219249683Y-100904244D03*
X218549687Y-100304246D03*
X218549681Y-100904248D03*
X217839687Y-100304246D03*
X217839682Y-100904250D03*
%TD*%
D20*
%TO.C,CPG1316*%
X274240500Y-70605061D03*
X274240498Y-58605062D03*
X261540502Y-70605064D03*
X261540500Y-58605065D03*
D21*
X269390502Y-67255064D03*
D14*
X269390502Y-67255064D03*
D21*
X265390500Y-67255062D03*
D14*
X265390500Y-67255062D03*
%TD*%
D24*
%TO.C,CPG1316*%
X308413865Y-88276836D03*
X309250941Y-76306070D03*
X295744797Y-87390934D03*
X296581873Y-75420168D03*
D25*
X303809358Y-84596682D03*
D14*
X303809358Y-84596682D03*
D25*
X299819104Y-84317655D03*
D14*
X299819104Y-84317655D03*
%TD*%
D17*
%TO.C,D4*%
X321228805Y-93099012D03*
X317969433Y-92582770D03*
%TD*%
D20*
%TO.C,CPG1316*%
X158557101Y-81604246D03*
X158557099Y-69604247D03*
X145857103Y-81604249D03*
X145857101Y-69604250D03*
D21*
X153707103Y-78254249D03*
D14*
X153707103Y-78254249D03*
D21*
X149707101Y-78254247D03*
D14*
X149707101Y-78254247D03*
%TD*%
D26*
%TO.C,JST1*%
X201700132Y-60776690D03*
D27*
X199700142Y-60776690D03*
%TD*%
D11*
%TO.C,D16*%
X252540493Y-80905068D03*
X249240503Y-80905076D03*
%TD*%
D20*
%TO.C,CPG1316*%
X175557106Y-53604249D03*
X175557104Y-41604250D03*
X162857108Y-53604252D03*
X162857106Y-41604253D03*
D21*
X170707108Y-50254252D03*
D14*
X170707108Y-50254252D03*
D21*
X166707106Y-50254250D03*
D14*
X166707106Y-50254250D03*
%TD*%
D28*
%TO.C,D4*%
X119128166Y-92581958D03*
X115868794Y-93098186D03*
%TD*%
D20*
%TO.C,CPG1316*%
X192557097Y-55604233D03*
X192557095Y-43604234D03*
X179857099Y-55604236D03*
X179857097Y-43604237D03*
D21*
X187707099Y-52254236D03*
D14*
X187707099Y-52254236D03*
D21*
X183707097Y-52254234D03*
D14*
X183707097Y-52254234D03*
%TD*%
D23*
%TO.C,mouse-bite-1mm-3mm*%
X219260001Y-42999997D03*
X219249998Y-43599998D03*
X218550002Y-42999999D03*
X218549996Y-43600001D03*
X217840003Y-42999999D03*
X217839997Y-43600003D03*
%TD*%
D11*
%TO.C,D12*%
X286540501Y-38905057D03*
X283240511Y-38905065D03*
%TD*%
D23*
%TO.C,mouse-bite-1mm-3mm*%
X219260001Y-44225000D03*
X219250000Y-44825000D03*
X218550000Y-44825000D03*
X218550000Y-44225000D03*
X217839999Y-44825000D03*
X217840001Y-44225000D03*
%TD*%
D11*
%TO.C,D14*%
X269540492Y-61905057D03*
X266240502Y-61905065D03*
%TD*%
D29*
%TO.C,D9*%
X133685637Y-45121985D03*
X130393691Y-45352177D03*
%TD*%
D28*
%TO.C,D6*%
X113809393Y-59000558D03*
X110550021Y-59516786D03*
%TD*%
D30*
%TO.C,CPG1316*%
X208554027Y-114883937D03*
X212658271Y-103607622D03*
X196619929Y-110540288D03*
X200724173Y-99263973D03*
D31*
X205142285Y-110077172D03*
D14*
X205142285Y-110077172D03*
D31*
X201383516Y-108709091D03*
D14*
X201383516Y-108709091D03*
%TD*%
D32*
%TO.C,D20*%
X187825830Y-100116661D03*
X184538388Y-99829043D03*
%TD*%
D17*
%TO.C,D3*%
X343338282Y-62176994D03*
X340078910Y-61660752D03*
%TD*%
D22*
%TO.C,D8*%
X305518048Y-62311592D03*
X302226088Y-62081402D03*
%TD*%
D12*
%TO.C,CPG1316*%
X343960051Y-88295823D03*
X345837264Y-76443561D03*
X331416406Y-86309105D03*
X333293619Y-74456843D03*
D13*
X339693814Y-84228359D03*
D14*
X339693814Y-84228359D03*
D13*
X335743065Y-83602622D03*
D14*
X335743065Y-83602622D03*
%TD*%
D11*
%TO.C,D13*%
X269540499Y-78905057D03*
X266240509Y-78905065D03*
%TD*%
%TO.C,D14*%
X170857092Y-61904243D03*
X167557100Y-61904243D03*
%TD*%
D12*
%TO.C,CPG1316*%
X346619441Y-71505120D03*
X348496654Y-59652858D03*
X334075796Y-69518402D03*
X335953009Y-57666140D03*
D13*
X342353204Y-67437656D03*
D14*
X342353204Y-67437656D03*
D13*
X338402455Y-66811919D03*
D14*
X338402455Y-66811919D03*
%TD*%
D33*
%TO.C,CPG1316*%
X140166939Y-70431529D03*
X139329861Y-58460761D03*
X127497877Y-71317433D03*
X126660799Y-59346665D03*
D34*
X135095073Y-67428003D03*
D14*
X135095073Y-67428003D03*
D34*
X131104814Y-67707034D03*
D14*
X131104814Y-67707034D03*
%TD*%
D11*
%TO.C,D15*%
X170857090Y-44904244D03*
X167557098Y-44904244D03*
%TD*%
D35*
%TO.C,RST1*%
X318350706Y-45942423D03*
X323541846Y-49854211D03*
%TD*%
D18*
%TO.C,CPG1316*%
X108340579Y-103098988D03*
X106463366Y-91246733D03*
X95796938Y-105085707D03*
X93919725Y-93233452D03*
D19*
X103026239Y-100548941D03*
D14*
X103026239Y-100548941D03*
D19*
X99075481Y-101174681D03*
D14*
X99075481Y-101174681D03*
%TD*%
D12*
%TO.C,CPG1316*%
X324509970Y-102427147D03*
X326387183Y-90574885D03*
X311966325Y-100440429D03*
X313843538Y-88588167D03*
D13*
X320243733Y-98359683D03*
D14*
X320243733Y-98359683D03*
D13*
X316292984Y-97733946D03*
D14*
X316292984Y-97733946D03*
%TD*%
D20*
%TO.C,CPG1316*%
X291240508Y-64605068D03*
X291240506Y-52605069D03*
X278540510Y-64605071D03*
X278540508Y-52605072D03*
D21*
X286390510Y-61255071D03*
D14*
X286390510Y-61255071D03*
D21*
X282390508Y-61255069D03*
D14*
X282390508Y-61255069D03*
%TD*%
D20*
%TO.C,CPG1316*%
X275240502Y-107605068D03*
X275240500Y-95605069D03*
X262540504Y-107605071D03*
X262540502Y-95605072D03*
D21*
X270390504Y-104255071D03*
D14*
X270390504Y-104255071D03*
D21*
X266390502Y-104255069D03*
D14*
X266390502Y-104255069D03*
%TD*%
D11*
%TO.C,D19*%
X270540497Y-98905065D03*
X267240507Y-98905073D03*
%TD*%
D20*
%TO.C,CPG1316*%
X257240494Y-55605066D03*
X257240492Y-43605067D03*
X244540496Y-55605069D03*
X244540494Y-43605070D03*
D21*
X252390496Y-52255069D03*
D14*
X252390496Y-52255069D03*
D21*
X248390494Y-52255067D03*
D14*
X248390494Y-52255067D03*
%TD*%
D11*
%TO.C,D17*%
X252540490Y-63905073D03*
X249240500Y-63905081D03*
%TD*%
%TO.C,D18*%
X252540495Y-46905063D03*
X249240505Y-46905071D03*
%TD*%
D33*
%TO.C,CPG1316*%
X141352799Y-87390112D03*
X140515721Y-75419344D03*
X128683737Y-88276016D03*
X127846659Y-76305248D03*
D34*
X136280933Y-84386586D03*
D14*
X136280933Y-84386586D03*
D34*
X132290674Y-84665617D03*
D14*
X132290674Y-84665617D03*
%TD*%
D11*
%TO.C,D11*%
X286540498Y-55905065D03*
X283240508Y-55905073D03*
%TD*%
D26*
%TO.C,JST1*%
X237300001Y-60774995D03*
D27*
X235300001Y-60775005D03*
%TD*%
D20*
%TO.C,CPG1316*%
X192557105Y-72604249D03*
X192557103Y-60604250D03*
X179857107Y-72604252D03*
X179857105Y-60604253D03*
D21*
X187707107Y-69254252D03*
D14*
X187707107Y-69254252D03*
D21*
X183707105Y-69254250D03*
D14*
X183707105Y-69254250D03*
%TD*%
D17*
%TO.C,D5*%
X323888196Y-76308311D03*
X320628824Y-75792069D03*
%TD*%
D11*
%TO.C,D19*%
X169857098Y-98904247D03*
X166557106Y-98904247D03*
%TD*%
%TO.C,D11*%
X153857101Y-55904251D03*
X150557109Y-55904251D03*
%TD*%
D20*
%TO.C,CPG1316*%
X158557094Y-64604240D03*
X158557092Y-52604241D03*
X145857096Y-64604243D03*
X145857094Y-52604244D03*
D21*
X153707096Y-61254243D03*
D14*
X153707096Y-61254243D03*
D21*
X149707094Y-61254241D03*
D14*
X149707094Y-61254241D03*
%TD*%
D11*
%TO.C,D10*%
X153857091Y-72904244D03*
X150557099Y-72904244D03*
%TD*%
D18*
%TO.C,CPG1316*%
X125131278Y-100439598D03*
X123254065Y-88587343D03*
X112587637Y-102426317D03*
X110710424Y-90574062D03*
D19*
X119816938Y-97889551D03*
D14*
X119816938Y-97889551D03*
D19*
X115866180Y-98515291D03*
D14*
X115866180Y-98515291D03*
%TD*%
D17*
%TO.C,D6*%
X326547582Y-59517611D03*
X323288210Y-59001369D03*
%TD*%
D29*
%TO.C,D8*%
X134871497Y-62080570D03*
X131579551Y-62310762D03*
%TD*%
D35*
%TO.C,REF\u002A\u002A*%
X207422095Y-42875747D03*
X204882095Y-42875755D03*
X207422098Y-40335749D03*
X204882097Y-40335756D03*
D36*
X201207094Y-46685756D03*
X201207097Y-48590751D03*
D37*
X214662098Y-41284251D03*
D38*
X213827095Y-41284251D03*
D37*
X214662098Y-43824244D03*
D38*
X213827096Y-43824251D03*
D37*
X214662099Y-46364253D03*
D38*
X213827095Y-46364252D03*
D37*
X214662101Y-48904256D03*
D38*
X213827094Y-48904253D03*
D37*
X214662095Y-51444253D03*
D38*
X213827098Y-51444253D03*
D37*
X214662097Y-53984257D03*
D38*
X213827096Y-53984248D03*
D37*
X214662100Y-56524257D03*
D38*
X213827099Y-56524249D03*
X198587101Y-56524253D03*
D39*
X197752098Y-56524253D03*
D38*
X198587100Y-53984253D03*
D39*
X197752098Y-53984260D03*
D38*
X198587101Y-51444252D03*
D39*
X197752097Y-51444251D03*
D38*
X198587102Y-48904251D03*
D39*
X197752095Y-48904248D03*
D38*
X198587098Y-46364251D03*
D39*
X197752101Y-46364251D03*
D38*
X198587100Y-43824256D03*
D39*
X197752099Y-43824247D03*
D38*
X198587097Y-41284255D03*
D39*
X197752096Y-41284247D03*
%TD*%
D28*
%TO.C,D3*%
X97018687Y-61659945D03*
X93759315Y-62176173D03*
%TD*%
D24*
%TO.C,CPG1316*%
X310785588Y-54359667D03*
X311622664Y-42388901D03*
X298116520Y-53473765D03*
X298953596Y-41502999D03*
D25*
X306181081Y-50679513D03*
D14*
X306181081Y-50679513D03*
D25*
X302190827Y-50400486D03*
D14*
X302190827Y-50400486D03*
%TD*%
D20*
%TO.C,CPG1316*%
X257240500Y-89605058D03*
X257240498Y-77605059D03*
X244540502Y-89605061D03*
X244540500Y-77605062D03*
D21*
X252390502Y-86255061D03*
D14*
X252390502Y-86255061D03*
D21*
X248390500Y-86255059D03*
D14*
X248390500Y-86255059D03*
%TD*%
D20*
%TO.C,CPG1316*%
X175557094Y-87604245D03*
X175557092Y-75604246D03*
X162857096Y-87604248D03*
X162857094Y-75604249D03*
D21*
X170707096Y-84254248D03*
D14*
X170707096Y-84254248D03*
D21*
X166707094Y-84254246D03*
D14*
X166707094Y-84254246D03*
%TD*%
D40*
%TO.C,CPG1316*%
X191749690Y-109193175D03*
X192795558Y-97238839D03*
X179098012Y-108086295D03*
X180143880Y-96131959D03*
D41*
X187210120Y-105433220D03*
D14*
X187210120Y-105433220D03*
D41*
X183225336Y-105084596D03*
D14*
X183225336Y-105084596D03*
%TD*%
D23*
%TO.C,mouse-bite-1mm-3mm*%
X219260001Y-97775000D03*
X219250000Y-98375000D03*
X218550000Y-98375000D03*
X218550000Y-97775000D03*
X217839999Y-98375000D03*
X217840001Y-97775000D03*
%TD*%
D20*
%TO.C,CPG1316*%
X158557100Y-47604250D03*
X158557098Y-35604251D03*
X145857102Y-47604253D03*
X145857100Y-35604254D03*
D21*
X153707102Y-44254253D03*
D14*
X153707102Y-44254253D03*
D21*
X149707100Y-44254251D03*
D14*
X149707100Y-44254251D03*
%TD*%
D28*
%TO.C,D5*%
X116468782Y-75791257D03*
X113209410Y-76307485D03*
%TD*%
D23*
%TO.C,mouse-bite-1mm-3mm*%
X219260001Y-96550000D03*
X219250000Y-97150000D03*
X218550000Y-97150000D03*
X218550000Y-96550000D03*
X217839999Y-97150000D03*
X217840001Y-96550000D03*
%TD*%
D11*
%TO.C,D10*%
X286540493Y-72905063D03*
X283240503Y-72905071D03*
%TD*%
D42*
%TO.C,D21*%
X233085526Y-103973271D03*
X229984548Y-105101933D03*
%TD*%
D24*
%TO.C,CPG1316*%
X309599730Y-71318248D03*
X310436806Y-59347482D03*
X296930662Y-70432346D03*
X297767738Y-58461580D03*
D25*
X304995223Y-67638094D03*
D14*
X304995223Y-67638094D03*
D25*
X301004969Y-67359067D03*
D14*
X301004969Y-67359067D03*
%TD*%
D33*
%TO.C,CPG1316*%
X138981082Y-53472938D03*
X138144004Y-41502170D03*
X126312020Y-54358842D03*
X125474942Y-42388074D03*
D34*
X133909216Y-50469412D03*
D14*
X133909216Y-50469412D03*
D34*
X129918957Y-50748443D03*
D14*
X129918957Y-50748443D03*
%TD*%
D43*
%TO.C,PWR1*%
X164307861Y-36934635D03*
X165726130Y-37422985D03*
X168562701Y-38399698D03*
D44*
X170817542Y-36151302D03*
X163915254Y-33774656D03*
D45*
X168426556Y-36491398D03*
X165589994Y-35514702D03*
D44*
X163195758Y-35864253D03*
X170098041Y-38240901D03*
%TD*%
D11*
%TO.C,D13*%
X170857093Y-78904250D03*
X167557101Y-78904250D03*
%TD*%
D18*
%TO.C,CPG1316*%
X119812500Y-66858197D03*
X117935287Y-55005942D03*
X107268859Y-68844916D03*
X105391646Y-56992661D03*
D19*
X114498160Y-64308150D03*
D14*
X114498160Y-64308150D03*
D19*
X110547402Y-64933890D03*
D14*
X110547402Y-64933890D03*
%TD*%
D18*
%TO.C,CPG1316*%
X103021806Y-69517577D03*
X101144593Y-57665322D03*
X90478165Y-71504296D03*
X88600952Y-59652041D03*
D19*
X97707466Y-66967530D03*
D14*
X97707466Y-66967530D03*
D19*
X93756708Y-67593270D03*
D14*
X93756708Y-67593270D03*
%TD*%
D35*
%TO.C,RST1*%
X113555749Y-49853399D03*
X118746889Y-45941609D03*
%TD*%
%TO.C,REF\u002A\u002A*%
X232105494Y-42876566D03*
X229565494Y-42876565D03*
X232105504Y-40336566D03*
X229565499Y-40336561D03*
D36*
X225890497Y-46686567D03*
X225890501Y-48591560D03*
D37*
X239345500Y-41285062D03*
D38*
X238510501Y-41285067D03*
D37*
X239345499Y-43825061D03*
D38*
X238510499Y-43825065D03*
D37*
X239345498Y-46365059D03*
D38*
X238510502Y-46365064D03*
D37*
X239345501Y-48905063D03*
D38*
X238510498Y-48905061D03*
D37*
X239345501Y-51445060D03*
D38*
X238510492Y-51445063D03*
D37*
X239345496Y-53985061D03*
D38*
X238510498Y-53985059D03*
D37*
X239345499Y-56525061D03*
D38*
X238510494Y-56525066D03*
X223270495Y-56525059D03*
D39*
X222435496Y-56525064D03*
D38*
X223270497Y-53985061D03*
D39*
X222435497Y-53985065D03*
D38*
X223270494Y-51445062D03*
D39*
X222435498Y-51445067D03*
D38*
X223270498Y-48905065D03*
D39*
X222435495Y-48905063D03*
D38*
X223270504Y-46365063D03*
D39*
X222435495Y-46365066D03*
D38*
X223270498Y-43825067D03*
D39*
X222435500Y-43825065D03*
D38*
X223270502Y-41285060D03*
D39*
X222435497Y-41285065D03*
%TD*%
D28*
%TO.C,D2*%
X99678078Y-78450641D03*
X96418706Y-78966869D03*
%TD*%
D46*
%TO.C,D21*%
X207113056Y-105101113D03*
X204012074Y-103972439D03*
%TD*%
D11*
%TO.C,D17*%
X187857097Y-63904244D03*
X184557105Y-63904244D03*
%TD*%
D47*
%TO.C,PWR1*%
X268383197Y-38416757D03*
X269801480Y-37928404D03*
X272638028Y-36951706D03*
D48*
X266128337Y-36168374D03*
X273030634Y-33791725D03*
D45*
X268519333Y-36508473D03*
X271355895Y-35531768D03*
D48*
X273750137Y-35881316D03*
X266847849Y-38257966D03*
%TD*%
D29*
%TO.C,D7*%
X136057354Y-79039168D03*
X132765408Y-79269360D03*
%TD*%
D28*
%TO.C,D1*%
X102337457Y-95241345D03*
X99078085Y-95757573D03*
%TD*%
D22*
%TO.C,D9*%
X306703914Y-45352990D03*
X303411954Y-45122800D03*
%TD*%
D20*
%TO.C,CPG1316*%
X291240498Y-47605065D03*
X291240496Y-35605066D03*
X278540500Y-47605068D03*
X278540498Y-35605069D03*
D21*
X286390500Y-44255068D03*
D14*
X286390500Y-44255068D03*
D21*
X282390498Y-44255066D03*
D14*
X282390498Y-44255066D03*
%TD*%
D20*
%TO.C,CPG1316*%
X274240503Y-53605066D03*
X274240501Y-41605067D03*
X261540505Y-53605069D03*
X261540503Y-41605070D03*
D21*
X269390505Y-50255069D03*
D14*
X269390505Y-50255069D03*
D21*
X265390503Y-50255067D03*
D14*
X265390503Y-50255067D03*
%TD*%
D20*
%TO.C,CPG1316*%
X257240504Y-72605065D03*
X257240502Y-60605066D03*
X244540506Y-72605068D03*
X244540504Y-60605069D03*
D21*
X252390506Y-69255068D03*
D14*
X252390506Y-69255068D03*
D21*
X248390504Y-69255066D03*
D14*
X248390504Y-69255066D03*
%TD*%
D11*
%TO.C,D15*%
X269540489Y-44905060D03*
X266240499Y-44905068D03*
%TD*%
D20*
%TO.C,CPG1316*%
X274240504Y-87605060D03*
X274240502Y-75605061D03*
X261540506Y-87605063D03*
X261540504Y-75605064D03*
D21*
X269390506Y-84255063D03*
D14*
X269390506Y-84255063D03*
D21*
X265390504Y-84255061D03*
D14*
X265390504Y-84255061D03*
%TD*%
D23*
%TO.C,mouse-bite-1mm-3mm*%
X219260002Y-41750000D03*
X219250001Y-42350000D03*
X218550001Y-42350000D03*
X218550001Y-41750000D03*
X217840000Y-42350000D03*
X217840002Y-41750000D03*
%TD*%
D18*
%TO.C,CPG1316*%
X122471882Y-83648892D03*
X120594669Y-71796637D03*
X109928241Y-85635611D03*
X108051028Y-73783356D03*
D19*
X117157542Y-81098845D03*
D14*
X117157542Y-81098845D03*
D19*
X113206784Y-81724585D03*
D14*
X113206784Y-81724585D03*
%TD*%
D23*
%TO.C,mouse-bite-1mm-3mm*%
X219259682Y-40504244D03*
X219249679Y-41104244D03*
X218549683Y-40504246D03*
X218549677Y-41104248D03*
X217839683Y-40504246D03*
X217839678Y-41104250D03*
%TD*%
D49*
%TO.C,D20*%
X252559222Y-99829861D03*
X249271774Y-100117473D03*
%TD*%
D11*
%TO.C,D12*%
X153857098Y-38904252D03*
X150557106Y-38904252D03*
%TD*%
D20*
%TO.C,CPG1316*%
X192557095Y-89604243D03*
X192557093Y-77604244D03*
X179857097Y-89604246D03*
X179857095Y-77604247D03*
D21*
X187707097Y-86254246D03*
D14*
X187707097Y-86254246D03*
D21*
X183707095Y-86254244D03*
D14*
X183707095Y-86254244D03*
%TD*%
D17*
%TO.C,D2*%
X340678899Y-78967698D03*
X337419527Y-78451456D03*
%TD*%
D23*
%TO.C,mouse-bite-1mm-3mm*%
X219260002Y-99049997D03*
X219249999Y-99649998D03*
X218550003Y-99049999D03*
X218549997Y-99650001D03*
X217840004Y-99049999D03*
X217839998Y-99650003D03*
%TD*%
D50*
%TO.C,CPG1316*%
X256953716Y-96132790D03*
X257999583Y-108087126D03*
X244302041Y-97239666D03*
X245347908Y-109194002D03*
D51*
X252876071Y-105172575D03*
D14*
X252876071Y-105172575D03*
D51*
X248891284Y-105521201D03*
D14*
X248891284Y-105521201D03*
%TD*%
M02*
