%TF.GenerationSoftware,KiCad,Pcbnew,8.0.6*%
%TF.CreationDate,2025-08-02T13:41:41+02:00*%
%TF.ProjectId,combined,636f6d62-696e-4656-942e-6b696361645f,v1.0.0*%
%TF.SameCoordinates,Original*%
%TF.FileFunction,Drillmap*%
%TF.FilePolarity,Positive*%
%FSLAX45Y45*%
G04 Gerber Fmt 4.5, Leading zero omitted, Abs format (unit mm)*
G04 Created by KiCad (PCBNEW 8.0.6) date 2025-08-02 13:41:41*
%MOMM*%
%LPD*%
G01*
G04 APERTURE LIST*
%ADD10C,0.150000*%
%ADD11C,0.050000*%
%ADD12C,0.100000*%
%ADD13C,0.200000*%
G04 APERTURE END LIST*
D10*
X12187997Y-3905199D02*
X14189261Y-3221174D01*
X12134246Y-3933289D02*
G75*
G02*
X12187997Y-3905199I118494J-161271D01*
G01*
X10163063Y-5381898D02*
G75*
G02*
X10075913Y-5418276I-118463J161218D01*
G01*
X17954969Y-3810425D02*
X21544792Y-3810425D01*
X14138683Y-10046944D02*
G75*
G02*
X14290063Y-10077239I39487J-196046D01*
G01*
X27456744Y-3221908D02*
X25821356Y-3799104D01*
X10163063Y-5381898D02*
X12134246Y-3933289D01*
X33633847Y-5418356D02*
G75*
G02*
X33546699Y-5381978I31253J197446D01*
G01*
D11*
X21745000Y-4527500D02*
X21965000Y-4527500D01*
D10*
X16186451Y-3210425D02*
G75*
G02*
X16253015Y-3221828I-12J-200055D01*
G01*
X24537590Y-11256029D02*
X26187122Y-11126116D01*
X9473032Y-10877912D02*
G75*
G02*
X9242358Y-10711963I-33132J197242D01*
G01*
D11*
X21744792Y-4010342D02*
X21964968Y-4010425D01*
D10*
X21975251Y-10197696D02*
G75*
G02*
X21962457Y-10127236I187060J70356D01*
G01*
D11*
X24150590Y-6233177D02*
X24150589Y-9433177D01*
X22050590Y-9433177D01*
X22050589Y-6233177D01*
X24150590Y-6233177D01*
D10*
X21544792Y-3810425D02*
G75*
G02*
X21744795Y-4010342I8J-199995D01*
G01*
X21148326Y-11756875D02*
G75*
G02*
X20892714Y-11874434I-187206J70375D01*
G01*
X19172169Y-11255946D02*
G75*
G02*
X19224871Y-11267390I-15719J-199474D01*
G01*
X16253016Y-3221827D02*
X17888405Y-3799022D01*
X17954969Y-3810425D02*
G75*
G02*
X17888405Y-3799021I-9J199925D01*
G01*
X31521762Y-3905280D02*
G75*
G02*
X31575513Y-3933370I-64742J-189360D01*
G01*
X27938957Y-11076819D02*
G75*
G02*
X27828840Y-11111042I-111908J165809D01*
G01*
D11*
X21747302Y-10127154D02*
X21962459Y-10127236D01*
D10*
X29571077Y-10047026D02*
X30978688Y-10330508D01*
X34467402Y-10712043D02*
X35233636Y-5874232D01*
X26201048Y-11125507D02*
X27828840Y-11111041D01*
X21965000Y-4527500D02*
X21965000Y-9615001D01*
X22164969Y-3810506D02*
X25754792Y-3810507D01*
X29455814Y-3210507D02*
X27523308Y-3210508D01*
X12724724Y-10331598D02*
X9473032Y-10877912D01*
X22817046Y-11874517D02*
G75*
G02*
X22561438Y-11756956I-68406J187927D01*
G01*
X8642375Y-5645325D02*
X10075913Y-5418276D01*
X19172169Y-11255946D02*
X17522639Y-11126034D01*
X21734509Y-10197614D02*
X21148326Y-11756875D01*
X8476123Y-5874150D02*
G75*
G02*
X8642375Y-5645326I197547J31280D01*
G01*
X27938957Y-11076819D02*
X29419697Y-10077320D01*
X30985036Y-10331680D02*
X34236727Y-10877993D01*
X12731072Y-10330426D02*
G75*
G02*
X12724724Y-10331598I-39792J197606D01*
G01*
X24484889Y-11267472D02*
G75*
G02*
X24537590Y-11256029I68371J-187808D01*
G01*
X27456744Y-3221908D02*
G75*
G02*
X27523308Y-3210509I66556J-188592D01*
G01*
X17508713Y-11125424D02*
G75*
G02*
X17522639Y-11126034I-1733J-198766D01*
G01*
X14189261Y-3221174D02*
G75*
G02*
X14253946Y-3210425I64679J-189226D01*
G01*
X14253946Y-3210425D02*
X16186451Y-3210425D01*
X25821356Y-3799104D02*
G75*
G02*
X25754792Y-3810505I-66566J188634D01*
G01*
X21747302Y-10127154D02*
G75*
G02*
X21734511Y-10197615I-200102J-66D01*
G01*
X35067385Y-5645407D02*
G75*
G02*
X35233632Y-5874231I-31285J-197533D01*
G01*
D11*
X29455815Y-3210507D02*
G75*
G02*
X29520253Y-3221840I7655J-145333D01*
G01*
D10*
X30985036Y-10331680D02*
G75*
G02*
X30978688Y-10330508I33014J196520D01*
G01*
X34467402Y-10712043D02*
G75*
G02*
X34236727Y-10877997I-197532J31273D01*
G01*
D11*
X21745000Y-9615000D02*
X21965000Y-9615001D01*
D10*
X22817046Y-11874517D02*
X24484889Y-11267473D01*
X20892714Y-11874436D02*
X19224871Y-11267390D01*
X21964968Y-4010425D02*
G75*
G02*
X22164969Y-3810498I199972J-45D01*
G01*
X31521762Y-3905280D02*
X29520500Y-3221256D01*
X29419697Y-10077320D02*
G75*
G02*
X29571076Y-10047026I111893J-165760D01*
G01*
X21745000Y-4527500D02*
X21745000Y-9615000D01*
X9242358Y-10711963D02*
X8476123Y-5874150D01*
X15880920Y-11110960D02*
G75*
G02*
X15770802Y-11076739I1790J200040D01*
G01*
D11*
X21660014Y-6232669D02*
X21660014Y-9432669D01*
X19560014Y-9432669D01*
X19560014Y-6232669D01*
X21660014Y-6232669D01*
D10*
X15770803Y-11076738D02*
X14290063Y-10077239D01*
X35067385Y-5645407D02*
X33633847Y-5418356D01*
X14138683Y-10046944D02*
X12731072Y-10330426D01*
X26187122Y-11126116D02*
G75*
G02*
X26201048Y-11125507I15698J-199394D01*
G01*
X33546698Y-5381980D02*
X31575512Y-3933370D01*
X21975251Y-10197696D02*
X22561435Y-11756957D01*
X17508713Y-11125424D02*
X15880920Y-11110960D01*
D12*
X31617735Y-8052578D02*
G75*
G02*
X31517735Y-8052578I-50000J0D01*
G01*
X31517735Y-8052578D02*
G75*
G02*
X31617735Y-8052578I50000J0D01*
G01*
X32859493Y-7690813D02*
G75*
G02*
X32739493Y-7690813I-60000J0D01*
G01*
X32739493Y-7690813D02*
G75*
G02*
X32859493Y-7690813I60000J0D01*
G01*
X33030866Y-9997586D02*
G75*
G02*
X32930867Y-9997586I-50000J0D01*
G01*
X32930867Y-9997586D02*
G75*
G02*
X33030866Y-9997586I50000J0D01*
G01*
X34272624Y-9635821D02*
G75*
G02*
X34152624Y-9635821I-60000J0D01*
G01*
X34152624Y-9635821D02*
G75*
G02*
X34272624Y-9635821I60000J0D01*
G01*
X22844883Y-11164265D02*
G75*
G02*
X22744883Y-11164265I-50000J0D01*
G01*
X22744883Y-11164265D02*
G75*
G02*
X22844883Y-11164265I50000J0D01*
G01*
X23756815Y-10250691D02*
G75*
G02*
X23636816Y-10250691I-60000J0D01*
G01*
X23636816Y-10250691D02*
G75*
G02*
X23756815Y-10250691I60000J0D01*
G01*
X9367236Y-8499898D02*
G75*
G02*
X9267236Y-8499898I-50000J0D01*
G01*
X9267236Y-8499898D02*
G75*
G02*
X9367236Y-8499898I50000J0D01*
G01*
X10436916Y-7775205D02*
G75*
G02*
X10316916Y-7775205I-60000J0D01*
G01*
X10316916Y-7775205D02*
G75*
G02*
X10436916Y-7775205I60000J0D01*
G01*
X27959050Y-7835507D02*
G75*
G02*
X27859051Y-7835507I-50000J0D01*
G01*
X27859051Y-7835507D02*
G75*
G02*
X27959050Y-7835507I50000J0D01*
G01*
X29129050Y-7285506D02*
G75*
G02*
X29009049Y-7285506I-60001J0D01*
G01*
X29009049Y-7285506D02*
G75*
G02*
X29129050Y-7285506I60001J0D01*
G01*
X16390710Y-6735425D02*
G75*
G02*
X16290711Y-6735425I-50000J0D01*
G01*
X16290711Y-6735425D02*
G75*
G02*
X16390710Y-6735425I50000J0D01*
G01*
X17560710Y-6185425D02*
G75*
G02*
X17440709Y-6185425I-60001J0D01*
G01*
X17440709Y-6185425D02*
G75*
G02*
X17560710Y-6185425I60001J0D01*
G01*
X31883673Y-6373507D02*
G75*
G02*
X31783673Y-6373507I-50000J0D01*
G01*
X31783673Y-6373507D02*
G75*
G02*
X31883673Y-6373507I50000J0D01*
G01*
X33125430Y-6011742D02*
G75*
G02*
X33005430Y-6011742I-60000J0D01*
G01*
X33005430Y-6011742D02*
G75*
G02*
X33125430Y-6011742I60000J0D01*
G01*
X16290710Y-10435425D02*
G75*
G02*
X16190711Y-10435425I-50000J0D01*
G01*
X16190711Y-10435425D02*
G75*
G02*
X16290710Y-10435425I50000J0D01*
G01*
X17460711Y-9885424D02*
G75*
G02*
X17340709Y-9885424I-60001J0D01*
G01*
X17340709Y-9885424D02*
G75*
G02*
X17460711Y-9885424I60001J0D01*
G01*
X26259050Y-6735506D02*
G75*
G02*
X26159051Y-6735506I-50000J0D01*
G01*
X26159051Y-6735506D02*
G75*
G02*
X26259050Y-6735506I50000J0D01*
G01*
X27429050Y-6185506D02*
G75*
G02*
X27309049Y-6185506I-60001J0D01*
G01*
X27309049Y-6185506D02*
G75*
G02*
X27429050Y-6185506I60001J0D01*
G01*
X29702016Y-8418722D02*
G75*
G02*
X29602016Y-8418722I-50000J0D01*
G01*
X29602016Y-8418722D02*
G75*
G02*
X29702016Y-8418722I50000J0D01*
G01*
X30907557Y-7950979D02*
G75*
G02*
X30787557Y-7950979I-60000J0D01*
G01*
X30787557Y-7950979D02*
G75*
G02*
X30907557Y-7950979I60000J0D01*
G01*
X14690710Y-7835425D02*
G75*
G02*
X14590711Y-7835425I-50000J0D01*
G01*
X14590711Y-7835425D02*
G75*
G02*
X14690710Y-7835425I50000J0D01*
G01*
X15860710Y-7285425D02*
G75*
G02*
X15740709Y-7285425I-60001J0D01*
G01*
X15740709Y-7285425D02*
G75*
G02*
X15860710Y-7285425I60001J0D01*
G01*
X16390711Y-5035425D02*
G75*
G02*
X16290712Y-5035425I-50000J0D01*
G01*
X16290712Y-5035425D02*
G75*
G02*
X16390711Y-5035425I50000J0D01*
G01*
X17560711Y-4485425D02*
G75*
G02*
X17440710Y-4485425I-60001J0D01*
G01*
X17440710Y-4485425D02*
G75*
G02*
X17560711Y-4485425I60001J0D01*
G01*
X18090710Y-5235424D02*
G75*
G02*
X17990711Y-5235424I-50000J0D01*
G01*
X17990711Y-5235424D02*
G75*
G02*
X18090710Y-5235424I50000J0D01*
G01*
X19260710Y-4685423D02*
G75*
G02*
X19140709Y-4685423I-60001J0D01*
G01*
X19140709Y-4685423D02*
G75*
G02*
X19260710Y-4685423I60001J0D01*
G01*
X19874833Y-10767440D02*
G75*
G02*
X19774832Y-10767440I-50000J0D01*
G01*
X19774832Y-10767440D02*
G75*
G02*
X19874833Y-10767440I50000J0D01*
G01*
X21162987Y-10647352D02*
G75*
G02*
X21042987Y-10647352I-60000J0D01*
G01*
X21042987Y-10647352D02*
G75*
G02*
X21162987Y-10647352I60000J0D01*
G01*
X33296804Y-8318515D02*
G75*
G02*
X33196805Y-8318515I-50000J0D01*
G01*
X33196805Y-8318515D02*
G75*
G02*
X33296804Y-8318515I50000J0D01*
G01*
X34538562Y-7956751D02*
G75*
G02*
X34418562Y-7956751I-60000J0D01*
G01*
X34418562Y-7956751D02*
G75*
G02*
X34538562Y-7956751I60000J0D01*
G01*
X33562743Y-6639446D02*
G75*
G02*
X33462743Y-6639446I-50000J0D01*
G01*
X33462743Y-6639446D02*
G75*
G02*
X33562743Y-6639446I50000J0D01*
G01*
X34804501Y-6277681D02*
G75*
G02*
X34684501Y-6277681I-60000J0D01*
G01*
X34684501Y-6277681D02*
G75*
G02*
X34804501Y-6277681I60000J0D01*
G01*
X12831983Y-6803699D02*
G75*
G02*
X12731983Y-6803699I-50000J0D01*
G01*
X12731983Y-6803699D02*
G75*
G02*
X12831983Y-6803699I50000J0D01*
G01*
X13960791Y-6174121D02*
G75*
G02*
X13840791Y-6174121I-60000J0D01*
G01*
X13840791Y-6174121D02*
G75*
G02*
X13960791Y-6174121I60000J0D01*
G01*
X9633175Y-10178968D02*
G75*
G02*
X9533175Y-10178968I-50000J0D01*
G01*
X9533175Y-10178968D02*
G75*
G02*
X9633175Y-10178968I50000J0D01*
G01*
X10702855Y-9454276D02*
G75*
G02*
X10582856Y-9454276I-60000J0D01*
G01*
X10582856Y-9454276D02*
G75*
G02*
X10702855Y-9454276I60000J0D01*
G01*
X31351797Y-9731648D02*
G75*
G02*
X31251797Y-9731648I-50000J0D01*
G01*
X31251797Y-9731648D02*
G75*
G02*
X31351797Y-9731648I50000J0D01*
G01*
X32593554Y-9369883D02*
G75*
G02*
X32473554Y-9369883I-60000J0D01*
G01*
X32473554Y-9369883D02*
G75*
G02*
X32593554Y-9369883I60000J0D01*
G01*
X27959051Y-6135507D02*
G75*
G02*
X27859052Y-6135507I-50000J0D01*
G01*
X27859052Y-6135507D02*
G75*
G02*
X27959051Y-6135507I50000J0D01*
G01*
X29129051Y-5585507D02*
G75*
G02*
X29009050Y-5585507I-60001J0D01*
G01*
X29009050Y-5585507D02*
G75*
G02*
X29129051Y-5585507I60001J0D01*
G01*
X26359050Y-10435507D02*
G75*
G02*
X26259051Y-10435507I-50000J0D01*
G01*
X26259051Y-10435507D02*
G75*
G02*
X26359050Y-10435507I50000J0D01*
G01*
X27529050Y-9885507D02*
G75*
G02*
X27409049Y-9885507I-60001J0D01*
G01*
X27409049Y-9885507D02*
G75*
G02*
X27529050Y-9885507I60001J0D01*
G01*
X24559050Y-5235507D02*
G75*
G02*
X24459050Y-5235507I-50000J0D01*
G01*
X24459050Y-5235507D02*
G75*
G02*
X24559050Y-5235507I50000J0D01*
G01*
X25729050Y-4685506D02*
G75*
G02*
X25609049Y-4685506I-60001J0D01*
G01*
X25609049Y-4685506D02*
G75*
G02*
X25729050Y-4685506I60001J0D01*
G01*
X12950568Y-8499557D02*
G75*
G02*
X12850569Y-8499557I-50000J0D01*
G01*
X12850569Y-8499557D02*
G75*
G02*
X12950568Y-8499557I50000J0D01*
G01*
X14079376Y-7869979D02*
G75*
G02*
X13959376Y-7869979I-60000J0D01*
G01*
X13959376Y-7869979D02*
G75*
G02*
X14079376Y-7869979I60000J0D01*
G01*
X18090711Y-6935425D02*
G75*
G02*
X17990711Y-6935425I-50000J0D01*
G01*
X17990711Y-6935425D02*
G75*
G02*
X18090711Y-6935425I50000J0D01*
G01*
X19260711Y-6385425D02*
G75*
G02*
X19140710Y-6385425I-60001J0D01*
G01*
X19140710Y-6385425D02*
G75*
G02*
X19260711Y-6385425I60001J0D01*
G01*
X14690710Y-6135424D02*
G75*
G02*
X14590711Y-6135424I-50000J0D01*
G01*
X14590711Y-6135424D02*
G75*
G02*
X14690710Y-6135424I50000J0D01*
G01*
X15860710Y-5585424D02*
G75*
G02*
X15740709Y-5585424I-60001J0D01*
G01*
X15740709Y-5585424D02*
G75*
G02*
X15860710Y-5585424I60001J0D01*
G01*
X11312245Y-9913030D02*
G75*
G02*
X11212245Y-9913030I-50000J0D01*
G01*
X11212245Y-9913030D02*
G75*
G02*
X11312245Y-9913030I50000J0D01*
G01*
X12381925Y-9188337D02*
G75*
G02*
X12261926Y-9188337I-60000J0D01*
G01*
X12261926Y-9188337D02*
G75*
G02*
X12381925Y-9188337I60000J0D01*
G01*
D10*
X20120710Y-4950425D02*
X20120710Y-4904076D01*
X20120710Y-4623575D02*
X20120710Y-4580425D01*
X20120710Y-4814075D02*
X20120710Y-4713576D01*
X20120710Y-4580425D02*
X20420711Y-4580425D01*
X20420710Y-4950425D02*
X20120710Y-4950425D01*
X20420711Y-4580425D02*
X20420710Y-4950425D01*
X20488210Y-3988575D02*
X20742210Y-3988576D01*
X20488210Y-4242575D02*
X20488210Y-4078575D01*
X20742210Y-4332575D02*
X20488210Y-4332575D01*
X20742210Y-4078576D02*
X20742210Y-4242575D01*
X20120710Y-4623575D02*
G75*
G02*
X20120710Y-4713576I-1J-45000D01*
G01*
X20120710Y-4814075D02*
G75*
G02*
X20120710Y-4904076I-3J-45000D01*
G01*
X20488210Y-3988575D02*
G75*
G02*
X20488210Y-4078575I0J-45000D01*
G01*
X20488210Y-4242575D02*
G75*
G02*
X20488210Y-4332575I0J-45000D01*
G01*
X20742210Y-4332575D02*
G75*
G02*
X20742210Y-4242575I0J45000D01*
G01*
X20742210Y-4078576D02*
G75*
G02*
X20742210Y-3988576I0J45000D01*
G01*
D12*
X29939189Y-5027005D02*
G75*
G02*
X29839189Y-5027005I-50000J0D01*
G01*
X29839189Y-5027005D02*
G75*
G02*
X29939189Y-5027005I50000J0D01*
G01*
X31144729Y-4559262D02*
G75*
G02*
X31024729Y-4559262I-60000J0D01*
G01*
X31024729Y-4559262D02*
G75*
G02*
X31144729Y-4559262I60000J0D01*
G01*
X24559050Y-8635506D02*
G75*
G02*
X24459051Y-8635506I-50000J0D01*
G01*
X24459051Y-8635506D02*
G75*
G02*
X24559050Y-8635506I50000J0D01*
G01*
X25729050Y-8085506D02*
G75*
G02*
X25609049Y-8085506I-60001J0D01*
G01*
X25609049Y-8085506D02*
G75*
G02*
X25729050Y-8085506I60001J0D01*
G01*
X16390710Y-8435425D02*
G75*
G02*
X16290710Y-8435425I-50000J0D01*
G01*
X16290710Y-8435425D02*
G75*
G02*
X16390710Y-8435425I50000J0D01*
G01*
X17560710Y-7885424D02*
G75*
G02*
X17440709Y-7885424I-60001J0D01*
G01*
X17440709Y-7885424D02*
G75*
G02*
X17560710Y-7885424I60001J0D01*
G01*
X18042918Y-10489660D02*
G75*
G02*
X17942918Y-10489660I-50000J0D01*
G01*
X17942918Y-10489660D02*
G75*
G02*
X18042918Y-10489660I50000J0D01*
G01*
X19256439Y-10042853D02*
G75*
G02*
X19136440Y-10042853I-60000J0D01*
G01*
X19136440Y-10042853D02*
G75*
G02*
X19256439Y-10042853I60000J0D01*
G01*
X14690710Y-4435426D02*
G75*
G02*
X14590711Y-4435426I-50000J0D01*
G01*
X14590711Y-4435426D02*
G75*
G02*
X14690710Y-4435426I50000J0D01*
G01*
X15860710Y-3885425D02*
G75*
G02*
X15740709Y-3885425I-60001J0D01*
G01*
X15740709Y-3885425D02*
G75*
G02*
X15860710Y-3885425I60001J0D01*
G01*
X29820603Y-6722863D02*
G75*
G02*
X29720603Y-6722863I-50000J0D01*
G01*
X29720603Y-6722863D02*
G75*
G02*
X29820603Y-6722863I50000J0D01*
G01*
X31026143Y-6255120D02*
G75*
G02*
X30906144Y-6255120I-60000J0D01*
G01*
X30906144Y-6255120D02*
G75*
G02*
X31026143Y-6255120I60000J0D01*
G01*
X12713397Y-5107840D02*
G75*
G02*
X12613397Y-5107840I-50000J0D01*
G01*
X12613397Y-5107840D02*
G75*
G02*
X12713397Y-5107840I50000J0D01*
G01*
X13842205Y-4478262D02*
G75*
G02*
X13722205Y-4478262I-60000J0D01*
G01*
X13722205Y-4478262D02*
G75*
G02*
X13842205Y-4478262I60000J0D01*
G01*
X10780367Y-6554889D02*
G75*
G02*
X10680367Y-6554889I-50000J0D01*
G01*
X10680367Y-6554889D02*
G75*
G02*
X10780367Y-6554889I50000J0D01*
G01*
X11850047Y-5830196D02*
G75*
G02*
X11730048Y-5830196I-60000J0D01*
G01*
X11730048Y-5830196D02*
G75*
G02*
X11850047Y-5830196I60000J0D01*
G01*
X9101298Y-6820827D02*
G75*
G02*
X9001298Y-6820827I-50000J0D01*
G01*
X9001298Y-6820827D02*
G75*
G02*
X9101298Y-6820827I50000J0D01*
G01*
X10170978Y-6096135D02*
G75*
G02*
X10050979Y-6096135I-60000J0D01*
G01*
X10050979Y-6096135D02*
G75*
G02*
X10170978Y-6096135I60000J0D01*
G01*
D10*
X22589049Y-4580506D02*
X22889050Y-4580506D01*
X22589049Y-4623657D02*
X22589049Y-4580506D01*
X22589050Y-4950506D02*
X22589049Y-4904157D01*
X22589050Y-4814157D02*
X22589050Y-4713657D01*
X22889050Y-4580506D02*
X22889050Y-4950506D01*
X22889050Y-4950506D02*
X22589050Y-4950506D01*
X22956550Y-3988656D02*
X23210550Y-3988657D01*
X22956550Y-4242656D02*
X22956550Y-4078656D01*
X23210549Y-4332656D02*
X22956549Y-4332656D01*
X23210550Y-4078657D02*
X23210549Y-4242657D01*
X22589049Y-4623657D02*
G75*
G02*
X22589050Y-4713657I0J-45000D01*
G01*
X22589050Y-4814157D02*
G75*
G02*
X22589049Y-4904157I-4J-45000D01*
G01*
X22956550Y-3988656D02*
G75*
G02*
X22956550Y-4078656I-1J-45000D01*
G01*
X22956550Y-4242656D02*
G75*
G02*
X22956549Y-4332656I-1J-45000D01*
G01*
X23210549Y-4332656D02*
G75*
G02*
X23210549Y-4242657I1J45000D01*
G01*
X23210550Y-4078657D02*
G75*
G02*
X23210550Y-3988657I1J45000D01*
G01*
D12*
X27959050Y-4435507D02*
G75*
G02*
X27859051Y-4435507I-50000J0D01*
G01*
X27859051Y-4435507D02*
G75*
G02*
X27959050Y-4435507I50000J0D01*
G01*
X29129050Y-3885507D02*
G75*
G02*
X29009049Y-3885507I-60001J0D01*
G01*
X29009049Y-3885507D02*
G75*
G02*
X29129050Y-3885507I60001J0D01*
G01*
X26259050Y-5035507D02*
G75*
G02*
X26159051Y-5035507I-50000J0D01*
G01*
X26159051Y-5035507D02*
G75*
G02*
X26259050Y-5035507I50000J0D01*
G01*
X27429051Y-4485506D02*
G75*
G02*
X27309049Y-4485506I-60001J0D01*
G01*
X27309049Y-4485506D02*
G75*
G02*
X27429051Y-4485506I60001J0D01*
G01*
X24559050Y-6935507D02*
G75*
G02*
X24459051Y-6935507I-50000J0D01*
G01*
X24459051Y-6935507D02*
G75*
G02*
X24559050Y-6935507I50000J0D01*
G01*
X25729051Y-6385507D02*
G75*
G02*
X25609049Y-6385507I-60001J0D01*
G01*
X25609049Y-6385507D02*
G75*
G02*
X25729051Y-6385507I60001J0D01*
G01*
X26259050Y-8435506D02*
G75*
G02*
X26159051Y-8435506I-50000J0D01*
G01*
X26159051Y-8435506D02*
G75*
G02*
X26259050Y-8435506I50000J0D01*
G01*
X27429050Y-7885506D02*
G75*
G02*
X27309049Y-7885506I-60001J0D01*
G01*
X27309049Y-7885506D02*
G75*
G02*
X27429050Y-7885506I60001J0D01*
G01*
X11046306Y-8233959D02*
G75*
G02*
X10946306Y-8233959I-50000J0D01*
G01*
X10946306Y-8233959D02*
G75*
G02*
X11046306Y-8233959I50000J0D01*
G01*
X12115986Y-7509266D02*
G75*
G02*
X11995986Y-7509266I-60000J0D01*
G01*
X11995986Y-7509266D02*
G75*
G02*
X12115986Y-7509266I60000J0D01*
G01*
X18090710Y-8635425D02*
G75*
G02*
X17990711Y-8635425I-50000J0D01*
G01*
X17990711Y-8635425D02*
G75*
G02*
X18090710Y-8635425I50000J0D01*
G01*
X19260710Y-8085424D02*
G75*
G02*
X19140709Y-8085424I-60001J0D01*
G01*
X19140709Y-8085424D02*
G75*
G02*
X19260710Y-8085424I60001J0D01*
G01*
X24611256Y-10590843D02*
G75*
G02*
X24511256Y-10590843I-50000J0D01*
G01*
X24511256Y-10590843D02*
G75*
G02*
X24611256Y-10590843I50000J0D01*
G01*
X25728906Y-9941835D02*
G75*
G02*
X25608907Y-9941835I-60000J0D01*
G01*
X25608907Y-9941835D02*
G75*
G02*
X25728906Y-9941835I60000J0D01*
G01*
D13*
D12*
X9242409Y-6221389D02*
X9272409Y-6251389D01*
X9272409Y-6221389D02*
X9242409Y-6251389D01*
X9508348Y-7900459D02*
X9538348Y-7930459D01*
X9538348Y-7900459D02*
X9508348Y-7930459D01*
X9774287Y-9579530D02*
X9804287Y-9609530D01*
X9804287Y-9579530D02*
X9774287Y-9609530D01*
X9805392Y-6132221D02*
X9835392Y-6162221D01*
X9835392Y-6132221D02*
X9805392Y-6162221D01*
X10071330Y-7811292D02*
X10101330Y-7841292D01*
X10101330Y-7811292D02*
X10071330Y-7841292D01*
X10337269Y-9490362D02*
X10367269Y-9520362D01*
X10367269Y-9490362D02*
X10337269Y-9520362D01*
X10921479Y-5955451D02*
X10951479Y-5985451D01*
X10951479Y-5955451D02*
X10921479Y-5985451D01*
X11187418Y-7634521D02*
X11217418Y-7664521D01*
X11217418Y-7634521D02*
X11187418Y-7664521D01*
X11453356Y-9313591D02*
X11483356Y-9343591D01*
X11483356Y-9313591D02*
X11453356Y-9343591D01*
X11484462Y-5866284D02*
X11514462Y-5896284D01*
X11514462Y-5866284D02*
X11484462Y-5896284D01*
X11750401Y-7545353D02*
X11780401Y-7575353D01*
X11780401Y-7545353D02*
X11750401Y-7575353D01*
X12016338Y-9224424D02*
X12046338Y-9254424D01*
X12046338Y-9224424D02*
X12016338Y-9254424D01*
X12904661Y-4528589D02*
X12934661Y-4558589D01*
X12934661Y-4528589D02*
X12904661Y-4558589D01*
X13023247Y-6224449D02*
X13053247Y-6254449D01*
X13053247Y-6224449D02*
X13023247Y-6254449D01*
X13141833Y-7920307D02*
X13171833Y-7950307D01*
X13171833Y-7920307D02*
X13141833Y-7950307D01*
X13473272Y-4488827D02*
X13503272Y-4518827D01*
X13503272Y-4488827D02*
X13473272Y-4518827D01*
X13591859Y-6184687D02*
X13621859Y-6214687D01*
X13621859Y-6184687D02*
X13591859Y-6214687D01*
X13710444Y-7880545D02*
X13740444Y-7910545D01*
X13740444Y-7880545D02*
X13710444Y-7910545D01*
X14920710Y-7275425D02*
X14950710Y-7305425D01*
X14950710Y-7275425D02*
X14920710Y-7305425D01*
X14920710Y-5575425D02*
X14950710Y-5605425D01*
X14950710Y-5575425D02*
X14920710Y-5605425D01*
X14920710Y-3875425D02*
X14950710Y-3905425D01*
X14950710Y-3875425D02*
X14920710Y-3905425D01*
X15490710Y-3875425D02*
X15520710Y-3905425D01*
X15520710Y-3875425D02*
X15490710Y-3905425D01*
X15490710Y-5575425D02*
X15520710Y-5605425D01*
X15520710Y-5575425D02*
X15490710Y-5605425D01*
X15490710Y-7275425D02*
X15520710Y-7305425D01*
X15520710Y-7275425D02*
X15490710Y-7305425D01*
X16520710Y-9875424D02*
X16550710Y-9905424D01*
X16550710Y-9875424D02*
X16520710Y-9905424D01*
X16620709Y-4475424D02*
X16650709Y-4505424D01*
X16650709Y-4475424D02*
X16620709Y-4505424D01*
X16620709Y-7875424D02*
X16650709Y-7905424D01*
X16650709Y-7875424D02*
X16620709Y-7905424D01*
X16620710Y-6175425D02*
X16650710Y-6205425D01*
X16650710Y-6175425D02*
X16620710Y-6205425D01*
X17090709Y-9875425D02*
X17120709Y-9905425D01*
X17120709Y-9875425D02*
X17090709Y-9905425D01*
X17190710Y-7875424D02*
X17220710Y-7905424D01*
X17220710Y-7875424D02*
X17190710Y-7905424D01*
X17190710Y-4475425D02*
X17220710Y-4505425D01*
X17220710Y-4475425D02*
X17190710Y-4505425D01*
X17190711Y-6175425D02*
X17220711Y-6205425D01*
X17220711Y-6175425D02*
X17190711Y-6205425D01*
X18319296Y-9957446D02*
X18349296Y-9987446D01*
X18349296Y-9957446D02*
X18319296Y-9987446D01*
X18320710Y-6375424D02*
X18350710Y-6405424D01*
X18350710Y-6375424D02*
X18320710Y-6405424D01*
X18320710Y-8075424D02*
X18350710Y-8105424D01*
X18350710Y-8075424D02*
X18320710Y-8105424D01*
X18320711Y-4675425D02*
X18350711Y-4705425D01*
X18350711Y-4675425D02*
X18320711Y-4705425D01*
X18887126Y-10007124D02*
X18917126Y-10037124D01*
X18917126Y-10007124D02*
X18887126Y-10037124D01*
X18890710Y-8075425D02*
X18920710Y-8105425D01*
X18920710Y-8075425D02*
X18890710Y-8105425D01*
X18890710Y-4675425D02*
X18920710Y-4705425D01*
X18920710Y-4675425D02*
X18890710Y-4705425D01*
X18890710Y-6375425D02*
X18920710Y-6405425D01*
X18920710Y-6375425D02*
X18890710Y-6405425D01*
X20273445Y-10341203D02*
X20303445Y-10371203D01*
X20303445Y-10341203D02*
X20273445Y-10371203D01*
X20500013Y-5055169D02*
X20530013Y-5085169D01*
X20530013Y-5055169D02*
X20500013Y-5085169D01*
X20809069Y-10536154D02*
X20839069Y-10566154D01*
X20839069Y-10536154D02*
X20809069Y-10566154D01*
X22870691Y-10536236D02*
X22900691Y-10566236D01*
X22900691Y-10536236D02*
X22870691Y-10566236D01*
X23406317Y-10341285D02*
X23436317Y-10371285D01*
X23436317Y-10341285D02*
X23406317Y-10371285D01*
X23490589Y-5143177D02*
X23520589Y-5173177D01*
X23520589Y-5143177D02*
X23490589Y-5173177D01*
X23570589Y-5143177D02*
X23600589Y-5173177D01*
X23600589Y-5143177D02*
X23570589Y-5173177D01*
X24680590Y-4223176D02*
X24710590Y-4253176D01*
X24710590Y-4223176D02*
X24680590Y-4253176D01*
X24765590Y-4228177D02*
X24795590Y-4258177D01*
X24795590Y-4228177D02*
X24765590Y-4258177D01*
X24789050Y-8075507D02*
X24819050Y-8105507D01*
X24819050Y-8075507D02*
X24789050Y-8105507D01*
X24789050Y-6375507D02*
X24819050Y-6405507D01*
X24819050Y-6375507D02*
X24789050Y-6405507D01*
X24789051Y-4675507D02*
X24819051Y-4705507D01*
X24819051Y-4675507D02*
X24789051Y-4705507D01*
X24792634Y-10007207D02*
X24822634Y-10037207D01*
X24822634Y-10007207D02*
X24792634Y-10037207D01*
X25359050Y-8075507D02*
X25389050Y-8105507D01*
X25389050Y-8075507D02*
X25359050Y-8105507D01*
X25359050Y-6375506D02*
X25389050Y-6405506D01*
X25389050Y-6375506D02*
X25359050Y-6405506D01*
X25359050Y-4675506D02*
X25389050Y-4705506D01*
X25389050Y-4675506D02*
X25359050Y-4705506D01*
X25360465Y-9957527D02*
X25390465Y-9987527D01*
X25390465Y-9957527D02*
X25360465Y-9987527D01*
X26489049Y-4475507D02*
X26519049Y-4505507D01*
X26519049Y-4475507D02*
X26489049Y-4505507D01*
X26489050Y-7875507D02*
X26519050Y-7905507D01*
X26519050Y-7875507D02*
X26489050Y-7905507D01*
X26489051Y-6175507D02*
X26519051Y-6205507D01*
X26519051Y-6175507D02*
X26489051Y-6205507D01*
X26589050Y-9875507D02*
X26619050Y-9905507D01*
X26619050Y-9875507D02*
X26589050Y-9905507D01*
X27059050Y-6175506D02*
X27089050Y-6205506D01*
X27089050Y-6175506D02*
X27059050Y-6205506D01*
X27059050Y-7875507D02*
X27089050Y-7905507D01*
X27089050Y-7875507D02*
X27059050Y-7905507D01*
X27059051Y-4475506D02*
X27089051Y-4505506D01*
X27089051Y-4475506D02*
X27059051Y-4505506D01*
X27159050Y-9875507D02*
X27189050Y-9905507D01*
X27189050Y-9875507D02*
X27159050Y-9905507D01*
X28189050Y-3875506D02*
X28219050Y-3905506D01*
X28219050Y-3875506D02*
X28189050Y-3905506D01*
X28189050Y-5575506D02*
X28219050Y-5605506D01*
X28219050Y-5575506D02*
X28189050Y-5605506D01*
X28189051Y-7275507D02*
X28219051Y-7305507D01*
X28219051Y-7275507D02*
X28189051Y-7305507D01*
X28759050Y-3875507D02*
X28789050Y-3905507D01*
X28789050Y-3875507D02*
X28759050Y-3905507D01*
X28759050Y-5575506D02*
X28789050Y-5605506D01*
X28789050Y-5575506D02*
X28759050Y-5605506D01*
X28759050Y-7275506D02*
X28789050Y-7305506D01*
X28789050Y-7275506D02*
X28759050Y-7305506D01*
X29969316Y-7880627D02*
X29999316Y-7910627D01*
X29999316Y-7880627D02*
X29969316Y-7910627D01*
X30087902Y-6184769D02*
X30117902Y-6214769D01*
X30117902Y-6184769D02*
X30087902Y-6214769D01*
X30206488Y-4488910D02*
X30236488Y-4518910D01*
X30236488Y-4488910D02*
X30206488Y-4518910D01*
X30537927Y-7920389D02*
X30567927Y-7950389D01*
X30567927Y-7920389D02*
X30537927Y-7950389D01*
X30656513Y-6224530D02*
X30686513Y-6254530D01*
X30686513Y-6224530D02*
X30656513Y-6254530D01*
X30775100Y-4528671D02*
X30805100Y-4558671D01*
X30805100Y-4528671D02*
X30775100Y-4558671D01*
X31663422Y-9224505D02*
X31693422Y-9254505D01*
X31693422Y-9224505D02*
X31663422Y-9254505D01*
X31929360Y-7545436D02*
X31959360Y-7575436D01*
X31959360Y-7545436D02*
X31929360Y-7575436D01*
X32195299Y-5866365D02*
X32225299Y-5896365D01*
X32225299Y-5866365D02*
X32195299Y-5896365D01*
X32226404Y-9313674D02*
X32256404Y-9343674D01*
X32256404Y-9313674D02*
X32226404Y-9343674D01*
X32492343Y-7634602D02*
X32522343Y-7664602D01*
X32522343Y-7634602D02*
X32492343Y-7664602D01*
X32758280Y-5955534D02*
X32788280Y-5985534D01*
X32788280Y-5955534D02*
X32758280Y-5985534D01*
X33342492Y-9490444D02*
X33372492Y-9520444D01*
X33372492Y-9490444D02*
X33342492Y-9520444D01*
X33608430Y-7811374D02*
X33638430Y-7841374D01*
X33638430Y-7811374D02*
X33608430Y-7841374D01*
X33874369Y-6132304D02*
X33904369Y-6162304D01*
X33904369Y-6132304D02*
X33874369Y-6162304D01*
X33905474Y-9579612D02*
X33935474Y-9609612D01*
X33935474Y-9579612D02*
X33905474Y-9609612D01*
X34171412Y-7900542D02*
X34201412Y-7930542D01*
X34201412Y-7900542D02*
X34171412Y-7930542D01*
X34437351Y-6221472D02*
X34467351Y-6251472D01*
X34467351Y-6221472D02*
X34437351Y-6251472D01*
X20007514Y-6077669D02*
G75*
G02*
X19932514Y-6077669I-37500J0D01*
G01*
X19932514Y-6077669D02*
G75*
G02*
X20007514Y-6077669I37500J0D01*
G01*
X20207513Y-6077669D02*
G75*
G02*
X20132513Y-6077669I-37500J0D01*
G01*
X20132513Y-6077669D02*
G75*
G02*
X20207513Y-6077669I37500J0D01*
G01*
X23567500Y-6077500D02*
G75*
G02*
X23492500Y-6077500I-37500J0D01*
G01*
X23492500Y-6077500D02*
G75*
G02*
X23567500Y-6077500I37500J0D01*
G01*
X23767500Y-6077500D02*
G75*
G02*
X23692500Y-6077500I-37500J0D01*
G01*
X23692500Y-6077500D02*
G75*
G02*
X23767500Y-6077500I37500J0D01*
G01*
X19858710Y-4591975D02*
X19858710Y-4680875D01*
X19814260Y-4636425D02*
X19903160Y-4636425D01*
X19858710Y-4083976D02*
X19858710Y-4172876D01*
X19814260Y-4128426D02*
X19903160Y-4128426D01*
X19858710Y-4845975D02*
X19858710Y-4934875D01*
X19814260Y-4890425D02*
X19903160Y-4890425D01*
X19858710Y-4337976D02*
X19858710Y-4426876D01*
X19814260Y-4382426D02*
X19903160Y-4382426D01*
X19858710Y-5099975D02*
X19858710Y-5188875D01*
X19814260Y-5144425D02*
X19903160Y-5144425D01*
X19858710Y-5353975D02*
X19858710Y-5442875D01*
X19814260Y-5398425D02*
X19903160Y-5398425D01*
X19858710Y-5607975D02*
X19858710Y-5696875D01*
X19814260Y-5652425D02*
X19903160Y-5652425D01*
X21382710Y-4083975D02*
X21382710Y-4172875D01*
X21338260Y-4128425D02*
X21427160Y-4128425D01*
X21382710Y-4337975D02*
X21382710Y-4426875D01*
X21338260Y-4382425D02*
X21427160Y-4382425D01*
X21382710Y-4591975D02*
X21382710Y-4680875D01*
X21338260Y-4636425D02*
X21427160Y-4636425D01*
X21382710Y-5353975D02*
X21382710Y-5442875D01*
X21338260Y-5398425D02*
X21427160Y-5398425D01*
X21382710Y-4845975D02*
X21382710Y-4934875D01*
X21338260Y-4890425D02*
X21427160Y-4890425D01*
X21382710Y-5607975D02*
X21382710Y-5696875D01*
X21338260Y-5652425D02*
X21427160Y-5652425D01*
X21382710Y-5099975D02*
X21382710Y-5188875D01*
X21338260Y-5144425D02*
X21427160Y-5144425D01*
X22327049Y-5100056D02*
X22327049Y-5188956D01*
X22282599Y-5144506D02*
X22371499Y-5144506D01*
X22327049Y-4846056D02*
X22327049Y-4934956D01*
X22282599Y-4890506D02*
X22371499Y-4890506D01*
X22327050Y-5354056D02*
X22327050Y-5442956D01*
X22282600Y-5398506D02*
X22371499Y-5398506D01*
X22327050Y-5608056D02*
X22327050Y-5696956D01*
X22282600Y-5652506D02*
X22371499Y-5652506D01*
X22327050Y-4338057D02*
X22327050Y-4426957D01*
X22282600Y-4382507D02*
X22371500Y-4382507D01*
X22327050Y-4592056D02*
X22327050Y-4680956D01*
X22282600Y-4636506D02*
X22371500Y-4636506D01*
X22327050Y-4084056D02*
X22327050Y-4172956D01*
X22282600Y-4128506D02*
X22371500Y-4128506D01*
X23851049Y-5608056D02*
X23851049Y-5696956D01*
X23806599Y-5652506D02*
X23895499Y-5652506D01*
X23851049Y-5100056D02*
X23851049Y-5188956D01*
X23806599Y-5144506D02*
X23895499Y-5144506D01*
X23851049Y-5354056D02*
X23851049Y-5442956D01*
X23806599Y-5398506D02*
X23895499Y-5398506D01*
X23851050Y-4084056D02*
X23851050Y-4172956D01*
X23806600Y-4128506D02*
X23895500Y-4128506D01*
X23851050Y-4338056D02*
X23851050Y-4426956D01*
X23806600Y-4382506D02*
X23895500Y-4382506D01*
X23851050Y-4846056D02*
X23851050Y-4934956D01*
X23806600Y-4890506D02*
X23895500Y-4890506D01*
X23851050Y-4592056D02*
X23851050Y-4680956D01*
X23806600Y-4636506D02*
X23895500Y-4636506D01*
X9509796Y-6779039D02*
X9509796Y-6708328D01*
X9439085Y-6708328D01*
X9439085Y-6779039D01*
X9509796Y-6779039D01*
X9775734Y-8458109D02*
X9775734Y-8387398D01*
X9705023Y-8387398D01*
X9705023Y-8458109D01*
X9775734Y-8458109D01*
X9806102Y-6732109D02*
X9806102Y-6661397D01*
X9735391Y-6661397D01*
X9735391Y-6732109D01*
X9806102Y-6732109D01*
X10041673Y-10137180D02*
X10041673Y-10066469D01*
X9970962Y-10066469D01*
X9970962Y-10137180D01*
X10041673Y-10137180D01*
X10072040Y-8411179D02*
X10072040Y-8340467D01*
X10001329Y-8340467D01*
X10001329Y-8411179D01*
X10072040Y-8411179D01*
X10337979Y-10090250D02*
X10337979Y-10019538D01*
X10267268Y-10019538D01*
X10267268Y-10090250D01*
X10337979Y-10090250D01*
X11188865Y-6513101D02*
X11188865Y-6442389D01*
X11118154Y-6442389D01*
X11118154Y-6513101D01*
X11188865Y-6513101D01*
X11390931Y-5020696D02*
X11390931Y-4949984D01*
X11320219Y-4949984D01*
X11320219Y-5020696D01*
X11390931Y-5020696D01*
X11454804Y-8192171D02*
X11454804Y-8121459D01*
X11384092Y-8121459D01*
X11384092Y-8192171D01*
X11454804Y-8192171D01*
X11485171Y-6466170D02*
X11485171Y-6395459D01*
X11414460Y-6395459D01*
X11414460Y-6466170D01*
X11485171Y-6466170D01*
X11720743Y-9871241D02*
X11720743Y-9800530D01*
X11650032Y-9800530D01*
X11650032Y-9871241D01*
X11720743Y-9871241D01*
X11751110Y-8145240D02*
X11751110Y-8074529D01*
X11680398Y-8074529D01*
X11680398Y-8145240D01*
X11751110Y-8145240D01*
X11910044Y-4629516D02*
X11910044Y-4558805D01*
X11839333Y-4558805D01*
X11839333Y-4629516D01*
X11910044Y-4629516D01*
X12017049Y-9824311D02*
X12017049Y-9753599D01*
X11946338Y-9753599D01*
X11946338Y-9824311D01*
X12017049Y-9824311D01*
X13127008Y-5103224D02*
X13127008Y-5032513D01*
X13056296Y-5032513D01*
X13056296Y-5103224D01*
X13127008Y-5103224D01*
X13245593Y-6799083D02*
X13245593Y-6728372D01*
X13174882Y-6728372D01*
X13174882Y-6799083D01*
X13245593Y-6799083D01*
X13364179Y-8494941D02*
X13364179Y-8424230D01*
X13293468Y-8424230D01*
X13293468Y-8494941D01*
X13364179Y-8494941D01*
X13426277Y-5082297D02*
X13426277Y-5011586D01*
X13355565Y-5011586D01*
X13355565Y-5082297D01*
X13426277Y-5082297D01*
X13544862Y-6778156D02*
X13544862Y-6707445D01*
X13474151Y-6707445D01*
X13474151Y-6778156D01*
X13544862Y-6778156D01*
X13663448Y-8474015D02*
X13663448Y-8403303D01*
X13592737Y-8403303D01*
X13592737Y-8474015D01*
X13663448Y-8474015D01*
X15106065Y-6160780D02*
X15106065Y-6090069D01*
X15035354Y-6090069D01*
X15035354Y-6160780D01*
X15106065Y-6160780D01*
X15106066Y-4460781D02*
X15106066Y-4390070D01*
X15035354Y-4390070D01*
X15035354Y-4460781D01*
X15106066Y-4460781D01*
X15106066Y-7860781D02*
X15106066Y-7790069D01*
X15035354Y-7790069D01*
X15035354Y-7860781D01*
X15106066Y-7860781D01*
X15406066Y-6160780D02*
X15406066Y-6090068D01*
X15335354Y-6090068D01*
X15335354Y-6160780D01*
X15406066Y-6160780D01*
X15406066Y-4460781D02*
X15406066Y-4390070D01*
X15335354Y-4390070D01*
X15335354Y-4460781D01*
X15406066Y-4460781D01*
X15406066Y-7860780D02*
X15406066Y-7790069D01*
X15335354Y-7790069D01*
X15335354Y-7860780D01*
X15406066Y-7860780D01*
X16706066Y-10460780D02*
X16706066Y-10390069D01*
X16635355Y-10390069D01*
X16635355Y-10460780D01*
X16706066Y-10460780D01*
X16806065Y-8460781D02*
X16806065Y-8390069D01*
X16735354Y-8390069D01*
X16735354Y-8460781D01*
X16806065Y-8460781D01*
X16806066Y-6760781D02*
X16806066Y-6690070D01*
X16735354Y-6690070D01*
X16735354Y-6760781D01*
X16806066Y-6760781D01*
X16806067Y-5060781D02*
X16806067Y-4990069D01*
X16735355Y-4990069D01*
X16735355Y-5060781D01*
X16806067Y-5060781D01*
X17006066Y-10460780D02*
X17006066Y-10390069D01*
X16935355Y-10390069D01*
X16935355Y-10460780D01*
X17006066Y-10460780D01*
X17106065Y-8460780D02*
X17106065Y-8390069D01*
X17035354Y-8390069D01*
X17035354Y-8460780D01*
X17106065Y-8460780D01*
X17106066Y-6760781D02*
X17106066Y-6690070D01*
X17035354Y-6690070D01*
X17035354Y-6760781D01*
X17106066Y-6760781D01*
X17106067Y-5060781D02*
X17106067Y-4990069D01*
X17035355Y-4990069D01*
X17035355Y-5060781D01*
X17106067Y-5060781D01*
X18457509Y-10552531D02*
X18457509Y-10481820D01*
X18386797Y-10481820D01*
X18386797Y-10552531D01*
X18457509Y-10552531D01*
X18506065Y-5260779D02*
X18506065Y-5190068D01*
X18435354Y-5190068D01*
X18435354Y-5260779D01*
X18506065Y-5260779D01*
X18506066Y-8660780D02*
X18506066Y-8590069D01*
X18435354Y-8590069D01*
X18435354Y-8660780D01*
X18506066Y-8660780D01*
X18506066Y-6960781D02*
X18506066Y-6890069D01*
X18435355Y-6890069D01*
X18435355Y-6960781D01*
X18506066Y-6960781D01*
X18756367Y-10578677D02*
X18756367Y-10507966D01*
X18685656Y-10507966D01*
X18685656Y-10578677D01*
X18756367Y-10578677D01*
X18806066Y-5260779D02*
X18806066Y-5190068D01*
X18735354Y-5190068D01*
X18735354Y-5260779D01*
X18806066Y-5260779D01*
X18806066Y-8660780D02*
X18806066Y-8590069D01*
X18735354Y-8590069D01*
X18735354Y-8660780D01*
X18806066Y-8660780D01*
X18806066Y-6960780D02*
X18806066Y-6890069D01*
X18735355Y-6890069D01*
X18735355Y-6960780D01*
X18806066Y-6960780D01*
X20156065Y-4703931D02*
X20156065Y-4633220D01*
X20085354Y-4633220D01*
X20085354Y-4703931D01*
X20156065Y-4703931D01*
X20156066Y-4894431D02*
X20156066Y-4823719D01*
X20085354Y-4823719D01*
X20085354Y-4894431D01*
X20156066Y-4894431D01*
X20267676Y-10940467D02*
X20267676Y-10869755D01*
X20196965Y-10869755D01*
X20196965Y-10940467D01*
X20267676Y-10940467D01*
X20523565Y-4068931D02*
X20523565Y-3998220D01*
X20452854Y-3998220D01*
X20452854Y-4068931D01*
X20523565Y-4068931D01*
X20523565Y-4322931D02*
X20523565Y-4252220D01*
X20452854Y-4252220D01*
X20452854Y-4322931D01*
X20523565Y-4322931D01*
X20549584Y-11043073D02*
X20549584Y-10972362D01*
X20478873Y-10972362D01*
X20478873Y-11043073D01*
X20549584Y-11043073D01*
X20777565Y-4322931D02*
X20777565Y-4252219D01*
X20706854Y-4252219D01*
X20706854Y-4322931D01*
X20777565Y-4322931D01*
X20777566Y-4068931D02*
X20777566Y-3998219D01*
X20706855Y-3998219D01*
X20706855Y-4068931D01*
X20777566Y-4068931D01*
X22624405Y-4704012D02*
X22624405Y-4633301D01*
X22553693Y-4633301D01*
X22553693Y-4704012D01*
X22624405Y-4704012D01*
X22624406Y-4894512D02*
X22624406Y-4823800D01*
X22553694Y-4823800D01*
X22553694Y-4894512D01*
X22624406Y-4894512D01*
X22991905Y-4323012D02*
X22991905Y-4252301D01*
X22921193Y-4252301D01*
X22921193Y-4323012D01*
X22991905Y-4323012D01*
X22991905Y-4069012D02*
X22991905Y-3998300D01*
X22921194Y-3998300D01*
X22921194Y-4069012D01*
X22991905Y-4069012D01*
X23230886Y-11043155D02*
X23230886Y-10972444D01*
X23160175Y-10972444D01*
X23160175Y-11043155D01*
X23230886Y-11043155D01*
X23245905Y-4323012D02*
X23245905Y-4252301D01*
X23175193Y-4252301D01*
X23175193Y-4323012D01*
X23245905Y-4323012D01*
X23245906Y-4069012D02*
X23245906Y-3998301D01*
X23175195Y-3998301D01*
X23175195Y-4069012D01*
X23245906Y-4069012D01*
X23512794Y-10940549D02*
X23512794Y-10869838D01*
X23442083Y-10869838D01*
X23442083Y-10940549D01*
X23512794Y-10940549D01*
X24974405Y-5260862D02*
X24974405Y-5190151D01*
X24903694Y-5190151D01*
X24903694Y-5260862D01*
X24974405Y-5260862D01*
X24974406Y-8660862D02*
X24974406Y-8590151D01*
X24903694Y-8590151D01*
X24903694Y-8660862D01*
X24974406Y-8660862D01*
X24974406Y-6960863D02*
X24974406Y-6890151D01*
X24903695Y-6890151D01*
X24903695Y-6960863D01*
X24974406Y-6960863D01*
X25024104Y-10578760D02*
X25024104Y-10508048D01*
X24953393Y-10508048D01*
X24953393Y-10578760D01*
X25024104Y-10578760D01*
X25274405Y-5260862D02*
X25274405Y-5190151D01*
X25203694Y-5190151D01*
X25203694Y-5260862D01*
X25274405Y-5260862D01*
X25274406Y-8660862D02*
X25274406Y-8590150D01*
X25203694Y-8590150D01*
X25203694Y-8660862D01*
X25274406Y-8660862D01*
X25274406Y-6960863D02*
X25274406Y-6890151D01*
X25203695Y-6890151D01*
X25203695Y-6960863D01*
X25274406Y-6960863D01*
X25322963Y-10552613D02*
X25322963Y-10481902D01*
X25252251Y-10481902D01*
X25252251Y-10552613D01*
X25322963Y-10552613D01*
X26674405Y-6760862D02*
X26674405Y-6690150D01*
X26603694Y-6690150D01*
X26603694Y-6760862D01*
X26674405Y-6760862D01*
X26674406Y-8460862D02*
X26674406Y-8390150D01*
X26603694Y-8390150D01*
X26603694Y-8460862D01*
X26674406Y-8460862D01*
X26674406Y-5060862D02*
X26674406Y-4990151D01*
X26603695Y-4990151D01*
X26603695Y-5060862D01*
X26674406Y-5060862D01*
X26774406Y-10460863D02*
X26774406Y-10390151D01*
X26703694Y-10390151D01*
X26703694Y-10460863D01*
X26774406Y-10460863D01*
X26974406Y-6760862D02*
X26974406Y-6690150D01*
X26903694Y-6690150D01*
X26903694Y-6760862D01*
X26974406Y-6760862D01*
X26974406Y-8460862D02*
X26974406Y-8390150D01*
X26903695Y-8390150D01*
X26903695Y-8460862D01*
X26974406Y-8460862D01*
X26974406Y-5060862D02*
X26974406Y-4990151D01*
X26903695Y-4990151D01*
X26903695Y-5060862D01*
X26974406Y-5060862D01*
X27074406Y-10460863D02*
X27074406Y-10390151D01*
X27003695Y-10390151D01*
X27003695Y-10460863D01*
X27074406Y-10460863D01*
X28374406Y-4460863D02*
X28374406Y-4390151D01*
X28303694Y-4390151D01*
X28303694Y-4460863D01*
X28374406Y-4460863D01*
X28374406Y-7860862D02*
X28374406Y-7790151D01*
X28303694Y-7790151D01*
X28303694Y-7860862D01*
X28374406Y-7860862D01*
X28374406Y-6160863D02*
X28374406Y-6090152D01*
X28303695Y-6090152D01*
X28303695Y-6160863D01*
X28374406Y-6160863D01*
X28674406Y-4460863D02*
X28674406Y-4390151D01*
X28603694Y-4390151D01*
X28603694Y-4460863D01*
X28674406Y-4460863D01*
X28674406Y-7860862D02*
X28674406Y-7790151D01*
X28603694Y-7790151D01*
X28603694Y-7860862D01*
X28674406Y-7860862D01*
X28674407Y-6160863D02*
X28674407Y-6090152D01*
X28603695Y-6090152D01*
X28603695Y-6160863D01*
X28674407Y-6160863D01*
X30117022Y-8474097D02*
X30117022Y-8403386D01*
X30046311Y-8403386D01*
X30046311Y-8474097D01*
X30117022Y-8474097D01*
X30235609Y-6778238D02*
X30235609Y-6707527D01*
X30164897Y-6707527D01*
X30164897Y-6778238D01*
X30235609Y-6778238D01*
X30354195Y-5082380D02*
X30354195Y-5011669D01*
X30283483Y-5011669D01*
X30283483Y-5082380D01*
X30354195Y-5082380D01*
X30416291Y-8495024D02*
X30416291Y-8424313D01*
X30345580Y-8424313D01*
X30345580Y-8495024D01*
X30416291Y-8495024D01*
X30534878Y-6799165D02*
X30534878Y-6728454D01*
X30464166Y-6728454D01*
X30464166Y-6799165D01*
X30534878Y-6799165D01*
X30653464Y-5103307D02*
X30653464Y-5032596D01*
X30582752Y-5032596D01*
X30582752Y-5103307D01*
X30653464Y-5103307D01*
X31763422Y-9824393D02*
X31763422Y-9753682D01*
X31692711Y-9753682D01*
X31692711Y-9824393D01*
X31763422Y-9824393D01*
X31870426Y-4629599D02*
X31870426Y-4558887D01*
X31799715Y-4558887D01*
X31799715Y-4629599D01*
X31870426Y-4629599D01*
X32029361Y-8145323D02*
X32029361Y-8074612D01*
X31958650Y-8074612D01*
X31958650Y-8145323D01*
X32029361Y-8145323D01*
X32059729Y-9871324D02*
X32059729Y-9800612D01*
X31989018Y-9800612D01*
X31989018Y-9871324D01*
X32059729Y-9871324D01*
X32295299Y-6466252D02*
X32295299Y-6395541D01*
X32224587Y-6395541D01*
X32224587Y-6466252D01*
X32295299Y-6466252D01*
X32325668Y-8192254D02*
X32325668Y-8121542D01*
X32254957Y-8121542D01*
X32254957Y-8192254D01*
X32325668Y-8192254D01*
X32389540Y-5020777D02*
X32389540Y-4950065D01*
X32318829Y-4950065D01*
X32318829Y-5020777D01*
X32389540Y-5020777D01*
X32591606Y-6513182D02*
X32591606Y-6442471D01*
X32520894Y-6442471D01*
X32520894Y-6513182D01*
X32591606Y-6513182D01*
X33442492Y-10090332D02*
X33442492Y-10019620D01*
X33371781Y-10019620D01*
X33371781Y-10090332D01*
X33442492Y-10090332D01*
X33708430Y-8411261D02*
X33708430Y-8340550D01*
X33637719Y-8340550D01*
X33637719Y-8411261D01*
X33708430Y-8411261D01*
X33738799Y-10137262D02*
X33738799Y-10066551D01*
X33668088Y-10066551D01*
X33668088Y-10137262D01*
X33738799Y-10137262D01*
X33974369Y-6732191D02*
X33974369Y-6661480D01*
X33903658Y-6661480D01*
X33903658Y-6732191D01*
X33974369Y-6732191D01*
X34004737Y-8458191D02*
X34004737Y-8387480D01*
X33934026Y-8387480D01*
X33934026Y-8458191D01*
X34004737Y-8458191D01*
X34270676Y-6779121D02*
X34270676Y-6708410D01*
X34199965Y-6708410D01*
X34199965Y-6779121D01*
X34270676Y-6779121D01*
D13*
X13554500Y-9656000D02*
X13654500Y-9556000D01*
X13554500Y-9456000D01*
X13454500Y-9556000D01*
X13554500Y-9656000D01*
X14012970Y-3738869D02*
X14112970Y-3638869D01*
X14012970Y-3538869D01*
X13912970Y-3638869D01*
X14012970Y-3738869D01*
X15110341Y-9468778D02*
X15210341Y-9368778D01*
X15110341Y-9268778D01*
X15010341Y-9368778D01*
X15110341Y-9468778D01*
X21337000Y-9820000D02*
X21437000Y-9720000D01*
X21337000Y-9620000D01*
X21237000Y-9720000D01*
X21337000Y-9820000D01*
X22361000Y-9821000D02*
X22461000Y-9721000D01*
X22361000Y-9621000D01*
X22261000Y-9721000D01*
X22361000Y-9821000D01*
X28588160Y-9468612D02*
X28688160Y-9368612D01*
X28588160Y-9268612D01*
X28488160Y-9368612D01*
X28588160Y-9468612D01*
X29688761Y-3740384D02*
X29788761Y-3640384D01*
X29688761Y-3540384D01*
X29588761Y-3640384D01*
X29688761Y-3740384D01*
X30139000Y-9635000D02*
X30239000Y-9535000D01*
X30139000Y-9435000D01*
X30039000Y-9535000D01*
X30139000Y-9635000D01*
X8726939Y-12205564D02*
X8726939Y-12005564D01*
X8726939Y-12005564D02*
X8774558Y-12005564D01*
X8774558Y-12005564D02*
X8803129Y-12015088D01*
X8803129Y-12015088D02*
X8822177Y-12034135D01*
X8822177Y-12034135D02*
X8831701Y-12053183D01*
X8831701Y-12053183D02*
X8841225Y-12091278D01*
X8841225Y-12091278D02*
X8841225Y-12119850D01*
X8841225Y-12119850D02*
X8831701Y-12157945D01*
X8831701Y-12157945D02*
X8822177Y-12176992D01*
X8822177Y-12176992D02*
X8803129Y-12196040D01*
X8803129Y-12196040D02*
X8774558Y-12205564D01*
X8774558Y-12205564D02*
X8726939Y-12205564D01*
X8926939Y-12205564D02*
X8926939Y-12072230D01*
X8926939Y-12110326D02*
X8936463Y-12091278D01*
X8936463Y-12091278D02*
X8945987Y-12081754D01*
X8945987Y-12081754D02*
X8965034Y-12072230D01*
X8965034Y-12072230D02*
X8984082Y-12072230D01*
X9050748Y-12205564D02*
X9050748Y-12072230D01*
X9050748Y-12005564D02*
X9041225Y-12015088D01*
X9041225Y-12015088D02*
X9050748Y-12024611D01*
X9050748Y-12024611D02*
X9060272Y-12015088D01*
X9060272Y-12015088D02*
X9050748Y-12005564D01*
X9050748Y-12005564D02*
X9050748Y-12024611D01*
X9174558Y-12205564D02*
X9155510Y-12196040D01*
X9155510Y-12196040D02*
X9145987Y-12176992D01*
X9145987Y-12176992D02*
X9145987Y-12005564D01*
X9279320Y-12205564D02*
X9260272Y-12196040D01*
X9260272Y-12196040D02*
X9250748Y-12176992D01*
X9250748Y-12176992D02*
X9250748Y-12005564D01*
X9507891Y-12205564D02*
X9507891Y-12005564D01*
X9507891Y-12005564D02*
X9574558Y-12148421D01*
X9574558Y-12148421D02*
X9641225Y-12005564D01*
X9641225Y-12005564D02*
X9641225Y-12205564D01*
X9822177Y-12205564D02*
X9822177Y-12100802D01*
X9822177Y-12100802D02*
X9812653Y-12081754D01*
X9812653Y-12081754D02*
X9793606Y-12072230D01*
X9793606Y-12072230D02*
X9755510Y-12072230D01*
X9755510Y-12072230D02*
X9736463Y-12081754D01*
X9822177Y-12196040D02*
X9803129Y-12205564D01*
X9803129Y-12205564D02*
X9755510Y-12205564D01*
X9755510Y-12205564D02*
X9736463Y-12196040D01*
X9736463Y-12196040D02*
X9726939Y-12176992D01*
X9726939Y-12176992D02*
X9726939Y-12157945D01*
X9726939Y-12157945D02*
X9736463Y-12138897D01*
X9736463Y-12138897D02*
X9755510Y-12129373D01*
X9755510Y-12129373D02*
X9803129Y-12129373D01*
X9803129Y-12129373D02*
X9822177Y-12119850D01*
X9917415Y-12072230D02*
X9917415Y-12272230D01*
X9917415Y-12081754D02*
X9936463Y-12072230D01*
X9936463Y-12072230D02*
X9974558Y-12072230D01*
X9974558Y-12072230D02*
X9993606Y-12081754D01*
X9993606Y-12081754D02*
X10003129Y-12091278D01*
X10003129Y-12091278D02*
X10012653Y-12110326D01*
X10012653Y-12110326D02*
X10012653Y-12167469D01*
X10012653Y-12167469D02*
X10003129Y-12186516D01*
X10003129Y-12186516D02*
X9993606Y-12196040D01*
X9993606Y-12196040D02*
X9974558Y-12205564D01*
X9974558Y-12205564D02*
X9936463Y-12205564D01*
X9936463Y-12205564D02*
X9917415Y-12196040D01*
X10098368Y-12186516D02*
X10107891Y-12196040D01*
X10107891Y-12196040D02*
X10098368Y-12205564D01*
X10098368Y-12205564D02*
X10088844Y-12196040D01*
X10088844Y-12196040D02*
X10098368Y-12186516D01*
X10098368Y-12186516D02*
X10098368Y-12205564D01*
X10098368Y-12081754D02*
X10107891Y-12091278D01*
X10107891Y-12091278D02*
X10098368Y-12100802D01*
X10098368Y-12100802D02*
X10088844Y-12091278D01*
X10088844Y-12091278D02*
X10098368Y-12081754D01*
X10098368Y-12081754D02*
X10098368Y-12100802D01*
D12*
X8436162Y-12519080D02*
X8466162Y-12549080D01*
X8466162Y-12519080D02*
X8436162Y-12549080D01*
D13*
X8765034Y-12425564D02*
X8784082Y-12425564D01*
X8784082Y-12425564D02*
X8803129Y-12435088D01*
X8803129Y-12435088D02*
X8812653Y-12444611D01*
X8812653Y-12444611D02*
X8822177Y-12463659D01*
X8822177Y-12463659D02*
X8831701Y-12501754D01*
X8831701Y-12501754D02*
X8831701Y-12549373D01*
X8831701Y-12549373D02*
X8822177Y-12587469D01*
X8822177Y-12587469D02*
X8812653Y-12606516D01*
X8812653Y-12606516D02*
X8803129Y-12616040D01*
X8803129Y-12616040D02*
X8784082Y-12625564D01*
X8784082Y-12625564D02*
X8765034Y-12625564D01*
X8765034Y-12625564D02*
X8745987Y-12616040D01*
X8745987Y-12616040D02*
X8736463Y-12606516D01*
X8736463Y-12606516D02*
X8726939Y-12587469D01*
X8726939Y-12587469D02*
X8717415Y-12549373D01*
X8717415Y-12549373D02*
X8717415Y-12501754D01*
X8717415Y-12501754D02*
X8726939Y-12463659D01*
X8726939Y-12463659D02*
X8736463Y-12444611D01*
X8736463Y-12444611D02*
X8745987Y-12435088D01*
X8745987Y-12435088D02*
X8765034Y-12425564D01*
X8917415Y-12606516D02*
X8926939Y-12616040D01*
X8926939Y-12616040D02*
X8917415Y-12625564D01*
X8917415Y-12625564D02*
X8907891Y-12616040D01*
X8907891Y-12616040D02*
X8917415Y-12606516D01*
X8917415Y-12606516D02*
X8917415Y-12625564D01*
X8993606Y-12425564D02*
X9117415Y-12425564D01*
X9117415Y-12425564D02*
X9050748Y-12501754D01*
X9050748Y-12501754D02*
X9079320Y-12501754D01*
X9079320Y-12501754D02*
X9098368Y-12511278D01*
X9098368Y-12511278D02*
X9107891Y-12520802D01*
X9107891Y-12520802D02*
X9117415Y-12539850D01*
X9117415Y-12539850D02*
X9117415Y-12587469D01*
X9117415Y-12587469D02*
X9107891Y-12606516D01*
X9107891Y-12606516D02*
X9098368Y-12616040D01*
X9098368Y-12616040D02*
X9079320Y-12625564D01*
X9079320Y-12625564D02*
X9022177Y-12625564D01*
X9022177Y-12625564D02*
X9003129Y-12616040D01*
X9003129Y-12616040D02*
X8993606Y-12606516D01*
X9241225Y-12425564D02*
X9260272Y-12425564D01*
X9260272Y-12425564D02*
X9279320Y-12435088D01*
X9279320Y-12435088D02*
X9288844Y-12444611D01*
X9288844Y-12444611D02*
X9298368Y-12463659D01*
X9298368Y-12463659D02*
X9307891Y-12501754D01*
X9307891Y-12501754D02*
X9307891Y-12549373D01*
X9307891Y-12549373D02*
X9298368Y-12587469D01*
X9298368Y-12587469D02*
X9288844Y-12606516D01*
X9288844Y-12606516D02*
X9279320Y-12616040D01*
X9279320Y-12616040D02*
X9260272Y-12625564D01*
X9260272Y-12625564D02*
X9241225Y-12625564D01*
X9241225Y-12625564D02*
X9222177Y-12616040D01*
X9222177Y-12616040D02*
X9212653Y-12606516D01*
X9212653Y-12606516D02*
X9203129Y-12587469D01*
X9203129Y-12587469D02*
X9193606Y-12549373D01*
X9193606Y-12549373D02*
X9193606Y-12501754D01*
X9193606Y-12501754D02*
X9203129Y-12463659D01*
X9203129Y-12463659D02*
X9212653Y-12444611D01*
X9212653Y-12444611D02*
X9222177Y-12435088D01*
X9222177Y-12435088D02*
X9241225Y-12425564D01*
X9431701Y-12425564D02*
X9450749Y-12425564D01*
X9450749Y-12425564D02*
X9469796Y-12435088D01*
X9469796Y-12435088D02*
X9479320Y-12444611D01*
X9479320Y-12444611D02*
X9488844Y-12463659D01*
X9488844Y-12463659D02*
X9498368Y-12501754D01*
X9498368Y-12501754D02*
X9498368Y-12549373D01*
X9498368Y-12549373D02*
X9488844Y-12587469D01*
X9488844Y-12587469D02*
X9479320Y-12606516D01*
X9479320Y-12606516D02*
X9469796Y-12616040D01*
X9469796Y-12616040D02*
X9450749Y-12625564D01*
X9450749Y-12625564D02*
X9431701Y-12625564D01*
X9431701Y-12625564D02*
X9412653Y-12616040D01*
X9412653Y-12616040D02*
X9403129Y-12606516D01*
X9403129Y-12606516D02*
X9393606Y-12587469D01*
X9393606Y-12587469D02*
X9384082Y-12549373D01*
X9384082Y-12549373D02*
X9384082Y-12501754D01*
X9384082Y-12501754D02*
X9393606Y-12463659D01*
X9393606Y-12463659D02*
X9403129Y-12444611D01*
X9403129Y-12444611D02*
X9412653Y-12435088D01*
X9412653Y-12435088D02*
X9431701Y-12425564D01*
X9584082Y-12625564D02*
X9584082Y-12492230D01*
X9584082Y-12511278D02*
X9593606Y-12501754D01*
X9593606Y-12501754D02*
X9612653Y-12492230D01*
X9612653Y-12492230D02*
X9641225Y-12492230D01*
X9641225Y-12492230D02*
X9660272Y-12501754D01*
X9660272Y-12501754D02*
X9669796Y-12520802D01*
X9669796Y-12520802D02*
X9669796Y-12625564D01*
X9669796Y-12520802D02*
X9679320Y-12501754D01*
X9679320Y-12501754D02*
X9698368Y-12492230D01*
X9698368Y-12492230D02*
X9726939Y-12492230D01*
X9726939Y-12492230D02*
X9745987Y-12501754D01*
X9745987Y-12501754D02*
X9755510Y-12520802D01*
X9755510Y-12520802D02*
X9755510Y-12625564D01*
X9850749Y-12625564D02*
X9850749Y-12492230D01*
X9850749Y-12511278D02*
X9860272Y-12501754D01*
X9860272Y-12501754D02*
X9879320Y-12492230D01*
X9879320Y-12492230D02*
X9907891Y-12492230D01*
X9907891Y-12492230D02*
X9926939Y-12501754D01*
X9926939Y-12501754D02*
X9936463Y-12520802D01*
X9936463Y-12520802D02*
X9936463Y-12625564D01*
X9936463Y-12520802D02*
X9945987Y-12501754D01*
X9945987Y-12501754D02*
X9965034Y-12492230D01*
X9965034Y-12492230D02*
X9993606Y-12492230D01*
X9993606Y-12492230D02*
X10012653Y-12501754D01*
X10012653Y-12501754D02*
X10022177Y-12520802D01*
X10022177Y-12520802D02*
X10022177Y-12625564D01*
X10412653Y-12416040D02*
X10241225Y-12673183D01*
X10669796Y-12425564D02*
X10688844Y-12425564D01*
X10688844Y-12425564D02*
X10707892Y-12435088D01*
X10707892Y-12435088D02*
X10717415Y-12444611D01*
X10717415Y-12444611D02*
X10726939Y-12463659D01*
X10726939Y-12463659D02*
X10736463Y-12501754D01*
X10736463Y-12501754D02*
X10736463Y-12549373D01*
X10736463Y-12549373D02*
X10726939Y-12587469D01*
X10726939Y-12587469D02*
X10717415Y-12606516D01*
X10717415Y-12606516D02*
X10707892Y-12616040D01*
X10707892Y-12616040D02*
X10688844Y-12625564D01*
X10688844Y-12625564D02*
X10669796Y-12625564D01*
X10669796Y-12625564D02*
X10650749Y-12616040D01*
X10650749Y-12616040D02*
X10641225Y-12606516D01*
X10641225Y-12606516D02*
X10631701Y-12587469D01*
X10631701Y-12587469D02*
X10622177Y-12549373D01*
X10622177Y-12549373D02*
X10622177Y-12501754D01*
X10622177Y-12501754D02*
X10631701Y-12463659D01*
X10631701Y-12463659D02*
X10641225Y-12444611D01*
X10641225Y-12444611D02*
X10650749Y-12435088D01*
X10650749Y-12435088D02*
X10669796Y-12425564D01*
X10822177Y-12606516D02*
X10831701Y-12616040D01*
X10831701Y-12616040D02*
X10822177Y-12625564D01*
X10822177Y-12625564D02*
X10812653Y-12616040D01*
X10812653Y-12616040D02*
X10822177Y-12606516D01*
X10822177Y-12606516D02*
X10822177Y-12625564D01*
X10955511Y-12425564D02*
X10974558Y-12425564D01*
X10974558Y-12425564D02*
X10993606Y-12435088D01*
X10993606Y-12435088D02*
X11003130Y-12444611D01*
X11003130Y-12444611D02*
X11012653Y-12463659D01*
X11012653Y-12463659D02*
X11022177Y-12501754D01*
X11022177Y-12501754D02*
X11022177Y-12549373D01*
X11022177Y-12549373D02*
X11012653Y-12587469D01*
X11012653Y-12587469D02*
X11003130Y-12606516D01*
X11003130Y-12606516D02*
X10993606Y-12616040D01*
X10993606Y-12616040D02*
X10974558Y-12625564D01*
X10974558Y-12625564D02*
X10955511Y-12625564D01*
X10955511Y-12625564D02*
X10936463Y-12616040D01*
X10936463Y-12616040D02*
X10926939Y-12606516D01*
X10926939Y-12606516D02*
X10917415Y-12587469D01*
X10917415Y-12587469D02*
X10907892Y-12549373D01*
X10907892Y-12549373D02*
X10907892Y-12501754D01*
X10907892Y-12501754D02*
X10917415Y-12463659D01*
X10917415Y-12463659D02*
X10926939Y-12444611D01*
X10926939Y-12444611D02*
X10936463Y-12435088D01*
X10936463Y-12435088D02*
X10955511Y-12425564D01*
X11212653Y-12625564D02*
X11098368Y-12625564D01*
X11155511Y-12625564D02*
X11155511Y-12425564D01*
X11155511Y-12425564D02*
X11136463Y-12454135D01*
X11136463Y-12454135D02*
X11117415Y-12473183D01*
X11117415Y-12473183D02*
X11098368Y-12482707D01*
X11403130Y-12625564D02*
X11288844Y-12625564D01*
X11345987Y-12625564D02*
X11345987Y-12425564D01*
X11345987Y-12425564D02*
X11326939Y-12454135D01*
X11326939Y-12454135D02*
X11307891Y-12473183D01*
X11307891Y-12473183D02*
X11288844Y-12482707D01*
X11517415Y-12511278D02*
X11498368Y-12501754D01*
X11498368Y-12501754D02*
X11488844Y-12492230D01*
X11488844Y-12492230D02*
X11479320Y-12473183D01*
X11479320Y-12473183D02*
X11479320Y-12463659D01*
X11479320Y-12463659D02*
X11488844Y-12444611D01*
X11488844Y-12444611D02*
X11498368Y-12435088D01*
X11498368Y-12435088D02*
X11517415Y-12425564D01*
X11517415Y-12425564D02*
X11555511Y-12425564D01*
X11555511Y-12425564D02*
X11574558Y-12435088D01*
X11574558Y-12435088D02*
X11584082Y-12444611D01*
X11584082Y-12444611D02*
X11593606Y-12463659D01*
X11593606Y-12463659D02*
X11593606Y-12473183D01*
X11593606Y-12473183D02*
X11584082Y-12492230D01*
X11584082Y-12492230D02*
X11574558Y-12501754D01*
X11574558Y-12501754D02*
X11555511Y-12511278D01*
X11555511Y-12511278D02*
X11517415Y-12511278D01*
X11517415Y-12511278D02*
X11498368Y-12520802D01*
X11498368Y-12520802D02*
X11488844Y-12530326D01*
X11488844Y-12530326D02*
X11479320Y-12549373D01*
X11479320Y-12549373D02*
X11479320Y-12587469D01*
X11479320Y-12587469D02*
X11488844Y-12606516D01*
X11488844Y-12606516D02*
X11498368Y-12616040D01*
X11498368Y-12616040D02*
X11517415Y-12625564D01*
X11517415Y-12625564D02*
X11555511Y-12625564D01*
X11555511Y-12625564D02*
X11574558Y-12616040D01*
X11574558Y-12616040D02*
X11584082Y-12606516D01*
X11584082Y-12606516D02*
X11593606Y-12587469D01*
X11593606Y-12587469D02*
X11593606Y-12549373D01*
X11593606Y-12549373D02*
X11584082Y-12530326D01*
X11584082Y-12530326D02*
X11574558Y-12520802D01*
X11574558Y-12520802D02*
X11555511Y-12511278D01*
X11669796Y-12425564D02*
X11669796Y-12463659D01*
X11745987Y-12425564D02*
X11745987Y-12463659D01*
X12041225Y-12701754D02*
X12031701Y-12692230D01*
X12031701Y-12692230D02*
X12012653Y-12663659D01*
X12012653Y-12663659D02*
X12003130Y-12644611D01*
X12003130Y-12644611D02*
X11993606Y-12616040D01*
X11993606Y-12616040D02*
X11984082Y-12568421D01*
X11984082Y-12568421D02*
X11984082Y-12530326D01*
X11984082Y-12530326D02*
X11993606Y-12482707D01*
X11993606Y-12482707D02*
X12003130Y-12454135D01*
X12003130Y-12454135D02*
X12012653Y-12435088D01*
X12012653Y-12435088D02*
X12031701Y-12406516D01*
X12031701Y-12406516D02*
X12041225Y-12396992D01*
X12145987Y-12511278D02*
X12126939Y-12501754D01*
X12126939Y-12501754D02*
X12117415Y-12492230D01*
X12117415Y-12492230D02*
X12107892Y-12473183D01*
X12107892Y-12473183D02*
X12107892Y-12463659D01*
X12107892Y-12463659D02*
X12117415Y-12444611D01*
X12117415Y-12444611D02*
X12126939Y-12435088D01*
X12126939Y-12435088D02*
X12145987Y-12425564D01*
X12145987Y-12425564D02*
X12184082Y-12425564D01*
X12184082Y-12425564D02*
X12203130Y-12435088D01*
X12203130Y-12435088D02*
X12212653Y-12444611D01*
X12212653Y-12444611D02*
X12222177Y-12463659D01*
X12222177Y-12463659D02*
X12222177Y-12473183D01*
X12222177Y-12473183D02*
X12212653Y-12492230D01*
X12212653Y-12492230D02*
X12203130Y-12501754D01*
X12203130Y-12501754D02*
X12184082Y-12511278D01*
X12184082Y-12511278D02*
X12145987Y-12511278D01*
X12145987Y-12511278D02*
X12126939Y-12520802D01*
X12126939Y-12520802D02*
X12117415Y-12530326D01*
X12117415Y-12530326D02*
X12107892Y-12549373D01*
X12107892Y-12549373D02*
X12107892Y-12587469D01*
X12107892Y-12587469D02*
X12117415Y-12606516D01*
X12117415Y-12606516D02*
X12126939Y-12616040D01*
X12126939Y-12616040D02*
X12145987Y-12625564D01*
X12145987Y-12625564D02*
X12184082Y-12625564D01*
X12184082Y-12625564D02*
X12203130Y-12616040D01*
X12203130Y-12616040D02*
X12212653Y-12606516D01*
X12212653Y-12606516D02*
X12222177Y-12587469D01*
X12222177Y-12587469D02*
X12222177Y-12549373D01*
X12222177Y-12549373D02*
X12212653Y-12530326D01*
X12212653Y-12530326D02*
X12203130Y-12520802D01*
X12203130Y-12520802D02*
X12184082Y-12511278D01*
X12317415Y-12625564D02*
X12355511Y-12625564D01*
X12355511Y-12625564D02*
X12374558Y-12616040D01*
X12374558Y-12616040D02*
X12384082Y-12606516D01*
X12384082Y-12606516D02*
X12403130Y-12577945D01*
X12403130Y-12577945D02*
X12412653Y-12539850D01*
X12412653Y-12539850D02*
X12412653Y-12463659D01*
X12412653Y-12463659D02*
X12403130Y-12444611D01*
X12403130Y-12444611D02*
X12393606Y-12435088D01*
X12393606Y-12435088D02*
X12374558Y-12425564D01*
X12374558Y-12425564D02*
X12336463Y-12425564D01*
X12336463Y-12425564D02*
X12317415Y-12435088D01*
X12317415Y-12435088D02*
X12307892Y-12444611D01*
X12307892Y-12444611D02*
X12298368Y-12463659D01*
X12298368Y-12463659D02*
X12298368Y-12511278D01*
X12298368Y-12511278D02*
X12307892Y-12530326D01*
X12307892Y-12530326D02*
X12317415Y-12539850D01*
X12317415Y-12539850D02*
X12336463Y-12549373D01*
X12336463Y-12549373D02*
X12374558Y-12549373D01*
X12374558Y-12549373D02*
X12393606Y-12539850D01*
X12393606Y-12539850D02*
X12403130Y-12530326D01*
X12403130Y-12530326D02*
X12412653Y-12511278D01*
X12650749Y-12625564D02*
X12650749Y-12425564D01*
X12736463Y-12625564D02*
X12736463Y-12520802D01*
X12736463Y-12520802D02*
X12726939Y-12501754D01*
X12726939Y-12501754D02*
X12707892Y-12492230D01*
X12707892Y-12492230D02*
X12679320Y-12492230D01*
X12679320Y-12492230D02*
X12660273Y-12501754D01*
X12660273Y-12501754D02*
X12650749Y-12511278D01*
X12860273Y-12625564D02*
X12841225Y-12616040D01*
X12841225Y-12616040D02*
X12831701Y-12606516D01*
X12831701Y-12606516D02*
X12822177Y-12587469D01*
X12822177Y-12587469D02*
X12822177Y-12530326D01*
X12822177Y-12530326D02*
X12831701Y-12511278D01*
X12831701Y-12511278D02*
X12841225Y-12501754D01*
X12841225Y-12501754D02*
X12860273Y-12492230D01*
X12860273Y-12492230D02*
X12888844Y-12492230D01*
X12888844Y-12492230D02*
X12907892Y-12501754D01*
X12907892Y-12501754D02*
X12917415Y-12511278D01*
X12917415Y-12511278D02*
X12926939Y-12530326D01*
X12926939Y-12530326D02*
X12926939Y-12587469D01*
X12926939Y-12587469D02*
X12917415Y-12606516D01*
X12917415Y-12606516D02*
X12907892Y-12616040D01*
X12907892Y-12616040D02*
X12888844Y-12625564D01*
X12888844Y-12625564D02*
X12860273Y-12625564D01*
X13041225Y-12625564D02*
X13022177Y-12616040D01*
X13022177Y-12616040D02*
X13012654Y-12596992D01*
X13012654Y-12596992D02*
X13012654Y-12425564D01*
X13193606Y-12616040D02*
X13174558Y-12625564D01*
X13174558Y-12625564D02*
X13136463Y-12625564D01*
X13136463Y-12625564D02*
X13117415Y-12616040D01*
X13117415Y-12616040D02*
X13107892Y-12596992D01*
X13107892Y-12596992D02*
X13107892Y-12520802D01*
X13107892Y-12520802D02*
X13117415Y-12501754D01*
X13117415Y-12501754D02*
X13136463Y-12492230D01*
X13136463Y-12492230D02*
X13174558Y-12492230D01*
X13174558Y-12492230D02*
X13193606Y-12501754D01*
X13193606Y-12501754D02*
X13203130Y-12520802D01*
X13203130Y-12520802D02*
X13203130Y-12539850D01*
X13203130Y-12539850D02*
X13107892Y-12558897D01*
X13279320Y-12616040D02*
X13298368Y-12625564D01*
X13298368Y-12625564D02*
X13336463Y-12625564D01*
X13336463Y-12625564D02*
X13355511Y-12616040D01*
X13355511Y-12616040D02*
X13365035Y-12596992D01*
X13365035Y-12596992D02*
X13365035Y-12587469D01*
X13365035Y-12587469D02*
X13355511Y-12568421D01*
X13355511Y-12568421D02*
X13336463Y-12558897D01*
X13336463Y-12558897D02*
X13307892Y-12558897D01*
X13307892Y-12558897D02*
X13288844Y-12549373D01*
X13288844Y-12549373D02*
X13279320Y-12530326D01*
X13279320Y-12530326D02*
X13279320Y-12520802D01*
X13279320Y-12520802D02*
X13288844Y-12501754D01*
X13288844Y-12501754D02*
X13307892Y-12492230D01*
X13307892Y-12492230D02*
X13336463Y-12492230D01*
X13336463Y-12492230D02*
X13355511Y-12501754D01*
X13431701Y-12701754D02*
X13441225Y-12692230D01*
X13441225Y-12692230D02*
X13460273Y-12663659D01*
X13460273Y-12663659D02*
X13469796Y-12644611D01*
X13469796Y-12644611D02*
X13479320Y-12616040D01*
X13479320Y-12616040D02*
X13488844Y-12568421D01*
X13488844Y-12568421D02*
X13488844Y-12530326D01*
X13488844Y-12530326D02*
X13479320Y-12482707D01*
X13479320Y-12482707D02*
X13469796Y-12454135D01*
X13469796Y-12454135D02*
X13460273Y-12435088D01*
X13460273Y-12435088D02*
X13441225Y-12406516D01*
X13441225Y-12406516D02*
X13431701Y-12396992D01*
D12*
X8466162Y-12798080D02*
G75*
G02*
X8391162Y-12798080I-37500J0D01*
G01*
X8391162Y-12798080D02*
G75*
G02*
X8466162Y-12798080I37500J0D01*
G01*
D13*
X8765034Y-12689564D02*
X8784082Y-12689564D01*
X8784082Y-12689564D02*
X8803129Y-12699088D01*
X8803129Y-12699088D02*
X8812653Y-12708611D01*
X8812653Y-12708611D02*
X8822177Y-12727659D01*
X8822177Y-12727659D02*
X8831701Y-12765754D01*
X8831701Y-12765754D02*
X8831701Y-12813373D01*
X8831701Y-12813373D02*
X8822177Y-12851469D01*
X8822177Y-12851469D02*
X8812653Y-12870516D01*
X8812653Y-12870516D02*
X8803129Y-12880040D01*
X8803129Y-12880040D02*
X8784082Y-12889564D01*
X8784082Y-12889564D02*
X8765034Y-12889564D01*
X8765034Y-12889564D02*
X8745987Y-12880040D01*
X8745987Y-12880040D02*
X8736463Y-12870516D01*
X8736463Y-12870516D02*
X8726939Y-12851469D01*
X8726939Y-12851469D02*
X8717415Y-12813373D01*
X8717415Y-12813373D02*
X8717415Y-12765754D01*
X8717415Y-12765754D02*
X8726939Y-12727659D01*
X8726939Y-12727659D02*
X8736463Y-12708611D01*
X8736463Y-12708611D02*
X8745987Y-12699088D01*
X8745987Y-12699088D02*
X8765034Y-12689564D01*
X8917415Y-12870516D02*
X8926939Y-12880040D01*
X8926939Y-12880040D02*
X8917415Y-12889564D01*
X8917415Y-12889564D02*
X8907891Y-12880040D01*
X8907891Y-12880040D02*
X8917415Y-12870516D01*
X8917415Y-12870516D02*
X8917415Y-12889564D01*
X8993606Y-12689564D02*
X9126939Y-12689564D01*
X9126939Y-12689564D02*
X9041225Y-12889564D01*
X9298368Y-12689564D02*
X9203129Y-12689564D01*
X9203129Y-12689564D02*
X9193606Y-12784802D01*
X9193606Y-12784802D02*
X9203129Y-12775278D01*
X9203129Y-12775278D02*
X9222177Y-12765754D01*
X9222177Y-12765754D02*
X9269796Y-12765754D01*
X9269796Y-12765754D02*
X9288844Y-12775278D01*
X9288844Y-12775278D02*
X9298368Y-12784802D01*
X9298368Y-12784802D02*
X9307891Y-12803850D01*
X9307891Y-12803850D02*
X9307891Y-12851469D01*
X9307891Y-12851469D02*
X9298368Y-12870516D01*
X9298368Y-12870516D02*
X9288844Y-12880040D01*
X9288844Y-12880040D02*
X9269796Y-12889564D01*
X9269796Y-12889564D02*
X9222177Y-12889564D01*
X9222177Y-12889564D02*
X9203129Y-12880040D01*
X9203129Y-12880040D02*
X9193606Y-12870516D01*
X9431701Y-12689564D02*
X9450749Y-12689564D01*
X9450749Y-12689564D02*
X9469796Y-12699088D01*
X9469796Y-12699088D02*
X9479320Y-12708611D01*
X9479320Y-12708611D02*
X9488844Y-12727659D01*
X9488844Y-12727659D02*
X9498368Y-12765754D01*
X9498368Y-12765754D02*
X9498368Y-12813373D01*
X9498368Y-12813373D02*
X9488844Y-12851469D01*
X9488844Y-12851469D02*
X9479320Y-12870516D01*
X9479320Y-12870516D02*
X9469796Y-12880040D01*
X9469796Y-12880040D02*
X9450749Y-12889564D01*
X9450749Y-12889564D02*
X9431701Y-12889564D01*
X9431701Y-12889564D02*
X9412653Y-12880040D01*
X9412653Y-12880040D02*
X9403129Y-12870516D01*
X9403129Y-12870516D02*
X9393606Y-12851469D01*
X9393606Y-12851469D02*
X9384082Y-12813373D01*
X9384082Y-12813373D02*
X9384082Y-12765754D01*
X9384082Y-12765754D02*
X9393606Y-12727659D01*
X9393606Y-12727659D02*
X9403129Y-12708611D01*
X9403129Y-12708611D02*
X9412653Y-12699088D01*
X9412653Y-12699088D02*
X9431701Y-12689564D01*
X9584082Y-12889564D02*
X9584082Y-12756230D01*
X9584082Y-12775278D02*
X9593606Y-12765754D01*
X9593606Y-12765754D02*
X9612653Y-12756230D01*
X9612653Y-12756230D02*
X9641225Y-12756230D01*
X9641225Y-12756230D02*
X9660272Y-12765754D01*
X9660272Y-12765754D02*
X9669796Y-12784802D01*
X9669796Y-12784802D02*
X9669796Y-12889564D01*
X9669796Y-12784802D02*
X9679320Y-12765754D01*
X9679320Y-12765754D02*
X9698368Y-12756230D01*
X9698368Y-12756230D02*
X9726939Y-12756230D01*
X9726939Y-12756230D02*
X9745987Y-12765754D01*
X9745987Y-12765754D02*
X9755510Y-12784802D01*
X9755510Y-12784802D02*
X9755510Y-12889564D01*
X9850749Y-12889564D02*
X9850749Y-12756230D01*
X9850749Y-12775278D02*
X9860272Y-12765754D01*
X9860272Y-12765754D02*
X9879320Y-12756230D01*
X9879320Y-12756230D02*
X9907891Y-12756230D01*
X9907891Y-12756230D02*
X9926939Y-12765754D01*
X9926939Y-12765754D02*
X9936463Y-12784802D01*
X9936463Y-12784802D02*
X9936463Y-12889564D01*
X9936463Y-12784802D02*
X9945987Y-12765754D01*
X9945987Y-12765754D02*
X9965034Y-12756230D01*
X9965034Y-12756230D02*
X9993606Y-12756230D01*
X9993606Y-12756230D02*
X10012653Y-12765754D01*
X10012653Y-12765754D02*
X10022177Y-12784802D01*
X10022177Y-12784802D02*
X10022177Y-12889564D01*
X10412653Y-12680040D02*
X10241225Y-12937183D01*
X10669796Y-12689564D02*
X10688844Y-12689564D01*
X10688844Y-12689564D02*
X10707892Y-12699088D01*
X10707892Y-12699088D02*
X10717415Y-12708611D01*
X10717415Y-12708611D02*
X10726939Y-12727659D01*
X10726939Y-12727659D02*
X10736463Y-12765754D01*
X10736463Y-12765754D02*
X10736463Y-12813373D01*
X10736463Y-12813373D02*
X10726939Y-12851469D01*
X10726939Y-12851469D02*
X10717415Y-12870516D01*
X10717415Y-12870516D02*
X10707892Y-12880040D01*
X10707892Y-12880040D02*
X10688844Y-12889564D01*
X10688844Y-12889564D02*
X10669796Y-12889564D01*
X10669796Y-12889564D02*
X10650749Y-12880040D01*
X10650749Y-12880040D02*
X10641225Y-12870516D01*
X10641225Y-12870516D02*
X10631701Y-12851469D01*
X10631701Y-12851469D02*
X10622177Y-12813373D01*
X10622177Y-12813373D02*
X10622177Y-12765754D01*
X10622177Y-12765754D02*
X10631701Y-12727659D01*
X10631701Y-12727659D02*
X10641225Y-12708611D01*
X10641225Y-12708611D02*
X10650749Y-12699088D01*
X10650749Y-12699088D02*
X10669796Y-12689564D01*
X10822177Y-12870516D02*
X10831701Y-12880040D01*
X10831701Y-12880040D02*
X10822177Y-12889564D01*
X10822177Y-12889564D02*
X10812653Y-12880040D01*
X10812653Y-12880040D02*
X10822177Y-12870516D01*
X10822177Y-12870516D02*
X10822177Y-12889564D01*
X10955511Y-12689564D02*
X10974558Y-12689564D01*
X10974558Y-12689564D02*
X10993606Y-12699088D01*
X10993606Y-12699088D02*
X11003130Y-12708611D01*
X11003130Y-12708611D02*
X11012653Y-12727659D01*
X11012653Y-12727659D02*
X11022177Y-12765754D01*
X11022177Y-12765754D02*
X11022177Y-12813373D01*
X11022177Y-12813373D02*
X11012653Y-12851469D01*
X11012653Y-12851469D02*
X11003130Y-12870516D01*
X11003130Y-12870516D02*
X10993606Y-12880040D01*
X10993606Y-12880040D02*
X10974558Y-12889564D01*
X10974558Y-12889564D02*
X10955511Y-12889564D01*
X10955511Y-12889564D02*
X10936463Y-12880040D01*
X10936463Y-12880040D02*
X10926939Y-12870516D01*
X10926939Y-12870516D02*
X10917415Y-12851469D01*
X10917415Y-12851469D02*
X10907892Y-12813373D01*
X10907892Y-12813373D02*
X10907892Y-12765754D01*
X10907892Y-12765754D02*
X10917415Y-12727659D01*
X10917415Y-12727659D02*
X10926939Y-12708611D01*
X10926939Y-12708611D02*
X10936463Y-12699088D01*
X10936463Y-12699088D02*
X10955511Y-12689564D01*
X11098368Y-12708611D02*
X11107892Y-12699088D01*
X11107892Y-12699088D02*
X11126939Y-12689564D01*
X11126939Y-12689564D02*
X11174558Y-12689564D01*
X11174558Y-12689564D02*
X11193606Y-12699088D01*
X11193606Y-12699088D02*
X11203130Y-12708611D01*
X11203130Y-12708611D02*
X11212653Y-12727659D01*
X11212653Y-12727659D02*
X11212653Y-12746707D01*
X11212653Y-12746707D02*
X11203130Y-12775278D01*
X11203130Y-12775278D02*
X11088844Y-12889564D01*
X11088844Y-12889564D02*
X11212653Y-12889564D01*
X11307891Y-12889564D02*
X11345987Y-12889564D01*
X11345987Y-12889564D02*
X11365034Y-12880040D01*
X11365034Y-12880040D02*
X11374558Y-12870516D01*
X11374558Y-12870516D02*
X11393606Y-12841945D01*
X11393606Y-12841945D02*
X11403130Y-12803850D01*
X11403130Y-12803850D02*
X11403130Y-12727659D01*
X11403130Y-12727659D02*
X11393606Y-12708611D01*
X11393606Y-12708611D02*
X11384082Y-12699088D01*
X11384082Y-12699088D02*
X11365034Y-12689564D01*
X11365034Y-12689564D02*
X11326939Y-12689564D01*
X11326939Y-12689564D02*
X11307891Y-12699088D01*
X11307891Y-12699088D02*
X11298368Y-12708611D01*
X11298368Y-12708611D02*
X11288844Y-12727659D01*
X11288844Y-12727659D02*
X11288844Y-12775278D01*
X11288844Y-12775278D02*
X11298368Y-12794326D01*
X11298368Y-12794326D02*
X11307891Y-12803850D01*
X11307891Y-12803850D02*
X11326939Y-12813373D01*
X11326939Y-12813373D02*
X11365034Y-12813373D01*
X11365034Y-12813373D02*
X11384082Y-12803850D01*
X11384082Y-12803850D02*
X11393606Y-12794326D01*
X11393606Y-12794326D02*
X11403130Y-12775278D01*
X11584082Y-12689564D02*
X11488844Y-12689564D01*
X11488844Y-12689564D02*
X11479320Y-12784802D01*
X11479320Y-12784802D02*
X11488844Y-12775278D01*
X11488844Y-12775278D02*
X11507891Y-12765754D01*
X11507891Y-12765754D02*
X11555511Y-12765754D01*
X11555511Y-12765754D02*
X11574558Y-12775278D01*
X11574558Y-12775278D02*
X11584082Y-12784802D01*
X11584082Y-12784802D02*
X11593606Y-12803850D01*
X11593606Y-12803850D02*
X11593606Y-12851469D01*
X11593606Y-12851469D02*
X11584082Y-12870516D01*
X11584082Y-12870516D02*
X11574558Y-12880040D01*
X11574558Y-12880040D02*
X11555511Y-12889564D01*
X11555511Y-12889564D02*
X11507891Y-12889564D01*
X11507891Y-12889564D02*
X11488844Y-12880040D01*
X11488844Y-12880040D02*
X11479320Y-12870516D01*
X11669796Y-12689564D02*
X11669796Y-12727659D01*
X11745987Y-12689564D02*
X11745987Y-12727659D01*
X12041225Y-12965754D02*
X12031701Y-12956230D01*
X12031701Y-12956230D02*
X12012653Y-12927659D01*
X12012653Y-12927659D02*
X12003130Y-12908611D01*
X12003130Y-12908611D02*
X11993606Y-12880040D01*
X11993606Y-12880040D02*
X11984082Y-12832421D01*
X11984082Y-12832421D02*
X11984082Y-12794326D01*
X11984082Y-12794326D02*
X11993606Y-12746707D01*
X11993606Y-12746707D02*
X12003130Y-12718135D01*
X12003130Y-12718135D02*
X12012653Y-12699088D01*
X12012653Y-12699088D02*
X12031701Y-12670516D01*
X12031701Y-12670516D02*
X12041225Y-12660992D01*
X12203130Y-12756230D02*
X12203130Y-12889564D01*
X12155511Y-12680040D02*
X12107892Y-12822897D01*
X12107892Y-12822897D02*
X12231701Y-12822897D01*
X12460273Y-12889564D02*
X12460273Y-12689564D01*
X12545987Y-12889564D02*
X12545987Y-12784802D01*
X12545987Y-12784802D02*
X12536463Y-12765754D01*
X12536463Y-12765754D02*
X12517415Y-12756230D01*
X12517415Y-12756230D02*
X12488844Y-12756230D01*
X12488844Y-12756230D02*
X12469796Y-12765754D01*
X12469796Y-12765754D02*
X12460273Y-12775278D01*
X12669796Y-12889564D02*
X12650749Y-12880040D01*
X12650749Y-12880040D02*
X12641225Y-12870516D01*
X12641225Y-12870516D02*
X12631701Y-12851469D01*
X12631701Y-12851469D02*
X12631701Y-12794326D01*
X12631701Y-12794326D02*
X12641225Y-12775278D01*
X12641225Y-12775278D02*
X12650749Y-12765754D01*
X12650749Y-12765754D02*
X12669796Y-12756230D01*
X12669796Y-12756230D02*
X12698368Y-12756230D01*
X12698368Y-12756230D02*
X12717415Y-12765754D01*
X12717415Y-12765754D02*
X12726939Y-12775278D01*
X12726939Y-12775278D02*
X12736463Y-12794326D01*
X12736463Y-12794326D02*
X12736463Y-12851469D01*
X12736463Y-12851469D02*
X12726939Y-12870516D01*
X12726939Y-12870516D02*
X12717415Y-12880040D01*
X12717415Y-12880040D02*
X12698368Y-12889564D01*
X12698368Y-12889564D02*
X12669796Y-12889564D01*
X12850749Y-12889564D02*
X12831701Y-12880040D01*
X12831701Y-12880040D02*
X12822177Y-12860992D01*
X12822177Y-12860992D02*
X12822177Y-12689564D01*
X13003130Y-12880040D02*
X12984082Y-12889564D01*
X12984082Y-12889564D02*
X12945987Y-12889564D01*
X12945987Y-12889564D02*
X12926939Y-12880040D01*
X12926939Y-12880040D02*
X12917415Y-12860992D01*
X12917415Y-12860992D02*
X12917415Y-12784802D01*
X12917415Y-12784802D02*
X12926939Y-12765754D01*
X12926939Y-12765754D02*
X12945987Y-12756230D01*
X12945987Y-12756230D02*
X12984082Y-12756230D01*
X12984082Y-12756230D02*
X13003130Y-12765754D01*
X13003130Y-12765754D02*
X13012654Y-12784802D01*
X13012654Y-12784802D02*
X13012654Y-12803850D01*
X13012654Y-12803850D02*
X12917415Y-12822897D01*
X13088844Y-12880040D02*
X13107892Y-12889564D01*
X13107892Y-12889564D02*
X13145987Y-12889564D01*
X13145987Y-12889564D02*
X13165035Y-12880040D01*
X13165035Y-12880040D02*
X13174558Y-12860992D01*
X13174558Y-12860992D02*
X13174558Y-12851469D01*
X13174558Y-12851469D02*
X13165035Y-12832421D01*
X13165035Y-12832421D02*
X13145987Y-12822897D01*
X13145987Y-12822897D02*
X13117415Y-12822897D01*
X13117415Y-12822897D02*
X13098368Y-12813373D01*
X13098368Y-12813373D02*
X13088844Y-12794326D01*
X13088844Y-12794326D02*
X13088844Y-12784802D01*
X13088844Y-12784802D02*
X13098368Y-12765754D01*
X13098368Y-12765754D02*
X13117415Y-12756230D01*
X13117415Y-12756230D02*
X13145987Y-12756230D01*
X13145987Y-12756230D02*
X13165035Y-12765754D01*
X13241225Y-12965754D02*
X13250749Y-12956230D01*
X13250749Y-12956230D02*
X13269796Y-12927659D01*
X13269796Y-12927659D02*
X13279320Y-12908611D01*
X13279320Y-12908611D02*
X13288844Y-12880040D01*
X13288844Y-12880040D02*
X13298368Y-12832421D01*
X13298368Y-12832421D02*
X13298368Y-12794326D01*
X13298368Y-12794326D02*
X13288844Y-12746707D01*
X13288844Y-12746707D02*
X13279320Y-12718135D01*
X13279320Y-12718135D02*
X13269796Y-12699088D01*
X13269796Y-12699088D02*
X13250749Y-12670516D01*
X13250749Y-12670516D02*
X13241225Y-12660992D01*
D12*
X8421712Y-13017630D02*
X8421712Y-13106530D01*
X8377262Y-13062080D02*
X8466162Y-13062080D01*
D13*
X8765034Y-12953564D02*
X8784082Y-12953564D01*
X8784082Y-12953564D02*
X8803129Y-12963088D01*
X8803129Y-12963088D02*
X8812653Y-12972611D01*
X8812653Y-12972611D02*
X8822177Y-12991659D01*
X8822177Y-12991659D02*
X8831701Y-13029754D01*
X8831701Y-13029754D02*
X8831701Y-13077373D01*
X8831701Y-13077373D02*
X8822177Y-13115469D01*
X8822177Y-13115469D02*
X8812653Y-13134516D01*
X8812653Y-13134516D02*
X8803129Y-13144040D01*
X8803129Y-13144040D02*
X8784082Y-13153564D01*
X8784082Y-13153564D02*
X8765034Y-13153564D01*
X8765034Y-13153564D02*
X8745987Y-13144040D01*
X8745987Y-13144040D02*
X8736463Y-13134516D01*
X8736463Y-13134516D02*
X8726939Y-13115469D01*
X8726939Y-13115469D02*
X8717415Y-13077373D01*
X8717415Y-13077373D02*
X8717415Y-13029754D01*
X8717415Y-13029754D02*
X8726939Y-12991659D01*
X8726939Y-12991659D02*
X8736463Y-12972611D01*
X8736463Y-12972611D02*
X8745987Y-12963088D01*
X8745987Y-12963088D02*
X8765034Y-12953564D01*
X8917415Y-13134516D02*
X8926939Y-13144040D01*
X8926939Y-13144040D02*
X8917415Y-13153564D01*
X8917415Y-13153564D02*
X8907891Y-13144040D01*
X8907891Y-13144040D02*
X8917415Y-13134516D01*
X8917415Y-13134516D02*
X8917415Y-13153564D01*
X9041225Y-13039278D02*
X9022177Y-13029754D01*
X9022177Y-13029754D02*
X9012653Y-13020230D01*
X9012653Y-13020230D02*
X9003129Y-13001183D01*
X9003129Y-13001183D02*
X9003129Y-12991659D01*
X9003129Y-12991659D02*
X9012653Y-12972611D01*
X9012653Y-12972611D02*
X9022177Y-12963088D01*
X9022177Y-12963088D02*
X9041225Y-12953564D01*
X9041225Y-12953564D02*
X9079320Y-12953564D01*
X9079320Y-12953564D02*
X9098368Y-12963088D01*
X9098368Y-12963088D02*
X9107891Y-12972611D01*
X9107891Y-12972611D02*
X9117415Y-12991659D01*
X9117415Y-12991659D02*
X9117415Y-13001183D01*
X9117415Y-13001183D02*
X9107891Y-13020230D01*
X9107891Y-13020230D02*
X9098368Y-13029754D01*
X9098368Y-13029754D02*
X9079320Y-13039278D01*
X9079320Y-13039278D02*
X9041225Y-13039278D01*
X9041225Y-13039278D02*
X9022177Y-13048802D01*
X9022177Y-13048802D02*
X9012653Y-13058326D01*
X9012653Y-13058326D02*
X9003129Y-13077373D01*
X9003129Y-13077373D02*
X9003129Y-13115469D01*
X9003129Y-13115469D02*
X9012653Y-13134516D01*
X9012653Y-13134516D02*
X9022177Y-13144040D01*
X9022177Y-13144040D02*
X9041225Y-13153564D01*
X9041225Y-13153564D02*
X9079320Y-13153564D01*
X9079320Y-13153564D02*
X9098368Y-13144040D01*
X9098368Y-13144040D02*
X9107891Y-13134516D01*
X9107891Y-13134516D02*
X9117415Y-13115469D01*
X9117415Y-13115469D02*
X9117415Y-13077373D01*
X9117415Y-13077373D02*
X9107891Y-13058326D01*
X9107891Y-13058326D02*
X9098368Y-13048802D01*
X9098368Y-13048802D02*
X9079320Y-13039278D01*
X9231701Y-13039278D02*
X9212653Y-13029754D01*
X9212653Y-13029754D02*
X9203129Y-13020230D01*
X9203129Y-13020230D02*
X9193606Y-13001183D01*
X9193606Y-13001183D02*
X9193606Y-12991659D01*
X9193606Y-12991659D02*
X9203129Y-12972611D01*
X9203129Y-12972611D02*
X9212653Y-12963088D01*
X9212653Y-12963088D02*
X9231701Y-12953564D01*
X9231701Y-12953564D02*
X9269796Y-12953564D01*
X9269796Y-12953564D02*
X9288844Y-12963088D01*
X9288844Y-12963088D02*
X9298368Y-12972611D01*
X9298368Y-12972611D02*
X9307891Y-12991659D01*
X9307891Y-12991659D02*
X9307891Y-13001183D01*
X9307891Y-13001183D02*
X9298368Y-13020230D01*
X9298368Y-13020230D02*
X9288844Y-13029754D01*
X9288844Y-13029754D02*
X9269796Y-13039278D01*
X9269796Y-13039278D02*
X9231701Y-13039278D01*
X9231701Y-13039278D02*
X9212653Y-13048802D01*
X9212653Y-13048802D02*
X9203129Y-13058326D01*
X9203129Y-13058326D02*
X9193606Y-13077373D01*
X9193606Y-13077373D02*
X9193606Y-13115469D01*
X9193606Y-13115469D02*
X9203129Y-13134516D01*
X9203129Y-13134516D02*
X9212653Y-13144040D01*
X9212653Y-13144040D02*
X9231701Y-13153564D01*
X9231701Y-13153564D02*
X9269796Y-13153564D01*
X9269796Y-13153564D02*
X9288844Y-13144040D01*
X9288844Y-13144040D02*
X9298368Y-13134516D01*
X9298368Y-13134516D02*
X9307891Y-13115469D01*
X9307891Y-13115469D02*
X9307891Y-13077373D01*
X9307891Y-13077373D02*
X9298368Y-13058326D01*
X9298368Y-13058326D02*
X9288844Y-13048802D01*
X9288844Y-13048802D02*
X9269796Y-13039278D01*
X9403129Y-13153564D02*
X9441225Y-13153564D01*
X9441225Y-13153564D02*
X9460272Y-13144040D01*
X9460272Y-13144040D02*
X9469796Y-13134516D01*
X9469796Y-13134516D02*
X9488844Y-13105945D01*
X9488844Y-13105945D02*
X9498368Y-13067850D01*
X9498368Y-13067850D02*
X9498368Y-12991659D01*
X9498368Y-12991659D02*
X9488844Y-12972611D01*
X9488844Y-12972611D02*
X9479320Y-12963088D01*
X9479320Y-12963088D02*
X9460272Y-12953564D01*
X9460272Y-12953564D02*
X9422177Y-12953564D01*
X9422177Y-12953564D02*
X9403129Y-12963088D01*
X9403129Y-12963088D02*
X9393606Y-12972611D01*
X9393606Y-12972611D02*
X9384082Y-12991659D01*
X9384082Y-12991659D02*
X9384082Y-13039278D01*
X9384082Y-13039278D02*
X9393606Y-13058326D01*
X9393606Y-13058326D02*
X9403129Y-13067850D01*
X9403129Y-13067850D02*
X9422177Y-13077373D01*
X9422177Y-13077373D02*
X9460272Y-13077373D01*
X9460272Y-13077373D02*
X9479320Y-13067850D01*
X9479320Y-13067850D02*
X9488844Y-13058326D01*
X9488844Y-13058326D02*
X9498368Y-13039278D01*
X9584082Y-13153564D02*
X9584082Y-13020230D01*
X9584082Y-13039278D02*
X9593606Y-13029754D01*
X9593606Y-13029754D02*
X9612653Y-13020230D01*
X9612653Y-13020230D02*
X9641225Y-13020230D01*
X9641225Y-13020230D02*
X9660272Y-13029754D01*
X9660272Y-13029754D02*
X9669796Y-13048802D01*
X9669796Y-13048802D02*
X9669796Y-13153564D01*
X9669796Y-13048802D02*
X9679320Y-13029754D01*
X9679320Y-13029754D02*
X9698368Y-13020230D01*
X9698368Y-13020230D02*
X9726939Y-13020230D01*
X9726939Y-13020230D02*
X9745987Y-13029754D01*
X9745987Y-13029754D02*
X9755510Y-13048802D01*
X9755510Y-13048802D02*
X9755510Y-13153564D01*
X9850749Y-13153564D02*
X9850749Y-13020230D01*
X9850749Y-13039278D02*
X9860272Y-13029754D01*
X9860272Y-13029754D02*
X9879320Y-13020230D01*
X9879320Y-13020230D02*
X9907891Y-13020230D01*
X9907891Y-13020230D02*
X9926939Y-13029754D01*
X9926939Y-13029754D02*
X9936463Y-13048802D01*
X9936463Y-13048802D02*
X9936463Y-13153564D01*
X9936463Y-13048802D02*
X9945987Y-13029754D01*
X9945987Y-13029754D02*
X9965034Y-13020230D01*
X9965034Y-13020230D02*
X9993606Y-13020230D01*
X9993606Y-13020230D02*
X10012653Y-13029754D01*
X10012653Y-13029754D02*
X10022177Y-13048802D01*
X10022177Y-13048802D02*
X10022177Y-13153564D01*
X10412653Y-12944040D02*
X10241225Y-13201183D01*
X10669796Y-12953564D02*
X10688844Y-12953564D01*
X10688844Y-12953564D02*
X10707892Y-12963088D01*
X10707892Y-12963088D02*
X10717415Y-12972611D01*
X10717415Y-12972611D02*
X10726939Y-12991659D01*
X10726939Y-12991659D02*
X10736463Y-13029754D01*
X10736463Y-13029754D02*
X10736463Y-13077373D01*
X10736463Y-13077373D02*
X10726939Y-13115469D01*
X10726939Y-13115469D02*
X10717415Y-13134516D01*
X10717415Y-13134516D02*
X10707892Y-13144040D01*
X10707892Y-13144040D02*
X10688844Y-13153564D01*
X10688844Y-13153564D02*
X10669796Y-13153564D01*
X10669796Y-13153564D02*
X10650749Y-13144040D01*
X10650749Y-13144040D02*
X10641225Y-13134516D01*
X10641225Y-13134516D02*
X10631701Y-13115469D01*
X10631701Y-13115469D02*
X10622177Y-13077373D01*
X10622177Y-13077373D02*
X10622177Y-13029754D01*
X10622177Y-13029754D02*
X10631701Y-12991659D01*
X10631701Y-12991659D02*
X10641225Y-12972611D01*
X10641225Y-12972611D02*
X10650749Y-12963088D01*
X10650749Y-12963088D02*
X10669796Y-12953564D01*
X10822177Y-13134516D02*
X10831701Y-13144040D01*
X10831701Y-13144040D02*
X10822177Y-13153564D01*
X10822177Y-13153564D02*
X10812653Y-13144040D01*
X10812653Y-13144040D02*
X10822177Y-13134516D01*
X10822177Y-13134516D02*
X10822177Y-13153564D01*
X10955511Y-12953564D02*
X10974558Y-12953564D01*
X10974558Y-12953564D02*
X10993606Y-12963088D01*
X10993606Y-12963088D02*
X11003130Y-12972611D01*
X11003130Y-12972611D02*
X11012653Y-12991659D01*
X11012653Y-12991659D02*
X11022177Y-13029754D01*
X11022177Y-13029754D02*
X11022177Y-13077373D01*
X11022177Y-13077373D02*
X11012653Y-13115469D01*
X11012653Y-13115469D02*
X11003130Y-13134516D01*
X11003130Y-13134516D02*
X10993606Y-13144040D01*
X10993606Y-13144040D02*
X10974558Y-13153564D01*
X10974558Y-13153564D02*
X10955511Y-13153564D01*
X10955511Y-13153564D02*
X10936463Y-13144040D01*
X10936463Y-13144040D02*
X10926939Y-13134516D01*
X10926939Y-13134516D02*
X10917415Y-13115469D01*
X10917415Y-13115469D02*
X10907892Y-13077373D01*
X10907892Y-13077373D02*
X10907892Y-13029754D01*
X10907892Y-13029754D02*
X10917415Y-12991659D01*
X10917415Y-12991659D02*
X10926939Y-12972611D01*
X10926939Y-12972611D02*
X10936463Y-12963088D01*
X10936463Y-12963088D02*
X10955511Y-12953564D01*
X11088844Y-12953564D02*
X11212653Y-12953564D01*
X11212653Y-12953564D02*
X11145987Y-13029754D01*
X11145987Y-13029754D02*
X11174558Y-13029754D01*
X11174558Y-13029754D02*
X11193606Y-13039278D01*
X11193606Y-13039278D02*
X11203130Y-13048802D01*
X11203130Y-13048802D02*
X11212653Y-13067850D01*
X11212653Y-13067850D02*
X11212653Y-13115469D01*
X11212653Y-13115469D02*
X11203130Y-13134516D01*
X11203130Y-13134516D02*
X11193606Y-13144040D01*
X11193606Y-13144040D02*
X11174558Y-13153564D01*
X11174558Y-13153564D02*
X11117415Y-13153564D01*
X11117415Y-13153564D02*
X11098368Y-13144040D01*
X11098368Y-13144040D02*
X11088844Y-13134516D01*
X11393606Y-12953564D02*
X11298368Y-12953564D01*
X11298368Y-12953564D02*
X11288844Y-13048802D01*
X11288844Y-13048802D02*
X11298368Y-13039278D01*
X11298368Y-13039278D02*
X11317415Y-13029754D01*
X11317415Y-13029754D02*
X11365034Y-13029754D01*
X11365034Y-13029754D02*
X11384082Y-13039278D01*
X11384082Y-13039278D02*
X11393606Y-13048802D01*
X11393606Y-13048802D02*
X11403130Y-13067850D01*
X11403130Y-13067850D02*
X11403130Y-13115469D01*
X11403130Y-13115469D02*
X11393606Y-13134516D01*
X11393606Y-13134516D02*
X11384082Y-13144040D01*
X11384082Y-13144040D02*
X11365034Y-13153564D01*
X11365034Y-13153564D02*
X11317415Y-13153564D01*
X11317415Y-13153564D02*
X11298368Y-13144040D01*
X11298368Y-13144040D02*
X11288844Y-13134516D01*
X11526939Y-12953564D02*
X11545987Y-12953564D01*
X11545987Y-12953564D02*
X11565034Y-12963088D01*
X11565034Y-12963088D02*
X11574558Y-12972611D01*
X11574558Y-12972611D02*
X11584082Y-12991659D01*
X11584082Y-12991659D02*
X11593606Y-13029754D01*
X11593606Y-13029754D02*
X11593606Y-13077373D01*
X11593606Y-13077373D02*
X11584082Y-13115469D01*
X11584082Y-13115469D02*
X11574558Y-13134516D01*
X11574558Y-13134516D02*
X11565034Y-13144040D01*
X11565034Y-13144040D02*
X11545987Y-13153564D01*
X11545987Y-13153564D02*
X11526939Y-13153564D01*
X11526939Y-13153564D02*
X11507891Y-13144040D01*
X11507891Y-13144040D02*
X11498368Y-13134516D01*
X11498368Y-13134516D02*
X11488844Y-13115469D01*
X11488844Y-13115469D02*
X11479320Y-13077373D01*
X11479320Y-13077373D02*
X11479320Y-13029754D01*
X11479320Y-13029754D02*
X11488844Y-12991659D01*
X11488844Y-12991659D02*
X11498368Y-12972611D01*
X11498368Y-12972611D02*
X11507891Y-12963088D01*
X11507891Y-12963088D02*
X11526939Y-12953564D01*
X11669796Y-12953564D02*
X11669796Y-12991659D01*
X11745987Y-12953564D02*
X11745987Y-12991659D01*
X12041225Y-13229754D02*
X12031701Y-13220230D01*
X12031701Y-13220230D02*
X12012653Y-13191659D01*
X12012653Y-13191659D02*
X12003130Y-13172611D01*
X12003130Y-13172611D02*
X11993606Y-13144040D01*
X11993606Y-13144040D02*
X11984082Y-13096421D01*
X11984082Y-13096421D02*
X11984082Y-13058326D01*
X11984082Y-13058326D02*
X11993606Y-13010707D01*
X11993606Y-13010707D02*
X12003130Y-12982135D01*
X12003130Y-12982135D02*
X12012653Y-12963088D01*
X12012653Y-12963088D02*
X12031701Y-12934516D01*
X12031701Y-12934516D02*
X12041225Y-12924992D01*
X12107892Y-12972611D02*
X12117415Y-12963088D01*
X12117415Y-12963088D02*
X12136463Y-12953564D01*
X12136463Y-12953564D02*
X12184082Y-12953564D01*
X12184082Y-12953564D02*
X12203130Y-12963088D01*
X12203130Y-12963088D02*
X12212653Y-12972611D01*
X12212653Y-12972611D02*
X12222177Y-12991659D01*
X12222177Y-12991659D02*
X12222177Y-13010707D01*
X12222177Y-13010707D02*
X12212653Y-13039278D01*
X12212653Y-13039278D02*
X12098368Y-13153564D01*
X12098368Y-13153564D02*
X12222177Y-13153564D01*
X12336463Y-13039278D02*
X12317415Y-13029754D01*
X12317415Y-13029754D02*
X12307892Y-13020230D01*
X12307892Y-13020230D02*
X12298368Y-13001183D01*
X12298368Y-13001183D02*
X12298368Y-12991659D01*
X12298368Y-12991659D02*
X12307892Y-12972611D01*
X12307892Y-12972611D02*
X12317415Y-12963088D01*
X12317415Y-12963088D02*
X12336463Y-12953564D01*
X12336463Y-12953564D02*
X12374558Y-12953564D01*
X12374558Y-12953564D02*
X12393606Y-12963088D01*
X12393606Y-12963088D02*
X12403130Y-12972611D01*
X12403130Y-12972611D02*
X12412653Y-12991659D01*
X12412653Y-12991659D02*
X12412653Y-13001183D01*
X12412653Y-13001183D02*
X12403130Y-13020230D01*
X12403130Y-13020230D02*
X12393606Y-13029754D01*
X12393606Y-13029754D02*
X12374558Y-13039278D01*
X12374558Y-13039278D02*
X12336463Y-13039278D01*
X12336463Y-13039278D02*
X12317415Y-13048802D01*
X12317415Y-13048802D02*
X12307892Y-13058326D01*
X12307892Y-13058326D02*
X12298368Y-13077373D01*
X12298368Y-13077373D02*
X12298368Y-13115469D01*
X12298368Y-13115469D02*
X12307892Y-13134516D01*
X12307892Y-13134516D02*
X12317415Y-13144040D01*
X12317415Y-13144040D02*
X12336463Y-13153564D01*
X12336463Y-13153564D02*
X12374558Y-13153564D01*
X12374558Y-13153564D02*
X12393606Y-13144040D01*
X12393606Y-13144040D02*
X12403130Y-13134516D01*
X12403130Y-13134516D02*
X12412653Y-13115469D01*
X12412653Y-13115469D02*
X12412653Y-13077373D01*
X12412653Y-13077373D02*
X12403130Y-13058326D01*
X12403130Y-13058326D02*
X12393606Y-13048802D01*
X12393606Y-13048802D02*
X12374558Y-13039278D01*
X12650749Y-13153564D02*
X12650749Y-12953564D01*
X12736463Y-13153564D02*
X12736463Y-13048802D01*
X12736463Y-13048802D02*
X12726939Y-13029754D01*
X12726939Y-13029754D02*
X12707892Y-13020230D01*
X12707892Y-13020230D02*
X12679320Y-13020230D01*
X12679320Y-13020230D02*
X12660273Y-13029754D01*
X12660273Y-13029754D02*
X12650749Y-13039278D01*
X12860273Y-13153564D02*
X12841225Y-13144040D01*
X12841225Y-13144040D02*
X12831701Y-13134516D01*
X12831701Y-13134516D02*
X12822177Y-13115469D01*
X12822177Y-13115469D02*
X12822177Y-13058326D01*
X12822177Y-13058326D02*
X12831701Y-13039278D01*
X12831701Y-13039278D02*
X12841225Y-13029754D01*
X12841225Y-13029754D02*
X12860273Y-13020230D01*
X12860273Y-13020230D02*
X12888844Y-13020230D01*
X12888844Y-13020230D02*
X12907892Y-13029754D01*
X12907892Y-13029754D02*
X12917415Y-13039278D01*
X12917415Y-13039278D02*
X12926939Y-13058326D01*
X12926939Y-13058326D02*
X12926939Y-13115469D01*
X12926939Y-13115469D02*
X12917415Y-13134516D01*
X12917415Y-13134516D02*
X12907892Y-13144040D01*
X12907892Y-13144040D02*
X12888844Y-13153564D01*
X12888844Y-13153564D02*
X12860273Y-13153564D01*
X13041225Y-13153564D02*
X13022177Y-13144040D01*
X13022177Y-13144040D02*
X13012654Y-13124992D01*
X13012654Y-13124992D02*
X13012654Y-12953564D01*
X13193606Y-13144040D02*
X13174558Y-13153564D01*
X13174558Y-13153564D02*
X13136463Y-13153564D01*
X13136463Y-13153564D02*
X13117415Y-13144040D01*
X13117415Y-13144040D02*
X13107892Y-13124992D01*
X13107892Y-13124992D02*
X13107892Y-13048802D01*
X13107892Y-13048802D02*
X13117415Y-13029754D01*
X13117415Y-13029754D02*
X13136463Y-13020230D01*
X13136463Y-13020230D02*
X13174558Y-13020230D01*
X13174558Y-13020230D02*
X13193606Y-13029754D01*
X13193606Y-13029754D02*
X13203130Y-13048802D01*
X13203130Y-13048802D02*
X13203130Y-13067850D01*
X13203130Y-13067850D02*
X13107892Y-13086897D01*
X13279320Y-13144040D02*
X13298368Y-13153564D01*
X13298368Y-13153564D02*
X13336463Y-13153564D01*
X13336463Y-13153564D02*
X13355511Y-13144040D01*
X13355511Y-13144040D02*
X13365035Y-13124992D01*
X13365035Y-13124992D02*
X13365035Y-13115469D01*
X13365035Y-13115469D02*
X13355511Y-13096421D01*
X13355511Y-13096421D02*
X13336463Y-13086897D01*
X13336463Y-13086897D02*
X13307892Y-13086897D01*
X13307892Y-13086897D02*
X13288844Y-13077373D01*
X13288844Y-13077373D02*
X13279320Y-13058326D01*
X13279320Y-13058326D02*
X13279320Y-13048802D01*
X13279320Y-13048802D02*
X13288844Y-13029754D01*
X13288844Y-13029754D02*
X13307892Y-13020230D01*
X13307892Y-13020230D02*
X13336463Y-13020230D01*
X13336463Y-13020230D02*
X13355511Y-13029754D01*
X13431701Y-13229754D02*
X13441225Y-13220230D01*
X13441225Y-13220230D02*
X13460273Y-13191659D01*
X13460273Y-13191659D02*
X13469796Y-13172611D01*
X13469796Y-13172611D02*
X13479320Y-13144040D01*
X13479320Y-13144040D02*
X13488844Y-13096421D01*
X13488844Y-13096421D02*
X13488844Y-13058326D01*
X13488844Y-13058326D02*
X13479320Y-13010707D01*
X13479320Y-13010707D02*
X13469796Y-12982135D01*
X13469796Y-12982135D02*
X13460273Y-12963088D01*
X13460273Y-12963088D02*
X13441225Y-12934516D01*
X13441225Y-12934516D02*
X13431701Y-12924992D01*
D12*
X8451518Y-13361436D02*
X8451518Y-13290724D01*
X8380806Y-13290724D01*
X8380806Y-13361436D01*
X8451518Y-13361436D01*
D13*
X8831701Y-13417564D02*
X8717415Y-13417564D01*
X8774558Y-13417564D02*
X8774558Y-13217564D01*
X8774558Y-13217564D02*
X8755510Y-13246135D01*
X8755510Y-13246135D02*
X8736463Y-13265183D01*
X8736463Y-13265183D02*
X8717415Y-13274707D01*
X8917415Y-13398516D02*
X8926939Y-13408040D01*
X8926939Y-13408040D02*
X8917415Y-13417564D01*
X8917415Y-13417564D02*
X8907891Y-13408040D01*
X8907891Y-13408040D02*
X8917415Y-13398516D01*
X8917415Y-13398516D02*
X8917415Y-13417564D01*
X9050748Y-13217564D02*
X9069796Y-13217564D01*
X9069796Y-13217564D02*
X9088844Y-13227088D01*
X9088844Y-13227088D02*
X9098368Y-13236611D01*
X9098368Y-13236611D02*
X9107891Y-13255659D01*
X9107891Y-13255659D02*
X9117415Y-13293754D01*
X9117415Y-13293754D02*
X9117415Y-13341373D01*
X9117415Y-13341373D02*
X9107891Y-13379469D01*
X9107891Y-13379469D02*
X9098368Y-13398516D01*
X9098368Y-13398516D02*
X9088844Y-13408040D01*
X9088844Y-13408040D02*
X9069796Y-13417564D01*
X9069796Y-13417564D02*
X9050748Y-13417564D01*
X9050748Y-13417564D02*
X9031701Y-13408040D01*
X9031701Y-13408040D02*
X9022177Y-13398516D01*
X9022177Y-13398516D02*
X9012653Y-13379469D01*
X9012653Y-13379469D02*
X9003129Y-13341373D01*
X9003129Y-13341373D02*
X9003129Y-13293754D01*
X9003129Y-13293754D02*
X9012653Y-13255659D01*
X9012653Y-13255659D02*
X9022177Y-13236611D01*
X9022177Y-13236611D02*
X9031701Y-13227088D01*
X9031701Y-13227088D02*
X9050748Y-13217564D01*
X9241225Y-13217564D02*
X9260272Y-13217564D01*
X9260272Y-13217564D02*
X9279320Y-13227088D01*
X9279320Y-13227088D02*
X9288844Y-13236611D01*
X9288844Y-13236611D02*
X9298368Y-13255659D01*
X9298368Y-13255659D02*
X9307891Y-13293754D01*
X9307891Y-13293754D02*
X9307891Y-13341373D01*
X9307891Y-13341373D02*
X9298368Y-13379469D01*
X9298368Y-13379469D02*
X9288844Y-13398516D01*
X9288844Y-13398516D02*
X9279320Y-13408040D01*
X9279320Y-13408040D02*
X9260272Y-13417564D01*
X9260272Y-13417564D02*
X9241225Y-13417564D01*
X9241225Y-13417564D02*
X9222177Y-13408040D01*
X9222177Y-13408040D02*
X9212653Y-13398516D01*
X9212653Y-13398516D02*
X9203129Y-13379469D01*
X9203129Y-13379469D02*
X9193606Y-13341373D01*
X9193606Y-13341373D02*
X9193606Y-13293754D01*
X9193606Y-13293754D02*
X9203129Y-13255659D01*
X9203129Y-13255659D02*
X9212653Y-13236611D01*
X9212653Y-13236611D02*
X9222177Y-13227088D01*
X9222177Y-13227088D02*
X9241225Y-13217564D01*
X9431701Y-13217564D02*
X9450749Y-13217564D01*
X9450749Y-13217564D02*
X9469796Y-13227088D01*
X9469796Y-13227088D02*
X9479320Y-13236611D01*
X9479320Y-13236611D02*
X9488844Y-13255659D01*
X9488844Y-13255659D02*
X9498368Y-13293754D01*
X9498368Y-13293754D02*
X9498368Y-13341373D01*
X9498368Y-13341373D02*
X9488844Y-13379469D01*
X9488844Y-13379469D02*
X9479320Y-13398516D01*
X9479320Y-13398516D02*
X9469796Y-13408040D01*
X9469796Y-13408040D02*
X9450749Y-13417564D01*
X9450749Y-13417564D02*
X9431701Y-13417564D01*
X9431701Y-13417564D02*
X9412653Y-13408040D01*
X9412653Y-13408040D02*
X9403129Y-13398516D01*
X9403129Y-13398516D02*
X9393606Y-13379469D01*
X9393606Y-13379469D02*
X9384082Y-13341373D01*
X9384082Y-13341373D02*
X9384082Y-13293754D01*
X9384082Y-13293754D02*
X9393606Y-13255659D01*
X9393606Y-13255659D02*
X9403129Y-13236611D01*
X9403129Y-13236611D02*
X9412653Y-13227088D01*
X9412653Y-13227088D02*
X9431701Y-13217564D01*
X9584082Y-13417564D02*
X9584082Y-13284230D01*
X9584082Y-13303278D02*
X9593606Y-13293754D01*
X9593606Y-13293754D02*
X9612653Y-13284230D01*
X9612653Y-13284230D02*
X9641225Y-13284230D01*
X9641225Y-13284230D02*
X9660272Y-13293754D01*
X9660272Y-13293754D02*
X9669796Y-13312802D01*
X9669796Y-13312802D02*
X9669796Y-13417564D01*
X9669796Y-13312802D02*
X9679320Y-13293754D01*
X9679320Y-13293754D02*
X9698368Y-13284230D01*
X9698368Y-13284230D02*
X9726939Y-13284230D01*
X9726939Y-13284230D02*
X9745987Y-13293754D01*
X9745987Y-13293754D02*
X9755510Y-13312802D01*
X9755510Y-13312802D02*
X9755510Y-13417564D01*
X9850749Y-13417564D02*
X9850749Y-13284230D01*
X9850749Y-13303278D02*
X9860272Y-13293754D01*
X9860272Y-13293754D02*
X9879320Y-13284230D01*
X9879320Y-13284230D02*
X9907891Y-13284230D01*
X9907891Y-13284230D02*
X9926939Y-13293754D01*
X9926939Y-13293754D02*
X9936463Y-13312802D01*
X9936463Y-13312802D02*
X9936463Y-13417564D01*
X9936463Y-13312802D02*
X9945987Y-13293754D01*
X9945987Y-13293754D02*
X9965034Y-13284230D01*
X9965034Y-13284230D02*
X9993606Y-13284230D01*
X9993606Y-13284230D02*
X10012653Y-13293754D01*
X10012653Y-13293754D02*
X10022177Y-13312802D01*
X10022177Y-13312802D02*
X10022177Y-13417564D01*
X10412653Y-13208040D02*
X10241225Y-13465183D01*
X10669796Y-13217564D02*
X10688844Y-13217564D01*
X10688844Y-13217564D02*
X10707892Y-13227088D01*
X10707892Y-13227088D02*
X10717415Y-13236611D01*
X10717415Y-13236611D02*
X10726939Y-13255659D01*
X10726939Y-13255659D02*
X10736463Y-13293754D01*
X10736463Y-13293754D02*
X10736463Y-13341373D01*
X10736463Y-13341373D02*
X10726939Y-13379469D01*
X10726939Y-13379469D02*
X10717415Y-13398516D01*
X10717415Y-13398516D02*
X10707892Y-13408040D01*
X10707892Y-13408040D02*
X10688844Y-13417564D01*
X10688844Y-13417564D02*
X10669796Y-13417564D01*
X10669796Y-13417564D02*
X10650749Y-13408040D01*
X10650749Y-13408040D02*
X10641225Y-13398516D01*
X10641225Y-13398516D02*
X10631701Y-13379469D01*
X10631701Y-13379469D02*
X10622177Y-13341373D01*
X10622177Y-13341373D02*
X10622177Y-13293754D01*
X10622177Y-13293754D02*
X10631701Y-13255659D01*
X10631701Y-13255659D02*
X10641225Y-13236611D01*
X10641225Y-13236611D02*
X10650749Y-13227088D01*
X10650749Y-13227088D02*
X10669796Y-13217564D01*
X10822177Y-13398516D02*
X10831701Y-13408040D01*
X10831701Y-13408040D02*
X10822177Y-13417564D01*
X10822177Y-13417564D02*
X10812653Y-13408040D01*
X10812653Y-13408040D02*
X10822177Y-13398516D01*
X10822177Y-13398516D02*
X10822177Y-13417564D01*
X10955511Y-13217564D02*
X10974558Y-13217564D01*
X10974558Y-13217564D02*
X10993606Y-13227088D01*
X10993606Y-13227088D02*
X11003130Y-13236611D01*
X11003130Y-13236611D02*
X11012653Y-13255659D01*
X11012653Y-13255659D02*
X11022177Y-13293754D01*
X11022177Y-13293754D02*
X11022177Y-13341373D01*
X11022177Y-13341373D02*
X11012653Y-13379469D01*
X11012653Y-13379469D02*
X11003130Y-13398516D01*
X11003130Y-13398516D02*
X10993606Y-13408040D01*
X10993606Y-13408040D02*
X10974558Y-13417564D01*
X10974558Y-13417564D02*
X10955511Y-13417564D01*
X10955511Y-13417564D02*
X10936463Y-13408040D01*
X10936463Y-13408040D02*
X10926939Y-13398516D01*
X10926939Y-13398516D02*
X10917415Y-13379469D01*
X10917415Y-13379469D02*
X10907892Y-13341373D01*
X10907892Y-13341373D02*
X10907892Y-13293754D01*
X10907892Y-13293754D02*
X10917415Y-13255659D01*
X10917415Y-13255659D02*
X10926939Y-13236611D01*
X10926939Y-13236611D02*
X10936463Y-13227088D01*
X10936463Y-13227088D02*
X10955511Y-13217564D01*
X11088844Y-13217564D02*
X11212653Y-13217564D01*
X11212653Y-13217564D02*
X11145987Y-13293754D01*
X11145987Y-13293754D02*
X11174558Y-13293754D01*
X11174558Y-13293754D02*
X11193606Y-13303278D01*
X11193606Y-13303278D02*
X11203130Y-13312802D01*
X11203130Y-13312802D02*
X11212653Y-13331850D01*
X11212653Y-13331850D02*
X11212653Y-13379469D01*
X11212653Y-13379469D02*
X11203130Y-13398516D01*
X11203130Y-13398516D02*
X11193606Y-13408040D01*
X11193606Y-13408040D02*
X11174558Y-13417564D01*
X11174558Y-13417564D02*
X11117415Y-13417564D01*
X11117415Y-13417564D02*
X11098368Y-13408040D01*
X11098368Y-13408040D02*
X11088844Y-13398516D01*
X11307891Y-13417564D02*
X11345987Y-13417564D01*
X11345987Y-13417564D02*
X11365034Y-13408040D01*
X11365034Y-13408040D02*
X11374558Y-13398516D01*
X11374558Y-13398516D02*
X11393606Y-13369945D01*
X11393606Y-13369945D02*
X11403130Y-13331850D01*
X11403130Y-13331850D02*
X11403130Y-13255659D01*
X11403130Y-13255659D02*
X11393606Y-13236611D01*
X11393606Y-13236611D02*
X11384082Y-13227088D01*
X11384082Y-13227088D02*
X11365034Y-13217564D01*
X11365034Y-13217564D02*
X11326939Y-13217564D01*
X11326939Y-13217564D02*
X11307891Y-13227088D01*
X11307891Y-13227088D02*
X11298368Y-13236611D01*
X11298368Y-13236611D02*
X11288844Y-13255659D01*
X11288844Y-13255659D02*
X11288844Y-13303278D01*
X11288844Y-13303278D02*
X11298368Y-13322326D01*
X11298368Y-13322326D02*
X11307891Y-13331850D01*
X11307891Y-13331850D02*
X11326939Y-13341373D01*
X11326939Y-13341373D02*
X11365034Y-13341373D01*
X11365034Y-13341373D02*
X11384082Y-13331850D01*
X11384082Y-13331850D02*
X11393606Y-13322326D01*
X11393606Y-13322326D02*
X11403130Y-13303278D01*
X11574558Y-13284230D02*
X11574558Y-13417564D01*
X11526939Y-13208040D02*
X11479320Y-13350897D01*
X11479320Y-13350897D02*
X11603130Y-13350897D01*
X11669796Y-13217564D02*
X11669796Y-13255659D01*
X11745987Y-13217564D02*
X11745987Y-13255659D01*
X12041225Y-13493754D02*
X12031701Y-13484230D01*
X12031701Y-13484230D02*
X12012653Y-13455659D01*
X12012653Y-13455659D02*
X12003130Y-13436611D01*
X12003130Y-13436611D02*
X11993606Y-13408040D01*
X11993606Y-13408040D02*
X11984082Y-13360421D01*
X11984082Y-13360421D02*
X11984082Y-13322326D01*
X11984082Y-13322326D02*
X11993606Y-13274707D01*
X11993606Y-13274707D02*
X12003130Y-13246135D01*
X12003130Y-13246135D02*
X12012653Y-13227088D01*
X12012653Y-13227088D02*
X12031701Y-13198516D01*
X12031701Y-13198516D02*
X12041225Y-13188992D01*
X12222177Y-13417564D02*
X12107892Y-13417564D01*
X12165034Y-13417564D02*
X12165034Y-13217564D01*
X12165034Y-13217564D02*
X12145987Y-13246135D01*
X12145987Y-13246135D02*
X12126939Y-13265183D01*
X12126939Y-13265183D02*
X12107892Y-13274707D01*
X12345987Y-13217564D02*
X12365034Y-13217564D01*
X12365034Y-13217564D02*
X12384082Y-13227088D01*
X12384082Y-13227088D02*
X12393606Y-13236611D01*
X12393606Y-13236611D02*
X12403130Y-13255659D01*
X12403130Y-13255659D02*
X12412653Y-13293754D01*
X12412653Y-13293754D02*
X12412653Y-13341373D01*
X12412653Y-13341373D02*
X12403130Y-13379469D01*
X12403130Y-13379469D02*
X12393606Y-13398516D01*
X12393606Y-13398516D02*
X12384082Y-13408040D01*
X12384082Y-13408040D02*
X12365034Y-13417564D01*
X12365034Y-13417564D02*
X12345987Y-13417564D01*
X12345987Y-13417564D02*
X12326939Y-13408040D01*
X12326939Y-13408040D02*
X12317415Y-13398516D01*
X12317415Y-13398516D02*
X12307892Y-13379469D01*
X12307892Y-13379469D02*
X12298368Y-13341373D01*
X12298368Y-13341373D02*
X12298368Y-13293754D01*
X12298368Y-13293754D02*
X12307892Y-13255659D01*
X12307892Y-13255659D02*
X12317415Y-13236611D01*
X12317415Y-13236611D02*
X12326939Y-13227088D01*
X12326939Y-13227088D02*
X12345987Y-13217564D01*
X12536463Y-13217564D02*
X12555511Y-13217564D01*
X12555511Y-13217564D02*
X12574558Y-13227088D01*
X12574558Y-13227088D02*
X12584082Y-13236611D01*
X12584082Y-13236611D02*
X12593606Y-13255659D01*
X12593606Y-13255659D02*
X12603130Y-13293754D01*
X12603130Y-13293754D02*
X12603130Y-13341373D01*
X12603130Y-13341373D02*
X12593606Y-13379469D01*
X12593606Y-13379469D02*
X12584082Y-13398516D01*
X12584082Y-13398516D02*
X12574558Y-13408040D01*
X12574558Y-13408040D02*
X12555511Y-13417564D01*
X12555511Y-13417564D02*
X12536463Y-13417564D01*
X12536463Y-13417564D02*
X12517415Y-13408040D01*
X12517415Y-13408040D02*
X12507892Y-13398516D01*
X12507892Y-13398516D02*
X12498368Y-13379469D01*
X12498368Y-13379469D02*
X12488844Y-13341373D01*
X12488844Y-13341373D02*
X12488844Y-13293754D01*
X12488844Y-13293754D02*
X12498368Y-13255659D01*
X12498368Y-13255659D02*
X12507892Y-13236611D01*
X12507892Y-13236611D02*
X12517415Y-13227088D01*
X12517415Y-13227088D02*
X12536463Y-13217564D01*
X12841225Y-13417564D02*
X12841225Y-13217564D01*
X12926939Y-13417564D02*
X12926939Y-13312802D01*
X12926939Y-13312802D02*
X12917415Y-13293754D01*
X12917415Y-13293754D02*
X12898368Y-13284230D01*
X12898368Y-13284230D02*
X12869796Y-13284230D01*
X12869796Y-13284230D02*
X12850749Y-13293754D01*
X12850749Y-13293754D02*
X12841225Y-13303278D01*
X13050749Y-13417564D02*
X13031701Y-13408040D01*
X13031701Y-13408040D02*
X13022177Y-13398516D01*
X13022177Y-13398516D02*
X13012654Y-13379469D01*
X13012654Y-13379469D02*
X13012654Y-13322326D01*
X13012654Y-13322326D02*
X13022177Y-13303278D01*
X13022177Y-13303278D02*
X13031701Y-13293754D01*
X13031701Y-13293754D02*
X13050749Y-13284230D01*
X13050749Y-13284230D02*
X13079320Y-13284230D01*
X13079320Y-13284230D02*
X13098368Y-13293754D01*
X13098368Y-13293754D02*
X13107892Y-13303278D01*
X13107892Y-13303278D02*
X13117415Y-13322326D01*
X13117415Y-13322326D02*
X13117415Y-13379469D01*
X13117415Y-13379469D02*
X13107892Y-13398516D01*
X13107892Y-13398516D02*
X13098368Y-13408040D01*
X13098368Y-13408040D02*
X13079320Y-13417564D01*
X13079320Y-13417564D02*
X13050749Y-13417564D01*
X13231701Y-13417564D02*
X13212654Y-13408040D01*
X13212654Y-13408040D02*
X13203130Y-13388992D01*
X13203130Y-13388992D02*
X13203130Y-13217564D01*
X13384082Y-13408040D02*
X13365035Y-13417564D01*
X13365035Y-13417564D02*
X13326939Y-13417564D01*
X13326939Y-13417564D02*
X13307892Y-13408040D01*
X13307892Y-13408040D02*
X13298368Y-13388992D01*
X13298368Y-13388992D02*
X13298368Y-13312802D01*
X13298368Y-13312802D02*
X13307892Y-13293754D01*
X13307892Y-13293754D02*
X13326939Y-13284230D01*
X13326939Y-13284230D02*
X13365035Y-13284230D01*
X13365035Y-13284230D02*
X13384082Y-13293754D01*
X13384082Y-13293754D02*
X13393606Y-13312802D01*
X13393606Y-13312802D02*
X13393606Y-13331850D01*
X13393606Y-13331850D02*
X13298368Y-13350897D01*
X13469796Y-13408040D02*
X13488844Y-13417564D01*
X13488844Y-13417564D02*
X13526939Y-13417564D01*
X13526939Y-13417564D02*
X13545987Y-13408040D01*
X13545987Y-13408040D02*
X13555511Y-13388992D01*
X13555511Y-13388992D02*
X13555511Y-13379469D01*
X13555511Y-13379469D02*
X13545987Y-13360421D01*
X13545987Y-13360421D02*
X13526939Y-13350897D01*
X13526939Y-13350897D02*
X13498368Y-13350897D01*
X13498368Y-13350897D02*
X13479320Y-13341373D01*
X13479320Y-13341373D02*
X13469796Y-13322326D01*
X13469796Y-13322326D02*
X13469796Y-13312802D01*
X13469796Y-13312802D02*
X13479320Y-13293754D01*
X13479320Y-13293754D02*
X13498368Y-13284230D01*
X13498368Y-13284230D02*
X13526939Y-13284230D01*
X13526939Y-13284230D02*
X13545987Y-13293754D01*
X13622177Y-13493754D02*
X13631701Y-13484230D01*
X13631701Y-13484230D02*
X13650749Y-13455659D01*
X13650749Y-13455659D02*
X13660273Y-13436611D01*
X13660273Y-13436611D02*
X13669796Y-13408040D01*
X13669796Y-13408040D02*
X13679320Y-13360421D01*
X13679320Y-13360421D02*
X13679320Y-13322326D01*
X13679320Y-13322326D02*
X13669796Y-13274707D01*
X13669796Y-13274707D02*
X13660273Y-13246135D01*
X13660273Y-13246135D02*
X13650749Y-13227088D01*
X13650749Y-13227088D02*
X13631701Y-13198516D01*
X13631701Y-13198516D02*
X13622177Y-13188992D01*
X8366162Y-13690080D02*
X8466162Y-13590080D01*
X8366162Y-13490080D01*
X8266162Y-13590080D01*
X8366162Y-13690080D01*
X8717415Y-13500611D02*
X8726939Y-13491088D01*
X8726939Y-13491088D02*
X8745987Y-13481564D01*
X8745987Y-13481564D02*
X8793606Y-13481564D01*
X8793606Y-13481564D02*
X8812653Y-13491088D01*
X8812653Y-13491088D02*
X8822177Y-13500611D01*
X8822177Y-13500611D02*
X8831701Y-13519659D01*
X8831701Y-13519659D02*
X8831701Y-13538707D01*
X8831701Y-13538707D02*
X8822177Y-13567278D01*
X8822177Y-13567278D02*
X8707891Y-13681564D01*
X8707891Y-13681564D02*
X8831701Y-13681564D01*
X8917415Y-13662516D02*
X8926939Y-13672040D01*
X8926939Y-13672040D02*
X8917415Y-13681564D01*
X8917415Y-13681564D02*
X8907891Y-13672040D01*
X8907891Y-13672040D02*
X8917415Y-13662516D01*
X8917415Y-13662516D02*
X8917415Y-13681564D01*
X9050748Y-13481564D02*
X9069796Y-13481564D01*
X9069796Y-13481564D02*
X9088844Y-13491088D01*
X9088844Y-13491088D02*
X9098368Y-13500611D01*
X9098368Y-13500611D02*
X9107891Y-13519659D01*
X9107891Y-13519659D02*
X9117415Y-13557754D01*
X9117415Y-13557754D02*
X9117415Y-13605373D01*
X9117415Y-13605373D02*
X9107891Y-13643469D01*
X9107891Y-13643469D02*
X9098368Y-13662516D01*
X9098368Y-13662516D02*
X9088844Y-13672040D01*
X9088844Y-13672040D02*
X9069796Y-13681564D01*
X9069796Y-13681564D02*
X9050748Y-13681564D01*
X9050748Y-13681564D02*
X9031701Y-13672040D01*
X9031701Y-13672040D02*
X9022177Y-13662516D01*
X9022177Y-13662516D02*
X9012653Y-13643469D01*
X9012653Y-13643469D02*
X9003129Y-13605373D01*
X9003129Y-13605373D02*
X9003129Y-13557754D01*
X9003129Y-13557754D02*
X9012653Y-13519659D01*
X9012653Y-13519659D02*
X9022177Y-13500611D01*
X9022177Y-13500611D02*
X9031701Y-13491088D01*
X9031701Y-13491088D02*
X9050748Y-13481564D01*
X9241225Y-13481564D02*
X9260272Y-13481564D01*
X9260272Y-13481564D02*
X9279320Y-13491088D01*
X9279320Y-13491088D02*
X9288844Y-13500611D01*
X9288844Y-13500611D02*
X9298368Y-13519659D01*
X9298368Y-13519659D02*
X9307891Y-13557754D01*
X9307891Y-13557754D02*
X9307891Y-13605373D01*
X9307891Y-13605373D02*
X9298368Y-13643469D01*
X9298368Y-13643469D02*
X9288844Y-13662516D01*
X9288844Y-13662516D02*
X9279320Y-13672040D01*
X9279320Y-13672040D02*
X9260272Y-13681564D01*
X9260272Y-13681564D02*
X9241225Y-13681564D01*
X9241225Y-13681564D02*
X9222177Y-13672040D01*
X9222177Y-13672040D02*
X9212653Y-13662516D01*
X9212653Y-13662516D02*
X9203129Y-13643469D01*
X9203129Y-13643469D02*
X9193606Y-13605373D01*
X9193606Y-13605373D02*
X9193606Y-13557754D01*
X9193606Y-13557754D02*
X9203129Y-13519659D01*
X9203129Y-13519659D02*
X9212653Y-13500611D01*
X9212653Y-13500611D02*
X9222177Y-13491088D01*
X9222177Y-13491088D02*
X9241225Y-13481564D01*
X9431701Y-13481564D02*
X9450749Y-13481564D01*
X9450749Y-13481564D02*
X9469796Y-13491088D01*
X9469796Y-13491088D02*
X9479320Y-13500611D01*
X9479320Y-13500611D02*
X9488844Y-13519659D01*
X9488844Y-13519659D02*
X9498368Y-13557754D01*
X9498368Y-13557754D02*
X9498368Y-13605373D01*
X9498368Y-13605373D02*
X9488844Y-13643469D01*
X9488844Y-13643469D02*
X9479320Y-13662516D01*
X9479320Y-13662516D02*
X9469796Y-13672040D01*
X9469796Y-13672040D02*
X9450749Y-13681564D01*
X9450749Y-13681564D02*
X9431701Y-13681564D01*
X9431701Y-13681564D02*
X9412653Y-13672040D01*
X9412653Y-13672040D02*
X9403129Y-13662516D01*
X9403129Y-13662516D02*
X9393606Y-13643469D01*
X9393606Y-13643469D02*
X9384082Y-13605373D01*
X9384082Y-13605373D02*
X9384082Y-13557754D01*
X9384082Y-13557754D02*
X9393606Y-13519659D01*
X9393606Y-13519659D02*
X9403129Y-13500611D01*
X9403129Y-13500611D02*
X9412653Y-13491088D01*
X9412653Y-13491088D02*
X9431701Y-13481564D01*
X9584082Y-13681564D02*
X9584082Y-13548230D01*
X9584082Y-13567278D02*
X9593606Y-13557754D01*
X9593606Y-13557754D02*
X9612653Y-13548230D01*
X9612653Y-13548230D02*
X9641225Y-13548230D01*
X9641225Y-13548230D02*
X9660272Y-13557754D01*
X9660272Y-13557754D02*
X9669796Y-13576802D01*
X9669796Y-13576802D02*
X9669796Y-13681564D01*
X9669796Y-13576802D02*
X9679320Y-13557754D01*
X9679320Y-13557754D02*
X9698368Y-13548230D01*
X9698368Y-13548230D02*
X9726939Y-13548230D01*
X9726939Y-13548230D02*
X9745987Y-13557754D01*
X9745987Y-13557754D02*
X9755510Y-13576802D01*
X9755510Y-13576802D02*
X9755510Y-13681564D01*
X9850749Y-13681564D02*
X9850749Y-13548230D01*
X9850749Y-13567278D02*
X9860272Y-13557754D01*
X9860272Y-13557754D02*
X9879320Y-13548230D01*
X9879320Y-13548230D02*
X9907891Y-13548230D01*
X9907891Y-13548230D02*
X9926939Y-13557754D01*
X9926939Y-13557754D02*
X9936463Y-13576802D01*
X9936463Y-13576802D02*
X9936463Y-13681564D01*
X9936463Y-13576802D02*
X9945987Y-13557754D01*
X9945987Y-13557754D02*
X9965034Y-13548230D01*
X9965034Y-13548230D02*
X9993606Y-13548230D01*
X9993606Y-13548230D02*
X10012653Y-13557754D01*
X10012653Y-13557754D02*
X10022177Y-13576802D01*
X10022177Y-13576802D02*
X10022177Y-13681564D01*
X10412653Y-13472040D02*
X10241225Y-13729183D01*
X10669796Y-13481564D02*
X10688844Y-13481564D01*
X10688844Y-13481564D02*
X10707892Y-13491088D01*
X10707892Y-13491088D02*
X10717415Y-13500611D01*
X10717415Y-13500611D02*
X10726939Y-13519659D01*
X10726939Y-13519659D02*
X10736463Y-13557754D01*
X10736463Y-13557754D02*
X10736463Y-13605373D01*
X10736463Y-13605373D02*
X10726939Y-13643469D01*
X10726939Y-13643469D02*
X10717415Y-13662516D01*
X10717415Y-13662516D02*
X10707892Y-13672040D01*
X10707892Y-13672040D02*
X10688844Y-13681564D01*
X10688844Y-13681564D02*
X10669796Y-13681564D01*
X10669796Y-13681564D02*
X10650749Y-13672040D01*
X10650749Y-13672040D02*
X10641225Y-13662516D01*
X10641225Y-13662516D02*
X10631701Y-13643469D01*
X10631701Y-13643469D02*
X10622177Y-13605373D01*
X10622177Y-13605373D02*
X10622177Y-13557754D01*
X10622177Y-13557754D02*
X10631701Y-13519659D01*
X10631701Y-13519659D02*
X10641225Y-13500611D01*
X10641225Y-13500611D02*
X10650749Y-13491088D01*
X10650749Y-13491088D02*
X10669796Y-13481564D01*
X10822177Y-13662516D02*
X10831701Y-13672040D01*
X10831701Y-13672040D02*
X10822177Y-13681564D01*
X10822177Y-13681564D02*
X10812653Y-13672040D01*
X10812653Y-13672040D02*
X10822177Y-13662516D01*
X10822177Y-13662516D02*
X10822177Y-13681564D01*
X10955511Y-13481564D02*
X10974558Y-13481564D01*
X10974558Y-13481564D02*
X10993606Y-13491088D01*
X10993606Y-13491088D02*
X11003130Y-13500611D01*
X11003130Y-13500611D02*
X11012653Y-13519659D01*
X11012653Y-13519659D02*
X11022177Y-13557754D01*
X11022177Y-13557754D02*
X11022177Y-13605373D01*
X11022177Y-13605373D02*
X11012653Y-13643469D01*
X11012653Y-13643469D02*
X11003130Y-13662516D01*
X11003130Y-13662516D02*
X10993606Y-13672040D01*
X10993606Y-13672040D02*
X10974558Y-13681564D01*
X10974558Y-13681564D02*
X10955511Y-13681564D01*
X10955511Y-13681564D02*
X10936463Y-13672040D01*
X10936463Y-13672040D02*
X10926939Y-13662516D01*
X10926939Y-13662516D02*
X10917415Y-13643469D01*
X10917415Y-13643469D02*
X10907892Y-13605373D01*
X10907892Y-13605373D02*
X10907892Y-13557754D01*
X10907892Y-13557754D02*
X10917415Y-13519659D01*
X10917415Y-13519659D02*
X10926939Y-13500611D01*
X10926939Y-13500611D02*
X10936463Y-13491088D01*
X10936463Y-13491088D02*
X10955511Y-13481564D01*
X11088844Y-13481564D02*
X11222177Y-13481564D01*
X11222177Y-13481564D02*
X11136463Y-13681564D01*
X11326939Y-13567278D02*
X11307891Y-13557754D01*
X11307891Y-13557754D02*
X11298368Y-13548230D01*
X11298368Y-13548230D02*
X11288844Y-13529183D01*
X11288844Y-13529183D02*
X11288844Y-13519659D01*
X11288844Y-13519659D02*
X11298368Y-13500611D01*
X11298368Y-13500611D02*
X11307891Y-13491088D01*
X11307891Y-13491088D02*
X11326939Y-13481564D01*
X11326939Y-13481564D02*
X11365034Y-13481564D01*
X11365034Y-13481564D02*
X11384082Y-13491088D01*
X11384082Y-13491088D02*
X11393606Y-13500611D01*
X11393606Y-13500611D02*
X11403130Y-13519659D01*
X11403130Y-13519659D02*
X11403130Y-13529183D01*
X11403130Y-13529183D02*
X11393606Y-13548230D01*
X11393606Y-13548230D02*
X11384082Y-13557754D01*
X11384082Y-13557754D02*
X11365034Y-13567278D01*
X11365034Y-13567278D02*
X11326939Y-13567278D01*
X11326939Y-13567278D02*
X11307891Y-13576802D01*
X11307891Y-13576802D02*
X11298368Y-13586326D01*
X11298368Y-13586326D02*
X11288844Y-13605373D01*
X11288844Y-13605373D02*
X11288844Y-13643469D01*
X11288844Y-13643469D02*
X11298368Y-13662516D01*
X11298368Y-13662516D02*
X11307891Y-13672040D01*
X11307891Y-13672040D02*
X11326939Y-13681564D01*
X11326939Y-13681564D02*
X11365034Y-13681564D01*
X11365034Y-13681564D02*
X11384082Y-13672040D01*
X11384082Y-13672040D02*
X11393606Y-13662516D01*
X11393606Y-13662516D02*
X11403130Y-13643469D01*
X11403130Y-13643469D02*
X11403130Y-13605373D01*
X11403130Y-13605373D02*
X11393606Y-13586326D01*
X11393606Y-13586326D02*
X11384082Y-13576802D01*
X11384082Y-13576802D02*
X11365034Y-13567278D01*
X11469796Y-13481564D02*
X11603130Y-13481564D01*
X11603130Y-13481564D02*
X11517415Y-13681564D01*
X11669796Y-13481564D02*
X11669796Y-13519659D01*
X11745987Y-13481564D02*
X11745987Y-13519659D01*
X12041225Y-13757754D02*
X12031701Y-13748230D01*
X12031701Y-13748230D02*
X12012653Y-13719659D01*
X12012653Y-13719659D02*
X12003130Y-13700611D01*
X12003130Y-13700611D02*
X11993606Y-13672040D01*
X11993606Y-13672040D02*
X11984082Y-13624421D01*
X11984082Y-13624421D02*
X11984082Y-13586326D01*
X11984082Y-13586326D02*
X11993606Y-13538707D01*
X11993606Y-13538707D02*
X12003130Y-13510135D01*
X12003130Y-13510135D02*
X12012653Y-13491088D01*
X12012653Y-13491088D02*
X12031701Y-13462516D01*
X12031701Y-13462516D02*
X12041225Y-13452992D01*
X12145987Y-13567278D02*
X12126939Y-13557754D01*
X12126939Y-13557754D02*
X12117415Y-13548230D01*
X12117415Y-13548230D02*
X12107892Y-13529183D01*
X12107892Y-13529183D02*
X12107892Y-13519659D01*
X12107892Y-13519659D02*
X12117415Y-13500611D01*
X12117415Y-13500611D02*
X12126939Y-13491088D01*
X12126939Y-13491088D02*
X12145987Y-13481564D01*
X12145987Y-13481564D02*
X12184082Y-13481564D01*
X12184082Y-13481564D02*
X12203130Y-13491088D01*
X12203130Y-13491088D02*
X12212653Y-13500611D01*
X12212653Y-13500611D02*
X12222177Y-13519659D01*
X12222177Y-13519659D02*
X12222177Y-13529183D01*
X12222177Y-13529183D02*
X12212653Y-13548230D01*
X12212653Y-13548230D02*
X12203130Y-13557754D01*
X12203130Y-13557754D02*
X12184082Y-13567278D01*
X12184082Y-13567278D02*
X12145987Y-13567278D01*
X12145987Y-13567278D02*
X12126939Y-13576802D01*
X12126939Y-13576802D02*
X12117415Y-13586326D01*
X12117415Y-13586326D02*
X12107892Y-13605373D01*
X12107892Y-13605373D02*
X12107892Y-13643469D01*
X12107892Y-13643469D02*
X12117415Y-13662516D01*
X12117415Y-13662516D02*
X12126939Y-13672040D01*
X12126939Y-13672040D02*
X12145987Y-13681564D01*
X12145987Y-13681564D02*
X12184082Y-13681564D01*
X12184082Y-13681564D02*
X12203130Y-13672040D01*
X12203130Y-13672040D02*
X12212653Y-13662516D01*
X12212653Y-13662516D02*
X12222177Y-13643469D01*
X12222177Y-13643469D02*
X12222177Y-13605373D01*
X12222177Y-13605373D02*
X12212653Y-13586326D01*
X12212653Y-13586326D02*
X12203130Y-13576802D01*
X12203130Y-13576802D02*
X12184082Y-13567278D01*
X12460273Y-13681564D02*
X12460273Y-13481564D01*
X12545987Y-13681564D02*
X12545987Y-13576802D01*
X12545987Y-13576802D02*
X12536463Y-13557754D01*
X12536463Y-13557754D02*
X12517415Y-13548230D01*
X12517415Y-13548230D02*
X12488844Y-13548230D01*
X12488844Y-13548230D02*
X12469796Y-13557754D01*
X12469796Y-13557754D02*
X12460273Y-13567278D01*
X12669796Y-13681564D02*
X12650749Y-13672040D01*
X12650749Y-13672040D02*
X12641225Y-13662516D01*
X12641225Y-13662516D02*
X12631701Y-13643469D01*
X12631701Y-13643469D02*
X12631701Y-13586326D01*
X12631701Y-13586326D02*
X12641225Y-13567278D01*
X12641225Y-13567278D02*
X12650749Y-13557754D01*
X12650749Y-13557754D02*
X12669796Y-13548230D01*
X12669796Y-13548230D02*
X12698368Y-13548230D01*
X12698368Y-13548230D02*
X12717415Y-13557754D01*
X12717415Y-13557754D02*
X12726939Y-13567278D01*
X12726939Y-13567278D02*
X12736463Y-13586326D01*
X12736463Y-13586326D02*
X12736463Y-13643469D01*
X12736463Y-13643469D02*
X12726939Y-13662516D01*
X12726939Y-13662516D02*
X12717415Y-13672040D01*
X12717415Y-13672040D02*
X12698368Y-13681564D01*
X12698368Y-13681564D02*
X12669796Y-13681564D01*
X12850749Y-13681564D02*
X12831701Y-13672040D01*
X12831701Y-13672040D02*
X12822177Y-13652992D01*
X12822177Y-13652992D02*
X12822177Y-13481564D01*
X13003130Y-13672040D02*
X12984082Y-13681564D01*
X12984082Y-13681564D02*
X12945987Y-13681564D01*
X12945987Y-13681564D02*
X12926939Y-13672040D01*
X12926939Y-13672040D02*
X12917415Y-13652992D01*
X12917415Y-13652992D02*
X12917415Y-13576802D01*
X12917415Y-13576802D02*
X12926939Y-13557754D01*
X12926939Y-13557754D02*
X12945987Y-13548230D01*
X12945987Y-13548230D02*
X12984082Y-13548230D01*
X12984082Y-13548230D02*
X13003130Y-13557754D01*
X13003130Y-13557754D02*
X13012654Y-13576802D01*
X13012654Y-13576802D02*
X13012654Y-13595850D01*
X13012654Y-13595850D02*
X12917415Y-13614897D01*
X13088844Y-13672040D02*
X13107892Y-13681564D01*
X13107892Y-13681564D02*
X13145987Y-13681564D01*
X13145987Y-13681564D02*
X13165035Y-13672040D01*
X13165035Y-13672040D02*
X13174558Y-13652992D01*
X13174558Y-13652992D02*
X13174558Y-13643469D01*
X13174558Y-13643469D02*
X13165035Y-13624421D01*
X13165035Y-13624421D02*
X13145987Y-13614897D01*
X13145987Y-13614897D02*
X13117415Y-13614897D01*
X13117415Y-13614897D02*
X13098368Y-13605373D01*
X13098368Y-13605373D02*
X13088844Y-13586326D01*
X13088844Y-13586326D02*
X13088844Y-13576802D01*
X13088844Y-13576802D02*
X13098368Y-13557754D01*
X13098368Y-13557754D02*
X13117415Y-13548230D01*
X13117415Y-13548230D02*
X13145987Y-13548230D01*
X13145987Y-13548230D02*
X13165035Y-13557754D01*
X13241225Y-13757754D02*
X13250749Y-13748230D01*
X13250749Y-13748230D02*
X13269796Y-13719659D01*
X13269796Y-13719659D02*
X13279320Y-13700611D01*
X13279320Y-13700611D02*
X13288844Y-13672040D01*
X13288844Y-13672040D02*
X13298368Y-13624421D01*
X13298368Y-13624421D02*
X13298368Y-13586326D01*
X13298368Y-13586326D02*
X13288844Y-13538707D01*
X13288844Y-13538707D02*
X13279320Y-13510135D01*
X13279320Y-13510135D02*
X13269796Y-13491088D01*
X13269796Y-13491088D02*
X13250749Y-13462516D01*
X13250749Y-13462516D02*
X13241225Y-13452992D01*
M02*
