%TF.GenerationSoftware,KiCad,Pcbnew,8.0.6*%
%TF.CreationDate,2025-07-15T00:14:33+02:00*%
%TF.ProjectId,combined,636f6d62-696e-4656-942e-6b696361645f,v1.0.0*%
%TF.SameCoordinates,Original*%
%TF.FileFunction,Paste,Top*%
%TF.FilePolarity,Positive*%
%FSLAX46Y46*%
G04 Gerber Fmt 4.6, Leading zero omitted, Abs format (unit mm)*
G04 Created by KiCad (PCBNEW 8.0.6) date 2025-07-15 00:14:33*
%MOMM*%
%LPD*%
G01*
G04 APERTURE LIST*
G04 Aperture macros list*
%AMRotRect*
0 Rectangle, with rotation*
0 The origin of the aperture is its center*
0 $1 length*
0 $2 width*
0 $3 Rotation angle, in degrees counterclockwise*
0 Add horizontal line*
21,1,$1,$2,0,0,$3*%
G04 Aperture macros list end*
%ADD10R,0.900000X1.200000*%
%ADD11RotRect,2.000000X2.000000X351.000000*%
%ADD12RotRect,1.550000X2.000000X351.000000*%
%ADD13RotRect,2.000000X2.000000X20.000000*%
%ADD14RotRect,1.550000X2.000000X20.000000*%
%ADD15RotRect,0.900000X1.200000X351.000000*%
%ADD16RotRect,2.000000X2.000000X9.000000*%
%ADD17RotRect,1.550000X2.000000X9.000000*%
%ADD18R,2.000000X2.000000*%
%ADD19R,1.550000X2.000000*%
%ADD20RotRect,0.900000X1.200000X356.000000*%
%ADD21RotRect,2.000000X2.000000X356.000000*%
%ADD22RotRect,1.550000X2.000000X356.000000*%
%ADD23RotRect,0.900000X1.200000X9.000000*%
%ADD24RotRect,0.900000X1.200000X4.000000*%
%ADD25RotRect,2.000000X2.000000X340.000000*%
%ADD26RotRect,1.550000X2.000000X340.000000*%
%ADD27RotRect,0.900000X1.200000X355.000000*%
%ADD28RotRect,2.000000X2.000000X4.000000*%
%ADD29RotRect,1.550000X2.000000X4.000000*%
%ADD30C,1.700000*%
%ADD31C,1.500000*%
%ADD32RotRect,2.000000X2.000000X355.000000*%
%ADD33RotRect,1.550000X2.000000X355.000000*%
%ADD34RotRect,0.900000X1.200000X20.000000*%
%ADD35RotRect,0.700000X1.500000X161.000000*%
%ADD36RotRect,1.000000X0.800000X161.000000*%
%ADD37RotRect,0.900000X1.200000X340.000000*%
%ADD38RotRect,0.700000X1.500000X199.000000*%
%ADD39RotRect,1.000000X0.800000X199.000000*%
%ADD40RotRect,0.900000X1.200000X5.000000*%
%ADD41RotRect,2.000000X2.000000X5.000000*%
%ADD42RotRect,1.550000X2.000000X5.000000*%
G04 APERTURE END LIST*
D10*
%TO.C,D16*%
X187807409Y-80899997D03*
X184507413Y-80899999D03*
%TD*%
D11*
%TO.C,CPG1316*%
X328996883Y-73779932D03*
X327119666Y-85632191D03*
X316453244Y-71793221D03*
X314576027Y-83645480D03*
D12*
X323841123Y-81721162D03*
X318902681Y-80938987D03*
%TD*%
D11*
%TO.C,CPG1316*%
X343128199Y-93230014D03*
X341250982Y-105082273D03*
X330584560Y-91243303D03*
X328707343Y-103095562D03*
D12*
X337972439Y-101171244D03*
X333033997Y-100389069D03*
%TD*%
D13*
%TO.C,CPG1316*%
X240427984Y-110536852D03*
X236323737Y-99260538D03*
X228493889Y-114880508D03*
X224389642Y-103604194D03*
D14*
X235664396Y-108705663D03*
X230965936Y-110415762D03*
%TD*%
D15*
%TO.C,D1*%
X337969831Y-95754146D03*
X334710459Y-95237914D03*
%TD*%
D16*
%TO.C,CPG1316*%
X105631503Y-86304032D03*
X103754288Y-74451775D03*
X93087862Y-88290749D03*
X91210647Y-76438492D03*
D17*
X101304845Y-83597545D03*
X96366406Y-84379717D03*
%TD*%
D18*
%TO.C,CPG1316*%
X291190818Y-69600820D03*
X291190816Y-81600812D03*
X278490822Y-69600822D03*
X278490820Y-81600814D03*
D19*
X287340817Y-78250823D03*
X282340819Y-78250817D03*
%TD*%
D18*
%TO.C,CPG1316*%
X175507421Y-70600000D03*
X175507413Y-58600009D03*
X162807419Y-70599995D03*
X162807411Y-58600004D03*
D19*
X171657417Y-67249999D03*
X166657414Y-67250000D03*
%TD*%
D10*
%TO.C,D18*%
X187807416Y-46900000D03*
X184507420Y-46900002D03*
%TD*%
D20*
%TO.C,D7*%
X304282510Y-79265925D03*
X300990548Y-79035733D03*
%TD*%
D11*
%TO.C,CPG1316*%
X331656264Y-56989222D03*
X329779047Y-68841481D03*
X319112625Y-55002511D03*
X317235408Y-66854770D03*
D12*
X326500504Y-64930452D03*
X321562062Y-64148277D03*
%TD*%
D18*
%TO.C,CPG1316*%
X174507426Y-107599994D03*
X174507418Y-95600003D03*
X161807424Y-107599989D03*
X161807416Y-95599998D03*
D19*
X170657422Y-104249993D03*
X165657419Y-104249994D03*
%TD*%
D18*
%TO.C,CPG1316*%
X274190816Y-58600820D03*
X274190814Y-70600812D03*
X261490820Y-58600822D03*
X261490818Y-70600814D03*
D19*
X270340815Y-67250823D03*
X265340817Y-67250817D03*
%TD*%
D21*
%TO.C,CPG1316*%
X309201260Y-76301829D03*
X308364179Y-88272595D03*
X296532197Y-75415917D03*
X295695116Y-87386683D03*
D22*
X304757243Y-84662193D03*
X299769420Y-84313405D03*
%TD*%
D15*
%TO.C,D4*%
X321179124Y-93094759D03*
X317919752Y-92578527D03*
%TD*%
D18*
%TO.C,CPG1316*%
X158507423Y-81599999D03*
X158507415Y-69600008D03*
X145807421Y-81599994D03*
X145807413Y-69600003D03*
D19*
X154657419Y-78249998D03*
X149657416Y-78249999D03*
%TD*%
D10*
%TO.C,D16*%
X252490812Y-80900820D03*
X249190818Y-80900824D03*
%TD*%
D18*
%TO.C,CPG1316*%
X175507426Y-53600001D03*
X175507418Y-41600010D03*
X162807424Y-53599996D03*
X162807416Y-41600005D03*
D19*
X171657422Y-50250000D03*
X166657419Y-50250001D03*
%TD*%
D23*
%TO.C,D4*%
X119078485Y-92577708D03*
X115819113Y-93093942D03*
%TD*%
D18*
%TO.C,CPG1316*%
X192507419Y-55599990D03*
X192507411Y-43599999D03*
X179807417Y-55599985D03*
X179807409Y-43599994D03*
D19*
X188657415Y-52249989D03*
X183657412Y-52249990D03*
%TD*%
D10*
%TO.C,D12*%
X286490817Y-38900810D03*
X283190823Y-38900814D03*
%TD*%
%TO.C,D14*%
X269490814Y-61900813D03*
X266190820Y-61900817D03*
%TD*%
D24*
%TO.C,D9*%
X133635957Y-45117736D03*
X130344005Y-45347924D03*
%TD*%
D23*
%TO.C,D6*%
X113759709Y-58996305D03*
X110500337Y-59512539D03*
%TD*%
D25*
%TO.C,CPG1316*%
X208504343Y-114879686D03*
X212608581Y-103603379D03*
X196570257Y-110536035D03*
X200674495Y-99259728D03*
D26*
X206032298Y-110414942D03*
X201333833Y-108704849D03*
%TD*%
D27*
%TO.C,D20*%
X187776145Y-100112414D03*
X184488707Y-99824794D03*
%TD*%
D15*
%TO.C,D3*%
X343288602Y-62172742D03*
X340029230Y-61656510D03*
%TD*%
D20*
%TO.C,D8*%
X305468372Y-62307341D03*
X302176410Y-62077149D03*
%TD*%
D11*
%TO.C,CPG1316*%
X345787583Y-76439311D03*
X343910366Y-88291570D03*
X333243944Y-74452600D03*
X331366727Y-86304859D03*
D12*
X340631823Y-84380541D03*
X335693381Y-83598366D03*
%TD*%
D10*
%TO.C,D13*%
X269490818Y-78900813D03*
X266190824Y-78900817D03*
%TD*%
%TO.C,D14*%
X170807409Y-61899993D03*
X167507413Y-61899995D03*
%TD*%
D11*
%TO.C,CPG1316*%
X348446969Y-59648610D03*
X346569752Y-71500869D03*
X335903330Y-57661899D03*
X334026113Y-69514158D03*
D12*
X343291209Y-67589840D03*
X338352767Y-66807665D03*
%TD*%
D28*
%TO.C,CPG1316*%
X140117257Y-70427272D03*
X139280171Y-58456515D03*
X127448197Y-71313181D03*
X126611111Y-59342424D03*
D29*
X136042948Y-67353999D03*
X131055125Y-67702783D03*
%TD*%
D10*
%TO.C,D15*%
X170807412Y-44899995D03*
X167507416Y-44899997D03*
%TD*%
D16*
%TO.C,CPG1316*%
X108290898Y-103094742D03*
X106413683Y-91242485D03*
X95747257Y-105081459D03*
X93870042Y-93229202D03*
D17*
X103964240Y-100388255D03*
X99025801Y-101170427D03*
%TD*%
D11*
%TO.C,CPG1316*%
X326337501Y-90570631D03*
X324460284Y-102422890D03*
X313793862Y-88583920D03*
X311916645Y-100436179D03*
D12*
X321181741Y-98511861D03*
X316243299Y-97729686D03*
%TD*%
D18*
%TO.C,CPG1316*%
X291190823Y-52600823D03*
X291190821Y-64600815D03*
X278490827Y-52600825D03*
X278490825Y-64600817D03*
D19*
X287340822Y-61250826D03*
X282340824Y-61250820D03*
%TD*%
D18*
%TO.C,CPG1316*%
X275190817Y-95600824D03*
X275190815Y-107600816D03*
X262490821Y-95600826D03*
X262490819Y-107600818D03*
D19*
X271340816Y-104250827D03*
X266340818Y-104250821D03*
%TD*%
D10*
%TO.C,D19*%
X270490815Y-98900816D03*
X267190821Y-98900820D03*
%TD*%
D18*
%TO.C,CPG1316*%
X257190815Y-43600823D03*
X257190813Y-55600815D03*
X244490819Y-43600825D03*
X244490817Y-55600817D03*
D19*
X253340814Y-52250826D03*
X248340816Y-52250820D03*
%TD*%
D10*
%TO.C,D17*%
X252490811Y-63900822D03*
X249190817Y-63900826D03*
%TD*%
%TO.C,D18*%
X252490815Y-46900818D03*
X249190821Y-46900822D03*
%TD*%
D28*
%TO.C,CPG1316*%
X141303117Y-87385856D03*
X140466031Y-75415099D03*
X128634057Y-88271765D03*
X127796971Y-76301008D03*
D29*
X137228808Y-84312583D03*
X132240985Y-84661367D03*
%TD*%
D10*
%TO.C,D11*%
X286490815Y-55900818D03*
X283190821Y-55900822D03*
%TD*%
D18*
%TO.C,CPG1316*%
X192507424Y-72599997D03*
X192507416Y-60600006D03*
X179807422Y-72599992D03*
X179807414Y-60600001D03*
D19*
X188657420Y-69249996D03*
X183657417Y-69249997D03*
%TD*%
D15*
%TO.C,D5*%
X323838509Y-76304057D03*
X320579137Y-75787825D03*
%TD*%
D10*
%TO.C,D19*%
X169807417Y-98899997D03*
X166507421Y-98899999D03*
%TD*%
%TO.C,D11*%
X153807418Y-55900002D03*
X150507422Y-55900004D03*
%TD*%
D18*
%TO.C,CPG1316*%
X158507417Y-64599995D03*
X158507409Y-52600004D03*
X145807415Y-64599990D03*
X145807407Y-52599999D03*
D19*
X154657413Y-61249994D03*
X149657410Y-61249995D03*
%TD*%
D10*
%TO.C,D10*%
X153807408Y-72899996D03*
X150507412Y-72899998D03*
%TD*%
D16*
%TO.C,CPG1316*%
X125081595Y-100435352D03*
X123204380Y-88583095D03*
X112537954Y-102422069D03*
X110660739Y-90569812D03*
D17*
X120754937Y-97728865D03*
X115816498Y-98511037D03*
%TD*%
D15*
%TO.C,D6*%
X326497899Y-59513359D03*
X323238527Y-58997127D03*
%TD*%
D24*
%TO.C,D8*%
X134821815Y-62076324D03*
X131529863Y-62306512D03*
%TD*%
D30*
%TO.C,REF\u002A\u002A*%
X207372413Y-42871498D03*
X204832413Y-42871506D03*
X207372420Y-40331502D03*
X204832418Y-40331508D03*
D31*
X201157412Y-46681508D03*
X201157416Y-48586501D03*
%TD*%
D23*
%TO.C,D3*%
X96969003Y-61655690D03*
X93709631Y-62171924D03*
%TD*%
D21*
%TO.C,CPG1316*%
X311572979Y-42384654D03*
X310735898Y-54355420D03*
X298903916Y-41498742D03*
X298066835Y-53469508D03*
D22*
X307128962Y-50745018D03*
X302141139Y-50396230D03*
%TD*%
D18*
%TO.C,CPG1316*%
X257190816Y-77600816D03*
X257190814Y-89600808D03*
X244490820Y-77600818D03*
X244490818Y-89600810D03*
D19*
X253340815Y-86250819D03*
X248340817Y-86250813D03*
%TD*%
D18*
%TO.C,CPG1316*%
X175507416Y-87599999D03*
X175507408Y-75600008D03*
X162807414Y-87599994D03*
X162807406Y-75600003D03*
D19*
X171657412Y-84249998D03*
X166657409Y-84249999D03*
%TD*%
D32*
%TO.C,CPG1316*%
X192745872Y-97234600D03*
X191700000Y-109188933D03*
X180094200Y-96127715D03*
X179048328Y-108082048D03*
D33*
X188156624Y-105516126D03*
X183175652Y-105080346D03*
%TD*%
D18*
%TO.C,CPG1316*%
X158507419Y-47599997D03*
X158507411Y-35600006D03*
X145807417Y-47599992D03*
X145807409Y-35600001D03*
D19*
X154657415Y-44249996D03*
X149657412Y-44249997D03*
%TD*%
D23*
%TO.C,D5*%
X116419097Y-75787003D03*
X113159725Y-76303237D03*
%TD*%
D10*
%TO.C,D10*%
X286490812Y-72900814D03*
X283190818Y-72900818D03*
%TD*%
D34*
%TO.C,D21*%
X233035841Y-103969019D03*
X229934865Y-105097687D03*
%TD*%
D21*
%TO.C,CPG1316*%
X310387123Y-59343236D03*
X309550042Y-71314002D03*
X297718060Y-58457324D03*
X296880979Y-70428090D03*
D22*
X305943106Y-67703600D03*
X300955283Y-67354812D03*
%TD*%
D28*
%TO.C,CPG1316*%
X138931400Y-53468685D03*
X138094314Y-41497928D03*
X126262340Y-54354594D03*
X125425254Y-42383837D03*
D29*
X134857091Y-50395412D03*
X129869268Y-50744196D03*
%TD*%
D35*
%TO.C,PWR1*%
X164258179Y-36930383D03*
X165676451Y-37418737D03*
X168513020Y-38395446D03*
D36*
X163865574Y-33770406D03*
X170767860Y-36147055D03*
X163146075Y-35860005D03*
X170048360Y-38236653D03*
%TD*%
D10*
%TO.C,D13*%
X170807411Y-78899999D03*
X167507415Y-78900001D03*
%TD*%
D16*
%TO.C,CPG1316*%
X119762818Y-66853953D03*
X117885603Y-55001696D03*
X107219177Y-68840670D03*
X105341962Y-56988413D03*
D17*
X115436160Y-64147466D03*
X110497721Y-64929638D03*
%TD*%
D16*
%TO.C,CPG1316*%
X102972123Y-69513332D03*
X101094908Y-57661075D03*
X90428482Y-71500049D03*
X88551267Y-59647792D03*
D17*
X98645465Y-66806845D03*
X93707026Y-67589017D03*
%TD*%
D30*
%TO.C,REF\u002A\u002A*%
X232055814Y-42872319D03*
X229515813Y-42872316D03*
X232055823Y-40332320D03*
X229515820Y-40332318D03*
D31*
X225840815Y-46682319D03*
X225840819Y-48587311D03*
%TD*%
D23*
%TO.C,D2*%
X99628392Y-78446390D03*
X96369020Y-78962624D03*
%TD*%
D37*
%TO.C,D21*%
X207063370Y-105096864D03*
X203962392Y-103968196D03*
%TD*%
D10*
%TO.C,D17*%
X187807415Y-63899993D03*
X184507419Y-63899995D03*
%TD*%
D38*
%TO.C,PWR1*%
X268333517Y-38412511D03*
X269751795Y-37924156D03*
X272588346Y-36947456D03*
D39*
X272980952Y-33787480D03*
X266078660Y-36164129D03*
X273700453Y-35877072D03*
X266798169Y-38253718D03*
%TD*%
D24*
%TO.C,D7*%
X136007675Y-79034921D03*
X132715723Y-79265109D03*
%TD*%
D23*
%TO.C,D1*%
X102287775Y-95237093D03*
X99028403Y-95753327D03*
%TD*%
D20*
%TO.C,D9*%
X306654232Y-45348745D03*
X303362270Y-45118553D03*
%TD*%
D18*
%TO.C,CPG1316*%
X291190815Y-35600820D03*
X291190813Y-47600812D03*
X278490819Y-35600822D03*
X278490817Y-47600814D03*
D19*
X287340814Y-44250823D03*
X282340816Y-44250817D03*
%TD*%
D18*
%TO.C,CPG1316*%
X274190817Y-41600822D03*
X274190815Y-53600814D03*
X261490821Y-41600824D03*
X261490819Y-53600816D03*
D19*
X270340816Y-50250825D03*
X265340818Y-50250819D03*
%TD*%
D18*
%TO.C,CPG1316*%
X257190820Y-60600822D03*
X257190818Y-72600814D03*
X244490824Y-60600824D03*
X244490822Y-72600816D03*
D19*
X253340819Y-69250825D03*
X248340821Y-69250819D03*
%TD*%
D10*
%TO.C,D15*%
X269490813Y-44900814D03*
X266190819Y-44900818D03*
%TD*%
D18*
%TO.C,CPG1316*%
X274190820Y-75600819D03*
X274190818Y-87600811D03*
X261490824Y-75600821D03*
X261490822Y-87600813D03*
D19*
X270340819Y-84250822D03*
X265340821Y-84250816D03*
%TD*%
D16*
%TO.C,CPG1316*%
X122422204Y-83644647D03*
X120544989Y-71792390D03*
X109878563Y-85631364D03*
X108001348Y-73779107D03*
D17*
X118095546Y-80938160D03*
X113157107Y-81720332D03*
%TD*%
D40*
%TO.C,D20*%
X252509538Y-99825610D03*
X249222092Y-100113226D03*
%TD*%
D10*
%TO.C,D12*%
X153807420Y-38900002D03*
X150507424Y-38900004D03*
%TD*%
D18*
%TO.C,CPG1316*%
X192507420Y-89599993D03*
X192507412Y-77600002D03*
X179807418Y-89599988D03*
X179807410Y-77599997D03*
D19*
X188657416Y-86249992D03*
X183657413Y-86249993D03*
%TD*%
D15*
%TO.C,D2*%
X340629214Y-78963443D03*
X337369842Y-78447211D03*
%TD*%
D41*
%TO.C,CPG1316*%
X257949900Y-108082876D03*
X256904030Y-96128542D03*
X245298226Y-109189748D03*
X244252356Y-97235414D03*
D42*
X253822577Y-105081175D03*
X248841599Y-105516944D03*
%TD*%
M02*
