M48
; DRILL file {KiCad 8.0.6} date 2025-07-15T00:24:03+0200
; FORMAT={-:-/ absolute / inch / decimal}
; #@! TF.CreationDate,2025-07-15T00:24:03+02:00
; #@! TF.GenerationSoftware,Kicad,Pcbnew,8.0.6
; #@! TF.FileFunction,Plated,1,2,PTH
FMAT,2
INCH
; #@! TA.AperFunction,Plated,PTH,ViaDrill
T1C0.0118
; #@! TA.AperFunction,Plated,PTH,ComponentDrill
T2C0.0295
; #@! TA.AperFunction,Plated,PTH,ComponentDrill
T3C0.0350
; #@! TA.AperFunction,Plated,PTH,ComponentDrill
T4C0.0394
%
G90
G05
T1
X3.6427Y-2.4551
X3.7474Y-3.1162
X3.8521Y-3.7772
X3.8643Y-2.42
X3.969Y-3.0811
X4.0737Y-3.7421
X4.3037Y-2.3504
X4.4084Y-3.0115
X4.5131Y-3.6725
X4.5254Y-2.3153
X4.6301Y-2.9763
X4.7348Y-3.6374
X5.0845Y-1.7886
X5.1312Y-2.4563
X5.1779Y-3.124
X5.3084Y-1.773
X5.3551Y-2.4407
X5.4018Y-3.1083
X5.8782Y-1.5315
X5.8782Y-2.2008
X5.8782Y-2.8701
X6.1027Y-1.5315
X6.1027Y-2.2008
X6.1027Y-2.8701
X6.5082Y-3.8937
X6.5475Y-1.7677
X6.5475Y-3.1063
X6.5475Y-2.437
X6.7326Y-3.8937
X6.7719Y-3.1063
X6.7719Y-1.7677
X6.7719Y-2.437
X7.2163Y-3.926
X7.2168Y-2.5157
X7.2168Y-3.185
X7.2168Y-1.8465
X7.4398Y-3.9456
X7.4412Y-1.8465
X7.4412Y-3.185
X7.4412Y-2.5157
X7.9856Y-4.0771
X8.0748Y-1.996
X8.1965Y-4.1538
X9.0082Y-4.1539
X9.219Y-4.0771
X9.2522Y-2.0306
X9.2837Y-2.0306
X9.7207Y-1.6684
X9.7542Y-1.6704
X9.7634Y-3.1851
X9.7634Y-2.5158
X9.7634Y-1.8465
X9.7648Y-3.9456
X9.9878Y-1.8465
X9.9878Y-2.5158
X9.9878Y-3.1851
X9.9884Y-3.926
X10.4327Y-1.7677
X10.4327Y-3.1063
X10.4327Y-2.437
X10.4721Y-3.8937
X10.6571Y-2.437
X10.6571Y-3.1063
X10.6571Y-1.7677
X10.6965Y-3.8937
X11.102Y-1.5315
X11.102Y-2.2008
X11.102Y-2.8701
X11.3264Y-2.2008
X11.3264Y-2.8701
X11.3264Y-1.5315
X11.8029Y-3.1083
X11.8496Y-2.4407
X11.8963Y-1.773
X12.0268Y-3.124
X12.0734Y-2.4563
X12.1201Y-1.7887
X12.4699Y-3.6374
X12.5746Y-2.9764
X12.6793Y-2.3153
X12.6915Y-3.6725
X12.7962Y-3.0115
X12.9009Y-2.3504
X13.1309Y-3.7421
X13.2356Y-3.0811
X13.3403Y-2.42
X13.3526Y-3.7772
X13.4573Y-3.1162
X13.562Y-2.4551
T2
X7.8603Y-2.3926
X7.939Y-2.3926
X9.2621Y-2.3908
X9.3408Y-2.3908
T3
X7.8164Y-1.6252
X7.8164Y-1.8252
X7.8164Y-2.1252
X7.8164Y-1.7252
X7.8164Y-1.9252
X7.8164Y-2.0252
X7.8164Y-2.2252
X8.4164Y-1.6252
X8.4164Y-1.8252
X8.4164Y-1.9252
X8.4164Y-2.1252
X8.4164Y-1.7252
X8.4164Y-2.0252
X8.4164Y-2.2252
X8.7882Y-2.2252
X8.7882Y-2.1252
X8.7882Y-1.7252
X8.7882Y-1.9252
X8.7882Y-2.0252
X8.7882Y-1.6252
X8.7882Y-1.8252
X9.3882Y-2.0252
X9.3882Y-2.2252
X9.3882Y-1.8252
X9.3882Y-1.9252
X9.3882Y-2.1252
X9.3882Y-1.7252
X9.3882Y-1.6252
T4
X3.6893Y-2.661
X3.794Y-3.322
X3.8837Y-2.6302
X3.8987Y-3.9831
X3.9884Y-3.2912
X4.0931Y-3.9523
X4.3503Y-2.5563
X4.455Y-3.2173
X4.4687Y-1.9626
X4.5447Y-2.5255
X4.5597Y-3.8784
X4.6494Y-3.1865
X4.6731Y-1.8086
X4.7541Y-3.8476
X5.113Y-1.9978
X5.1597Y-2.6655
X5.2063Y-3.3331
X5.3093Y-1.9841
X5.356Y-2.6517
X5.4027Y-3.3194
X5.892Y-2.4114
X5.892Y-1.7421
X5.892Y-3.0807
X6.0889Y-2.4114
X6.0889Y-1.7421
X6.0889Y-3.0807
X6.5219Y-4.1043
X6.5613Y-3.3169
X6.5613Y-2.6476
X6.5613Y-1.9783
X6.7188Y-4.1043
X6.7582Y-3.3169
X6.7582Y-2.6476
X6.7582Y-1.9783
X7.2116Y-4.137
X7.2306Y-2.0571
X7.2306Y-3.3957
X7.2306Y-2.7264
X7.4077Y-4.1542
X7.4275Y-2.0571
X7.4275Y-3.3957
X7.4275Y-2.7264
X7.9196Y-1.8379
X7.9196Y-1.9129
X7.9265Y-4.2797
X8.0643Y-1.6879
X8.0643Y-1.5879
X8.1115Y-4.347
X8.1643Y-1.6879
X8.1643Y-1.5879
X8.8914Y-1.8379
X8.8914Y-1.9129
X9.0361Y-1.6879
X9.0361Y-1.5879
X9.0931Y-4.3471
X9.1361Y-1.6879
X9.1361Y-1.5879
X9.2781Y-4.2798
X9.7772Y-2.0571
X9.7772Y-3.3957
X9.7772Y-2.7264
X9.7969Y-4.1542
X9.974Y-2.0571
X9.974Y-3.3957
X9.974Y-2.7264
X9.993Y-4.1371
X10.4465Y-2.6477
X10.4465Y-1.9784
X10.4465Y-3.317
X10.4859Y-4.1044
X10.6433Y-2.6477
X10.6433Y-1.9784
X10.6433Y-3.317
X10.6827Y-4.1044
X11.1158Y-1.7422
X11.1158Y-3.0807
X11.1158Y-2.4114
X11.3126Y-1.7422
X11.3126Y-3.0807
X11.3126Y-2.4114
X11.8019Y-3.3194
X11.8486Y-2.6518
X11.8953Y-1.9841
X11.9983Y-3.3332
X12.045Y-2.6655
X12.0917Y-1.9978
X12.4505Y-3.8476
X12.5315Y-1.8086
X12.5552Y-3.1866
X12.645Y-3.8784
X12.6599Y-2.5255
X12.7359Y-1.9626
X12.7497Y-3.2174
X12.8544Y-2.5563
X13.1116Y-3.9523
X13.2163Y-3.2913
X13.306Y-3.9831
X13.321Y-2.6302
X13.4107Y-3.3221
X13.5154Y-2.661
M30
