%TF.GenerationSoftware,KiCad,Pcbnew,8.0.6*%
%TF.CreationDate,2025-07-15T00:24:01+02:00*%
%TF.ProjectId,combined,636f6d62-696e-4656-942e-6b696361645f,v1.0.0*%
%TF.SameCoordinates,Original*%
%TF.FileFunction,Copper,L1,Top*%
%TF.FilePolarity,Positive*%
%FSLAX46Y46*%
G04 Gerber Fmt 4.6, Leading zero omitted, Abs format (unit mm)*
G04 Created by KiCad (PCBNEW 8.0.6) date 2025-07-15 00:24:01*
%MOMM*%
%LPD*%
G01*
G04 APERTURE LIST*
G04 Aperture macros list*
%AMRoundRect*
0 Rectangle with rounded corners*
0 $1 Rounding radius*
0 $2 $3 $4 $5 $6 $7 $8 $9 X,Y pos of 4 corners*
0 Add a 4 corners polygon primitive as box body*
4,1,4,$2,$3,$4,$5,$6,$7,$8,$9,$2,$3,0*
0 Add four circle primitives for the rounded corners*
1,1,$1+$1,$2,$3*
1,1,$1+$1,$4,$5*
1,1,$1+$1,$6,$7*
1,1,$1+$1,$8,$9*
0 Add four rect primitives between the rounded corners*
20,1,$1+$1,$2,$3,$4,$5,0*
20,1,$1+$1,$4,$5,$6,$7,0*
20,1,$1+$1,$6,$7,$8,$9,0*
20,1,$1+$1,$8,$9,$2,$3,0*%
%AMRotRect*
0 Rectangle, with rotation*
0 The origin of the aperture is its center*
0 $1 length*
0 $2 width*
0 $3 Rotation angle, in degrees counterclockwise*
0 Add horizontal line*
21,1,$1,$2,0,0,$3*%
G04 Aperture macros list end*
%TA.AperFunction,SMDPad,CuDef*%
%ADD10R,0.900000X1.200000*%
%TD*%
%TA.AperFunction,ComponentPad*%
%ADD11C,1.400000*%
%TD*%
%TA.AperFunction,SMDPad,CuDef*%
%ADD12RotRect,1.550000X2.000000X351.000000*%
%TD*%
%TA.AperFunction,SMDPad,CuDef*%
%ADD13RotRect,2.000000X2.000000X351.000000*%
%TD*%
%TA.AperFunction,SMDPad,CuDef*%
%ADD14RotRect,1.550000X2.000000X20.000000*%
%TD*%
%TA.AperFunction,SMDPad,CuDef*%
%ADD15RotRect,2.000000X2.000000X20.000000*%
%TD*%
%TA.AperFunction,SMDPad,CuDef*%
%ADD16RotRect,0.900000X1.200000X351.000000*%
%TD*%
%TA.AperFunction,SMDPad,CuDef*%
%ADD17RotRect,1.550000X2.000000X9.000000*%
%TD*%
%TA.AperFunction,SMDPad,CuDef*%
%ADD18RotRect,2.000000X2.000000X9.000000*%
%TD*%
%TA.AperFunction,SMDPad,CuDef*%
%ADD19R,1.550000X2.000000*%
%TD*%
%TA.AperFunction,SMDPad,CuDef*%
%ADD20R,2.000000X2.000000*%
%TD*%
%TA.AperFunction,SMDPad,CuDef*%
%ADD21RotRect,0.900000X1.200000X356.000000*%
%TD*%
%TA.AperFunction,SMDPad,CuDef*%
%ADD22RotRect,1.550000X2.000000X356.000000*%
%TD*%
%TA.AperFunction,SMDPad,CuDef*%
%ADD23RotRect,2.000000X2.000000X356.000000*%
%TD*%
%TA.AperFunction,ComponentPad*%
%ADD24RoundRect,0.240000X-0.360000X-0.635000X0.360000X-0.635000X0.360000X0.635000X-0.360000X0.635000X0*%
%TD*%
%TA.AperFunction,ComponentPad*%
%ADD25O,1.200000X1.750000*%
%TD*%
%TA.AperFunction,SMDPad,CuDef*%
%ADD26RotRect,0.900000X1.200000X9.000000*%
%TD*%
%TA.AperFunction,SMDPad,CuDef*%
%ADD27RotRect,0.900000X1.200000X4.000000*%
%TD*%
%TA.AperFunction,SMDPad,CuDef*%
%ADD28RotRect,1.550000X2.000000X340.000000*%
%TD*%
%TA.AperFunction,SMDPad,CuDef*%
%ADD29RotRect,2.000000X2.000000X340.000000*%
%TD*%
%TA.AperFunction,SMDPad,CuDef*%
%ADD30RotRect,0.900000X1.200000X355.000000*%
%TD*%
%TA.AperFunction,SMDPad,CuDef*%
%ADD31RotRect,1.550000X2.000000X4.000000*%
%TD*%
%TA.AperFunction,SMDPad,CuDef*%
%ADD32RotRect,2.000000X2.000000X4.000000*%
%TD*%
%TA.AperFunction,ComponentPad*%
%ADD33C,1.700000*%
%TD*%
%TA.AperFunction,SMDPad,CuDef*%
%ADD34RoundRect,0.152400X1.063600X0.609600X-1.063600X0.609600X-1.063600X-0.609600X1.063600X-0.609600X0*%
%TD*%
%TA.AperFunction,ComponentPad*%
%ADD35C,1.524000*%
%TD*%
%TA.AperFunction,SMDPad,CuDef*%
%ADD36RoundRect,0.152400X-1.063600X-0.609600X1.063600X-0.609600X1.063600X0.609600X-1.063600X0.609600X0*%
%TD*%
%TA.AperFunction,ComponentPad*%
%ADD37C,1.500000*%
%TD*%
%TA.AperFunction,SMDPad,CuDef*%
%ADD38RotRect,1.550000X2.000000X355.000000*%
%TD*%
%TA.AperFunction,SMDPad,CuDef*%
%ADD39RotRect,2.000000X2.000000X355.000000*%
%TD*%
%TA.AperFunction,SMDPad,CuDef*%
%ADD40RotRect,0.900000X1.200000X20.000000*%
%TD*%
%TA.AperFunction,SMDPad,CuDef*%
%ADD41RotRect,1.000000X0.800000X161.000000*%
%TD*%
%TA.AperFunction,SMDPad,CuDef*%
%ADD42RotRect,0.700000X1.500000X161.000000*%
%TD*%
%TA.AperFunction,SMDPad,CuDef*%
%ADD43RotRect,0.900000X1.200000X340.000000*%
%TD*%
%TA.AperFunction,SMDPad,CuDef*%
%ADD44RotRect,1.000000X0.800000X199.000000*%
%TD*%
%TA.AperFunction,SMDPad,CuDef*%
%ADD45RotRect,0.700000X1.500000X199.000000*%
%TD*%
%TA.AperFunction,SMDPad,CuDef*%
%ADD46RotRect,0.900000X1.200000X5.000000*%
%TD*%
%TA.AperFunction,SMDPad,CuDef*%
%ADD47RotRect,1.550000X2.000000X5.000000*%
%TD*%
%TA.AperFunction,SMDPad,CuDef*%
%ADD48RotRect,2.000000X2.000000X5.000000*%
%TD*%
%TA.AperFunction,ViaPad*%
%ADD49C,0.600000*%
%TD*%
%TA.AperFunction,Conductor*%
%ADD50C,0.200000*%
%TD*%
%TA.AperFunction,Conductor*%
%ADD51C,0.250000*%
%TD*%
G04 APERTURE END LIST*
D10*
%TO.P,D16,1*%
%TO.N,P2*%
X184507413Y-80899999D03*
%TO.P,D16,2*%
%TO.N,inner_bottom*%
X187807409Y-80899997D03*
%TD*%
D11*
%TO.P,CPG1316,1*%
%TO.N,P8*%
X318902681Y-80938987D03*
D12*
X318902681Y-80938987D03*
D11*
%TO.P,CPG1316,2*%
%TO.N,mirror_pinky_home*%
X323841123Y-81721162D03*
D12*
X323841123Y-81721162D03*
D13*
%TO.P,CPG1316,3*%
%TO.N,N/C*%
X314576027Y-83645480D03*
X316453244Y-71793221D03*
X327119666Y-85632191D03*
X328996883Y-73779932D03*
%TD*%
D11*
%TO.P,CPG1316,1*%
%TO.N,P9*%
X333033997Y-100389069D03*
D12*
X333033997Y-100389069D03*
D11*
%TO.P,CPG1316,2*%
%TO.N,mirror_outer_bottom*%
X337972439Y-101171244D03*
D12*
X337972439Y-101171244D03*
D13*
%TO.P,CPG1316,3*%
%TO.N,N/C*%
X328707343Y-103095562D03*
X330584560Y-91243303D03*
X341250982Y-105082273D03*
X343128199Y-93230014D03*
%TD*%
D11*
%TO.P,CPG1316,1*%
%TO.N,P4*%
X230965936Y-110415762D03*
D14*
X230965936Y-110415762D03*
D11*
%TO.P,CPG1316,2*%
%TO.N,mirror_far_thumb*%
X235664396Y-108705663D03*
D14*
X235664396Y-108705663D03*
D15*
%TO.P,CPG1316,3*%
%TO.N,N/C*%
X224389642Y-103604194D03*
X228493889Y-114880507D03*
X236323737Y-99260539D03*
X240427984Y-110536852D03*
%TD*%
D16*
%TO.P,D1,1*%
%TO.N,P2*%
X334710459Y-95237914D03*
%TO.P,D1,2*%
%TO.N,mirror_outer_bottom*%
X337969831Y-95754146D03*
%TD*%
D11*
%TO.P,CPG1316,1*%
%TO.N,P4*%
X96366406Y-84379717D03*
D17*
X96366406Y-84379717D03*
D11*
%TO.P,CPG1316,2*%
%TO.N,outer_home*%
X101304845Y-83597545D03*
D17*
X101304845Y-83597545D03*
D18*
%TO.P,CPG1316,3*%
%TO.N,N/C*%
X91210647Y-76438492D03*
X93087862Y-88290749D03*
X103754288Y-74451775D03*
X105631503Y-86304032D03*
%TD*%
D11*
%TO.P,CPG1316,1*%
%TO.N,P6*%
X282340819Y-78250817D03*
D19*
X282340819Y-78250817D03*
D11*
%TO.P,CPG1316,2*%
%TO.N,mirror_middle_bottom*%
X287340817Y-78250823D03*
D19*
X287340817Y-78250823D03*
D20*
%TO.P,CPG1316,3*%
%TO.N,N/C*%
X278490820Y-81600814D03*
X278490822Y-69600822D03*
X291190816Y-81600812D03*
X291190818Y-69600820D03*
%TD*%
D11*
%TO.P,CPG1316,1*%
%TO.N,P8*%
X166657414Y-67250000D03*
D19*
X166657414Y-67250000D03*
D11*
%TO.P,CPG1316,2*%
%TO.N,index_home*%
X171657417Y-67249999D03*
D19*
X171657417Y-67249999D03*
D20*
%TO.P,CPG1316,3*%
%TO.N,N/C*%
X162807411Y-58600004D03*
X162807419Y-70599995D03*
X175507413Y-58600009D03*
X175507421Y-70600000D03*
%TD*%
D10*
%TO.P,D18,1*%
%TO.N,P0*%
X184507420Y-46900002D03*
%TO.P,D18,2*%
%TO.N,inner_top*%
X187807416Y-46900000D03*
%TD*%
D21*
%TO.P,D7,1*%
%TO.N,P2*%
X300990548Y-79035733D03*
%TO.P,D7,2*%
%TO.N,mirror_ring_bottom*%
X304282510Y-79265925D03*
%TD*%
D11*
%TO.P,CPG1316,1*%
%TO.N,P8*%
X321562062Y-64148277D03*
D12*
X321562062Y-64148277D03*
D11*
%TO.P,CPG1316,2*%
%TO.N,mirror_pinky_top*%
X326500504Y-64930452D03*
D12*
X326500504Y-64930452D03*
D13*
%TO.P,CPG1316,3*%
%TO.N,N/C*%
X317235408Y-66854770D03*
X319112625Y-55002511D03*
X329779047Y-68841481D03*
X331656264Y-56989222D03*
%TD*%
D11*
%TO.P,CPG1316,1*%
%TO.N,P7*%
X165657419Y-104249994D03*
D19*
X165657419Y-104249994D03*
D11*
%TO.P,CPG1316,2*%
%TO.N,near_thumb*%
X170657422Y-104249993D03*
D19*
X170657422Y-104249993D03*
D20*
%TO.P,CPG1316,3*%
%TO.N,N/C*%
X161807416Y-95599998D03*
X161807424Y-107599989D03*
X174507418Y-95600003D03*
X174507426Y-107599994D03*
%TD*%
D11*
%TO.P,CPG1316,1*%
%TO.N,P5*%
X265340817Y-67250817D03*
D19*
X265340817Y-67250817D03*
D11*
%TO.P,CPG1316,2*%
%TO.N,mirror_index_home*%
X270340815Y-67250823D03*
D19*
X270340815Y-67250823D03*
D20*
%TO.P,CPG1316,3*%
%TO.N,N/C*%
X261490818Y-70600814D03*
X261490820Y-58600822D03*
X274190814Y-70600812D03*
X274190816Y-58600820D03*
%TD*%
D11*
%TO.P,CPG1316,1*%
%TO.N,P7*%
X299769420Y-84313405D03*
D22*
X299769420Y-84313405D03*
D11*
%TO.P,CPG1316,2*%
%TO.N,mirror_ring_bottom*%
X304757243Y-84662193D03*
D22*
X304757243Y-84662193D03*
D23*
%TO.P,CPG1316,3*%
%TO.N,N/C*%
X295695116Y-87386683D03*
X296532197Y-75415917D03*
X308364179Y-88272595D03*
X309201260Y-76301829D03*
%TD*%
D16*
%TO.P,D4,1*%
%TO.N,P2*%
X317919752Y-92578527D03*
%TO.P,D4,2*%
%TO.N,mirror_pinky_bottom*%
X321179124Y-93094759D03*
%TD*%
D11*
%TO.P,CPG1316,1*%
%TO.N,P7*%
X149657416Y-78249999D03*
D19*
X149657416Y-78249999D03*
D11*
%TO.P,CPG1316,2*%
%TO.N,middle_bottom*%
X154657419Y-78249998D03*
D19*
X154657419Y-78249998D03*
D20*
%TO.P,CPG1316,3*%
%TO.N,N/C*%
X145807413Y-69600003D03*
X145807421Y-81599994D03*
X158507415Y-69600008D03*
X158507423Y-81599999D03*
%TD*%
D24*
%TO.P,JST1,1*%
%TO.N,GND*%
X199650455Y-60772438D03*
D25*
%TO.P,JST1,2*%
%TO.N,BAT_P*%
X201650447Y-60772442D03*
%TD*%
D10*
%TO.P,D16,1*%
%TO.N,P2*%
X249190818Y-80900824D03*
%TO.P,D16,2*%
%TO.N,mirror_inner_bottom*%
X252490812Y-80900820D03*
%TD*%
D11*
%TO.P,CPG1316,1*%
%TO.N,P8*%
X166657419Y-50250001D03*
D19*
X166657419Y-50250001D03*
D11*
%TO.P,CPG1316,2*%
%TO.N,index_top*%
X171657422Y-50250000D03*
D19*
X171657422Y-50250000D03*
D20*
%TO.P,CPG1316,3*%
%TO.N,N/C*%
X162807416Y-41600005D03*
X162807424Y-53599996D03*
X175507418Y-41600010D03*
X175507426Y-53600001D03*
%TD*%
D26*
%TO.P,D4,1*%
%TO.N,P2*%
X115819113Y-93093942D03*
%TO.P,D4,2*%
%TO.N,pinky_bottom*%
X119078485Y-92577708D03*
%TD*%
D11*
%TO.P,CPG1316,1*%
%TO.N,P9*%
X183657412Y-52249990D03*
D19*
X183657412Y-52249990D03*
D11*
%TO.P,CPG1316,2*%
%TO.N,inner_top*%
X188657415Y-52249989D03*
D19*
X188657415Y-52249989D03*
D20*
%TO.P,CPG1316,3*%
%TO.N,N/C*%
X179807409Y-43599994D03*
X179807417Y-55599985D03*
X192507411Y-43599999D03*
X192507419Y-55599990D03*
%TD*%
D10*
%TO.P,D12,1*%
%TO.N,P0*%
X283190823Y-38900814D03*
%TO.P,D12,2*%
%TO.N,mirror_middle_top*%
X286490817Y-38900810D03*
%TD*%
%TO.P,D14,1*%
%TO.N,P1*%
X266190820Y-61900817D03*
%TO.P,D14,2*%
%TO.N,mirror_index_home*%
X269490814Y-61900813D03*
%TD*%
D27*
%TO.P,D9,1*%
%TO.N,P0*%
X130344005Y-45347924D03*
%TO.P,D9,2*%
%TO.N,ring_top*%
X133635957Y-45117736D03*
%TD*%
D26*
%TO.P,D6,1*%
%TO.N,P0*%
X110500337Y-59512539D03*
%TO.P,D6,2*%
%TO.N,pinky_top*%
X113759709Y-58996305D03*
%TD*%
D11*
%TO.P,CPG1316,1*%
%TO.N,P9*%
X201333833Y-108704849D03*
D28*
X201333833Y-108704849D03*
D11*
%TO.P,CPG1316,2*%
%TO.N,far_thumb*%
X206032298Y-110414942D03*
D28*
X206032298Y-110414942D03*
D29*
%TO.P,CPG1316,3*%
%TO.N,N/C*%
X200674495Y-99259728D03*
X196570257Y-110536035D03*
X212608581Y-103603379D03*
X208504343Y-114879686D03*
%TD*%
D30*
%TO.P,D20,1*%
%TO.N,P3*%
X184488707Y-99824794D03*
%TO.P,D20,2*%
%TO.N,home_thumb*%
X187776145Y-100112414D03*
%TD*%
D16*
%TO.P,D3,1*%
%TO.N,P0*%
X340029230Y-61656510D03*
%TO.P,D3,2*%
%TO.N,mirror_outer_top*%
X343288602Y-62172742D03*
%TD*%
D21*
%TO.P,D8,1*%
%TO.N,P1*%
X302176410Y-62077149D03*
%TO.P,D8,2*%
%TO.N,mirror_ring_home*%
X305468372Y-62307341D03*
%TD*%
D11*
%TO.P,CPG1316,1*%
%TO.N,P9*%
X335693381Y-83598366D03*
D12*
X335693381Y-83598366D03*
D11*
%TO.P,CPG1316,2*%
%TO.N,mirror_outer_home*%
X340631823Y-84380541D03*
D12*
X340631823Y-84380541D03*
D13*
%TO.P,CPG1316,3*%
%TO.N,N/C*%
X331366727Y-86304859D03*
X333243944Y-74452600D03*
X343910366Y-88291570D03*
X345787583Y-76439311D03*
%TD*%
D10*
%TO.P,D13,1*%
%TO.N,P2*%
X266190824Y-78900817D03*
%TO.P,D13,2*%
%TO.N,mirror_index_bottom*%
X269490818Y-78900813D03*
%TD*%
%TO.P,D14,1*%
%TO.N,P1*%
X167507413Y-61899995D03*
%TO.P,D14,2*%
%TO.N,index_home*%
X170807409Y-61899993D03*
%TD*%
D11*
%TO.P,CPG1316,1*%
%TO.N,P9*%
X338352767Y-66807665D03*
D12*
X338352767Y-66807665D03*
D11*
%TO.P,CPG1316,2*%
%TO.N,mirror_outer_top*%
X343291209Y-67589840D03*
D12*
X343291209Y-67589840D03*
D13*
%TO.P,CPG1316,3*%
%TO.N,N/C*%
X334026113Y-69514158D03*
X335903330Y-57661899D03*
X346569752Y-71500869D03*
X348446969Y-59648610D03*
%TD*%
D11*
%TO.P,CPG1316,1*%
%TO.N,P6*%
X131055125Y-67702783D03*
D31*
X131055125Y-67702783D03*
D11*
%TO.P,CPG1316,2*%
%TO.N,ring_home*%
X136042948Y-67353999D03*
D31*
X136042948Y-67353999D03*
D32*
%TO.P,CPG1316,3*%
%TO.N,N/C*%
X126611111Y-59342424D03*
X127448197Y-71313182D03*
X139280171Y-58456514D03*
X140117257Y-70427272D03*
%TD*%
D10*
%TO.P,D15,1*%
%TO.N,P0*%
X167507416Y-44899997D03*
%TO.P,D15,2*%
%TO.N,index_top*%
X170807412Y-44899995D03*
%TD*%
D33*
%TO.P,RST1,1*%
%TO.N,RST*%
X323492163Y-49849962D03*
%TO.P,RST1,2*%
%TO.N,GND*%
X318301025Y-45938172D03*
%TD*%
D11*
%TO.P,CPG1316,1*%
%TO.N,P4*%
X99025801Y-101170427D03*
D17*
X99025801Y-101170427D03*
D11*
%TO.P,CPG1316,2*%
%TO.N,outer_bottom*%
X103964240Y-100388255D03*
D17*
X103964240Y-100388255D03*
D18*
%TO.P,CPG1316,3*%
%TO.N,N/C*%
X93870042Y-93229202D03*
X95747257Y-105081459D03*
X106413683Y-91242485D03*
X108290898Y-103094742D03*
%TD*%
D11*
%TO.P,CPG1316,1*%
%TO.N,P8*%
X316243299Y-97729686D03*
D12*
X316243299Y-97729686D03*
D11*
%TO.P,CPG1316,2*%
%TO.N,mirror_pinky_bottom*%
X321181741Y-98511861D03*
D12*
X321181741Y-98511861D03*
D13*
%TO.P,CPG1316,3*%
%TO.N,N/C*%
X311916645Y-100436179D03*
X313793862Y-88583920D03*
X324460284Y-102422890D03*
X326337501Y-90570631D03*
%TD*%
D11*
%TO.P,CPG1316,1*%
%TO.N,P6*%
X282340824Y-61250820D03*
D19*
X282340824Y-61250820D03*
D11*
%TO.P,CPG1316,2*%
%TO.N,mirror_middle_home*%
X287340822Y-61250826D03*
D19*
X287340822Y-61250826D03*
D20*
%TO.P,CPG1316,3*%
%TO.N,N/C*%
X278490825Y-64600817D03*
X278490827Y-52600825D03*
X291190821Y-64600815D03*
X291190823Y-52600823D03*
%TD*%
D11*
%TO.P,CPG1316,1*%
%TO.N,P6*%
X266340818Y-104250821D03*
D19*
X266340818Y-104250821D03*
D11*
%TO.P,CPG1316,2*%
%TO.N,mirror_near_thumb*%
X271340816Y-104250827D03*
D19*
X271340816Y-104250827D03*
D20*
%TO.P,CPG1316,3*%
%TO.N,N/C*%
X262490819Y-107600818D03*
X262490821Y-95600826D03*
X275190815Y-107600816D03*
X275190817Y-95600824D03*
%TD*%
D10*
%TO.P,D19,1*%
%TO.N,P3*%
X267190821Y-98900820D03*
%TO.P,D19,2*%
%TO.N,mirror_near_thumb*%
X270490815Y-98900816D03*
%TD*%
D11*
%TO.P,CPG1316,1*%
%TO.N,P4*%
X248340816Y-52250820D03*
D19*
X248340816Y-52250820D03*
D11*
%TO.P,CPG1316,2*%
%TO.N,mirror_inner_top*%
X253340814Y-52250826D03*
D19*
X253340814Y-52250826D03*
D20*
%TO.P,CPG1316,3*%
%TO.N,N/C*%
X244490817Y-55600817D03*
X244490819Y-43600825D03*
X257190813Y-55600815D03*
X257190815Y-43600823D03*
%TD*%
D10*
%TO.P,D17,1*%
%TO.N,P1*%
X249190817Y-63900826D03*
%TO.P,D17,2*%
%TO.N,mirror_inner_home*%
X252490811Y-63900822D03*
%TD*%
%TO.P,D18,1*%
%TO.N,P0*%
X249190821Y-46900822D03*
%TO.P,D18,2*%
%TO.N,mirror_inner_top*%
X252490815Y-46900818D03*
%TD*%
D11*
%TO.P,CPG1316,1*%
%TO.N,P6*%
X132240985Y-84661367D03*
D31*
X132240985Y-84661367D03*
D11*
%TO.P,CPG1316,2*%
%TO.N,ring_bottom*%
X137228808Y-84312583D03*
D31*
X137228808Y-84312583D03*
D32*
%TO.P,CPG1316,3*%
%TO.N,N/C*%
X127796971Y-76301008D03*
X128634057Y-88271766D03*
X140466031Y-75415098D03*
X141303117Y-87385856D03*
%TD*%
D10*
%TO.P,D11,1*%
%TO.N,P1*%
X283190821Y-55900822D03*
%TO.P,D11,2*%
%TO.N,mirror_middle_home*%
X286490815Y-55900818D03*
%TD*%
D24*
%TO.P,JST1,1*%
%TO.N,GND*%
X235256214Y-60727526D03*
D25*
%TO.P,JST1,2*%
%TO.N,BAT_P*%
X237256210Y-60727522D03*
%TD*%
D11*
%TO.P,CPG1316,1*%
%TO.N,P9*%
X183657417Y-69249997D03*
D19*
X183657417Y-69249997D03*
D11*
%TO.P,CPG1316,2*%
%TO.N,inner_home*%
X188657420Y-69249996D03*
D19*
X188657420Y-69249996D03*
D20*
%TO.P,CPG1316,3*%
%TO.N,N/C*%
X179807414Y-60600001D03*
X179807422Y-72599992D03*
X192507416Y-60600006D03*
X192507424Y-72599997D03*
%TD*%
D16*
%TO.P,D5,1*%
%TO.N,P1*%
X320579137Y-75787825D03*
%TO.P,D5,2*%
%TO.N,mirror_pinky_home*%
X323838509Y-76304057D03*
%TD*%
D10*
%TO.P,D19,1*%
%TO.N,P3*%
X166507421Y-98899999D03*
%TO.P,D19,2*%
%TO.N,near_thumb*%
X169807417Y-98899997D03*
%TD*%
%TO.P,D11,1*%
%TO.N,P1*%
X150507422Y-55900004D03*
%TO.P,D11,2*%
%TO.N,middle_home*%
X153807418Y-55900002D03*
%TD*%
D11*
%TO.P,CPG1316,1*%
%TO.N,P7*%
X149657410Y-61249995D03*
D19*
X149657410Y-61249995D03*
D11*
%TO.P,CPG1316,2*%
%TO.N,middle_home*%
X154657413Y-61249994D03*
D19*
X154657413Y-61249994D03*
D20*
%TO.P,CPG1316,3*%
%TO.N,N/C*%
X145807407Y-52599999D03*
X145807415Y-64599990D03*
X158507409Y-52600004D03*
X158507417Y-64599995D03*
%TD*%
D10*
%TO.P,D10,1*%
%TO.N,P2*%
X150507412Y-72899998D03*
%TO.P,D10,2*%
%TO.N,middle_bottom*%
X153807408Y-72899996D03*
%TD*%
D11*
%TO.P,CPG1316,1*%
%TO.N,P5*%
X115816498Y-98511037D03*
D17*
X115816498Y-98511037D03*
D11*
%TO.P,CPG1316,2*%
%TO.N,pinky_bottom*%
X120754937Y-97728865D03*
D17*
X120754937Y-97728865D03*
D18*
%TO.P,CPG1316,3*%
%TO.N,N/C*%
X110660739Y-90569812D03*
X112537954Y-102422069D03*
X123204380Y-88583095D03*
X125081595Y-100435352D03*
%TD*%
D16*
%TO.P,D6,1*%
%TO.N,P0*%
X323238527Y-58997127D03*
%TO.P,D6,2*%
%TO.N,mirror_pinky_top*%
X326497899Y-59513359D03*
%TD*%
D27*
%TO.P,D8,1*%
%TO.N,P1*%
X131529863Y-62306512D03*
%TO.P,D8,2*%
%TO.N,ring_home*%
X134821815Y-62076324D03*
%TD*%
D34*
%TO.P,REF\u002A\u002A,1*%
%TO.N,P0*%
X197702416Y-41279999D03*
D35*
X198537412Y-41280008D03*
D34*
%TO.P,REF\u002A\u002A,2*%
%TO.N,P1*%
X197702415Y-43819998D03*
D35*
X198537418Y-43820005D03*
D34*
%TO.P,REF\u002A\u002A,3*%
%TO.N,P2*%
X197702414Y-46360003D03*
D35*
X198537414Y-46360005D03*
D34*
%TO.P,REF\u002A\u002A,4*%
%TO.N,P3*%
X197702413Y-48900001D03*
D35*
X198537419Y-48900002D03*
D34*
%TO.P,REF\u002A\u002A,5*%
%TO.N,P4*%
X197702417Y-51440003D03*
D35*
X198537420Y-51440004D03*
D34*
%TO.P,REF\u002A\u002A,6*%
%TO.N,P5*%
X197702419Y-53980010D03*
D35*
X198537417Y-53980006D03*
D34*
%TO.P,REF\u002A\u002A,7*%
%TO.N,P6*%
X197702415Y-56520004D03*
D35*
X198537420Y-56520008D03*
%TO.P,REF\u002A\u002A,8*%
%TO.N,P7*%
X213777420Y-56520000D03*
D36*
X214612416Y-56520009D03*
D35*
%TO.P,REF\u002A\u002A,9*%
%TO.N,P8*%
X213777414Y-53980003D03*
D36*
X214612417Y-53980010D03*
D35*
%TO.P,REF\u002A\u002A,10*%
%TO.N,P9*%
X213777418Y-51440003D03*
D36*
X214612418Y-51440005D03*
D35*
%TO.P,REF\u002A\u002A,11*%
%TO.N,P10*%
X213777413Y-48900006D03*
D36*
X214612419Y-48900007D03*
D35*
%TO.P,REF\u002A\u002A,12*%
%TO.N,VCC33*%
X213777412Y-46360004D03*
D36*
X214612415Y-46360005D03*
D35*
%TO.P,REF\u002A\u002A,13*%
%TO.N,GND*%
X213777415Y-43820002D03*
D36*
X214612413Y-43819998D03*
D35*
%TO.P,REF\u002A\u002A,14*%
%TO.N,VCC5*%
X213777412Y-41280000D03*
D36*
X214612417Y-41280004D03*
D37*
%TO.P,REF\u002A\u002A,15*%
%TO.N,RAW*%
X201157416Y-48586501D03*
%TO.P,REF\u002A\u002A,16*%
%TO.N,GND*%
X201157412Y-46681508D03*
D33*
%TO.P,REF\u002A\u002A,19*%
%TO.N,DIO*%
X204832418Y-40331508D03*
%TO.P,REF\u002A\u002A,20*%
%TO.N,CLK*%
X207372420Y-40331502D03*
%TO.P,REF\u002A\u002A,21*%
%TO.N,RST*%
X204832413Y-42871506D03*
%TO.P,REF\u002A\u002A,22*%
%TO.N,GND*%
X207372413Y-42871498D03*
%TD*%
D26*
%TO.P,D3,1*%
%TO.N,P0*%
X93709631Y-62171924D03*
%TO.P,D3,2*%
%TO.N,outer_top*%
X96969003Y-61655690D03*
%TD*%
D11*
%TO.P,CPG1316,1*%
%TO.N,P7*%
X302141139Y-50396230D03*
D22*
X302141139Y-50396230D03*
D11*
%TO.P,CPG1316,2*%
%TO.N,mirror_ring_top*%
X307128962Y-50745018D03*
D22*
X307128962Y-50745018D03*
D23*
%TO.P,CPG1316,3*%
%TO.N,N/C*%
X298066835Y-53469508D03*
X298903916Y-41498742D03*
X310735898Y-54355420D03*
X311572979Y-42384654D03*
%TD*%
D11*
%TO.P,CPG1316,1*%
%TO.N,P4*%
X248340817Y-86250813D03*
D19*
X248340817Y-86250813D03*
D11*
%TO.P,CPG1316,2*%
%TO.N,mirror_inner_bottom*%
X253340815Y-86250819D03*
D19*
X253340815Y-86250819D03*
D20*
%TO.P,CPG1316,3*%
%TO.N,N/C*%
X244490818Y-89600810D03*
X244490820Y-77600818D03*
X257190814Y-89600808D03*
X257190816Y-77600816D03*
%TD*%
D11*
%TO.P,CPG1316,1*%
%TO.N,P8*%
X166657409Y-84249999D03*
D19*
X166657409Y-84249999D03*
D11*
%TO.P,CPG1316,2*%
%TO.N,index_bottom*%
X171657412Y-84249998D03*
D19*
X171657412Y-84249998D03*
D20*
%TO.P,CPG1316,3*%
%TO.N,N/C*%
X162807406Y-75600003D03*
X162807414Y-87599994D03*
X175507408Y-75600008D03*
X175507416Y-87599999D03*
%TD*%
D11*
%TO.P,CPG1316,1*%
%TO.N,P8*%
X183175652Y-105080346D03*
D38*
X183175652Y-105080346D03*
D11*
%TO.P,CPG1316,2*%
%TO.N,home_thumb*%
X188156624Y-105516126D03*
D38*
X188156624Y-105516126D03*
D39*
%TO.P,CPG1316,3*%
%TO.N,N/C*%
X179048328Y-108082048D03*
X180094200Y-96127715D03*
X191700000Y-109188933D03*
X192745872Y-97234600D03*
%TD*%
D11*
%TO.P,CPG1316,1*%
%TO.N,P7*%
X149657412Y-44249997D03*
D19*
X149657412Y-44249997D03*
D11*
%TO.P,CPG1316,2*%
%TO.N,middle_top*%
X154657415Y-44249996D03*
D19*
X154657415Y-44249996D03*
D20*
%TO.P,CPG1316,3*%
%TO.N,N/C*%
X145807409Y-35600001D03*
X145807417Y-47599992D03*
X158507411Y-35600006D03*
X158507419Y-47599997D03*
%TD*%
D26*
%TO.P,D5,1*%
%TO.N,P1*%
X113159725Y-76303237D03*
%TO.P,D5,2*%
%TO.N,pinky_home*%
X116419097Y-75787003D03*
%TD*%
D10*
%TO.P,D10,1*%
%TO.N,P2*%
X283190818Y-72900818D03*
%TO.P,D10,2*%
%TO.N,mirror_middle_bottom*%
X286490812Y-72900814D03*
%TD*%
D40*
%TO.P,D21,1*%
%TO.N,P3*%
X229934865Y-105097687D03*
%TO.P,D21,2*%
%TO.N,mirror_far_thumb*%
X233035841Y-103969019D03*
%TD*%
D11*
%TO.P,CPG1316,1*%
%TO.N,P7*%
X300955283Y-67354812D03*
D22*
X300955283Y-67354812D03*
D11*
%TO.P,CPG1316,2*%
%TO.N,mirror_ring_home*%
X305943106Y-67703600D03*
D22*
X305943106Y-67703600D03*
D23*
%TO.P,CPG1316,3*%
%TO.N,N/C*%
X296880979Y-70428090D03*
X297718060Y-58457324D03*
X309550042Y-71314002D03*
X310387123Y-59343236D03*
%TD*%
D11*
%TO.P,CPG1316,1*%
%TO.N,P6*%
X129869268Y-50744196D03*
D31*
X129869268Y-50744196D03*
D11*
%TO.P,CPG1316,2*%
%TO.N,ring_top*%
X134857091Y-50395412D03*
D31*
X134857091Y-50395412D03*
D32*
%TO.P,CPG1316,3*%
%TO.N,N/C*%
X125425254Y-42383837D03*
X126262340Y-54354595D03*
X138094314Y-41497927D03*
X138931400Y-53468685D03*
%TD*%
D41*
%TO.P,PWR1,*%
%TO.N,*%
X170048360Y-38236653D03*
X163146075Y-35860005D03*
X170767860Y-36147055D03*
X163865574Y-33770406D03*
D42*
%TO.P,PWR1,1*%
%TO.N,N/C*%
X168513020Y-38395446D03*
%TO.P,PWR1,2*%
%TO.N,RAW*%
X165676451Y-37418737D03*
%TO.P,PWR1,3*%
%TO.N,BAT_P*%
X164258179Y-36930383D03*
%TD*%
D10*
%TO.P,D13,1*%
%TO.N,P2*%
X167507415Y-78900001D03*
%TO.P,D13,2*%
%TO.N,index_bottom*%
X170807411Y-78899999D03*
%TD*%
D11*
%TO.P,CPG1316,1*%
%TO.N,P5*%
X110497721Y-64929638D03*
D17*
X110497721Y-64929638D03*
D11*
%TO.P,CPG1316,2*%
%TO.N,pinky_top*%
X115436160Y-64147466D03*
D17*
X115436160Y-64147466D03*
D18*
%TO.P,CPG1316,3*%
%TO.N,N/C*%
X105341962Y-56988413D03*
X107219177Y-68840670D03*
X117885603Y-55001696D03*
X119762818Y-66853953D03*
%TD*%
D11*
%TO.P,CPG1316,1*%
%TO.N,P4*%
X93707026Y-67589017D03*
D17*
X93707026Y-67589017D03*
D11*
%TO.P,CPG1316,2*%
%TO.N,outer_top*%
X98645465Y-66806845D03*
D17*
X98645465Y-66806845D03*
D18*
%TO.P,CPG1316,3*%
%TO.N,N/C*%
X88551267Y-59647792D03*
X90428482Y-71500049D03*
X101094908Y-57661075D03*
X102972123Y-69513332D03*
%TD*%
D33*
%TO.P,RST1,1*%
%TO.N,RST*%
X118697211Y-45937361D03*
%TO.P,RST1,2*%
%TO.N,GND*%
X113506071Y-49849149D03*
%TD*%
D34*
%TO.P,REF\u002A\u002A,1*%
%TO.N,P0*%
X222385820Y-41280819D03*
D35*
X223220820Y-41280812D03*
D34*
%TO.P,REF\u002A\u002A,2*%
%TO.N,P1*%
X222385819Y-43820815D03*
D35*
X223220817Y-43820817D03*
D34*
%TO.P,REF\u002A\u002A,3*%
%TO.N,P2*%
X222385812Y-46360816D03*
D35*
X223220820Y-46360815D03*
D34*
%TO.P,REF\u002A\u002A,4*%
%TO.N,P3*%
X222385812Y-48900817D03*
D35*
X223220818Y-48900815D03*
D34*
%TO.P,REF\u002A\u002A,5*%
%TO.N,P4*%
X222385815Y-51440819D03*
D35*
X223220818Y-51440818D03*
D34*
%TO.P,REF\u002A\u002A,6*%
%TO.N,P5*%
X222385817Y-53980817D03*
D35*
X223220816Y-53980816D03*
D34*
%TO.P,REF\u002A\u002A,7*%
%TO.N,P6*%
X222385817Y-56520815D03*
D35*
X223220813Y-56520813D03*
%TO.P,REF\u002A\u002A,8*%
%TO.N,P7*%
X238460814Y-56520820D03*
D36*
X239295814Y-56520813D03*
D35*
%TO.P,REF\u002A\u002A,9*%
%TO.N,P8*%
X238460817Y-53980815D03*
D36*
X239295815Y-53980817D03*
D35*
%TO.P,REF\u002A\u002A,10*%
%TO.N,P9*%
X238460814Y-51440817D03*
D36*
X239295822Y-51440816D03*
D35*
%TO.P,REF\u002A\u002A,11*%
%TO.N,P10*%
X238460816Y-48900817D03*
D36*
X239295822Y-48900815D03*
D35*
%TO.P,REF\u002A\u002A,12*%
%TO.N,VCC33*%
X238460816Y-46360814D03*
D36*
X239295819Y-46360813D03*
D35*
%TO.P,REF\u002A\u002A,13*%
%TO.N,GND*%
X238460818Y-43820816D03*
D36*
X239295817Y-43820815D03*
D35*
%TO.P,REF\u002A\u002A,14*%
%TO.N,VCC5*%
X238460821Y-41280819D03*
D36*
X239295817Y-41280817D03*
D37*
%TO.P,REF\u002A\u002A,15*%
%TO.N,RAW*%
X225840819Y-48587311D03*
%TO.P,REF\u002A\u002A,16*%
%TO.N,GND*%
X225840815Y-46682319D03*
D33*
%TO.P,REF\u002A\u002A,19*%
%TO.N,DIO*%
X229515820Y-40332318D03*
%TO.P,REF\u002A\u002A,20*%
%TO.N,CLK*%
X232055823Y-40332320D03*
%TO.P,REF\u002A\u002A,21*%
%TO.N,RST*%
X229515813Y-42872316D03*
%TO.P,REF\u002A\u002A,22*%
%TO.N,GND*%
X232055814Y-42872319D03*
%TD*%
D26*
%TO.P,D2,1*%
%TO.N,P1*%
X96369020Y-78962624D03*
%TO.P,D2,2*%
%TO.N,outer_home*%
X99628392Y-78446390D03*
%TD*%
D43*
%TO.P,D21,1*%
%TO.N,P3*%
X203962392Y-103968196D03*
%TO.P,D21,2*%
%TO.N,far_thumb*%
X207063370Y-105096864D03*
%TD*%
D10*
%TO.P,D17,1*%
%TO.N,P1*%
X184507419Y-63899995D03*
%TO.P,D17,2*%
%TO.N,inner_home*%
X187807415Y-63899993D03*
%TD*%
D44*
%TO.P,PWR1,*%
%TO.N,*%
X266798169Y-38253719D03*
X273700453Y-35877072D03*
X272980952Y-33787480D03*
X266078660Y-36164129D03*
D45*
%TO.P,PWR1,1*%
%TO.N,N/C*%
X272588346Y-36947456D03*
%TO.P,PWR1,2*%
%TO.N,RAW*%
X269751795Y-37924156D03*
%TO.P,PWR1,3*%
%TO.N,BAT_P*%
X268333517Y-38412511D03*
%TD*%
D27*
%TO.P,D7,1*%
%TO.N,P2*%
X132715723Y-79265109D03*
%TO.P,D7,2*%
%TO.N,ring_bottom*%
X136007675Y-79034921D03*
%TD*%
D26*
%TO.P,D1,1*%
%TO.N,P2*%
X99028403Y-95753327D03*
%TO.P,D1,2*%
%TO.N,outer_bottom*%
X102287775Y-95237093D03*
%TD*%
D21*
%TO.P,D9,1*%
%TO.N,P0*%
X303362270Y-45118553D03*
%TO.P,D9,2*%
%TO.N,mirror_ring_top*%
X306654232Y-45348745D03*
%TD*%
D11*
%TO.P,CPG1316,1*%
%TO.N,P6*%
X282340816Y-44250817D03*
D19*
X282340816Y-44250817D03*
D11*
%TO.P,CPG1316,2*%
%TO.N,mirror_middle_top*%
X287340814Y-44250823D03*
D19*
X287340814Y-44250823D03*
D20*
%TO.P,CPG1316,3*%
%TO.N,N/C*%
X278490817Y-47600814D03*
X278490819Y-35600822D03*
X291190813Y-47600812D03*
X291190815Y-35600820D03*
%TD*%
D11*
%TO.P,CPG1316,1*%
%TO.N,P5*%
X265340818Y-50250819D03*
D19*
X265340818Y-50250819D03*
D11*
%TO.P,CPG1316,2*%
%TO.N,mirror_index_top*%
X270340816Y-50250825D03*
D19*
X270340816Y-50250825D03*
D20*
%TO.P,CPG1316,3*%
%TO.N,N/C*%
X261490819Y-53600816D03*
X261490821Y-41600824D03*
X274190815Y-53600814D03*
X274190817Y-41600822D03*
%TD*%
D11*
%TO.P,CPG1316,1*%
%TO.N,P4*%
X248340821Y-69250819D03*
D19*
X248340821Y-69250819D03*
D11*
%TO.P,CPG1316,2*%
%TO.N,mirror_inner_home*%
X253340819Y-69250825D03*
D19*
X253340819Y-69250825D03*
D20*
%TO.P,CPG1316,3*%
%TO.N,N/C*%
X244490822Y-72600816D03*
X244490824Y-60600824D03*
X257190818Y-72600814D03*
X257190820Y-60600822D03*
%TD*%
D10*
%TO.P,D15,1*%
%TO.N,P0*%
X266190819Y-44900818D03*
%TO.P,D15,2*%
%TO.N,mirror_index_top*%
X269490813Y-44900814D03*
%TD*%
D11*
%TO.P,CPG1316,1*%
%TO.N,P5*%
X265340821Y-84250816D03*
D19*
X265340821Y-84250816D03*
D11*
%TO.P,CPG1316,2*%
%TO.N,mirror_index_bottom*%
X270340819Y-84250822D03*
D19*
X270340819Y-84250822D03*
D20*
%TO.P,CPG1316,3*%
%TO.N,N/C*%
X261490822Y-87600813D03*
X261490824Y-75600821D03*
X274190818Y-87600811D03*
X274190820Y-75600819D03*
%TD*%
D11*
%TO.P,CPG1316,1*%
%TO.N,P5*%
X113157107Y-81720332D03*
D17*
X113157107Y-81720332D03*
D11*
%TO.P,CPG1316,2*%
%TO.N,pinky_home*%
X118095546Y-80938160D03*
D17*
X118095546Y-80938160D03*
D18*
%TO.P,CPG1316,3*%
%TO.N,N/C*%
X108001348Y-73779107D03*
X109878563Y-85631364D03*
X120544989Y-71792390D03*
X122422204Y-83644647D03*
%TD*%
D46*
%TO.P,D20,1*%
%TO.N,P3*%
X249222092Y-100113226D03*
%TO.P,D20,2*%
%TO.N,mirror_home_thumb*%
X252509538Y-99825610D03*
%TD*%
D10*
%TO.P,D12,1*%
%TO.N,P0*%
X150507424Y-38900004D03*
%TO.P,D12,2*%
%TO.N,middle_top*%
X153807420Y-38900002D03*
%TD*%
D11*
%TO.P,CPG1316,1*%
%TO.N,P9*%
X183657413Y-86249993D03*
D19*
X183657413Y-86249993D03*
D11*
%TO.P,CPG1316,2*%
%TO.N,inner_bottom*%
X188657416Y-86249992D03*
D19*
X188657416Y-86249992D03*
D20*
%TO.P,CPG1316,3*%
%TO.N,N/C*%
X179807410Y-77599997D03*
X179807418Y-89599988D03*
X192507412Y-77600002D03*
X192507420Y-89599993D03*
%TD*%
D16*
%TO.P,D2,1*%
%TO.N,P1*%
X337369842Y-78447211D03*
%TO.P,D2,2*%
%TO.N,mirror_outer_home*%
X340629214Y-78963443D03*
%TD*%
D11*
%TO.P,CPG1316,1*%
%TO.N,P5*%
X248841599Y-105516944D03*
D47*
X248841599Y-105516944D03*
D11*
%TO.P,CPG1316,2*%
%TO.N,mirror_home_thumb*%
X253822577Y-105081175D03*
D47*
X253822577Y-105081175D03*
D48*
%TO.P,CPG1316,3*%
%TO.N,N/C*%
X244252356Y-97235414D03*
X245298226Y-109189748D03*
X256904030Y-96128542D03*
X257949900Y-108082876D03*
%TD*%
D49*
%TO.N,outer_bottom*%
X103473003Y-95049375D03*
%TO.N,outer_home*%
X100813617Y-78258672D03*
%TO.N,outer_top*%
X98154233Y-61467967D03*
%TO.N,pinky_bottom*%
X120263708Y-92389990D03*
%TO.N,pinky_home*%
X117604321Y-75599285D03*
%TO.N,pinky_top*%
X114944938Y-58808586D03*
%TO.N,ring_bottom*%
X137204759Y-78951203D03*
%TO.N,ring_home*%
X136018902Y-61992618D03*
%TO.N,ring_top*%
X134833039Y-45034023D03*
%TO.N,middle_bottom*%
X155007419Y-72899997D03*
%TO.N,middle_home*%
X155007418Y-55899998D03*
%TO.N,middle_top*%
X155007415Y-38900002D03*
%TO.N,index_bottom*%
X172007415Y-78899999D03*
%TO.N,index_home*%
X172007418Y-61899998D03*
%TO.N,index_top*%
X172007417Y-44900002D03*
%TO.N,inner_bottom*%
X189007418Y-80900001D03*
%TO.N,inner_home*%
X189007420Y-63900004D03*
%TO.N,inner_top*%
X189007416Y-46900001D03*
%TO.N,near_thumb*%
X171007414Y-98900002D03*
%TO.N,home_thumb*%
X188971578Y-100216994D03*
%TO.N,far_thumb*%
X208191011Y-105507289D03*
%TO.N,P2*%
X131518643Y-79348819D03*
X299793478Y-78952025D03*
X281990825Y-72900819D03*
X97843181Y-95941048D03*
X264990820Y-78900820D03*
X333525233Y-95050190D03*
X183307415Y-80899995D03*
X114633877Y-93281665D03*
X166307413Y-78899989D03*
X316734529Y-92390803D03*
X149307415Y-72899998D03*
X247990820Y-80900816D03*
%TO.N,P1*%
X183307415Y-63899994D03*
X149307413Y-55900004D03*
X319393914Y-75600108D03*
X130332786Y-62390234D03*
X281990817Y-55900816D03*
X111974497Y-76490964D03*
X336184618Y-78259491D03*
X264990824Y-61900817D03*
X300979338Y-61993439D03*
X95183796Y-79150350D03*
X247990821Y-63900821D03*
X166307418Y-61899999D03*
%TO.N,P0*%
X322053306Y-58809404D03*
X183307417Y-46900004D03*
X92524404Y-62359644D03*
X149307413Y-38900004D03*
X264990813Y-44900819D03*
X247990823Y-46900822D03*
X281990816Y-38900815D03*
X129146931Y-45431643D03*
X338844004Y-61468790D03*
X166307408Y-44899997D03*
X109315108Y-59700262D03*
X302165197Y-45034848D03*
%TO.N,P3*%
X165307415Y-98899998D03*
X202834763Y-103557780D03*
X248026654Y-100217815D03*
X183293273Y-99720207D03*
X228807229Y-105508110D03*
X265990816Y-98900818D03*
%TO.N,GND*%
X235006211Y-51577523D03*
%TO.N,RAW*%
X246906213Y-42377522D03*
%TO.N,BAT_P*%
X247756212Y-42427523D03*
X235806212Y-51577522D03*
X205100452Y-50697443D03*
%TO.N,mirror_outer_bottom*%
X339155055Y-95941872D03*
%TO.N,mirror_outer_home*%
X341814437Y-79151167D03*
%TO.N,mirror_outer_top*%
X344473824Y-62360465D03*
%TO.N,mirror_pinky_bottom*%
X322364358Y-93282485D03*
%TO.N,mirror_pinky_home*%
X325023746Y-76491782D03*
%TO.N,mirror_pinky_top*%
X327683119Y-59701085D03*
%TO.N,mirror_ring_bottom*%
X305479589Y-79349637D03*
%TO.N,mirror_ring_home*%
X306665448Y-62391047D03*
%TO.N,mirror_ring_top*%
X307851309Y-45432464D03*
%TO.N,mirror_middle_bottom*%
X287690819Y-72900816D03*
%TO.N,mirror_middle_home*%
X287690814Y-55900815D03*
%TO.N,mirror_middle_top*%
X287690820Y-38900824D03*
%TO.N,mirror_index_bottom*%
X270690820Y-78900818D03*
%TO.N,mirror_index_home*%
X270690820Y-61900817D03*
%TO.N,mirror_index_top*%
X270690822Y-44900813D03*
%TO.N,mirror_inner_bottom*%
X253690820Y-80900822D03*
%TO.N,mirror_inner_home*%
X253690820Y-63900817D03*
%TO.N,mirror_inner_top*%
X253690820Y-46900817D03*
%TO.N,mirror_near_thumb*%
X271690819Y-98900819D03*
%TO.N,mirror_home_thumb*%
X253704963Y-99721028D03*
%TO.N,mirror_far_thumb*%
X234163478Y-103558598D03*
%TD*%
D50*
%TO.N,P4*%
X111574960Y-57728344D02*
X111990586Y-57156283D01*
X246465647Y-107067875D02*
X240040185Y-107630035D01*
X135310305Y-41548089D02*
X135343552Y-41545763D01*
X270256216Y-95561835D02*
X268656214Y-97161838D01*
X165225456Y-40797441D02*
X165400455Y-40972442D01*
X99025799Y-101170425D02*
X97727790Y-100227369D01*
X247056525Y-106363694D02*
X246465647Y-107067875D01*
X189700454Y-42372440D02*
X190575452Y-41497441D01*
X194925456Y-42197441D02*
X194950455Y-42222439D01*
X97727790Y-100227369D02*
X95423353Y-85677725D01*
X127002847Y-43713437D02*
X128411858Y-42034246D01*
X267751835Y-87227523D02*
X269956213Y-87227522D01*
X237111315Y-109969764D02*
X233117621Y-111423354D01*
X260356212Y-102177529D02*
X255906213Y-106627525D01*
X250456213Y-84135427D02*
X248340815Y-86250817D01*
X111990586Y-57156283D02*
X113743736Y-56878618D01*
X251947852Y-104329654D02*
X251189511Y-103693324D01*
X137423426Y-46679857D02*
X142386306Y-46332817D01*
X268656214Y-97161838D02*
X268656211Y-101877523D01*
X159450456Y-39672445D02*
X160500454Y-39672440D01*
X145325452Y-37322441D02*
X146850453Y-37322443D01*
X113743736Y-56878618D02*
X115863436Y-53961101D01*
X250456209Y-71366208D02*
X250456213Y-84135427D01*
X269956213Y-87227522D02*
X270256217Y-87527521D01*
X177225457Y-40747445D02*
X178400455Y-41922444D01*
X252100379Y-106072992D02*
X251947852Y-104329654D01*
X190575452Y-41497441D02*
X194225456Y-41497435D01*
X157475460Y-37647440D02*
X158775455Y-37647441D01*
X146850453Y-37322443D02*
X148050454Y-36122441D01*
X155950452Y-36122438D02*
X157475460Y-37647440D01*
X95238914Y-62619078D02*
X95023818Y-61261009D01*
X233117621Y-111423354D02*
X230967791Y-110420869D01*
X178400455Y-41922444D02*
X180875457Y-41922442D01*
X176550458Y-40072441D02*
X177225456Y-40747439D01*
X194950455Y-42222439D02*
X194950456Y-51141069D01*
X248340815Y-86250817D02*
X249867520Y-87777527D01*
X94381935Y-82937915D02*
X92265215Y-69573500D01*
X93334927Y-65239696D02*
X95238914Y-62619078D01*
X246908358Y-104670167D02*
X247056525Y-106363694D01*
X136649620Y-46007199D02*
X137423426Y-46679857D01*
X194950456Y-51141069D02*
X195531827Y-51722441D01*
X249779504Y-52250819D02*
X250556211Y-53027524D01*
X247453781Y-104020159D02*
X246908358Y-104670167D01*
X251189511Y-103693324D02*
X247453781Y-104020159D01*
X124744300Y-45721882D02*
X124628473Y-44397986D01*
X95423353Y-85677725D02*
X96366409Y-84379726D01*
X93707023Y-67589028D02*
X93334927Y-65239696D01*
X174225455Y-40072441D02*
X176550458Y-40072441D01*
X136401982Y-42465843D02*
X136649620Y-46007199D01*
X159275456Y-38147438D02*
X159275456Y-39497443D01*
X160500454Y-39672440D02*
X161025452Y-39147439D01*
X124177947Y-46396827D02*
X124744300Y-45721882D01*
X250556210Y-67035429D02*
X248340817Y-69250820D01*
X95023818Y-61261009D02*
X95771946Y-60231300D01*
X165225453Y-40072440D02*
X165225456Y-40797441D01*
X164300454Y-39147438D02*
X165225453Y-40072440D01*
X266101838Y-85577521D02*
X267751835Y-87227523D01*
X194225456Y-41497435D02*
X194925456Y-42197441D01*
X256606216Y-85577523D02*
X266101838Y-85577521D01*
X128626628Y-42015457D02*
X135310305Y-41548089D01*
X144068922Y-43157711D02*
X144068920Y-38578973D01*
X248340817Y-69250820D02*
X250456209Y-71366208D01*
X180875457Y-41922442D02*
X181325454Y-42372442D01*
X240040185Y-107630035D02*
X237826672Y-108435684D01*
X253058195Y-106876688D02*
X252100379Y-106072992D01*
X181325454Y-42372442D02*
X189700454Y-42372440D01*
X255906213Y-106627525D02*
X253058195Y-106876688D01*
X95771946Y-60231300D02*
X111574960Y-57728344D01*
X173325457Y-40972443D02*
X174225455Y-40072441D01*
X115863436Y-53961101D02*
X119048727Y-53456600D01*
X195531827Y-51722441D02*
X197419980Y-51722442D01*
X197419980Y-51722442D02*
X197702418Y-51440003D01*
X119048727Y-53456600D02*
X124177947Y-46396827D01*
X124628473Y-44397986D02*
X125060270Y-43883394D01*
X230967791Y-110420869D02*
X230965931Y-110415757D01*
X177225456Y-40747439D02*
X177225457Y-40747445D01*
X148050454Y-36122441D02*
X155950452Y-36122438D01*
X128411858Y-42034246D02*
X128626628Y-42015457D01*
X268656211Y-101877523D02*
X268356211Y-102177518D01*
X158775455Y-37647441D02*
X159275456Y-38147438D01*
X237826672Y-108435684D02*
X237111315Y-109969764D01*
X270256217Y-87527521D02*
X270256216Y-95561835D01*
X142386306Y-46332817D02*
X144149141Y-44304905D01*
X248340820Y-52250819D02*
X249779504Y-52250819D01*
X125060270Y-43883394D02*
X127002847Y-43713437D01*
X144149141Y-44304905D02*
X144068922Y-43157711D01*
X249867520Y-87777527D02*
X254406210Y-87777530D01*
X144068920Y-38578973D02*
X145325452Y-37322441D01*
X250556211Y-53027524D02*
X250556210Y-67035429D01*
X254406210Y-87777530D02*
X256606216Y-85577523D01*
X197043017Y-51440000D02*
X197702413Y-51440000D01*
X165400455Y-40972442D02*
X173325457Y-40972443D01*
X159275456Y-39497443D02*
X159450456Y-39672445D01*
X96366409Y-84379726D02*
X94381935Y-82937915D01*
X135343552Y-41545763D02*
X136401982Y-42465843D01*
X161025452Y-39147439D02*
X164300454Y-39147438D01*
X92265215Y-69573500D02*
X93707023Y-67589028D01*
X268356211Y-102177518D02*
X260356212Y-102177529D01*
%TO.N,outer_bottom*%
X103260283Y-95943664D02*
X102287771Y-95237096D01*
D51*
X102287773Y-95237093D02*
X103473003Y-95049375D01*
D50*
X103964238Y-100388253D02*
X103260283Y-95943664D01*
D51*
%TO.N,outer_home*%
X99628391Y-78446383D02*
X100813617Y-78258672D01*
D50*
X101304846Y-83597551D02*
X100600896Y-79152953D01*
X100600896Y-79152953D02*
X99628389Y-78446388D01*
D51*
%TO.N,outer_top*%
X96969003Y-61655689D02*
X98154233Y-61467967D01*
D50*
X97941508Y-62362260D02*
X96969002Y-61655688D01*
X98645465Y-66806849D02*
X97941508Y-62362260D01*
%TO.N,P5*%
X249406206Y-106081560D02*
X248841605Y-105516951D01*
X248841599Y-106354463D02*
X249964660Y-107477525D01*
X145445800Y-37767781D02*
X145450456Y-37772440D01*
X145450456Y-37772440D02*
X147025453Y-37772443D01*
X144471432Y-43179687D02*
X144471431Y-38742149D01*
X125243034Y-45952747D02*
X125241291Y-45927806D01*
X181600453Y-43422441D02*
X182200453Y-42822439D01*
X265340822Y-84250820D02*
X264156215Y-83066207D01*
X197702419Y-53980009D02*
X196458024Y-53980009D01*
X177275455Y-43147442D02*
X177975460Y-43847443D01*
X136107936Y-46145318D02*
X137228617Y-47119517D01*
X264156212Y-68435425D02*
X265340819Y-67250819D01*
X178550454Y-45297443D02*
X181200459Y-45297439D01*
X157075457Y-40072438D02*
X160725459Y-40072442D01*
X267917520Y-86827525D02*
X270206210Y-86827522D01*
X119234684Y-56388610D02*
X119317807Y-56274195D01*
X194537953Y-51294254D02*
X196100455Y-52856755D01*
X125143163Y-44524518D02*
X125375407Y-44257351D01*
X190050456Y-42822443D02*
X190950458Y-41922446D01*
X194537953Y-42384942D02*
X194537953Y-51294254D01*
X113689003Y-96965325D02*
X111611396Y-83847833D01*
X124423216Y-46871273D02*
X124445953Y-46869681D01*
X264156211Y-51435426D02*
X265340820Y-50250822D01*
X174400460Y-43147442D02*
X177275455Y-43147442D01*
X111792283Y-58301410D02*
X112301427Y-57600637D01*
X264156210Y-66066212D02*
X264156211Y-51435426D01*
X125375407Y-44257351D02*
X125382917Y-44263875D01*
X181600456Y-44897440D02*
X181600453Y-43422441D01*
X270656213Y-87277523D02*
X270656214Y-95727521D01*
X256129702Y-107054031D02*
X250089726Y-107582459D01*
X250089726Y-107582459D02*
X249964660Y-107477525D01*
X196100455Y-52856755D02*
X196100455Y-53622442D01*
X172700456Y-41447444D02*
X174400460Y-43147442D01*
X127246017Y-44133592D02*
X127269212Y-44106911D01*
X181200459Y-45297439D02*
X181600456Y-44897440D01*
X135189740Y-41974209D02*
X135856813Y-42554089D01*
X127269212Y-44106911D02*
X128730506Y-42425881D01*
X194075454Y-41922441D02*
X194537953Y-42384942D01*
X248841598Y-105516944D02*
X248841599Y-106354463D01*
X112301427Y-57600637D02*
X119141161Y-56517318D01*
X115816502Y-98511038D02*
X113689003Y-96965325D01*
X109076703Y-66885514D02*
X110497727Y-64929635D01*
X128730506Y-42425881D02*
X135189740Y-41974209D01*
X111975688Y-64695554D02*
X112656580Y-63758383D01*
X144567348Y-44551336D02*
X144471432Y-43179687D01*
X190950458Y-41922446D02*
X194075454Y-41922441D01*
X125241291Y-45927806D02*
X125143163Y-44524518D01*
X155625454Y-36522439D02*
X156750459Y-37647439D01*
X177975456Y-44722443D02*
X178550454Y-45297443D01*
X119141161Y-56517318D02*
X119317807Y-56274195D01*
X137228617Y-47119517D02*
X142665348Y-46739339D01*
X270656214Y-95727521D02*
X269056212Y-97327515D01*
X147025453Y-37772443D02*
X148275458Y-36522441D01*
X113157108Y-81720342D02*
X111201245Y-80299322D01*
X177975460Y-43847443D02*
X177975456Y-44722443D01*
X142665348Y-46739339D02*
X144567348Y-44551336D01*
X164825458Y-41006753D02*
X165266145Y-41447439D01*
X161250453Y-39547442D02*
X164075455Y-39547441D01*
X119608751Y-55873754D02*
X119299790Y-53923066D01*
X156750459Y-37647439D02*
X156750455Y-39747441D01*
X148275458Y-36522441D02*
X155625454Y-36522439D01*
X264156215Y-83066207D02*
X264156212Y-68435425D01*
X112656580Y-63758383D02*
X111792283Y-58301410D01*
X269056212Y-97327515D02*
X269056212Y-102127529D01*
X119317807Y-56274195D02*
X119608751Y-55873754D01*
X265340822Y-84250820D02*
X267917520Y-86827525D01*
X110497726Y-64929640D02*
X111975688Y-64695554D01*
X165266145Y-41447439D02*
X172700456Y-41447444D01*
X135856813Y-42554089D02*
X136107936Y-46145318D01*
X160725459Y-40072442D02*
X161250453Y-39547442D01*
X269056212Y-102127529D02*
X268556211Y-102627524D01*
X270206210Y-86827522D02*
X270656213Y-87277523D01*
X164075455Y-39547441D02*
X164825456Y-40297442D01*
X125382917Y-44263875D02*
X127246017Y-44133592D01*
X268556211Y-102627524D02*
X260556213Y-102627524D01*
X182200453Y-42822439D02*
X190050456Y-42822443D01*
X265340819Y-67250819D02*
X264156210Y-66066212D01*
X124445953Y-46869681D02*
X125243034Y-45952747D01*
X260556213Y-102627524D02*
X256129702Y-107054031D01*
X164825456Y-40297442D02*
X164825458Y-41006753D01*
X144471431Y-38742149D02*
X145445800Y-37767781D01*
X156750455Y-39747441D02*
X157075457Y-40072438D01*
X111201245Y-80299322D02*
X109076703Y-66885514D01*
X196458024Y-53980009D02*
X196100455Y-53622442D01*
X119299790Y-53923066D02*
X124423216Y-46871273D01*
X111611396Y-83847833D02*
X113157108Y-81720342D01*
%TO.N,pinky_bottom*%
X120050984Y-93284276D02*
X119078484Y-92577708D01*
X120754937Y-97728866D02*
X120050984Y-93284276D01*
D51*
X119078479Y-92577708D02*
X120263708Y-92389990D01*
D50*
%TO.N,pinky_home*%
X117391596Y-76493570D02*
X116419095Y-75787005D01*
X118095549Y-80938170D02*
X117391596Y-76493570D01*
D51*
X116419091Y-75787003D02*
X117604321Y-75599285D01*
D50*
%TO.N,pinky_top*%
X114732212Y-59702870D02*
X113759706Y-58996304D01*
X115436167Y-64147467D02*
X114732212Y-59702870D01*
D51*
X113759707Y-58996304D02*
X114944938Y-58808586D01*
D50*
%TO.N,P6*%
X189575457Y-43222440D02*
X191450455Y-45097441D01*
X280806206Y-45785427D02*
X282340818Y-44250821D01*
X194100454Y-45947443D02*
X194100454Y-50872441D01*
X182425452Y-43222440D02*
X189575457Y-43222440D01*
X195650455Y-55247443D02*
X195650455Y-56372442D01*
X131108026Y-50657569D02*
X131713406Y-49961158D01*
X144889975Y-38957921D02*
X145650452Y-38197439D01*
X129402957Y-69603392D02*
X131055127Y-67702782D01*
X197599976Y-56622441D02*
X197702413Y-56520003D01*
X161037953Y-40509941D02*
X161525453Y-40022442D01*
X145003524Y-44696265D02*
X144889975Y-43072439D01*
X271106211Y-95527524D02*
X271106211Y-87127520D01*
X177525451Y-43997436D02*
X177525455Y-45022443D01*
X280806208Y-76716206D02*
X280806215Y-62785421D01*
X135728091Y-46447546D02*
X136982190Y-47537724D01*
X181375454Y-45772441D02*
X182000451Y-45147438D01*
X156350456Y-37897440D02*
X156350455Y-40047442D01*
X177075454Y-43547442D02*
X177525451Y-43997436D01*
X136982190Y-47537724D02*
X142892761Y-47124421D01*
X194100454Y-50872441D02*
X194100453Y-51422439D01*
X280806215Y-62785421D02*
X282340817Y-61250823D01*
X274656213Y-81327523D02*
X275906205Y-80077522D01*
X156812952Y-40509943D02*
X161037953Y-40509941D01*
X163950456Y-40022444D02*
X164350456Y-40422437D01*
X142892761Y-47124421D02*
X144539620Y-45229926D01*
X145650452Y-38197439D02*
X147225452Y-38197438D01*
X195650458Y-52972444D02*
X195650457Y-55247441D01*
X144889975Y-43072439D02*
X144889975Y-38957921D01*
X128402654Y-52431340D02*
X129869272Y-50744194D01*
X193250453Y-45097437D02*
X194100454Y-45947443D01*
X135071490Y-42433571D02*
X135471735Y-42781502D01*
X161525453Y-40022442D02*
X163950456Y-40022444D01*
X135471735Y-42781502D02*
X135728091Y-46447546D01*
X144539620Y-45229926D02*
X145003524Y-44696265D01*
X267682914Y-104250818D02*
X269481211Y-102452528D01*
X129367984Y-66236166D02*
X128402654Y-52431340D01*
X164350456Y-40422437D02*
X164350452Y-41097441D01*
X194100453Y-51422439D02*
X195650458Y-52972444D01*
X164350452Y-41097441D02*
X165150453Y-41897438D01*
X195900455Y-56622441D02*
X197599976Y-56622441D01*
X182000451Y-45147438D02*
X182000453Y-43647446D01*
X172575456Y-41897439D02*
X174225457Y-43547440D01*
X132153615Y-42637611D02*
X135071490Y-42433571D01*
X148475455Y-36947441D02*
X155400452Y-36947438D01*
X165150453Y-41897438D02*
X172575456Y-41897439D01*
X147225452Y-38197438D02*
X148475455Y-36947441D01*
X280514114Y-80077521D02*
X282340818Y-78250817D01*
X196923016Y-56520000D02*
X197702414Y-56519994D01*
X131272195Y-43651569D02*
X132153615Y-42637611D01*
X280806209Y-59716209D02*
X280806206Y-45785427D01*
X195650457Y-55247441D02*
X195650455Y-55247443D01*
X131713406Y-49961158D02*
X131272195Y-43651569D01*
X282340817Y-61250823D02*
X280806209Y-59716209D01*
X131055127Y-67702782D02*
X129367984Y-66236166D01*
X269481211Y-102452528D02*
X269481211Y-97468202D01*
X182000453Y-43647446D02*
X182425452Y-43222440D01*
X271106211Y-87127520D02*
X272306209Y-85927521D01*
X275906205Y-80077522D02*
X280514114Y-80077521D01*
X269481211Y-97468202D02*
X271106211Y-95843203D01*
X266340821Y-104250819D02*
X267682914Y-104250818D01*
X132240997Y-84661375D02*
X130340381Y-83009193D01*
X129869272Y-50744194D02*
X131108026Y-50657569D01*
X273606210Y-85927521D02*
X274656209Y-84877524D01*
X198537417Y-56520003D02*
X197423013Y-56520001D01*
X272306209Y-85927521D02*
X273606210Y-85927521D01*
X156350455Y-40047442D02*
X156812952Y-40509943D01*
X130340381Y-83009193D02*
X129402957Y-69603392D01*
X178275454Y-45772438D02*
X181375454Y-45772441D01*
X282340818Y-78250817D02*
X280806208Y-76716206D01*
X155400452Y-36947438D02*
X156350456Y-37897440D01*
X195650455Y-56372442D02*
X195900455Y-56622441D01*
X191450455Y-45097441D02*
X193250453Y-45097437D01*
X174225457Y-43547440D02*
X177075454Y-43547442D01*
X271106211Y-95843203D02*
X271106211Y-95527524D01*
X274656209Y-84877524D02*
X274656213Y-81327523D01*
X177525455Y-45022443D02*
X178275454Y-45772438D01*
%TO.N,ring_bottom*%
X136914906Y-79823560D02*
X136007673Y-79034921D01*
X137228812Y-84312589D02*
X136914906Y-79823560D01*
D51*
X136007683Y-79034915D02*
X137204759Y-78951203D01*
D50*
%TO.N,ring_home*%
X136042945Y-67354001D02*
X135729048Y-62864967D01*
X135729048Y-62864967D02*
X134821817Y-62076328D01*
D51*
X134821822Y-62076327D02*
X136018902Y-61992618D01*
%TO.N,ring_top*%
X133635966Y-45117738D02*
X134833039Y-45034023D01*
D50*
X134857089Y-50395412D02*
X134543183Y-45906379D01*
X134543183Y-45906379D02*
X133635957Y-45117732D01*
%TO.N,P7*%
X150872895Y-44249999D02*
X151625457Y-43497443D01*
X182675453Y-43622439D02*
X189375449Y-43622444D01*
X159575457Y-40922442D02*
X160450452Y-41797440D01*
X164250449Y-79872434D02*
X164750456Y-80372441D01*
X164750455Y-86172442D02*
X165100455Y-86522441D01*
X148075453Y-62831960D02*
X148075456Y-76668037D01*
X165100455Y-86522441D02*
X165100455Y-95672439D01*
X160450452Y-41797440D02*
X160450452Y-42547439D01*
X165100455Y-95672439D02*
X164775453Y-95997441D01*
X149657420Y-61249998D02*
X148075453Y-62831960D01*
X302964006Y-65608661D02*
X300955282Y-67354814D01*
X165657416Y-104249998D02*
X164375453Y-102968036D01*
X165050459Y-42297437D02*
X172409768Y-42297441D01*
X151625457Y-38022443D02*
X152200456Y-37447439D01*
X148450458Y-60043040D02*
X149657420Y-61249998D01*
X151625457Y-43497443D02*
X151625456Y-38097440D01*
X149657411Y-44249998D02*
X148450458Y-45456963D01*
X164375453Y-102968036D02*
X164375452Y-96397441D01*
X192975458Y-45522439D02*
X193600455Y-46147447D01*
X161250453Y-43347443D02*
X164000456Y-43347441D01*
X303072564Y-69790466D02*
X302205073Y-82196125D01*
X181587948Y-46184945D02*
X174437952Y-46184943D01*
X173680117Y-43567784D02*
X173675456Y-43572438D01*
X164000456Y-43347441D02*
X165050459Y-42297437D01*
X173675456Y-43572438D02*
X173675455Y-45422445D01*
X302141145Y-50396233D02*
X303887298Y-52404952D01*
X191275451Y-45522439D02*
X192975458Y-45522439D01*
X155900455Y-40247442D02*
X156575453Y-40922439D01*
X182400455Y-45372441D02*
X182400458Y-43897448D01*
X160450452Y-42547439D02*
X161250453Y-43347443D01*
X303887298Y-52404952D02*
X302964006Y-65608661D01*
X152200456Y-37447439D02*
X155200452Y-37447441D01*
X155900459Y-38147439D02*
X155900455Y-40247442D01*
X160600456Y-79872435D02*
X164250449Y-79872434D01*
X149657411Y-44249997D02*
X150872895Y-44249999D01*
X300955282Y-67354814D02*
X303072564Y-69790466D01*
X195225456Y-53147443D02*
X195225451Y-56747440D01*
X156575453Y-40922439D02*
X159575457Y-40922442D01*
X189375449Y-43622444D02*
X191275451Y-45522439D01*
X196325455Y-57847441D02*
X212449972Y-57847440D01*
X182400458Y-43897448D02*
X182675453Y-43622439D01*
X149657416Y-78249997D02*
X151279863Y-79872443D01*
X181675453Y-46097439D02*
X181587948Y-46184945D01*
X173675455Y-45422445D02*
X174437952Y-46184943D01*
X181675453Y-46097439D02*
X182400455Y-45372441D01*
X193600455Y-46147447D02*
X193600451Y-51522439D01*
X151279863Y-79872443D02*
X160600456Y-79872435D01*
X164775453Y-95997441D02*
X164375452Y-96397441D01*
X148450458Y-45456963D02*
X148450458Y-60043040D01*
X212449972Y-57847440D02*
X213777414Y-56520001D01*
X148075456Y-76668037D02*
X149657416Y-78249997D01*
X155200452Y-37447441D02*
X155900459Y-38147439D01*
X195225451Y-56747440D02*
X196325455Y-57847441D01*
X172409768Y-42297441D02*
X173680117Y-43567784D01*
X164750456Y-80372441D02*
X164750455Y-86172442D01*
X151625456Y-38097440D02*
X151625457Y-38022443D01*
X302205073Y-82196125D02*
X299769418Y-84313405D01*
X193600451Y-51522439D02*
X195225456Y-53147443D01*
%TO.N,middle_bottom*%
X154657421Y-78249997D02*
X154657420Y-73750003D01*
D51*
X153807421Y-72899996D02*
X155007419Y-72899997D01*
D50*
X154657420Y-73750003D02*
X153807419Y-72899997D01*
%TO.N,middle_home*%
X154657418Y-56749997D02*
X153807411Y-55899997D01*
D51*
X153807415Y-55899997D02*
X155007418Y-55899998D01*
D50*
X154657421Y-61250001D02*
X154657418Y-56749997D01*
%TO.N,middle_top*%
X154657413Y-44249995D02*
X154657413Y-39750003D01*
D51*
X153807412Y-38899999D02*
X155007415Y-38900002D01*
D50*
X154657413Y-39750003D02*
X153807412Y-38899999D01*
%TO.N,P8*%
X183025453Y-44022440D02*
X189125452Y-44022440D01*
X166657410Y-85465483D02*
X165525452Y-86597445D01*
X181825455Y-46597440D02*
X182900456Y-45522442D01*
X165525451Y-96272440D02*
X166650454Y-97397439D01*
X166657416Y-67250002D02*
X165150458Y-68756955D01*
X182900456Y-45522442D02*
X182900455Y-44147441D01*
X173575453Y-106247435D02*
X175855279Y-106247442D01*
X168925457Y-44397441D02*
X170025453Y-43297438D01*
X190675454Y-45572441D02*
X190675452Y-47497443D01*
X172650453Y-43297441D02*
X173250457Y-43897439D01*
X166657417Y-50249996D02*
X168925455Y-47981956D01*
X215450456Y-58372439D02*
X216275452Y-57547438D01*
X173250457Y-43897439D02*
X173275456Y-43897442D01*
X175868270Y-106236542D02*
X182456104Y-106812905D01*
X194775458Y-53322440D02*
X194775456Y-56897441D01*
X321562063Y-64148280D02*
X323697641Y-67087645D01*
X165275460Y-52247442D02*
X165275460Y-65868040D01*
X174225455Y-46597442D02*
X181825455Y-46597440D01*
X172175452Y-100647443D02*
X172175454Y-104847437D01*
X193175453Y-49997439D02*
X193175460Y-51722439D01*
X316243294Y-97729681D02*
X318725012Y-95926622D01*
X173275456Y-43897442D02*
X173275453Y-45647440D01*
X182456104Y-106812905D02*
X183069078Y-106298569D01*
X320705753Y-83420697D02*
X318902677Y-80938982D01*
X165275460Y-65868040D02*
X166657416Y-67250002D01*
X173275453Y-45647440D02*
X174225454Y-46597443D01*
X172175454Y-104847437D02*
X173575453Y-106247435D01*
X172175451Y-98597439D02*
X172175452Y-100647443D01*
X194775456Y-56897441D02*
X196250457Y-58372442D01*
X321842041Y-78803418D02*
X318902677Y-80938982D01*
X193175460Y-51722439D02*
X194775458Y-53322440D01*
X166628018Y-84250001D02*
X166657416Y-84250001D01*
X183069078Y-106298569D02*
X183175656Y-105080354D01*
X190675452Y-47497443D02*
X193175453Y-49997439D01*
X170975453Y-97397439D02*
X172175451Y-98597439D01*
X189125452Y-44022440D02*
X190675454Y-45572441D01*
X216275452Y-57547438D02*
X216275455Y-55297441D01*
X166657416Y-84250001D02*
X166657410Y-85465483D01*
X166657415Y-50250000D02*
X166657411Y-50865476D01*
X165150458Y-68756955D02*
X165150456Y-82772444D01*
X174225454Y-46597443D02*
X174225455Y-46597442D01*
X166657411Y-50865476D02*
X165275460Y-52247442D01*
X168925455Y-47981956D02*
X168925457Y-44397441D01*
X166650454Y-97397439D02*
X170975453Y-97397436D01*
X216275455Y-55297441D02*
X214958019Y-53980004D01*
X323697641Y-67087645D02*
X321842041Y-78803418D01*
X170025453Y-43297438D02*
X172650453Y-43297441D01*
X165525452Y-86597445D02*
X165525451Y-96272440D01*
X175855279Y-106247442D02*
X175868270Y-106236542D01*
X318725012Y-95926622D02*
X320705753Y-83420697D01*
X182900455Y-44147441D02*
X183025453Y-44022440D01*
X170975453Y-97397436D02*
X170975453Y-97397439D01*
X214958019Y-53980004D02*
X214612412Y-53980002D01*
X196250457Y-58372442D02*
X215450456Y-58372439D01*
X165150456Y-82772444D02*
X166628018Y-84250001D01*
%TO.N,index_bottom*%
X171657417Y-84250002D02*
X171657417Y-79749997D01*
D51*
X170807414Y-78899998D02*
X172007415Y-78899999D01*
D50*
X171657417Y-79749997D02*
X170807419Y-78899998D01*
%TO.N,index_home*%
X171657416Y-67250004D02*
X171657416Y-62749990D01*
X171657416Y-62749990D02*
X170807419Y-61899998D01*
D51*
X170807419Y-61899998D02*
X172007418Y-61899998D01*
D50*
%TO.N,index_top*%
X171657423Y-50249999D02*
X171657417Y-45749998D01*
X171657417Y-45749998D02*
X170807419Y-44899997D01*
D51*
X170807420Y-44899997D02*
X172007417Y-44900002D01*
D50*
%TO.N,P9*%
X183528015Y-86249998D02*
X183657417Y-86250001D01*
X185367799Y-107092735D02*
X191843067Y-107659251D01*
X181775456Y-71131957D02*
X181775458Y-84497442D01*
X173725450Y-105822445D02*
X175175454Y-105822439D01*
X183657421Y-69249993D02*
X181775456Y-71131957D01*
X181975460Y-67697445D02*
X183528011Y-69249995D01*
X182409972Y-87497438D02*
X179150454Y-87497438D01*
X216675458Y-57713127D02*
X215541140Y-58847440D01*
X185550455Y-54147442D02*
X183657413Y-52254400D01*
X172625461Y-98397448D02*
X172625460Y-100372439D01*
X216675456Y-52972441D02*
X216675458Y-57713127D01*
X184993576Y-104199110D02*
X184799651Y-106415643D01*
X199171606Y-109578356D02*
X201171547Y-108645776D01*
X194300456Y-54747444D02*
X193700455Y-54147440D01*
X215143010Y-51440004D02*
X216675456Y-52972441D01*
X171200455Y-96972441D02*
X172625461Y-98397448D01*
X180718359Y-106194155D02*
X181758450Y-105321423D01*
X181775458Y-84497442D02*
X183528015Y-86249998D01*
X183657413Y-52254400D02*
X183657414Y-52249998D01*
X196150456Y-58847440D02*
X194300453Y-56997440D01*
X181758450Y-105321423D02*
X181887004Y-103852032D01*
X181975455Y-53931964D02*
X181975460Y-67697445D01*
X172625454Y-104722440D02*
X173725450Y-105822445D01*
X165925450Y-87522445D02*
X165925450Y-96097436D01*
X194300455Y-56722442D02*
X194300456Y-54747444D01*
X191843067Y-107659251D02*
X194646634Y-107904531D01*
X179150454Y-87497438D02*
X177325453Y-85672444D01*
X165925453Y-87522442D02*
X165925450Y-87522445D01*
X183528011Y-69249995D02*
X183657421Y-69249993D01*
X338352769Y-66807665D02*
X339406232Y-66974520D01*
X194679109Y-107943223D02*
X199171606Y-109578356D01*
X215541140Y-58847440D02*
X196150456Y-58847440D01*
X183657419Y-52249998D02*
X181975455Y-53931964D01*
X333033996Y-100389069D02*
X335744535Y-98419749D01*
X175175454Y-105822439D02*
X176469652Y-105822443D01*
X181887004Y-103852032D02*
X182324121Y-103485240D01*
X337662706Y-86308909D02*
X335693385Y-83598369D01*
X167016144Y-85672438D02*
X165925453Y-86763129D01*
X193700455Y-54147440D02*
X185550455Y-54147442D01*
X214612411Y-51439997D02*
X215143010Y-51440004D01*
X165925450Y-96097436D02*
X166800455Y-96972441D01*
X166800455Y-96972441D02*
X171200455Y-96972441D01*
X340114879Y-67949894D02*
X337889069Y-82003114D01*
X182324121Y-103485240D02*
X184558601Y-103680738D01*
X335744535Y-98419749D02*
X337662706Y-86308909D01*
X183657417Y-86250001D02*
X182409972Y-87497438D01*
X172625460Y-100372439D02*
X172625454Y-104722440D01*
X177325453Y-85672444D02*
X167425451Y-85672438D01*
X184558601Y-103680738D02*
X184993576Y-104199110D01*
X194300453Y-56997440D02*
X194300455Y-56722442D01*
X184799651Y-106415643D02*
X185367799Y-107092735D01*
X165925453Y-86763129D02*
X165925453Y-87522442D01*
X167425451Y-85672438D02*
X167016144Y-85672438D01*
X201171547Y-108645776D02*
X201333838Y-108704846D01*
X194646634Y-107904531D02*
X194679109Y-107943223D01*
X339406232Y-66974520D02*
X340114879Y-67949894D01*
X176469652Y-105822443D02*
X180718359Y-106194155D01*
X337889069Y-82003114D02*
X335693385Y-83598369D01*
%TO.N,inner_bottom*%
X188657418Y-81749998D02*
X187807414Y-80900005D01*
X188657417Y-86250000D02*
X188657418Y-81749998D01*
D51*
X187807414Y-80900005D02*
X189007418Y-80900001D01*
D50*
%TO.N,inner_home*%
X188657421Y-64749995D02*
X187807413Y-63899997D01*
X188657419Y-69250000D02*
X188657421Y-64749995D01*
D51*
X187807413Y-63899997D02*
X189007420Y-63900004D01*
%TO.N,inner_top*%
X187807418Y-46900002D02*
X189007416Y-46900001D01*
D50*
X188657416Y-47750001D02*
X187807419Y-46900003D01*
X188657417Y-52249995D02*
X188657416Y-47750001D01*
D51*
%TO.N,near_thumb*%
X169807418Y-98900002D02*
X171007414Y-98900002D01*
D50*
X170657416Y-99749997D02*
X169807417Y-98899998D01*
X170657419Y-104249998D02*
X170657416Y-99749997D01*
%TO.N,home_thumb*%
X188548831Y-101033261D02*
X187776149Y-100112412D01*
X188156631Y-105516134D02*
X188548831Y-101033261D01*
D51*
X187776148Y-100112415D02*
X188971578Y-100216994D01*
%TO.N,far_thumb*%
X207063374Y-105096865D02*
X208191011Y-105507289D01*
D50*
X206032305Y-110414938D02*
X207571398Y-106186328D01*
X207571398Y-106186328D02*
X207063371Y-105096866D01*
%TO.N,P2*%
X248606208Y-72727523D02*
X248606212Y-80316211D01*
X233631214Y-44452527D02*
X234106213Y-43977520D01*
X248606212Y-80316211D02*
X249190819Y-80900820D01*
X241906211Y-41227529D02*
X241906210Y-45827520D01*
D51*
X115819105Y-93093940D02*
X114633877Y-93281665D01*
D50*
X223220817Y-46360817D02*
X223422915Y-46360819D01*
X233456216Y-44627524D02*
X233631214Y-44452527D01*
X246856207Y-63427524D02*
X246856209Y-70527525D01*
X241906210Y-45827520D02*
X244006208Y-47927521D01*
D51*
X167507416Y-78899997D02*
X166307413Y-78899989D01*
X249190819Y-80900818D02*
X247990820Y-80900816D01*
D50*
X246606209Y-48327522D02*
X246606216Y-54877523D01*
D51*
X283190817Y-72900818D02*
X281990825Y-72900819D01*
D50*
X248790818Y-57062130D02*
X248790819Y-61492918D01*
D51*
X300990551Y-79035732D02*
X299793478Y-78952025D01*
D50*
X246856209Y-70527525D02*
X246856209Y-70661836D01*
D51*
X184507415Y-80900005D02*
X183307415Y-80899995D01*
D50*
X246206211Y-47927521D02*
X246606209Y-48327522D01*
X223220820Y-46360815D02*
X223220820Y-45762917D01*
D51*
X99028403Y-95753327D02*
X97843181Y-95941048D01*
D50*
X246856209Y-70661836D02*
X248606207Y-72411834D01*
D51*
X266190818Y-78900820D02*
X264990820Y-78900820D01*
X334710464Y-95237916D02*
X333525233Y-95050190D01*
D50*
X228131211Y-43902523D02*
X228856211Y-44627523D01*
X234106208Y-41127523D02*
X235256214Y-39977524D01*
X235256214Y-39977524D02*
X240656206Y-39977521D01*
X246606216Y-54877523D02*
X248790818Y-57062130D01*
X223220820Y-45762917D02*
X225081215Y-43902523D01*
D51*
X132715723Y-79265110D02*
X131518643Y-79348819D01*
D50*
X244006208Y-47927521D02*
X246206211Y-47927521D01*
X228856211Y-44627523D02*
X233456216Y-44627524D01*
D51*
X150507415Y-72900003D02*
X149307415Y-72899998D01*
D50*
X225081215Y-43902523D02*
X228131211Y-43902523D01*
X234106213Y-43977520D02*
X234106208Y-41127523D01*
X240656206Y-39977521D02*
X241906211Y-41227529D01*
D51*
X317919754Y-92578526D02*
X316734529Y-92390803D01*
D50*
X248606207Y-72411834D02*
X248606208Y-72727523D01*
X248790819Y-61492918D02*
X246856207Y-63427524D01*
%TO.N,P1*%
X233706213Y-43727522D02*
X233706212Y-40827524D01*
X233256212Y-44177522D02*
X233706213Y-43727522D01*
X235006210Y-39527523D02*
X240790519Y-39527515D01*
X247056211Y-48077522D02*
X247056210Y-54727520D01*
D51*
X320579144Y-75787822D02*
X319393914Y-75600108D01*
D50*
X223220818Y-43820820D02*
X223812917Y-43820820D01*
X229006213Y-44177523D02*
X233256212Y-44177522D01*
X228381211Y-43552523D02*
X228306212Y-43477523D01*
D51*
X96369020Y-78962633D02*
X95183796Y-79150350D01*
D50*
X228381211Y-43552523D02*
X229006213Y-44177523D01*
X242356209Y-41093211D02*
X242356210Y-45577524D01*
X228306212Y-43477523D02*
X224156213Y-43477525D01*
X247056210Y-54727520D02*
X249190819Y-56862135D01*
D51*
X283190816Y-55900819D02*
X281990817Y-55900816D01*
D50*
X242356210Y-45577524D02*
X244306209Y-47527525D01*
D51*
X131529860Y-62306520D02*
X130332786Y-62390234D01*
X337369846Y-78447214D02*
X336184618Y-78259491D01*
X167507415Y-61900002D02*
X166307418Y-61899999D01*
D50*
X223812917Y-43820820D02*
X224156213Y-43477525D01*
D51*
X302176415Y-62077146D02*
X300979338Y-61993439D01*
X266190821Y-61900819D02*
X264990824Y-61900817D01*
X113159729Y-76303240D02*
X111974497Y-76490964D01*
D50*
X246506214Y-47527519D02*
X247056211Y-48077522D01*
D51*
X249190816Y-63900817D02*
X247990821Y-63900821D01*
D50*
X233706212Y-40827524D02*
X235006210Y-39527523D01*
X249190819Y-56862135D02*
X249190817Y-63900814D01*
D51*
X150507414Y-55899996D02*
X149307413Y-55900004D01*
X184507417Y-63900001D02*
X183307415Y-63899994D01*
D50*
X240790519Y-39527515D02*
X242356209Y-41093211D01*
X244306209Y-47527525D02*
X246506214Y-47527519D01*
%TO.N,P0*%
X240856208Y-39027523D02*
X242756210Y-40927526D01*
X223220820Y-41280812D02*
X223220820Y-41992132D01*
D51*
X93709641Y-62171929D02*
X92524404Y-62359644D01*
X266190817Y-44900816D02*
X264990813Y-44900819D01*
D50*
X227656211Y-42627523D02*
X227656211Y-39927523D01*
X227656211Y-39927523D02*
X228556212Y-39027524D01*
D51*
X249190826Y-46900818D02*
X247990823Y-46900822D01*
D50*
X228556212Y-39027524D02*
X240856208Y-39027523D01*
D51*
X340029228Y-61656511D02*
X338844004Y-61468790D01*
X130344000Y-45347932D02*
X129146931Y-45431643D01*
X184507414Y-46900001D02*
X183307417Y-46900004D01*
D50*
X244379510Y-46900822D02*
X247990823Y-46900822D01*
D51*
X303362270Y-45118552D02*
X302165197Y-45034848D01*
D50*
X227206211Y-43077523D02*
X227656211Y-42627523D01*
D51*
X323238527Y-58997125D02*
X322053306Y-58809404D01*
X283190814Y-38900813D02*
X281990816Y-38900815D01*
X150507417Y-38900000D02*
X149307413Y-38900004D01*
D50*
X223220820Y-41992132D02*
X224306211Y-43077523D01*
D51*
X167507413Y-44900009D02*
X166307408Y-44899997D01*
X110500340Y-59512538D02*
X109315108Y-59700262D01*
D50*
X242756215Y-45277523D02*
X244379510Y-46900822D01*
X224306211Y-43077523D02*
X227206211Y-43077523D01*
X242756210Y-40927526D02*
X242756215Y-45277523D01*
%TO.N,P3*%
X269856210Y-95227520D02*
X269856211Y-95377523D01*
X225606211Y-44327523D02*
X224356209Y-45577526D01*
D51*
X249222090Y-100113231D02*
X248026654Y-100217815D01*
D50*
X223220814Y-48900815D02*
X223279514Y-48900821D01*
X246006211Y-48377524D02*
X243806214Y-48377522D01*
X269856212Y-87777521D02*
X269716243Y-87637549D01*
X247831211Y-88202524D02*
X247706211Y-88077523D01*
X247056208Y-87427525D02*
X247056215Y-80577522D01*
D51*
X203962387Y-103968196D02*
X202834763Y-103557780D01*
D50*
X246431212Y-70802525D02*
X246431209Y-63202521D01*
D51*
X229934864Y-105097685D02*
X228807229Y-105508110D01*
D50*
X241006208Y-42577524D02*
X236106217Y-42577517D01*
X224356208Y-46177525D02*
X224356211Y-47765423D01*
X228690523Y-45027523D02*
X227990522Y-44327522D01*
X246206211Y-48577527D02*
X246006211Y-48377524D01*
X265996180Y-86037554D02*
X256846179Y-86037552D01*
X236106217Y-42577517D02*
X233656209Y-45027519D01*
X267596183Y-87637555D02*
X265996180Y-86037554D01*
X269856211Y-95377523D02*
X267190819Y-98042914D01*
X243806214Y-48377522D02*
X241506213Y-46077523D01*
X248306213Y-57227525D02*
X246206208Y-55127519D01*
X224356209Y-45577526D02*
X224356208Y-46177525D01*
X256846179Y-86037552D02*
X254681212Y-88202525D01*
X233656209Y-45027519D02*
X228690523Y-45027523D01*
X246431209Y-63202521D02*
X248306211Y-61327519D01*
X227990522Y-44327522D02*
X225606211Y-44327523D01*
X224356211Y-47765423D02*
X223220818Y-48900813D01*
D51*
X166507413Y-98899998D02*
X165307415Y-98899998D01*
D50*
X254681212Y-88202525D02*
X247831211Y-88202524D01*
X247056215Y-80577522D02*
X248206209Y-79427520D01*
X241506213Y-46077523D02*
X241506215Y-43077517D01*
X248206209Y-79427520D02*
X248206208Y-72577522D01*
X248206208Y-72577522D02*
X246431212Y-70802525D01*
X269716243Y-87637549D02*
X267596183Y-87637555D01*
X247706211Y-88077523D02*
X247056208Y-87427525D01*
X248306211Y-61327519D02*
X248306213Y-57227525D01*
X241506215Y-43077517D02*
X241006208Y-42577524D01*
X246206208Y-55127519D02*
X246206211Y-48577527D01*
D51*
X184488711Y-99824795D02*
X183293273Y-99720207D01*
D50*
X269856210Y-95227520D02*
X269856212Y-87777521D01*
X267190819Y-98042914D02*
X267190820Y-98900820D01*
D51*
X267190817Y-98900818D02*
X265990816Y-98900818D01*
D50*
%TO.N,GND*%
X235256214Y-61277527D02*
X235006212Y-61027522D01*
X235006212Y-60477521D02*
X235256215Y-60727525D01*
X235006211Y-51577523D02*
X235006212Y-60477521D01*
%TO.N,RAW*%
X178550457Y-39822443D02*
X177950455Y-39222441D01*
X195450456Y-39322439D02*
X194950454Y-39822442D01*
X177950455Y-39222441D02*
X173850456Y-39222441D01*
X200275454Y-50697442D02*
X200775452Y-51197443D01*
X200075456Y-39322439D02*
X195450456Y-39322439D01*
X206650454Y-50022440D02*
X206650458Y-45697439D01*
X201157415Y-48586504D02*
X200275456Y-49468462D01*
X206650458Y-45697439D02*
X205700453Y-44747443D01*
X203150455Y-44747441D02*
X201475458Y-43072442D01*
X269396541Y-39677523D02*
X259306212Y-39677525D01*
X194950454Y-39822442D02*
X178550457Y-39822443D01*
X168000455Y-40122443D02*
X165676450Y-37798435D01*
X269696541Y-39377522D02*
X269396541Y-39677523D01*
X165676450Y-37798435D02*
X165676450Y-37418737D01*
X247606212Y-43277523D02*
X246906210Y-42577522D01*
X246906210Y-42577522D02*
X246906213Y-42377522D01*
X248506211Y-42877526D02*
X248106210Y-43277525D01*
X200775452Y-51197443D02*
X200875451Y-51297441D01*
X259306212Y-39677525D02*
X257081211Y-41902523D01*
X248506210Y-42227525D02*
X248506211Y-42877526D01*
X257081211Y-41902523D02*
X248831213Y-41902523D01*
X173850456Y-39222441D02*
X172950454Y-40122441D01*
X200875451Y-51297441D02*
X205375454Y-51297441D01*
X205700453Y-44747443D02*
X203150455Y-44747441D01*
X205375454Y-51297441D02*
X206650454Y-50022440D01*
X172950454Y-40122441D02*
X168000455Y-40122443D01*
X248831213Y-41902523D02*
X248506210Y-42227525D01*
X200275456Y-49468462D02*
X200275454Y-50697442D01*
X269751792Y-37924157D02*
X269751792Y-39322271D01*
X269751792Y-39322271D02*
X269396541Y-39677523D01*
X201475458Y-43072442D02*
X201475454Y-40722441D01*
X248106210Y-43277525D02*
X247606212Y-43277523D01*
X201475454Y-40722441D02*
X200075456Y-39322439D01*
X165676450Y-37823436D02*
X165676450Y-37418737D01*
%TO.N,BAT_P*%
X201025457Y-43272435D02*
X202950452Y-45197445D01*
X205475455Y-45197440D02*
X206225456Y-45947443D01*
X195100454Y-40297442D02*
X195475454Y-39922446D01*
X259006209Y-39177523D02*
X267294561Y-39177525D01*
X204150453Y-45197438D02*
X205475455Y-45197440D01*
X165825451Y-38672442D02*
X166937952Y-39784944D01*
X235656212Y-52427523D02*
X235406211Y-52677523D01*
X201025452Y-40972442D02*
X201025457Y-43272435D01*
X267294561Y-39177525D02*
X267568501Y-39177524D01*
X247756212Y-42427523D02*
X247756211Y-41977521D01*
X235806212Y-51577522D02*
X235656211Y-51727523D01*
X202950452Y-45197445D02*
X204150453Y-45197438D01*
X177775452Y-39672441D02*
X177837953Y-39734944D01*
X177837953Y-39734944D02*
X178400455Y-40297441D01*
X206225456Y-45947443D02*
X206225455Y-49572441D01*
X166937952Y-39784944D02*
X167725448Y-40572442D01*
X235406211Y-58877522D02*
X237256210Y-60727520D01*
X256706210Y-41477525D02*
X259006209Y-39177523D01*
X199975457Y-39922442D02*
X201025452Y-40972442D01*
X164258178Y-36930383D02*
X164465133Y-37137338D01*
X164800457Y-38672436D02*
X165825451Y-38672442D01*
X164465133Y-37137338D02*
X164465135Y-38337122D01*
X237256210Y-60727520D02*
X237256212Y-60727521D01*
X235406211Y-52677523D02*
X235406211Y-58877522D01*
X174000455Y-39672441D02*
X177775452Y-39672441D01*
X247756211Y-41977521D02*
X248256213Y-41477524D01*
X178400455Y-40297441D02*
X195100454Y-40297442D01*
X235656211Y-51727523D02*
X235656212Y-52427523D01*
X164465135Y-38337122D02*
X164800457Y-38672436D01*
X195475454Y-39922446D02*
X199975457Y-39922442D01*
X167725448Y-40572442D02*
X173100456Y-40572441D01*
X248256213Y-41477524D02*
X256706210Y-41477525D01*
X173100456Y-40572441D02*
X174000455Y-39672441D01*
X206225455Y-49572441D02*
X205100452Y-50697443D01*
X267568501Y-39177524D02*
X268333513Y-38412512D01*
D51*
%TO.N,mirror_outer_bottom*%
X337969824Y-95754142D02*
X339155055Y-95941872D01*
D50*
X337972436Y-101171244D02*
X338676392Y-96726649D01*
X338676392Y-96726649D02*
X337969826Y-95754144D01*
%TO.N,mirror_outer_home*%
X341335782Y-79935945D02*
X340629215Y-78963437D01*
D51*
X340629216Y-78963443D02*
X341814437Y-79151167D01*
D50*
X340631827Y-84380546D02*
X341335782Y-79935945D01*
D51*
%TO.N,mirror_outer_top*%
X343288603Y-62172743D02*
X344473824Y-62360465D01*
D50*
X343995166Y-63145244D02*
X343288604Y-62172742D01*
X343291208Y-67589843D02*
X343995166Y-63145244D01*
%TO.N,mirror_pinky_bottom*%
X321181733Y-98511864D02*
X321885690Y-94067265D01*
D51*
X321179122Y-93094762D02*
X322364358Y-93282485D01*
D50*
X321885690Y-94067265D02*
X321179125Y-93094759D01*
D51*
%TO.N,mirror_pinky_home*%
X323838511Y-76304060D02*
X325023746Y-76491782D01*
D50*
X324545080Y-77276560D02*
X323838512Y-76304061D01*
X323841125Y-81721164D02*
X324545080Y-77276560D01*
%TO.N,mirror_pinky_top*%
X326500509Y-64930459D02*
X327204461Y-60485856D01*
D51*
X326497904Y-59513363D02*
X327683119Y-59701085D01*
D50*
X327204461Y-60485856D02*
X326497904Y-59513362D01*
%TO.N,mirror_ring_bottom*%
X304757247Y-84662195D02*
X305071148Y-80173149D01*
X305071148Y-80173149D02*
X304282515Y-79265927D01*
D51*
X304282508Y-79265929D02*
X305479589Y-79349637D01*
%TO.N,mirror_ring_home*%
X305468373Y-62307342D02*
X306665448Y-62391047D01*
D50*
X305943106Y-67703598D02*
X306257011Y-63214564D01*
X306257011Y-63214564D02*
X305468375Y-62307340D01*
%TO.N,mirror_ring_top*%
X307442873Y-46255970D02*
X306654234Y-45348747D01*
X307128966Y-50745013D02*
X307442873Y-46255970D01*
D51*
X306654234Y-45348750D02*
X307851309Y-45432464D01*
%TO.N,mirror_middle_bottom*%
X286490815Y-72900820D02*
X287690819Y-72900816D01*
D50*
X287340819Y-78250814D02*
X287340818Y-73750817D01*
X287340818Y-73750817D02*
X286490814Y-72900820D01*
%TO.N,mirror_middle_home*%
X287340822Y-61250819D02*
X287340818Y-56750824D01*
X287340818Y-56750824D02*
X286490819Y-55900820D01*
D51*
X286490819Y-55900818D02*
X287690814Y-55900815D01*
D50*
%TO.N,mirror_middle_top*%
X287340818Y-39750818D02*
X286490817Y-38900819D01*
X287340821Y-44250817D02*
X287340818Y-39750818D01*
D51*
X286490817Y-38900819D02*
X287690820Y-38900824D01*
%TO.N,mirror_index_bottom*%
X269490814Y-78900818D02*
X270690820Y-78900818D01*
D50*
X270340819Y-84250821D02*
X270340821Y-79750819D01*
X270340821Y-79750819D02*
X269490814Y-78900818D01*
%TO.N,mirror_index_home*%
X270340817Y-62750820D02*
X269490819Y-61900826D01*
D51*
X269490818Y-61900825D02*
X270690820Y-61900817D01*
D50*
X270340821Y-67250823D02*
X270340817Y-62750820D01*
%TO.N,mirror_index_top*%
X270340816Y-45750823D02*
X269490814Y-44900823D01*
X270340819Y-50250821D02*
X270340816Y-45750823D01*
D51*
X269490812Y-44900820D02*
X270690822Y-44900813D01*
D50*
%TO.N,mirror_inner_bottom*%
X253340816Y-86250817D02*
X253340820Y-81750825D01*
X253340820Y-81750825D02*
X252490812Y-80900819D01*
D51*
X252490815Y-80900819D02*
X253690820Y-80900822D01*
%TO.N,mirror_inner_home*%
X252490813Y-63900818D02*
X253690820Y-63900817D01*
D50*
X253340818Y-69250818D02*
X253340821Y-64750822D01*
X253340821Y-64750822D02*
X252490813Y-63900817D01*
%TO.N,mirror_inner_top*%
X253340820Y-52250815D02*
X253340822Y-47750817D01*
D51*
X252490820Y-46900822D02*
X253690820Y-46900817D01*
D50*
X253340822Y-47750817D02*
X252490820Y-46900820D01*
%TO.N,mirror_near_thumb*%
X271340816Y-99750821D02*
X270490818Y-98900821D01*
X271340819Y-104250814D02*
X271340816Y-99750821D01*
D51*
X270490819Y-98900821D02*
X271690819Y-98900819D01*
%TO.N,mirror_home_thumb*%
X252509534Y-99825613D02*
X253704963Y-99721028D01*
D50*
X253822584Y-105081173D02*
X253430375Y-100598296D01*
X253430375Y-100598296D02*
X252509533Y-99825612D01*
%TO.N,mirror_far_thumb*%
X235664387Y-108705661D02*
X234125308Y-104477037D01*
X234125308Y-104477037D02*
X233035856Y-103969018D01*
D51*
X233035858Y-103969016D02*
X234163478Y-103558598D01*
%TD*%
M02*
