M48
; DRILL file {KiCad 8.0.6} date 2025-07-18T11:45:50+0200
; FORMAT={-:-/ absolute / inch / decimal}
; #@! TF.CreationDate,2025-07-18T11:45:50+02:00
; #@! TF.GenerationSoftware,Kicad,Pcbnew,8.0.6
; #@! TF.FileFunction,Plated,1,2,PTH
FMAT,2
INCH
; #@! TA.AperFunction,Plated,PTH,ViaDrill
T1C0.0118
; #@! TA.AperFunction,Plated,PTH,ComponentDrill
T2C0.0295
; #@! TA.AperFunction,Plated,PTH,ComponentDrill
T3C0.0350
; #@! TA.AperFunction,Plated,PTH,ComponentDrill
T4C0.0394
%
G90
G05
T1
X3.6446Y-2.4553
X3.7493Y-3.1163
X3.854Y-3.7774
X3.8663Y-2.4202
X3.971Y-3.0812
X4.0757Y-3.7423
X4.3057Y-2.3506
X4.4104Y-3.0116
X4.5151Y-3.6727
X4.5273Y-2.3155
X4.632Y-2.9765
X4.7367Y-3.6376
X5.0865Y-1.7888
X5.1332Y-2.4565
X5.1799Y-3.1241
X5.3103Y-1.7732
X5.357Y-2.4408
X5.4037Y-3.1085
X5.8802Y-2.201
X5.8802Y-1.5317
X5.8802Y-2.8702
X6.1046Y-1.5317
X6.1046Y-2.201
X6.1046Y-2.8702
X6.5101Y-3.8939
X6.5495Y-1.7679
X6.5495Y-3.1065
X6.5495Y-2.4372
X6.7345Y-3.8939
X6.7739Y-1.7679
X6.7739Y-3.1065
X6.7739Y-2.4372
X7.2182Y-3.9262
X7.2188Y-2.5159
X7.2188Y-3.1852
X7.2188Y-1.8466
X7.4418Y-3.9457
X7.4432Y-1.8466
X7.4432Y-3.1852
X7.4432Y-2.5159
X7.9876Y-4.0772
X8.0768Y-1.9961
X8.1985Y-4.154
X9.0101Y-4.154
X9.221Y-4.0773
X9.2542Y-2.0308
X9.2857Y-2.0308
X9.7227Y-1.6686
X9.7561Y-1.6705
X9.7654Y-3.1852
X9.7654Y-2.5159
X9.7654Y-1.8467
X9.7668Y-3.9458
X9.9898Y-3.1852
X9.9898Y-1.8467
X9.9898Y-2.5159
X9.9903Y-3.9262
X10.4347Y-1.7679
X10.4347Y-3.1065
X10.4347Y-2.4372
X10.474Y-3.8939
X10.6591Y-3.1065
X10.6591Y-2.4372
X10.6591Y-1.7679
X10.6984Y-3.8939
X11.104Y-2.201
X11.104Y-1.5317
X11.104Y-2.8703
X11.3284Y-2.201
X11.3284Y-2.8703
X11.3284Y-1.5317
X11.8048Y-3.1085
X11.8515Y-2.4409
X11.8982Y-1.7732
X12.0287Y-3.1242
X12.0754Y-2.4565
X12.1221Y-1.7888
X12.4718Y-3.6376
X12.5765Y-2.9765
X12.6812Y-2.3155
X12.6935Y-3.6727
X12.7982Y-3.0117
X12.9029Y-2.3506
X13.1329Y-3.7423
X13.2376Y-3.0812
X13.3423Y-2.4202
X13.3545Y-3.7774
X13.4592Y-3.1164
X13.5639Y-2.4553
T2
X7.8622Y-2.3928
X7.9409Y-2.3928
X9.2638Y-2.3927
X9.3425Y-2.3927
T3
X7.8184Y-1.6254
X7.8184Y-1.8254
X7.8184Y-2.1254
X7.8184Y-1.7254
X7.8184Y-2.0254
X7.8184Y-1.9254
X7.8184Y-2.2254
X8.4184Y-1.6254
X8.4184Y-1.9254
X8.4184Y-1.8254
X8.4184Y-2.1254
X8.4184Y-1.7254
X8.4184Y-2.0254
X8.4184Y-2.2254
X8.7902Y-2.0254
X8.7902Y-2.2254
X8.7902Y-2.1254
X8.7902Y-1.7254
X8.7902Y-1.9254
X8.7902Y-1.6254
X8.7902Y-1.8254
X9.3902Y-2.0254
X9.3902Y-2.2254
X9.3902Y-1.9254
X9.3902Y-2.1254
X9.3902Y-1.7254
X9.3902Y-1.6254
X9.3902Y-1.8254
T4
X3.6912Y-2.6612
X3.7959Y-3.3222
X3.8468Y-2.6365
X3.9006Y-3.9833
X3.9515Y-3.2976
X4.0562Y-3.9586
X4.3523Y-2.5565
X4.457Y-3.2175
X4.4707Y-1.9627
X4.5078Y-2.5318
X4.5617Y-3.8786
X4.6125Y-3.1929
X4.6751Y-1.8087
X4.7172Y-3.8539
X5.1149Y-1.998
X5.1616Y-2.6656
X5.2083Y-3.3333
X5.272Y-1.987
X5.3187Y-2.6546
X5.3654Y-3.3223
X5.894Y-2.4116
X5.894Y-1.7423
X5.894Y-3.0809
X6.0515Y-2.4116
X6.0515Y-1.7423
X6.0515Y-3.0809
X6.5239Y-4.1045
X6.5633Y-3.3171
X6.5633Y-2.6478
X6.5633Y-1.9785
X6.6814Y-4.1045
X6.7208Y-3.3171
X6.7208Y-2.6478
X6.7208Y-1.9785
X7.2136Y-4.1372
X7.2326Y-3.3958
X7.2326Y-2.0573
X7.2326Y-2.7265
X7.3705Y-4.1509
X7.39Y-3.3958
X7.39Y-2.0573
X7.39Y-2.7265
X7.9215Y-1.838
X7.9215Y-1.913
X7.9285Y-4.2799
X8.0662Y-1.688
X8.0662Y-1.588
X8.0765Y-4.3337
X8.1662Y-1.688
X8.1662Y-1.588
X8.8933Y-1.8381
X8.8933Y-1.9131
X9.038Y-1.6881
X9.038Y-1.5881
X9.0951Y-4.3472
X9.138Y-1.6881
X9.138Y-1.5881
X9.2431Y-4.2934
X9.7792Y-2.0573
X9.7792Y-3.3959
X9.7792Y-2.7266
X9.7989Y-4.1544
X9.9366Y-2.0573
X9.9366Y-3.3959
X9.9366Y-2.7266
X9.9558Y-4.1407
X10.4484Y-2.6478
X10.4484Y-1.9785
X10.4484Y-3.3171
X10.4878Y-4.1045
X10.6059Y-2.6478
X10.6059Y-1.9785
X10.6059Y-3.3171
X10.6453Y-4.1045
X11.1177Y-1.7423
X11.1177Y-3.0809
X11.1177Y-2.4116
X11.2752Y-1.7423
X11.2752Y-3.0809
X11.2752Y-2.4116
X11.8039Y-3.3196
X11.8506Y-2.6519
X11.8973Y-1.9843
X11.961Y-3.3306
X12.0077Y-2.6629
X12.0544Y-1.9953
X12.4525Y-3.8478
X12.5335Y-1.8088
X12.5572Y-3.1867
X12.608Y-3.8724
X12.6619Y-2.5257
X12.7127Y-3.2114
X12.7379Y-1.9628
X12.8174Y-2.5503
X13.1135Y-3.9525
X13.2182Y-3.2914
X13.2691Y-3.9771
X13.3229Y-2.6304
X13.3738Y-3.3161
X13.4785Y-2.655
M30
