%TF.GenerationSoftware,KiCad,Pcbnew,8.0.6*%
%TF.CreationDate,2025-07-17T00:06:11+02:00*%
%TF.ProjectId,combined,636f6d62-696e-4656-942e-6b696361645f,v1.0.0*%
%TF.SameCoordinates,Original*%
%TF.FileFunction,Profile,NP*%
%FSLAX46Y46*%
G04 Gerber Fmt 4.6, Leading zero omitted, Abs format (unit mm)*
G04 Created by KiCad (PCBNEW 8.0.6) date 2025-07-17 00:06:11*
%MOMM*%
%LPD*%
G01*
G04 APERTURE LIST*
%TA.AperFunction,Profile*%
%ADD10C,0.050000*%
%TD*%
%TA.AperFunction,Profile*%
%ADD11C,0.150000*%
%TD*%
%TA.AperFunction,Profile*%
%ADD12C,0.100000*%
%TD*%
G04 APERTURE END LIST*
D10*
X217400000Y-99950002D02*
X219600000Y-99949999D01*
D11*
X121830294Y-39047741D02*
X141842924Y-32207495D01*
X121292786Y-39328638D02*
G75*
G02*
X121830298Y-39047752I1184714J-1612362D01*
G01*
X101580944Y-53814729D02*
G75*
G02*
X100709449Y-54178495I-1184744J1612529D01*
G01*
X179500000Y-38100000D02*
X215398239Y-38100004D01*
X141337149Y-100465191D02*
G75*
G02*
X142850946Y-100768134I394851J-1960609D01*
G01*
D10*
X217400000Y-97700001D02*
X219600000Y-97700000D01*
D11*
X274517762Y-32214838D02*
X258163876Y-37986796D01*
X101580944Y-53814729D02*
X121292786Y-39328638D01*
X336288783Y-54179317D02*
G75*
G02*
X335417290Y-53815560I312617J1974817D01*
G01*
D10*
X217400000Y-97700001D02*
X217400000Y-99950002D01*
D11*
X161814833Y-32099999D02*
G75*
G02*
X162480477Y-32214006I-133J-2001001D01*
G01*
X245326218Y-112556040D02*
X261821535Y-111256910D01*
X94680639Y-108774862D02*
G75*
G02*
X92373925Y-107115373I-331339J1972362D01*
G01*
D10*
X217398239Y-40099173D02*
X219600000Y-40099998D01*
D11*
X219702820Y-101972712D02*
G75*
G02*
X219574898Y-101268110I1871080J703612D01*
G01*
D10*
X241456211Y-62327525D02*
X241456212Y-94327523D01*
X220456211Y-94327523D01*
X220456211Y-62327522D01*
X241456211Y-62327525D01*
D11*
X215398239Y-38100004D02*
G75*
G02*
X217398296Y-40099173I61J-1999996D01*
G01*
X211433574Y-117564502D02*
G75*
G02*
X208877465Y-118740087I-1872074J703802D01*
G01*
X191672014Y-112555216D02*
G75*
G02*
X192199027Y-112669659I-157114J-1994184D01*
G01*
D10*
X217400000Y-43700000D02*
X219600001Y-43700000D01*
X217400000Y-45000000D02*
X219600000Y-44999999D01*
D11*
X162480473Y-32214016D02*
X178834367Y-37985975D01*
X179500000Y-38100000D02*
G75*
G02*
X178834365Y-37985981I-100J1999400D01*
G01*
X315167934Y-39048556D02*
G75*
G02*
X315705445Y-39329454I-647134J-1893044D01*
G01*
X279339888Y-110763942D02*
G75*
G02*
X278238720Y-111106168I-1119088J1658142D01*
G01*
D10*
X217423333Y-101267292D02*
X219574902Y-101268110D01*
X217399998Y-41450002D02*
X219599999Y-41450000D01*
D11*
X295661089Y-100466008D02*
X309737202Y-103300828D01*
X344624338Y-107116187D02*
X352286682Y-58738071D01*
X261960794Y-111250817D02*
X278238720Y-111106169D01*
X219600000Y-44999999D02*
X219600000Y-96300000D01*
X221600002Y-38100815D02*
X257498234Y-38100819D01*
X294508459Y-32100820D02*
X275183402Y-32100823D01*
X127197558Y-103311729D02*
X94680639Y-108774862D01*
X228120778Y-118740926D02*
G75*
G02*
X225564647Y-117565337I-684078J1879326D01*
G01*
X86374061Y-56449000D02*
X100709450Y-54178502D01*
X191672014Y-112555216D02*
X175176701Y-111256091D01*
X217295411Y-101971892D02*
X211433574Y-117564502D01*
X84711553Y-58737248D02*
G75*
G02*
X86374056Y-56448968I1975447J312848D01*
G01*
X279339888Y-110763942D02*
X294147290Y-100768953D01*
X309800675Y-103312550D02*
X342317593Y-108775676D01*
X127261031Y-103300008D02*
G75*
G02*
X127197558Y-103311729I-391531J1942508D01*
G01*
X244799203Y-112670474D02*
G75*
G02*
X245326218Y-112556037I683797J-1878326D01*
G01*
X274517762Y-32214838D02*
G75*
G02*
X275183402Y-32100835I665538J-1885662D01*
G01*
X175037450Y-111249998D02*
G75*
G02*
X175176701Y-111256089I-17650J-1998202D01*
G01*
X141842924Y-32207495D02*
G75*
G02*
X142489779Y-32099983I646876J-1892305D01*
G01*
X142489779Y-32099999D02*
X161814833Y-32099999D01*
D10*
X219600000Y-99949999D02*
X219600000Y-97700000D01*
D11*
X258163876Y-37986796D02*
G75*
G02*
X257498234Y-38100808I-665776J1886896D01*
G01*
X217423333Y-101267292D02*
G75*
G02*
X217295410Y-101971892I-2000533J-708D01*
G01*
X350624172Y-56449820D02*
G75*
G02*
X352286680Y-58738071I-312872J-1975380D01*
G01*
D10*
X294508458Y-32100820D02*
G75*
G02*
X295152840Y-32214151I76542J-1453380D01*
G01*
D11*
X309800675Y-103312550D02*
G75*
G02*
X309737202Y-103300829I332825J1980050D01*
G01*
D10*
X217399998Y-41450002D02*
X217400000Y-43700000D01*
X219599999Y-41450000D02*
X219600001Y-43700000D01*
D11*
X344624338Y-107116187D02*
G75*
G02*
X342317595Y-108775667I-1975238J312687D01*
G01*
X228120778Y-118740926D02*
X244799199Y-112670476D01*
X208877455Y-118740113D02*
X192199029Y-112669654D01*
X219600000Y-40099998D02*
G75*
G02*
X221600002Y-38100800I2000000J-802D01*
G01*
X315167934Y-39048556D02*
X295155315Y-32208312D01*
X294147290Y-100768953D02*
G75*
G02*
X295661096Y-100465974I1119010J-1657747D01*
G01*
X217400000Y-45000000D02*
X217400000Y-96300000D01*
X92373895Y-107115378D02*
X84711553Y-58737248D01*
X158759522Y-111105355D02*
G75*
G02*
X157658355Y-110763114I17878J2000155D01*
G01*
D10*
X216550454Y-94322440D02*
X195550455Y-94322441D01*
X195550456Y-62322441D01*
X216550455Y-62322441D01*
X216550454Y-94322440D01*
D11*
X157658349Y-110763123D02*
X142850948Y-100768131D01*
D10*
X217400000Y-96300000D02*
X219600000Y-96300000D01*
D11*
X350624172Y-56449820D02*
X336288783Y-54179317D01*
X141337149Y-100465191D02*
X127261031Y-103300008D01*
X261821535Y-111256910D02*
G75*
G02*
X261960794Y-111250820I156965J-1993990D01*
G01*
X335417298Y-53815550D02*
X315705443Y-39329457D01*
X219702821Y-101972711D02*
X225564662Y-117565331D01*
X175037450Y-111249998D02*
X158759522Y-111105355D01*
D12*
%TO.C,CPG1316*%
X316127673Y-80521528D02*
G75*
G02*
X315127645Y-80521528I-500014J0D01*
G01*
X315127645Y-80521528D02*
G75*
G02*
X316127673Y-80521528I500014J0D01*
G01*
X328545242Y-76903886D02*
G75*
G02*
X327345260Y-76903886I-599991J0D01*
G01*
X327345260Y-76903886D02*
G75*
G02*
X328545242Y-76903886I599991J0D01*
G01*
X330258989Y-99971609D02*
G75*
G02*
X329258961Y-99971609I-500014J0D01*
G01*
X329258961Y-99971609D02*
G75*
G02*
X330258989Y-99971609I500014J0D01*
G01*
X342676558Y-96353967D02*
G75*
G02*
X341476576Y-96353967I-599991J0D01*
G01*
X341476576Y-96353967D02*
G75*
G02*
X342676558Y-96353967I599991J0D01*
G01*
X228399148Y-111638396D02*
G75*
G02*
X227399158Y-111638396I-499995J0D01*
G01*
X227399158Y-111638396D02*
G75*
G02*
X228399148Y-111638396I499995J0D01*
G01*
X237518477Y-102502652D02*
G75*
G02*
X236318469Y-102502652I-600004J0D01*
G01*
X236318469Y-102502652D02*
G75*
G02*
X237518477Y-102502652I600004J0D01*
G01*
X93622678Y-84994727D02*
G75*
G02*
X92622666Y-84994727I-500006J0D01*
G01*
X92622666Y-84994727D02*
G75*
G02*
X93622678Y-84994727I500006J0D01*
G01*
X104319476Y-77747797D02*
G75*
G02*
X103119480Y-77747797I-599998J0D01*
G01*
X103119480Y-77747797D02*
G75*
G02*
X104319476Y-77747797I599998J0D01*
G01*
X279540819Y-78350816D02*
G75*
G02*
X278540821Y-78350816I-499999J0D01*
G01*
X278540821Y-78350816D02*
G75*
G02*
X279540819Y-78350816I499999J0D01*
G01*
X291240823Y-72850818D02*
G75*
G02*
X290040813Y-72850818I-600005J0D01*
G01*
X290040813Y-72850818D02*
G75*
G02*
X291240823Y-72850818I600005J0D01*
G01*
X163857422Y-67350004D02*
G75*
G02*
X162857422Y-67350004I-500000J0D01*
G01*
X162857422Y-67350004D02*
G75*
G02*
X163857422Y-67350004I500000J0D01*
G01*
X175557416Y-61850000D02*
G75*
G02*
X174357404Y-61850000I-600006J0D01*
G01*
X174357404Y-61850000D02*
G75*
G02*
X175557416Y-61850000I600006J0D01*
G01*
X318787054Y-63730816D02*
G75*
G02*
X317787026Y-63730816I-500014J0D01*
G01*
X317787026Y-63730816D02*
G75*
G02*
X318787054Y-63730816I500014J0D01*
G01*
X331204623Y-60113174D02*
G75*
G02*
X330004641Y-60113174I-599991J0D01*
G01*
X330004641Y-60113174D02*
G75*
G02*
X331204623Y-60113174I599991J0D01*
G01*
X162857427Y-104349997D02*
G75*
G02*
X161857427Y-104349997I-500000J0D01*
G01*
X161857427Y-104349997D02*
G75*
G02*
X162857427Y-104349997I500000J0D01*
G01*
X174557421Y-98849993D02*
G75*
G02*
X173357409Y-98849993I-600006J0D01*
G01*
X173357409Y-98849993D02*
G75*
G02*
X174557421Y-98849993I600006J0D01*
G01*
X262540817Y-67350816D02*
G75*
G02*
X261540819Y-67350816I-499999J0D01*
G01*
X261540819Y-67350816D02*
G75*
G02*
X262540817Y-67350816I499999J0D01*
G01*
X274240821Y-61850818D02*
G75*
G02*
X273040811Y-61850818I-600005J0D01*
G01*
X273040811Y-61850818D02*
G75*
G02*
X274240821Y-61850818I600005J0D01*
G01*
X296970489Y-84182968D02*
G75*
G02*
X295970487Y-84182968I-500001J0D01*
G01*
X295970487Y-84182968D02*
G75*
G02*
X296970489Y-84182968I500001J0D01*
G01*
X309025892Y-79505544D02*
G75*
G02*
X307825884Y-79505544I-600004J0D01*
G01*
X307825884Y-79505544D02*
G75*
G02*
X309025892Y-79505544I600004J0D01*
G01*
X146857423Y-78350003D02*
G75*
G02*
X145857423Y-78350003I-500000J0D01*
G01*
X145857423Y-78350003D02*
G75*
G02*
X146857423Y-78350003I500000J0D01*
G01*
X158557417Y-72849999D02*
G75*
G02*
X157357405Y-72849999I-600006J0D01*
G01*
X157357405Y-72849999D02*
G75*
G02*
X158557417Y-72849999I600006J0D01*
G01*
X163857428Y-50350005D02*
G75*
G02*
X162857428Y-50350005I-500000J0D01*
G01*
X162857428Y-50350005D02*
G75*
G02*
X163857428Y-50350005I500000J0D01*
G01*
X175557422Y-44850001D02*
G75*
G02*
X174357410Y-44850001I-600006J0D01*
G01*
X174357410Y-44850001D02*
G75*
G02*
X175557422Y-44850001I600006J0D01*
G01*
X180857420Y-52349994D02*
G75*
G02*
X179857420Y-52349994I-500000J0D01*
G01*
X179857420Y-52349994D02*
G75*
G02*
X180857420Y-52349994I500000J0D01*
G01*
X192557414Y-46849990D02*
G75*
G02*
X191357402Y-46849990I-600006J0D01*
G01*
X191357402Y-46849990D02*
G75*
G02*
X192557414Y-46849990I600006J0D01*
G01*
X198698643Y-107670144D02*
G75*
G02*
X197698647Y-107670144I-499998J0D01*
G01*
X197698647Y-107670144D02*
G75*
G02*
X198698643Y-107670144I499998J0D01*
G01*
X211580184Y-106469270D02*
G75*
G02*
X210380198Y-106469270I-599993J0D01*
G01*
X210380198Y-106469270D02*
G75*
G02*
X211580184Y-106469270I599993J0D01*
G01*
X332918373Y-83180906D02*
G75*
G02*
X331918345Y-83180906I-500014J0D01*
G01*
X331918345Y-83180906D02*
G75*
G02*
X332918373Y-83180906I500014J0D01*
G01*
X345335942Y-79563264D02*
G75*
G02*
X344135960Y-79563264I-599991J0D01*
G01*
X344135960Y-79563264D02*
G75*
G02*
X345335942Y-79563264I599991J0D01*
G01*
X335577758Y-66390205D02*
G75*
G02*
X334577730Y-66390205I-500014J0D01*
G01*
X334577730Y-66390205D02*
G75*
G02*
X335577758Y-66390205I500014J0D01*
G01*
X347995327Y-62772563D02*
G75*
G02*
X346795345Y-62772563I-599991J0D01*
G01*
X346795345Y-62772563D02*
G75*
G02*
X347995327Y-62772563I599991J0D01*
G01*
X128270144Y-68032734D02*
G75*
G02*
X127270128Y-68032734I-500008J0D01*
G01*
X127270128Y-68032734D02*
G75*
G02*
X128270144Y-68032734I500008J0D01*
G01*
X139558221Y-61736962D02*
G75*
G02*
X138358243Y-61736962I-599989J0D01*
G01*
X138358243Y-61736962D02*
G75*
G02*
X139558221Y-61736962I599989J0D01*
G01*
X96282073Y-101785438D02*
G75*
G02*
X95282061Y-101785438I-500006J0D01*
G01*
X95282061Y-101785438D02*
G75*
G02*
X96282073Y-101785438I500006J0D01*
G01*
X106978871Y-94538508D02*
G75*
G02*
X105778875Y-94538508I-599998J0D01*
G01*
X105778875Y-94538508D02*
G75*
G02*
X106978871Y-94538508I599998J0D01*
G01*
X313468291Y-97312227D02*
G75*
G02*
X312468263Y-97312227I-500014J0D01*
G01*
X312468263Y-97312227D02*
G75*
G02*
X313468291Y-97312227I500014J0D01*
G01*
X325885860Y-93694585D02*
G75*
G02*
X324685878Y-93694585I-599991J0D01*
G01*
X324685878Y-93694585D02*
G75*
G02*
X325885860Y-93694585I599991J0D01*
G01*
X279540824Y-61350819D02*
G75*
G02*
X278540826Y-61350819I-499999J0D01*
G01*
X278540826Y-61350819D02*
G75*
G02*
X279540824Y-61350819I499999J0D01*
G01*
X291240828Y-55850821D02*
G75*
G02*
X290040818Y-55850821I-600005J0D01*
G01*
X290040818Y-55850821D02*
G75*
G02*
X291240828Y-55850821I600005J0D01*
G01*
X263540819Y-104350820D02*
G75*
G02*
X262540821Y-104350820I-499999J0D01*
G01*
X262540821Y-104350820D02*
G75*
G02*
X263540819Y-104350820I499999J0D01*
G01*
X275240823Y-98850822D02*
G75*
G02*
X274040813Y-98850822I-600005J0D01*
G01*
X274040813Y-98850822D02*
G75*
G02*
X275240823Y-98850822I600005J0D01*
G01*
X245540815Y-52350819D02*
G75*
G02*
X244540817Y-52350819I-499999J0D01*
G01*
X244540817Y-52350819D02*
G75*
G02*
X245540815Y-52350819I499999J0D01*
G01*
X257240819Y-46850821D02*
G75*
G02*
X256040809Y-46850821I-600005J0D01*
G01*
X256040809Y-46850821D02*
G75*
G02*
X257240819Y-46850821I600005J0D01*
G01*
X129456005Y-84991318D02*
G75*
G02*
X128455989Y-84991318I-500008J0D01*
G01*
X128455989Y-84991318D02*
G75*
G02*
X129456005Y-84991318I500008J0D01*
G01*
X140744082Y-78695546D02*
G75*
G02*
X139544104Y-78695546I-599989J0D01*
G01*
X139544104Y-78695546D02*
G75*
G02*
X140744082Y-78695546I599989J0D01*
G01*
X180857425Y-69350001D02*
G75*
G02*
X179857425Y-69350001I-500000J0D01*
G01*
X179857425Y-69350001D02*
G75*
G02*
X180857425Y-69350001I500000J0D01*
G01*
X192557419Y-63849997D02*
G75*
G02*
X191357407Y-63849997I-600006J0D01*
G01*
X191357407Y-63849997D02*
G75*
G02*
X192557419Y-63849997I600006J0D01*
G01*
X146857418Y-61349999D02*
G75*
G02*
X145857418Y-61349999I-500000J0D01*
G01*
X145857418Y-61349999D02*
G75*
G02*
X146857418Y-61349999I500000J0D01*
G01*
X158557412Y-55849995D02*
G75*
G02*
X157357400Y-55849995I-600006J0D01*
G01*
X157357400Y-55849995D02*
G75*
G02*
X158557412Y-55849995I600006J0D01*
G01*
X113072770Y-99126047D02*
G75*
G02*
X112072758Y-99126047I-500006J0D01*
G01*
X112072758Y-99126047D02*
G75*
G02*
X113072770Y-99126047I500006J0D01*
G01*
X123769568Y-91879117D02*
G75*
G02*
X122569572Y-91879117I-599998J0D01*
G01*
X122569572Y-91879117D02*
G75*
G02*
X123769568Y-91879117I599998J0D01*
G01*
D11*
%TO.C,REF\u002A\u002A*%
X201157412Y-49500003D02*
X201157413Y-49036509D01*
X201157416Y-46231503D02*
X201157418Y-45800000D01*
X201157418Y-45800000D02*
X204157420Y-45800006D01*
X201157420Y-48136502D02*
X201157417Y-47131506D01*
X204157415Y-49500004D02*
X201157412Y-49500003D01*
X204157420Y-45800006D02*
X204157415Y-49500004D01*
X204832415Y-42421503D02*
X204832420Y-40781502D01*
X204832416Y-39881503D02*
X207372417Y-39881507D01*
X207372415Y-43321500D02*
X204832419Y-43321504D01*
X207372419Y-40781507D02*
X207372416Y-42421502D01*
X201157416Y-46231503D02*
G75*
G02*
X201157417Y-47131507I-2J-450002D01*
G01*
X201157420Y-48136502D02*
G75*
G02*
X201157413Y-49036508I-16J-450003D01*
G01*
X204832415Y-42421503D02*
G75*
G02*
X204832419Y-43321505I2J-450001D01*
G01*
X204832416Y-39881503D02*
G75*
G02*
X204832420Y-40781501I3J-449999D01*
G01*
X207372415Y-43321500D02*
G75*
G02*
X207372416Y-42421502I-6J449999D01*
G01*
X207372419Y-40781507D02*
G75*
G02*
X207372417Y-39881507I-2J450000D01*
G01*
D12*
%TO.C,CPG1316*%
X299342209Y-50265794D02*
G75*
G02*
X298342207Y-50265794I-500001J0D01*
G01*
X298342207Y-50265794D02*
G75*
G02*
X299342209Y-50265794I500001J0D01*
G01*
X311397612Y-45588370D02*
G75*
G02*
X310197604Y-45588370I-600004J0D01*
G01*
X310197604Y-45588370D02*
G75*
G02*
X311397612Y-45588370I600004J0D01*
G01*
X245540817Y-86350812D02*
G75*
G02*
X244540819Y-86350812I-499999J0D01*
G01*
X244540819Y-86350812D02*
G75*
G02*
X245540817Y-86350812I499999J0D01*
G01*
X257240821Y-80850814D02*
G75*
G02*
X256040811Y-80850814I-600005J0D01*
G01*
X256040811Y-80850814D02*
G75*
G02*
X257240821Y-80850814I600005J0D01*
G01*
X163857418Y-84350003D02*
G75*
G02*
X162857418Y-84350003I-500000J0D01*
G01*
X162857418Y-84350003D02*
G75*
G02*
X163857418Y-84350003I500000J0D01*
G01*
X175557412Y-78849999D02*
G75*
G02*
X174357400Y-78849999I-600006J0D01*
G01*
X174357400Y-78849999D02*
G75*
G02*
X175557412Y-78849999I600006J0D01*
G01*
X180379493Y-104892360D02*
G75*
G02*
X179379491Y-104892360I-500001J0D01*
G01*
X179379491Y-104892360D02*
G75*
G02*
X180379493Y-104892360I500001J0D01*
G01*
X192514703Y-100424288D02*
G75*
G02*
X191314713Y-100424288I-599995J0D01*
G01*
X191314713Y-100424288D02*
G75*
G02*
X192514703Y-100424288I599995J0D01*
G01*
X146857421Y-44350001D02*
G75*
G02*
X145857421Y-44350001I-500000J0D01*
G01*
X145857421Y-44350001D02*
G75*
G02*
X146857421Y-44350001I500000J0D01*
G01*
X158557415Y-38849997D02*
G75*
G02*
X157357403Y-38849997I-600006J0D01*
G01*
X157357403Y-38849997D02*
G75*
G02*
X158557415Y-38849997I600006J0D01*
G01*
X298156352Y-67224375D02*
G75*
G02*
X297156350Y-67224375I-500001J0D01*
G01*
X297156350Y-67224375D02*
G75*
G02*
X298156352Y-67224375I500001J0D01*
G01*
X310211755Y-62546951D02*
G75*
G02*
X309011747Y-62546951I-600004J0D01*
G01*
X309011747Y-62546951D02*
G75*
G02*
X310211755Y-62546951I600004J0D01*
G01*
X127084287Y-51074147D02*
G75*
G02*
X126084271Y-51074147I-500008J0D01*
G01*
X126084271Y-51074147D02*
G75*
G02*
X127084287Y-51074147I500008J0D01*
G01*
X138372364Y-44778375D02*
G75*
G02*
X137172386Y-44778375I-599989J0D01*
G01*
X137172386Y-44778375D02*
G75*
G02*
X138372364Y-44778375I599989J0D01*
G01*
X107753994Y-65544648D02*
G75*
G02*
X106753982Y-65544648I-500006J0D01*
G01*
X106753982Y-65544648D02*
G75*
G02*
X107753994Y-65544648I500006J0D01*
G01*
X118450792Y-58297718D02*
G75*
G02*
X117250796Y-58297718I-599998J0D01*
G01*
X117250796Y-58297718D02*
G75*
G02*
X118450792Y-58297718I599998J0D01*
G01*
X90963298Y-68204027D02*
G75*
G02*
X89963286Y-68204027I-500006J0D01*
G01*
X89963286Y-68204027D02*
G75*
G02*
X90963298Y-68204027I500006J0D01*
G01*
X101660096Y-60957097D02*
G75*
G02*
X100460100Y-60957097I-599998J0D01*
G01*
X100460100Y-60957097D02*
G75*
G02*
X101660096Y-60957097I599998J0D01*
G01*
D11*
%TO.C,REF\u002A\u002A*%
X225840811Y-45800820D02*
X228840819Y-45800813D01*
X225840814Y-46232318D02*
X225840811Y-45800820D01*
X225840817Y-49500814D02*
X225840814Y-49037325D01*
X225840818Y-48137318D02*
X225840819Y-47132317D01*
X228840819Y-45800813D02*
X228840820Y-49500820D01*
X228840820Y-49500820D02*
X225840817Y-49500814D01*
X229515819Y-39882313D02*
X232055819Y-39882320D01*
X229515820Y-42422316D02*
X229515819Y-40782320D01*
X232055813Y-40782319D02*
X232055815Y-42422316D01*
X232055816Y-43322312D02*
X229515810Y-43322317D01*
X225840814Y-46232318D02*
G75*
G02*
X225840819Y-47132318I1J-450000D01*
G01*
X225840818Y-48137318D02*
G75*
G02*
X225840814Y-49037324I-13J-450003D01*
G01*
X229515819Y-39882313D02*
G75*
G02*
X229515819Y-40782319I2J-450003D01*
G01*
X229515820Y-42422316D02*
G75*
G02*
X229515810Y-43322316I-12J-450000D01*
G01*
X232055813Y-40782319D02*
G75*
G02*
X232055819Y-39882321I12J449999D01*
G01*
X232055816Y-43322312D02*
G75*
G02*
X232055815Y-42422316I4J449998D01*
G01*
D12*
%TO.C,CPG1316*%
X279540817Y-44350815D02*
G75*
G02*
X278540819Y-44350815I-499999J0D01*
G01*
X278540819Y-44350815D02*
G75*
G02*
X279540817Y-44350815I499999J0D01*
G01*
X291240821Y-38850817D02*
G75*
G02*
X290040811Y-38850817I-600005J0D01*
G01*
X290040811Y-38850817D02*
G75*
G02*
X291240821Y-38850817I600005J0D01*
G01*
X262540818Y-50350818D02*
G75*
G02*
X261540820Y-50350818I-499999J0D01*
G01*
X261540820Y-50350818D02*
G75*
G02*
X262540818Y-50350818I499999J0D01*
G01*
X274240822Y-44850820D02*
G75*
G02*
X273040812Y-44850820I-600005J0D01*
G01*
X273040812Y-44850820D02*
G75*
G02*
X274240822Y-44850820I600005J0D01*
G01*
X245540821Y-69350818D02*
G75*
G02*
X244540823Y-69350818I-499999J0D01*
G01*
X244540823Y-69350818D02*
G75*
G02*
X245540821Y-69350818I499999J0D01*
G01*
X257240825Y-63850820D02*
G75*
G02*
X256040815Y-63850820I-600005J0D01*
G01*
X256040815Y-63850820D02*
G75*
G02*
X257240825Y-63850820I600005J0D01*
G01*
X262540822Y-84350816D02*
G75*
G02*
X261540824Y-84350816I-499999J0D01*
G01*
X261540824Y-84350816D02*
G75*
G02*
X262540822Y-84350816I499999J0D01*
G01*
X274240826Y-78850818D02*
G75*
G02*
X273040816Y-78850818I-600005J0D01*
G01*
X273040816Y-78850818D02*
G75*
G02*
X274240826Y-78850818I600005J0D01*
G01*
X110413379Y-82335342D02*
G75*
G02*
X109413367Y-82335342I-500006J0D01*
G01*
X109413367Y-82335342D02*
G75*
G02*
X110413379Y-82335342I500006J0D01*
G01*
X121110177Y-75088412D02*
G75*
G02*
X119910181Y-75088412I-599998J0D01*
G01*
X119910181Y-75088412D02*
G75*
G02*
X121110177Y-75088412I599998J0D01*
G01*
X180857420Y-86349997D02*
G75*
G02*
X179857420Y-86349997I-500000J0D01*
G01*
X179857420Y-86349997D02*
G75*
G02*
X180857420Y-86349997I500000J0D01*
G01*
X192557414Y-80849993D02*
G75*
G02*
X191357402Y-80849993I-600006J0D01*
G01*
X191357402Y-80849993D02*
G75*
G02*
X192557414Y-80849993I600006J0D01*
G01*
X246062879Y-105904187D02*
G75*
G02*
X245062871Y-105904187I-500004J0D01*
G01*
X245062871Y-105904187D02*
G75*
G02*
X246062879Y-105904187I500004J0D01*
G01*
X257239379Y-99414105D02*
G75*
G02*
X256039383Y-99414105I-599998J0D01*
G01*
X256039383Y-99414105D02*
G75*
G02*
X257239379Y-99414105I599998J0D01*
G01*
%TD*%
M02*
