%TF.GenerationSoftware,KiCad,Pcbnew,8.0.6*%
%TF.CreationDate,2025-07-15T00:24:02+02:00*%
%TF.ProjectId,combined,636f6d62-696e-4656-942e-6b696361645f,v1.0.0*%
%TF.SameCoordinates,Original*%
%TF.FileFunction,Soldermask,Top*%
%TF.FilePolarity,Negative*%
%FSLAX46Y46*%
G04 Gerber Fmt 4.6, Leading zero omitted, Abs format (unit mm)*
G04 Created by KiCad (PCBNEW 8.0.6) date 2025-07-15 00:24:02*
%MOMM*%
%LPD*%
G01*
G04 APERTURE LIST*
G04 Aperture macros list*
%AMRoundRect*
0 Rectangle with rounded corners*
0 $1 Rounding radius*
0 $2 $3 $4 $5 $6 $7 $8 $9 X,Y pos of 4 corners*
0 Add a 4 corners polygon primitive as box body*
4,1,4,$2,$3,$4,$5,$6,$7,$8,$9,$2,$3,0*
0 Add four circle primitives for the rounded corners*
1,1,$1+$1,$2,$3*
1,1,$1+$1,$4,$5*
1,1,$1+$1,$6,$7*
1,1,$1+$1,$8,$9*
0 Add four rect primitives between the rounded corners*
20,1,$1+$1,$2,$3,$4,$5,0*
20,1,$1+$1,$4,$5,$6,$7,0*
20,1,$1+$1,$6,$7,$8,$9,0*
20,1,$1+$1,$8,$9,$2,$3,0*%
G04 Aperture macros list end*
%ADD10C,0.600000*%
%ADD11RoundRect,0.050000X-0.450000X-0.600000X0.450000X-0.600000X0.450000X0.600000X-0.450000X0.600000X0*%
%ADD12C,1.500000*%
%ADD13RoundRect,0.050000X-0.921893X-0.866452X0.609024X-1.108925X0.921893X0.866452X-0.609024X1.108925X0*%
%ADD14RoundRect,0.050000X-1.144123X-0.831254X0.831254X-1.144123X1.144123X0.831254X-0.831254X1.144123X0*%
%ADD15RoundRect,0.050000X-0.386242X-1.204758X1.070282X-0.674627X0.386242X1.204758X-1.070282X0.674627X0*%
%ADD16RoundRect,0.050000X-0.597672X-1.281713X1.281713X-0.597672X0.597672X1.281713X-1.281713X0.597672X0*%
%ADD17RoundRect,0.050000X-0.538320X-0.522217X0.350599X-0.663009X0.538320X0.522217X-0.350599X0.663009X0*%
%ADD18RoundRect,0.050000X-0.609024X-1.108925X0.921893X-0.866452X0.609024X1.108925X-0.921893X0.866452X0*%
%ADD19RoundRect,0.050000X-0.831254X-1.144123X1.144123X-0.831254X0.831254X1.144123X-1.144123X0.831254X0*%
%ADD20RoundRect,0.050000X-0.775000X-1.000000X0.775000X-1.000000X0.775000X1.000000X-0.775000X1.000000X0*%
%ADD21RoundRect,0.050000X-1.000000X-1.000000X1.000000X-1.000000X1.000000X1.000000X-1.000000X1.000000X0*%
%ADD22RoundRect,0.050000X-0.490758X-0.567148X0.407050X-0.629929X0.490758X0.567148X-0.407050X0.629929X0*%
%ADD23RoundRect,0.050000X-0.842869X-0.943503X0.703356X-1.051625X0.842869X0.943503X-0.703356X1.051625X0*%
%ADD24RoundRect,0.050000X-1.067321X-0.927808X0.927808X-1.067321X1.067321X0.927808X-0.927808X1.067321X0*%
%ADD25RoundRect,0.260000X-0.390000X-0.665000X0.390000X-0.665000X0.390000X0.665000X-0.390000X0.665000X0*%
%ADD26O,1.300000X1.850000*%
%ADD27RoundRect,0.050000X-0.350599X-0.663009X0.538320X-0.522217X0.350599X0.663009X-0.538320X0.522217X0*%
%ADD28RoundRect,0.050000X-0.407050X-0.629929X0.490758X-0.567148X0.407050X0.629929X-0.490758X0.567148X0*%
%ADD29RoundRect,0.050000X-1.070282X-0.674627X0.386242X-1.204758X1.070282X0.674627X-0.386242X1.204758X0*%
%ADD30RoundRect,0.050000X-1.281713X-0.597672X0.597672X-1.281713X1.281713X0.597672X-0.597672X1.281713X0*%
%ADD31RoundRect,0.050000X-0.500581X-0.558497X0.395994X-0.636937X0.500581X0.558497X-0.395994X0.636937X0*%
%ADD32RoundRect,0.050000X-0.703356X-1.051625X0.842869X-0.943503X0.703356X1.051625X-0.842869X0.943503X0*%
%ADD33RoundRect,0.050000X-0.927808X-1.067321X1.067321X-0.927808X0.927808X1.067321X-1.067321X0.927808X0*%
%ADD34C,1.800000*%
%ADD35RoundRect,0.162400X1.103600X0.649600X-1.103600X0.649600X-1.103600X-0.649600X1.103600X-0.649600X0*%
%ADD36C,1.624000*%
%ADD37RoundRect,0.162400X-1.103600X-0.649600X1.103600X-0.649600X1.103600X0.649600X-1.103600X0.649600X0*%
%ADD38C,1.600000*%
%ADD39RoundRect,0.050000X-0.859207X-0.928649X0.684895X-1.063740X0.859207X0.928649X-0.684895X1.063740X0*%
%ADD40RoundRect,0.050000X-1.083350X-0.909039X0.909039X-1.083350X1.083350X0.909039X-0.909039X1.083350X0*%
%ADD41RoundRect,0.050000X-0.217650X-0.717725X0.628074X-0.409907X0.217650X0.717725X-0.628074X0.409907X0*%
%ADD42RoundRect,0.050000X0.602987X0.215423X-0.342532X0.540992X-0.602987X-0.215423X0.342532X-0.540992X0*%
%ADD43C,1.000000*%
%ADD44RoundRect,0.050000X0.575108X0.595190X-0.086755X0.823088X-0.575108X-0.595190X0.086755X-0.823088X0*%
%ADD45RoundRect,0.050000X-0.628074X-0.409907X0.217650X-0.717725X0.628074X0.409907X-0.217650X0.717725X0*%
%ADD46RoundRect,0.050000X0.342532X0.540992X-0.602987X0.215423X-0.342532X-0.540992X0.602987X-0.215423X0*%
%ADD47RoundRect,0.050000X0.086755X0.823088X-0.575108X0.595190X-0.086755X-0.823088X0.575108X-0.595190X0*%
%ADD48RoundRect,0.050000X-0.395994X-0.636937X0.500581X-0.558497X0.395994X0.636937X-0.500581X0.558497X0*%
%ADD49RoundRect,0.050000X-0.684895X-1.063740X0.859207X-0.928649X0.684895X1.063740X-0.859207X0.928649X0*%
%ADD50RoundRect,0.050000X-0.909039X-1.083350X1.083350X-0.909039X0.909039X1.083350X-1.083350X0.909039X0*%
G04 APERTURE END LIST*
D10*
%TO.C,mouse-bite-1mm-3mm*%
X217790000Y-44050000D03*
X217790000Y-44650000D03*
X218500000Y-44050000D03*
X218500000Y-44650000D03*
X219200000Y-44650000D03*
X219210000Y-44050000D03*
%TD*%
%TO.C,mouse-bite-1mm-3mm*%
X217790000Y-96700000D03*
X217790000Y-97300000D03*
X218500000Y-96700000D03*
X218500000Y-97300000D03*
X219200000Y-97300000D03*
X219210000Y-96700000D03*
%TD*%
D11*
%TO.C,D16*%
X184507413Y-80899999D03*
X187807409Y-80899997D03*
%TD*%
D12*
%TO.C,CPG1316*%
X318902681Y-80938987D03*
D13*
X318902681Y-80938987D03*
D12*
X323841123Y-81721162D03*
D13*
X323841123Y-81721162D03*
D14*
X314576027Y-83645480D03*
X316453244Y-71793221D03*
X327119666Y-85632191D03*
X328996883Y-73779932D03*
%TD*%
D12*
%TO.C,CPG1316*%
X333033997Y-100389069D03*
D13*
X333033997Y-100389069D03*
D12*
X337972439Y-101171244D03*
D13*
X337972439Y-101171244D03*
D14*
X328707343Y-103095562D03*
X330584560Y-91243303D03*
X341250982Y-105082273D03*
X343128199Y-93230014D03*
%TD*%
D12*
%TO.C,CPG1316*%
X230965936Y-110415762D03*
D15*
X230965936Y-110415762D03*
D12*
X235664396Y-108705663D03*
D15*
X235664396Y-108705663D03*
D16*
X224389642Y-103604194D03*
X228493889Y-114880507D03*
X236323737Y-99260539D03*
X240427984Y-110536852D03*
%TD*%
D17*
%TO.C,D1*%
X334710459Y-95237914D03*
X337969831Y-95754146D03*
%TD*%
D12*
%TO.C,CPG1316*%
X96366406Y-84379717D03*
D18*
X96366406Y-84379717D03*
D12*
X101304845Y-83597545D03*
D18*
X101304845Y-83597545D03*
D19*
X91210647Y-76438492D03*
X93087862Y-88290749D03*
X103754288Y-74451775D03*
X105631503Y-86304032D03*
%TD*%
D12*
%TO.C,CPG1316*%
X282340819Y-78250817D03*
D20*
X282340819Y-78250817D03*
D12*
X287340817Y-78250823D03*
D20*
X287340817Y-78250823D03*
D21*
X278490820Y-81600814D03*
X278490822Y-69600822D03*
X291190816Y-81600812D03*
X291190818Y-69600820D03*
%TD*%
D12*
%TO.C,CPG1316*%
X166657414Y-67250000D03*
D20*
X166657414Y-67250000D03*
D12*
X171657417Y-67249999D03*
D20*
X171657417Y-67249999D03*
D21*
X162807411Y-58600004D03*
X162807419Y-70599995D03*
X175507413Y-58600009D03*
X175507421Y-70600000D03*
%TD*%
D11*
%TO.C,D18*%
X184507420Y-46900002D03*
X187807416Y-46900000D03*
%TD*%
D22*
%TO.C,D7*%
X300990548Y-79035733D03*
X304282510Y-79265925D03*
%TD*%
D12*
%TO.C,CPG1316*%
X321562062Y-64148277D03*
D13*
X321562062Y-64148277D03*
D12*
X326500504Y-64930452D03*
D13*
X326500504Y-64930452D03*
D14*
X317235408Y-66854770D03*
X319112625Y-55002511D03*
X329779047Y-68841481D03*
X331656264Y-56989222D03*
%TD*%
D12*
%TO.C,CPG1316*%
X165657419Y-104249994D03*
D20*
X165657419Y-104249994D03*
D12*
X170657422Y-104249993D03*
D20*
X170657422Y-104249993D03*
D21*
X161807416Y-95599998D03*
X161807424Y-107599989D03*
X174507418Y-95600003D03*
X174507426Y-107599994D03*
%TD*%
D10*
%TO.C,mouse-bite-1mm-3mm*%
X217790000Y-100300001D03*
X217790000Y-100900000D03*
X218500000Y-100300000D03*
X218500000Y-100900000D03*
X219200000Y-100899999D03*
X219210000Y-100300000D03*
%TD*%
D12*
%TO.C,CPG1316*%
X265340817Y-67250817D03*
D20*
X265340817Y-67250817D03*
D12*
X270340815Y-67250823D03*
D20*
X270340815Y-67250823D03*
D21*
X261490818Y-70600814D03*
X261490820Y-58600822D03*
X274190814Y-70600812D03*
X274190816Y-58600820D03*
%TD*%
D12*
%TO.C,CPG1316*%
X299769420Y-84313405D03*
D23*
X299769420Y-84313405D03*
D12*
X304757243Y-84662193D03*
D23*
X304757243Y-84662193D03*
D24*
X295695116Y-87386683D03*
X296532197Y-75415917D03*
X308364179Y-88272595D03*
X309201260Y-76301829D03*
%TD*%
D17*
%TO.C,D4*%
X317919752Y-92578527D03*
X321179124Y-93094759D03*
%TD*%
D12*
%TO.C,CPG1316*%
X149657416Y-78249999D03*
D20*
X149657416Y-78249999D03*
D12*
X154657419Y-78249998D03*
D20*
X154657419Y-78249998D03*
D21*
X145807413Y-69600003D03*
X145807421Y-81599994D03*
X158507415Y-69600008D03*
X158507423Y-81599999D03*
%TD*%
D25*
%TO.C,JST1*%
X199650455Y-60772438D03*
D26*
X201650447Y-60772442D03*
%TD*%
D11*
%TO.C,D16*%
X249190818Y-80900824D03*
X252490812Y-80900820D03*
%TD*%
D12*
%TO.C,CPG1316*%
X166657419Y-50250001D03*
D20*
X166657419Y-50250001D03*
D12*
X171657422Y-50250000D03*
D20*
X171657422Y-50250000D03*
D21*
X162807416Y-41600005D03*
X162807424Y-53599996D03*
X175507418Y-41600010D03*
X175507426Y-53600001D03*
%TD*%
D27*
%TO.C,D4*%
X115819113Y-93093942D03*
X119078485Y-92577708D03*
%TD*%
D12*
%TO.C,CPG1316*%
X183657412Y-52249990D03*
D20*
X183657412Y-52249990D03*
D12*
X188657415Y-52249989D03*
D20*
X188657415Y-52249989D03*
D21*
X179807409Y-43599994D03*
X179807417Y-55599985D03*
X192507411Y-43599999D03*
X192507419Y-55599990D03*
%TD*%
D11*
%TO.C,D12*%
X283190823Y-38900814D03*
X286490817Y-38900810D03*
%TD*%
%TO.C,D14*%
X266190820Y-61900817D03*
X269490814Y-61900813D03*
%TD*%
D28*
%TO.C,D9*%
X130344005Y-45347924D03*
X133635957Y-45117736D03*
%TD*%
D27*
%TO.C,D6*%
X110500337Y-59512539D03*
X113759709Y-58996305D03*
%TD*%
D12*
%TO.C,CPG1316*%
X201333833Y-108704849D03*
D29*
X201333833Y-108704849D03*
D12*
X206032298Y-110414942D03*
D29*
X206032298Y-110414942D03*
D30*
X200674495Y-99259728D03*
X196570257Y-110536035D03*
X212608581Y-103603379D03*
X208504343Y-114879686D03*
%TD*%
D31*
%TO.C,D20*%
X184488707Y-99824794D03*
X187776145Y-100112414D03*
%TD*%
D17*
%TO.C,D3*%
X340029230Y-61656510D03*
X343288602Y-62172742D03*
%TD*%
D22*
%TO.C,D8*%
X302176410Y-62077149D03*
X305468372Y-62307341D03*
%TD*%
D12*
%TO.C,CPG1316*%
X335693381Y-83598366D03*
D13*
X335693381Y-83598366D03*
D12*
X340631823Y-84380541D03*
D13*
X340631823Y-84380541D03*
D14*
X331366727Y-86304859D03*
X333243944Y-74452600D03*
X343910366Y-88291570D03*
X345787583Y-76439311D03*
%TD*%
D11*
%TO.C,D13*%
X266190824Y-78900817D03*
X269490818Y-78900813D03*
%TD*%
%TO.C,D14*%
X167507413Y-61899995D03*
X170807409Y-61899993D03*
%TD*%
D12*
%TO.C,CPG1316*%
X338352767Y-66807665D03*
D13*
X338352767Y-66807665D03*
D12*
X343291209Y-67589840D03*
D13*
X343291209Y-67589840D03*
D14*
X334026113Y-69514158D03*
X335903330Y-57661899D03*
X346569752Y-71500869D03*
X348446969Y-59648610D03*
%TD*%
D12*
%TO.C,CPG1316*%
X131055125Y-67702783D03*
D32*
X131055125Y-67702783D03*
D12*
X136042948Y-67353999D03*
D32*
X136042948Y-67353999D03*
D33*
X126611111Y-59342424D03*
X127448197Y-71313182D03*
X139280171Y-58456514D03*
X140117257Y-70427272D03*
%TD*%
D11*
%TO.C,D15*%
X167507416Y-44899997D03*
X170807412Y-44899995D03*
%TD*%
D34*
%TO.C,RST1*%
X323492163Y-49849962D03*
X318301025Y-45938172D03*
%TD*%
D12*
%TO.C,CPG1316*%
X99025801Y-101170427D03*
D18*
X99025801Y-101170427D03*
D12*
X103964240Y-100388255D03*
D18*
X103964240Y-100388255D03*
D19*
X93870042Y-93229202D03*
X95747257Y-105081459D03*
X106413683Y-91242485D03*
X108290898Y-103094742D03*
%TD*%
D12*
%TO.C,CPG1316*%
X316243299Y-97729686D03*
D13*
X316243299Y-97729686D03*
D12*
X321181741Y-98511861D03*
D13*
X321181741Y-98511861D03*
D14*
X311916645Y-100436179D03*
X313793862Y-88583920D03*
X324460284Y-102422890D03*
X326337501Y-90570631D03*
%TD*%
D12*
%TO.C,CPG1316*%
X282340824Y-61250820D03*
D20*
X282340824Y-61250820D03*
D12*
X287340822Y-61250826D03*
D20*
X287340822Y-61250826D03*
D21*
X278490825Y-64600817D03*
X278490827Y-52600825D03*
X291190821Y-64600815D03*
X291190823Y-52600823D03*
%TD*%
D12*
%TO.C,CPG1316*%
X266340818Y-104250821D03*
D20*
X266340818Y-104250821D03*
D12*
X271340816Y-104250827D03*
D20*
X271340816Y-104250827D03*
D21*
X262490819Y-107600818D03*
X262490821Y-95600826D03*
X275190815Y-107600816D03*
X275190817Y-95600824D03*
%TD*%
D11*
%TO.C,D19*%
X267190821Y-98900820D03*
X270490815Y-98900816D03*
%TD*%
D12*
%TO.C,CPG1316*%
X248340816Y-52250820D03*
D20*
X248340816Y-52250820D03*
D12*
X253340814Y-52250826D03*
D20*
X253340814Y-52250826D03*
D21*
X244490817Y-55600817D03*
X244490819Y-43600825D03*
X257190813Y-55600815D03*
X257190815Y-43600823D03*
%TD*%
D11*
%TO.C,D17*%
X249190817Y-63900826D03*
X252490811Y-63900822D03*
%TD*%
%TO.C,D18*%
X249190821Y-46900822D03*
X252490815Y-46900818D03*
%TD*%
D12*
%TO.C,CPG1316*%
X132240985Y-84661367D03*
D32*
X132240985Y-84661367D03*
D12*
X137228808Y-84312583D03*
D32*
X137228808Y-84312583D03*
D33*
X127796971Y-76301008D03*
X128634057Y-88271766D03*
X140466031Y-75415098D03*
X141303117Y-87385856D03*
%TD*%
D11*
%TO.C,D11*%
X283190821Y-55900822D03*
X286490815Y-55900818D03*
%TD*%
D25*
%TO.C,JST1*%
X235256214Y-60727526D03*
D26*
X237256210Y-60727522D03*
%TD*%
D12*
%TO.C,CPG1316*%
X183657417Y-69249997D03*
D20*
X183657417Y-69249997D03*
D12*
X188657420Y-69249996D03*
D20*
X188657420Y-69249996D03*
D21*
X179807414Y-60600001D03*
X179807422Y-72599992D03*
X192507416Y-60600006D03*
X192507424Y-72599997D03*
%TD*%
D17*
%TO.C,D5*%
X320579137Y-75787825D03*
X323838509Y-76304057D03*
%TD*%
D11*
%TO.C,D19*%
X166507421Y-98899999D03*
X169807417Y-98899997D03*
%TD*%
%TO.C,D11*%
X150507422Y-55900004D03*
X153807418Y-55900002D03*
%TD*%
D12*
%TO.C,CPG1316*%
X149657410Y-61249995D03*
D20*
X149657410Y-61249995D03*
D12*
X154657413Y-61249994D03*
D20*
X154657413Y-61249994D03*
D21*
X145807407Y-52599999D03*
X145807415Y-64599990D03*
X158507409Y-52600004D03*
X158507417Y-64599995D03*
%TD*%
D11*
%TO.C,D10*%
X150507412Y-72899998D03*
X153807408Y-72899996D03*
%TD*%
D12*
%TO.C,CPG1316*%
X115816498Y-98511037D03*
D18*
X115816498Y-98511037D03*
D12*
X120754937Y-97728865D03*
D18*
X120754937Y-97728865D03*
D19*
X110660739Y-90569812D03*
X112537954Y-102422069D03*
X123204380Y-88583095D03*
X125081595Y-100435352D03*
%TD*%
D17*
%TO.C,D6*%
X323238527Y-58997127D03*
X326497899Y-59513359D03*
%TD*%
D28*
%TO.C,D8*%
X131529863Y-62306512D03*
X134821815Y-62076324D03*
%TD*%
D35*
%TO.C,REF\u002A\u002A*%
X197702416Y-41279999D03*
D36*
X198537412Y-41280008D03*
D35*
X197702415Y-43819998D03*
D36*
X198537418Y-43820005D03*
D35*
X197702414Y-46360003D03*
D36*
X198537414Y-46360005D03*
D35*
X197702413Y-48900001D03*
D36*
X198537419Y-48900002D03*
D35*
X197702417Y-51440003D03*
D36*
X198537420Y-51440004D03*
D35*
X197702419Y-53980010D03*
D36*
X198537417Y-53980006D03*
D35*
X197702415Y-56520004D03*
D36*
X198537420Y-56520008D03*
X213777420Y-56520000D03*
D37*
X214612416Y-56520009D03*
D36*
X213777414Y-53980003D03*
D37*
X214612417Y-53980010D03*
D36*
X213777418Y-51440003D03*
D37*
X214612418Y-51440005D03*
D36*
X213777413Y-48900006D03*
D37*
X214612419Y-48900007D03*
D36*
X213777412Y-46360004D03*
D37*
X214612415Y-46360005D03*
D36*
X213777415Y-43820002D03*
D37*
X214612413Y-43819998D03*
D36*
X213777412Y-41280000D03*
D37*
X214612417Y-41280004D03*
D38*
X201157416Y-48586501D03*
X201157412Y-46681508D03*
D34*
X204832418Y-40331508D03*
X207372420Y-40331502D03*
X204832413Y-42871506D03*
X207372413Y-42871498D03*
%TD*%
D27*
%TO.C,D3*%
X93709631Y-62171924D03*
X96969003Y-61655690D03*
%TD*%
D12*
%TO.C,CPG1316*%
X302141139Y-50396230D03*
D23*
X302141139Y-50396230D03*
D12*
X307128962Y-50745018D03*
D23*
X307128962Y-50745018D03*
D24*
X298066835Y-53469508D03*
X298903916Y-41498742D03*
X310735898Y-54355420D03*
X311572979Y-42384654D03*
%TD*%
D12*
%TO.C,CPG1316*%
X248340817Y-86250813D03*
D20*
X248340817Y-86250813D03*
D12*
X253340815Y-86250819D03*
D20*
X253340815Y-86250819D03*
D21*
X244490818Y-89600810D03*
X244490820Y-77600818D03*
X257190814Y-89600808D03*
X257190816Y-77600816D03*
%TD*%
D12*
%TO.C,CPG1316*%
X166657409Y-84249999D03*
D20*
X166657409Y-84249999D03*
D12*
X171657412Y-84249998D03*
D20*
X171657412Y-84249998D03*
D21*
X162807406Y-75600003D03*
X162807414Y-87599994D03*
X175507408Y-75600008D03*
X175507416Y-87599999D03*
%TD*%
D12*
%TO.C,CPG1316*%
X183175652Y-105080346D03*
D39*
X183175652Y-105080346D03*
D12*
X188156624Y-105516126D03*
D39*
X188156624Y-105516126D03*
D40*
X179048328Y-108082048D03*
X180094200Y-96127715D03*
X191700000Y-109188933D03*
X192745872Y-97234600D03*
%TD*%
D12*
%TO.C,CPG1316*%
X149657412Y-44249997D03*
D20*
X149657412Y-44249997D03*
D12*
X154657415Y-44249996D03*
D20*
X154657415Y-44249996D03*
D21*
X145807409Y-35600001D03*
X145807417Y-47599992D03*
X158507411Y-35600006D03*
X158507419Y-47599997D03*
%TD*%
D27*
%TO.C,D5*%
X113159725Y-76303237D03*
X116419097Y-75787003D03*
%TD*%
D11*
%TO.C,D10*%
X283190818Y-72900818D03*
X286490812Y-72900814D03*
%TD*%
D41*
%TO.C,D21*%
X229934865Y-105097687D03*
X233035841Y-103969019D03*
%TD*%
D12*
%TO.C,CPG1316*%
X300955283Y-67354812D03*
D23*
X300955283Y-67354812D03*
D12*
X305943106Y-67703600D03*
D23*
X305943106Y-67703600D03*
D24*
X296880979Y-70428090D03*
X297718060Y-58457324D03*
X309550042Y-71314002D03*
X310387123Y-59343236D03*
%TD*%
D12*
%TO.C,CPG1316*%
X129869268Y-50744196D03*
D32*
X129869268Y-50744196D03*
D12*
X134857091Y-50395412D03*
D32*
X134857091Y-50395412D03*
D33*
X125425254Y-42383837D03*
X126262340Y-54354595D03*
X138094314Y-41497927D03*
X138931400Y-53468685D03*
%TD*%
D42*
%TO.C,PWR1*%
X170048360Y-38236653D03*
X163146075Y-35860005D03*
D43*
X165540313Y-35510454D03*
X168376875Y-36487150D03*
D42*
X170767860Y-36147055D03*
X163865574Y-33770406D03*
D44*
X168513020Y-38395446D03*
X165676451Y-37418737D03*
X164258179Y-36930383D03*
%TD*%
D11*
%TO.C,D13*%
X167507415Y-78900001D03*
X170807411Y-78899999D03*
%TD*%
D12*
%TO.C,CPG1316*%
X110497721Y-64929638D03*
D18*
X110497721Y-64929638D03*
D12*
X115436160Y-64147466D03*
D18*
X115436160Y-64147466D03*
D19*
X105341962Y-56988413D03*
X107219177Y-68840670D03*
X117885603Y-55001696D03*
X119762818Y-66853953D03*
%TD*%
D12*
%TO.C,CPG1316*%
X93707026Y-67589017D03*
D18*
X93707026Y-67589017D03*
D12*
X98645465Y-66806845D03*
D18*
X98645465Y-66806845D03*
D19*
X88551267Y-59647792D03*
X90428482Y-71500049D03*
X101094908Y-57661075D03*
X102972123Y-69513332D03*
%TD*%
D34*
%TO.C,RST1*%
X118697211Y-45937361D03*
X113506071Y-49849149D03*
%TD*%
D35*
%TO.C,REF\u002A\u002A*%
X222385820Y-41280819D03*
D36*
X223220820Y-41280812D03*
D35*
X222385819Y-43820815D03*
D36*
X223220817Y-43820817D03*
D35*
X222385812Y-46360816D03*
D36*
X223220820Y-46360815D03*
D35*
X222385812Y-48900817D03*
D36*
X223220818Y-48900815D03*
D35*
X222385815Y-51440819D03*
D36*
X223220818Y-51440818D03*
D35*
X222385817Y-53980817D03*
D36*
X223220816Y-53980816D03*
D35*
X222385817Y-56520815D03*
D36*
X223220813Y-56520813D03*
X238460814Y-56520820D03*
D37*
X239295814Y-56520813D03*
D36*
X238460817Y-53980815D03*
D37*
X239295815Y-53980817D03*
D36*
X238460814Y-51440817D03*
D37*
X239295822Y-51440816D03*
D36*
X238460816Y-48900817D03*
D37*
X239295822Y-48900815D03*
D36*
X238460816Y-46360814D03*
D37*
X239295819Y-46360813D03*
D36*
X238460818Y-43820816D03*
D37*
X239295817Y-43820815D03*
D36*
X238460821Y-41280819D03*
D37*
X239295817Y-41280817D03*
D38*
X225840819Y-48587311D03*
X225840815Y-46682319D03*
D34*
X229515820Y-40332318D03*
X232055823Y-40332320D03*
X229515813Y-42872316D03*
X232055814Y-42872319D03*
%TD*%
D27*
%TO.C,D2*%
X96369020Y-78962624D03*
X99628392Y-78446390D03*
%TD*%
D45*
%TO.C,D21*%
X203962392Y-103968196D03*
X207063370Y-105096864D03*
%TD*%
D11*
%TO.C,D17*%
X184507419Y-63899995D03*
X187807415Y-63899993D03*
%TD*%
D46*
%TO.C,PWR1*%
X266798169Y-38253719D03*
X273700453Y-35877072D03*
D43*
X271306212Y-35527522D03*
X268469652Y-36504224D03*
D46*
X272980952Y-33787480D03*
X266078660Y-36164129D03*
D47*
X272588346Y-36947456D03*
X269751795Y-37924156D03*
X268333517Y-38412511D03*
%TD*%
D28*
%TO.C,D7*%
X132715723Y-79265109D03*
X136007675Y-79034921D03*
%TD*%
D27*
%TO.C,D1*%
X99028403Y-95753327D03*
X102287775Y-95237093D03*
%TD*%
D22*
%TO.C,D9*%
X303362270Y-45118553D03*
X306654232Y-45348745D03*
%TD*%
D12*
%TO.C,CPG1316*%
X282340816Y-44250817D03*
D20*
X282340816Y-44250817D03*
D12*
X287340814Y-44250823D03*
D20*
X287340814Y-44250823D03*
D21*
X278490817Y-47600814D03*
X278490819Y-35600822D03*
X291190813Y-47600812D03*
X291190815Y-35600820D03*
%TD*%
D12*
%TO.C,CPG1316*%
X265340818Y-50250819D03*
D20*
X265340818Y-50250819D03*
D12*
X270340816Y-50250825D03*
D20*
X270340816Y-50250825D03*
D21*
X261490819Y-53600816D03*
X261490821Y-41600824D03*
X274190815Y-53600814D03*
X274190817Y-41600822D03*
%TD*%
D12*
%TO.C,CPG1316*%
X248340821Y-69250819D03*
D20*
X248340821Y-69250819D03*
D12*
X253340819Y-69250825D03*
D20*
X253340819Y-69250825D03*
D21*
X244490822Y-72600816D03*
X244490824Y-60600824D03*
X257190818Y-72600814D03*
X257190820Y-60600822D03*
%TD*%
D11*
%TO.C,D15*%
X266190819Y-44900818D03*
X269490813Y-44900814D03*
%TD*%
D12*
%TO.C,CPG1316*%
X265340821Y-84250816D03*
D20*
X265340821Y-84250816D03*
D12*
X270340819Y-84250822D03*
D20*
X270340819Y-84250822D03*
D21*
X261490822Y-87600813D03*
X261490824Y-75600821D03*
X274190818Y-87600811D03*
X274190820Y-75600819D03*
%TD*%
D12*
%TO.C,CPG1316*%
X113157107Y-81720332D03*
D18*
X113157107Y-81720332D03*
D12*
X118095546Y-80938160D03*
D18*
X118095546Y-80938160D03*
D19*
X108001348Y-73779107D03*
X109878563Y-85631364D03*
X120544989Y-71792390D03*
X122422204Y-83644647D03*
%TD*%
D10*
%TO.C,mouse-bite-1mm-3mm*%
X217790000Y-40500001D03*
X217790000Y-41100000D03*
X218500000Y-40500000D03*
X218500000Y-41100000D03*
X219200000Y-41099999D03*
X219210000Y-40500000D03*
%TD*%
D48*
%TO.C,D20*%
X249222092Y-100113226D03*
X252509538Y-99825610D03*
%TD*%
D11*
%TO.C,D12*%
X150507424Y-38900004D03*
X153807420Y-38900002D03*
%TD*%
D12*
%TO.C,CPG1316*%
X183657413Y-86249993D03*
D20*
X183657413Y-86249993D03*
D12*
X188657416Y-86249992D03*
D20*
X188657416Y-86249992D03*
D21*
X179807410Y-77599997D03*
X179807418Y-89599988D03*
X192507412Y-77600002D03*
X192507420Y-89599993D03*
%TD*%
D17*
%TO.C,D2*%
X337369842Y-78447211D03*
X340629214Y-78963443D03*
%TD*%
D12*
%TO.C,CPG1316*%
X248841599Y-105516944D03*
D49*
X248841599Y-105516944D03*
D12*
X253822577Y-105081175D03*
D49*
X253822577Y-105081175D03*
D50*
X244252356Y-97235414D03*
X245298226Y-109189748D03*
X256904030Y-96128542D03*
X257949900Y-108082876D03*
%TD*%
M02*
