%TF.GenerationSoftware,KiCad,Pcbnew,8.0.6*%
%TF.CreationDate,2025-07-17T00:06:11+02:00*%
%TF.ProjectId,combined,636f6d62-696e-4656-942e-6b696361645f,v1.0.0*%
%TF.SameCoordinates,Original*%
%TF.FileFunction,Paste,Bot*%
%TF.FilePolarity,Positive*%
%FSLAX46Y46*%
G04 Gerber Fmt 4.6, Leading zero omitted, Abs format (unit mm)*
G04 Created by KiCad (PCBNEW 8.0.6) date 2025-07-17 00:06:11*
%MOMM*%
%LPD*%
G01*
G04 APERTURE LIST*
G04 Aperture macros list*
%AMRotRect*
0 Rectangle, with rotation*
0 The origin of the aperture is its center*
0 $1 length*
0 $2 width*
0 $3 Rotation angle, in degrees counterclockwise*
0 Add horizontal line*
21,1,$1,$2,0,0,$3*%
G04 Aperture macros list end*
%ADD10R,0.900000X1.200000*%
%ADD11RotRect,1.550000X2.000000X351.000000*%
%ADD12RotRect,1.550000X2.000000X20.000000*%
%ADD13RotRect,0.900000X1.200000X351.000000*%
%ADD14RotRect,1.550000X2.000000X9.000000*%
%ADD15R,1.550000X2.000000*%
%ADD16RotRect,0.900000X1.200000X356.000000*%
%ADD17RotRect,1.550000X2.000000X356.000000*%
%ADD18RotRect,0.900000X1.200000X9.000000*%
%ADD19RotRect,0.900000X1.200000X4.000000*%
%ADD20RotRect,1.550000X2.000000X340.000000*%
%ADD21RotRect,0.900000X1.200000X355.000000*%
%ADD22RotRect,1.550000X2.000000X4.000000*%
%ADD23RotRect,1.550000X2.000000X355.000000*%
%ADD24RotRect,0.900000X1.200000X20.000000*%
%ADD25RotRect,0.900000X1.200000X340.000000*%
%ADD26RotRect,0.900000X1.200000X5.000000*%
%ADD27RotRect,1.550000X2.000000X5.000000*%
G04 APERTURE END LIST*
D10*
%TO.C,D16*%
X184507414Y-80899999D03*
X187807408Y-80899997D03*
%TD*%
D11*
%TO.C,CPG1316*%
X318902681Y-80938988D03*
X323841124Y-81721163D03*
%TD*%
%TO.C,CPG1316*%
X333033997Y-100389069D03*
X337972440Y-101171244D03*
%TD*%
D12*
%TO.C,CPG1316*%
X230965935Y-110415763D03*
X235664396Y-108705664D03*
%TD*%
D13*
%TO.C,D1*%
X334710458Y-95237914D03*
X337969832Y-95754146D03*
%TD*%
D14*
%TO.C,CPG1316*%
X96366407Y-84379717D03*
X101304845Y-83597545D03*
%TD*%
D15*
%TO.C,CPG1316*%
X282340819Y-78250817D03*
X287340817Y-78250823D03*
%TD*%
%TO.C,CPG1316*%
X166657415Y-67250000D03*
X171657416Y-67249999D03*
%TD*%
D10*
%TO.C,D18*%
X184507420Y-46900002D03*
X187807414Y-46900000D03*
%TD*%
D16*
%TO.C,D7*%
X300990548Y-79035735D03*
X304282510Y-79265925D03*
%TD*%
D11*
%TO.C,CPG1316*%
X321562062Y-64148276D03*
X326500505Y-64930451D03*
%TD*%
D15*
%TO.C,CPG1316*%
X165657420Y-104249993D03*
X170657421Y-104249992D03*
%TD*%
%TO.C,CPG1316*%
X265340817Y-67250817D03*
X270340815Y-67250823D03*
%TD*%
D17*
%TO.C,CPG1316*%
X299769420Y-84313405D03*
X304757243Y-84662193D03*
%TD*%
D13*
%TO.C,D4*%
X317919750Y-92578527D03*
X321179124Y-93094759D03*
%TD*%
D15*
%TO.C,CPG1316*%
X149657416Y-78249999D03*
X154657417Y-78249998D03*
%TD*%
D10*
%TO.C,D16*%
X249190819Y-80900824D03*
X252490811Y-80900820D03*
%TD*%
D15*
%TO.C,CPG1316*%
X166657421Y-50250001D03*
X171657422Y-50250000D03*
%TD*%
D18*
%TO.C,D4*%
X115819113Y-93093941D03*
X119078485Y-92577707D03*
%TD*%
D15*
%TO.C,CPG1316*%
X183657413Y-52249990D03*
X188657414Y-52249989D03*
%TD*%
D10*
%TO.C,D12*%
X283190824Y-38900814D03*
X286490816Y-38900810D03*
%TD*%
%TO.C,D14*%
X266190820Y-61900816D03*
X269490812Y-61900812D03*
%TD*%
D19*
%TO.C,D9*%
X130344006Y-45347925D03*
X133635956Y-45117737D03*
%TD*%
D18*
%TO.C,D6*%
X110500338Y-59512540D03*
X113759710Y-58996306D03*
%TD*%
D20*
%TO.C,CPG1316*%
X201333833Y-108704849D03*
X206032297Y-110414942D03*
%TD*%
D21*
%TO.C,D20*%
X184488707Y-99824794D03*
X187776145Y-100112412D03*
%TD*%
D13*
%TO.C,D3*%
X340029229Y-61656510D03*
X343288603Y-62172742D03*
%TD*%
D16*
%TO.C,D8*%
X302176409Y-62077151D03*
X305468371Y-62307341D03*
%TD*%
D11*
%TO.C,CPG1316*%
X335693381Y-83598366D03*
X340631824Y-84380541D03*
%TD*%
D10*
%TO.C,D13*%
X266190825Y-78900817D03*
X269490817Y-78900813D03*
%TD*%
%TO.C,D14*%
X167507414Y-61899995D03*
X170807408Y-61899993D03*
%TD*%
D11*
%TO.C,CPG1316*%
X338352766Y-66807665D03*
X343291209Y-67589840D03*
%TD*%
D22*
%TO.C,CPG1316*%
X131055125Y-67702784D03*
X136042948Y-67353999D03*
%TD*%
D10*
%TO.C,D15*%
X167507417Y-44899997D03*
X170807411Y-44899995D03*
%TD*%
D14*
%TO.C,CPG1316*%
X99025802Y-101170428D03*
X103964240Y-100388256D03*
%TD*%
D11*
%TO.C,CPG1316*%
X316243299Y-97729687D03*
X321181742Y-98511862D03*
%TD*%
D15*
%TO.C,CPG1316*%
X282340824Y-61250820D03*
X287340822Y-61250826D03*
%TD*%
%TO.C,CPG1316*%
X266340819Y-104250821D03*
X271340817Y-104250827D03*
%TD*%
D10*
%TO.C,D19*%
X267190822Y-98900820D03*
X270490814Y-98900816D03*
%TD*%
D15*
%TO.C,CPG1316*%
X248340815Y-52250820D03*
X253340813Y-52250826D03*
%TD*%
D10*
%TO.C,D17*%
X249190818Y-63900827D03*
X252490810Y-63900823D03*
%TD*%
%TO.C,D18*%
X249190822Y-46900822D03*
X252490814Y-46900818D03*
%TD*%
D22*
%TO.C,CPG1316*%
X132240986Y-84661368D03*
X137228809Y-84312583D03*
%TD*%
D10*
%TO.C,D11*%
X283190822Y-55900822D03*
X286490814Y-55900818D03*
%TD*%
D15*
%TO.C,CPG1316*%
X183657418Y-69249997D03*
X188657419Y-69249996D03*
%TD*%
D13*
%TO.C,D5*%
X320579137Y-75787825D03*
X323838511Y-76304057D03*
%TD*%
D10*
%TO.C,D19*%
X166507422Y-98899999D03*
X169807416Y-98899997D03*
%TD*%
%TO.C,D11*%
X150507423Y-55900005D03*
X153807417Y-55900003D03*
%TD*%
D15*
%TO.C,CPG1316*%
X149657411Y-61249995D03*
X154657412Y-61249994D03*
%TD*%
D10*
%TO.C,D10*%
X150507413Y-72899997D03*
X153807407Y-72899995D03*
%TD*%
D14*
%TO.C,CPG1316*%
X115816499Y-98511037D03*
X120754937Y-97728865D03*
%TD*%
D13*
%TO.C,D6*%
X323238526Y-58997128D03*
X326497900Y-59513360D03*
%TD*%
D19*
%TO.C,D8*%
X131529864Y-62306512D03*
X134821814Y-62076324D03*
%TD*%
D18*
%TO.C,D3*%
X93709631Y-62171923D03*
X96969003Y-61655689D03*
%TD*%
D17*
%TO.C,CPG1316*%
X302141140Y-50396231D03*
X307128963Y-50745019D03*
%TD*%
D15*
%TO.C,CPG1316*%
X248340817Y-86250813D03*
X253340815Y-86250819D03*
%TD*%
%TO.C,CPG1316*%
X166657411Y-84249999D03*
X171657412Y-84249998D03*
%TD*%
D23*
%TO.C,CPG1316*%
X183175652Y-105080345D03*
X188156624Y-105516126D03*
%TD*%
D15*
%TO.C,CPG1316*%
X149657414Y-44249997D03*
X154657415Y-44249996D03*
%TD*%
D18*
%TO.C,D5*%
X113159726Y-76303237D03*
X116419098Y-75787003D03*
%TD*%
D10*
%TO.C,D10*%
X283190818Y-72900818D03*
X286490810Y-72900814D03*
%TD*%
D24*
%TO.C,D21*%
X229934865Y-105097685D03*
X233035841Y-103969021D03*
%TD*%
D17*
%TO.C,CPG1316*%
X300955283Y-67354812D03*
X305943106Y-67703600D03*
%TD*%
D22*
%TO.C,CPG1316*%
X129869268Y-50744197D03*
X134857091Y-50395412D03*
%TD*%
D10*
%TO.C,D13*%
X167507416Y-78900001D03*
X170807410Y-78899999D03*
%TD*%
D14*
%TO.C,CPG1316*%
X110497723Y-64929638D03*
X115436161Y-64147466D03*
%TD*%
%TO.C,CPG1316*%
X93707027Y-67589017D03*
X98645465Y-66806845D03*
%TD*%
D18*
%TO.C,D2*%
X96369020Y-78962624D03*
X99628392Y-78446390D03*
%TD*%
D25*
%TO.C,D21*%
X203962392Y-103968196D03*
X207063370Y-105096864D03*
%TD*%
D10*
%TO.C,D17*%
X184507420Y-63899995D03*
X187807414Y-63899993D03*
%TD*%
D19*
%TO.C,D7*%
X132715724Y-79265110D03*
X136007674Y-79034922D03*
%TD*%
D18*
%TO.C,D1*%
X99028404Y-95753327D03*
X102287776Y-95237093D03*
%TD*%
D16*
%TO.C,D9*%
X303362270Y-45118554D03*
X306654232Y-45348744D03*
%TD*%
D15*
%TO.C,CPG1316*%
X282340817Y-44250816D03*
X287340815Y-44250822D03*
%TD*%
%TO.C,CPG1316*%
X265340818Y-50250819D03*
X270340816Y-50250825D03*
%TD*%
%TO.C,CPG1316*%
X248340821Y-69250819D03*
X253340819Y-69250825D03*
%TD*%
D10*
%TO.C,D15*%
X266190820Y-44900818D03*
X269490812Y-44900814D03*
%TD*%
D15*
%TO.C,CPG1316*%
X265340822Y-84250817D03*
X270340820Y-84250823D03*
%TD*%
D14*
%TO.C,CPG1316*%
X113157108Y-81720332D03*
X118095546Y-80938160D03*
%TD*%
D26*
%TO.C,D20*%
X249222092Y-100113226D03*
X252509538Y-99825610D03*
%TD*%
D10*
%TO.C,D12*%
X150507425Y-38900005D03*
X153807419Y-38900003D03*
%TD*%
D15*
%TO.C,CPG1316*%
X183657413Y-86249993D03*
X188657414Y-86249992D03*
%TD*%
D13*
%TO.C,D2*%
X337369842Y-78447211D03*
X340629216Y-78963443D03*
%TD*%
D27*
%TO.C,CPG1316*%
X248841599Y-105516945D03*
X253822577Y-105081177D03*
%TD*%
M02*
