%TF.GenerationSoftware,KiCad,Pcbnew,8.0.6*%
%TF.CreationDate,2025-07-18T21:06:00+02:00*%
%TF.ProjectId,combined,636f6d62-696e-4656-942e-6b696361645f,v1.0.0*%
%TF.SameCoordinates,Original*%
%TF.FileFunction,Soldermask,Top*%
%TF.FilePolarity,Negative*%
%FSLAX46Y46*%
G04 Gerber Fmt 4.6, Leading zero omitted, Abs format (unit mm)*
G04 Created by KiCad (PCBNEW 8.0.6) date 2025-07-18 21:06:00*
%MOMM*%
%LPD*%
G01*
G04 APERTURE LIST*
G04 Aperture macros list*
%AMRoundRect*
0 Rectangle with rounded corners*
0 $1 Rounding radius*
0 $2 $3 $4 $5 $6 $7 $8 $9 X,Y pos of 4 corners*
0 Add a 4 corners polygon primitive as box body*
4,1,4,$2,$3,$4,$5,$6,$7,$8,$9,$2,$3,0*
0 Add four circle primitives for the rounded corners*
1,1,$1+$1,$2,$3*
1,1,$1+$1,$4,$5*
1,1,$1+$1,$6,$7*
1,1,$1+$1,$8,$9*
0 Add four rect primitives between the rounded corners*
20,1,$1+$1,$2,$3,$4,$5,0*
20,1,$1+$1,$4,$5,$6,$7,0*
20,1,$1+$1,$6,$7,$8,$9,0*
20,1,$1+$1,$8,$9,$2,$3,0*%
G04 Aperture macros list end*
%ADD10RoundRect,0.050000X-0.450000X-0.600000X0.450000X-0.600000X0.450000X0.600000X-0.450000X0.600000X0*%
%ADD11C,1.500000*%
%ADD12RoundRect,0.050000X-0.921893X-0.866452X0.609024X-1.108925X0.921893X0.866452X-0.609024X1.108925X0*%
%ADD13RoundRect,0.050000X-1.144123X-0.831254X0.831254X-1.144123X1.144123X0.831254X-0.831254X1.144123X0*%
%ADD14RoundRect,0.050000X-0.386242X-1.204758X1.070282X-0.674627X0.386242X1.204758X-1.070282X0.674627X0*%
%ADD15RoundRect,0.050000X-0.597672X-1.281713X1.281713X-0.597672X0.597672X1.281713X-1.281713X0.597672X0*%
%ADD16RoundRect,0.050000X-0.538320X-0.522217X0.350599X-0.663009X0.538320X0.522217X-0.350599X0.663009X0*%
%ADD17RoundRect,0.050000X-0.609024X-1.108925X0.921893X-0.866452X0.609024X1.108925X-0.921893X0.866452X0*%
%ADD18RoundRect,0.050000X-0.831254X-1.144123X1.144123X-0.831254X0.831254X1.144123X-1.144123X0.831254X0*%
%ADD19RoundRect,0.050000X-0.775000X-1.000000X0.775000X-1.000000X0.775000X1.000000X-0.775000X1.000000X0*%
%ADD20RoundRect,0.050000X-1.000000X-1.000000X1.000000X-1.000000X1.000000X1.000000X-1.000000X1.000000X0*%
%ADD21RoundRect,0.050000X-0.490758X-0.567148X0.407050X-0.629929X0.490758X0.567148X-0.407050X0.629929X0*%
%ADD22C,0.600000*%
%ADD23RoundRect,0.050000X-0.842869X-0.943503X0.703356X-1.051625X0.842869X0.943503X-0.703356X1.051625X0*%
%ADD24RoundRect,0.050000X-1.067321X-0.927808X0.927808X-1.067321X1.067321X0.927808X-0.927808X1.067321X0*%
%ADD25RoundRect,0.260000X-0.390000X-0.665000X0.390000X-0.665000X0.390000X0.665000X-0.390000X0.665000X0*%
%ADD26O,1.300000X1.850000*%
%ADD27RoundRect,0.050000X-0.350599X-0.663009X0.538320X-0.522217X0.350599X0.663009X-0.538320X0.522217X0*%
%ADD28RoundRect,0.050000X-0.407050X-0.629929X0.490758X-0.567148X0.407050X0.629929X-0.490758X0.567148X0*%
%ADD29RoundRect,0.050000X-1.070282X-0.674627X0.386242X-1.204758X1.070282X0.674627X-0.386242X1.204758X0*%
%ADD30RoundRect,0.050000X-1.281713X-0.597672X0.597672X-1.281713X1.281713X0.597672X-0.597672X1.281713X0*%
%ADD31RoundRect,0.050000X-0.500581X-0.558497X0.395994X-0.636937X0.500581X0.558497X-0.395994X0.636937X0*%
%ADD32RoundRect,0.050000X-0.703356X-1.051625X0.842869X-0.943503X0.703356X1.051625X-0.842869X0.943503X0*%
%ADD33RoundRect,0.050000X-0.927808X-1.067321X1.067321X-0.927808X0.927808X1.067321X-1.067321X0.927808X0*%
%ADD34C,1.800000*%
%ADD35RoundRect,0.162400X1.103600X0.649600X-1.103600X0.649600X-1.103600X-0.649600X1.103600X-0.649600X0*%
%ADD36C,1.624000*%
%ADD37RoundRect,0.162400X-1.103600X-0.649600X1.103600X-0.649600X1.103600X0.649600X-1.103600X0.649600X0*%
%ADD38C,1.600000*%
%ADD39RoundRect,0.050000X-0.859207X-0.928649X0.684895X-1.063740X0.859207X0.928649X-0.684895X1.063740X0*%
%ADD40RoundRect,0.050000X-1.083350X-0.909039X0.909039X-1.083350X1.083350X0.909039X-0.909039X1.083350X0*%
%ADD41RoundRect,0.050000X-0.217650X-0.717725X0.628074X-0.409907X0.217650X0.717725X-0.628074X0.409907X0*%
%ADD42RoundRect,0.050000X0.602987X0.215423X-0.342532X0.540992X-0.602987X-0.215423X0.342532X-0.540992X0*%
%ADD43C,1.000000*%
%ADD44RoundRect,0.050000X0.575108X0.595190X-0.086755X0.823088X-0.575108X-0.595190X0.086755X-0.823088X0*%
%ADD45RoundRect,0.050000X-0.628074X-0.409907X0.217650X-0.717725X0.628074X0.409907X-0.217650X0.717725X0*%
%ADD46RoundRect,0.050000X0.342532X0.540992X-0.602987X0.215423X-0.342532X-0.540992X0.602987X-0.215423X0*%
%ADD47RoundRect,0.050000X0.086755X0.823088X-0.575108X0.595190X-0.086755X-0.823088X0.575108X-0.595190X0*%
%ADD48RoundRect,0.050000X-0.395994X-0.636937X0.500581X-0.558497X0.395994X0.636937X-0.500581X0.558497X0*%
%ADD49RoundRect,0.050000X-0.684895X-1.063740X0.859207X-0.928649X0.684895X1.063740X-0.859207X0.928649X0*%
%ADD50RoundRect,0.050000X-0.909039X-1.083350X1.083350X-0.909039X0.909039X1.083350X-1.083350X0.909039X0*%
G04 APERTURE END LIST*
D10*
%TO.C,D16*%
X184557100Y-80904248D03*
X187857092Y-80904248D03*
%TD*%
D11*
%TO.C,CPG1316*%
X318952368Y-80943246D03*
D12*
X318952368Y-80943246D03*
D11*
X322903118Y-81568983D03*
D12*
X322903118Y-81568983D03*
D13*
X316502923Y-71797467D03*
X314625709Y-83649729D03*
X329046567Y-73784185D03*
X327169353Y-85636447D03*
%TD*%
D11*
%TO.C,CPG1316*%
X333083683Y-100393323D03*
D12*
X333083683Y-100393323D03*
D11*
X337034433Y-101019060D03*
D12*
X337034433Y-101019060D03*
D13*
X330634238Y-91247544D03*
X328757024Y-103099806D03*
X343177882Y-93234262D03*
X341300668Y-105086524D03*
%TD*%
D11*
%TO.C,CPG1316*%
X231015619Y-110420010D03*
D14*
X231015619Y-110420010D03*
D11*
X234774386Y-109051929D03*
D14*
X234774386Y-109051929D03*
D15*
X228543565Y-114884757D03*
X224439330Y-103608451D03*
X240477662Y-110541103D03*
X236373427Y-99264797D03*
%TD*%
D16*
%TO.C,D1*%
X334760141Y-95242160D03*
X338019513Y-95758402D03*
%TD*%
D11*
%TO.C,CPG1316*%
X96416084Y-84383973D03*
D17*
X96416084Y-84383973D03*
D11*
X100366843Y-83758233D03*
D17*
X100366843Y-83758233D03*
D18*
X91260329Y-76442744D03*
X93137542Y-88294998D03*
X103803970Y-74456026D03*
X105681183Y-86308280D03*
%TD*%
D11*
%TO.C,CPG1316*%
X282390500Y-78255065D03*
D19*
X282390500Y-78255065D03*
D11*
X286390501Y-78255067D03*
D19*
X286390501Y-78255067D03*
D20*
X278540500Y-69605068D03*
X278540502Y-81605067D03*
X291240498Y-69605065D03*
X291240500Y-81605064D03*
%TD*%
D11*
%TO.C,CPG1316*%
X166707100Y-67254249D03*
D19*
X166707100Y-67254249D03*
D11*
X170707101Y-67254251D03*
D19*
X170707101Y-67254251D03*
D20*
X162857100Y-58604252D03*
X162857102Y-70604251D03*
X175557098Y-58604249D03*
X175557100Y-70604248D03*
%TD*%
D10*
%TO.C,D18*%
X184557102Y-46904248D03*
X187857094Y-46904248D03*
%TD*%
D21*
%TO.C,D7*%
X301040231Y-79039988D03*
X304332191Y-79270176D03*
%TD*%
D11*
%TO.C,CPG1316*%
X321611750Y-64152530D03*
D12*
X321611750Y-64152530D03*
D11*
X325562500Y-64778267D03*
D12*
X325562500Y-64778267D03*
D13*
X319162305Y-55006751D03*
X317285091Y-66859013D03*
X331705949Y-56993469D03*
X329828735Y-68845731D03*
%TD*%
D11*
%TO.C,CPG1316*%
X165707104Y-104254242D03*
D19*
X165707104Y-104254242D03*
D11*
X169707105Y-104254244D03*
D19*
X169707105Y-104254244D03*
D20*
X161857104Y-95604245D03*
X161857106Y-107604244D03*
X174557102Y-95604242D03*
X174557104Y-107604241D03*
%TD*%
D22*
%TO.C,mouse-bite-1mm-3mm*%
X217839681Y-100904249D03*
X217839687Y-100304245D03*
X218549681Y-100904247D03*
X218549687Y-100304245D03*
X219249682Y-100904243D03*
X219259687Y-100304243D03*
%TD*%
D11*
%TO.C,CPG1316*%
X265390500Y-67255062D03*
D19*
X265390500Y-67255062D03*
D11*
X269390501Y-67255064D03*
D19*
X269390501Y-67255064D03*
D20*
X261540500Y-58605065D03*
X261540502Y-70605064D03*
X274240498Y-58605062D03*
X274240500Y-70605061D03*
%TD*%
D11*
%TO.C,CPG1316*%
X299819104Y-84317655D03*
D23*
X299819104Y-84317655D03*
D11*
X303809358Y-84596681D03*
D23*
X303809358Y-84596681D03*
D24*
X296581873Y-75420168D03*
X295744797Y-87390934D03*
X309250941Y-76306070D03*
X308413865Y-88276836D03*
%TD*%
D16*
%TO.C,D4*%
X317969432Y-92582770D03*
X321228804Y-93099012D03*
%TD*%
D11*
%TO.C,CPG1316*%
X149707100Y-78254247D03*
D19*
X149707100Y-78254247D03*
D11*
X153707101Y-78254249D03*
D19*
X153707101Y-78254249D03*
D20*
X145857100Y-69604250D03*
X145857102Y-81604249D03*
X158557098Y-69604247D03*
X158557100Y-81604246D03*
%TD*%
D25*
%TO.C,JST1*%
X199700142Y-60776690D03*
D26*
X201700132Y-60776690D03*
%TD*%
D10*
%TO.C,D16*%
X249240503Y-80905076D03*
X252540493Y-80905068D03*
%TD*%
D11*
%TO.C,CPG1316*%
X166707105Y-50254250D03*
D19*
X166707105Y-50254250D03*
D11*
X170707106Y-50254252D03*
D19*
X170707106Y-50254252D03*
D20*
X162857105Y-41604253D03*
X162857107Y-53604252D03*
X175557103Y-41604250D03*
X175557105Y-53604249D03*
%TD*%
D27*
%TO.C,D4*%
X115868794Y-93098186D03*
X119128166Y-92581958D03*
%TD*%
D11*
%TO.C,CPG1316*%
X183707097Y-52254234D03*
D19*
X183707097Y-52254234D03*
D11*
X187707098Y-52254236D03*
D19*
X187707098Y-52254236D03*
D20*
X179857097Y-43604237D03*
X179857099Y-55604236D03*
X192557095Y-43604234D03*
X192557097Y-55604233D03*
%TD*%
D22*
%TO.C,mouse-bite-1mm-3mm*%
X217839680Y-44654253D03*
X217839687Y-44054249D03*
X218549680Y-44654251D03*
X218549686Y-44054249D03*
X219249682Y-44654248D03*
X219259686Y-44054247D03*
%TD*%
D10*
%TO.C,D12*%
X283240511Y-38905065D03*
X286540501Y-38905057D03*
%TD*%
%TO.C,D14*%
X266240502Y-61905065D03*
X269540492Y-61905057D03*
%TD*%
D28*
%TO.C,D9*%
X130393691Y-45352177D03*
X133685637Y-45121985D03*
%TD*%
D27*
%TO.C,D6*%
X110550021Y-59516786D03*
X113809393Y-59000558D03*
%TD*%
D11*
%TO.C,CPG1316*%
X201383516Y-108709091D03*
D29*
X201383516Y-108709091D03*
D11*
X205142285Y-110077172D03*
D29*
X205142285Y-110077172D03*
D30*
X200724172Y-99263973D03*
X196619929Y-110540288D03*
X212658271Y-103607622D03*
X208554028Y-114883937D03*
%TD*%
D31*
%TO.C,D20*%
X184538389Y-99829043D03*
X187825829Y-100116661D03*
%TD*%
D16*
%TO.C,D3*%
X340078910Y-61660752D03*
X343338282Y-62176994D03*
%TD*%
D21*
%TO.C,D8*%
X302226089Y-62081403D03*
X305518049Y-62311591D03*
%TD*%
D11*
%TO.C,CPG1316*%
X335743065Y-83602622D03*
D12*
X335743065Y-83602622D03*
D11*
X339693815Y-84228359D03*
D12*
X339693815Y-84228359D03*
D13*
X333293620Y-74456843D03*
X331416406Y-86309105D03*
X345837264Y-76443561D03*
X343960050Y-88295823D03*
%TD*%
D10*
%TO.C,D13*%
X266240509Y-78905065D03*
X269540499Y-78905057D03*
%TD*%
%TO.C,D14*%
X167557099Y-61904243D03*
X170857091Y-61904243D03*
%TD*%
D11*
%TO.C,CPG1316*%
X338402455Y-66811919D03*
D12*
X338402455Y-66811919D03*
D11*
X342353205Y-67437656D03*
D12*
X342353205Y-67437656D03*
D13*
X335953010Y-57666140D03*
X334075796Y-69518402D03*
X348496654Y-59652858D03*
X346619440Y-71505120D03*
%TD*%
D11*
%TO.C,CPG1316*%
X131104814Y-67707034D03*
D32*
X131104814Y-67707034D03*
D11*
X135095073Y-67428003D03*
D32*
X135095073Y-67428003D03*
D33*
X126660799Y-59346666D03*
X127497877Y-71317433D03*
X139329861Y-58460761D03*
X140166939Y-70431528D03*
%TD*%
D10*
%TO.C,D15*%
X167557098Y-44904245D03*
X170857090Y-44904245D03*
%TD*%
D34*
%TO.C,RST1*%
X323541844Y-49854210D03*
X318350706Y-45942424D03*
%TD*%
D11*
%TO.C,CPG1316*%
X99075481Y-101174681D03*
D17*
X99075481Y-101174681D03*
D11*
X103026240Y-100548941D03*
D17*
X103026240Y-100548941D03*
D18*
X93919726Y-93233452D03*
X95796939Y-105085706D03*
X106463367Y-91246734D03*
X108340580Y-103098988D03*
%TD*%
D11*
%TO.C,CPG1316*%
X316292984Y-97733946D03*
D12*
X316292984Y-97733946D03*
D11*
X320243734Y-98359683D03*
D12*
X320243734Y-98359683D03*
D13*
X313843539Y-88588167D03*
X311966325Y-100440429D03*
X326387183Y-90574885D03*
X324509969Y-102427147D03*
%TD*%
D11*
%TO.C,CPG1316*%
X282390508Y-61255069D03*
D19*
X282390508Y-61255069D03*
D11*
X286390509Y-61255071D03*
D19*
X286390509Y-61255071D03*
D20*
X278540508Y-52605072D03*
X278540510Y-64605071D03*
X291240506Y-52605069D03*
X291240508Y-64605068D03*
%TD*%
D11*
%TO.C,CPG1316*%
X266390502Y-104255068D03*
D19*
X266390502Y-104255068D03*
D11*
X270390503Y-104255070D03*
D19*
X270390503Y-104255070D03*
D20*
X262540502Y-95605071D03*
X262540504Y-107605070D03*
X275240500Y-95605068D03*
X275240502Y-107605067D03*
%TD*%
D10*
%TO.C,D19*%
X267240507Y-98905073D03*
X270540497Y-98905065D03*
%TD*%
D11*
%TO.C,CPG1316*%
X248390494Y-52255068D03*
D19*
X248390494Y-52255068D03*
D11*
X252390495Y-52255070D03*
D19*
X252390495Y-52255070D03*
D20*
X244540494Y-43605071D03*
X244540496Y-55605070D03*
X257240492Y-43605068D03*
X257240494Y-55605067D03*
%TD*%
D10*
%TO.C,D17*%
X249240501Y-63905081D03*
X252540491Y-63905073D03*
%TD*%
%TO.C,D18*%
X249240505Y-46905071D03*
X252540495Y-46905063D03*
%TD*%
D11*
%TO.C,CPG1316*%
X132290674Y-84665617D03*
D32*
X132290674Y-84665617D03*
D11*
X136280933Y-84386586D03*
D32*
X136280933Y-84386586D03*
D33*
X127846659Y-76305249D03*
X128683737Y-88276016D03*
X140515721Y-75419344D03*
X141352799Y-87390111D03*
%TD*%
D10*
%TO.C,D11*%
X283240508Y-55905073D03*
X286540498Y-55905065D03*
%TD*%
D25*
%TO.C,JST1*%
X235300001Y-60775006D03*
D26*
X237299999Y-60774994D03*
%TD*%
D11*
%TO.C,CPG1316*%
X183707104Y-69254250D03*
D19*
X183707104Y-69254250D03*
D11*
X187707105Y-69254252D03*
D19*
X187707105Y-69254252D03*
D20*
X179857104Y-60604253D03*
X179857106Y-72604252D03*
X192557102Y-60604250D03*
X192557104Y-72604249D03*
%TD*%
D16*
%TO.C,D5*%
X320628823Y-75792070D03*
X323888195Y-76308312D03*
%TD*%
D10*
%TO.C,D19*%
X166557106Y-98904246D03*
X169857098Y-98904246D03*
%TD*%
%TO.C,D11*%
X150557109Y-55904251D03*
X153857101Y-55904251D03*
%TD*%
D11*
%TO.C,CPG1316*%
X149707095Y-61254241D03*
D19*
X149707095Y-61254241D03*
D11*
X153707096Y-61254243D03*
D19*
X153707096Y-61254243D03*
D20*
X145857095Y-52604244D03*
X145857097Y-64604243D03*
X158557093Y-52604241D03*
X158557095Y-64604240D03*
%TD*%
D10*
%TO.C,D10*%
X150557099Y-72904244D03*
X153857091Y-72904244D03*
%TD*%
D11*
%TO.C,CPG1316*%
X115866179Y-98515292D03*
D17*
X115866179Y-98515292D03*
D11*
X119816938Y-97889552D03*
D17*
X119816938Y-97889552D03*
D18*
X110710424Y-90574063D03*
X112587637Y-102426317D03*
X123254065Y-88587345D03*
X125131278Y-100439599D03*
%TD*%
D16*
%TO.C,D6*%
X323288210Y-59001370D03*
X326547582Y-59517612D03*
%TD*%
D28*
%TO.C,D8*%
X131579551Y-62310761D03*
X134871497Y-62080569D03*
%TD*%
D35*
%TO.C,REF\u002A\u002A*%
X197752097Y-41284247D03*
D36*
X198587097Y-41284256D03*
D35*
X197752099Y-43824247D03*
D36*
X198587101Y-43824255D03*
D35*
X197752100Y-46364252D03*
D36*
X198587098Y-46364251D03*
D35*
X197752094Y-48904248D03*
D36*
X198587102Y-48904251D03*
D35*
X197752098Y-51444251D03*
D36*
X198587101Y-51444252D03*
D35*
X197752099Y-53984260D03*
D36*
X198587100Y-53984252D03*
D35*
X197752099Y-56524253D03*
D36*
X198587102Y-56524253D03*
X213827099Y-56524248D03*
D37*
X214662099Y-56524257D03*
D36*
X213827095Y-53984249D03*
D37*
X214662097Y-53984257D03*
D36*
X213827098Y-51444253D03*
D37*
X214662096Y-51444252D03*
D36*
X213827094Y-48904253D03*
D37*
X214662102Y-48904256D03*
D36*
X213827095Y-46364252D03*
D37*
X214662098Y-46364253D03*
D36*
X213827096Y-43824252D03*
D37*
X214662097Y-43824244D03*
D36*
X213827094Y-41284251D03*
D37*
X214662097Y-41284251D03*
D38*
X201207097Y-48590751D03*
X201207094Y-46685755D03*
D34*
X204882097Y-40335756D03*
X207422098Y-40335750D03*
X204882095Y-42875755D03*
X207422095Y-42875747D03*
%TD*%
D27*
%TO.C,D3*%
X93759315Y-62176173D03*
X97018687Y-61659945D03*
%TD*%
D11*
%TO.C,CPG1316*%
X302190827Y-50400486D03*
D23*
X302190827Y-50400486D03*
D11*
X306181081Y-50679512D03*
D23*
X306181081Y-50679512D03*
D24*
X298953596Y-41502999D03*
X298116520Y-53473765D03*
X311622664Y-42388901D03*
X310785588Y-54359667D03*
%TD*%
D11*
%TO.C,CPG1316*%
X248390499Y-86255059D03*
D19*
X248390499Y-86255059D03*
D11*
X252390500Y-86255061D03*
D19*
X252390500Y-86255061D03*
D20*
X244540499Y-77605062D03*
X244540501Y-89605061D03*
X257240497Y-77605059D03*
X257240499Y-89605058D03*
%TD*%
D11*
%TO.C,CPG1316*%
X166707094Y-84254246D03*
D19*
X166707094Y-84254246D03*
D11*
X170707095Y-84254248D03*
D19*
X170707095Y-84254248D03*
D20*
X162857094Y-75604249D03*
X162857096Y-87604248D03*
X175557092Y-75604246D03*
X175557094Y-87604245D03*
%TD*%
D11*
%TO.C,CPG1316*%
X183225335Y-105084595D03*
D39*
X183225335Y-105084595D03*
D11*
X187210119Y-105433220D03*
D39*
X187210119Y-105433220D03*
D40*
X180143880Y-96131959D03*
X179098011Y-108086296D03*
X192795557Y-97238838D03*
X191749688Y-109193175D03*
%TD*%
D11*
%TO.C,CPG1316*%
X149707100Y-44254251D03*
D19*
X149707100Y-44254251D03*
D11*
X153707101Y-44254253D03*
D19*
X153707101Y-44254253D03*
D20*
X145857100Y-35604254D03*
X145857102Y-47604253D03*
X158557098Y-35604251D03*
X158557100Y-47604250D03*
%TD*%
D27*
%TO.C,D5*%
X113209410Y-76307485D03*
X116468782Y-75791257D03*
%TD*%
D10*
%TO.C,D10*%
X283240504Y-72905071D03*
X286540494Y-72905063D03*
%TD*%
D41*
%TO.C,D21*%
X229984547Y-105101933D03*
X233085527Y-103973271D03*
%TD*%
D11*
%TO.C,CPG1316*%
X301004969Y-67359067D03*
D23*
X301004969Y-67359067D03*
D11*
X304995223Y-67638093D03*
D23*
X304995223Y-67638093D03*
D24*
X297767738Y-58461580D03*
X296930662Y-70432346D03*
X310436806Y-59347482D03*
X309599730Y-71318248D03*
%TD*%
D11*
%TO.C,CPG1316*%
X129918957Y-50748443D03*
D32*
X129918957Y-50748443D03*
D11*
X133909216Y-50469412D03*
D32*
X133909216Y-50469412D03*
D33*
X125474942Y-42388075D03*
X126312020Y-54358842D03*
X138144004Y-41502170D03*
X138981082Y-53472937D03*
%TD*%
D42*
%TO.C,PWR1*%
X170098041Y-38240901D03*
X163195758Y-35864253D03*
D43*
X165589993Y-35514702D03*
X168426556Y-36491398D03*
D42*
X163915254Y-33774656D03*
X170817541Y-36151302D03*
D44*
X168562701Y-38399697D03*
X165726130Y-37422984D03*
X164307861Y-36934635D03*
%TD*%
D10*
%TO.C,D13*%
X167557102Y-78904250D03*
X170857094Y-78904250D03*
%TD*%
D11*
%TO.C,CPG1316*%
X110547400Y-64933890D03*
D17*
X110547400Y-64933890D03*
D11*
X114498159Y-64308150D03*
D17*
X114498159Y-64308150D03*
D18*
X105391645Y-56992661D03*
X107268858Y-68844915D03*
X117935286Y-55005943D03*
X119812499Y-66858197D03*
%TD*%
D11*
%TO.C,CPG1316*%
X93756707Y-67593270D03*
D17*
X93756707Y-67593270D03*
D11*
X97707466Y-66967530D03*
D17*
X97707466Y-66967530D03*
D18*
X88600952Y-59652041D03*
X90478165Y-71504295D03*
X101144593Y-57665323D03*
X103021806Y-69517577D03*
%TD*%
D34*
%TO.C,RST1*%
X118746889Y-45941608D03*
X113555749Y-49853400D03*
%TD*%
D35*
%TO.C,REF\u002A\u002A*%
X222435498Y-41285065D03*
D36*
X223270503Y-41285060D03*
D35*
X222435502Y-43825066D03*
D36*
X223270500Y-43825067D03*
D35*
X222435495Y-46365065D03*
D36*
X223270505Y-46365063D03*
D35*
X222435496Y-48905063D03*
D36*
X223270499Y-48905066D03*
D35*
X222435498Y-51445067D03*
D36*
X223270496Y-51445062D03*
D35*
X222435498Y-53985065D03*
D36*
X223270498Y-53985061D03*
D35*
X222435498Y-56525064D03*
D36*
X223270496Y-56525059D03*
X238510495Y-56525066D03*
D37*
X239345500Y-56525061D03*
D36*
X238510498Y-53985059D03*
D37*
X239345496Y-53985060D03*
D36*
X238510493Y-51445063D03*
D37*
X239345503Y-51445061D03*
D36*
X238510499Y-48905060D03*
D37*
X239345502Y-48905063D03*
D36*
X238510502Y-46365064D03*
D37*
X239345500Y-46365059D03*
D36*
X238510500Y-43825065D03*
D37*
X239345500Y-43825061D03*
D36*
X238510502Y-41285067D03*
D37*
X239345500Y-41285062D03*
D38*
X225890502Y-48591560D03*
X225890498Y-46686567D03*
D34*
X229565500Y-40336561D03*
X232105505Y-40336566D03*
X229565494Y-42876564D03*
X232105495Y-42876566D03*
%TD*%
D27*
%TO.C,D2*%
X96418706Y-78966870D03*
X99678078Y-78450642D03*
%TD*%
D45*
%TO.C,D21*%
X204012074Y-103972440D03*
X207113056Y-105101112D03*
%TD*%
D10*
%TO.C,D17*%
X184557104Y-63904244D03*
X187857096Y-63904244D03*
%TD*%
D46*
%TO.C,PWR1*%
X266847848Y-38257966D03*
X273750136Y-35881316D03*
D43*
X271355893Y-35531768D03*
X268519332Y-36508473D03*
D46*
X273030633Y-33791725D03*
X266128336Y-36168374D03*
D47*
X272638027Y-36951706D03*
X269801479Y-37928404D03*
X268383196Y-38416757D03*
%TD*%
D28*
%TO.C,D7*%
X132765408Y-79269360D03*
X136057354Y-79039168D03*
%TD*%
D27*
%TO.C,D1*%
X99078085Y-95757573D03*
X102337457Y-95241345D03*
%TD*%
D21*
%TO.C,D9*%
X303411954Y-45122802D03*
X306703914Y-45352990D03*
%TD*%
D11*
%TO.C,CPG1316*%
X282390498Y-44255066D03*
D19*
X282390498Y-44255066D03*
D11*
X286390499Y-44255068D03*
D19*
X286390499Y-44255068D03*
D20*
X278540498Y-35605069D03*
X278540500Y-47605068D03*
X291240496Y-35605066D03*
X291240498Y-47605065D03*
%TD*%
D11*
%TO.C,CPG1316*%
X265390503Y-50255066D03*
D19*
X265390503Y-50255066D03*
D11*
X269390504Y-50255068D03*
D19*
X269390504Y-50255068D03*
D20*
X261540503Y-41605069D03*
X261540505Y-53605068D03*
X274240501Y-41605066D03*
X274240503Y-53605065D03*
%TD*%
D11*
%TO.C,CPG1316*%
X248390504Y-69255065D03*
D19*
X248390504Y-69255065D03*
D11*
X252390505Y-69255067D03*
D19*
X252390505Y-69255067D03*
D20*
X244540504Y-60605068D03*
X244540506Y-72605067D03*
X257240502Y-60605065D03*
X257240504Y-72605064D03*
%TD*%
D10*
%TO.C,D15*%
X266240499Y-44905069D03*
X269540489Y-44905061D03*
%TD*%
D11*
%TO.C,CPG1316*%
X265390504Y-84255061D03*
D19*
X265390504Y-84255061D03*
D11*
X269390505Y-84255063D03*
D19*
X269390505Y-84255063D03*
D20*
X261540504Y-75605064D03*
X261540506Y-87605063D03*
X274240502Y-75605061D03*
X274240504Y-87605060D03*
%TD*%
D11*
%TO.C,CPG1316*%
X113206784Y-81724585D03*
D17*
X113206784Y-81724585D03*
D11*
X117157543Y-81098845D03*
D17*
X117157543Y-81098845D03*
D18*
X108051029Y-73783356D03*
X109928242Y-85635610D03*
X120594670Y-71796638D03*
X122471883Y-83648892D03*
%TD*%
D22*
%TO.C,mouse-bite-1mm-3mm*%
X217839678Y-41104250D03*
X217839684Y-40504246D03*
X218549678Y-41104248D03*
X218549684Y-40504246D03*
X219249679Y-41104244D03*
X219259684Y-40504244D03*
%TD*%
D48*
%TO.C,D20*%
X249271775Y-100117473D03*
X252559221Y-99829861D03*
%TD*%
D10*
%TO.C,D12*%
X150557106Y-38904253D03*
X153857098Y-38904253D03*
%TD*%
D11*
%TO.C,CPG1316*%
X183707096Y-86254244D03*
D19*
X183707096Y-86254244D03*
D11*
X187707097Y-86254246D03*
D19*
X187707097Y-86254246D03*
D20*
X179857096Y-77604247D03*
X179857098Y-89604246D03*
X192557094Y-77604244D03*
X192557096Y-89604243D03*
%TD*%
D16*
%TO.C,D2*%
X337419527Y-78451456D03*
X340678899Y-78967698D03*
%TD*%
D22*
%TO.C,mouse-bite-1mm-3mm*%
X217839680Y-97304252D03*
X217839687Y-96704248D03*
X218549680Y-97304250D03*
X218549686Y-96704248D03*
X219249682Y-97304247D03*
X219259686Y-96704246D03*
%TD*%
D11*
%TO.C,CPG1316*%
X248891285Y-105521201D03*
D49*
X248891285Y-105521201D03*
D11*
X252876071Y-105172575D03*
D49*
X252876071Y-105172575D03*
D50*
X245347908Y-109194002D03*
X244302041Y-97239666D03*
X257999583Y-108087126D03*
X256953716Y-96132790D03*
%TD*%
M02*
