%TF.GenerationSoftware,KiCad,Pcbnew,8.0.6*%
%TF.CreationDate,2025-07-28T21:33:16+02:00*%
%TF.ProjectId,combined,636f6d62-696e-4656-942e-6b696361645f,v1.0.0*%
%TF.SameCoordinates,Original*%
%TF.FileFunction,Drillmap*%
%TF.FilePolarity,Positive*%
%FSLAX45Y45*%
G04 Gerber Fmt 4.5, Leading zero omitted, Abs format (unit mm)*
G04 Created by KiCad (PCBNEW 8.0.6) date 2025-07-28 21:33:16*
%MOMM*%
%LPD*%
G01*
G04 APERTURE LIST*
%ADD10C,0.150000*%
%ADD11C,0.050000*%
%ADD12C,0.100000*%
%ADD13C,0.200000*%
G04 APERTURE END LIST*
D10*
X12187997Y-3905199D02*
X14189261Y-3221174D01*
X12134246Y-3933289D02*
G75*
G02*
X12187997Y-3905199I118494J-161271D01*
G01*
X10163063Y-5381898D02*
G75*
G02*
X10075913Y-5418276I-118463J161218D01*
G01*
X17954969Y-3810425D02*
X21544792Y-3810425D01*
X14138683Y-10046944D02*
G75*
G02*
X14290063Y-10077239I39487J-196046D01*
G01*
X27456744Y-3221908D02*
X25821356Y-3799104D01*
X10163063Y-5381898D02*
X12134246Y-3933289D01*
X33633847Y-5418356D02*
G75*
G02*
X33546699Y-5381978I31253J197446D01*
G01*
D11*
X21745000Y-4527500D02*
X21965000Y-4527500D01*
D10*
X16186451Y-3210425D02*
G75*
G02*
X16253015Y-3221828I-12J-200055D01*
G01*
X24537590Y-11256029D02*
X26187122Y-11126116D01*
X9473032Y-10877912D02*
G75*
G02*
X9242358Y-10711963I-33132J197242D01*
G01*
D11*
X21744792Y-4010342D02*
X21964968Y-4010425D01*
D10*
X21975251Y-10197696D02*
G75*
G02*
X21962457Y-10127236I187060J70356D01*
G01*
D11*
X24150590Y-6233177D02*
X24150589Y-9433177D01*
X22050590Y-9433177D01*
X22050589Y-6233177D01*
X24150590Y-6233177D01*
D10*
X21544792Y-3810425D02*
G75*
G02*
X21744795Y-4010342I8J-199995D01*
G01*
X21148326Y-11756875D02*
G75*
G02*
X20892714Y-11874434I-187206J70375D01*
G01*
X19172169Y-11255946D02*
G75*
G02*
X19224871Y-11267390I-15719J-199474D01*
G01*
X16253016Y-3221827D02*
X17888405Y-3799022D01*
X17954969Y-3810425D02*
G75*
G02*
X17888405Y-3799021I-9J199925D01*
G01*
X31521762Y-3905280D02*
G75*
G02*
X31575513Y-3933370I-64742J-189360D01*
G01*
X27938957Y-11076819D02*
G75*
G02*
X27828840Y-11111042I-111908J165809D01*
G01*
D11*
X21747302Y-10127154D02*
X21962459Y-10127236D01*
D10*
X29571077Y-10047026D02*
X30978688Y-10330508D01*
X34467402Y-10712043D02*
X35233636Y-5874232D01*
X26201048Y-11125507D02*
X27828840Y-11111041D01*
X21965000Y-4527500D02*
X21965000Y-9615001D01*
X22164969Y-3810506D02*
X25754792Y-3810507D01*
X29455814Y-3210507D02*
X27523308Y-3210508D01*
X12724724Y-10331598D02*
X9473032Y-10877912D01*
X22817046Y-11874517D02*
G75*
G02*
X22561438Y-11756956I-68406J187927D01*
G01*
X8642375Y-5645325D02*
X10075913Y-5418276D01*
X19172169Y-11255946D02*
X17522639Y-11126034D01*
X21734509Y-10197614D02*
X21148326Y-11756875D01*
X8476123Y-5874150D02*
G75*
G02*
X8642375Y-5645326I197547J31280D01*
G01*
X27938957Y-11076819D02*
X29419697Y-10077320D01*
X30985036Y-10331680D02*
X34236727Y-10877993D01*
X12731072Y-10330426D02*
G75*
G02*
X12724724Y-10331598I-39792J197606D01*
G01*
X24484889Y-11267472D02*
G75*
G02*
X24537590Y-11256029I68371J-187808D01*
G01*
X27456744Y-3221908D02*
G75*
G02*
X27523308Y-3210509I66556J-188592D01*
G01*
X17508713Y-11125424D02*
G75*
G02*
X17522639Y-11126034I-1733J-198766D01*
G01*
X14189261Y-3221174D02*
G75*
G02*
X14253946Y-3210425I64679J-189226D01*
G01*
X14253946Y-3210425D02*
X16186451Y-3210425D01*
X25821356Y-3799104D02*
G75*
G02*
X25754792Y-3810505I-66566J188634D01*
G01*
X21747302Y-10127154D02*
G75*
G02*
X21734511Y-10197615I-200102J-66D01*
G01*
X35067385Y-5645407D02*
G75*
G02*
X35233632Y-5874231I-31285J-197533D01*
G01*
D11*
X29455815Y-3210507D02*
G75*
G02*
X29520253Y-3221840I7655J-145333D01*
G01*
D10*
X30985036Y-10331680D02*
G75*
G02*
X30978688Y-10330508I33014J196520D01*
G01*
X34467402Y-10712043D02*
G75*
G02*
X34236727Y-10877997I-197532J31273D01*
G01*
D11*
X21745000Y-9615000D02*
X21965000Y-9615001D01*
D10*
X22817046Y-11874517D02*
X24484889Y-11267473D01*
X20892714Y-11874436D02*
X19224871Y-11267390D01*
X21964968Y-4010425D02*
G75*
G02*
X22164969Y-3810498I199972J-45D01*
G01*
X31521762Y-3905280D02*
X29520500Y-3221256D01*
X29419697Y-10077320D02*
G75*
G02*
X29571076Y-10047026I111893J-165760D01*
G01*
X21745000Y-4527500D02*
X21745000Y-9615000D01*
X9242358Y-10711963D02*
X8476123Y-5874150D01*
X15880920Y-11110960D02*
G75*
G02*
X15770802Y-11076739I1790J200040D01*
G01*
D11*
X21660014Y-6232669D02*
X21660014Y-9432669D01*
X19560014Y-9432669D01*
X19560014Y-6232669D01*
X21660014Y-6232669D01*
D10*
X15770803Y-11076738D02*
X14290063Y-10077239D01*
X35067385Y-5645407D02*
X33633847Y-5418356D01*
X14138683Y-10046944D02*
X12731072Y-10330426D01*
X26187122Y-11126116D02*
G75*
G02*
X26201048Y-11125507I15698J-199394D01*
G01*
X33546698Y-5381980D02*
X31575512Y-3933370D01*
X21975251Y-10197696D02*
X22561435Y-11756957D01*
X17508713Y-11125424D02*
X15880920Y-11110960D01*
D12*
X31617735Y-8052578D02*
G75*
G02*
X31517735Y-8052578I-50000J0D01*
G01*
X31517735Y-8052578D02*
G75*
G02*
X31617735Y-8052578I50000J0D01*
G01*
X32859493Y-7690813D02*
G75*
G02*
X32739493Y-7690813I-60000J0D01*
G01*
X32739493Y-7690813D02*
G75*
G02*
X32859493Y-7690813I60000J0D01*
G01*
X33030866Y-9997586D02*
G75*
G02*
X32930867Y-9997586I-50000J0D01*
G01*
X32930867Y-9997586D02*
G75*
G02*
X33030866Y-9997586I50000J0D01*
G01*
X34272624Y-9635821D02*
G75*
G02*
X34152624Y-9635821I-60000J0D01*
G01*
X34152624Y-9635821D02*
G75*
G02*
X34272624Y-9635821I60000J0D01*
G01*
X22844883Y-11164265D02*
G75*
G02*
X22744883Y-11164265I-50000J0D01*
G01*
X22744883Y-11164265D02*
G75*
G02*
X22844883Y-11164265I50000J0D01*
G01*
X23756815Y-10250691D02*
G75*
G02*
X23636816Y-10250691I-60000J0D01*
G01*
X23636816Y-10250691D02*
G75*
G02*
X23756815Y-10250691I60000J0D01*
G01*
X9367236Y-8499898D02*
G75*
G02*
X9267236Y-8499898I-50000J0D01*
G01*
X9267236Y-8499898D02*
G75*
G02*
X9367236Y-8499898I50000J0D01*
G01*
X10436916Y-7775205D02*
G75*
G02*
X10316916Y-7775205I-60000J0D01*
G01*
X10316916Y-7775205D02*
G75*
G02*
X10436916Y-7775205I60000J0D01*
G01*
X27959050Y-7835507D02*
G75*
G02*
X27859051Y-7835507I-50000J0D01*
G01*
X27859051Y-7835507D02*
G75*
G02*
X27959050Y-7835507I50000J0D01*
G01*
X29129050Y-7285506D02*
G75*
G02*
X29009049Y-7285506I-60001J0D01*
G01*
X29009049Y-7285506D02*
G75*
G02*
X29129050Y-7285506I60001J0D01*
G01*
X16390710Y-6735425D02*
G75*
G02*
X16290711Y-6735425I-50000J0D01*
G01*
X16290711Y-6735425D02*
G75*
G02*
X16390710Y-6735425I50000J0D01*
G01*
X17560710Y-6185425D02*
G75*
G02*
X17440709Y-6185425I-60001J0D01*
G01*
X17440709Y-6185425D02*
G75*
G02*
X17560710Y-6185425I60001J0D01*
G01*
X31883673Y-6373507D02*
G75*
G02*
X31783673Y-6373507I-50000J0D01*
G01*
X31783673Y-6373507D02*
G75*
G02*
X31883673Y-6373507I50000J0D01*
G01*
X33125430Y-6011742D02*
G75*
G02*
X33005430Y-6011742I-60000J0D01*
G01*
X33005430Y-6011742D02*
G75*
G02*
X33125430Y-6011742I60000J0D01*
G01*
X16290710Y-10435425D02*
G75*
G02*
X16190711Y-10435425I-50000J0D01*
G01*
X16190711Y-10435425D02*
G75*
G02*
X16290710Y-10435425I50000J0D01*
G01*
X17460711Y-9885424D02*
G75*
G02*
X17340709Y-9885424I-60001J0D01*
G01*
X17340709Y-9885424D02*
G75*
G02*
X17460711Y-9885424I60001J0D01*
G01*
X26259050Y-6735506D02*
G75*
G02*
X26159051Y-6735506I-50000J0D01*
G01*
X26159051Y-6735506D02*
G75*
G02*
X26259050Y-6735506I50000J0D01*
G01*
X27429050Y-6185506D02*
G75*
G02*
X27309049Y-6185506I-60001J0D01*
G01*
X27309049Y-6185506D02*
G75*
G02*
X27429050Y-6185506I60001J0D01*
G01*
X29702016Y-8418722D02*
G75*
G02*
X29602016Y-8418722I-50000J0D01*
G01*
X29602016Y-8418722D02*
G75*
G02*
X29702016Y-8418722I50000J0D01*
G01*
X30907557Y-7950979D02*
G75*
G02*
X30787557Y-7950979I-60000J0D01*
G01*
X30787557Y-7950979D02*
G75*
G02*
X30907557Y-7950979I60000J0D01*
G01*
X14690710Y-7835425D02*
G75*
G02*
X14590711Y-7835425I-50000J0D01*
G01*
X14590711Y-7835425D02*
G75*
G02*
X14690710Y-7835425I50000J0D01*
G01*
X15860710Y-7285425D02*
G75*
G02*
X15740709Y-7285425I-60001J0D01*
G01*
X15740709Y-7285425D02*
G75*
G02*
X15860710Y-7285425I60001J0D01*
G01*
X16390711Y-5035425D02*
G75*
G02*
X16290712Y-5035425I-50000J0D01*
G01*
X16290712Y-5035425D02*
G75*
G02*
X16390711Y-5035425I50000J0D01*
G01*
X17560711Y-4485425D02*
G75*
G02*
X17440710Y-4485425I-60001J0D01*
G01*
X17440710Y-4485425D02*
G75*
G02*
X17560711Y-4485425I60001J0D01*
G01*
X18090710Y-5235424D02*
G75*
G02*
X17990711Y-5235424I-50000J0D01*
G01*
X17990711Y-5235424D02*
G75*
G02*
X18090710Y-5235424I50000J0D01*
G01*
X19260710Y-4685423D02*
G75*
G02*
X19140709Y-4685423I-60001J0D01*
G01*
X19140709Y-4685423D02*
G75*
G02*
X19260710Y-4685423I60001J0D01*
G01*
X19874833Y-10767440D02*
G75*
G02*
X19774832Y-10767440I-50000J0D01*
G01*
X19774832Y-10767440D02*
G75*
G02*
X19874833Y-10767440I50000J0D01*
G01*
X21162987Y-10647352D02*
G75*
G02*
X21042987Y-10647352I-60000J0D01*
G01*
X21042987Y-10647352D02*
G75*
G02*
X21162987Y-10647352I60000J0D01*
G01*
X33296804Y-8318515D02*
G75*
G02*
X33196805Y-8318515I-50000J0D01*
G01*
X33196805Y-8318515D02*
G75*
G02*
X33296804Y-8318515I50000J0D01*
G01*
X34538562Y-7956751D02*
G75*
G02*
X34418562Y-7956751I-60000J0D01*
G01*
X34418562Y-7956751D02*
G75*
G02*
X34538562Y-7956751I60000J0D01*
G01*
X33562743Y-6639446D02*
G75*
G02*
X33462743Y-6639446I-50000J0D01*
G01*
X33462743Y-6639446D02*
G75*
G02*
X33562743Y-6639446I50000J0D01*
G01*
X34804501Y-6277681D02*
G75*
G02*
X34684501Y-6277681I-60000J0D01*
G01*
X34684501Y-6277681D02*
G75*
G02*
X34804501Y-6277681I60000J0D01*
G01*
X12831983Y-6803699D02*
G75*
G02*
X12731983Y-6803699I-50000J0D01*
G01*
X12731983Y-6803699D02*
G75*
G02*
X12831983Y-6803699I50000J0D01*
G01*
X13960791Y-6174121D02*
G75*
G02*
X13840791Y-6174121I-60000J0D01*
G01*
X13840791Y-6174121D02*
G75*
G02*
X13960791Y-6174121I60000J0D01*
G01*
X9633175Y-10178968D02*
G75*
G02*
X9533175Y-10178968I-50000J0D01*
G01*
X9533175Y-10178968D02*
G75*
G02*
X9633175Y-10178968I50000J0D01*
G01*
X10702855Y-9454276D02*
G75*
G02*
X10582856Y-9454276I-60000J0D01*
G01*
X10582856Y-9454276D02*
G75*
G02*
X10702855Y-9454276I60000J0D01*
G01*
X31351797Y-9731648D02*
G75*
G02*
X31251797Y-9731648I-50000J0D01*
G01*
X31251797Y-9731648D02*
G75*
G02*
X31351797Y-9731648I50000J0D01*
G01*
X32593554Y-9369883D02*
G75*
G02*
X32473554Y-9369883I-60000J0D01*
G01*
X32473554Y-9369883D02*
G75*
G02*
X32593554Y-9369883I60000J0D01*
G01*
X27959051Y-6135507D02*
G75*
G02*
X27859052Y-6135507I-50000J0D01*
G01*
X27859052Y-6135507D02*
G75*
G02*
X27959051Y-6135507I50000J0D01*
G01*
X29129051Y-5585507D02*
G75*
G02*
X29009050Y-5585507I-60001J0D01*
G01*
X29009050Y-5585507D02*
G75*
G02*
X29129051Y-5585507I60001J0D01*
G01*
X26359050Y-10435507D02*
G75*
G02*
X26259051Y-10435507I-50000J0D01*
G01*
X26259051Y-10435507D02*
G75*
G02*
X26359050Y-10435507I50000J0D01*
G01*
X27529050Y-9885507D02*
G75*
G02*
X27409049Y-9885507I-60001J0D01*
G01*
X27409049Y-9885507D02*
G75*
G02*
X27529050Y-9885507I60001J0D01*
G01*
X24559050Y-5235507D02*
G75*
G02*
X24459050Y-5235507I-50000J0D01*
G01*
X24459050Y-5235507D02*
G75*
G02*
X24559050Y-5235507I50000J0D01*
G01*
X25729050Y-4685506D02*
G75*
G02*
X25609049Y-4685506I-60001J0D01*
G01*
X25609049Y-4685506D02*
G75*
G02*
X25729050Y-4685506I60001J0D01*
G01*
X12950568Y-8499557D02*
G75*
G02*
X12850569Y-8499557I-50000J0D01*
G01*
X12850569Y-8499557D02*
G75*
G02*
X12950568Y-8499557I50000J0D01*
G01*
X14079376Y-7869979D02*
G75*
G02*
X13959376Y-7869979I-60000J0D01*
G01*
X13959376Y-7869979D02*
G75*
G02*
X14079376Y-7869979I60000J0D01*
G01*
X18090711Y-6935425D02*
G75*
G02*
X17990711Y-6935425I-50000J0D01*
G01*
X17990711Y-6935425D02*
G75*
G02*
X18090711Y-6935425I50000J0D01*
G01*
X19260711Y-6385425D02*
G75*
G02*
X19140710Y-6385425I-60001J0D01*
G01*
X19140710Y-6385425D02*
G75*
G02*
X19260711Y-6385425I60001J0D01*
G01*
X14690710Y-6135424D02*
G75*
G02*
X14590711Y-6135424I-50000J0D01*
G01*
X14590711Y-6135424D02*
G75*
G02*
X14690710Y-6135424I50000J0D01*
G01*
X15860710Y-5585424D02*
G75*
G02*
X15740709Y-5585424I-60001J0D01*
G01*
X15740709Y-5585424D02*
G75*
G02*
X15860710Y-5585424I60001J0D01*
G01*
X11312245Y-9913030D02*
G75*
G02*
X11212245Y-9913030I-50000J0D01*
G01*
X11212245Y-9913030D02*
G75*
G02*
X11312245Y-9913030I50000J0D01*
G01*
X12381925Y-9188337D02*
G75*
G02*
X12261926Y-9188337I-60000J0D01*
G01*
X12261926Y-9188337D02*
G75*
G02*
X12381925Y-9188337I60000J0D01*
G01*
D10*
X20120710Y-4950425D02*
X20120710Y-4904076D01*
X20120710Y-4623575D02*
X20120710Y-4580425D01*
X20120710Y-4814075D02*
X20120710Y-4713576D01*
X20120710Y-4580425D02*
X20420711Y-4580425D01*
X20420710Y-4950425D02*
X20120710Y-4950425D01*
X20420711Y-4580425D02*
X20420710Y-4950425D01*
X20488210Y-3988575D02*
X20742210Y-3988576D01*
X20488210Y-4242575D02*
X20488210Y-4078575D01*
X20742210Y-4332575D02*
X20488210Y-4332575D01*
X20742210Y-4078576D02*
X20742210Y-4242575D01*
X20120710Y-4623575D02*
G75*
G02*
X20120710Y-4713576I-1J-45000D01*
G01*
X20120710Y-4814075D02*
G75*
G02*
X20120710Y-4904076I-3J-45000D01*
G01*
X20488210Y-3988575D02*
G75*
G02*
X20488210Y-4078575I0J-45000D01*
G01*
X20488210Y-4242575D02*
G75*
G02*
X20488210Y-4332575I0J-45000D01*
G01*
X20742210Y-4332575D02*
G75*
G02*
X20742210Y-4242575I0J45000D01*
G01*
X20742210Y-4078576D02*
G75*
G02*
X20742210Y-3988576I0J45000D01*
G01*
D12*
X29939189Y-5027005D02*
G75*
G02*
X29839189Y-5027005I-50000J0D01*
G01*
X29839189Y-5027005D02*
G75*
G02*
X29939189Y-5027005I50000J0D01*
G01*
X31144729Y-4559262D02*
G75*
G02*
X31024729Y-4559262I-60000J0D01*
G01*
X31024729Y-4559262D02*
G75*
G02*
X31144729Y-4559262I60000J0D01*
G01*
X24559050Y-8635506D02*
G75*
G02*
X24459051Y-8635506I-50000J0D01*
G01*
X24459051Y-8635506D02*
G75*
G02*
X24559050Y-8635506I50000J0D01*
G01*
X25729050Y-8085506D02*
G75*
G02*
X25609049Y-8085506I-60001J0D01*
G01*
X25609049Y-8085506D02*
G75*
G02*
X25729050Y-8085506I60001J0D01*
G01*
X16390710Y-8435425D02*
G75*
G02*
X16290710Y-8435425I-50000J0D01*
G01*
X16290710Y-8435425D02*
G75*
G02*
X16390710Y-8435425I50000J0D01*
G01*
X17560710Y-7885424D02*
G75*
G02*
X17440709Y-7885424I-60001J0D01*
G01*
X17440709Y-7885424D02*
G75*
G02*
X17560710Y-7885424I60001J0D01*
G01*
X18042918Y-10489660D02*
G75*
G02*
X17942918Y-10489660I-50000J0D01*
G01*
X17942918Y-10489660D02*
G75*
G02*
X18042918Y-10489660I50000J0D01*
G01*
X19256439Y-10042853D02*
G75*
G02*
X19136440Y-10042853I-60000J0D01*
G01*
X19136440Y-10042853D02*
G75*
G02*
X19256439Y-10042853I60000J0D01*
G01*
X14690710Y-4435426D02*
G75*
G02*
X14590711Y-4435426I-50000J0D01*
G01*
X14590711Y-4435426D02*
G75*
G02*
X14690710Y-4435426I50000J0D01*
G01*
X15860710Y-3885425D02*
G75*
G02*
X15740709Y-3885425I-60001J0D01*
G01*
X15740709Y-3885425D02*
G75*
G02*
X15860710Y-3885425I60001J0D01*
G01*
X29820603Y-6722863D02*
G75*
G02*
X29720603Y-6722863I-50000J0D01*
G01*
X29720603Y-6722863D02*
G75*
G02*
X29820603Y-6722863I50000J0D01*
G01*
X31026143Y-6255120D02*
G75*
G02*
X30906144Y-6255120I-60000J0D01*
G01*
X30906144Y-6255120D02*
G75*
G02*
X31026143Y-6255120I60000J0D01*
G01*
X12713397Y-5107840D02*
G75*
G02*
X12613397Y-5107840I-50000J0D01*
G01*
X12613397Y-5107840D02*
G75*
G02*
X12713397Y-5107840I50000J0D01*
G01*
X13842205Y-4478262D02*
G75*
G02*
X13722205Y-4478262I-60000J0D01*
G01*
X13722205Y-4478262D02*
G75*
G02*
X13842205Y-4478262I60000J0D01*
G01*
X10780367Y-6554889D02*
G75*
G02*
X10680367Y-6554889I-50000J0D01*
G01*
X10680367Y-6554889D02*
G75*
G02*
X10780367Y-6554889I50000J0D01*
G01*
X11850047Y-5830196D02*
G75*
G02*
X11730048Y-5830196I-60000J0D01*
G01*
X11730048Y-5830196D02*
G75*
G02*
X11850047Y-5830196I60000J0D01*
G01*
X9101298Y-6820827D02*
G75*
G02*
X9001298Y-6820827I-50000J0D01*
G01*
X9001298Y-6820827D02*
G75*
G02*
X9101298Y-6820827I50000J0D01*
G01*
X10170978Y-6096135D02*
G75*
G02*
X10050979Y-6096135I-60000J0D01*
G01*
X10050979Y-6096135D02*
G75*
G02*
X10170978Y-6096135I60000J0D01*
G01*
D10*
X22589049Y-4580506D02*
X22889050Y-4580506D01*
X22589049Y-4623657D02*
X22589049Y-4580506D01*
X22589050Y-4950506D02*
X22589049Y-4904157D01*
X22589050Y-4814157D02*
X22589050Y-4713657D01*
X22889050Y-4580506D02*
X22889050Y-4950506D01*
X22889050Y-4950506D02*
X22589050Y-4950506D01*
X22956550Y-3988656D02*
X23210550Y-3988657D01*
X22956550Y-4242656D02*
X22956550Y-4078656D01*
X23210549Y-4332656D02*
X22956549Y-4332656D01*
X23210550Y-4078657D02*
X23210549Y-4242657D01*
X22589049Y-4623657D02*
G75*
G02*
X22589050Y-4713657I0J-45000D01*
G01*
X22589050Y-4814157D02*
G75*
G02*
X22589049Y-4904157I-4J-45000D01*
G01*
X22956550Y-3988656D02*
G75*
G02*
X22956550Y-4078656I-1J-45000D01*
G01*
X22956550Y-4242656D02*
G75*
G02*
X22956549Y-4332656I-1J-45000D01*
G01*
X23210549Y-4332656D02*
G75*
G02*
X23210549Y-4242657I1J45000D01*
G01*
X23210550Y-4078657D02*
G75*
G02*
X23210550Y-3988657I1J45000D01*
G01*
D12*
X27959050Y-4435507D02*
G75*
G02*
X27859051Y-4435507I-50000J0D01*
G01*
X27859051Y-4435507D02*
G75*
G02*
X27959050Y-4435507I50000J0D01*
G01*
X29129050Y-3885507D02*
G75*
G02*
X29009049Y-3885507I-60001J0D01*
G01*
X29009049Y-3885507D02*
G75*
G02*
X29129050Y-3885507I60001J0D01*
G01*
X26259050Y-5035507D02*
G75*
G02*
X26159051Y-5035507I-50000J0D01*
G01*
X26159051Y-5035507D02*
G75*
G02*
X26259050Y-5035507I50000J0D01*
G01*
X27429051Y-4485506D02*
G75*
G02*
X27309049Y-4485506I-60001J0D01*
G01*
X27309049Y-4485506D02*
G75*
G02*
X27429051Y-4485506I60001J0D01*
G01*
X24559050Y-6935507D02*
G75*
G02*
X24459051Y-6935507I-50000J0D01*
G01*
X24459051Y-6935507D02*
G75*
G02*
X24559050Y-6935507I50000J0D01*
G01*
X25729051Y-6385507D02*
G75*
G02*
X25609049Y-6385507I-60001J0D01*
G01*
X25609049Y-6385507D02*
G75*
G02*
X25729051Y-6385507I60001J0D01*
G01*
X26259050Y-8435506D02*
G75*
G02*
X26159051Y-8435506I-50000J0D01*
G01*
X26159051Y-8435506D02*
G75*
G02*
X26259050Y-8435506I50000J0D01*
G01*
X27429050Y-7885506D02*
G75*
G02*
X27309049Y-7885506I-60001J0D01*
G01*
X27309049Y-7885506D02*
G75*
G02*
X27429050Y-7885506I60001J0D01*
G01*
X11046306Y-8233959D02*
G75*
G02*
X10946306Y-8233959I-50000J0D01*
G01*
X10946306Y-8233959D02*
G75*
G02*
X11046306Y-8233959I50000J0D01*
G01*
X12115986Y-7509266D02*
G75*
G02*
X11995986Y-7509266I-60000J0D01*
G01*
X11995986Y-7509266D02*
G75*
G02*
X12115986Y-7509266I60000J0D01*
G01*
X18090710Y-8635425D02*
G75*
G02*
X17990711Y-8635425I-50000J0D01*
G01*
X17990711Y-8635425D02*
G75*
G02*
X18090710Y-8635425I50000J0D01*
G01*
X19260710Y-8085424D02*
G75*
G02*
X19140709Y-8085424I-60001J0D01*
G01*
X19140709Y-8085424D02*
G75*
G02*
X19260710Y-8085424I60001J0D01*
G01*
X24611256Y-10590843D02*
G75*
G02*
X24511256Y-10590843I-50000J0D01*
G01*
X24511256Y-10590843D02*
G75*
G02*
X24611256Y-10590843I50000J0D01*
G01*
X25728906Y-9941835D02*
G75*
G02*
X25608907Y-9941835I-60000J0D01*
G01*
X25608907Y-9941835D02*
G75*
G02*
X25728906Y-9941835I60000J0D01*
G01*
D13*
D12*
X21758968Y-4085425D02*
X21808968Y-4135425D01*
X21808968Y-4085425D02*
X21758968Y-4135425D01*
X21758968Y-10065425D02*
X21808968Y-10115425D01*
X21808968Y-10065425D02*
X21758968Y-10115425D01*
X21758968Y-4025425D02*
X21808968Y-4075425D01*
X21808968Y-4025425D02*
X21758968Y-4075425D01*
X21758968Y-10005425D02*
X21808968Y-10055425D01*
X21808968Y-10005425D02*
X21758968Y-10055425D01*
X21758999Y-4335001D02*
X21808999Y-4385001D01*
X21808999Y-4335001D02*
X21758999Y-4385001D01*
X21759000Y-4457500D02*
X21809000Y-4507500D01*
X21809000Y-4457500D02*
X21759000Y-4507500D01*
X21759000Y-4397500D02*
X21809000Y-4447500D01*
X21809000Y-4397500D02*
X21759000Y-4447500D01*
X21759000Y-9690000D02*
X21809000Y-9740000D01*
X21809000Y-9690000D02*
X21759000Y-9740000D01*
X21759000Y-9940001D02*
X21809000Y-9990001D01*
X21809000Y-9940001D02*
X21759000Y-9990001D01*
X21759000Y-4275000D02*
X21809000Y-4325000D01*
X21809000Y-4275000D02*
X21759000Y-4325000D01*
X21759000Y-9812500D02*
X21809000Y-9862500D01*
X21809000Y-9812500D02*
X21759000Y-9862500D01*
X21759000Y-9630001D02*
X21809000Y-9680001D01*
X21809000Y-9630001D02*
X21759000Y-9680001D01*
X21759000Y-4210000D02*
X21809000Y-4260000D01*
X21809000Y-4210000D02*
X21759000Y-4260000D01*
X21759000Y-9752500D02*
X21809000Y-9802500D01*
X21809000Y-9752500D02*
X21759000Y-9802500D01*
X21759000Y-4150000D02*
X21809000Y-4200000D01*
X21809000Y-4150000D02*
X21759000Y-4200000D01*
X21759001Y-9880000D02*
X21809001Y-9930000D01*
X21809001Y-9880000D02*
X21759001Y-9930000D01*
X21829968Y-4085425D02*
X21879968Y-4135425D01*
X21879968Y-4085425D02*
X21829968Y-4135425D01*
X21829968Y-10065425D02*
X21879968Y-10115425D01*
X21879968Y-10065425D02*
X21829968Y-10115425D01*
X21829968Y-4025425D02*
X21879968Y-4075425D01*
X21879968Y-4025425D02*
X21829968Y-4075425D01*
X21829969Y-10005425D02*
X21879969Y-10055425D01*
X21879969Y-10005425D02*
X21829969Y-10055425D01*
X21830000Y-4335000D02*
X21880000Y-4385000D01*
X21880000Y-4335000D02*
X21830000Y-4385000D01*
X21830000Y-4397500D02*
X21880000Y-4447500D01*
X21880000Y-4397500D02*
X21830000Y-4447500D01*
X21830000Y-4457500D02*
X21880000Y-4507500D01*
X21880000Y-4457500D02*
X21830000Y-4507500D01*
X21830000Y-9630000D02*
X21880000Y-9680000D01*
X21880000Y-9630000D02*
X21830000Y-9680000D01*
X21830000Y-9690000D02*
X21880000Y-9740000D01*
X21880000Y-9690000D02*
X21830000Y-9740000D01*
X21830000Y-9752500D02*
X21880000Y-9802500D01*
X21880000Y-9752500D02*
X21830000Y-9802500D01*
X21830000Y-9812500D02*
X21880000Y-9862500D01*
X21880000Y-9812500D02*
X21830000Y-9862500D01*
X21830000Y-9940001D02*
X21880000Y-9990001D01*
X21880000Y-9940001D02*
X21830000Y-9990001D01*
X21830000Y-4275000D02*
X21880000Y-4325000D01*
X21880000Y-4275000D02*
X21830000Y-4325000D01*
X21830000Y-4150000D02*
X21880000Y-4200000D01*
X21880000Y-4150000D02*
X21830000Y-4200000D01*
X21830000Y-4210000D02*
X21880000Y-4260000D01*
X21880000Y-4210000D02*
X21830000Y-4260000D01*
X21830001Y-9880000D02*
X21880001Y-9930000D01*
X21880001Y-9880000D02*
X21830001Y-9930000D01*
X21899968Y-4085425D02*
X21949968Y-4135425D01*
X21949968Y-4085425D02*
X21899968Y-4135425D01*
X21899968Y-10065425D02*
X21949968Y-10115425D01*
X21949968Y-10065425D02*
X21899968Y-10115425D01*
X21900000Y-4335000D02*
X21950000Y-4385000D01*
X21950000Y-4335000D02*
X21900000Y-4385000D01*
X21900000Y-4457500D02*
X21950000Y-4507500D01*
X21950000Y-4457500D02*
X21900000Y-4507500D01*
X21900000Y-9690000D02*
X21950000Y-9740000D01*
X21950000Y-9690000D02*
X21900000Y-9740000D01*
X21900000Y-9812500D02*
X21950000Y-9862500D01*
X21950000Y-9812500D02*
X21900000Y-9862500D01*
X21900000Y-9940000D02*
X21950000Y-9990000D01*
X21950000Y-9940000D02*
X21900000Y-9990000D01*
X21900000Y-4210000D02*
X21950000Y-4260000D01*
X21950000Y-4210000D02*
X21900000Y-4260000D01*
X21900969Y-4025424D02*
X21950969Y-4075424D01*
X21950969Y-4025424D02*
X21900969Y-4075424D01*
X21900969Y-10005424D02*
X21950969Y-10055424D01*
X21950969Y-10005424D02*
X21900969Y-10055424D01*
X21901000Y-4397500D02*
X21951000Y-4447500D01*
X21951000Y-4397500D02*
X21901000Y-4447500D01*
X21901000Y-9630001D02*
X21951000Y-9680001D01*
X21951000Y-9630001D02*
X21901000Y-9680001D01*
X21901000Y-9752500D02*
X21951000Y-9802500D01*
X21951000Y-9752500D02*
X21901000Y-9802500D01*
X21901000Y-4150000D02*
X21951000Y-4200000D01*
X21951000Y-4150000D02*
X21901000Y-4200000D01*
X21901000Y-4275000D02*
X21951000Y-4325000D01*
X21951000Y-4275000D02*
X21901000Y-4325000D01*
X21901001Y-9880000D02*
X21951001Y-9930000D01*
X21951001Y-9880000D02*
X21901001Y-9930000D01*
X16603999Y-3551471D02*
G75*
G02*
X16513999Y-3551471I-45000J0D01*
G01*
X16513999Y-3551471D02*
G75*
G02*
X16603999Y-3551471I45000J0D01*
G01*
X16887655Y-3649140D02*
G75*
G02*
X16797655Y-3649140I-45000J0D01*
G01*
X16797655Y-3649140D02*
G75*
G02*
X16887655Y-3649140I45000J0D01*
G01*
X26896933Y-3650847D02*
G75*
G02*
X26806933Y-3650847I-45000J0D01*
G01*
X26806933Y-3650847D02*
G75*
G02*
X26896933Y-3650847I45000J0D01*
G01*
X27180590Y-3553177D02*
G75*
G02*
X27090590Y-3553177I-45000J0D01*
G01*
X27090590Y-3553177D02*
G75*
G02*
X27180590Y-3553177I45000J0D01*
G01*
D13*
X8726939Y-12205564D02*
X8726939Y-12005564D01*
X8726939Y-12005564D02*
X8774558Y-12005564D01*
X8774558Y-12005564D02*
X8803129Y-12015088D01*
X8803129Y-12015088D02*
X8822177Y-12034135D01*
X8822177Y-12034135D02*
X8831701Y-12053183D01*
X8831701Y-12053183D02*
X8841225Y-12091278D01*
X8841225Y-12091278D02*
X8841225Y-12119850D01*
X8841225Y-12119850D02*
X8831701Y-12157945D01*
X8831701Y-12157945D02*
X8822177Y-12176992D01*
X8822177Y-12176992D02*
X8803129Y-12196040D01*
X8803129Y-12196040D02*
X8774558Y-12205564D01*
X8774558Y-12205564D02*
X8726939Y-12205564D01*
X8926939Y-12205564D02*
X8926939Y-12072230D01*
X8926939Y-12110326D02*
X8936463Y-12091278D01*
X8936463Y-12091278D02*
X8945987Y-12081754D01*
X8945987Y-12081754D02*
X8965034Y-12072230D01*
X8965034Y-12072230D02*
X8984082Y-12072230D01*
X9050748Y-12205564D02*
X9050748Y-12072230D01*
X9050748Y-12005564D02*
X9041225Y-12015088D01*
X9041225Y-12015088D02*
X9050748Y-12024611D01*
X9050748Y-12024611D02*
X9060272Y-12015088D01*
X9060272Y-12015088D02*
X9050748Y-12005564D01*
X9050748Y-12005564D02*
X9050748Y-12024611D01*
X9174558Y-12205564D02*
X9155510Y-12196040D01*
X9155510Y-12196040D02*
X9145987Y-12176992D01*
X9145987Y-12176992D02*
X9145987Y-12005564D01*
X9279320Y-12205564D02*
X9260272Y-12196040D01*
X9260272Y-12196040D02*
X9250748Y-12176992D01*
X9250748Y-12176992D02*
X9250748Y-12005564D01*
X9507891Y-12205564D02*
X9507891Y-12005564D01*
X9507891Y-12005564D02*
X9574558Y-12148421D01*
X9574558Y-12148421D02*
X9641225Y-12005564D01*
X9641225Y-12005564D02*
X9641225Y-12205564D01*
X9822177Y-12205564D02*
X9822177Y-12100802D01*
X9822177Y-12100802D02*
X9812653Y-12081754D01*
X9812653Y-12081754D02*
X9793606Y-12072230D01*
X9793606Y-12072230D02*
X9755510Y-12072230D01*
X9755510Y-12072230D02*
X9736463Y-12081754D01*
X9822177Y-12196040D02*
X9803129Y-12205564D01*
X9803129Y-12205564D02*
X9755510Y-12205564D01*
X9755510Y-12205564D02*
X9736463Y-12196040D01*
X9736463Y-12196040D02*
X9726939Y-12176992D01*
X9726939Y-12176992D02*
X9726939Y-12157945D01*
X9726939Y-12157945D02*
X9736463Y-12138897D01*
X9736463Y-12138897D02*
X9755510Y-12129373D01*
X9755510Y-12129373D02*
X9803129Y-12129373D01*
X9803129Y-12129373D02*
X9822177Y-12119850D01*
X9917415Y-12072230D02*
X9917415Y-12272230D01*
X9917415Y-12081754D02*
X9936463Y-12072230D01*
X9936463Y-12072230D02*
X9974558Y-12072230D01*
X9974558Y-12072230D02*
X9993606Y-12081754D01*
X9993606Y-12081754D02*
X10003129Y-12091278D01*
X10003129Y-12091278D02*
X10012653Y-12110326D01*
X10012653Y-12110326D02*
X10012653Y-12167469D01*
X10012653Y-12167469D02*
X10003129Y-12186516D01*
X10003129Y-12186516D02*
X9993606Y-12196040D01*
X9993606Y-12196040D02*
X9974558Y-12205564D01*
X9974558Y-12205564D02*
X9936463Y-12205564D01*
X9936463Y-12205564D02*
X9917415Y-12196040D01*
X10098368Y-12186516D02*
X10107891Y-12196040D01*
X10107891Y-12196040D02*
X10098368Y-12205564D01*
X10098368Y-12205564D02*
X10088844Y-12196040D01*
X10088844Y-12196040D02*
X10098368Y-12186516D01*
X10098368Y-12186516D02*
X10098368Y-12205564D01*
X10098368Y-12081754D02*
X10107891Y-12091278D01*
X10107891Y-12091278D02*
X10098368Y-12100802D01*
X10098368Y-12100802D02*
X10088844Y-12091278D01*
X10088844Y-12091278D02*
X10098368Y-12081754D01*
X10098368Y-12081754D02*
X10098368Y-12100802D01*
D12*
X8416162Y-12509080D02*
X8466162Y-12559080D01*
X8466162Y-12509080D02*
X8416162Y-12559080D01*
D13*
X8765034Y-12425564D02*
X8784082Y-12425564D01*
X8784082Y-12425564D02*
X8803129Y-12435088D01*
X8803129Y-12435088D02*
X8812653Y-12444611D01*
X8812653Y-12444611D02*
X8822177Y-12463659D01*
X8822177Y-12463659D02*
X8831701Y-12501754D01*
X8831701Y-12501754D02*
X8831701Y-12549373D01*
X8831701Y-12549373D02*
X8822177Y-12587469D01*
X8822177Y-12587469D02*
X8812653Y-12606516D01*
X8812653Y-12606516D02*
X8803129Y-12616040D01*
X8803129Y-12616040D02*
X8784082Y-12625564D01*
X8784082Y-12625564D02*
X8765034Y-12625564D01*
X8765034Y-12625564D02*
X8745987Y-12616040D01*
X8745987Y-12616040D02*
X8736463Y-12606516D01*
X8736463Y-12606516D02*
X8726939Y-12587469D01*
X8726939Y-12587469D02*
X8717415Y-12549373D01*
X8717415Y-12549373D02*
X8717415Y-12501754D01*
X8717415Y-12501754D02*
X8726939Y-12463659D01*
X8726939Y-12463659D02*
X8736463Y-12444611D01*
X8736463Y-12444611D02*
X8745987Y-12435088D01*
X8745987Y-12435088D02*
X8765034Y-12425564D01*
X8917415Y-12606516D02*
X8926939Y-12616040D01*
X8926939Y-12616040D02*
X8917415Y-12625564D01*
X8917415Y-12625564D02*
X8907891Y-12616040D01*
X8907891Y-12616040D02*
X8917415Y-12606516D01*
X8917415Y-12606516D02*
X8917415Y-12625564D01*
X9107891Y-12425564D02*
X9012653Y-12425564D01*
X9012653Y-12425564D02*
X9003129Y-12520802D01*
X9003129Y-12520802D02*
X9012653Y-12511278D01*
X9012653Y-12511278D02*
X9031701Y-12501754D01*
X9031701Y-12501754D02*
X9079320Y-12501754D01*
X9079320Y-12501754D02*
X9098368Y-12511278D01*
X9098368Y-12511278D02*
X9107891Y-12520802D01*
X9107891Y-12520802D02*
X9117415Y-12539850D01*
X9117415Y-12539850D02*
X9117415Y-12587469D01*
X9117415Y-12587469D02*
X9107891Y-12606516D01*
X9107891Y-12606516D02*
X9098368Y-12616040D01*
X9098368Y-12616040D02*
X9079320Y-12625564D01*
X9079320Y-12625564D02*
X9031701Y-12625564D01*
X9031701Y-12625564D02*
X9012653Y-12616040D01*
X9012653Y-12616040D02*
X9003129Y-12606516D01*
X9241225Y-12425564D02*
X9260272Y-12425564D01*
X9260272Y-12425564D02*
X9279320Y-12435088D01*
X9279320Y-12435088D02*
X9288844Y-12444611D01*
X9288844Y-12444611D02*
X9298368Y-12463659D01*
X9298368Y-12463659D02*
X9307891Y-12501754D01*
X9307891Y-12501754D02*
X9307891Y-12549373D01*
X9307891Y-12549373D02*
X9298368Y-12587469D01*
X9298368Y-12587469D02*
X9288844Y-12606516D01*
X9288844Y-12606516D02*
X9279320Y-12616040D01*
X9279320Y-12616040D02*
X9260272Y-12625564D01*
X9260272Y-12625564D02*
X9241225Y-12625564D01*
X9241225Y-12625564D02*
X9222177Y-12616040D01*
X9222177Y-12616040D02*
X9212653Y-12606516D01*
X9212653Y-12606516D02*
X9203129Y-12587469D01*
X9203129Y-12587469D02*
X9193606Y-12549373D01*
X9193606Y-12549373D02*
X9193606Y-12501754D01*
X9193606Y-12501754D02*
X9203129Y-12463659D01*
X9203129Y-12463659D02*
X9212653Y-12444611D01*
X9212653Y-12444611D02*
X9222177Y-12435088D01*
X9222177Y-12435088D02*
X9241225Y-12425564D01*
X9431701Y-12425564D02*
X9450749Y-12425564D01*
X9450749Y-12425564D02*
X9469796Y-12435088D01*
X9469796Y-12435088D02*
X9479320Y-12444611D01*
X9479320Y-12444611D02*
X9488844Y-12463659D01*
X9488844Y-12463659D02*
X9498368Y-12501754D01*
X9498368Y-12501754D02*
X9498368Y-12549373D01*
X9498368Y-12549373D02*
X9488844Y-12587469D01*
X9488844Y-12587469D02*
X9479320Y-12606516D01*
X9479320Y-12606516D02*
X9469796Y-12616040D01*
X9469796Y-12616040D02*
X9450749Y-12625564D01*
X9450749Y-12625564D02*
X9431701Y-12625564D01*
X9431701Y-12625564D02*
X9412653Y-12616040D01*
X9412653Y-12616040D02*
X9403129Y-12606516D01*
X9403129Y-12606516D02*
X9393606Y-12587469D01*
X9393606Y-12587469D02*
X9384082Y-12549373D01*
X9384082Y-12549373D02*
X9384082Y-12501754D01*
X9384082Y-12501754D02*
X9393606Y-12463659D01*
X9393606Y-12463659D02*
X9403129Y-12444611D01*
X9403129Y-12444611D02*
X9412653Y-12435088D01*
X9412653Y-12435088D02*
X9431701Y-12425564D01*
X9584082Y-12625564D02*
X9584082Y-12492230D01*
X9584082Y-12511278D02*
X9593606Y-12501754D01*
X9593606Y-12501754D02*
X9612653Y-12492230D01*
X9612653Y-12492230D02*
X9641225Y-12492230D01*
X9641225Y-12492230D02*
X9660272Y-12501754D01*
X9660272Y-12501754D02*
X9669796Y-12520802D01*
X9669796Y-12520802D02*
X9669796Y-12625564D01*
X9669796Y-12520802D02*
X9679320Y-12501754D01*
X9679320Y-12501754D02*
X9698368Y-12492230D01*
X9698368Y-12492230D02*
X9726939Y-12492230D01*
X9726939Y-12492230D02*
X9745987Y-12501754D01*
X9745987Y-12501754D02*
X9755510Y-12520802D01*
X9755510Y-12520802D02*
X9755510Y-12625564D01*
X9850749Y-12625564D02*
X9850749Y-12492230D01*
X9850749Y-12511278D02*
X9860272Y-12501754D01*
X9860272Y-12501754D02*
X9879320Y-12492230D01*
X9879320Y-12492230D02*
X9907891Y-12492230D01*
X9907891Y-12492230D02*
X9926939Y-12501754D01*
X9926939Y-12501754D02*
X9936463Y-12520802D01*
X9936463Y-12520802D02*
X9936463Y-12625564D01*
X9936463Y-12520802D02*
X9945987Y-12501754D01*
X9945987Y-12501754D02*
X9965034Y-12492230D01*
X9965034Y-12492230D02*
X9993606Y-12492230D01*
X9993606Y-12492230D02*
X10012653Y-12501754D01*
X10012653Y-12501754D02*
X10022177Y-12520802D01*
X10022177Y-12520802D02*
X10022177Y-12625564D01*
X10412653Y-12416040D02*
X10241225Y-12673183D01*
X10669796Y-12425564D02*
X10688844Y-12425564D01*
X10688844Y-12425564D02*
X10707892Y-12435088D01*
X10707892Y-12435088D02*
X10717415Y-12444611D01*
X10717415Y-12444611D02*
X10726939Y-12463659D01*
X10726939Y-12463659D02*
X10736463Y-12501754D01*
X10736463Y-12501754D02*
X10736463Y-12549373D01*
X10736463Y-12549373D02*
X10726939Y-12587469D01*
X10726939Y-12587469D02*
X10717415Y-12606516D01*
X10717415Y-12606516D02*
X10707892Y-12616040D01*
X10707892Y-12616040D02*
X10688844Y-12625564D01*
X10688844Y-12625564D02*
X10669796Y-12625564D01*
X10669796Y-12625564D02*
X10650749Y-12616040D01*
X10650749Y-12616040D02*
X10641225Y-12606516D01*
X10641225Y-12606516D02*
X10631701Y-12587469D01*
X10631701Y-12587469D02*
X10622177Y-12549373D01*
X10622177Y-12549373D02*
X10622177Y-12501754D01*
X10622177Y-12501754D02*
X10631701Y-12463659D01*
X10631701Y-12463659D02*
X10641225Y-12444611D01*
X10641225Y-12444611D02*
X10650749Y-12435088D01*
X10650749Y-12435088D02*
X10669796Y-12425564D01*
X10822177Y-12606516D02*
X10831701Y-12616040D01*
X10831701Y-12616040D02*
X10822177Y-12625564D01*
X10822177Y-12625564D02*
X10812653Y-12616040D01*
X10812653Y-12616040D02*
X10822177Y-12606516D01*
X10822177Y-12606516D02*
X10822177Y-12625564D01*
X10955511Y-12425564D02*
X10974558Y-12425564D01*
X10974558Y-12425564D02*
X10993606Y-12435088D01*
X10993606Y-12435088D02*
X11003130Y-12444611D01*
X11003130Y-12444611D02*
X11012653Y-12463659D01*
X11012653Y-12463659D02*
X11022177Y-12501754D01*
X11022177Y-12501754D02*
X11022177Y-12549373D01*
X11022177Y-12549373D02*
X11012653Y-12587469D01*
X11012653Y-12587469D02*
X11003130Y-12606516D01*
X11003130Y-12606516D02*
X10993606Y-12616040D01*
X10993606Y-12616040D02*
X10974558Y-12625564D01*
X10974558Y-12625564D02*
X10955511Y-12625564D01*
X10955511Y-12625564D02*
X10936463Y-12616040D01*
X10936463Y-12616040D02*
X10926939Y-12606516D01*
X10926939Y-12606516D02*
X10917415Y-12587469D01*
X10917415Y-12587469D02*
X10907892Y-12549373D01*
X10907892Y-12549373D02*
X10907892Y-12501754D01*
X10907892Y-12501754D02*
X10917415Y-12463659D01*
X10917415Y-12463659D02*
X10926939Y-12444611D01*
X10926939Y-12444611D02*
X10936463Y-12435088D01*
X10936463Y-12435088D02*
X10955511Y-12425564D01*
X11212653Y-12625564D02*
X11098368Y-12625564D01*
X11155511Y-12625564D02*
X11155511Y-12425564D01*
X11155511Y-12425564D02*
X11136463Y-12454135D01*
X11136463Y-12454135D02*
X11117415Y-12473183D01*
X11117415Y-12473183D02*
X11098368Y-12482707D01*
X11307891Y-12625564D02*
X11345987Y-12625564D01*
X11345987Y-12625564D02*
X11365034Y-12616040D01*
X11365034Y-12616040D02*
X11374558Y-12606516D01*
X11374558Y-12606516D02*
X11393606Y-12577945D01*
X11393606Y-12577945D02*
X11403130Y-12539850D01*
X11403130Y-12539850D02*
X11403130Y-12463659D01*
X11403130Y-12463659D02*
X11393606Y-12444611D01*
X11393606Y-12444611D02*
X11384082Y-12435088D01*
X11384082Y-12435088D02*
X11365034Y-12425564D01*
X11365034Y-12425564D02*
X11326939Y-12425564D01*
X11326939Y-12425564D02*
X11307891Y-12435088D01*
X11307891Y-12435088D02*
X11298368Y-12444611D01*
X11298368Y-12444611D02*
X11288844Y-12463659D01*
X11288844Y-12463659D02*
X11288844Y-12511278D01*
X11288844Y-12511278D02*
X11298368Y-12530326D01*
X11298368Y-12530326D02*
X11307891Y-12539850D01*
X11307891Y-12539850D02*
X11326939Y-12549373D01*
X11326939Y-12549373D02*
X11365034Y-12549373D01*
X11365034Y-12549373D02*
X11384082Y-12539850D01*
X11384082Y-12539850D02*
X11393606Y-12530326D01*
X11393606Y-12530326D02*
X11403130Y-12511278D01*
X11469796Y-12425564D02*
X11603130Y-12425564D01*
X11603130Y-12425564D02*
X11517415Y-12625564D01*
X11669796Y-12425564D02*
X11669796Y-12463659D01*
X11745987Y-12425564D02*
X11745987Y-12463659D01*
X12041225Y-12701754D02*
X12031701Y-12692230D01*
X12031701Y-12692230D02*
X12012653Y-12663659D01*
X12012653Y-12663659D02*
X12003130Y-12644611D01*
X12003130Y-12644611D02*
X11993606Y-12616040D01*
X11993606Y-12616040D02*
X11984082Y-12568421D01*
X11984082Y-12568421D02*
X11984082Y-12530326D01*
X11984082Y-12530326D02*
X11993606Y-12482707D01*
X11993606Y-12482707D02*
X12003130Y-12454135D01*
X12003130Y-12454135D02*
X12012653Y-12435088D01*
X12012653Y-12435088D02*
X12031701Y-12406516D01*
X12031701Y-12406516D02*
X12041225Y-12396992D01*
X12203130Y-12492230D02*
X12203130Y-12625564D01*
X12155511Y-12416040D02*
X12107892Y-12558897D01*
X12107892Y-12558897D02*
X12231701Y-12558897D01*
X12336463Y-12511278D02*
X12317415Y-12501754D01*
X12317415Y-12501754D02*
X12307892Y-12492230D01*
X12307892Y-12492230D02*
X12298368Y-12473183D01*
X12298368Y-12473183D02*
X12298368Y-12463659D01*
X12298368Y-12463659D02*
X12307892Y-12444611D01*
X12307892Y-12444611D02*
X12317415Y-12435088D01*
X12317415Y-12435088D02*
X12336463Y-12425564D01*
X12336463Y-12425564D02*
X12374558Y-12425564D01*
X12374558Y-12425564D02*
X12393606Y-12435088D01*
X12393606Y-12435088D02*
X12403130Y-12444611D01*
X12403130Y-12444611D02*
X12412653Y-12463659D01*
X12412653Y-12463659D02*
X12412653Y-12473183D01*
X12412653Y-12473183D02*
X12403130Y-12492230D01*
X12403130Y-12492230D02*
X12393606Y-12501754D01*
X12393606Y-12501754D02*
X12374558Y-12511278D01*
X12374558Y-12511278D02*
X12336463Y-12511278D01*
X12336463Y-12511278D02*
X12317415Y-12520802D01*
X12317415Y-12520802D02*
X12307892Y-12530326D01*
X12307892Y-12530326D02*
X12298368Y-12549373D01*
X12298368Y-12549373D02*
X12298368Y-12587469D01*
X12298368Y-12587469D02*
X12307892Y-12606516D01*
X12307892Y-12606516D02*
X12317415Y-12616040D01*
X12317415Y-12616040D02*
X12336463Y-12625564D01*
X12336463Y-12625564D02*
X12374558Y-12625564D01*
X12374558Y-12625564D02*
X12393606Y-12616040D01*
X12393606Y-12616040D02*
X12403130Y-12606516D01*
X12403130Y-12606516D02*
X12412653Y-12587469D01*
X12412653Y-12587469D02*
X12412653Y-12549373D01*
X12412653Y-12549373D02*
X12403130Y-12530326D01*
X12403130Y-12530326D02*
X12393606Y-12520802D01*
X12393606Y-12520802D02*
X12374558Y-12511278D01*
X12650749Y-12625564D02*
X12650749Y-12425564D01*
X12736463Y-12625564D02*
X12736463Y-12520802D01*
X12736463Y-12520802D02*
X12726939Y-12501754D01*
X12726939Y-12501754D02*
X12707892Y-12492230D01*
X12707892Y-12492230D02*
X12679320Y-12492230D01*
X12679320Y-12492230D02*
X12660273Y-12501754D01*
X12660273Y-12501754D02*
X12650749Y-12511278D01*
X12860273Y-12625564D02*
X12841225Y-12616040D01*
X12841225Y-12616040D02*
X12831701Y-12606516D01*
X12831701Y-12606516D02*
X12822177Y-12587469D01*
X12822177Y-12587469D02*
X12822177Y-12530326D01*
X12822177Y-12530326D02*
X12831701Y-12511278D01*
X12831701Y-12511278D02*
X12841225Y-12501754D01*
X12841225Y-12501754D02*
X12860273Y-12492230D01*
X12860273Y-12492230D02*
X12888844Y-12492230D01*
X12888844Y-12492230D02*
X12907892Y-12501754D01*
X12907892Y-12501754D02*
X12917415Y-12511278D01*
X12917415Y-12511278D02*
X12926939Y-12530326D01*
X12926939Y-12530326D02*
X12926939Y-12587469D01*
X12926939Y-12587469D02*
X12917415Y-12606516D01*
X12917415Y-12606516D02*
X12907892Y-12616040D01*
X12907892Y-12616040D02*
X12888844Y-12625564D01*
X12888844Y-12625564D02*
X12860273Y-12625564D01*
X13041225Y-12625564D02*
X13022177Y-12616040D01*
X13022177Y-12616040D02*
X13012654Y-12596992D01*
X13012654Y-12596992D02*
X13012654Y-12425564D01*
X13193606Y-12616040D02*
X13174558Y-12625564D01*
X13174558Y-12625564D02*
X13136463Y-12625564D01*
X13136463Y-12625564D02*
X13117415Y-12616040D01*
X13117415Y-12616040D02*
X13107892Y-12596992D01*
X13107892Y-12596992D02*
X13107892Y-12520802D01*
X13107892Y-12520802D02*
X13117415Y-12501754D01*
X13117415Y-12501754D02*
X13136463Y-12492230D01*
X13136463Y-12492230D02*
X13174558Y-12492230D01*
X13174558Y-12492230D02*
X13193606Y-12501754D01*
X13193606Y-12501754D02*
X13203130Y-12520802D01*
X13203130Y-12520802D02*
X13203130Y-12539850D01*
X13203130Y-12539850D02*
X13107892Y-12558897D01*
X13279320Y-12616040D02*
X13298368Y-12625564D01*
X13298368Y-12625564D02*
X13336463Y-12625564D01*
X13336463Y-12625564D02*
X13355511Y-12616040D01*
X13355511Y-12616040D02*
X13365035Y-12596992D01*
X13365035Y-12596992D02*
X13365035Y-12587469D01*
X13365035Y-12587469D02*
X13355511Y-12568421D01*
X13355511Y-12568421D02*
X13336463Y-12558897D01*
X13336463Y-12558897D02*
X13307892Y-12558897D01*
X13307892Y-12558897D02*
X13288844Y-12549373D01*
X13288844Y-12549373D02*
X13279320Y-12530326D01*
X13279320Y-12530326D02*
X13279320Y-12520802D01*
X13279320Y-12520802D02*
X13288844Y-12501754D01*
X13288844Y-12501754D02*
X13307892Y-12492230D01*
X13307892Y-12492230D02*
X13336463Y-12492230D01*
X13336463Y-12492230D02*
X13355511Y-12501754D01*
X13431701Y-12701754D02*
X13441225Y-12692230D01*
X13441225Y-12692230D02*
X13460273Y-12663659D01*
X13460273Y-12663659D02*
X13469796Y-12644611D01*
X13469796Y-12644611D02*
X13479320Y-12616040D01*
X13479320Y-12616040D02*
X13488844Y-12568421D01*
X13488844Y-12568421D02*
X13488844Y-12530326D01*
X13488844Y-12530326D02*
X13479320Y-12482707D01*
X13479320Y-12482707D02*
X13469796Y-12454135D01*
X13469796Y-12454135D02*
X13460273Y-12435088D01*
X13460273Y-12435088D02*
X13441225Y-12406516D01*
X13441225Y-12406516D02*
X13431701Y-12396992D01*
X13793606Y-12701754D02*
X13784082Y-12692230D01*
X13784082Y-12692230D02*
X13765035Y-12663659D01*
X13765035Y-12663659D02*
X13755511Y-12644611D01*
X13755511Y-12644611D02*
X13745987Y-12616040D01*
X13745987Y-12616040D02*
X13736463Y-12568421D01*
X13736463Y-12568421D02*
X13736463Y-12530326D01*
X13736463Y-12530326D02*
X13745987Y-12482707D01*
X13745987Y-12482707D02*
X13755511Y-12454135D01*
X13755511Y-12454135D02*
X13765035Y-12435088D01*
X13765035Y-12435088D02*
X13784082Y-12406516D01*
X13784082Y-12406516D02*
X13793606Y-12396992D01*
X13869796Y-12492230D02*
X13869796Y-12625564D01*
X13869796Y-12511278D02*
X13879320Y-12501754D01*
X13879320Y-12501754D02*
X13898368Y-12492230D01*
X13898368Y-12492230D02*
X13926939Y-12492230D01*
X13926939Y-12492230D02*
X13945987Y-12501754D01*
X13945987Y-12501754D02*
X13955511Y-12520802D01*
X13955511Y-12520802D02*
X13955511Y-12625564D01*
X14079320Y-12625564D02*
X14060273Y-12616040D01*
X14060273Y-12616040D02*
X14050749Y-12606516D01*
X14050749Y-12606516D02*
X14041225Y-12587469D01*
X14041225Y-12587469D02*
X14041225Y-12530326D01*
X14041225Y-12530326D02*
X14050749Y-12511278D01*
X14050749Y-12511278D02*
X14060273Y-12501754D01*
X14060273Y-12501754D02*
X14079320Y-12492230D01*
X14079320Y-12492230D02*
X14107892Y-12492230D01*
X14107892Y-12492230D02*
X14126939Y-12501754D01*
X14126939Y-12501754D02*
X14136463Y-12511278D01*
X14136463Y-12511278D02*
X14145987Y-12530326D01*
X14145987Y-12530326D02*
X14145987Y-12587469D01*
X14145987Y-12587469D02*
X14136463Y-12606516D01*
X14136463Y-12606516D02*
X14126939Y-12616040D01*
X14126939Y-12616040D02*
X14107892Y-12625564D01*
X14107892Y-12625564D02*
X14079320Y-12625564D01*
X14203130Y-12492230D02*
X14279320Y-12492230D01*
X14231701Y-12425564D02*
X14231701Y-12596992D01*
X14231701Y-12596992D02*
X14241225Y-12616040D01*
X14241225Y-12616040D02*
X14260273Y-12625564D01*
X14260273Y-12625564D02*
X14279320Y-12625564D01*
X14498368Y-12492230D02*
X14498368Y-12692230D01*
X14498368Y-12501754D02*
X14517416Y-12492230D01*
X14517416Y-12492230D02*
X14555511Y-12492230D01*
X14555511Y-12492230D02*
X14574558Y-12501754D01*
X14574558Y-12501754D02*
X14584082Y-12511278D01*
X14584082Y-12511278D02*
X14593606Y-12530326D01*
X14593606Y-12530326D02*
X14593606Y-12587469D01*
X14593606Y-12587469D02*
X14584082Y-12606516D01*
X14584082Y-12606516D02*
X14574558Y-12616040D01*
X14574558Y-12616040D02*
X14555511Y-12625564D01*
X14555511Y-12625564D02*
X14517416Y-12625564D01*
X14517416Y-12625564D02*
X14498368Y-12616040D01*
X14707892Y-12625564D02*
X14688844Y-12616040D01*
X14688844Y-12616040D02*
X14679320Y-12596992D01*
X14679320Y-12596992D02*
X14679320Y-12425564D01*
X14869797Y-12625564D02*
X14869797Y-12520802D01*
X14869797Y-12520802D02*
X14860273Y-12501754D01*
X14860273Y-12501754D02*
X14841225Y-12492230D01*
X14841225Y-12492230D02*
X14803130Y-12492230D01*
X14803130Y-12492230D02*
X14784082Y-12501754D01*
X14869797Y-12616040D02*
X14850749Y-12625564D01*
X14850749Y-12625564D02*
X14803130Y-12625564D01*
X14803130Y-12625564D02*
X14784082Y-12616040D01*
X14784082Y-12616040D02*
X14774558Y-12596992D01*
X14774558Y-12596992D02*
X14774558Y-12577945D01*
X14774558Y-12577945D02*
X14784082Y-12558897D01*
X14784082Y-12558897D02*
X14803130Y-12549373D01*
X14803130Y-12549373D02*
X14850749Y-12549373D01*
X14850749Y-12549373D02*
X14869797Y-12539850D01*
X14936463Y-12492230D02*
X15012654Y-12492230D01*
X14965035Y-12425564D02*
X14965035Y-12596992D01*
X14965035Y-12596992D02*
X14974558Y-12616040D01*
X14974558Y-12616040D02*
X14993606Y-12625564D01*
X14993606Y-12625564D02*
X15012654Y-12625564D01*
X15155511Y-12616040D02*
X15136463Y-12625564D01*
X15136463Y-12625564D02*
X15098368Y-12625564D01*
X15098368Y-12625564D02*
X15079320Y-12616040D01*
X15079320Y-12616040D02*
X15069797Y-12596992D01*
X15069797Y-12596992D02*
X15069797Y-12520802D01*
X15069797Y-12520802D02*
X15079320Y-12501754D01*
X15079320Y-12501754D02*
X15098368Y-12492230D01*
X15098368Y-12492230D02*
X15136463Y-12492230D01*
X15136463Y-12492230D02*
X15155511Y-12501754D01*
X15155511Y-12501754D02*
X15165035Y-12520802D01*
X15165035Y-12520802D02*
X15165035Y-12539850D01*
X15165035Y-12539850D02*
X15069797Y-12558897D01*
X15336463Y-12625564D02*
X15336463Y-12425564D01*
X15336463Y-12616040D02*
X15317416Y-12625564D01*
X15317416Y-12625564D02*
X15279320Y-12625564D01*
X15279320Y-12625564D02*
X15260273Y-12616040D01*
X15260273Y-12616040D02*
X15250749Y-12606516D01*
X15250749Y-12606516D02*
X15241225Y-12587469D01*
X15241225Y-12587469D02*
X15241225Y-12530326D01*
X15241225Y-12530326D02*
X15250749Y-12511278D01*
X15250749Y-12511278D02*
X15260273Y-12501754D01*
X15260273Y-12501754D02*
X15279320Y-12492230D01*
X15279320Y-12492230D02*
X15317416Y-12492230D01*
X15317416Y-12492230D02*
X15336463Y-12501754D01*
X15412654Y-12701754D02*
X15422178Y-12692230D01*
X15422178Y-12692230D02*
X15441225Y-12663659D01*
X15441225Y-12663659D02*
X15450749Y-12644611D01*
X15450749Y-12644611D02*
X15460273Y-12616040D01*
X15460273Y-12616040D02*
X15469797Y-12568421D01*
X15469797Y-12568421D02*
X15469797Y-12530326D01*
X15469797Y-12530326D02*
X15460273Y-12482707D01*
X15460273Y-12482707D02*
X15450749Y-12454135D01*
X15450749Y-12454135D02*
X15441225Y-12435088D01*
X15441225Y-12435088D02*
X15422178Y-12406516D01*
X15422178Y-12406516D02*
X15412654Y-12396992D01*
D12*
X8466162Y-12798080D02*
G75*
G02*
X8376162Y-12798080I-45000J0D01*
G01*
X8376162Y-12798080D02*
G75*
G02*
X8466162Y-12798080I45000J0D01*
G01*
D13*
X8765034Y-12689564D02*
X8784082Y-12689564D01*
X8784082Y-12689564D02*
X8803129Y-12699088D01*
X8803129Y-12699088D02*
X8812653Y-12708611D01*
X8812653Y-12708611D02*
X8822177Y-12727659D01*
X8822177Y-12727659D02*
X8831701Y-12765754D01*
X8831701Y-12765754D02*
X8831701Y-12813373D01*
X8831701Y-12813373D02*
X8822177Y-12851469D01*
X8822177Y-12851469D02*
X8812653Y-12870516D01*
X8812653Y-12870516D02*
X8803129Y-12880040D01*
X8803129Y-12880040D02*
X8784082Y-12889564D01*
X8784082Y-12889564D02*
X8765034Y-12889564D01*
X8765034Y-12889564D02*
X8745987Y-12880040D01*
X8745987Y-12880040D02*
X8736463Y-12870516D01*
X8736463Y-12870516D02*
X8726939Y-12851469D01*
X8726939Y-12851469D02*
X8717415Y-12813373D01*
X8717415Y-12813373D02*
X8717415Y-12765754D01*
X8717415Y-12765754D02*
X8726939Y-12727659D01*
X8726939Y-12727659D02*
X8736463Y-12708611D01*
X8736463Y-12708611D02*
X8745987Y-12699088D01*
X8745987Y-12699088D02*
X8765034Y-12689564D01*
X8917415Y-12870516D02*
X8926939Y-12880040D01*
X8926939Y-12880040D02*
X8917415Y-12889564D01*
X8917415Y-12889564D02*
X8907891Y-12880040D01*
X8907891Y-12880040D02*
X8917415Y-12870516D01*
X8917415Y-12870516D02*
X8917415Y-12889564D01*
X9022177Y-12889564D02*
X9060272Y-12889564D01*
X9060272Y-12889564D02*
X9079320Y-12880040D01*
X9079320Y-12880040D02*
X9088844Y-12870516D01*
X9088844Y-12870516D02*
X9107891Y-12841945D01*
X9107891Y-12841945D02*
X9117415Y-12803850D01*
X9117415Y-12803850D02*
X9117415Y-12727659D01*
X9117415Y-12727659D02*
X9107891Y-12708611D01*
X9107891Y-12708611D02*
X9098368Y-12699088D01*
X9098368Y-12699088D02*
X9079320Y-12689564D01*
X9079320Y-12689564D02*
X9041225Y-12689564D01*
X9041225Y-12689564D02*
X9022177Y-12699088D01*
X9022177Y-12699088D02*
X9012653Y-12708611D01*
X9012653Y-12708611D02*
X9003129Y-12727659D01*
X9003129Y-12727659D02*
X9003129Y-12775278D01*
X9003129Y-12775278D02*
X9012653Y-12794326D01*
X9012653Y-12794326D02*
X9022177Y-12803850D01*
X9022177Y-12803850D02*
X9041225Y-12813373D01*
X9041225Y-12813373D02*
X9079320Y-12813373D01*
X9079320Y-12813373D02*
X9098368Y-12803850D01*
X9098368Y-12803850D02*
X9107891Y-12794326D01*
X9107891Y-12794326D02*
X9117415Y-12775278D01*
X9241225Y-12689564D02*
X9260272Y-12689564D01*
X9260272Y-12689564D02*
X9279320Y-12699088D01*
X9279320Y-12699088D02*
X9288844Y-12708611D01*
X9288844Y-12708611D02*
X9298368Y-12727659D01*
X9298368Y-12727659D02*
X9307891Y-12765754D01*
X9307891Y-12765754D02*
X9307891Y-12813373D01*
X9307891Y-12813373D02*
X9298368Y-12851469D01*
X9298368Y-12851469D02*
X9288844Y-12870516D01*
X9288844Y-12870516D02*
X9279320Y-12880040D01*
X9279320Y-12880040D02*
X9260272Y-12889564D01*
X9260272Y-12889564D02*
X9241225Y-12889564D01*
X9241225Y-12889564D02*
X9222177Y-12880040D01*
X9222177Y-12880040D02*
X9212653Y-12870516D01*
X9212653Y-12870516D02*
X9203129Y-12851469D01*
X9203129Y-12851469D02*
X9193606Y-12813373D01*
X9193606Y-12813373D02*
X9193606Y-12765754D01*
X9193606Y-12765754D02*
X9203129Y-12727659D01*
X9203129Y-12727659D02*
X9212653Y-12708611D01*
X9212653Y-12708611D02*
X9222177Y-12699088D01*
X9222177Y-12699088D02*
X9241225Y-12689564D01*
X9431701Y-12689564D02*
X9450749Y-12689564D01*
X9450749Y-12689564D02*
X9469796Y-12699088D01*
X9469796Y-12699088D02*
X9479320Y-12708611D01*
X9479320Y-12708611D02*
X9488844Y-12727659D01*
X9488844Y-12727659D02*
X9498368Y-12765754D01*
X9498368Y-12765754D02*
X9498368Y-12813373D01*
X9498368Y-12813373D02*
X9488844Y-12851469D01*
X9488844Y-12851469D02*
X9479320Y-12870516D01*
X9479320Y-12870516D02*
X9469796Y-12880040D01*
X9469796Y-12880040D02*
X9450749Y-12889564D01*
X9450749Y-12889564D02*
X9431701Y-12889564D01*
X9431701Y-12889564D02*
X9412653Y-12880040D01*
X9412653Y-12880040D02*
X9403129Y-12870516D01*
X9403129Y-12870516D02*
X9393606Y-12851469D01*
X9393606Y-12851469D02*
X9384082Y-12813373D01*
X9384082Y-12813373D02*
X9384082Y-12765754D01*
X9384082Y-12765754D02*
X9393606Y-12727659D01*
X9393606Y-12727659D02*
X9403129Y-12708611D01*
X9403129Y-12708611D02*
X9412653Y-12699088D01*
X9412653Y-12699088D02*
X9431701Y-12689564D01*
X9584082Y-12889564D02*
X9584082Y-12756230D01*
X9584082Y-12775278D02*
X9593606Y-12765754D01*
X9593606Y-12765754D02*
X9612653Y-12756230D01*
X9612653Y-12756230D02*
X9641225Y-12756230D01*
X9641225Y-12756230D02*
X9660272Y-12765754D01*
X9660272Y-12765754D02*
X9669796Y-12784802D01*
X9669796Y-12784802D02*
X9669796Y-12889564D01*
X9669796Y-12784802D02*
X9679320Y-12765754D01*
X9679320Y-12765754D02*
X9698368Y-12756230D01*
X9698368Y-12756230D02*
X9726939Y-12756230D01*
X9726939Y-12756230D02*
X9745987Y-12765754D01*
X9745987Y-12765754D02*
X9755510Y-12784802D01*
X9755510Y-12784802D02*
X9755510Y-12889564D01*
X9850749Y-12889564D02*
X9850749Y-12756230D01*
X9850749Y-12775278D02*
X9860272Y-12765754D01*
X9860272Y-12765754D02*
X9879320Y-12756230D01*
X9879320Y-12756230D02*
X9907891Y-12756230D01*
X9907891Y-12756230D02*
X9926939Y-12765754D01*
X9926939Y-12765754D02*
X9936463Y-12784802D01*
X9936463Y-12784802D02*
X9936463Y-12889564D01*
X9936463Y-12784802D02*
X9945987Y-12765754D01*
X9945987Y-12765754D02*
X9965034Y-12756230D01*
X9965034Y-12756230D02*
X9993606Y-12756230D01*
X9993606Y-12756230D02*
X10012653Y-12765754D01*
X10012653Y-12765754D02*
X10022177Y-12784802D01*
X10022177Y-12784802D02*
X10022177Y-12889564D01*
X10412653Y-12680040D02*
X10241225Y-12937183D01*
X10669796Y-12689564D02*
X10688844Y-12689564D01*
X10688844Y-12689564D02*
X10707892Y-12699088D01*
X10707892Y-12699088D02*
X10717415Y-12708611D01*
X10717415Y-12708611D02*
X10726939Y-12727659D01*
X10726939Y-12727659D02*
X10736463Y-12765754D01*
X10736463Y-12765754D02*
X10736463Y-12813373D01*
X10736463Y-12813373D02*
X10726939Y-12851469D01*
X10726939Y-12851469D02*
X10717415Y-12870516D01*
X10717415Y-12870516D02*
X10707892Y-12880040D01*
X10707892Y-12880040D02*
X10688844Y-12889564D01*
X10688844Y-12889564D02*
X10669796Y-12889564D01*
X10669796Y-12889564D02*
X10650749Y-12880040D01*
X10650749Y-12880040D02*
X10641225Y-12870516D01*
X10641225Y-12870516D02*
X10631701Y-12851469D01*
X10631701Y-12851469D02*
X10622177Y-12813373D01*
X10622177Y-12813373D02*
X10622177Y-12765754D01*
X10622177Y-12765754D02*
X10631701Y-12727659D01*
X10631701Y-12727659D02*
X10641225Y-12708611D01*
X10641225Y-12708611D02*
X10650749Y-12699088D01*
X10650749Y-12699088D02*
X10669796Y-12689564D01*
X10822177Y-12870516D02*
X10831701Y-12880040D01*
X10831701Y-12880040D02*
X10822177Y-12889564D01*
X10822177Y-12889564D02*
X10812653Y-12880040D01*
X10812653Y-12880040D02*
X10822177Y-12870516D01*
X10822177Y-12870516D02*
X10822177Y-12889564D01*
X10955511Y-12689564D02*
X10974558Y-12689564D01*
X10974558Y-12689564D02*
X10993606Y-12699088D01*
X10993606Y-12699088D02*
X11003130Y-12708611D01*
X11003130Y-12708611D02*
X11012653Y-12727659D01*
X11012653Y-12727659D02*
X11022177Y-12765754D01*
X11022177Y-12765754D02*
X11022177Y-12813373D01*
X11022177Y-12813373D02*
X11012653Y-12851469D01*
X11012653Y-12851469D02*
X11003130Y-12870516D01*
X11003130Y-12870516D02*
X10993606Y-12880040D01*
X10993606Y-12880040D02*
X10974558Y-12889564D01*
X10974558Y-12889564D02*
X10955511Y-12889564D01*
X10955511Y-12889564D02*
X10936463Y-12880040D01*
X10936463Y-12880040D02*
X10926939Y-12870516D01*
X10926939Y-12870516D02*
X10917415Y-12851469D01*
X10917415Y-12851469D02*
X10907892Y-12813373D01*
X10907892Y-12813373D02*
X10907892Y-12765754D01*
X10907892Y-12765754D02*
X10917415Y-12727659D01*
X10917415Y-12727659D02*
X10926939Y-12708611D01*
X10926939Y-12708611D02*
X10936463Y-12699088D01*
X10936463Y-12699088D02*
X10955511Y-12689564D01*
X11088844Y-12689564D02*
X11212653Y-12689564D01*
X11212653Y-12689564D02*
X11145987Y-12765754D01*
X11145987Y-12765754D02*
X11174558Y-12765754D01*
X11174558Y-12765754D02*
X11193606Y-12775278D01*
X11193606Y-12775278D02*
X11203130Y-12784802D01*
X11203130Y-12784802D02*
X11212653Y-12803850D01*
X11212653Y-12803850D02*
X11212653Y-12851469D01*
X11212653Y-12851469D02*
X11203130Y-12870516D01*
X11203130Y-12870516D02*
X11193606Y-12880040D01*
X11193606Y-12880040D02*
X11174558Y-12889564D01*
X11174558Y-12889564D02*
X11117415Y-12889564D01*
X11117415Y-12889564D02*
X11098368Y-12880040D01*
X11098368Y-12880040D02*
X11088844Y-12870516D01*
X11393606Y-12689564D02*
X11298368Y-12689564D01*
X11298368Y-12689564D02*
X11288844Y-12784802D01*
X11288844Y-12784802D02*
X11298368Y-12775278D01*
X11298368Y-12775278D02*
X11317415Y-12765754D01*
X11317415Y-12765754D02*
X11365034Y-12765754D01*
X11365034Y-12765754D02*
X11384082Y-12775278D01*
X11384082Y-12775278D02*
X11393606Y-12784802D01*
X11393606Y-12784802D02*
X11403130Y-12803850D01*
X11403130Y-12803850D02*
X11403130Y-12851469D01*
X11403130Y-12851469D02*
X11393606Y-12870516D01*
X11393606Y-12870516D02*
X11384082Y-12880040D01*
X11384082Y-12880040D02*
X11365034Y-12889564D01*
X11365034Y-12889564D02*
X11317415Y-12889564D01*
X11317415Y-12889564D02*
X11298368Y-12880040D01*
X11298368Y-12880040D02*
X11288844Y-12870516D01*
X11574558Y-12756230D02*
X11574558Y-12889564D01*
X11526939Y-12680040D02*
X11479320Y-12822897D01*
X11479320Y-12822897D02*
X11603130Y-12822897D01*
X11669796Y-12689564D02*
X11669796Y-12727659D01*
X11745987Y-12689564D02*
X11745987Y-12727659D01*
X12041225Y-12965754D02*
X12031701Y-12956230D01*
X12031701Y-12956230D02*
X12012653Y-12927659D01*
X12012653Y-12927659D02*
X12003130Y-12908611D01*
X12003130Y-12908611D02*
X11993606Y-12880040D01*
X11993606Y-12880040D02*
X11984082Y-12832421D01*
X11984082Y-12832421D02*
X11984082Y-12794326D01*
X11984082Y-12794326D02*
X11993606Y-12746707D01*
X11993606Y-12746707D02*
X12003130Y-12718135D01*
X12003130Y-12718135D02*
X12012653Y-12699088D01*
X12012653Y-12699088D02*
X12031701Y-12670516D01*
X12031701Y-12670516D02*
X12041225Y-12660992D01*
X12203130Y-12756230D02*
X12203130Y-12889564D01*
X12155511Y-12680040D02*
X12107892Y-12822897D01*
X12107892Y-12822897D02*
X12231701Y-12822897D01*
X12460273Y-12889564D02*
X12460273Y-12689564D01*
X12545987Y-12889564D02*
X12545987Y-12784802D01*
X12545987Y-12784802D02*
X12536463Y-12765754D01*
X12536463Y-12765754D02*
X12517415Y-12756230D01*
X12517415Y-12756230D02*
X12488844Y-12756230D01*
X12488844Y-12756230D02*
X12469796Y-12765754D01*
X12469796Y-12765754D02*
X12460273Y-12775278D01*
X12669796Y-12889564D02*
X12650749Y-12880040D01*
X12650749Y-12880040D02*
X12641225Y-12870516D01*
X12641225Y-12870516D02*
X12631701Y-12851469D01*
X12631701Y-12851469D02*
X12631701Y-12794326D01*
X12631701Y-12794326D02*
X12641225Y-12775278D01*
X12641225Y-12775278D02*
X12650749Y-12765754D01*
X12650749Y-12765754D02*
X12669796Y-12756230D01*
X12669796Y-12756230D02*
X12698368Y-12756230D01*
X12698368Y-12756230D02*
X12717415Y-12765754D01*
X12717415Y-12765754D02*
X12726939Y-12775278D01*
X12726939Y-12775278D02*
X12736463Y-12794326D01*
X12736463Y-12794326D02*
X12736463Y-12851469D01*
X12736463Y-12851469D02*
X12726939Y-12870516D01*
X12726939Y-12870516D02*
X12717415Y-12880040D01*
X12717415Y-12880040D02*
X12698368Y-12889564D01*
X12698368Y-12889564D02*
X12669796Y-12889564D01*
X12850749Y-12889564D02*
X12831701Y-12880040D01*
X12831701Y-12880040D02*
X12822177Y-12860992D01*
X12822177Y-12860992D02*
X12822177Y-12689564D01*
X13003130Y-12880040D02*
X12984082Y-12889564D01*
X12984082Y-12889564D02*
X12945987Y-12889564D01*
X12945987Y-12889564D02*
X12926939Y-12880040D01*
X12926939Y-12880040D02*
X12917415Y-12860992D01*
X12917415Y-12860992D02*
X12917415Y-12784802D01*
X12917415Y-12784802D02*
X12926939Y-12765754D01*
X12926939Y-12765754D02*
X12945987Y-12756230D01*
X12945987Y-12756230D02*
X12984082Y-12756230D01*
X12984082Y-12756230D02*
X13003130Y-12765754D01*
X13003130Y-12765754D02*
X13012654Y-12784802D01*
X13012654Y-12784802D02*
X13012654Y-12803850D01*
X13012654Y-12803850D02*
X12917415Y-12822897D01*
X13088844Y-12880040D02*
X13107892Y-12889564D01*
X13107892Y-12889564D02*
X13145987Y-12889564D01*
X13145987Y-12889564D02*
X13165035Y-12880040D01*
X13165035Y-12880040D02*
X13174558Y-12860992D01*
X13174558Y-12860992D02*
X13174558Y-12851469D01*
X13174558Y-12851469D02*
X13165035Y-12832421D01*
X13165035Y-12832421D02*
X13145987Y-12822897D01*
X13145987Y-12822897D02*
X13117415Y-12822897D01*
X13117415Y-12822897D02*
X13098368Y-12813373D01*
X13098368Y-12813373D02*
X13088844Y-12794326D01*
X13088844Y-12794326D02*
X13088844Y-12784802D01*
X13088844Y-12784802D02*
X13098368Y-12765754D01*
X13098368Y-12765754D02*
X13117415Y-12756230D01*
X13117415Y-12756230D02*
X13145987Y-12756230D01*
X13145987Y-12756230D02*
X13165035Y-12765754D01*
X13241225Y-12965754D02*
X13250749Y-12956230D01*
X13250749Y-12956230D02*
X13269796Y-12927659D01*
X13269796Y-12927659D02*
X13279320Y-12908611D01*
X13279320Y-12908611D02*
X13288844Y-12880040D01*
X13288844Y-12880040D02*
X13298368Y-12832421D01*
X13298368Y-12832421D02*
X13298368Y-12794326D01*
X13298368Y-12794326D02*
X13288844Y-12746707D01*
X13288844Y-12746707D02*
X13279320Y-12718135D01*
X13279320Y-12718135D02*
X13269796Y-12699088D01*
X13269796Y-12699088D02*
X13250749Y-12670516D01*
X13250749Y-12670516D02*
X13241225Y-12660992D01*
X13603130Y-12965754D02*
X13593606Y-12956230D01*
X13593606Y-12956230D02*
X13574558Y-12927659D01*
X13574558Y-12927659D02*
X13565035Y-12908611D01*
X13565035Y-12908611D02*
X13555511Y-12880040D01*
X13555511Y-12880040D02*
X13545987Y-12832421D01*
X13545987Y-12832421D02*
X13545987Y-12794326D01*
X13545987Y-12794326D02*
X13555511Y-12746707D01*
X13555511Y-12746707D02*
X13565035Y-12718135D01*
X13565035Y-12718135D02*
X13574558Y-12699088D01*
X13574558Y-12699088D02*
X13593606Y-12670516D01*
X13593606Y-12670516D02*
X13603130Y-12660992D01*
X13679320Y-12756230D02*
X13679320Y-12889564D01*
X13679320Y-12775278D02*
X13688844Y-12765754D01*
X13688844Y-12765754D02*
X13707892Y-12756230D01*
X13707892Y-12756230D02*
X13736463Y-12756230D01*
X13736463Y-12756230D02*
X13755511Y-12765754D01*
X13755511Y-12765754D02*
X13765035Y-12784802D01*
X13765035Y-12784802D02*
X13765035Y-12889564D01*
X13888844Y-12889564D02*
X13869796Y-12880040D01*
X13869796Y-12880040D02*
X13860273Y-12870516D01*
X13860273Y-12870516D02*
X13850749Y-12851469D01*
X13850749Y-12851469D02*
X13850749Y-12794326D01*
X13850749Y-12794326D02*
X13860273Y-12775278D01*
X13860273Y-12775278D02*
X13869796Y-12765754D01*
X13869796Y-12765754D02*
X13888844Y-12756230D01*
X13888844Y-12756230D02*
X13917416Y-12756230D01*
X13917416Y-12756230D02*
X13936463Y-12765754D01*
X13936463Y-12765754D02*
X13945987Y-12775278D01*
X13945987Y-12775278D02*
X13955511Y-12794326D01*
X13955511Y-12794326D02*
X13955511Y-12851469D01*
X13955511Y-12851469D02*
X13945987Y-12870516D01*
X13945987Y-12870516D02*
X13936463Y-12880040D01*
X13936463Y-12880040D02*
X13917416Y-12889564D01*
X13917416Y-12889564D02*
X13888844Y-12889564D01*
X14012654Y-12756230D02*
X14088844Y-12756230D01*
X14041225Y-12689564D02*
X14041225Y-12860992D01*
X14041225Y-12860992D02*
X14050749Y-12880040D01*
X14050749Y-12880040D02*
X14069796Y-12889564D01*
X14069796Y-12889564D02*
X14088844Y-12889564D01*
X14307892Y-12756230D02*
X14307892Y-12956230D01*
X14307892Y-12765754D02*
X14326939Y-12756230D01*
X14326939Y-12756230D02*
X14365035Y-12756230D01*
X14365035Y-12756230D02*
X14384082Y-12765754D01*
X14384082Y-12765754D02*
X14393606Y-12775278D01*
X14393606Y-12775278D02*
X14403130Y-12794326D01*
X14403130Y-12794326D02*
X14403130Y-12851469D01*
X14403130Y-12851469D02*
X14393606Y-12870516D01*
X14393606Y-12870516D02*
X14384082Y-12880040D01*
X14384082Y-12880040D02*
X14365035Y-12889564D01*
X14365035Y-12889564D02*
X14326939Y-12889564D01*
X14326939Y-12889564D02*
X14307892Y-12880040D01*
X14517416Y-12889564D02*
X14498368Y-12880040D01*
X14498368Y-12880040D02*
X14488844Y-12860992D01*
X14488844Y-12860992D02*
X14488844Y-12689564D01*
X14679320Y-12889564D02*
X14679320Y-12784802D01*
X14679320Y-12784802D02*
X14669797Y-12765754D01*
X14669797Y-12765754D02*
X14650749Y-12756230D01*
X14650749Y-12756230D02*
X14612654Y-12756230D01*
X14612654Y-12756230D02*
X14593606Y-12765754D01*
X14679320Y-12880040D02*
X14660273Y-12889564D01*
X14660273Y-12889564D02*
X14612654Y-12889564D01*
X14612654Y-12889564D02*
X14593606Y-12880040D01*
X14593606Y-12880040D02*
X14584082Y-12860992D01*
X14584082Y-12860992D02*
X14584082Y-12841945D01*
X14584082Y-12841945D02*
X14593606Y-12822897D01*
X14593606Y-12822897D02*
X14612654Y-12813373D01*
X14612654Y-12813373D02*
X14660273Y-12813373D01*
X14660273Y-12813373D02*
X14679320Y-12803850D01*
X14745987Y-12756230D02*
X14822177Y-12756230D01*
X14774558Y-12689564D02*
X14774558Y-12860992D01*
X14774558Y-12860992D02*
X14784082Y-12880040D01*
X14784082Y-12880040D02*
X14803130Y-12889564D01*
X14803130Y-12889564D02*
X14822177Y-12889564D01*
X14965035Y-12880040D02*
X14945987Y-12889564D01*
X14945987Y-12889564D02*
X14907892Y-12889564D01*
X14907892Y-12889564D02*
X14888844Y-12880040D01*
X14888844Y-12880040D02*
X14879320Y-12860992D01*
X14879320Y-12860992D02*
X14879320Y-12784802D01*
X14879320Y-12784802D02*
X14888844Y-12765754D01*
X14888844Y-12765754D02*
X14907892Y-12756230D01*
X14907892Y-12756230D02*
X14945987Y-12756230D01*
X14945987Y-12756230D02*
X14965035Y-12765754D01*
X14965035Y-12765754D02*
X14974558Y-12784802D01*
X14974558Y-12784802D02*
X14974558Y-12803850D01*
X14974558Y-12803850D02*
X14879320Y-12822897D01*
X15145987Y-12889564D02*
X15145987Y-12689564D01*
X15145987Y-12880040D02*
X15126939Y-12889564D01*
X15126939Y-12889564D02*
X15088844Y-12889564D01*
X15088844Y-12889564D02*
X15069797Y-12880040D01*
X15069797Y-12880040D02*
X15060273Y-12870516D01*
X15060273Y-12870516D02*
X15050749Y-12851469D01*
X15050749Y-12851469D02*
X15050749Y-12794326D01*
X15050749Y-12794326D02*
X15060273Y-12775278D01*
X15060273Y-12775278D02*
X15069797Y-12765754D01*
X15069797Y-12765754D02*
X15088844Y-12756230D01*
X15088844Y-12756230D02*
X15126939Y-12756230D01*
X15126939Y-12756230D02*
X15145987Y-12765754D01*
X15222178Y-12965754D02*
X15231701Y-12956230D01*
X15231701Y-12956230D02*
X15250749Y-12927659D01*
X15250749Y-12927659D02*
X15260273Y-12908611D01*
X15260273Y-12908611D02*
X15269797Y-12880040D01*
X15269797Y-12880040D02*
X15279320Y-12832421D01*
X15279320Y-12832421D02*
X15279320Y-12794326D01*
X15279320Y-12794326D02*
X15269797Y-12746707D01*
X15269797Y-12746707D02*
X15260273Y-12718135D01*
X15260273Y-12718135D02*
X15250749Y-12699088D01*
X15250749Y-12699088D02*
X15231701Y-12670516D01*
X15231701Y-12670516D02*
X15222178Y-12660992D01*
M02*
