%TF.GenerationSoftware,KiCad,Pcbnew,8.0.6*%
%TF.CreationDate,2025-07-20T13:06:01+02:00*%
%TF.ProjectId,combined,636f6d62-696e-4656-942e-6b696361645f,v1.0.0*%
%TF.SameCoordinates,Original*%
%TF.FileFunction,Legend,Top*%
%TF.FilePolarity,Positive*%
%FSLAX46Y46*%
G04 Gerber Fmt 4.6, Leading zero omitted, Abs format (unit mm)*
G04 Created by KiCad (PCBNEW 8.0.6) date 2025-07-20 13:06:01*
%MOMM*%
%LPD*%
G01*
G04 APERTURE LIST*
%ADD10C,0.100000*%
%ADD11C,0.150000*%
%ADD12C,0.120000*%
%ADD13C,0.503997*%
%ADD14C,0.503998*%
%ADD15C,0.127000*%
%ADD16C,0.504005*%
%ADD17C,0.503986*%
G04 APERTURE END LIST*
D10*
X238902011Y-61673240D02*
X238140107Y-61673240D01*
X238521059Y-62054193D02*
X238521059Y-61292288D01*
X234402011Y-61673233D02*
X233640107Y-61673233D01*
X198054021Y-61718155D02*
X198815926Y-61718155D01*
X202554020Y-61718155D02*
X203315925Y-61718155D01*
X202934972Y-62099108D02*
X202934972Y-61337203D01*
D11*
X320235210Y-47931986D02*
X320255577Y-47351078D01*
X319778847Y-47588091D02*
X320380662Y-46789456D01*
X320380662Y-46789456D02*
X320684904Y-47018719D01*
X320684904Y-47018719D02*
X320732307Y-47114065D01*
X320732307Y-47114065D02*
X320741679Y-47180753D01*
X320741679Y-47180753D02*
X320722394Y-47285471D01*
X320722394Y-47285471D02*
X320636420Y-47399562D01*
X320636420Y-47399562D02*
X320541074Y-47446965D01*
X320541074Y-47446965D02*
X320474386Y-47456337D01*
X320474386Y-47456337D02*
X320369668Y-47437052D01*
X320369668Y-47437052D02*
X320065426Y-47207789D01*
X320568110Y-48123218D02*
X320653543Y-48247222D01*
X320653543Y-48247222D02*
X320843695Y-48390511D01*
X320843695Y-48390511D02*
X320948413Y-48409797D01*
X320948413Y-48409797D02*
X321015101Y-48400424D01*
X321015101Y-48400424D02*
X321110447Y-48353022D01*
X321110447Y-48353022D02*
X321167763Y-48276961D01*
X321167763Y-48276961D02*
X321187048Y-48172243D01*
X321187048Y-48172243D02*
X321177676Y-48105555D01*
X321177676Y-48105555D02*
X321130273Y-48010209D01*
X321130273Y-48010209D02*
X321006810Y-47857547D01*
X321006810Y-47857547D02*
X320959407Y-47762201D01*
X320959407Y-47762201D02*
X320950035Y-47695513D01*
X320950035Y-47695513D02*
X320969320Y-47590795D01*
X320969320Y-47590795D02*
X321026636Y-47514734D01*
X321026636Y-47514734D02*
X321121982Y-47467331D01*
X321121982Y-47467331D02*
X321188670Y-47457959D01*
X321188670Y-47457959D02*
X321293389Y-47477244D01*
X321293389Y-47477244D02*
X321483540Y-47620534D01*
X321483540Y-47620534D02*
X321568973Y-47744538D01*
X321825812Y-47878455D02*
X322282175Y-48222349D01*
X321452179Y-48849037D02*
X322053994Y-48050402D01*
X161555525Y-34806674D02*
X161617538Y-34626575D01*
X161617538Y-34626575D02*
X161693569Y-34552029D01*
X161693569Y-34552029D02*
X161814625Y-34492986D01*
X161814625Y-34492986D02*
X162010227Y-34509974D01*
X162010227Y-34509974D02*
X162325400Y-34618497D01*
X162325400Y-34618497D02*
X162489995Y-34725535D01*
X162489995Y-34725535D02*
X162549038Y-34846591D01*
X162549038Y-34846591D02*
X162563056Y-34952143D01*
X162563056Y-34952143D02*
X162501043Y-35132242D01*
X162501043Y-35132242D02*
X162425012Y-35206788D01*
X162425012Y-35206788D02*
X162303956Y-35265831D01*
X162303956Y-35265831D02*
X162108354Y-35248843D01*
X162108354Y-35248843D02*
X161793181Y-35140320D01*
X161793181Y-35140320D02*
X161628586Y-35033282D01*
X161628586Y-35033282D02*
X161569543Y-34912227D01*
X161569543Y-34912227D02*
X161555525Y-34806674D01*
X162780102Y-34321798D02*
X161834583Y-33996229D01*
X161834583Y-33996229D02*
X162966141Y-33781501D01*
X162966141Y-33781501D02*
X162020622Y-33455933D01*
X170902184Y-38377530D02*
X170964197Y-38197432D01*
X170964197Y-38197432D02*
X171040228Y-38122886D01*
X171040228Y-38122886D02*
X171161284Y-38063843D01*
X171161284Y-38063843D02*
X171356886Y-38080831D01*
X171356886Y-38080831D02*
X171672059Y-38189354D01*
X171672059Y-38189354D02*
X171836654Y-38296391D01*
X171836654Y-38296391D02*
X171895697Y-38417447D01*
X171895697Y-38417447D02*
X171909716Y-38523000D01*
X171909716Y-38523000D02*
X171847703Y-38703099D01*
X171847703Y-38703099D02*
X171771671Y-38777645D01*
X171771671Y-38777645D02*
X171650616Y-38836688D01*
X171650616Y-38836688D02*
X171455013Y-38819699D01*
X171455013Y-38819699D02*
X171139841Y-38711177D01*
X171139841Y-38711177D02*
X170975245Y-38604139D01*
X170975245Y-38604139D02*
X170916202Y-38483083D01*
X170916202Y-38483083D02*
X170902184Y-38377530D01*
X171740012Y-37406946D02*
X171631489Y-37722118D01*
X172126761Y-37892654D02*
X171181242Y-37567086D01*
X171181242Y-37567086D02*
X171336275Y-37116839D01*
X172019071Y-36596501D02*
X171910548Y-36911674D01*
X172405819Y-37082210D02*
X171460301Y-36756641D01*
X171460301Y-36756641D02*
X171615333Y-36306394D01*
X115987687Y-48590304D02*
X115434897Y-48410606D01*
X115531324Y-48934198D02*
X114929509Y-48135562D01*
X114929509Y-48135562D02*
X115233751Y-47906300D01*
X115233751Y-47906300D02*
X115338470Y-47887014D01*
X115338470Y-47887014D02*
X115405158Y-47896386D01*
X115405158Y-47896386D02*
X115500504Y-47943789D01*
X115500504Y-47943789D02*
X115586477Y-48057880D01*
X115586477Y-48057880D02*
X115605763Y-48162598D01*
X115605763Y-48162598D02*
X115596390Y-48229286D01*
X115596390Y-48229286D02*
X115548988Y-48324632D01*
X115548988Y-48324632D02*
X115244746Y-48553895D01*
X116263272Y-48323010D02*
X116406020Y-48275067D01*
X116406020Y-48275067D02*
X116596172Y-48131778D01*
X116596172Y-48131778D02*
X116643574Y-48036432D01*
X116643574Y-48036432D02*
X116652947Y-47969744D01*
X116652947Y-47969744D02*
X116633661Y-47865025D01*
X116633661Y-47865025D02*
X116576345Y-47788965D01*
X116576345Y-47788965D02*
X116480999Y-47741562D01*
X116480999Y-47741562D02*
X116414311Y-47732190D01*
X116414311Y-47732190D02*
X116309593Y-47751475D01*
X116309593Y-47751475D02*
X116128814Y-47828076D01*
X116128814Y-47828076D02*
X116024096Y-47847362D01*
X116024096Y-47847362D02*
X115957408Y-47837989D01*
X115957408Y-47837989D02*
X115862062Y-47790587D01*
X115862062Y-47790587D02*
X115804746Y-47714526D01*
X115804746Y-47714526D02*
X115785460Y-47609808D01*
X115785460Y-47609808D02*
X115794833Y-47543120D01*
X115794833Y-47543120D02*
X115842235Y-47447774D01*
X115842235Y-47447774D02*
X116032387Y-47304484D01*
X116032387Y-47304484D02*
X116175135Y-47256541D01*
X116374659Y-47046564D02*
X116831022Y-46702669D01*
X117204656Y-47673252D02*
X116602841Y-46874617D01*
X265532095Y-36908780D02*
X265594108Y-37088879D01*
X265594108Y-37088879D02*
X265580090Y-37194431D01*
X265580090Y-37194431D02*
X265521047Y-37315487D01*
X265521047Y-37315487D02*
X265356451Y-37422525D01*
X265356451Y-37422525D02*
X265041279Y-37531048D01*
X265041279Y-37531048D02*
X264845677Y-37548036D01*
X264845677Y-37548036D02*
X264724621Y-37488993D01*
X264724621Y-37488993D02*
X264648589Y-37414447D01*
X264648589Y-37414447D02*
X264586576Y-37234348D01*
X264586576Y-37234348D02*
X264600595Y-37128795D01*
X264600595Y-37128795D02*
X264659638Y-37007740D01*
X264659638Y-37007740D02*
X264824233Y-36900702D01*
X264824233Y-36900702D02*
X265139406Y-36792179D01*
X265139406Y-36792179D02*
X265335008Y-36775191D01*
X265335008Y-36775191D02*
X265456064Y-36834234D01*
X265456064Y-36834234D02*
X265532095Y-36908780D01*
X264865635Y-38044793D02*
X265811153Y-37719224D01*
X265811153Y-37719224D02*
X265051674Y-38585089D01*
X265051674Y-38585089D02*
X265997192Y-38259521D01*
X274878760Y-33337927D02*
X274940773Y-33518026D01*
X274940773Y-33518026D02*
X274926755Y-33623579D01*
X274926755Y-33623579D02*
X274867712Y-33744635D01*
X274867712Y-33744635D02*
X274703117Y-33851672D01*
X274703117Y-33851672D02*
X274387944Y-33960195D01*
X274387944Y-33960195D02*
X274192342Y-33977183D01*
X274192342Y-33977183D02*
X274071286Y-33918140D01*
X274071286Y-33918140D02*
X273995255Y-33843594D01*
X273995255Y-33843594D02*
X273933242Y-33663496D01*
X273933242Y-33663496D02*
X273947260Y-33557943D01*
X273947260Y-33557943D02*
X274006303Y-33436887D01*
X274006303Y-33436887D02*
X274170898Y-33329849D01*
X274170898Y-33329849D02*
X274486071Y-33221327D01*
X274486071Y-33221327D02*
X274681673Y-33204338D01*
X274681673Y-33204338D02*
X274802729Y-33263381D01*
X274802729Y-33263381D02*
X274878760Y-33337927D01*
X274816095Y-34618577D02*
X274707572Y-34303404D01*
X274212300Y-34473940D02*
X275157819Y-34148372D01*
X275157819Y-34148372D02*
X275312851Y-34598619D01*
X275095153Y-35429022D02*
X274986630Y-35113849D01*
X274491359Y-35284385D02*
X275436877Y-34958816D01*
X275436877Y-34958816D02*
X275591910Y-35409063D01*
D12*
%TO.C,REF\u002A\u002A*%
X298587607Y-36403845D02*
G75*
G02*
X295187607Y-36403845I-1700000J0D01*
G01*
X295187607Y-36403845D02*
G75*
G02*
X298587607Y-36403845I1700000J0D01*
G01*
X287581607Y-93686122D02*
G75*
G02*
X284181607Y-93686122I-1700000J0D01*
G01*
X284181607Y-93686122D02*
G75*
G02*
X287581607Y-93686122I1700000J0D01*
G01*
X152803409Y-93687778D02*
G75*
G02*
X149403409Y-93687778I-1700000J0D01*
G01*
X149403409Y-93687778D02*
G75*
G02*
X152803409Y-93687778I1700000J0D01*
G01*
X141829695Y-36388688D02*
G75*
G02*
X138429695Y-36388688I-1700000J0D01*
G01*
X138429695Y-36388688D02*
G75*
G02*
X141829695Y-36388688I1700000J0D01*
G01*
D10*
%TO.C,D16*%
X186457098Y-80904248D02*
X186957097Y-80904247D01*
X186457096Y-80504245D02*
X186457094Y-81304253D01*
X186457094Y-81304253D02*
X185857095Y-80904242D01*
X185857095Y-80904242D02*
X186457096Y-80504245D01*
X185857095Y-80904242D02*
X185857098Y-81454247D01*
X185857095Y-80904242D02*
X185857098Y-80354245D01*
X185457095Y-80904249D02*
X185857095Y-80904242D01*
%TO.C,D1*%
X336699319Y-95144306D02*
X336574175Y-95934465D01*
X336636756Y-95539389D02*
X337130594Y-95617611D01*
X336574175Y-95934465D02*
X336044137Y-95445529D01*
X336044137Y-95445529D02*
X336699319Y-95144306D01*
X336044137Y-95445529D02*
X336130180Y-94902295D01*
X336044137Y-95445529D02*
X335958105Y-95988759D01*
X335649060Y-95382951D02*
X336044137Y-95445529D01*
%TO.C,D18*%
X186457100Y-46904248D02*
X186957099Y-46904247D01*
X186457098Y-46504245D02*
X186457096Y-47304253D01*
X186457096Y-47304253D02*
X185857097Y-46904242D01*
X185857097Y-46904242D02*
X186457098Y-46504245D01*
X185857097Y-46904242D02*
X185857100Y-47454247D01*
X185857097Y-46904242D02*
X185857100Y-46354245D01*
X185457097Y-46904249D02*
X185857097Y-46904242D01*
%TO.C,D7*%
X302963509Y-78773486D02*
X302907699Y-79571548D01*
X302935601Y-79172518D02*
X303434393Y-79207388D01*
X302907699Y-79571548D02*
X302337064Y-79130673D01*
X302337064Y-79130673D02*
X302963509Y-78773486D01*
X302337064Y-79130673D02*
X302375428Y-78582008D01*
X302337064Y-79130673D02*
X302298700Y-79679328D01*
X301938029Y-79102774D02*
X302337064Y-79130673D01*
%TO.C,mouse-bite-1mm-3mm*%
X220049684Y-101104246D02*
G75*
G02*
X220049686Y-100104246I0J500000D01*
G01*
X217049684Y-100104248D02*
G75*
G02*
X217049682Y-101104242I-5J-499997D01*
G01*
%TO.C,D4*%
X319908611Y-92484916D02*
X319783467Y-93275075D01*
X319846048Y-92879999D02*
X320339886Y-92958221D01*
X319783467Y-93275075D02*
X319253429Y-92786139D01*
X319253429Y-92786139D02*
X319908611Y-92484916D01*
X319253429Y-92786139D02*
X319339472Y-92242905D01*
X319253429Y-92786139D02*
X319167397Y-93329369D01*
X318858352Y-92723561D02*
X319253429Y-92786139D01*
D12*
%TO.C,JST1*%
X203760132Y-67136688D02*
X203760133Y-66136687D01*
X203760132Y-59316697D02*
X203760131Y-60316692D01*
X202840138Y-59316687D02*
X203760132Y-59316697D01*
X202840133Y-67136686D02*
X203760132Y-67136688D01*
D10*
X202200136Y-68176689D02*
X201200144Y-68176690D01*
X201700132Y-67676690D02*
X201700137Y-68676699D01*
X199200132Y-68176688D02*
X200200138Y-68176691D01*
D12*
X198640133Y-59316688D02*
X197640137Y-59316691D01*
X198560135Y-67136686D02*
X197640144Y-67136691D01*
X197640144Y-67136691D02*
X197640139Y-66136690D01*
X197640137Y-59316691D02*
X197640139Y-60316684D01*
D10*
%TO.C,D16*%
X251140500Y-80905073D02*
X251640500Y-80905071D01*
X251140499Y-81305073D02*
X250540494Y-80905072D01*
X251140498Y-80505066D02*
X251140499Y-81305073D01*
X250540494Y-80905072D02*
X251140498Y-80505066D01*
X250540494Y-80905072D02*
X250540499Y-81455074D01*
X250540494Y-80905072D02*
X250540492Y-80355072D01*
X250140496Y-80905073D02*
X250540494Y-80905072D01*
%TO.C,D4*%
X117807975Y-93196043D02*
X117152791Y-92894830D01*
X117745403Y-92800963D02*
X118239253Y-92722738D01*
X117682821Y-92405887D02*
X117807975Y-93196043D01*
X117152791Y-92894830D02*
X117682821Y-92405887D01*
X117152791Y-92894830D02*
X117238830Y-93438056D01*
X117152791Y-92894830D02*
X117066750Y-92351591D01*
X116757707Y-92957406D02*
X117152791Y-92894830D01*
%TO.C,mouse-bite-1mm-3mm*%
X220050000Y-43799999D02*
G75*
G02*
X220050001Y-42799999I-1J500000D01*
G01*
X217049998Y-42800001D02*
G75*
G02*
X217049997Y-43799997I0J-499998D01*
G01*
%TO.C,D12*%
X285140508Y-38905062D02*
X285640508Y-38905060D01*
X285140507Y-39305062D02*
X284540502Y-38905061D01*
X285140506Y-38505055D02*
X285140507Y-39305062D01*
X284540502Y-38905061D02*
X285140506Y-38505055D01*
X284540502Y-38905061D02*
X284540507Y-39455063D01*
X284540502Y-38905061D02*
X284540500Y-38355061D01*
X284140504Y-38905062D02*
X284540502Y-38905061D01*
%TO.C,mouse-bite-1mm-3mm*%
X220050000Y-45024999D02*
G75*
G02*
X220050001Y-44024999I0J500000D01*
G01*
X217050000Y-44025001D02*
G75*
G02*
X217049999Y-45025001I0J-500000D01*
G01*
%TO.C,D14*%
X268140499Y-61905062D02*
X268640499Y-61905060D01*
X268140498Y-62305062D02*
X267540493Y-61905061D01*
X268140497Y-61505055D02*
X268140498Y-62305062D01*
X267540493Y-61905061D02*
X268140497Y-61505055D01*
X267540493Y-61905061D02*
X267540498Y-62455063D01*
X267540493Y-61905061D02*
X267540491Y-61355061D01*
X267140495Y-61905062D02*
X267540493Y-61905061D01*
%TO.C,D9*%
X132316953Y-45618669D02*
X131690513Y-45261497D01*
X132289060Y-45219643D02*
X132787842Y-45184761D01*
X132261154Y-44820613D02*
X132316953Y-45618669D01*
X131690513Y-45261497D02*
X132261154Y-44820613D01*
X131690513Y-45261497D02*
X131728883Y-45810154D01*
X131690513Y-45261497D02*
X131652149Y-44712831D01*
X131291486Y-45289401D02*
X131690513Y-45261497D01*
%TO.C,D6*%
X112489202Y-59614643D02*
X111834018Y-59313430D01*
X112426630Y-59219563D02*
X112920480Y-59141338D01*
X112364048Y-58824487D02*
X112489202Y-59614643D01*
X111834018Y-59313430D02*
X112364048Y-58824487D01*
X111834018Y-59313430D02*
X111920057Y-59856656D01*
X111834018Y-59313430D02*
X111747977Y-58770191D01*
X111438934Y-59376006D02*
X111834018Y-59313430D01*
%TO.C,D20*%
X186466018Y-99596163D02*
X186396289Y-100393123D01*
X186431162Y-99994646D02*
X186929255Y-100038222D01*
X186396289Y-100393123D02*
X185833431Y-99942343D01*
X185833431Y-99942343D02*
X186466018Y-99596163D01*
X185833431Y-99942343D02*
X185881380Y-99394430D01*
X185833431Y-99942343D02*
X185785507Y-100490258D01*
X185434963Y-99907482D02*
X185833431Y-99942343D01*
%TO.C,D3*%
X342018088Y-61562898D02*
X341892944Y-62353057D01*
X341955525Y-61957981D02*
X342449363Y-62036203D01*
X341892944Y-62353057D02*
X341362906Y-61864121D01*
X341362906Y-61864121D02*
X342018088Y-61562898D01*
X341362906Y-61864121D02*
X341448949Y-61320887D01*
X341362906Y-61864121D02*
X341276874Y-62407351D01*
X340967829Y-61801543D02*
X341362906Y-61864121D01*
%TO.C,D8*%
X304149366Y-61814902D02*
X304093556Y-62612964D01*
X304121458Y-62213934D02*
X304620250Y-62248804D01*
X304093556Y-62612964D02*
X303522921Y-62172089D01*
X303522921Y-62172089D02*
X304149366Y-61814902D01*
X303522921Y-62172089D02*
X303561285Y-61623424D01*
X303522921Y-62172089D02*
X303484557Y-62720744D01*
X303123886Y-62144190D02*
X303522921Y-62172089D01*
%TO.C,D13*%
X268140506Y-78905062D02*
X268640506Y-78905060D01*
X268140505Y-79305062D02*
X267540500Y-78905061D01*
X268140504Y-78505055D02*
X268140505Y-79305062D01*
X267540500Y-78905061D02*
X268140504Y-78505055D01*
X267540500Y-78905061D02*
X267540505Y-79455063D01*
X267540500Y-78905061D02*
X267540498Y-78355061D01*
X267140502Y-78905062D02*
X267540500Y-78905061D01*
%TO.C,D14*%
X169457098Y-61904243D02*
X169957097Y-61904242D01*
X169457096Y-61504240D02*
X169457094Y-62304248D01*
X169457094Y-62304248D02*
X168857095Y-61904237D01*
X168857095Y-61904237D02*
X169457096Y-61504240D01*
X168857095Y-61904237D02*
X168857098Y-62454242D01*
X168857095Y-61904237D02*
X168857098Y-61354240D01*
X168457095Y-61904244D02*
X168857095Y-61904237D01*
%TO.C,D15*%
X169457096Y-44904244D02*
X169957095Y-44904243D01*
X169457094Y-44504241D02*
X169457092Y-45304249D01*
X169457092Y-45304249D02*
X168857093Y-44904238D01*
X168857093Y-44904238D02*
X169457094Y-44504241D01*
X168857093Y-44904238D02*
X168857096Y-45454243D01*
X168857093Y-44904238D02*
X168857096Y-44354241D01*
X168457093Y-44904245D02*
X168857093Y-44904238D01*
D11*
%TO.C,RST1*%
X324395357Y-48306149D02*
X324244909Y-48505812D01*
X322289009Y-51101370D02*
X322439464Y-50901718D01*
X319603543Y-44695264D02*
X324395357Y-48306149D01*
X319603543Y-44695264D02*
X319453088Y-44894916D01*
X317497195Y-47490485D02*
X322289009Y-51101370D01*
X317497195Y-47490485D02*
X317647643Y-47290822D01*
D10*
%TO.C,D19*%
X269140504Y-98905070D02*
X269640504Y-98905068D01*
X269140503Y-99305070D02*
X268540498Y-98905069D01*
X269140502Y-98505063D02*
X269140503Y-99305070D01*
X268540498Y-98905069D02*
X269140502Y-98505063D01*
X268540498Y-98905069D02*
X268540503Y-99455071D01*
X268540498Y-98905069D02*
X268540496Y-98355069D01*
X268140500Y-98905070D02*
X268540498Y-98905069D01*
%TO.C,D17*%
X251140497Y-63905078D02*
X251640497Y-63905076D01*
X251140496Y-64305078D02*
X250540491Y-63905077D01*
X251140495Y-63505071D02*
X251140496Y-64305078D01*
X250540491Y-63905077D02*
X251140495Y-63505071D01*
X250540491Y-63905077D02*
X250540496Y-64455079D01*
X250540491Y-63905077D02*
X250540489Y-63355077D01*
X250140493Y-63905078D02*
X250540491Y-63905077D01*
%TO.C,D18*%
X251140502Y-46905068D02*
X251640502Y-46905066D01*
X251140501Y-47305068D02*
X250540496Y-46905067D01*
X251140500Y-46505061D02*
X251140501Y-47305068D01*
X250540496Y-46905067D02*
X251140500Y-46505061D01*
X250540496Y-46905067D02*
X250540501Y-47455069D01*
X250540496Y-46905067D02*
X250540494Y-46355067D01*
X250140498Y-46905068D02*
X250540496Y-46905067D01*
%TO.C,D11*%
X285140505Y-55905070D02*
X285640505Y-55905068D01*
X285140504Y-56305070D02*
X284540499Y-55905069D01*
X285140503Y-55505063D02*
X285140504Y-56305070D01*
X284540499Y-55905069D02*
X285140503Y-55505063D01*
X284540499Y-55905069D02*
X284540504Y-56455071D01*
X284540499Y-55905069D02*
X284540497Y-55355069D01*
X284140501Y-55905070D02*
X284540499Y-55905069D01*
D12*
%TO.C,JST1*%
X239360005Y-59315002D02*
X239360002Y-60315003D01*
X239359998Y-67135000D02*
X239360002Y-66135000D01*
X238439999Y-67134999D02*
X239359998Y-67135000D01*
X238439997Y-59315004D02*
X239360005Y-59315002D01*
D10*
X237799994Y-68174999D02*
X236799998Y-68174998D01*
X237299997Y-67675004D02*
X237299997Y-68675004D01*
X234799998Y-68175003D02*
X235800003Y-68175000D01*
D12*
X234240004Y-59314994D02*
X233240003Y-59315007D01*
X234160000Y-67135008D02*
X233240007Y-67135000D01*
X233240007Y-67135000D02*
X233239997Y-66134997D01*
X233240003Y-59315007D02*
X233240006Y-60315001D01*
D10*
%TO.C,D5*%
X322568002Y-75694215D02*
X322442858Y-76484374D01*
X322505439Y-76089298D02*
X322999277Y-76167520D01*
X322442858Y-76484374D02*
X321912820Y-75995438D01*
X321912820Y-75995438D02*
X322568002Y-75694215D01*
X321912820Y-75995438D02*
X321998863Y-75452204D01*
X321912820Y-75995438D02*
X321826788Y-76538668D01*
X321517743Y-75932860D02*
X321912820Y-75995438D01*
%TO.C,D19*%
X168457104Y-98904247D02*
X168957103Y-98904246D01*
X168457102Y-98504244D02*
X168457100Y-99304252D01*
X168457100Y-99304252D02*
X167857101Y-98904241D01*
X167857101Y-98904241D02*
X168457102Y-98504244D01*
X167857101Y-98904241D02*
X167857104Y-99454246D01*
X167857101Y-98904241D02*
X167857104Y-98354244D01*
X167457101Y-98904248D02*
X167857101Y-98904241D01*
%TO.C,D11*%
X152457107Y-55904251D02*
X152957106Y-55904250D01*
X152457105Y-55504248D02*
X152457103Y-56304256D01*
X152457103Y-56304256D02*
X151857104Y-55904245D01*
X151857104Y-55904245D02*
X152457105Y-55504248D01*
X151857104Y-55904245D02*
X151857107Y-56454250D01*
X151857104Y-55904245D02*
X151857107Y-55354248D01*
X151457104Y-55904252D02*
X151857104Y-55904245D01*
%TO.C,D10*%
X152457097Y-72904244D02*
X152957096Y-72904243D01*
X152457095Y-72504241D02*
X152457093Y-73304249D01*
X152457093Y-73304249D02*
X151857094Y-72904238D01*
X151857094Y-72904238D02*
X152457095Y-72504241D01*
X151857094Y-72904238D02*
X151857097Y-73454243D01*
X151857094Y-72904238D02*
X151857097Y-72354241D01*
X151457094Y-72904245D02*
X151857094Y-72904238D01*
%TO.C,D6*%
X325227388Y-58903515D02*
X325102244Y-59693674D01*
X325164825Y-59298598D02*
X325658663Y-59376820D01*
X325102244Y-59693674D02*
X324572206Y-59204738D01*
X324572206Y-59204738D02*
X325227388Y-58903515D01*
X324572206Y-59204738D02*
X324658249Y-58661504D01*
X324572206Y-59204738D02*
X324486174Y-59747968D01*
X324177129Y-59142160D02*
X324572206Y-59204738D01*
%TO.C,D8*%
X133502813Y-62577254D02*
X132876373Y-62220082D01*
X133474920Y-62178228D02*
X133973702Y-62143346D01*
X133447014Y-61779198D02*
X133502813Y-62577254D01*
X132876373Y-62220082D02*
X133447014Y-61779198D01*
X132876373Y-62220082D02*
X132914743Y-62768739D01*
X132876373Y-62220082D02*
X132838009Y-61671416D01*
X132477346Y-62247986D02*
X132876373Y-62220082D01*
%TO.C,REF\u002A\u002A*%
D13*
X198578096Y-39500250D02*
G75*
G02*
X198074100Y-39500250I-251998J0D01*
G01*
X198074100Y-39500250D02*
G75*
G02*
X198578096Y-39500250I251998J0D01*
G01*
D14*
X197304102Y-38783252D02*
G75*
G02*
X196800104Y-38783252I-251999J0D01*
G01*
X196800104Y-38783252D02*
G75*
G02*
X197304102Y-38783252I251999J0D01*
G01*
D10*
X215042090Y-57417250D02*
G75*
G02*
X213137100Y-59322254I-1905012J8D01*
G01*
X213137096Y-38367247D02*
G75*
G02*
X215042102Y-40272249I-59J-1905065D01*
G01*
D15*
X210156088Y-36857256D02*
G75*
G02*
X210656094Y-37357250I-90J-500096D01*
G01*
X201660830Y-37356979D02*
G75*
G02*
X202160825Y-36857250I500015J-286D01*
G01*
D10*
X199167101Y-59322252D02*
G75*
G02*
X197262101Y-57417253I-5J1904995D01*
G01*
X197262098Y-40268245D02*
G75*
G02*
X199167099Y-38363249I1905011J-15D01*
G01*
X215042090Y-57417250D02*
X215042098Y-40272249D01*
X213137096Y-38367247D02*
X199167098Y-38367257D01*
D15*
X210656094Y-37357250D02*
X210656102Y-38367249D01*
X202160825Y-36857251D02*
X210156088Y-36857256D01*
X201657099Y-38367249D02*
X201660830Y-37356979D01*
D10*
X199167101Y-59322252D02*
X213137100Y-59322253D01*
X197262100Y-57417253D02*
X197262098Y-40272259D01*
%TO.C,D3*%
X95698496Y-62274030D02*
X95043312Y-61972817D01*
X95635924Y-61878950D02*
X96129774Y-61800725D01*
X95573342Y-61483874D02*
X95698496Y-62274030D01*
X95043312Y-61972817D02*
X95573342Y-61483874D01*
X95043312Y-61972817D02*
X95129351Y-62516043D01*
X95043312Y-61972817D02*
X94957271Y-61429578D01*
X94648228Y-62035393D02*
X95043312Y-61972817D01*
%TO.C,mouse-bite-1mm-3mm*%
X220050000Y-98574999D02*
G75*
G02*
X220050001Y-97574999I0J500000D01*
G01*
X217050000Y-97575001D02*
G75*
G02*
X217049999Y-98575001I0J-500000D01*
G01*
%TO.C,D5*%
X115148591Y-76405342D02*
X114493407Y-76104129D01*
X115086019Y-76010262D02*
X115579869Y-75932037D01*
X115023437Y-75615186D02*
X115148591Y-76405342D01*
X114493407Y-76104129D02*
X115023437Y-75615186D01*
X114493407Y-76104129D02*
X114579446Y-76647355D01*
X114493407Y-76104129D02*
X114407366Y-75560890D01*
X114098323Y-76166705D02*
X114493407Y-76104129D01*
%TO.C,mouse-bite-1mm-3mm*%
X220050000Y-97349999D02*
G75*
G02*
X220050001Y-96349999I0J500000D01*
G01*
X217050000Y-96350001D02*
G75*
G02*
X217049999Y-97350001I0J-500000D01*
G01*
%TO.C,D10*%
X285140500Y-72905068D02*
X285640500Y-72905066D01*
X285140499Y-73305068D02*
X284540494Y-72905067D01*
X285140498Y-72505061D02*
X285140499Y-73305068D01*
X284540494Y-72905067D02*
X285140498Y-72505061D01*
X284540494Y-72905067D02*
X284540499Y-73455069D01*
X284540494Y-72905067D02*
X284540492Y-72355067D01*
X284140496Y-72905068D02*
X284540494Y-72905067D01*
%TO.C,D21*%
X231906769Y-104827976D02*
X231206147Y-104657308D01*
X231769952Y-104452096D02*
X232239798Y-104281088D01*
X231633150Y-104076222D02*
X231906769Y-104827976D01*
X231206147Y-104657308D02*
X231633150Y-104076222D01*
X231206147Y-104657308D02*
X231394252Y-105174138D01*
X231206147Y-104657308D02*
X231018037Y-104140478D01*
X230830276Y-104794116D02*
X231206147Y-104657308D01*
D12*
%TO.C,PWR1*%
X170158801Y-35607191D02*
X164769345Y-33751449D01*
X170140086Y-37504470D02*
X170397293Y-36757511D01*
X168049033Y-37894967D02*
X166441648Y-37341491D01*
X165212477Y-36918253D02*
X165023371Y-36853137D01*
X163873205Y-34511096D02*
X163616010Y-35258047D01*
D10*
%TO.C,D13*%
X169457099Y-78904250D02*
X169957098Y-78904249D01*
X169457097Y-78504247D02*
X169457095Y-79304255D01*
X169457095Y-79304255D02*
X168857096Y-78904244D01*
X168857096Y-78904244D02*
X169457097Y-78504247D01*
X168857096Y-78904244D02*
X168857099Y-79454249D01*
X168857096Y-78904244D02*
X168857099Y-78354247D01*
X168457096Y-78904251D02*
X168857096Y-78904244D01*
D11*
%TO.C,RST1*%
X119600403Y-47489666D02*
X119449939Y-47290010D01*
X117494050Y-44694448D02*
X117644495Y-44894102D01*
X114808588Y-51100560D02*
X119600403Y-47489666D01*
X114808588Y-51100560D02*
X114658143Y-50900906D01*
X112702235Y-48305342D02*
X117494050Y-44694448D01*
X112702235Y-48305342D02*
X112852699Y-48504998D01*
%TO.C,REF\u002A\u002A*%
D16*
X223261505Y-39501065D02*
G75*
G02*
X222757501Y-39501065I-252002J0D01*
G01*
X222757501Y-39501065D02*
G75*
G02*
X223261505Y-39501065I252002J0D01*
G01*
D17*
X221987496Y-38784059D02*
G75*
G02*
X221483510Y-38784059I-251993J0D01*
G01*
X221483510Y-38784059D02*
G75*
G02*
X221987496Y-38784059I251993J0D01*
G01*
D10*
X239725494Y-57418069D02*
G75*
G02*
X237820498Y-59323059I-1905006J16D01*
G01*
X237820498Y-38368058D02*
G75*
G02*
X239725492Y-40273056I-40J-1905034D01*
G01*
D15*
X234839498Y-36858064D02*
G75*
G02*
X235339497Y-37358060I-100J-500099D01*
G01*
X226344235Y-37357791D02*
G75*
G02*
X226844231Y-36858066I500009J-284D01*
G01*
D10*
X223850498Y-59323064D02*
G75*
G02*
X221945492Y-57418062I2J1905008D01*
G01*
X221945501Y-40269063D02*
G75*
G02*
X223850498Y-38364063I1905010J-10D01*
G01*
X239725494Y-57418069D02*
X239725499Y-40273056D01*
X237820498Y-38368058D02*
X223850501Y-38368064D01*
D15*
X235339498Y-37358060D02*
X235339499Y-38368063D01*
X226844231Y-36858064D02*
X234839498Y-36858064D01*
X226340501Y-38368064D02*
X226344235Y-37357791D01*
D10*
X223850498Y-59323064D02*
X237820498Y-59323064D01*
X221945492Y-57418062D02*
X221945498Y-40273063D01*
%TO.C,D2*%
X98357887Y-79064726D02*
X97702703Y-78763513D01*
X98295315Y-78669646D02*
X98789165Y-78591421D01*
X98232733Y-78274570D02*
X98357887Y-79064726D01*
X97702703Y-78763513D02*
X98232733Y-78274570D01*
X97702703Y-78763513D02*
X97788742Y-79306739D01*
X97702703Y-78763513D02*
X97616662Y-78220274D01*
X97307619Y-78826089D02*
X97702703Y-78763513D01*
%TO.C,D21*%
X205934294Y-104246407D02*
X205660680Y-104998164D01*
X205797487Y-104622278D02*
X206267338Y-104793289D01*
X205660680Y-104998164D02*
X205233681Y-104417072D01*
X205233681Y-104417072D02*
X205934294Y-104246407D01*
X205233681Y-104417072D02*
X205421780Y-103900241D01*
X205233681Y-104417072D02*
X205045562Y-104933898D01*
X204857792Y-104280263D02*
X205233681Y-104417072D01*
%TO.C,D17*%
X186457103Y-63904244D02*
X186957102Y-63904243D01*
X186457101Y-63504241D02*
X186457099Y-64304249D01*
X186457099Y-64304249D02*
X185857100Y-63904238D01*
X185857100Y-63904238D02*
X186457101Y-63504241D01*
X185857100Y-63904238D02*
X185857103Y-64454243D01*
X185857100Y-63904238D02*
X185857103Y-63354241D01*
X185457100Y-63904245D02*
X185857100Y-63904238D01*
D12*
%TO.C,PWR1*%
X273329878Y-35275115D02*
X273072681Y-34528159D01*
X272176549Y-33768522D02*
X266787088Y-35624255D01*
X271922520Y-36870206D02*
X270315137Y-37423675D01*
X269085962Y-37846916D02*
X268896855Y-37912024D01*
X266548591Y-36774581D02*
X266805802Y-37521540D01*
D10*
%TO.C,D7*%
X134688670Y-79535852D02*
X134062230Y-79178680D01*
X134660777Y-79136826D02*
X135159559Y-79101944D01*
X134632871Y-78737796D02*
X134688670Y-79535852D01*
X134062230Y-79178680D02*
X134632871Y-78737796D01*
X134062230Y-79178680D02*
X134100600Y-79727337D01*
X134062230Y-79178680D02*
X134023866Y-78630014D01*
X133663203Y-79206584D02*
X134062230Y-79178680D01*
%TO.C,D1*%
X101017266Y-95855430D02*
X100362082Y-95554217D01*
X100954694Y-95460350D02*
X101448544Y-95382125D01*
X100892112Y-95065274D02*
X101017266Y-95855430D01*
X100362082Y-95554217D02*
X100892112Y-95065274D01*
X100362082Y-95554217D02*
X100448121Y-96097443D01*
X100362082Y-95554217D02*
X100276041Y-95010978D01*
X99966998Y-95616793D02*
X100362082Y-95554217D01*
%TO.C,D9*%
X305335232Y-44856300D02*
X305279422Y-45654362D01*
X305307324Y-45255332D02*
X305806116Y-45290202D01*
X305279422Y-45654362D02*
X304708787Y-45213487D01*
X304708787Y-45213487D02*
X305335232Y-44856300D01*
X304708787Y-45213487D02*
X304747151Y-44664822D01*
X304708787Y-45213487D02*
X304670423Y-45762142D01*
X304309752Y-45185588D02*
X304708787Y-45213487D01*
%TO.C,D15*%
X268140496Y-44905065D02*
X268640496Y-44905063D01*
X268140495Y-45305065D02*
X267540490Y-44905064D01*
X268140494Y-44505058D02*
X268140495Y-45305065D01*
X267540490Y-44905064D02*
X268140494Y-44505058D01*
X267540490Y-44905064D02*
X267540495Y-45455066D01*
X267540490Y-44905064D02*
X267540488Y-44355064D01*
X267140492Y-44905065D02*
X267540490Y-44905064D01*
%TO.C,mouse-bite-1mm-3mm*%
X220050001Y-42549999D02*
G75*
G02*
X220050002Y-41549999I0J500000D01*
G01*
X217050001Y-41550001D02*
G75*
G02*
X217050000Y-42550001I0J-500000D01*
G01*
X220049680Y-41304246D02*
G75*
G02*
X220049682Y-40304246I0J500000D01*
G01*
X217049680Y-40304248D02*
G75*
G02*
X217049678Y-41304242I-5J-499997D01*
G01*
%TO.C,D20*%
X251199414Y-100350357D02*
X250566835Y-100004173D01*
X251164547Y-99951874D02*
X251662645Y-99908296D01*
X251129681Y-99553396D02*
X251199414Y-100350357D01*
X250566835Y-100004173D02*
X251129681Y-99553396D01*
X250566835Y-100004173D02*
X250614768Y-100552086D01*
X250566835Y-100004173D02*
X250518891Y-99456264D01*
X250168351Y-100039038D02*
X250566835Y-100004173D01*
%TO.C,D12*%
X152457104Y-38904252D02*
X152957103Y-38904251D01*
X152457102Y-38504249D02*
X152457100Y-39304257D01*
X152457100Y-39304257D02*
X151857101Y-38904246D01*
X151857101Y-38904246D02*
X152457102Y-38504249D01*
X151857101Y-38904246D02*
X151857104Y-39454251D01*
X151857101Y-38904246D02*
X151857104Y-38354249D01*
X151457101Y-38904253D02*
X151857101Y-38904246D01*
%TO.C,D2*%
X339358705Y-78353602D02*
X339233561Y-79143761D01*
X339296142Y-78748685D02*
X339789980Y-78826907D01*
X339233561Y-79143761D02*
X338703523Y-78654825D01*
X338703523Y-78654825D02*
X339358705Y-78353602D01*
X338703523Y-78654825D02*
X338789566Y-78111591D01*
X338703523Y-78654825D02*
X338617491Y-79198055D01*
X338308446Y-78592247D02*
X338703523Y-78654825D01*
%TO.C,mouse-bite-1mm-3mm*%
X220050001Y-99849999D02*
G75*
G02*
X220050002Y-98849999I-1J500000D01*
G01*
X217049999Y-98850001D02*
G75*
G02*
X217049998Y-99849997I0J-499998D01*
G01*
%TD*%
M02*
