%TF.GenerationSoftware,KiCad,Pcbnew,8.0.6*%
%TF.CreationDate,2025-07-18T21:06:00+02:00*%
%TF.ProjectId,combined,636f6d62-696e-4656-942e-6b696361645f,v1.0.0*%
%TF.SameCoordinates,Original*%
%TF.FileFunction,Soldermask,Bot*%
%TF.FilePolarity,Negative*%
%FSLAX46Y46*%
G04 Gerber Fmt 4.6, Leading zero omitted, Abs format (unit mm)*
G04 Created by KiCad (PCBNEW 8.0.6) date 2025-07-18 21:06:00*
%MOMM*%
%LPD*%
G01*
G04 APERTURE LIST*
G04 Aperture macros list*
%AMRoundRect*
0 Rectangle with rounded corners*
0 $1 Rounding radius*
0 $2 $3 $4 $5 $6 $7 $8 $9 X,Y pos of 4 corners*
0 Add a 4 corners polygon primitive as box body*
4,1,4,$2,$3,$4,$5,$6,$7,$8,$9,$2,$3,0*
0 Add four circle primitives for the rounded corners*
1,1,$1+$1,$2,$3*
1,1,$1+$1,$4,$5*
1,1,$1+$1,$6,$7*
1,1,$1+$1,$8,$9*
0 Add four rect primitives between the rounded corners*
20,1,$1+$1,$2,$3,$4,$5,0*
20,1,$1+$1,$4,$5,$6,$7,0*
20,1,$1+$1,$6,$7,$8,$9,0*
20,1,$1+$1,$8,$9,$2,$3,0*%
G04 Aperture macros list end*
%ADD10RoundRect,0.050000X-0.450000X-0.600000X0.450000X-0.600000X0.450000X0.600000X-0.450000X0.600000X0*%
%ADD11C,1.500000*%
%ADD12RoundRect,0.050000X-0.921893X-0.866452X0.609024X-1.108925X0.921893X0.866452X-0.609024X1.108925X0*%
%ADD13RoundRect,0.050000X-0.386242X-1.204758X1.070282X-0.674627X0.386242X1.204758X-1.070282X0.674627X0*%
%ADD14RoundRect,0.050000X-0.538320X-0.522217X0.350599X-0.663009X0.538320X0.522217X-0.350599X0.663009X0*%
%ADD15RoundRect,0.050000X-0.609024X-1.108925X0.921893X-0.866452X0.609024X1.108925X-0.921893X0.866452X0*%
%ADD16RoundRect,0.050000X-0.775000X-1.000000X0.775000X-1.000000X0.775000X1.000000X-0.775000X1.000000X0*%
%ADD17RoundRect,0.050000X-0.490758X-0.567148X0.407050X-0.629929X0.490758X0.567148X-0.407050X0.629929X0*%
%ADD18C,0.600000*%
%ADD19RoundRect,0.050000X-0.842869X-0.943503X0.703356X-1.051625X0.842869X0.943503X-0.703356X1.051625X0*%
%ADD20RoundRect,0.260000X-0.390000X-0.665000X0.390000X-0.665000X0.390000X0.665000X-0.390000X0.665000X0*%
%ADD21O,1.300000X1.850000*%
%ADD22RoundRect,0.050000X-0.350599X-0.663009X0.538320X-0.522217X0.350599X0.663009X-0.538320X0.522217X0*%
%ADD23RoundRect,0.050000X-0.407050X-0.629929X0.490758X-0.567148X0.407050X0.629929X-0.490758X0.567148X0*%
%ADD24RoundRect,0.050000X-1.070282X-0.674627X0.386242X-1.204758X1.070282X0.674627X-0.386242X1.204758X0*%
%ADD25RoundRect,0.050000X-0.500581X-0.558497X0.395994X-0.636937X0.500581X0.558497X-0.395994X0.636937X0*%
%ADD26RoundRect,0.050000X-0.703356X-1.051625X0.842869X-0.943503X0.703356X1.051625X-0.842869X0.943503X0*%
%ADD27C,1.800000*%
%ADD28C,1.624000*%
%ADD29C,1.600000*%
%ADD30RoundRect,0.050000X-0.859207X-0.928649X0.684895X-1.063740X0.859207X0.928649X-0.684895X1.063740X0*%
%ADD31RoundRect,0.050000X-0.217650X-0.717725X0.628074X-0.409907X0.217650X0.717725X-0.628074X0.409907X0*%
%ADD32C,1.000000*%
%ADD33RoundRect,0.050000X-0.628074X-0.409907X0.217650X-0.717725X0.628074X0.409907X-0.217650X0.717725X0*%
%ADD34RoundRect,0.050000X-0.395994X-0.636937X0.500581X-0.558497X0.395994X0.636937X-0.500581X0.558497X0*%
%ADD35RoundRect,0.050000X-0.684895X-1.063740X0.859207X-0.928649X0.684895X1.063740X-0.859207X0.928649X0*%
G04 APERTURE END LIST*
D10*
%TO.C,D16*%
X184557100Y-80904248D03*
X187857092Y-80904248D03*
%TD*%
D11*
%TO.C,CPG1316*%
X318952368Y-80943246D03*
D12*
X318952368Y-80943246D03*
D11*
X322903118Y-81568983D03*
D12*
X322903118Y-81568983D03*
%TD*%
D11*
%TO.C,CPG1316*%
X333083683Y-100393323D03*
D12*
X333083683Y-100393323D03*
D11*
X337034433Y-101019060D03*
D12*
X337034433Y-101019060D03*
%TD*%
D11*
%TO.C,CPG1316*%
X231015619Y-110420010D03*
D13*
X231015619Y-110420010D03*
D11*
X234774386Y-109051929D03*
D13*
X234774386Y-109051929D03*
%TD*%
D14*
%TO.C,D1*%
X334760141Y-95242160D03*
X338019513Y-95758402D03*
%TD*%
D11*
%TO.C,CPG1316*%
X96416084Y-84383973D03*
D15*
X96416084Y-84383973D03*
D11*
X100366843Y-83758233D03*
D15*
X100366843Y-83758233D03*
%TD*%
D11*
%TO.C,CPG1316*%
X282390500Y-78255065D03*
D16*
X282390500Y-78255065D03*
D11*
X286390501Y-78255067D03*
D16*
X286390501Y-78255067D03*
%TD*%
D11*
%TO.C,CPG1316*%
X166707100Y-67254249D03*
D16*
X166707100Y-67254249D03*
D11*
X170707101Y-67254251D03*
D16*
X170707101Y-67254251D03*
%TD*%
D10*
%TO.C,D18*%
X184557102Y-46904248D03*
X187857094Y-46904248D03*
%TD*%
D17*
%TO.C,D7*%
X301040231Y-79039988D03*
X304332191Y-79270176D03*
%TD*%
D11*
%TO.C,CPG1316*%
X321611750Y-64152530D03*
D12*
X321611750Y-64152530D03*
D11*
X325562500Y-64778267D03*
D12*
X325562500Y-64778267D03*
%TD*%
D11*
%TO.C,CPG1316*%
X165707104Y-104254242D03*
D16*
X165707104Y-104254242D03*
D11*
X169707105Y-104254244D03*
D16*
X169707105Y-104254244D03*
%TD*%
D18*
%TO.C,mouse-bite-1mm-3mm*%
X217839681Y-100904249D03*
X217839687Y-100304245D03*
X218549681Y-100904247D03*
X218549687Y-100304245D03*
X219249682Y-100904243D03*
X219259687Y-100304243D03*
%TD*%
D11*
%TO.C,CPG1316*%
X265390500Y-67255062D03*
D16*
X265390500Y-67255062D03*
D11*
X269390501Y-67255064D03*
D16*
X269390501Y-67255064D03*
%TD*%
D11*
%TO.C,CPG1316*%
X299819104Y-84317655D03*
D19*
X299819104Y-84317655D03*
D11*
X303809358Y-84596681D03*
D19*
X303809358Y-84596681D03*
%TD*%
D14*
%TO.C,D4*%
X317969432Y-92582770D03*
X321228804Y-93099012D03*
%TD*%
D11*
%TO.C,CPG1316*%
X149707100Y-78254247D03*
D16*
X149707100Y-78254247D03*
D11*
X153707101Y-78254249D03*
D16*
X153707101Y-78254249D03*
%TD*%
D20*
%TO.C,JST1*%
X199700142Y-60776690D03*
D21*
X201700132Y-60776690D03*
%TD*%
D10*
%TO.C,D16*%
X249240503Y-80905076D03*
X252540493Y-80905068D03*
%TD*%
D11*
%TO.C,CPG1316*%
X166707105Y-50254250D03*
D16*
X166707105Y-50254250D03*
D11*
X170707106Y-50254252D03*
D16*
X170707106Y-50254252D03*
%TD*%
D22*
%TO.C,D4*%
X115868794Y-93098186D03*
X119128166Y-92581958D03*
%TD*%
D11*
%TO.C,CPG1316*%
X183707097Y-52254234D03*
D16*
X183707097Y-52254234D03*
D11*
X187707098Y-52254236D03*
D16*
X187707098Y-52254236D03*
%TD*%
D18*
%TO.C,mouse-bite-1mm-3mm*%
X217839680Y-44654253D03*
X217839687Y-44054249D03*
X218549680Y-44654251D03*
X218549686Y-44054249D03*
X219249682Y-44654248D03*
X219259686Y-44054247D03*
%TD*%
D10*
%TO.C,D12*%
X283240511Y-38905065D03*
X286540501Y-38905057D03*
%TD*%
%TO.C,D14*%
X266240502Y-61905065D03*
X269540492Y-61905057D03*
%TD*%
D23*
%TO.C,D9*%
X130393691Y-45352177D03*
X133685637Y-45121985D03*
%TD*%
D22*
%TO.C,D6*%
X110550021Y-59516786D03*
X113809393Y-59000558D03*
%TD*%
D11*
%TO.C,CPG1316*%
X201383516Y-108709091D03*
D24*
X201383516Y-108709091D03*
D11*
X205142285Y-110077172D03*
D24*
X205142285Y-110077172D03*
%TD*%
D25*
%TO.C,D20*%
X184538389Y-99829043D03*
X187825829Y-100116661D03*
%TD*%
D14*
%TO.C,D3*%
X340078910Y-61660752D03*
X343338282Y-62176994D03*
%TD*%
D17*
%TO.C,D8*%
X302226089Y-62081403D03*
X305518049Y-62311591D03*
%TD*%
D11*
%TO.C,CPG1316*%
X335743065Y-83602622D03*
D12*
X335743065Y-83602622D03*
D11*
X339693815Y-84228359D03*
D12*
X339693815Y-84228359D03*
%TD*%
D10*
%TO.C,D13*%
X266240509Y-78905065D03*
X269540499Y-78905057D03*
%TD*%
%TO.C,D14*%
X167557099Y-61904243D03*
X170857091Y-61904243D03*
%TD*%
D11*
%TO.C,CPG1316*%
X338402455Y-66811919D03*
D12*
X338402455Y-66811919D03*
D11*
X342353205Y-67437656D03*
D12*
X342353205Y-67437656D03*
%TD*%
D11*
%TO.C,CPG1316*%
X131104814Y-67707034D03*
D26*
X131104814Y-67707034D03*
D11*
X135095073Y-67428003D03*
D26*
X135095073Y-67428003D03*
%TD*%
D10*
%TO.C,D15*%
X167557098Y-44904245D03*
X170857090Y-44904245D03*
%TD*%
D27*
%TO.C,RST1*%
X323541844Y-49854210D03*
X318350706Y-45942424D03*
%TD*%
D11*
%TO.C,CPG1316*%
X99075481Y-101174681D03*
D15*
X99075481Y-101174681D03*
D11*
X103026240Y-100548941D03*
D15*
X103026240Y-100548941D03*
%TD*%
D11*
%TO.C,CPG1316*%
X316292984Y-97733946D03*
D12*
X316292984Y-97733946D03*
D11*
X320243734Y-98359683D03*
D12*
X320243734Y-98359683D03*
%TD*%
D11*
%TO.C,CPG1316*%
X282390508Y-61255069D03*
D16*
X282390508Y-61255069D03*
D11*
X286390509Y-61255071D03*
D16*
X286390509Y-61255071D03*
%TD*%
D11*
%TO.C,CPG1316*%
X266390502Y-104255068D03*
D16*
X266390502Y-104255068D03*
D11*
X270390503Y-104255070D03*
D16*
X270390503Y-104255070D03*
%TD*%
D10*
%TO.C,D19*%
X267240507Y-98905073D03*
X270540497Y-98905065D03*
%TD*%
D11*
%TO.C,CPG1316*%
X248390494Y-52255068D03*
D16*
X248390494Y-52255068D03*
D11*
X252390495Y-52255070D03*
D16*
X252390495Y-52255070D03*
%TD*%
D10*
%TO.C,D17*%
X249240501Y-63905081D03*
X252540491Y-63905073D03*
%TD*%
%TO.C,D18*%
X249240505Y-46905071D03*
X252540495Y-46905063D03*
%TD*%
D11*
%TO.C,CPG1316*%
X132290674Y-84665617D03*
D26*
X132290674Y-84665617D03*
D11*
X136280933Y-84386586D03*
D26*
X136280933Y-84386586D03*
%TD*%
D10*
%TO.C,D11*%
X283240508Y-55905073D03*
X286540498Y-55905065D03*
%TD*%
D20*
%TO.C,JST1*%
X235300001Y-60775006D03*
D21*
X237299999Y-60774994D03*
%TD*%
D11*
%TO.C,CPG1316*%
X183707104Y-69254250D03*
D16*
X183707104Y-69254250D03*
D11*
X187707105Y-69254252D03*
D16*
X187707105Y-69254252D03*
%TD*%
D14*
%TO.C,D5*%
X320628823Y-75792070D03*
X323888195Y-76308312D03*
%TD*%
D10*
%TO.C,D19*%
X166557106Y-98904246D03*
X169857098Y-98904246D03*
%TD*%
%TO.C,D11*%
X150557109Y-55904251D03*
X153857101Y-55904251D03*
%TD*%
D11*
%TO.C,CPG1316*%
X149707095Y-61254241D03*
D16*
X149707095Y-61254241D03*
D11*
X153707096Y-61254243D03*
D16*
X153707096Y-61254243D03*
%TD*%
D10*
%TO.C,D10*%
X150557099Y-72904244D03*
X153857091Y-72904244D03*
%TD*%
D11*
%TO.C,CPG1316*%
X115866179Y-98515292D03*
D15*
X115866179Y-98515292D03*
D11*
X119816938Y-97889552D03*
D15*
X119816938Y-97889552D03*
%TD*%
D14*
%TO.C,D6*%
X323288210Y-59001370D03*
X326547582Y-59517612D03*
%TD*%
D23*
%TO.C,D8*%
X131579551Y-62310761D03*
X134871497Y-62080569D03*
%TD*%
D28*
%TO.C,REF\u002A\u002A*%
X198587097Y-41284256D03*
X198587101Y-43824255D03*
X198587098Y-46364251D03*
X198587102Y-48904251D03*
X198587101Y-51444252D03*
X198587100Y-53984252D03*
X198587102Y-56524253D03*
X213827099Y-56524248D03*
X213827095Y-53984249D03*
X213827098Y-51444253D03*
X213827094Y-48904253D03*
X213827095Y-46364252D03*
X213827096Y-43824252D03*
X213827094Y-41284251D03*
D29*
X201207097Y-48590751D03*
X201207094Y-46685755D03*
D27*
X204882097Y-40335756D03*
X207422098Y-40335750D03*
X204882095Y-42875755D03*
X207422095Y-42875747D03*
%TD*%
D22*
%TO.C,D3*%
X93759315Y-62176173D03*
X97018687Y-61659945D03*
%TD*%
D11*
%TO.C,CPG1316*%
X302190827Y-50400486D03*
D19*
X302190827Y-50400486D03*
D11*
X306181081Y-50679512D03*
D19*
X306181081Y-50679512D03*
%TD*%
D11*
%TO.C,CPG1316*%
X248390499Y-86255059D03*
D16*
X248390499Y-86255059D03*
D11*
X252390500Y-86255061D03*
D16*
X252390500Y-86255061D03*
%TD*%
D11*
%TO.C,CPG1316*%
X166707094Y-84254246D03*
D16*
X166707094Y-84254246D03*
D11*
X170707095Y-84254248D03*
D16*
X170707095Y-84254248D03*
%TD*%
D11*
%TO.C,CPG1316*%
X183225335Y-105084595D03*
D30*
X183225335Y-105084595D03*
D11*
X187210119Y-105433220D03*
D30*
X187210119Y-105433220D03*
%TD*%
D11*
%TO.C,CPG1316*%
X149707100Y-44254251D03*
D16*
X149707100Y-44254251D03*
D11*
X153707101Y-44254253D03*
D16*
X153707101Y-44254253D03*
%TD*%
D22*
%TO.C,D5*%
X113209410Y-76307485D03*
X116468782Y-75791257D03*
%TD*%
D10*
%TO.C,D10*%
X283240504Y-72905071D03*
X286540494Y-72905063D03*
%TD*%
D31*
%TO.C,D21*%
X229984547Y-105101933D03*
X233085527Y-103973271D03*
%TD*%
D11*
%TO.C,CPG1316*%
X301004969Y-67359067D03*
D19*
X301004969Y-67359067D03*
D11*
X304995223Y-67638093D03*
D19*
X304995223Y-67638093D03*
%TD*%
D11*
%TO.C,CPG1316*%
X129918957Y-50748443D03*
D26*
X129918957Y-50748443D03*
D11*
X133909216Y-50469412D03*
D26*
X133909216Y-50469412D03*
%TD*%
D32*
%TO.C,PWR1*%
X165589993Y-35514702D03*
X168426556Y-36491398D03*
%TD*%
D10*
%TO.C,D13*%
X167557102Y-78904250D03*
X170857094Y-78904250D03*
%TD*%
D11*
%TO.C,CPG1316*%
X110547400Y-64933890D03*
D15*
X110547400Y-64933890D03*
D11*
X114498159Y-64308150D03*
D15*
X114498159Y-64308150D03*
%TD*%
D11*
%TO.C,CPG1316*%
X93756707Y-67593270D03*
D15*
X93756707Y-67593270D03*
D11*
X97707466Y-66967530D03*
D15*
X97707466Y-66967530D03*
%TD*%
D27*
%TO.C,RST1*%
X118746889Y-45941608D03*
X113555749Y-49853400D03*
%TD*%
D28*
%TO.C,REF\u002A\u002A*%
X223270503Y-41285060D03*
X223270500Y-43825067D03*
X223270505Y-46365063D03*
X223270499Y-48905066D03*
X223270496Y-51445062D03*
X223270498Y-53985061D03*
X223270496Y-56525059D03*
X238510495Y-56525066D03*
X238510498Y-53985059D03*
X238510493Y-51445063D03*
X238510499Y-48905060D03*
X238510502Y-46365064D03*
X238510500Y-43825065D03*
X238510502Y-41285067D03*
D29*
X225890502Y-48591560D03*
X225890498Y-46686567D03*
D27*
X229565500Y-40336561D03*
X232105505Y-40336566D03*
X229565494Y-42876564D03*
X232105495Y-42876566D03*
%TD*%
D22*
%TO.C,D2*%
X96418706Y-78966870D03*
X99678078Y-78450642D03*
%TD*%
D33*
%TO.C,D21*%
X204012074Y-103972440D03*
X207113056Y-105101112D03*
%TD*%
D10*
%TO.C,D17*%
X184557104Y-63904244D03*
X187857096Y-63904244D03*
%TD*%
D32*
%TO.C,PWR1*%
X271355893Y-35531768D03*
X268519332Y-36508473D03*
%TD*%
D23*
%TO.C,D7*%
X132765408Y-79269360D03*
X136057354Y-79039168D03*
%TD*%
D22*
%TO.C,D1*%
X99078085Y-95757573D03*
X102337457Y-95241345D03*
%TD*%
D17*
%TO.C,D9*%
X303411954Y-45122802D03*
X306703914Y-45352990D03*
%TD*%
D11*
%TO.C,CPG1316*%
X282390498Y-44255066D03*
D16*
X282390498Y-44255066D03*
D11*
X286390499Y-44255068D03*
D16*
X286390499Y-44255068D03*
%TD*%
D11*
%TO.C,CPG1316*%
X265390503Y-50255066D03*
D16*
X265390503Y-50255066D03*
D11*
X269390504Y-50255068D03*
D16*
X269390504Y-50255068D03*
%TD*%
D11*
%TO.C,CPG1316*%
X248390504Y-69255065D03*
D16*
X248390504Y-69255065D03*
D11*
X252390505Y-69255067D03*
D16*
X252390505Y-69255067D03*
%TD*%
D10*
%TO.C,D15*%
X266240499Y-44905069D03*
X269540489Y-44905061D03*
%TD*%
D11*
%TO.C,CPG1316*%
X265390504Y-84255061D03*
D16*
X265390504Y-84255061D03*
D11*
X269390505Y-84255063D03*
D16*
X269390505Y-84255063D03*
%TD*%
D11*
%TO.C,CPG1316*%
X113206784Y-81724585D03*
D15*
X113206784Y-81724585D03*
D11*
X117157543Y-81098845D03*
D15*
X117157543Y-81098845D03*
%TD*%
D18*
%TO.C,mouse-bite-1mm-3mm*%
X217839678Y-41104250D03*
X217839684Y-40504246D03*
X218549678Y-41104248D03*
X218549684Y-40504246D03*
X219249679Y-41104244D03*
X219259684Y-40504244D03*
%TD*%
D34*
%TO.C,D20*%
X249271775Y-100117473D03*
X252559221Y-99829861D03*
%TD*%
D10*
%TO.C,D12*%
X150557106Y-38904253D03*
X153857098Y-38904253D03*
%TD*%
D11*
%TO.C,CPG1316*%
X183707096Y-86254244D03*
D16*
X183707096Y-86254244D03*
D11*
X187707097Y-86254246D03*
D16*
X187707097Y-86254246D03*
%TD*%
D14*
%TO.C,D2*%
X337419527Y-78451456D03*
X340678899Y-78967698D03*
%TD*%
D18*
%TO.C,mouse-bite-1mm-3mm*%
X217839680Y-97304252D03*
X217839687Y-96704248D03*
X218549680Y-97304250D03*
X218549686Y-96704248D03*
X219249682Y-97304247D03*
X219259686Y-96704246D03*
%TD*%
D11*
%TO.C,CPG1316*%
X248891285Y-105521201D03*
D35*
X248891285Y-105521201D03*
D11*
X252876071Y-105172575D03*
D35*
X252876071Y-105172575D03*
%TD*%
M02*
