M48
<<<<<<< Updated upstream
; DRILL file {KiCad 8.0.6} date 2025-07-28T21:33:16+0200
; FORMAT={-:-/ absolute / inch / decimal}
; #@! TF.CreationDate,2025-07-28T21:33:16+02:00
=======
; DRILL file {KiCad 8.0.6} date 2025-07-30T19:46:26+0200
; FORMAT={-:-/ absolute / inch / decimal}
; #@! TF.CreationDate,2025-07-30T19:46:26+02:00
>>>>>>> Stashed changes
; #@! TF.GenerationSoftware,Kicad,Pcbnew,8.0.6
; #@! TF.FileFunction,NonPlated,1,2,NPTH
FMAT,2
INCH
; #@! TA.AperFunction,NonPlated,NPTH,ComponentDrill
T1C0.0197
; #@! TA.AperFunction,NonPlated,NPTH,ComponentDrill
T2C0.0354
%
G90
G05
T1
X8.5764Y-1.6183
X8.5764Y-3.9726
X8.5764Y-1.5947
X8.5764Y-3.949
X8.5764Y-1.7165
X8.5764Y-1.7648
X8.5764Y-1.7411
X8.5764Y-3.8248
X8.5764Y-3.9232
X8.5764Y-1.6929
X8.5764Y-3.873
X8.5764Y-3.8012
X8.5764Y-1.6673
X8.5764Y-3.8494
X8.5764Y-1.6437
X8.5764Y-3.8996
X8.6043Y-1.6183
X8.6043Y-3.9726
X8.6043Y-1.5947
X8.6043Y-3.949
X8.6043Y-1.7165
X8.6043Y-1.7411
X8.6043Y-1.7648
X8.6043Y-3.8012
X8.6043Y-3.8248
X8.6043Y-3.8494
X8.6043Y-3.873
X8.6043Y-3.9232
X8.6043Y-1.6929
X8.6043Y-1.6437
X8.6043Y-1.6673
X8.6043Y-3.8996
X8.6319Y-1.6183
X8.6319Y-3.9726
X8.6319Y-1.7165
X8.6319Y-1.7648
X8.6319Y-3.8248
X8.6319Y-3.873
X8.6319Y-3.9232
X8.6319Y-1.6673
X8.6323Y-1.5947
X8.6323Y-3.949
X8.6323Y-1.7411
X8.6323Y-3.8012
X8.6323Y-3.8494
X8.6323Y-1.6437
X8.6323Y-1.6929
X8.6323Y-3.8996
T2
X6.5193Y-1.3982
X6.631Y-1.4367
X10.5716Y-1.4373
X10.6833Y-1.3989
M30
