M48
; DRILL file {KiCad 8.0.6} date 2025-08-04T21:50:55+0200
; FORMAT={-:-/ absolute / inch / decimal}
; #@! TF.CreationDate,2025-08-04T21:50:55+02:00
; #@! TF.GenerationSoftware,Kicad,Pcbnew,8.0.6
; #@! TF.FileFunction,NonPlated,1,2,NPTH
FMAT,2
INCH
; #@! TA.AperFunction,NonPlated,NPTH,ComponentDrill
T1C0.0350
; #@! TA.AperFunction,NonPlated,NPTH,ComponentDrill
T2C0.0354
; #@! TA.AperFunction,NonPlated,NPTH,ComponentDrill
T3C0.0866
%
G90
G05
T1
X7.842Y-2.0283
X7.842Y-2.0283
X7.842Y-1.9283
X7.842Y-1.9283
X7.842Y-1.7283
X7.842Y-1.7283
X7.842Y-1.8283
X7.842Y-1.8283
X7.842Y-2.1283
X7.842Y-2.1283
X7.842Y-2.2283
X7.842Y-2.2283
X7.842Y-1.6283
X7.842Y-1.6283
X8.442Y-2.2283
X8.442Y-2.2283
X8.442Y-1.6283
X8.442Y-1.6283
X8.442Y-1.7283
X8.442Y-1.7283
X8.442Y-2.0283
X8.442Y-2.0283
X8.442Y-2.1283
X8.442Y-2.1283
X8.442Y-1.9283
X8.442Y-1.9283
X8.442Y-1.8283
X8.442Y-1.8283
T2
X6.5196Y-1.3744
X6.6312Y-1.4129
T3
X5.3583Y-3.7327
X5.5354Y-1.4111
X5.9373Y-3.7275
X8.4316Y-3.8288
M30
