%TF.GenerationSoftware,KiCad,Pcbnew,9.0.3*%
%TF.CreationDate,2025-12-01T13:17:09+01:00*%
%TF.ProjectId,reversible,72657665-7273-4696-926c-652e6b696361,v1.0.0*%
%TF.SameCoordinates,Original*%
%TF.FileFunction,Paste,Top*%
%TF.FilePolarity,Positive*%
%FSLAX46Y46*%
G04 Gerber Fmt 4.6, Leading zero omitted, Abs format (unit mm)*
G04 Created by KiCad (PCBNEW 9.0.3) date 2025-12-01 13:17:09*
%MOMM*%
%LPD*%
G01*
G04 APERTURE LIST*
G04 Aperture macros list*
%AMRotRect*
0 Rectangle, with rotation*
0 The origin of the aperture is its center*
0 $1 length*
0 $2 width*
0 $3 Rotation angle, in degrees counterclockwise*
0 Add horizontal line*
21,1,$1,$2,0,0,$3*%
G04 Aperture macros list end*
%ADD10RotRect,1.550000X2.000000X9.000000*%
%ADD11RotRect,2.000000X2.000000X9.000000*%
%ADD12R,0.900000X1.200000*%
%ADD13RotRect,0.900000X1.200000X355.000000*%
%ADD14RotRect,1.000000X0.800000X160.600000*%
%ADD15RotRect,0.700000X1.500000X160.600000*%
%ADD16RotRect,0.900000X1.200000X4.000000*%
%ADD17RotRect,1.700000X1.700000X37.000000*%
%ADD18R,1.550000X2.000000*%
%ADD19R,2.000000X2.000000*%
%ADD20RotRect,1.550000X2.000000X4.000000*%
%ADD21RotRect,2.000000X2.000000X4.000000*%
%ADD22RotRect,0.900000X1.200000X9.000000*%
%ADD23RotRect,0.900000X1.200000X340.000000*%
%ADD24RotRect,1.550000X2.000000X340.000000*%
%ADD25RotRect,2.000000X2.000000X340.000000*%
%ADD26RotRect,1.550000X2.000000X355.000000*%
%ADD27RotRect,2.000000X2.000000X355.000000*%
G04 APERTURE END LIST*
D10*
%TO.C,CPG1316*%
X117453732Y-98432169D03*
X120416798Y-97962875D03*
D11*
X113187497Y-102499635D03*
X111310285Y-90647376D03*
X125731137Y-100512924D03*
X123853925Y-88660665D03*
%TD*%
D12*
%TO.C,D15*%
X168156960Y-44977558D03*
X171456962Y-44977566D03*
%TD*%
D13*
%TO.C,D20*%
X185138248Y-99902350D03*
X188425694Y-100189964D03*
%TD*%
D14*
%TO.C,PWR1*%
X163203804Y-35233572D03*
X170089334Y-37658346D03*
X163937880Y-33149051D03*
X170823409Y-35573829D03*
D15*
X168552918Y-37806412D03*
X165723247Y-36809933D03*
X164308409Y-36311689D03*
%TD*%
D12*
%TO.C,D12*%
X151156961Y-38977556D03*
X154456963Y-38977564D03*
%TD*%
D16*
%TO.C,D8*%
X132179413Y-62384082D03*
X135471363Y-62153886D03*
%TD*%
D17*
%TO.C,RST1*%
X119346754Y-46014914D03*
X114155618Y-49926708D03*
%TD*%
D18*
%TO.C,CPG1316*%
X168306958Y-84327557D03*
X171306960Y-84327560D03*
D19*
X163456955Y-75677559D03*
X163456961Y-87677553D03*
X176156955Y-75677561D03*
X176156961Y-87677555D03*
%TD*%
D20*
%TO.C,CPG1316*%
X131516375Y-50751994D03*
X134509068Y-50542726D03*
D21*
X126911874Y-54432152D03*
X126074799Y-42461384D03*
X139580933Y-53546244D03*
X138743858Y-41575476D03*
%TD*%
D18*
%TO.C,CPG1316*%
X167306959Y-104327557D03*
X170306961Y-104327560D03*
D19*
X162456956Y-95677559D03*
X162456962Y-107677553D03*
X175156956Y-95677561D03*
X175156962Y-107677555D03*
%TD*%
D22*
%TO.C,D2*%
X97018566Y-79040183D03*
X100277936Y-78523953D03*
%TD*%
D12*
%TO.C,D11*%
X151156961Y-55977553D03*
X154456963Y-55977561D03*
%TD*%
%TO.C,D13*%
X168156962Y-78977552D03*
X171456964Y-78977560D03*
%TD*%
%TO.C,D10*%
X151156958Y-72977555D03*
X154456960Y-72977563D03*
%TD*%
D10*
%TO.C,CPG1316*%
X98003645Y-84300844D03*
X100966711Y-83831550D03*
D11*
X93737410Y-88368310D03*
X91860198Y-76516051D03*
X106281050Y-86381599D03*
X104403838Y-74529340D03*
%TD*%
D22*
%TO.C,D6*%
X111149881Y-59590092D03*
X114409251Y-59073862D03*
%TD*%
D18*
%TO.C,CPG1316*%
X185306963Y-52327560D03*
X188306965Y-52327563D03*
D19*
X180456960Y-43677562D03*
X180456966Y-55677556D03*
X193156960Y-43677564D03*
X193156966Y-55677558D03*
%TD*%
D23*
%TO.C,D21*%
X204611929Y-104045758D03*
X207712915Y-105174422D03*
%TD*%
D12*
%TO.C,D19*%
X167156962Y-98977551D03*
X170456964Y-98977559D03*
%TD*%
D22*
%TO.C,D5*%
X113809270Y-76380798D03*
X117068640Y-75864568D03*
%TD*%
D20*
%TO.C,CPG1316*%
X132702241Y-67710581D03*
X135694934Y-67501313D03*
D21*
X128097740Y-71390739D03*
X127260665Y-59419971D03*
X140766799Y-70504831D03*
X139929724Y-58534063D03*
%TD*%
D12*
%TO.C,D17*%
X185156956Y-63977553D03*
X188456958Y-63977561D03*
%TD*%
D20*
%TO.C,CPG1316*%
X133888098Y-84669172D03*
X136880791Y-84459904D03*
D21*
X129283597Y-88349330D03*
X128446522Y-76378562D03*
X141952656Y-87463422D03*
X141115581Y-75492654D03*
%TD*%
D18*
%TO.C,CPG1316*%
X168306963Y-50327553D03*
X171306965Y-50327556D03*
D19*
X163456960Y-41677555D03*
X163456966Y-53677549D03*
X176156960Y-41677557D03*
X176156966Y-53677551D03*
%TD*%
D18*
%TO.C,CPG1316*%
X151306958Y-61327556D03*
X154306960Y-61327559D03*
D19*
X146456955Y-52677558D03*
X146456961Y-64677552D03*
X159156955Y-52677560D03*
X159156961Y-64677554D03*
%TD*%
D18*
%TO.C,CPG1316*%
X185306961Y-69327558D03*
X188306963Y-69327561D03*
D19*
X180456958Y-60677560D03*
X180456964Y-72677554D03*
X193156958Y-60677562D03*
X193156964Y-72677556D03*
%TD*%
D18*
%TO.C,CPG1316*%
X168306956Y-67327559D03*
X171306958Y-67327562D03*
D19*
X163456953Y-58677561D03*
X163456959Y-70677555D03*
X176156953Y-58677563D03*
X176156959Y-70677557D03*
%TD*%
D16*
%TO.C,D7*%
X133365270Y-79342667D03*
X136657220Y-79112471D03*
%TD*%
D22*
%TO.C,D3*%
X94359179Y-62249477D03*
X97618549Y-61733247D03*
%TD*%
D10*
%TO.C,CPG1316*%
X95344257Y-67510144D03*
X98307323Y-67040850D03*
D11*
X91078022Y-71577610D03*
X89200810Y-59725351D03*
X103621662Y-69590899D03*
X101744450Y-57738640D03*
%TD*%
D22*
%TO.C,D4*%
X116468655Y-93171501D03*
X119728025Y-92655271D03*
%TD*%
D18*
%TO.C,CPG1316*%
X151306964Y-44327561D03*
X154306966Y-44327564D03*
D19*
X146456961Y-35677563D03*
X146456967Y-47677557D03*
X159156961Y-35677565D03*
X159156967Y-47677559D03*
%TD*%
D12*
%TO.C,D16*%
X185156960Y-80977549D03*
X188456962Y-80977557D03*
%TD*%
%TO.C,D14*%
X168156963Y-61977550D03*
X171456965Y-61977558D03*
%TD*%
D22*
%TO.C,D1*%
X99677951Y-95830885D03*
X102937321Y-95314655D03*
%TD*%
D18*
%TO.C,CPG1316*%
X185306961Y-86327555D03*
X188306963Y-86327558D03*
D19*
X180456958Y-77677557D03*
X180456964Y-89677551D03*
X193156958Y-77677559D03*
X193156964Y-89677553D03*
%TD*%
D10*
%TO.C,CPG1316*%
X112134958Y-64850752D03*
X115098024Y-64381458D03*
D11*
X107868723Y-68918218D03*
X105991511Y-57065959D03*
X120412363Y-66931507D03*
X118535151Y-55079248D03*
%TD*%
D24*
%TO.C,CPG1316*%
X202923078Y-109124424D03*
X205742156Y-110150483D03*
D25*
X201324041Y-99337287D03*
X197219799Y-110613603D03*
X213258137Y-103680941D03*
X209153895Y-114957257D03*
%TD*%
D12*
%TO.C,D18*%
X185156963Y-46977553D03*
X188456965Y-46977561D03*
%TD*%
D16*
%TO.C,D9*%
X130993558Y-45425491D03*
X134285508Y-45195295D03*
%TD*%
D18*
%TO.C,CPG1316*%
X151306962Y-78327558D03*
X154306964Y-78327561D03*
D19*
X146456959Y-69677560D03*
X146456965Y-81677554D03*
X159156959Y-69677562D03*
X159156965Y-81677556D03*
%TD*%
D10*
%TO.C,CPG1316*%
X100663033Y-101091549D03*
X103626099Y-100622255D03*
D11*
X96396798Y-105159015D03*
X94519586Y-93306756D03*
X108940438Y-103172304D03*
X107063226Y-91320045D03*
%TD*%
D10*
%TO.C,CPG1316*%
X114794352Y-81641458D03*
X117757418Y-81172164D03*
D11*
X110528117Y-85708924D03*
X108650905Y-73856665D03*
X123071757Y-83722213D03*
X121194545Y-71869954D03*
%TD*%
D26*
%TO.C,CPG1316*%
X184821389Y-105245064D03*
X187809976Y-105506530D03*
D27*
X180743746Y-96205279D03*
X179697878Y-108159615D03*
X193395420Y-97312151D03*
X192349552Y-109266487D03*
%TD*%
M02*
