%TF.GenerationSoftware,KiCad,Pcbnew,9.0.3*%
%TF.CreationDate,2025-08-05T13:08:54+02:00*%
%TF.ProjectId,reversible,72657665-7273-4696-926c-652e6b696361,v1.0.0*%
%TF.SameCoordinates,Original*%
%TF.FileFunction,Legend,Top*%
%TF.FilePolarity,Positive*%
%FSLAX46Y46*%
G04 Gerber Fmt 4.6, Leading zero omitted, Abs format (unit mm)*
G04 Created by KiCad (PCBNEW 9.0.3) date 2025-08-05 13:08:54*
%MOMM*%
%LPD*%
G01*
G04 APERTURE LIST*
%ADD10C,0.150000*%
%ADD11C,0.100000*%
%ADD12C,0.120000*%
%ADD13C,0.127000*%
%ADD14C,0.504002*%
%ADD15C,0.503997*%
G04 APERTURE END LIST*
D10*
X170909013Y-37773403D02*
X170971026Y-37593305D01*
X170971026Y-37593305D02*
X171047057Y-37518759D01*
X171047057Y-37518759D02*
X171168113Y-37459716D01*
X171168113Y-37459716D02*
X171363715Y-37476704D01*
X171363715Y-37476704D02*
X171678888Y-37585227D01*
X171678888Y-37585227D02*
X171843483Y-37692264D01*
X171843483Y-37692264D02*
X171902526Y-37813320D01*
X171902526Y-37813320D02*
X171916545Y-37918873D01*
X171916545Y-37918873D02*
X171854532Y-38098972D01*
X171854532Y-38098972D02*
X171778500Y-38173518D01*
X171778500Y-38173518D02*
X171657445Y-38232561D01*
X171657445Y-38232561D02*
X171461842Y-38215572D01*
X171461842Y-38215572D02*
X171146670Y-38107050D01*
X171146670Y-38107050D02*
X170982074Y-38000012D01*
X170982074Y-38000012D02*
X170923031Y-37878956D01*
X170923031Y-37878956D02*
X170909013Y-37773403D01*
X171746841Y-36802819D02*
X171638318Y-37117991D01*
X172133590Y-37288527D02*
X171188071Y-36962959D01*
X171188071Y-36962959D02*
X171343104Y-36512712D01*
X172025900Y-35992374D02*
X171917377Y-36307547D01*
X172412648Y-36478083D02*
X171467130Y-36152514D01*
X171467130Y-36152514D02*
X171622162Y-35702267D01*
X161562350Y-34202545D02*
X161624363Y-34022446D01*
X161624363Y-34022446D02*
X161700394Y-33947900D01*
X161700394Y-33947900D02*
X161821450Y-33888857D01*
X161821450Y-33888857D02*
X162017052Y-33905845D01*
X162017052Y-33905845D02*
X162332225Y-34014368D01*
X162332225Y-34014368D02*
X162496820Y-34121406D01*
X162496820Y-34121406D02*
X162555863Y-34242462D01*
X162555863Y-34242462D02*
X162569881Y-34348014D01*
X162569881Y-34348014D02*
X162507868Y-34528113D01*
X162507868Y-34528113D02*
X162431837Y-34602659D01*
X162431837Y-34602659D02*
X162310781Y-34661702D01*
X162310781Y-34661702D02*
X162115179Y-34644714D01*
X162115179Y-34644714D02*
X161800006Y-34536191D01*
X161800006Y-34536191D02*
X161635411Y-34429153D01*
X161635411Y-34429153D02*
X161576368Y-34308098D01*
X161576368Y-34308098D02*
X161562350Y-34202545D01*
X162786927Y-33717669D02*
X161841408Y-33392100D01*
X161841408Y-33392100D02*
X162972966Y-33177372D01*
X162972966Y-33177372D02*
X162027447Y-32851804D01*
X116587555Y-48663609D02*
X116034765Y-48483911D01*
X116131192Y-49007503D02*
X115529377Y-48208867D01*
X115529377Y-48208867D02*
X115833619Y-47979605D01*
X115833619Y-47979605D02*
X115938338Y-47960319D01*
X115938338Y-47960319D02*
X116005026Y-47969691D01*
X116005026Y-47969691D02*
X116100372Y-48017094D01*
X116100372Y-48017094D02*
X116186345Y-48131185D01*
X116186345Y-48131185D02*
X116205631Y-48235903D01*
X116205631Y-48235903D02*
X116196258Y-48302591D01*
X116196258Y-48302591D02*
X116148856Y-48397937D01*
X116148856Y-48397937D02*
X115844614Y-48627200D01*
X116863140Y-48396315D02*
X117005888Y-48348372D01*
X117005888Y-48348372D02*
X117196040Y-48205083D01*
X117196040Y-48205083D02*
X117243442Y-48109737D01*
X117243442Y-48109737D02*
X117252815Y-48043049D01*
X117252815Y-48043049D02*
X117233529Y-47938330D01*
X117233529Y-47938330D02*
X117176213Y-47862270D01*
X117176213Y-47862270D02*
X117080867Y-47814867D01*
X117080867Y-47814867D02*
X117014179Y-47805495D01*
X117014179Y-47805495D02*
X116909461Y-47824780D01*
X116909461Y-47824780D02*
X116728682Y-47901381D01*
X116728682Y-47901381D02*
X116623964Y-47920667D01*
X116623964Y-47920667D02*
X116557276Y-47911294D01*
X116557276Y-47911294D02*
X116461930Y-47863892D01*
X116461930Y-47863892D02*
X116404614Y-47787831D01*
X116404614Y-47787831D02*
X116385328Y-47683113D01*
X116385328Y-47683113D02*
X116394701Y-47616425D01*
X116394701Y-47616425D02*
X116442103Y-47521079D01*
X116442103Y-47521079D02*
X116632255Y-47377789D01*
X116632255Y-47377789D02*
X116775003Y-47329846D01*
X116974527Y-47119869D02*
X117430890Y-46775974D01*
X117804524Y-47746557D02*
X117202709Y-46947922D01*
D11*
%TO.C,D15*%
X169056961Y-44977557D02*
X169456963Y-44977560D01*
X169456963Y-44977560D02*
X169456964Y-44427560D01*
X169456963Y-44977560D02*
X169456966Y-45527563D01*
X169456963Y-44977560D02*
X170056959Y-44577556D01*
X170056955Y-45377564D02*
X169456963Y-44977560D01*
X170056959Y-44577556D02*
X170056955Y-45377564D01*
X170056964Y-44977562D02*
X170556959Y-44977563D01*
%TO.C,D20*%
X186034825Y-99980793D02*
X186433301Y-100015652D01*
X186433301Y-100015652D02*
X186385367Y-100563558D01*
X186433301Y-100015652D02*
X186481241Y-99467749D01*
X186433301Y-100015652D02*
X187065884Y-99669465D01*
X186996159Y-100466428D02*
X186433301Y-100015652D01*
X187031023Y-100067951D02*
X187529117Y-100111523D01*
X187065884Y-99669465D02*
X186996159Y-100466428D01*
D12*
%TO.C,PWR1*%
X163880041Y-33906968D02*
X163622835Y-34653919D01*
X165219301Y-36314132D02*
X165030202Y-36249020D01*
X168055855Y-37290833D02*
X166448477Y-36737368D01*
X170146913Y-36900342D02*
X170404115Y-36153379D01*
X170165624Y-35003060D02*
X164776173Y-33147322D01*
D11*
%TO.C,D12*%
X152056965Y-38977558D02*
X152456967Y-38977561D01*
X152456967Y-38977561D02*
X152456968Y-38427561D01*
X152456967Y-38977561D02*
X152456970Y-39527564D01*
X152456967Y-38977561D02*
X153056963Y-38577557D01*
X153056959Y-39377565D02*
X152456967Y-38977561D01*
X153056963Y-38577557D02*
X153056959Y-39377565D01*
X153056968Y-38977563D02*
X153556963Y-38977564D01*
%TO.C,D8*%
X133077210Y-62321300D02*
X133476241Y-62293401D01*
X133476241Y-62293401D02*
X133437871Y-61744742D01*
X133476241Y-62293401D02*
X133514607Y-62842064D01*
X133476241Y-62293401D02*
X134046869Y-61852521D01*
X134046869Y-61852521D02*
X134102683Y-62650572D01*
X134074779Y-62251542D02*
X134573566Y-62216670D01*
X134102683Y-62650572D02*
X133476241Y-62293401D01*
D10*
%TO.C,RST1*%
X113302107Y-48378645D02*
X113452559Y-48578301D01*
X113302107Y-48378645D02*
X118093918Y-44767748D01*
X115408456Y-51173870D02*
X115258005Y-50974211D01*
X115408456Y-51173870D02*
X120200267Y-47562973D01*
X118093918Y-44767748D02*
X118244369Y-44967407D01*
X120200267Y-47562973D02*
X120049815Y-47363317D01*
D11*
%TO.C,D2*%
X97907487Y-78899390D02*
X98302562Y-78836822D01*
X98302562Y-78836822D02*
X98216514Y-78293595D01*
X98302562Y-78836822D02*
X98388600Y-79380048D01*
X98302562Y-78836822D02*
X98832602Y-78347880D01*
X98832602Y-78347880D02*
X98957746Y-79138037D01*
X98895169Y-78742957D02*
X99389015Y-78664746D01*
X98957746Y-79138037D02*
X98302562Y-78836822D01*
%TO.C,D11*%
X152056964Y-55977557D02*
X152456966Y-55977560D01*
X152456966Y-55977560D02*
X152456967Y-55427560D01*
X152456966Y-55977560D02*
X152456969Y-56527563D01*
X152456966Y-55977560D02*
X153056962Y-55577556D01*
X153056958Y-56377564D02*
X152456966Y-55977560D01*
X153056962Y-55577556D02*
X153056958Y-56377564D01*
X153056967Y-55977562D02*
X153556962Y-55977563D01*
%TO.C,D13*%
X169056965Y-78977554D02*
X169456967Y-78977557D01*
X169456967Y-78977557D02*
X169456968Y-78427557D01*
X169456967Y-78977557D02*
X169456970Y-79527560D01*
X169456967Y-78977557D02*
X170056963Y-78577553D01*
X170056959Y-79377561D02*
X169456967Y-78977557D01*
X170056963Y-78577553D02*
X170056959Y-79377561D01*
X170056968Y-78977559D02*
X170556963Y-78977560D01*
%TO.C,D10*%
X152056961Y-72977557D02*
X152456963Y-72977560D01*
X152456963Y-72977560D02*
X152456964Y-72427560D01*
X152456963Y-72977560D02*
X152456966Y-73527563D01*
X152456963Y-72977560D02*
X153056959Y-72577556D01*
X153056955Y-73377564D02*
X152456963Y-72977560D01*
X153056959Y-72577556D02*
X153056955Y-73377564D01*
X153056964Y-72977562D02*
X153556959Y-72977563D01*
%TO.C,D6*%
X112038803Y-59449298D02*
X112433878Y-59386730D01*
X112433878Y-59386730D02*
X112347830Y-58843503D01*
X112433878Y-59386730D02*
X112519916Y-59929956D01*
X112433878Y-59386730D02*
X112963918Y-58897788D01*
X112963918Y-58897788D02*
X113089062Y-59687945D01*
X113026485Y-59292865D02*
X113520331Y-59214654D01*
X113089062Y-59687945D02*
X112433878Y-59386730D01*
%TO.C,D21*%
X205457652Y-104353575D02*
X205833540Y-104490384D01*
X205833540Y-104490384D02*
X205645419Y-105007220D01*
X205833540Y-104490384D02*
X206021644Y-103973552D01*
X205833540Y-104490384D02*
X206534156Y-104319719D01*
X206260539Y-105071470D02*
X205833540Y-104490384D01*
X206397347Y-104695596D02*
X206867196Y-104866607D01*
X206534156Y-104319719D02*
X206260539Y-105071470D01*
%TO.C,D19*%
X168056962Y-98977552D02*
X168456964Y-98977555D01*
X168456964Y-98977555D02*
X168456965Y-98427555D01*
X168456964Y-98977555D02*
X168456967Y-99527558D01*
X168456964Y-98977555D02*
X169056960Y-98577551D01*
X169056956Y-99377559D02*
X168456964Y-98977555D01*
X169056960Y-98577551D02*
X169056956Y-99377559D01*
X169056965Y-98977557D02*
X169556960Y-98977558D01*
%TO.C,D5*%
X114698190Y-76240007D02*
X115093265Y-76177439D01*
X115093265Y-76177439D02*
X115007217Y-75634212D01*
X115093265Y-76177439D02*
X115179303Y-76720665D01*
X115093265Y-76177439D02*
X115623305Y-75688497D01*
X115623305Y-75688497D02*
X115748449Y-76478654D01*
X115685872Y-76083574D02*
X116179718Y-76005363D01*
X115748449Y-76478654D02*
X115093265Y-76177439D01*
%TO.C,D17*%
X186056959Y-63977554D02*
X186456961Y-63977557D01*
X186456961Y-63977557D02*
X186456962Y-63427557D01*
X186456961Y-63977557D02*
X186456964Y-64527560D01*
X186456961Y-63977557D02*
X187056957Y-63577553D01*
X187056953Y-64377561D02*
X186456961Y-63977557D01*
X187056957Y-63577553D02*
X187056953Y-64377561D01*
X187056962Y-63977559D02*
X187556957Y-63977560D01*
%TO.C,D7*%
X134263067Y-79279883D02*
X134662098Y-79251984D01*
X134662098Y-79251984D02*
X134623728Y-78703325D01*
X134662098Y-79251984D02*
X134700464Y-79800647D01*
X134662098Y-79251984D02*
X135232726Y-78811104D01*
X135232726Y-78811104D02*
X135288540Y-79609155D01*
X135260636Y-79210125D02*
X135759423Y-79175253D01*
X135288540Y-79609155D02*
X134662098Y-79251984D01*
%TO.C,D3*%
X95248099Y-62108684D02*
X95643174Y-62046116D01*
X95643174Y-62046116D02*
X95557126Y-61502889D01*
X95643174Y-62046116D02*
X95729212Y-62589342D01*
X95643174Y-62046116D02*
X96173214Y-61557174D01*
X96173214Y-61557174D02*
X96298358Y-62347331D01*
X96235781Y-61952251D02*
X96729627Y-61874040D01*
X96298358Y-62347331D02*
X95643174Y-62046116D01*
%TO.C,D4*%
X117357575Y-93030706D02*
X117752650Y-92968138D01*
X117752650Y-92968138D02*
X117666602Y-92424911D01*
X117752650Y-92968138D02*
X117838688Y-93511364D01*
X117752650Y-92968138D02*
X118282690Y-92479196D01*
X118282690Y-92479196D02*
X118407834Y-93269353D01*
X118345257Y-92874273D02*
X118839103Y-92796062D01*
X118407834Y-93269353D02*
X117752650Y-92968138D01*
%TO.C,D16*%
X186056963Y-80977550D02*
X186456965Y-80977553D01*
X186456965Y-80977553D02*
X186456966Y-80427553D01*
X186456965Y-80977553D02*
X186456968Y-81527556D01*
X186456965Y-80977553D02*
X187056961Y-80577549D01*
X187056957Y-81377557D02*
X186456965Y-80977553D01*
X187056961Y-80577549D02*
X187056957Y-81377557D01*
X187056966Y-80977555D02*
X187556961Y-80977556D01*
%TO.C,D14*%
X169056964Y-61977551D02*
X169456966Y-61977554D01*
X169456966Y-61977554D02*
X169456967Y-61427554D01*
X169456966Y-61977554D02*
X169456969Y-62527557D01*
X169456966Y-61977554D02*
X170056962Y-61577550D01*
X170056958Y-62377558D02*
X169456966Y-61977554D01*
X170056962Y-61577550D02*
X170056958Y-62377558D01*
X170056967Y-61977556D02*
X170556962Y-61977557D01*
%TO.C,D1*%
X100566873Y-95690093D02*
X100961948Y-95627525D01*
X100961948Y-95627525D02*
X100875900Y-95084298D01*
X100961948Y-95627525D02*
X101047986Y-96170751D01*
X100961948Y-95627525D02*
X101491988Y-95138583D01*
X101491988Y-95138583D02*
X101617132Y-95928740D01*
X101554555Y-95533660D02*
X102048401Y-95455449D01*
X101617132Y-95928740D02*
X100961948Y-95627525D01*
%TO.C,D18*%
X186056962Y-46977555D02*
X186456964Y-46977558D01*
X186456964Y-46977558D02*
X186456965Y-46427558D01*
X186456964Y-46977558D02*
X186456967Y-47527561D01*
X186456964Y-46977558D02*
X187056960Y-46577554D01*
X187056956Y-47377562D02*
X186456964Y-46977558D01*
X187056960Y-46577554D02*
X187056956Y-47377562D01*
X187056965Y-46977560D02*
X187556960Y-46977561D01*
%TO.C,D9*%
X131891354Y-45362709D02*
X132290385Y-45334810D01*
X132290385Y-45334810D02*
X132252015Y-44786151D01*
X132290385Y-45334810D02*
X132328751Y-45883473D01*
X132290385Y-45334810D02*
X132861013Y-44893930D01*
X132861013Y-44893930D02*
X132916827Y-45691981D01*
X132888923Y-45292951D02*
X133387710Y-45258079D01*
X132916827Y-45691981D02*
X132290385Y-45334810D01*
%TO.C,JST1*%
X198029996Y-60770001D02*
X199030001Y-60769999D01*
X203129998Y-60269997D02*
X203129998Y-61269996D01*
X203629998Y-60770004D02*
X202630003Y-60770001D01*
%TO.C,REF\u002A\u002A*%
X197861956Y-57490559D02*
X197861960Y-40345566D01*
X199766959Y-59395562D02*
X213736957Y-59395559D01*
D13*
X202256964Y-38440562D02*
X202260690Y-37430292D01*
X202760685Y-36930558D02*
X210755962Y-36930557D01*
X211255962Y-37430555D02*
X211255966Y-38440562D01*
D11*
X213736961Y-38440560D02*
X199766961Y-38440556D01*
X215641956Y-57490558D02*
X215641964Y-40345559D01*
X197861959Y-40341563D02*
G75*
G02*
X199766961Y-38436565I1904998J0D01*
G01*
X199766959Y-59395562D02*
G75*
G02*
X197861956Y-57490559I-2J1905001D01*
G01*
D13*
X202260690Y-37430292D02*
G75*
G02*
X202760685Y-36930558I500010J-276D01*
G01*
X210755962Y-36930557D02*
G75*
G02*
X211255962Y-37430555I-102J-500102D01*
G01*
D11*
X213736961Y-38440560D02*
G75*
G02*
X215641969Y-40345559I-31J-1905039D01*
G01*
X215641956Y-57490558D02*
G75*
G02*
X213736957Y-59395555I-1904996J-1D01*
G01*
D14*
X197903961Y-38856559D02*
G75*
G02*
X197399959Y-38856559I-252001J0D01*
G01*
X197399959Y-38856559D02*
G75*
G02*
X197903961Y-38856559I252001J0D01*
G01*
D15*
X199177960Y-39573555D02*
G75*
G02*
X198673964Y-39573555I-251998J0D01*
G01*
X198673964Y-39573555D02*
G75*
G02*
X199177960Y-39573555I251998J0D01*
G01*
%TD*%
M02*
