%TF.GenerationSoftware,KiCad,Pcbnew,9.0.3*%
%TF.CreationDate,2025-09-20T00:38:34+02:00*%
%TF.ProjectId,reversible,72657665-7273-4696-926c-652e6b696361,v1.0.0*%
%TF.SameCoordinates,Original*%
%TF.FileFunction,Legend,Top*%
%TF.FilePolarity,Positive*%
%FSLAX46Y46*%
G04 Gerber Fmt 4.6, Leading zero omitted, Abs format (unit mm)*
G04 Created by KiCad (PCBNEW 9.0.3) date 2025-09-20 00:38:34*
%MOMM*%
%LPD*%
G01*
G04 APERTURE LIST*
%ADD10C,0.300000*%
%ADD11C,0.150000*%
%ADD12C,0.106680*%
%ADD13C,0.100000*%
%ADD14C,0.120000*%
%ADD15C,0.127000*%
%ADD16C,0.504001*%
%ADD17C,0.504000*%
G04 APERTURE END LIST*
D10*
G36*
X143561307Y-99946908D02*
G01*
X143480459Y-99886284D01*
X143416497Y-99821468D01*
X143367437Y-99752205D01*
X143331179Y-99675929D01*
X143310902Y-99598793D01*
X143305797Y-99519530D01*
X143315941Y-99440717D01*
X143341872Y-99361926D01*
X143385068Y-99281931D01*
X143533623Y-99053176D01*
X143589909Y-98980081D01*
X143651534Y-98924137D01*
X143718987Y-98883273D01*
X143793077Y-98856188D01*
X143871611Y-98843602D01*
X143956069Y-98845791D01*
X144039298Y-98862438D01*
X144124526Y-98894507D01*
X144212793Y-98943708D01*
X144304249Y-99012689D01*
X144373362Y-99084643D01*
X144423269Y-99159918D01*
X144456073Y-99239409D01*
X144472230Y-99324103D01*
X144469734Y-99408209D01*
X144448330Y-99493643D01*
X144406115Y-99582211D01*
X144149170Y-99415349D01*
X144166008Y-99371251D01*
X144169477Y-99328325D01*
X144160097Y-99284841D01*
X144139716Y-99244533D01*
X144108381Y-99207247D01*
X144064189Y-99172539D01*
X144009630Y-99144273D01*
X143961064Y-99132371D01*
X143916456Y-99134154D01*
X143874580Y-99149032D01*
X143835272Y-99178119D01*
X143797635Y-99224628D01*
X143649081Y-99453382D01*
X143622573Y-99505512D01*
X143612045Y-99553057D01*
X143615256Y-99597961D01*
X143631522Y-99639968D01*
X143661978Y-99679765D01*
X143709862Y-99718154D01*
X143759542Y-99744537D01*
X143806175Y-99758270D01*
X143850916Y-99760939D01*
X143894024Y-99752187D01*
X143932034Y-99731350D01*
X143966295Y-99696952D01*
X144223240Y-99863814D01*
X144159471Y-99938444D01*
X144090111Y-99992769D01*
X144014283Y-100029269D01*
X143930345Y-100048960D01*
X143844411Y-100051291D01*
X143755362Y-100036294D01*
X143661525Y-100002408D01*
X143561307Y-99946908D01*
G37*
G36*
X144200768Y-100337170D02*
G01*
X145035129Y-99052367D01*
X145299141Y-99223818D01*
X145093419Y-99540602D01*
X144971399Y-99709158D01*
X145028055Y-99667347D01*
X145088683Y-99641037D01*
X145154696Y-99629212D01*
X145221808Y-99632361D01*
X145288582Y-99650955D01*
X145356488Y-99686432D01*
X145420897Y-99737491D01*
X145468240Y-99794745D01*
X145500579Y-99858998D01*
X145518629Y-99931844D01*
X145521532Y-100006672D01*
X145509335Y-100083622D01*
X145480822Y-100164131D01*
X145433743Y-100249560D01*
X145027986Y-100874371D01*
X144763974Y-100702920D01*
X145152571Y-100104533D01*
X145179454Y-100052422D01*
X145190770Y-100005471D01*
X145188908Y-99961804D01*
X145174674Y-99920640D01*
X145147794Y-99883342D01*
X145105873Y-99849017D01*
X145057411Y-99824647D01*
X145012353Y-99815228D01*
X144968910Y-99818936D01*
X144928309Y-99835018D01*
X144890044Y-99864468D01*
X144853377Y-99910235D01*
X144464780Y-100508621D01*
X144200768Y-100337170D01*
G37*
G36*
X146046665Y-100204455D02*
G01*
X146129283Y-100220645D01*
X146217782Y-100254260D01*
X146313676Y-100308037D01*
X146406252Y-100377125D01*
X146475179Y-100446909D01*
X146524114Y-100517719D01*
X146555702Y-100590365D01*
X146571181Y-100668190D01*
X146568127Y-100745479D01*
X146546175Y-100824286D01*
X146503061Y-100906525D01*
X146080194Y-101557683D01*
X145825016Y-101391969D01*
X145933613Y-101224743D01*
X145880693Y-101266493D01*
X145821257Y-101291441D01*
X145753160Y-101300310D01*
X145683916Y-101293029D01*
X145610739Y-101269334D01*
X145531989Y-101226684D01*
X145464227Y-101174533D01*
X145413994Y-101118830D01*
X145378859Y-101059151D01*
X145357432Y-100994505D01*
X145349975Y-100928331D01*
X145668134Y-100928331D01*
X145673455Y-100968317D01*
X145689671Y-101005544D01*
X145718357Y-101041266D01*
X145762374Y-101076080D01*
X145819368Y-101105894D01*
X145871444Y-101119729D01*
X145920334Y-101119905D01*
X145966917Y-101106959D01*
X146005997Y-101081800D01*
X146039064Y-101043024D01*
X146103065Y-100944470D01*
X145918249Y-100824449D01*
X145869756Y-100799063D01*
X145826827Y-100787885D01*
X145787719Y-100788499D01*
X145750569Y-100799919D01*
X145719086Y-100820971D01*
X145692210Y-100852831D01*
X145674245Y-100890343D01*
X145668134Y-100928331D01*
X145349975Y-100928331D01*
X145349771Y-100926520D01*
X145356375Y-100859105D01*
X145377695Y-100790865D01*
X145415332Y-100720530D01*
X145468385Y-100653892D01*
X145527580Y-100605799D01*
X145593801Y-100573899D01*
X145668811Y-100557402D01*
X145745133Y-100557092D01*
X145827207Y-100572910D01*
X145916854Y-100607018D01*
X146015886Y-100662665D01*
X146205926Y-100786078D01*
X146245933Y-100724473D01*
X146263938Y-100687033D01*
X146269473Y-100650934D01*
X146263485Y-100614539D01*
X146247164Y-100580786D01*
X146218790Y-100547278D01*
X146175333Y-100513499D01*
X146108226Y-100480160D01*
X146051631Y-100470735D01*
X146016242Y-100476463D01*
X145985555Y-100492544D01*
X145958255Y-100520179D01*
X145708300Y-100357856D01*
X145762427Y-100294962D01*
X145823004Y-100249370D01*
X145891045Y-100219174D01*
X145968367Y-100203922D01*
X146046665Y-100204455D01*
G37*
G36*
X146891281Y-102084409D02*
G01*
X146827618Y-102035902D01*
X146777622Y-101982791D01*
X146739750Y-101924737D01*
X146713042Y-101860921D01*
X146699027Y-101794982D01*
X146697469Y-101725820D01*
X146708454Y-101657382D01*
X146732525Y-101588527D01*
X146770955Y-101518319D01*
X147228142Y-100814312D01*
X146920192Y-100614327D01*
X147074483Y-100376739D01*
X147646446Y-100748176D01*
X147040654Y-101681014D01*
X147017653Y-101733030D01*
X147015964Y-101782599D01*
X147033844Y-101827656D01*
X147071997Y-101863982D01*
X147344766Y-102041120D01*
X147190474Y-102278708D01*
X146891281Y-102084409D01*
G37*
G36*
X147376827Y-102399727D02*
G01*
X148211188Y-101114923D01*
X148475200Y-101286375D01*
X148031731Y-101969258D01*
X148165465Y-102056106D01*
X148605619Y-101821452D01*
X148895979Y-102010013D01*
X148319258Y-102308656D01*
X148272640Y-102981475D01*
X147976980Y-102789471D01*
X148019683Y-102276723D01*
X147887715Y-102191022D01*
X147640839Y-102571178D01*
X147376827Y-102399727D01*
G37*
G36*
X149495125Y-101963855D02*
G01*
X149598873Y-102001524D01*
X149707747Y-102061791D01*
X149799652Y-102130772D01*
X149870503Y-102203167D01*
X149923080Y-102279278D01*
X149961238Y-102363169D01*
X149981749Y-102447524D01*
X149985516Y-102533767D01*
X149973237Y-102619441D01*
X149945069Y-102703494D01*
X149899854Y-102787092D01*
X149591271Y-103262268D01*
X149539692Y-103328917D01*
X149484297Y-103378003D01*
X149424607Y-103411955D01*
X149359543Y-103432094D01*
X149291717Y-103438157D01*
X149222552Y-103429750D01*
X149150588Y-103405922D01*
X149074452Y-103364573D01*
X149007530Y-103313036D01*
X148958084Y-103258063D01*
X148923666Y-103199227D01*
X148902879Y-103135533D01*
X148900236Y-103110066D01*
X149129538Y-103110066D01*
X149137317Y-103144245D01*
X149154764Y-103172924D01*
X149183049Y-103197347D01*
X149218001Y-103213889D01*
X149251522Y-103218226D01*
X149285318Y-103211231D01*
X149332348Y-103182202D01*
X149380107Y-103125136D01*
X149494392Y-102949154D01*
X149527099Y-102882313D01*
X149534489Y-102827542D01*
X149527133Y-102793822D01*
X149509537Y-102764964D01*
X149480209Y-102739762D01*
X149446392Y-102723856D01*
X149413097Y-102719582D01*
X149378709Y-102726377D01*
X149331057Y-102755100D01*
X149283151Y-102811973D01*
X149168867Y-102987955D01*
X149136396Y-103054852D01*
X149129538Y-103110066D01*
X148900236Y-103110066D01*
X148895963Y-103068892D01*
X148903474Y-103001143D01*
X148926286Y-102930811D01*
X148966460Y-102856511D01*
X149080744Y-102680528D01*
X149145001Y-102598266D01*
X149211147Y-102542492D01*
X149280030Y-102508526D01*
X149354101Y-102494717D01*
X149425108Y-102504098D01*
X149496370Y-102537626D01*
X149558725Y-102589795D01*
X149595122Y-102645549D01*
X149610266Y-102707428D01*
X149602228Y-102771496D01*
X149607529Y-102774938D01*
X149688690Y-102649960D01*
X149727930Y-102571316D01*
X149742080Y-102498846D01*
X149734302Y-102429381D01*
X149706170Y-102364626D01*
X149655110Y-102301414D01*
X149575436Y-102238626D01*
X149505902Y-102201625D01*
X149439501Y-102181650D01*
X149374796Y-102176806D01*
X149310245Y-102186540D01*
X149249709Y-102209790D01*
X149191129Y-102247787D01*
X149133697Y-102302756D01*
X149077074Y-102377927D01*
X148689625Y-102974547D01*
X148645772Y-103054733D01*
X148620838Y-103128528D01*
X148612148Y-103197559D01*
X148618288Y-103263495D01*
X148638898Y-103326403D01*
X148674457Y-103386029D01*
X148726950Y-103443361D01*
X148799539Y-103498819D01*
X148993189Y-103624577D01*
X148867481Y-103818150D01*
X148673831Y-103692393D01*
X148571076Y-103615053D01*
X148491757Y-103533373D01*
X148432834Y-103446990D01*
X148390792Y-103351856D01*
X148368548Y-103254061D01*
X148365540Y-103151888D01*
X148381770Y-103050625D01*
X148418576Y-102946333D01*
X148478461Y-102837416D01*
X148865911Y-102240796D01*
X148940859Y-102141455D01*
X149020316Y-102064845D01*
X149104654Y-102008033D01*
X149197626Y-101967986D01*
X149293802Y-101947523D01*
X149394971Y-101946258D01*
X149495125Y-101963855D01*
G37*
G36*
X149727665Y-103926379D02*
G01*
X150034220Y-102749195D01*
X150306989Y-102926334D01*
X150122802Y-103579927D01*
X150085542Y-103700870D01*
X150038286Y-103810298D01*
X150118035Y-103721971D01*
X150209608Y-103638811D01*
X150729393Y-103200646D01*
X151005696Y-103380079D01*
X150058506Y-104141229D01*
X149727665Y-103926379D01*
G37*
G36*
X151386393Y-103930941D02*
G01*
X151441999Y-103956209D01*
X151488961Y-103997680D01*
X151512862Y-104043510D01*
X151516939Y-104076714D01*
X151510180Y-104111842D01*
X151490855Y-104150551D01*
X151463331Y-104184072D01*
X151433572Y-104205225D01*
X151400822Y-104216036D01*
X151348251Y-104214040D01*
X151291149Y-104188497D01*
X151245842Y-104147670D01*
X151222151Y-104100005D01*
X151218253Y-104065302D01*
X151225212Y-104029338D01*
X151244510Y-103990572D01*
X151272051Y-103957301D01*
X151301657Y-103937005D01*
X151334191Y-103927480D01*
X151386393Y-103930941D01*
G37*
G36*
X151537925Y-103319125D02*
G01*
X151619984Y-103335088D01*
X151704599Y-103366725D01*
X151792883Y-103415894D01*
X151874830Y-103477331D01*
X151938351Y-103541947D01*
X151985832Y-103609999D01*
X152020427Y-103685038D01*
X152039539Y-103761422D01*
X152043811Y-103840407D01*
X152033223Y-103918858D01*
X152007030Y-103997451D01*
X151963745Y-104077380D01*
X151609468Y-104622918D01*
X151554020Y-104695022D01*
X151492859Y-104750941D01*
X151425498Y-104792525D01*
X151351641Y-104820703D01*
X151274103Y-104834288D01*
X151191478Y-104833197D01*
X151109997Y-104817500D01*
X151025131Y-104785752D01*
X150935675Y-104735879D01*
X150854848Y-104675227D01*
X150791531Y-104610794D01*
X150743571Y-104542323D01*
X150708455Y-104466885D01*
X150689042Y-104390330D01*
X150685860Y-104333534D01*
X150977288Y-104333534D01*
X150983155Y-104381420D01*
X151002348Y-104426268D01*
X151035144Y-104467937D01*
X151084230Y-104507125D01*
X151141166Y-104536707D01*
X151192773Y-104549782D01*
X151240945Y-104548831D01*
X151286535Y-104534453D01*
X151326883Y-104506583D01*
X151363123Y-104462940D01*
X151717400Y-103917402D01*
X151742527Y-103866545D01*
X151751557Y-103818377D01*
X151746121Y-103770929D01*
X151727396Y-103726535D01*
X151694461Y-103684707D01*
X151644279Y-103644726D01*
X151587289Y-103615109D01*
X151535630Y-103602000D01*
X151487409Y-103602919D01*
X151441902Y-103617276D01*
X151401595Y-103645133D01*
X151365358Y-103688783D01*
X151011082Y-104234321D01*
X150986078Y-104285168D01*
X150977288Y-104333534D01*
X150685860Y-104333534D01*
X150684620Y-104311394D01*
X150695212Y-104232943D01*
X150721420Y-104154325D01*
X150764737Y-104074343D01*
X151119013Y-103528805D01*
X151174427Y-103456752D01*
X151235571Y-103400857D01*
X151302933Y-103359275D01*
X151376880Y-103331163D01*
X151454729Y-103317736D01*
X151537925Y-103319125D01*
G37*
G36*
X151991417Y-105421486D02*
G01*
X151944412Y-105382744D01*
X151912905Y-105338879D01*
X151894882Y-105288791D01*
X151890933Y-105235668D01*
X151901851Y-105182765D01*
X151929023Y-105128255D01*
X151967769Y-105081264D01*
X152011641Y-105049800D01*
X152061744Y-105031846D01*
X152114867Y-105027897D01*
X152167770Y-105038815D01*
X152222280Y-105065987D01*
X152269271Y-105104733D01*
X152300735Y-105148605D01*
X152318689Y-105198708D01*
X152322666Y-105251782D01*
X152311767Y-105304659D01*
X152284598Y-105359168D01*
X152245852Y-105406162D01*
X152201963Y-105437654D01*
X152151827Y-105455653D01*
X152098788Y-105459589D01*
X152045927Y-105448666D01*
X151991417Y-105421486D01*
G37*
G36*
X152671359Y-105838036D02*
G01*
X152825650Y-105600448D01*
X153149501Y-105810759D01*
X153655825Y-105031090D01*
X153175296Y-105054305D01*
X153365005Y-104762179D01*
X153803147Y-104746384D01*
X154093583Y-104934996D01*
X153413514Y-105982211D01*
X153670459Y-106149073D01*
X153516167Y-106386661D01*
X152671359Y-105838036D01*
G37*
G36*
X154102900Y-106792699D02*
G01*
X154055896Y-106753957D01*
X154024388Y-106710092D01*
X154006365Y-106660005D01*
X154002416Y-106606881D01*
X154013334Y-106553978D01*
X154040506Y-106499468D01*
X154079252Y-106452477D01*
X154123124Y-106421013D01*
X154173227Y-106403059D01*
X154226350Y-106399110D01*
X154279254Y-106410028D01*
X154333764Y-106437200D01*
X154380755Y-106475946D01*
X154412218Y-106519818D01*
X154430172Y-106569922D01*
X154434149Y-106622996D01*
X154423250Y-106675872D01*
X154396081Y-106730381D01*
X154357336Y-106777375D01*
X154313447Y-106808867D01*
X154263310Y-106826867D01*
X154210271Y-106830802D01*
X154157410Y-106819879D01*
X154102900Y-106792699D01*
G37*
G36*
X154756418Y-107192089D02*
G01*
X154909562Y-106956268D01*
X155711425Y-106788873D01*
X155787103Y-106762704D01*
X155849475Y-106719929D01*
X155900752Y-106659112D01*
X155925895Y-106609375D01*
X155937056Y-106560638D01*
X155935379Y-106511449D01*
X155920968Y-106464825D01*
X155893985Y-106424824D01*
X155852725Y-106390172D01*
X155803117Y-106366062D01*
X155754052Y-106357474D01*
X155703634Y-106363464D01*
X155656297Y-106382701D01*
X155614207Y-106414555D01*
X155576515Y-106460999D01*
X155312503Y-106289548D01*
X155371280Y-106213208D01*
X155436248Y-106154015D01*
X155507938Y-106110022D01*
X155586564Y-106079925D01*
X155668578Y-106064679D01*
X155755310Y-106064261D01*
X155841027Y-106078919D01*
X155927497Y-106109740D01*
X156015850Y-106158321D01*
X156094249Y-106217360D01*
X156155821Y-106280620D01*
X156202577Y-106348385D01*
X156236748Y-106423028D01*
X156255921Y-106499444D01*
X156260633Y-106578843D01*
X156250610Y-106657705D01*
X156225052Y-106735908D01*
X156182636Y-106814648D01*
X156134191Y-106878620D01*
X156076891Y-106934956D01*
X156010020Y-106984093D01*
X155936727Y-107023200D01*
X155849028Y-107055646D01*
X155744637Y-107080626D01*
X155248618Y-107173941D01*
X155755518Y-107503126D01*
X155601227Y-107740714D01*
X154756418Y-107192089D01*
G37*
D11*
X170892505Y-37800589D02*
X170955773Y-37620927D01*
X170955773Y-37620927D02*
X171032323Y-37546914D01*
X171032323Y-37546914D02*
X171153788Y-37488717D01*
X171153788Y-37488717D02*
X171349267Y-37507071D01*
X171349267Y-37507071D02*
X171663675Y-37617791D01*
X171663675Y-37617791D02*
X171827519Y-37725975D01*
X171827519Y-37725975D02*
X171885715Y-37847440D01*
X171885715Y-37847440D02*
X171898996Y-37953088D01*
X171898996Y-37953088D02*
X171835727Y-38132750D01*
X171835727Y-38132750D02*
X171759178Y-38206763D01*
X171759178Y-38206763D02*
X171637712Y-38264960D01*
X171637712Y-38264960D02*
X171442234Y-38246606D01*
X171442234Y-38246606D02*
X171127826Y-38135886D01*
X171127826Y-38135886D02*
X170963982Y-38027702D01*
X170963982Y-38027702D02*
X170905786Y-37906236D01*
X170905786Y-37906236D02*
X170892505Y-37800589D01*
X171737088Y-36835876D02*
X171626368Y-37150284D01*
X172120437Y-37324273D02*
X171177214Y-36992112D01*
X171177214Y-36992112D02*
X171335386Y-36542958D01*
X172021798Y-36027400D02*
X171911077Y-36341807D01*
X172405146Y-36515796D02*
X171461924Y-36183635D01*
X171461924Y-36183635D02*
X171620096Y-35734482D01*
X161570997Y-34164565D02*
X161634266Y-33984904D01*
X161634266Y-33984904D02*
X161710815Y-33910890D01*
X161710815Y-33910890D02*
X161832281Y-33852694D01*
X161832281Y-33852694D02*
X162027759Y-33871047D01*
X162027759Y-33871047D02*
X162342167Y-33981768D01*
X162342167Y-33981768D02*
X162506011Y-34089952D01*
X162506011Y-34089952D02*
X162564207Y-34211417D01*
X162564207Y-34211417D02*
X162577488Y-34317065D01*
X162577488Y-34317065D02*
X162514220Y-34496726D01*
X162514220Y-34496726D02*
X162437670Y-34570740D01*
X162437670Y-34570740D02*
X162316205Y-34628936D01*
X162316205Y-34628936D02*
X162120726Y-34610583D01*
X162120726Y-34610583D02*
X161806318Y-34499862D01*
X161806318Y-34499862D02*
X161642474Y-34391678D01*
X161642474Y-34391678D02*
X161584278Y-34270213D01*
X161584278Y-34270213D02*
X161570997Y-34164565D01*
X162798929Y-33688250D02*
X161855706Y-33356089D01*
X161855706Y-33356089D02*
X162988735Y-33149266D01*
X162988735Y-33149266D02*
X162045513Y-32817104D01*
X116587555Y-48663610D02*
X116034765Y-48483912D01*
X116131192Y-49007504D02*
X115529377Y-48208868D01*
X115529377Y-48208868D02*
X115833619Y-47979606D01*
X115833619Y-47979606D02*
X115938338Y-47960320D01*
X115938338Y-47960320D02*
X116005026Y-47969692D01*
X116005026Y-47969692D02*
X116100372Y-48017095D01*
X116100372Y-48017095D02*
X116186345Y-48131186D01*
X116186345Y-48131186D02*
X116205631Y-48235904D01*
X116205631Y-48235904D02*
X116196258Y-48302592D01*
X116196258Y-48302592D02*
X116148856Y-48397938D01*
X116148856Y-48397938D02*
X115844614Y-48627201D01*
X116863140Y-48396316D02*
X117005888Y-48348373D01*
X117005888Y-48348373D02*
X117196040Y-48205084D01*
X117196040Y-48205084D02*
X117243442Y-48109738D01*
X117243442Y-48109738D02*
X117252815Y-48043050D01*
X117252815Y-48043050D02*
X117233529Y-47938331D01*
X117233529Y-47938331D02*
X117176213Y-47862271D01*
X117176213Y-47862271D02*
X117080867Y-47814868D01*
X117080867Y-47814868D02*
X117014179Y-47805496D01*
X117014179Y-47805496D02*
X116909461Y-47824781D01*
X116909461Y-47824781D02*
X116728682Y-47901382D01*
X116728682Y-47901382D02*
X116623964Y-47920668D01*
X116623964Y-47920668D02*
X116557276Y-47911295D01*
X116557276Y-47911295D02*
X116461930Y-47863893D01*
X116461930Y-47863893D02*
X116404614Y-47787832D01*
X116404614Y-47787832D02*
X116385328Y-47683114D01*
X116385328Y-47683114D02*
X116394701Y-47616426D01*
X116394701Y-47616426D02*
X116442103Y-47521080D01*
X116442103Y-47521080D02*
X116632255Y-47377790D01*
X116632255Y-47377790D02*
X116775003Y-47329847D01*
X116974527Y-47119870D02*
X117430890Y-46775975D01*
X117804524Y-47746558D02*
X117202709Y-46947923D01*
D12*
X197215163Y-36587436D02*
X197982427Y-37130889D01*
X197702069Y-36400530D02*
X197495521Y-37317794D01*
X198260659Y-37024086D02*
X197980301Y-36293727D01*
X198493567Y-36695258D02*
X198841357Y-36561754D01*
X198504112Y-36930633D02*
X198467206Y-36106821D01*
X198467206Y-36106821D02*
X198991018Y-36743727D01*
X199093228Y-35866514D02*
X199232344Y-35813113D01*
X199232344Y-35813113D02*
X199315252Y-35821191D01*
X199315252Y-35821191D02*
X199411511Y-35864048D01*
X199411511Y-35864048D02*
X199499692Y-35989813D01*
X199499692Y-35989813D02*
X199593144Y-36233266D01*
X199593144Y-36233266D02*
X199611767Y-36385733D01*
X199611767Y-36385733D02*
X199568910Y-36481991D01*
X199568910Y-36481991D02*
X199512702Y-36543471D01*
X199512702Y-36543471D02*
X199373586Y-36596873D01*
X199373586Y-36596873D02*
X199290678Y-36588795D01*
X199290678Y-36588795D02*
X199194419Y-36545938D01*
X199194419Y-36545938D02*
X199106239Y-36420172D01*
X199106239Y-36420172D02*
X199012786Y-36176719D01*
X199012786Y-36176719D02*
X198994163Y-36024253D01*
X198994163Y-36024253D02*
X199037020Y-35927994D01*
X199037020Y-35927994D02*
X199093228Y-35866514D01*
X200096206Y-35880544D02*
X200213894Y-35875272D01*
X200213894Y-35875272D02*
X200262023Y-35896701D01*
X200262023Y-35896701D02*
X200323503Y-35952908D01*
X200323503Y-35952908D02*
X200363554Y-36057245D01*
X200363554Y-36057245D02*
X200355476Y-36140153D01*
X200355476Y-36140153D02*
X200334047Y-36188283D01*
X200334047Y-36188283D02*
X200277840Y-36249763D01*
X200277840Y-36249763D02*
X199999608Y-36356566D01*
X199999608Y-36356566D02*
X199719249Y-35626207D01*
X199719249Y-35626207D02*
X199962702Y-35532754D01*
X199962702Y-35532754D02*
X200045611Y-35540832D01*
X200045611Y-35540832D02*
X200093740Y-35562261D01*
X200093740Y-35562261D02*
X200155220Y-35618469D01*
X200155220Y-35618469D02*
X200181920Y-35688027D01*
X200181920Y-35688027D02*
X200173842Y-35770935D01*
X200173842Y-35770935D02*
X200152414Y-35819064D01*
X200152414Y-35819064D02*
X200096206Y-35880544D01*
X200096206Y-35880544D02*
X199852753Y-35973997D01*
X201077756Y-35942703D02*
X200729966Y-36076207D01*
X200729966Y-36076207D02*
X200449608Y-35345849D01*
X201174355Y-35466682D02*
X201417808Y-35373229D01*
X201668999Y-35715746D02*
X201321209Y-35849250D01*
X201321209Y-35849250D02*
X201040851Y-35118892D01*
X201040851Y-35118892D02*
X201388641Y-34985388D01*
D13*
%TO.C,D15*%
X169056962Y-44977557D02*
X169456963Y-44977560D01*
X169456963Y-44977560D02*
X169456965Y-44427561D01*
X169456963Y-44977560D02*
X169456966Y-45527563D01*
X169456963Y-44977560D02*
X170056959Y-44577556D01*
X170056955Y-45377565D02*
X169456963Y-44977560D01*
X170056959Y-44577556D02*
X170056955Y-45377565D01*
X170056963Y-44977561D02*
X170556958Y-44977563D01*
%TO.C,D20*%
X186034824Y-99980793D02*
X186433302Y-100015652D01*
X186433302Y-100015652D02*
X186385367Y-100563556D01*
X186433302Y-100015652D02*
X186481241Y-99467750D01*
X186433302Y-100015652D02*
X187065884Y-99669465D01*
X186996159Y-100466429D02*
X186433302Y-100015652D01*
X187031023Y-100067950D02*
X187529118Y-100111523D01*
X187065884Y-99669465D02*
X186996159Y-100466429D01*
D14*
%TO.C,PWR1*%
X163890697Y-33885176D02*
X163628280Y-34630312D01*
X165213119Y-36301632D02*
X165024480Y-36235201D01*
X168042785Y-37298112D02*
X166439310Y-36733437D01*
X170136517Y-36922228D02*
X170398928Y-36177078D01*
X170168471Y-35025123D02*
X164792108Y-33131805D01*
D13*
%TO.C,D12*%
X152056965Y-38977557D02*
X152456966Y-38977560D01*
X152456966Y-38977560D02*
X152456968Y-38427561D01*
X152456966Y-38977560D02*
X152456969Y-39527563D01*
X152456966Y-38977560D02*
X153056962Y-38577556D01*
X153056958Y-39377565D02*
X152456966Y-38977560D01*
X153056962Y-38577556D02*
X153056958Y-39377565D01*
X153056966Y-38977561D02*
X153556961Y-38977563D01*
%TO.C,D8*%
X133077209Y-62321300D02*
X133476240Y-62293401D01*
X133476240Y-62293401D02*
X133437870Y-61744741D01*
X133476240Y-62293401D02*
X133514606Y-62842064D01*
X133476240Y-62293401D02*
X134046868Y-61852522D01*
X134046868Y-61852522D02*
X134102682Y-62650572D01*
X134074778Y-62251543D02*
X134573565Y-62216670D01*
X134102682Y-62650572D02*
X133476240Y-62293401D01*
D11*
%TO.C,RST1*%
X113302106Y-48378647D02*
X113452559Y-48578303D01*
X113302106Y-48378647D02*
X118093917Y-44767749D01*
X115408457Y-51173871D02*
X115258005Y-50974212D01*
X115408457Y-51173871D02*
X120200268Y-47562973D01*
X118093917Y-44767749D02*
X118244369Y-44967408D01*
X120200268Y-47562973D02*
X120049815Y-47363317D01*
D13*
%TO.C,D2*%
X97907487Y-78899389D02*
X98302564Y-78836821D01*
X98302564Y-78836821D02*
X98216515Y-78293594D01*
X98302564Y-78836821D02*
X98388601Y-79380048D01*
X98302564Y-78836821D02*
X98832602Y-78347880D01*
X98832602Y-78347880D02*
X98957747Y-79138037D01*
X98895170Y-78742956D02*
X99389017Y-78664747D01*
X98957747Y-79138037D02*
X98302564Y-78836821D01*
%TO.C,D11*%
X152056964Y-55977556D02*
X152456965Y-55977559D01*
X152456965Y-55977559D02*
X152456967Y-55427560D01*
X152456965Y-55977559D02*
X152456968Y-56527562D01*
X152456965Y-55977559D02*
X153056961Y-55577555D01*
X153056957Y-56377564D02*
X152456965Y-55977559D01*
X153056961Y-55577555D02*
X153056957Y-56377564D01*
X153056965Y-55977560D02*
X153556960Y-55977562D01*
%TO.C,D13*%
X169056967Y-78977554D02*
X169456968Y-78977557D01*
X169456968Y-78977557D02*
X169456970Y-78427558D01*
X169456968Y-78977557D02*
X169456971Y-79527560D01*
X169456968Y-78977557D02*
X170056964Y-78577553D01*
X170056960Y-79377562D02*
X169456968Y-78977557D01*
X170056964Y-78577553D02*
X170056960Y-79377562D01*
X170056968Y-78977558D02*
X170556963Y-78977560D01*
%TO.C,D10*%
X152056961Y-72977557D02*
X152456962Y-72977560D01*
X152456962Y-72977560D02*
X152456964Y-72427561D01*
X152456962Y-72977560D02*
X152456965Y-73527563D01*
X152456962Y-72977560D02*
X153056958Y-72577556D01*
X153056954Y-73377565D02*
X152456962Y-72977560D01*
X153056958Y-72577556D02*
X153056954Y-73377565D01*
X153056962Y-72977561D02*
X153556957Y-72977563D01*
%TO.C,D6*%
X112038803Y-59449299D02*
X112433880Y-59386731D01*
X112433880Y-59386731D02*
X112347831Y-58843504D01*
X112433880Y-59386731D02*
X112519917Y-59929958D01*
X112433880Y-59386731D02*
X112963918Y-58897790D01*
X112963918Y-58897790D02*
X113089063Y-59687947D01*
X113026486Y-59292866D02*
X113520333Y-59214657D01*
X113089063Y-59687947D02*
X112433880Y-59386731D01*
%TO.C,D21*%
X205457652Y-104353574D02*
X205833540Y-104490384D01*
X205833540Y-104490384D02*
X205645418Y-105007219D01*
X205833540Y-104490384D02*
X206021644Y-103973551D01*
X205833540Y-104490384D02*
X206534156Y-104319719D01*
X206260539Y-105071469D02*
X205833540Y-104490384D01*
X206397347Y-104695595D02*
X206867196Y-104866606D01*
X206534156Y-104319719D02*
X206260539Y-105071469D01*
%TO.C,D19*%
X168056963Y-98977552D02*
X168456964Y-98977555D01*
X168456964Y-98977555D02*
X168456966Y-98427556D01*
X168456964Y-98977555D02*
X168456967Y-99527558D01*
X168456964Y-98977555D02*
X169056960Y-98577551D01*
X169056956Y-99377560D02*
X168456964Y-98977555D01*
X169056960Y-98577551D02*
X169056956Y-99377560D01*
X169056964Y-98977556D02*
X169556959Y-98977558D01*
%TO.C,D5*%
X114698189Y-76240005D02*
X115093266Y-76177437D01*
X115093266Y-76177437D02*
X115007217Y-75634210D01*
X115093266Y-76177437D02*
X115179303Y-76720664D01*
X115093266Y-76177437D02*
X115623304Y-75688496D01*
X115623304Y-75688496D02*
X115748449Y-76478653D01*
X115685872Y-76083572D02*
X116179719Y-76005363D01*
X115748449Y-76478653D02*
X115093266Y-76177437D01*
%TO.C,D17*%
X186056960Y-63977553D02*
X186456961Y-63977556D01*
X186456961Y-63977556D02*
X186456963Y-63427557D01*
X186456961Y-63977556D02*
X186456964Y-64527559D01*
X186456961Y-63977556D02*
X187056957Y-63577552D01*
X187056953Y-64377561D02*
X186456961Y-63977556D01*
X187056957Y-63577552D02*
X187056953Y-64377561D01*
X187056961Y-63977557D02*
X187556956Y-63977559D01*
%TO.C,D7*%
X134263067Y-79279884D02*
X134662098Y-79251985D01*
X134662098Y-79251985D02*
X134623728Y-78703325D01*
X134662098Y-79251985D02*
X134700464Y-79800648D01*
X134662098Y-79251985D02*
X135232726Y-78811106D01*
X135232726Y-78811106D02*
X135288540Y-79609156D01*
X135260636Y-79210127D02*
X135759423Y-79175254D01*
X135288540Y-79609156D02*
X134662098Y-79251985D01*
%TO.C,D3*%
X95248098Y-62108684D02*
X95643175Y-62046116D01*
X95643175Y-62046116D02*
X95557126Y-61502889D01*
X95643175Y-62046116D02*
X95729212Y-62589343D01*
X95643175Y-62046116D02*
X96173213Y-61557175D01*
X96173213Y-61557175D02*
X96298358Y-62347332D01*
X96235781Y-61952251D02*
X96729628Y-61874042D01*
X96298358Y-62347332D02*
X95643175Y-62046116D01*
%TO.C,D4*%
X117357575Y-93030706D02*
X117752652Y-92968138D01*
X117752652Y-92968138D02*
X117666603Y-92424911D01*
X117752652Y-92968138D02*
X117838689Y-93511365D01*
X117752652Y-92968138D02*
X118282690Y-92479197D01*
X118282690Y-92479197D02*
X118407835Y-93269354D01*
X118345258Y-92874273D02*
X118839105Y-92796064D01*
X118407835Y-93269354D02*
X117752652Y-92968138D01*
%TO.C,D16*%
X186056964Y-80977550D02*
X186456965Y-80977553D01*
X186456965Y-80977553D02*
X186456967Y-80427554D01*
X186456965Y-80977553D02*
X186456968Y-81527556D01*
X186456965Y-80977553D02*
X187056961Y-80577549D01*
X187056957Y-81377558D02*
X186456965Y-80977553D01*
X187056961Y-80577549D02*
X187056957Y-81377558D01*
X187056965Y-80977554D02*
X187556960Y-80977556D01*
%TO.C,D14*%
X169056965Y-61977551D02*
X169456966Y-61977554D01*
X169456966Y-61977554D02*
X169456968Y-61427555D01*
X169456966Y-61977554D02*
X169456969Y-62527557D01*
X169456966Y-61977554D02*
X170056962Y-61577550D01*
X170056958Y-62377559D02*
X169456966Y-61977554D01*
X170056962Y-61577550D02*
X170056958Y-62377559D01*
X170056966Y-61977555D02*
X170556961Y-61977557D01*
%TO.C,D1*%
X100566872Y-95690092D02*
X100961949Y-95627524D01*
X100961949Y-95627524D02*
X100875900Y-95084297D01*
X100961949Y-95627524D02*
X101047986Y-96170751D01*
X100961949Y-95627524D02*
X101491987Y-95138583D01*
X101491987Y-95138583D02*
X101617132Y-95928740D01*
X101554555Y-95533659D02*
X102048402Y-95455450D01*
X101617132Y-95928740D02*
X100961949Y-95627524D01*
%TO.C,D18*%
X186056964Y-46977555D02*
X186456965Y-46977558D01*
X186456965Y-46977558D02*
X186456967Y-46427559D01*
X186456965Y-46977558D02*
X186456968Y-47527561D01*
X186456965Y-46977558D02*
X187056961Y-46577554D01*
X187056957Y-47377563D02*
X186456965Y-46977558D01*
X187056961Y-46577554D02*
X187056957Y-47377563D01*
X187056965Y-46977559D02*
X187556960Y-46977561D01*
%TO.C,D9*%
X131891355Y-45362708D02*
X132290386Y-45334809D01*
X132290386Y-45334809D02*
X132252016Y-44786149D01*
X132290386Y-45334809D02*
X132328752Y-45883472D01*
X132290386Y-45334809D02*
X132861014Y-44893930D01*
X132861014Y-44893930D02*
X132916828Y-45691980D01*
X132888924Y-45292951D02*
X133387711Y-45258078D01*
X132916828Y-45691980D02*
X132290386Y-45334809D01*
%TO.C,JST1*%
X198029994Y-60770001D02*
X199029999Y-60770000D01*
X203129997Y-60269997D02*
X203129996Y-61269996D01*
X203629996Y-60770003D02*
X202630001Y-60770000D01*
%TO.C,XIAOBLE*%
X197861961Y-57490559D02*
X197861961Y-40345559D01*
X199766961Y-59395560D02*
X213736961Y-59395559D01*
D15*
X202256961Y-38440559D02*
X202260689Y-37430287D01*
X202760689Y-36930559D02*
X210755961Y-36930559D01*
X211255961Y-37430559D02*
X211255961Y-38440559D01*
D13*
X213736961Y-38440559D02*
X199766961Y-38440559D01*
X215641961Y-57490559D02*
X215641961Y-40345559D01*
X197861961Y-40341559D02*
G75*
G02*
X199766961Y-38436559I1905003J-3D01*
G01*
X199766961Y-59395560D02*
G75*
G02*
X197861961Y-57490559I3J1905003D01*
G01*
D15*
X202260689Y-37430287D02*
G75*
G02*
X202760689Y-36930560I500018J-291D01*
G01*
X210755961Y-36930559D02*
G75*
G02*
X211255961Y-37430559I-100J-500100D01*
G01*
D13*
X213736961Y-38440559D02*
G75*
G02*
X215641961Y-40345559I-50J-1905050D01*
G01*
X215641961Y-57490559D02*
G75*
G02*
X213736961Y-59395559I-1905000J0D01*
G01*
D16*
X197903961Y-38856559D02*
G75*
G02*
X197399961Y-38856559I-252000J0D01*
G01*
X197399961Y-38856559D02*
G75*
G02*
X197903961Y-38856559I252000J0D01*
G01*
D17*
X199177961Y-39573559D02*
G75*
G02*
X198673961Y-39573559I-252000J0D01*
G01*
X198673961Y-39573559D02*
G75*
G02*
X199177961Y-39573559I252000J0D01*
G01*
%TD*%
M02*
