%TF.GenerationSoftware,KiCad,Pcbnew,9.0.3*%
%TF.CreationDate,2025-08-05T13:08:55+02:00*%
%TF.ProjectId,reversible,72657665-7273-4696-926c-652e6b696361,v1.0.0*%
%TF.SameCoordinates,Original*%
%TF.FileFunction,Soldermask,Top*%
%TF.FilePolarity,Negative*%
%FSLAX46Y46*%
G04 Gerber Fmt 4.6, Leading zero omitted, Abs format (unit mm)*
G04 Created by KiCad (PCBNEW 9.0.3) date 2025-08-05 13:08:55*
%MOMM*%
%LPD*%
G01*
G04 APERTURE LIST*
G04 Aperture macros list*
%AMRoundRect*
0 Rectangle with rounded corners*
0 $1 Rounding radius*
0 $2 $3 $4 $5 $6 $7 $8 $9 X,Y pos of 4 corners*
0 Add a 4 corners polygon primitive as box body*
4,1,4,$2,$3,$4,$5,$6,$7,$8,$9,$2,$3,0*
0 Add four circle primitives for the rounded corners*
1,1,$1+$1,$2,$3*
1,1,$1+$1,$4,$5*
1,1,$1+$1,$6,$7*
1,1,$1+$1,$8,$9*
0 Add four rect primitives between the rounded corners*
20,1,$1+$1,$2,$3,$4,$5,0*
20,1,$1+$1,$4,$5,$6,$7,0*
20,1,$1+$1,$6,$7,$8,$9,0*
20,1,$1+$1,$8,$9,$2,$3,0*%
G04 Aperture macros list end*
%ADD10C,2.300000*%
%ADD11C,1.500000*%
%ADD12RoundRect,0.050000X-0.609024X-1.108925X0.921893X-0.866452X0.609024X1.108925X-0.921893X0.866452X0*%
%ADD13RoundRect,0.050000X-0.831254X-1.144123X1.144123X-0.831254X0.831254X1.144123X-1.144123X0.831254X0*%
%ADD14RoundRect,0.050000X-0.450000X-0.600000X0.450000X-0.600000X0.450000X0.600000X-0.450000X0.600000X0*%
%ADD15RoundRect,0.050000X-0.500581X-0.558497X0.395994X-0.636937X0.500581X0.558497X-0.395994X0.636937X0*%
%ADD16RoundRect,0.050000X0.602987X0.215423X-0.342532X0.540992X-0.602987X-0.215423X0.342532X-0.540992X0*%
%ADD17C,1.000000*%
%ADD18RoundRect,0.050000X0.575108X0.595190X-0.086755X0.823088X-0.575108X-0.595190X0.086755X-0.823088X0*%
%ADD19RoundRect,0.050000X-0.407050X-0.629929X0.490758X-0.567148X0.407050X0.629929X-0.490758X0.567148X0*%
%ADD20C,1.800000*%
%ADD21RoundRect,0.050000X-0.775000X-1.000000X0.775000X-1.000000X0.775000X1.000000X-0.775000X1.000000X0*%
%ADD22RoundRect,0.050000X-1.000000X-1.000000X1.000000X-1.000000X1.000000X1.000000X-1.000000X1.000000X0*%
%ADD23RoundRect,0.050000X-0.703356X-1.051625X0.842869X-0.943503X0.703356X1.051625X-0.842869X0.943503X0*%
%ADD24RoundRect,0.050000X-0.927808X-1.067321X1.067321X-0.927808X0.927808X1.067321X-1.067321X0.927808X0*%
%ADD25RoundRect,0.050000X-0.350599X-0.663009X0.538320X-0.522217X0.350599X0.663009X-0.538320X0.522217X0*%
%ADD26RoundRect,0.050000X-0.628074X-0.409907X0.217650X-0.717725X0.628074X0.409907X-0.217650X0.717725X0*%
%ADD27RoundRect,0.050000X-1.070282X-0.674627X0.386242X-1.204758X1.070282X0.674627X-0.386242X1.204758X0*%
%ADD28RoundRect,0.050000X-1.281713X-0.597672X0.597672X-1.281713X1.281713X0.597672X-0.597672X1.281713X0*%
%ADD29RoundRect,0.260000X-0.390000X-0.665000X0.390000X-0.665000X0.390000X0.665000X-0.390000X0.665000X0*%
%ADD30O,1.300000X1.850000*%
%ADD31RoundRect,0.162400X1.537600X0.649600X-1.537600X0.649600X-1.537600X-0.649600X1.537600X-0.649600X0*%
%ADD32RoundRect,0.162400X-1.537600X-0.649600X1.537600X-0.649600X1.537600X0.649600X-1.537600X0.649600X0*%
%ADD33C,1.600000*%
%ADD34RoundRect,0.050000X-0.859207X-0.928649X0.684895X-1.063740X0.859207X0.928649X-0.684895X1.063740X0*%
%ADD35RoundRect,0.050000X-1.083350X-0.909039X0.909039X-1.083350X1.083350X0.909039X-0.909039X1.083350X0*%
G04 APERTURE END LIST*
D10*
%TO.C,MH3*%
X136100838Y-94809523D03*
%TD*%
D11*
%TO.C,CPG1316*%
X117453733Y-98432170D03*
D12*
X117453733Y-98432170D03*
D11*
X120416797Y-97962873D03*
D12*
X120416797Y-97962873D03*
D13*
X113187496Y-102499635D03*
X111310284Y-90647377D03*
X125731138Y-100512921D03*
X123853926Y-88660663D03*
%TD*%
D14*
%TO.C,D15*%
X168156959Y-44977558D03*
X171456961Y-44977562D03*
%TD*%
D15*
%TO.C,D20*%
X185138247Y-99902351D03*
X188425695Y-100189965D03*
%TD*%
D16*
%TO.C,PWR1*%
X163202579Y-35260126D03*
X170104868Y-37636770D03*
D17*
X165596824Y-34910568D03*
X168433386Y-35887275D03*
D16*
X163922087Y-33170531D03*
X170824374Y-35547177D03*
D18*
X168569523Y-37795561D03*
X165732965Y-36818860D03*
X164314684Y-36330505D03*
%TD*%
D14*
%TO.C,D12*%
X151156963Y-38977559D03*
X154456965Y-38977563D03*
%TD*%
D19*
%TO.C,D8*%
X132179412Y-62384082D03*
X135471364Y-62153888D03*
%TD*%
D20*
%TO.C,RST1*%
X119346755Y-46014913D03*
X114155619Y-49926705D03*
%TD*%
D11*
%TO.C,CPG1316*%
X168306958Y-84327558D03*
D21*
X168306958Y-84327558D03*
D11*
X171306961Y-84327563D03*
D21*
X171306961Y-84327563D03*
D22*
X163456955Y-75677560D03*
X163456958Y-87677553D03*
X176156958Y-75677563D03*
X176156961Y-87677556D03*
%TD*%
D11*
%TO.C,CPG1316*%
X131516375Y-50751994D03*
D23*
X131516375Y-50751994D03*
D11*
X134509069Y-50542727D03*
D23*
X134509069Y-50542727D03*
D24*
X126074793Y-42461383D03*
X126911875Y-54432153D03*
X138743857Y-41575475D03*
X139580939Y-53546245D03*
%TD*%
D11*
%TO.C,CPG1316*%
X167306960Y-104327557D03*
D21*
X167306960Y-104327557D03*
D11*
X170306963Y-104327562D03*
D21*
X170306963Y-104327562D03*
D22*
X162456957Y-95677559D03*
X162456960Y-107677552D03*
X175156960Y-95677562D03*
X175156963Y-107677555D03*
%TD*%
D25*
%TO.C,D2*%
X97018565Y-79040182D03*
X100277937Y-78523954D03*
%TD*%
D14*
%TO.C,D11*%
X151156962Y-55977558D03*
X154456964Y-55977562D03*
%TD*%
%TO.C,D13*%
X168156963Y-78977555D03*
X171456965Y-78977559D03*
%TD*%
D10*
%TO.C,MH4*%
X150806956Y-94677559D03*
%TD*%
D14*
%TO.C,D10*%
X151156959Y-72977558D03*
X154456961Y-72977562D03*
%TD*%
D11*
%TO.C,CPG1316*%
X98003646Y-84300844D03*
D12*
X98003646Y-84300844D03*
D11*
X100966710Y-83831547D03*
D12*
X100966710Y-83831547D03*
D13*
X93737409Y-88368309D03*
X91860197Y-76516051D03*
X106281051Y-86381595D03*
X104403839Y-74529337D03*
%TD*%
D25*
%TO.C,D6*%
X111149881Y-59590090D03*
X114409253Y-59073862D03*
%TD*%
D11*
%TO.C,CPG1316*%
X185306962Y-52327560D03*
D21*
X185306962Y-52327560D03*
D11*
X188306965Y-52327565D03*
D21*
X188306965Y-52327565D03*
D22*
X180456959Y-43677562D03*
X180456962Y-55677555D03*
X193156962Y-43677565D03*
X193156965Y-55677558D03*
%TD*%
D10*
%TO.C,MH1*%
X214161382Y-97252158D03*
%TD*%
D26*
%TO.C,D21*%
X204611931Y-104045756D03*
X207712917Y-105174426D03*
%TD*%
D14*
%TO.C,D19*%
X167156960Y-98977553D03*
X170456962Y-98977557D03*
%TD*%
D25*
%TO.C,D5*%
X113809268Y-76380799D03*
X117068640Y-75864571D03*
%TD*%
D11*
%TO.C,CPG1316*%
X132702241Y-67710581D03*
D23*
X132702241Y-67710581D03*
D11*
X135694935Y-67501314D03*
D23*
X135694935Y-67501314D03*
D24*
X127260659Y-59419970D03*
X128097741Y-71390740D03*
X139929723Y-58534062D03*
X140766805Y-70504832D03*
%TD*%
D14*
%TO.C,D17*%
X185156957Y-63977555D03*
X188456959Y-63977559D03*
%TD*%
D11*
%TO.C,CPG1316*%
X133888098Y-84669174D03*
D23*
X133888098Y-84669174D03*
D11*
X136880792Y-84459907D03*
D23*
X136880792Y-84459907D03*
D24*
X128446516Y-76378563D03*
X129283598Y-88349333D03*
X141115580Y-75492655D03*
X141952662Y-87463425D03*
%TD*%
D11*
%TO.C,CPG1316*%
X168306963Y-50327554D03*
D21*
X168306963Y-50327554D03*
D11*
X171306966Y-50327559D03*
D21*
X171306966Y-50327559D03*
D22*
X163456960Y-41677556D03*
X163456963Y-53677549D03*
X176156963Y-41677559D03*
X176156966Y-53677552D03*
%TD*%
D11*
%TO.C,CPG1316*%
X151306959Y-61327556D03*
D21*
X151306959Y-61327556D03*
D11*
X154306962Y-61327561D03*
D21*
X154306962Y-61327561D03*
D22*
X146456956Y-52677558D03*
X146456959Y-64677551D03*
X159156959Y-52677561D03*
X159156962Y-64677554D03*
%TD*%
D11*
%TO.C,CPG1316*%
X185306962Y-69327558D03*
D21*
X185306962Y-69327558D03*
D11*
X188306965Y-69327563D03*
D21*
X188306965Y-69327563D03*
D22*
X180456959Y-60677560D03*
X180456962Y-72677553D03*
X193156962Y-60677563D03*
X193156965Y-72677556D03*
%TD*%
D11*
%TO.C,CPG1316*%
X168306957Y-67327559D03*
D21*
X168306957Y-67327559D03*
D11*
X171306960Y-67327564D03*
D21*
X171306960Y-67327564D03*
D22*
X163456954Y-58677561D03*
X163456957Y-70677554D03*
X176156957Y-58677564D03*
X176156960Y-70677557D03*
%TD*%
D10*
%TO.C,MH2*%
X140598441Y-35842146D03*
%TD*%
D19*
%TO.C,D7*%
X133365269Y-79342665D03*
X136657221Y-79112471D03*
%TD*%
D25*
%TO.C,D3*%
X94359177Y-62249476D03*
X97618549Y-61733248D03*
%TD*%
D11*
%TO.C,CPG1316*%
X95344258Y-67510147D03*
D12*
X95344258Y-67510147D03*
D11*
X98307322Y-67040850D03*
D12*
X98307322Y-67040850D03*
D13*
X91078021Y-71577612D03*
X89200809Y-59725354D03*
X103621663Y-69590898D03*
X101744451Y-57738640D03*
%TD*%
D25*
%TO.C,D4*%
X116468653Y-93171498D03*
X119728025Y-92655270D03*
%TD*%
D11*
%TO.C,CPG1316*%
X151306964Y-44327560D03*
D21*
X151306964Y-44327560D03*
D11*
X154306967Y-44327565D03*
D21*
X154306967Y-44327565D03*
D22*
X146456961Y-35677562D03*
X146456964Y-47677555D03*
X159156964Y-35677565D03*
X159156967Y-47677558D03*
%TD*%
D14*
%TO.C,D16*%
X185156961Y-80977551D03*
X188456963Y-80977555D03*
%TD*%
%TO.C,D14*%
X168156962Y-61977552D03*
X171456964Y-61977556D03*
%TD*%
D25*
%TO.C,D1*%
X99677951Y-95830885D03*
X102937323Y-95314657D03*
%TD*%
D11*
%TO.C,CPG1316*%
X185306960Y-86327556D03*
D21*
X185306960Y-86327556D03*
D11*
X188306963Y-86327561D03*
D21*
X188306963Y-86327561D03*
D22*
X180456957Y-77677558D03*
X180456960Y-89677551D03*
X193156960Y-77677561D03*
X193156963Y-89677554D03*
%TD*%
D11*
%TO.C,CPG1316*%
X112134960Y-64850755D03*
D12*
X112134960Y-64850755D03*
D11*
X115098024Y-64381458D03*
D12*
X115098024Y-64381458D03*
D13*
X107868723Y-68918220D03*
X105991511Y-57065962D03*
X120412365Y-66931506D03*
X118535153Y-55079248D03*
%TD*%
D11*
%TO.C,CPG1316*%
X202923078Y-109124422D03*
D27*
X202923078Y-109124422D03*
D11*
X205742157Y-110150482D03*
D27*
X205742157Y-110150482D03*
D28*
X201324040Y-99337288D03*
X197219799Y-110613600D03*
X213258137Y-103680942D03*
X209153896Y-114957254D03*
%TD*%
D14*
%TO.C,D18*%
X185156960Y-46977556D03*
X188456962Y-46977560D03*
%TD*%
D19*
%TO.C,D9*%
X130993556Y-45425491D03*
X134285508Y-45195297D03*
%TD*%
D29*
%TO.C,JST1*%
X199830003Y-60870000D03*
D30*
X201829995Y-60869998D03*
%TD*%
D11*
%TO.C,CPG1316*%
X151306962Y-78327559D03*
D21*
X151306962Y-78327559D03*
D11*
X154306965Y-78327564D03*
D21*
X154306965Y-78327564D03*
D22*
X146456959Y-69677561D03*
X146456962Y-81677554D03*
X159156962Y-69677564D03*
X159156965Y-81677557D03*
%TD*%
D17*
%TO.C,REF\u002A\u002A*%
X199186956Y-51517559D03*
X199186958Y-43897558D03*
X199186958Y-48977556D03*
X199186959Y-46437559D03*
X199186961Y-54057559D03*
X199186962Y-56597556D03*
X199186963Y-41357561D03*
X214426957Y-56597557D03*
X214426958Y-41357562D03*
X214426959Y-43897559D03*
X214426961Y-51517559D03*
X214426962Y-48977562D03*
X214426962Y-54057560D03*
X214426964Y-46437559D03*
D31*
X198651958Y-41357565D03*
X198651961Y-43897561D03*
X198651961Y-46437556D03*
X198651962Y-48977556D03*
X198651960Y-51517558D03*
X198651957Y-54057556D03*
X198651963Y-56597561D03*
D32*
X214961962Y-56597553D03*
X214961959Y-54057557D03*
X214961959Y-51517562D03*
X214961958Y-48977562D03*
X214961960Y-46437560D03*
X214961963Y-43897562D03*
X214961957Y-41357557D03*
D33*
X201806958Y-48664055D03*
X211806956Y-48664052D03*
X201806955Y-46759058D03*
X211806964Y-46759061D03*
D20*
X205481956Y-40409059D03*
X208021959Y-40409055D03*
X205481961Y-42949058D03*
X208021959Y-42949060D03*
%TD*%
D11*
%TO.C,CPG1316*%
X100663033Y-101091550D03*
D12*
X100663033Y-101091550D03*
D11*
X103626097Y-100622253D03*
D12*
X103626097Y-100622253D03*
D13*
X96396796Y-105159015D03*
X94519584Y-93306757D03*
X108940438Y-103172301D03*
X107063226Y-91320043D03*
%TD*%
D11*
%TO.C,CPG1316*%
X114794353Y-81641460D03*
D12*
X114794353Y-81641460D03*
D11*
X117757417Y-81172163D03*
D12*
X117757417Y-81172163D03*
D13*
X110528116Y-85708925D03*
X108650904Y-73856667D03*
X123071758Y-83722211D03*
X121194546Y-71869953D03*
%TD*%
D11*
%TO.C,CPG1316*%
X184821387Y-105245066D03*
D34*
X184821387Y-105245066D03*
D11*
X187809975Y-105506529D03*
D34*
X187809975Y-105506529D03*
D35*
X180743746Y-96205276D03*
X179697878Y-108159614D03*
X193395418Y-97312152D03*
X192349550Y-109266490D03*
%TD*%
M02*
