%TF.GenerationSoftware,KiCad,Pcbnew,9.0.3*%
%TF.CreationDate,2025-09-18T16:19:16+02:00*%
%TF.ProjectId,reversible,72657665-7273-4696-926c-652e6b696361,v1.0.0*%
%TF.SameCoordinates,Original*%
%TF.FileFunction,Legend,Bot*%
%TF.FilePolarity,Positive*%
%FSLAX46Y46*%
G04 Gerber Fmt 4.6, Leading zero omitted, Abs format (unit mm)*
G04 Created by KiCad (PCBNEW 9.0.3) date 2025-09-18 16:19:16*
%MOMM*%
%LPD*%
G01*
G04 APERTURE LIST*
%ADD10C,0.150000*%
%ADD11C,0.100000*%
%ADD12C,0.120000*%
%ADD13C,0.127000*%
%ADD14C,0.504001*%
%ADD15C,0.504000*%
G04 APERTURE END LIST*
D10*
X162092964Y-32682359D02*
X162029695Y-32862020D01*
X162029695Y-32862020D02*
X162042976Y-32967668D01*
X162042976Y-32967668D02*
X162101173Y-33089133D01*
X162101173Y-33089133D02*
X162265017Y-33197317D01*
X162265017Y-33197317D02*
X162579425Y-33308038D01*
X162579425Y-33308038D02*
X162774903Y-33326391D01*
X162774903Y-33326391D02*
X162896368Y-33268195D01*
X162896368Y-33268195D02*
X162972918Y-33194181D01*
X162972918Y-33194181D02*
X163036187Y-33014520D01*
X163036187Y-33014520D02*
X163022906Y-32908872D01*
X163022906Y-32908872D02*
X162964710Y-32787407D01*
X162964710Y-32787407D02*
X162800865Y-32679223D01*
X162800865Y-32679223D02*
X162486458Y-32568502D01*
X162486458Y-32568502D02*
X162290979Y-32550149D01*
X162290979Y-32550149D02*
X162169514Y-32608345D01*
X162169514Y-32608345D02*
X162092964Y-32682359D01*
X162146688Y-33963415D02*
X162257408Y-33649007D01*
X162751477Y-33822996D02*
X161808255Y-33490835D01*
X161808255Y-33490835D02*
X161650083Y-33939989D01*
X161861978Y-34771891D02*
X161972699Y-34457484D01*
X162466768Y-34631473D02*
X161523545Y-34299312D01*
X161523545Y-34299312D02*
X161365373Y-34748466D01*
X171414472Y-36318382D02*
X171351203Y-36498043D01*
X171351203Y-36498043D02*
X171364484Y-36603691D01*
X171364484Y-36603691D02*
X171422681Y-36725156D01*
X171422681Y-36725156D02*
X171586525Y-36833341D01*
X171586525Y-36833341D02*
X171900932Y-36944061D01*
X171900932Y-36944061D02*
X172096411Y-36962414D01*
X172096411Y-36962414D02*
X172217876Y-36904218D01*
X172217876Y-36904218D02*
X172294426Y-36830204D01*
X172294426Y-36830204D02*
X172357695Y-36650543D01*
X172357695Y-36650543D02*
X172344414Y-36544895D01*
X172344414Y-36544895D02*
X172286217Y-36423430D01*
X172286217Y-36423430D02*
X172122373Y-36315246D01*
X172122373Y-36315246D02*
X171807966Y-36204525D01*
X171807966Y-36204525D02*
X171612487Y-36186172D01*
X171612487Y-36186172D02*
X171491022Y-36244368D01*
X171491022Y-36244368D02*
X171414472Y-36318382D01*
X172072985Y-37459020D02*
X171129762Y-37126858D01*
X171129762Y-37126858D02*
X171883179Y-37998004D01*
X171883179Y-37998004D02*
X170939956Y-37665843D01*
X117462252Y-48004479D02*
X117441885Y-47423571D01*
X117918615Y-47660584D02*
X117316800Y-46861949D01*
X117316800Y-46861949D02*
X117012558Y-47091212D01*
X117012558Y-47091212D02*
X116965155Y-47186558D01*
X116965155Y-47186558D02*
X116955783Y-47253246D01*
X116955783Y-47253246D02*
X116975068Y-47357964D01*
X116975068Y-47357964D02*
X117061042Y-47472055D01*
X117061042Y-47472055D02*
X117156388Y-47519458D01*
X117156388Y-47519458D02*
X117223076Y-47528830D01*
X117223076Y-47528830D02*
X117327794Y-47509545D01*
X117327794Y-47509545D02*
X117632036Y-47280282D01*
X117129352Y-48195711D02*
X117043919Y-48319715D01*
X117043919Y-48319715D02*
X116853767Y-48463004D01*
X116853767Y-48463004D02*
X116749049Y-48482290D01*
X116749049Y-48482290D02*
X116682361Y-48472917D01*
X116682361Y-48472917D02*
X116587015Y-48425515D01*
X116587015Y-48425515D02*
X116529699Y-48349454D01*
X116529699Y-48349454D02*
X116510414Y-48244736D01*
X116510414Y-48244736D02*
X116519786Y-48178048D01*
X116519786Y-48178048D02*
X116567189Y-48082702D01*
X116567189Y-48082702D02*
X116690652Y-47930040D01*
X116690652Y-47930040D02*
X116738055Y-47834694D01*
X116738055Y-47834694D02*
X116747427Y-47768006D01*
X116747427Y-47768006D02*
X116728142Y-47663288D01*
X116728142Y-47663288D02*
X116670826Y-47587227D01*
X116670826Y-47587227D02*
X116575480Y-47539824D01*
X116575480Y-47539824D02*
X116508792Y-47530452D01*
X116508792Y-47530452D02*
X116404073Y-47549737D01*
X116404073Y-47549737D02*
X116213922Y-47693027D01*
X116213922Y-47693027D02*
X116128489Y-47817031D01*
X115871650Y-47950948D02*
X115415287Y-48294842D01*
X116245283Y-48921530D02*
X115643468Y-48122895D01*
D11*
%TO.C,D15*%
X169056962Y-44977557D02*
X169456963Y-44977560D01*
X169456963Y-44977560D02*
X169456965Y-44427561D01*
X169456963Y-44977560D02*
X169456966Y-45527563D01*
X169456963Y-44977560D02*
X170056959Y-44577556D01*
X170056955Y-45377565D02*
X169456963Y-44977560D01*
X170056959Y-44577556D02*
X170056955Y-45377565D01*
X170056963Y-44977561D02*
X170556958Y-44977563D01*
%TO.C,D20*%
X186034824Y-99980793D02*
X186433302Y-100015652D01*
X186433302Y-100015652D02*
X186385367Y-100563556D01*
X186433302Y-100015652D02*
X186481241Y-99467750D01*
X186433302Y-100015652D02*
X187065884Y-99669465D01*
X186996159Y-100466429D02*
X186433302Y-100015652D01*
X187031023Y-100067950D02*
X187529118Y-100111523D01*
X187065884Y-99669465D02*
X186996159Y-100466429D01*
D12*
%TO.C,PWR1*%
X163628280Y-34630312D02*
X163890697Y-33885176D01*
X164792108Y-33131805D02*
X170168471Y-35025123D01*
X165024480Y-36235201D02*
X166627953Y-36799868D01*
X167854147Y-37231679D02*
X168042785Y-37298112D01*
X170398928Y-36177078D02*
X170136517Y-36922228D01*
D11*
%TO.C,D12*%
X152056965Y-38977557D02*
X152456966Y-38977560D01*
X152456966Y-38977560D02*
X152456968Y-38427561D01*
X152456966Y-38977560D02*
X152456969Y-39527563D01*
X152456966Y-38977560D02*
X153056962Y-38577556D01*
X153056958Y-39377565D02*
X152456966Y-38977560D01*
X153056962Y-38577556D02*
X153056958Y-39377565D01*
X153056966Y-38977561D02*
X153556961Y-38977563D01*
%TO.C,D8*%
X133077209Y-62321300D02*
X133476240Y-62293401D01*
X133476240Y-62293401D02*
X133437870Y-61744741D01*
X133476240Y-62293401D02*
X133514606Y-62842064D01*
X133476240Y-62293401D02*
X134046868Y-61852522D01*
X134046868Y-61852522D02*
X134102682Y-62650572D01*
X134074778Y-62251543D02*
X134573565Y-62216670D01*
X134102682Y-62650572D02*
X133476240Y-62293401D01*
D10*
%TO.C,RST1*%
X113302106Y-48378647D02*
X118093917Y-44767749D01*
X113452559Y-48578303D02*
X113302106Y-48378647D01*
X115408457Y-51173871D02*
X115258005Y-50974212D01*
X118093917Y-44767749D02*
X118244369Y-44967408D01*
X120049815Y-47363317D02*
X120200268Y-47562973D01*
X120200268Y-47562973D02*
X115408457Y-51173871D01*
D11*
%TO.C,D2*%
X97907487Y-78899389D02*
X98302564Y-78836821D01*
X98302564Y-78836821D02*
X98216515Y-78293594D01*
X98302564Y-78836821D02*
X98388601Y-79380048D01*
X98302564Y-78836821D02*
X98832602Y-78347880D01*
X98832602Y-78347880D02*
X98957747Y-79138037D01*
X98895170Y-78742956D02*
X99389017Y-78664747D01*
X98957747Y-79138037D02*
X98302564Y-78836821D01*
%TO.C,D11*%
X152056964Y-55977556D02*
X152456965Y-55977559D01*
X152456965Y-55977559D02*
X152456967Y-55427560D01*
X152456965Y-55977559D02*
X152456968Y-56527562D01*
X152456965Y-55977559D02*
X153056961Y-55577555D01*
X153056957Y-56377564D02*
X152456965Y-55977559D01*
X153056961Y-55577555D02*
X153056957Y-56377564D01*
X153056965Y-55977560D02*
X153556960Y-55977562D01*
%TO.C,D13*%
X169056967Y-78977554D02*
X169456968Y-78977557D01*
X169456968Y-78977557D02*
X169456970Y-78427558D01*
X169456968Y-78977557D02*
X169456971Y-79527560D01*
X169456968Y-78977557D02*
X170056964Y-78577553D01*
X170056960Y-79377562D02*
X169456968Y-78977557D01*
X170056964Y-78577553D02*
X170056960Y-79377562D01*
X170056968Y-78977558D02*
X170556963Y-78977560D01*
%TO.C,D10*%
X152056961Y-72977557D02*
X152456962Y-72977560D01*
X152456962Y-72977560D02*
X152456964Y-72427561D01*
X152456962Y-72977560D02*
X152456965Y-73527563D01*
X152456962Y-72977560D02*
X153056958Y-72577556D01*
X153056954Y-73377565D02*
X152456962Y-72977560D01*
X153056958Y-72577556D02*
X153056954Y-73377565D01*
X153056962Y-72977561D02*
X153556957Y-72977563D01*
%TO.C,D6*%
X112038803Y-59449299D02*
X112433880Y-59386731D01*
X112433880Y-59386731D02*
X112347831Y-58843504D01*
X112433880Y-59386731D02*
X112519917Y-59929958D01*
X112433880Y-59386731D02*
X112963918Y-58897790D01*
X112963918Y-58897790D02*
X113089063Y-59687947D01*
X113026486Y-59292866D02*
X113520333Y-59214657D01*
X113089063Y-59687947D02*
X112433880Y-59386731D01*
%TO.C,D21*%
X205457652Y-104353574D02*
X205833540Y-104490384D01*
X205833540Y-104490384D02*
X205645418Y-105007219D01*
X205833540Y-104490384D02*
X206021644Y-103973551D01*
X205833540Y-104490384D02*
X206534156Y-104319719D01*
X206260539Y-105071469D02*
X205833540Y-104490384D01*
X206397347Y-104695595D02*
X206867196Y-104866606D01*
X206534156Y-104319719D02*
X206260539Y-105071469D01*
%TO.C,D19*%
X168056963Y-98977552D02*
X168456964Y-98977555D01*
X168456964Y-98977555D02*
X168456966Y-98427556D01*
X168456964Y-98977555D02*
X168456967Y-99527558D01*
X168456964Y-98977555D02*
X169056960Y-98577551D01*
X169056956Y-99377560D02*
X168456964Y-98977555D01*
X169056960Y-98577551D02*
X169056956Y-99377560D01*
X169056964Y-98977556D02*
X169556959Y-98977558D01*
%TO.C,D5*%
X114698189Y-76240005D02*
X115093266Y-76177437D01*
X115093266Y-76177437D02*
X115007217Y-75634210D01*
X115093266Y-76177437D02*
X115179303Y-76720664D01*
X115093266Y-76177437D02*
X115623304Y-75688496D01*
X115623304Y-75688496D02*
X115748449Y-76478653D01*
X115685872Y-76083572D02*
X116179719Y-76005363D01*
X115748449Y-76478653D02*
X115093266Y-76177437D01*
%TO.C,D17*%
X186056960Y-63977553D02*
X186456961Y-63977556D01*
X186456961Y-63977556D02*
X186456963Y-63427557D01*
X186456961Y-63977556D02*
X186456964Y-64527559D01*
X186456961Y-63977556D02*
X187056957Y-63577552D01*
X187056953Y-64377561D02*
X186456961Y-63977556D01*
X187056957Y-63577552D02*
X187056953Y-64377561D01*
X187056961Y-63977557D02*
X187556956Y-63977559D01*
%TO.C,D7*%
X134263067Y-79279884D02*
X134662098Y-79251985D01*
X134662098Y-79251985D02*
X134623728Y-78703325D01*
X134662098Y-79251985D02*
X134700464Y-79800648D01*
X134662098Y-79251985D02*
X135232726Y-78811106D01*
X135232726Y-78811106D02*
X135288540Y-79609156D01*
X135260636Y-79210127D02*
X135759423Y-79175254D01*
X135288540Y-79609156D02*
X134662098Y-79251985D01*
%TO.C,D3*%
X95248098Y-62108684D02*
X95643175Y-62046116D01*
X95643175Y-62046116D02*
X95557126Y-61502889D01*
X95643175Y-62046116D02*
X95729212Y-62589343D01*
X95643175Y-62046116D02*
X96173213Y-61557175D01*
X96173213Y-61557175D02*
X96298358Y-62347332D01*
X96235781Y-61952251D02*
X96729628Y-61874042D01*
X96298358Y-62347332D02*
X95643175Y-62046116D01*
%TO.C,D4*%
X117357575Y-93030706D02*
X117752652Y-92968138D01*
X117752652Y-92968138D02*
X117666603Y-92424911D01*
X117752652Y-92968138D02*
X117838689Y-93511365D01*
X117752652Y-92968138D02*
X118282690Y-92479197D01*
X118282690Y-92479197D02*
X118407835Y-93269354D01*
X118345258Y-92874273D02*
X118839105Y-92796064D01*
X118407835Y-93269354D02*
X117752652Y-92968138D01*
%TO.C,D16*%
X186056964Y-80977550D02*
X186456965Y-80977553D01*
X186456965Y-80977553D02*
X186456967Y-80427554D01*
X186456965Y-80977553D02*
X186456968Y-81527556D01*
X186456965Y-80977553D02*
X187056961Y-80577549D01*
X187056957Y-81377558D02*
X186456965Y-80977553D01*
X187056961Y-80577549D02*
X187056957Y-81377558D01*
X187056965Y-80977554D02*
X187556960Y-80977556D01*
%TO.C,D14*%
X169056965Y-61977551D02*
X169456966Y-61977554D01*
X169456966Y-61977554D02*
X169456968Y-61427555D01*
X169456966Y-61977554D02*
X169456969Y-62527557D01*
X169456966Y-61977554D02*
X170056962Y-61577550D01*
X170056958Y-62377559D02*
X169456966Y-61977554D01*
X170056962Y-61577550D02*
X170056958Y-62377559D01*
X170056966Y-61977555D02*
X170556961Y-61977557D01*
%TO.C,D1*%
X100566872Y-95690092D02*
X100961949Y-95627524D01*
X100961949Y-95627524D02*
X100875900Y-95084297D01*
X100961949Y-95627524D02*
X101047986Y-96170751D01*
X100961949Y-95627524D02*
X101491987Y-95138583D01*
X101491987Y-95138583D02*
X101617132Y-95928740D01*
X101554555Y-95533659D02*
X102048402Y-95455450D01*
X101617132Y-95928740D02*
X100961949Y-95627524D01*
%TO.C,D18*%
X186056964Y-46977555D02*
X186456965Y-46977558D01*
X186456965Y-46977558D02*
X186456967Y-46427559D01*
X186456965Y-46977558D02*
X186456968Y-47527561D01*
X186456965Y-46977558D02*
X187056961Y-46577554D01*
X187056957Y-47377563D02*
X186456965Y-46977558D01*
X187056961Y-46577554D02*
X187056957Y-47377563D01*
X187056965Y-46977559D02*
X187556960Y-46977561D01*
%TO.C,D9*%
X131891355Y-45362708D02*
X132290386Y-45334809D01*
X132290386Y-45334809D02*
X132252016Y-44786149D01*
X132290386Y-45334809D02*
X132328752Y-45883472D01*
X132290386Y-45334809D02*
X132861014Y-44893930D01*
X132861014Y-44893930D02*
X132916828Y-45691980D01*
X132888924Y-45292951D02*
X133387711Y-45258078D01*
X132916828Y-45691980D02*
X132290386Y-45334809D01*
%TO.C,JST1*%
X198029994Y-60770001D02*
X199029999Y-60770000D01*
X203129997Y-60269997D02*
X203129996Y-61269996D01*
X203629996Y-60770003D02*
X202630001Y-60770000D01*
%TO.C,XIAOBLE*%
X197861961Y-57490559D02*
X197861961Y-40345559D01*
X199766961Y-59395560D02*
X213736961Y-59395559D01*
D13*
X202256961Y-38440559D02*
X202260689Y-37430287D01*
X202760689Y-36930559D02*
X210755961Y-36930559D01*
X211255961Y-37430559D02*
X211255961Y-38440559D01*
D11*
X213736961Y-38440559D02*
X199766961Y-38440559D01*
X215641961Y-57490559D02*
X215641961Y-40345559D01*
X197861961Y-40341559D02*
G75*
G02*
X199766961Y-38436559I1905003J-3D01*
G01*
X199766961Y-59395560D02*
G75*
G02*
X197861961Y-57490559I3J1905003D01*
G01*
D13*
X202260689Y-37430287D02*
G75*
G02*
X202760689Y-36930560I500018J-291D01*
G01*
X210755961Y-36930559D02*
G75*
G02*
X211255961Y-37430559I-100J-500100D01*
G01*
D11*
X213736961Y-38440559D02*
G75*
G02*
X215641961Y-40345559I-50J-1905050D01*
G01*
X215641961Y-57490559D02*
G75*
G02*
X213736961Y-59395559I-1905000J0D01*
G01*
D14*
X197903961Y-38856559D02*
G75*
G02*
X197399961Y-38856559I-252000J0D01*
G01*
X197399961Y-38856559D02*
G75*
G02*
X197903961Y-38856559I252000J0D01*
G01*
D15*
X199177961Y-39573559D02*
G75*
G02*
X198673961Y-39573559I-252000J0D01*
G01*
X198673961Y-39573559D02*
G75*
G02*
X199177961Y-39573559I252000J0D01*
G01*
%TD*%
M02*
