%TF.GenerationSoftware,KiCad,Pcbnew,8.0.6*%
%TF.CreationDate,2025-08-04T21:47:16+02:00*%
%TF.ProjectId,reversible,72657665-7273-4696-926c-652e6b696361,v1.0.0*%
%TF.SameCoordinates,Original*%
%TF.FileFunction,Legend,Top*%
%TF.FilePolarity,Positive*%
%FSLAX46Y46*%
G04 Gerber Fmt 4.6, Leading zero omitted, Abs format (unit mm)*
G04 Created by KiCad (PCBNEW 8.0.6) date 2025-08-04 21:47:16*
%MOMM*%
%LPD*%
G01*
G04 APERTURE LIST*
%ADD10C,0.150000*%
%ADD11C,0.106680*%
%ADD12C,0.100000*%
%ADD13C,0.120000*%
%ADD14C,0.127000*%
%ADD15C,0.504001*%
%ADD16C,0.504000*%
G04 APERTURE END LIST*
D10*
X170909012Y-37773400D02*
X170971025Y-37593302D01*
X170971025Y-37593302D02*
X171047056Y-37518756D01*
X171047056Y-37518756D02*
X171168112Y-37459713D01*
X171168112Y-37459713D02*
X171363714Y-37476701D01*
X171363714Y-37476701D02*
X171678887Y-37585224D01*
X171678887Y-37585224D02*
X171843482Y-37692261D01*
X171843482Y-37692261D02*
X171902525Y-37813317D01*
X171902525Y-37813317D02*
X171916544Y-37918870D01*
X171916544Y-37918870D02*
X171854531Y-38098969D01*
X171854531Y-38098969D02*
X171778499Y-38173515D01*
X171778499Y-38173515D02*
X171657444Y-38232558D01*
X171657444Y-38232558D02*
X171461841Y-38215569D01*
X171461841Y-38215569D02*
X171146669Y-38107047D01*
X171146669Y-38107047D02*
X170982073Y-38000009D01*
X170982073Y-38000009D02*
X170923030Y-37878953D01*
X170923030Y-37878953D02*
X170909012Y-37773400D01*
X171746840Y-36802816D02*
X171638317Y-37117988D01*
X172133589Y-37288524D02*
X171188070Y-36962956D01*
X171188070Y-36962956D02*
X171343103Y-36512709D01*
X172025899Y-35992371D02*
X171917376Y-36307544D01*
X172412647Y-36478080D02*
X171467129Y-36152511D01*
X171467129Y-36152511D02*
X171622161Y-35702264D01*
X161562351Y-34202548D02*
X161624364Y-34022449D01*
X161624364Y-34022449D02*
X161700395Y-33947903D01*
X161700395Y-33947903D02*
X161821451Y-33888860D01*
X161821451Y-33888860D02*
X162017053Y-33905848D01*
X162017053Y-33905848D02*
X162332226Y-34014371D01*
X162332226Y-34014371D02*
X162496821Y-34121409D01*
X162496821Y-34121409D02*
X162555864Y-34242465D01*
X162555864Y-34242465D02*
X162569882Y-34348017D01*
X162569882Y-34348017D02*
X162507869Y-34528116D01*
X162507869Y-34528116D02*
X162431838Y-34602662D01*
X162431838Y-34602662D02*
X162310782Y-34661705D01*
X162310782Y-34661705D02*
X162115180Y-34644717D01*
X162115180Y-34644717D02*
X161800007Y-34536194D01*
X161800007Y-34536194D02*
X161635412Y-34429156D01*
X161635412Y-34429156D02*
X161576369Y-34308101D01*
X161576369Y-34308101D02*
X161562351Y-34202548D01*
X162786928Y-33717672D02*
X161841409Y-33392103D01*
X161841409Y-33392103D02*
X162972967Y-33177375D01*
X162972967Y-33177375D02*
X162027448Y-32851807D01*
X116587557Y-48663609D02*
X116034767Y-48483911D01*
X116131194Y-49007503D02*
X115529379Y-48208867D01*
X115529379Y-48208867D02*
X115833621Y-47979605D01*
X115833621Y-47979605D02*
X115938340Y-47960319D01*
X115938340Y-47960319D02*
X116005028Y-47969691D01*
X116005028Y-47969691D02*
X116100374Y-48017094D01*
X116100374Y-48017094D02*
X116186347Y-48131185D01*
X116186347Y-48131185D02*
X116205633Y-48235903D01*
X116205633Y-48235903D02*
X116196260Y-48302591D01*
X116196260Y-48302591D02*
X116148858Y-48397937D01*
X116148858Y-48397937D02*
X115844616Y-48627200D01*
X116863142Y-48396315D02*
X117005890Y-48348372D01*
X117005890Y-48348372D02*
X117196042Y-48205083D01*
X117196042Y-48205083D02*
X117243444Y-48109737D01*
X117243444Y-48109737D02*
X117252817Y-48043049D01*
X117252817Y-48043049D02*
X117233531Y-47938330D01*
X117233531Y-47938330D02*
X117176215Y-47862270D01*
X117176215Y-47862270D02*
X117080869Y-47814867D01*
X117080869Y-47814867D02*
X117014181Y-47805495D01*
X117014181Y-47805495D02*
X116909463Y-47824780D01*
X116909463Y-47824780D02*
X116728684Y-47901381D01*
X116728684Y-47901381D02*
X116623966Y-47920667D01*
X116623966Y-47920667D02*
X116557278Y-47911294D01*
X116557278Y-47911294D02*
X116461932Y-47863892D01*
X116461932Y-47863892D02*
X116404616Y-47787831D01*
X116404616Y-47787831D02*
X116385330Y-47683113D01*
X116385330Y-47683113D02*
X116394703Y-47616425D01*
X116394703Y-47616425D02*
X116442105Y-47521079D01*
X116442105Y-47521079D02*
X116632257Y-47377789D01*
X116632257Y-47377789D02*
X116775005Y-47329846D01*
X116974529Y-47119869D02*
X117430892Y-46775974D01*
X117804526Y-47746557D02*
X117202711Y-46947922D01*
D11*
X197982423Y-37130891D02*
X197605466Y-36876554D01*
X197565075Y-37291096D02*
X197284717Y-36560737D01*
X197284717Y-36560737D02*
X197562949Y-36453934D01*
X197562949Y-36453934D02*
X197645857Y-36462012D01*
X197645857Y-36462012D02*
X197693986Y-36483441D01*
X197693986Y-36483441D02*
X197755466Y-36539648D01*
X197755466Y-36539648D02*
X197795517Y-36643985D01*
X197795517Y-36643985D02*
X197787439Y-36726893D01*
X197787439Y-36726893D02*
X197766011Y-36775023D01*
X197766011Y-36775023D02*
X197709803Y-36836503D01*
X197709803Y-36836503D02*
X197431571Y-36943306D01*
X198148579Y-36628168D02*
X198392032Y-36534716D01*
X198643224Y-36877233D02*
X198295434Y-37010737D01*
X198295434Y-37010737D02*
X198015075Y-36280379D01*
X198015075Y-36280379D02*
X198362865Y-36146875D01*
X199052833Y-36281058D02*
X198809380Y-36374511D01*
X198956234Y-36757080D02*
X198675876Y-36026721D01*
X198675876Y-36026721D02*
X199023666Y-35893217D01*
X199406234Y-35746363D02*
X199472986Y-35920258D01*
X199272391Y-35917452D02*
X199472986Y-35920258D01*
X199472986Y-35920258D02*
X199620181Y-35783948D01*
X199422051Y-36099425D02*
X199472986Y-35920258D01*
X199472986Y-35920258D02*
X199630725Y-36019322D01*
X199962698Y-35532756D02*
X200029450Y-35706651D01*
X199828854Y-35703845D02*
X200029450Y-35706651D01*
X200029450Y-35706651D02*
X200176644Y-35570341D01*
X199978515Y-35885818D02*
X200029450Y-35706651D01*
X200029450Y-35706651D02*
X200187188Y-35805716D01*
D12*
%TO.C,D15*%
X169056961Y-44977559D02*
X169456962Y-44977560D01*
X169456962Y-44977560D02*
X169456964Y-44427560D01*
X169456962Y-44977560D02*
X169456965Y-45527562D01*
X169456962Y-44977560D02*
X170056959Y-44577557D01*
X170056956Y-45377562D02*
X169456962Y-44977560D01*
X170056959Y-44577557D02*
X170056956Y-45377562D01*
X170056961Y-44977561D02*
X170556959Y-44977559D01*
%TO.C,D20*%
X186034827Y-99980793D02*
X186433305Y-100015652D01*
X186433305Y-100015652D02*
X186385370Y-100563559D01*
X186433305Y-100015652D02*
X186481244Y-99467748D01*
X186433305Y-100015652D02*
X187065887Y-99669466D01*
X186996159Y-100466425D02*
X186433305Y-100015652D01*
X187031025Y-100067950D02*
X187529119Y-100111523D01*
X187065887Y-99669466D02*
X186996159Y-100466425D01*
D13*
%TO.C,PWR1*%
X163880038Y-33906966D02*
X163622834Y-34653919D01*
X165219304Y-36314131D02*
X165030202Y-36249020D01*
X168055856Y-37290835D02*
X166448477Y-36737368D01*
X170146913Y-36900343D02*
X170404115Y-36153380D01*
X170165623Y-35003062D02*
X164776171Y-33147325D01*
D12*
%TO.C,D12*%
X152056965Y-38977561D02*
X152456966Y-38977562D01*
X152456966Y-38977562D02*
X152456968Y-38427562D01*
X152456966Y-38977562D02*
X152456969Y-39527564D01*
X152456966Y-38977562D02*
X153056963Y-38577559D01*
X153056960Y-39377564D02*
X152456966Y-38977562D01*
X153056963Y-38577559D02*
X153056960Y-39377564D01*
X153056965Y-38977563D02*
X153556963Y-38977561D01*
%TO.C,D8*%
X133077212Y-62321302D02*
X133476242Y-62293400D01*
X133476242Y-62293400D02*
X133437871Y-61744739D01*
X133476242Y-62293400D02*
X133514607Y-62842063D01*
X133476242Y-62293400D02*
X134046873Y-61852518D01*
X134046873Y-61852518D02*
X134102680Y-62650572D01*
X134074780Y-62251543D02*
X134573564Y-62216666D01*
X134102680Y-62650572D02*
X133476242Y-62293400D01*
D10*
%TO.C,RST1*%
X113302107Y-48378644D02*
X113452563Y-48578302D01*
X113302107Y-48378644D02*
X118093920Y-44767749D01*
X115408458Y-51173869D02*
X115258007Y-50974213D01*
X115408458Y-51173869D02*
X120200271Y-47562974D01*
X118093920Y-44767749D02*
X118244371Y-44967405D01*
X120200271Y-47562974D02*
X120049815Y-47363316D01*
D12*
%TO.C,D2*%
X97907486Y-78899393D02*
X98302561Y-78836822D01*
X98302561Y-78836822D02*
X98216514Y-78293593D01*
X98302561Y-78836822D02*
X98388601Y-79380051D01*
X98302561Y-78836822D02*
X98832602Y-78347880D01*
X98832602Y-78347880D02*
X98957745Y-79138037D01*
X98895170Y-78742957D02*
X99389016Y-78664743D01*
X98957745Y-79138037D02*
X98302561Y-78836822D01*
%TO.C,D11*%
X152056962Y-55977561D02*
X152456963Y-55977562D01*
X152456963Y-55977562D02*
X152456965Y-55427562D01*
X152456963Y-55977562D02*
X152456966Y-56527564D01*
X152456963Y-55977562D02*
X153056960Y-55577559D01*
X153056957Y-56377564D02*
X152456963Y-55977562D01*
X153056960Y-55577559D02*
X153056957Y-56377564D01*
X153056962Y-55977563D02*
X153556960Y-55977561D01*
%TO.C,D13*%
X169056965Y-78977559D02*
X169456966Y-78977560D01*
X169456966Y-78977560D02*
X169456968Y-78427560D01*
X169456966Y-78977560D02*
X169456969Y-79527562D01*
X169456966Y-78977560D02*
X170056963Y-78577557D01*
X170056960Y-79377562D02*
X169456966Y-78977560D01*
X170056963Y-78577557D02*
X170056960Y-79377562D01*
X170056965Y-78977561D02*
X170556963Y-78977559D01*
%TO.C,D10*%
X152056961Y-72977560D02*
X152456962Y-72977561D01*
X152456962Y-72977561D02*
X152456964Y-72427561D01*
X152456962Y-72977561D02*
X152456965Y-73527563D01*
X152456962Y-72977561D02*
X153056959Y-72577558D01*
X153056956Y-73377563D02*
X152456962Y-72977561D01*
X153056959Y-72577558D02*
X153056956Y-73377563D01*
X153056961Y-72977562D02*
X153556959Y-72977560D01*
%TO.C,D6*%
X112038802Y-59449302D02*
X112433877Y-59386731D01*
X112433877Y-59386731D02*
X112347830Y-58843502D01*
X112433877Y-59386731D02*
X112519917Y-59929960D01*
X112433877Y-59386731D02*
X112963918Y-58897789D01*
X112963918Y-58897789D02*
X113089061Y-59687946D01*
X113026486Y-59292866D02*
X113520332Y-59214652D01*
X113089061Y-59687946D02*
X112433877Y-59386731D01*
%TO.C,D21*%
X205457657Y-104353579D02*
X205833540Y-104490385D01*
X205833540Y-104490385D02*
X205645423Y-105007217D01*
X205833540Y-104490385D02*
X206021648Y-103973555D01*
X205833540Y-104490385D02*
X206534157Y-104319723D01*
X206260541Y-105071474D02*
X205833540Y-104490385D01*
X206397350Y-104695596D02*
X206867197Y-104866605D01*
X206534157Y-104319723D02*
X206260541Y-105071474D01*
%TO.C,D19*%
X168056961Y-98977556D02*
X168456962Y-98977557D01*
X168456962Y-98977557D02*
X168456964Y-98427557D01*
X168456962Y-98977557D02*
X168456965Y-99527559D01*
X168456962Y-98977557D02*
X169056959Y-98577554D01*
X169056956Y-99377559D02*
X168456962Y-98977557D01*
X169056959Y-98577554D02*
X169056956Y-99377559D01*
X169056961Y-98977558D02*
X169556959Y-98977556D01*
%TO.C,D5*%
X114698187Y-76240009D02*
X115093262Y-76177438D01*
X115093262Y-76177438D02*
X115007215Y-75634209D01*
X115093262Y-76177438D02*
X115179302Y-76720667D01*
X115093262Y-76177438D02*
X115623303Y-75688496D01*
X115623303Y-75688496D02*
X115748446Y-76478653D01*
X115685871Y-76083573D02*
X116179717Y-76005359D01*
X115748446Y-76478653D02*
X115093262Y-76177438D01*
%TO.C,D17*%
X186056956Y-63977556D02*
X186456957Y-63977557D01*
X186456957Y-63977557D02*
X186456959Y-63427557D01*
X186456957Y-63977557D02*
X186456960Y-64527559D01*
X186456957Y-63977557D02*
X187056954Y-63577554D01*
X187056951Y-64377559D02*
X186456957Y-63977557D01*
X187056954Y-63577554D02*
X187056951Y-64377559D01*
X187056956Y-63977558D02*
X187556954Y-63977556D01*
%TO.C,D7*%
X134263068Y-79279886D02*
X134662098Y-79251984D01*
X134662098Y-79251984D02*
X134623727Y-78703323D01*
X134662098Y-79251984D02*
X134700463Y-79800647D01*
X134662098Y-79251984D02*
X135232729Y-78811102D01*
X135232729Y-78811102D02*
X135288536Y-79609156D01*
X135260636Y-79210127D02*
X135759420Y-79175250D01*
X135288536Y-79609156D02*
X134662098Y-79251984D01*
%TO.C,D3*%
X95248097Y-62108689D02*
X95643172Y-62046118D01*
X95643172Y-62046118D02*
X95557125Y-61502889D01*
X95643172Y-62046118D02*
X95729212Y-62589347D01*
X95643172Y-62046118D02*
X96173213Y-61557176D01*
X96173213Y-61557176D02*
X96298356Y-62347333D01*
X96235781Y-61952253D02*
X96729627Y-61874039D01*
X96298356Y-62347333D02*
X95643172Y-62046118D01*
%TO.C,D4*%
X117357574Y-93030706D02*
X117752649Y-92968135D01*
X117752649Y-92968135D02*
X117666602Y-92424906D01*
X117752649Y-92968135D02*
X117838689Y-93511364D01*
X117752649Y-92968135D02*
X118282690Y-92479193D01*
X118282690Y-92479193D02*
X118407833Y-93269350D01*
X118345258Y-92874270D02*
X118839104Y-92796056D01*
X118407833Y-93269350D02*
X117752649Y-92968135D01*
%TO.C,D16*%
X186056961Y-80977555D02*
X186456962Y-80977556D01*
X186456962Y-80977556D02*
X186456964Y-80427556D01*
X186456962Y-80977556D02*
X186456965Y-81527558D01*
X186456962Y-80977556D02*
X187056959Y-80577553D01*
X187056956Y-81377558D02*
X186456962Y-80977556D01*
X187056959Y-80577553D02*
X187056956Y-81377558D01*
X187056961Y-80977557D02*
X187556959Y-80977555D01*
%TO.C,D14*%
X169056963Y-61977553D02*
X169456964Y-61977554D01*
X169456964Y-61977554D02*
X169456966Y-61427554D01*
X169456964Y-61977554D02*
X169456967Y-62527556D01*
X169456964Y-61977554D02*
X170056961Y-61577551D01*
X170056958Y-62377556D02*
X169456964Y-61977554D01*
X170056961Y-61577551D02*
X170056958Y-62377556D01*
X170056963Y-61977555D02*
X170556961Y-61977553D01*
%TO.C,D1*%
X100566873Y-95690096D02*
X100961948Y-95627525D01*
X100961948Y-95627525D02*
X100875901Y-95084296D01*
X100961948Y-95627525D02*
X101047988Y-96170754D01*
X100961948Y-95627525D02*
X101491989Y-95138583D01*
X101491989Y-95138583D02*
X101617132Y-95928740D01*
X101554557Y-95533660D02*
X102048403Y-95455446D01*
X101617132Y-95928740D02*
X100961948Y-95627525D01*
%TO.C,D18*%
X186056961Y-46977557D02*
X186456962Y-46977558D01*
X186456962Y-46977558D02*
X186456964Y-46427558D01*
X186456962Y-46977558D02*
X186456965Y-47527560D01*
X186456962Y-46977558D02*
X187056959Y-46577555D01*
X187056956Y-47377560D02*
X186456962Y-46977558D01*
X187056959Y-46577555D02*
X187056956Y-47377560D01*
X187056961Y-46977559D02*
X187556959Y-46977557D01*
%TO.C,D9*%
X131891354Y-45362712D02*
X132290384Y-45334810D01*
X132290384Y-45334810D02*
X132252013Y-44786149D01*
X132290384Y-45334810D02*
X132328749Y-45883473D01*
X132290384Y-45334810D02*
X132861015Y-44893928D01*
X132861015Y-44893928D02*
X132916822Y-45691982D01*
X132888922Y-45292953D02*
X133387706Y-45258076D01*
X132916822Y-45691982D02*
X132290384Y-45334810D01*
%TO.C,JST1*%
X198029998Y-60770003D02*
X199030001Y-60769999D01*
X203129998Y-60269999D02*
X203130000Y-61269999D01*
X203630003Y-60770001D02*
X202630003Y-60770002D01*
%TO.C,REF\u002A\u002A*%
X197861953Y-57490559D02*
X197861957Y-40345568D01*
X199766959Y-59395563D02*
X213736956Y-59395558D01*
D14*
X202256961Y-38440564D02*
X202260687Y-37430292D01*
X202760682Y-36930560D02*
X210755960Y-36930558D01*
X211255958Y-37430558D02*
X211255962Y-38440563D01*
D12*
X213736959Y-38440561D02*
X199766959Y-38440560D01*
X215641954Y-57490557D02*
X215641962Y-40345559D01*
X197861957Y-40341561D02*
G75*
G02*
X199766959Y-38436564I1905000J-3D01*
G01*
X199766959Y-59395563D02*
G75*
G02*
X197861953Y-57490559I-1J1905005D01*
G01*
D14*
X202260687Y-37430292D02*
G75*
G02*
X202760682Y-36930560I500010J-278D01*
G01*
X210755960Y-36930558D02*
G75*
G02*
X211255960Y-37430558I-102J-500102D01*
G01*
D12*
X213736959Y-38440561D02*
G75*
G02*
X215641957Y-40345559I-31J-1905029D01*
G01*
X215641954Y-57490557D02*
G75*
G02*
X213736956Y-59395556I-1905006J7D01*
G01*
D15*
X197903958Y-38856560D02*
G75*
G02*
X197399958Y-38856560I-252000J0D01*
G01*
X197399958Y-38856560D02*
G75*
G02*
X197903958Y-38856560I252000J0D01*
G01*
D16*
X199177960Y-39573559D02*
G75*
G02*
X198673960Y-39573559I-252000J0D01*
G01*
X198673960Y-39573559D02*
G75*
G02*
X199177960Y-39573559I252000J0D01*
G01*
%TD*%
M02*
