%TF.GenerationSoftware,KiCad,Pcbnew,9.0.3*%
%TF.CreationDate,2025-09-18T15:13:03+02:00*%
%TF.ProjectId,reversible,72657665-7273-4696-926c-652e6b696361,v1.0.0*%
%TF.SameCoordinates,Original*%
%TF.FileFunction,Profile,NP*%
%FSLAX46Y46*%
G04 Gerber Fmt 4.6, Leading zero omitted, Abs format (unit mm)*
G04 Created by KiCad (PCBNEW 9.0.3) date 2025-09-18 15:13:03*
%MOMM*%
%LPD*%
G01*
G04 APERTURE LIST*
%TA.AperFunction,Profile*%
%ADD10C,0.150000*%
%TD*%
%TA.AperFunction,Profile*%
%ADD11C,0.050000*%
%TD*%
%TA.AperFunction,Profile*%
%ADD12C,0.100000*%
%TD*%
G04 APERTURE END LIST*
D10*
X217944958Y-102049450D02*
X212083119Y-117642066D01*
X175686988Y-111327557D02*
X159409063Y-111182902D01*
X218072879Y-101344849D02*
G75*
G02*
X217944967Y-102049453I-2000479J-751D01*
G01*
X95330188Y-108852419D02*
G75*
G02*
X93023452Y-107192928I-331388J1972319D01*
G01*
X212083119Y-117642066D02*
G75*
G02*
X209526998Y-118817667I-1872119J703866D01*
G01*
X162464375Y-32177555D02*
G75*
G02*
X163130008Y-32291588I-175J-2000745D01*
G01*
X175686988Y-111327557D02*
G75*
G02*
X175826246Y-111333659I-17588J-1993543D01*
G01*
X216047781Y-38177559D02*
G75*
G02*
X218047741Y-40176740I19J-1999941D01*
G01*
X180149545Y-38177556D02*
X216047781Y-38177559D01*
X192321564Y-112632772D02*
X175826246Y-111333656D01*
X158307886Y-110840684D02*
X143500492Y-100845691D01*
X141986693Y-100542756D02*
G75*
G02*
X143500489Y-100845696I394807J-1960844D01*
G01*
X127847102Y-103389284D02*
X95330188Y-108852419D01*
X102230486Y-53892296D02*
G75*
G02*
X101358997Y-54256064I-1184486J1611896D01*
G01*
X121942331Y-39406197D02*
G75*
G02*
X122479844Y-39125312I1184469J-1611903D01*
G01*
X127910586Y-103377566D02*
G75*
G02*
X127847102Y-103389283I-394986J1962266D01*
G01*
X93023439Y-107192930D02*
X85361100Y-58814807D01*
D11*
X217240000Y-94400000D02*
X196239998Y-94399999D01*
X196240001Y-62400002D01*
X217239999Y-62400002D01*
X217240000Y-94400000D01*
D10*
X218047781Y-40176740D02*
X218072879Y-101344849D01*
X102230486Y-53892296D02*
X121942331Y-39406197D01*
X142492466Y-32285055D02*
G75*
G02*
X143139320Y-32177559I646934J-1892945D01*
G01*
X87023606Y-56526561D02*
X101358996Y-54256058D01*
X122479839Y-39125298D02*
X142492466Y-32285055D01*
X141986693Y-100542756D02*
X127910586Y-103377566D01*
X209526999Y-118817664D02*
X192848578Y-112747211D01*
X163130013Y-32291574D02*
X179483906Y-38063541D01*
X143139320Y-32177557D02*
X162464375Y-32177555D01*
X159409063Y-111182902D02*
G75*
G02*
X158307883Y-110840689I17837J2000202D01*
G01*
X85361100Y-58814807D02*
G75*
G02*
X87023614Y-56526612I1975400J312807D01*
G01*
X192321564Y-112632772D02*
G75*
G02*
X192848574Y-112747222I-157064J-1993828D01*
G01*
X180149545Y-38177556D02*
G75*
G02*
X179483907Y-38063539I-45J1999756D01*
G01*
D12*
%TO.C,CPG1316*%
X112961923Y-93771327D02*
G75*
G02*
X111761923Y-93771327I-600000J0D01*
G01*
X111761923Y-93771327D02*
G75*
G02*
X112961923Y-93771327I600000J0D01*
G01*
X113722312Y-99203612D02*
G75*
G02*
X112722316Y-99203612I-499998J0D01*
G01*
X112722316Y-99203612D02*
G75*
G02*
X113722312Y-99203612I499998J0D01*
G01*
X124419114Y-91956688D02*
G75*
G02*
X123219102Y-91956688I-600006J0D01*
G01*
X123219102Y-91956688D02*
G75*
G02*
X124419114Y-91956688I600006J0D01*
G01*
X125179503Y-97388973D02*
G75*
G02*
X124179495Y-97388973I-500004J0D01*
G01*
X124179495Y-97388973D02*
G75*
G02*
X125179503Y-97388973I500004J0D01*
G01*
X164606960Y-78927555D02*
G75*
G02*
X163406954Y-78927555I-600003J0D01*
G01*
X163406954Y-78927555D02*
G75*
G02*
X164606960Y-78927555I600003J0D01*
G01*
X164506959Y-84427557D02*
G75*
G02*
X163506967Y-84427557I-499996J0D01*
G01*
X163506967Y-84427557D02*
G75*
G02*
X164506959Y-84427557I499996J0D01*
G01*
X176206960Y-78927561D02*
G75*
G02*
X175006946Y-78927561I-600007J0D01*
G01*
X175006946Y-78927561D02*
G75*
G02*
X176206960Y-78927561I600007J0D01*
G01*
X176106958Y-84427563D02*
G75*
G02*
X175106960Y-84427563I-499999J0D01*
G01*
X175106960Y-84427563D02*
G75*
G02*
X176106958Y-84427563I499999J0D01*
G01*
X127450165Y-45665102D02*
G75*
G02*
X126250163Y-45665102I-600001J0D01*
G01*
X126250163Y-45665102D02*
G75*
G02*
X127450165Y-45665102I600001J0D01*
G01*
X127733822Y-51151701D02*
G75*
G02*
X126733832Y-51151701I-499995J0D01*
G01*
X126733832Y-51151701D02*
G75*
G02*
X127733822Y-51151701I499995J0D01*
G01*
X139021908Y-44855929D02*
G75*
G02*
X137821902Y-44855929I-600003J0D01*
G01*
X137821902Y-44855929D02*
G75*
G02*
X139021908Y-44855929I600003J0D01*
G01*
X139305571Y-50342528D02*
G75*
G02*
X138305565Y-50342528I-500003J0D01*
G01*
X138305565Y-50342528D02*
G75*
G02*
X139305571Y-50342528I500003J0D01*
G01*
X163606962Y-98927553D02*
G75*
G02*
X162406956Y-98927553I-600003J0D01*
G01*
X162406956Y-98927553D02*
G75*
G02*
X163606962Y-98927553I600003J0D01*
G01*
X163506961Y-104427555D02*
G75*
G02*
X162506969Y-104427555I-499996J0D01*
G01*
X162506969Y-104427555D02*
G75*
G02*
X163506961Y-104427555I499996J0D01*
G01*
X175206962Y-98927559D02*
G75*
G02*
X174006948Y-98927559I-600007J0D01*
G01*
X174006948Y-98927559D02*
G75*
G02*
X175206962Y-98927559I600007J0D01*
G01*
X175106960Y-104427561D02*
G75*
G02*
X174106962Y-104427561I-499999J0D01*
G01*
X174106962Y-104427561D02*
G75*
G02*
X175106960Y-104427561I499999J0D01*
G01*
X93511836Y-79640000D02*
G75*
G02*
X92311836Y-79640000I-600000J0D01*
G01*
X92311836Y-79640000D02*
G75*
G02*
X93511836Y-79640000I600000J0D01*
G01*
X94272225Y-85072285D02*
G75*
G02*
X93272229Y-85072285I-499998J0D01*
G01*
X93272229Y-85072285D02*
G75*
G02*
X94272225Y-85072285I499998J0D01*
G01*
X104969027Y-77825361D02*
G75*
G02*
X103769015Y-77825361I-600006J0D01*
G01*
X103769015Y-77825361D02*
G75*
G02*
X104969027Y-77825361I600006J0D01*
G01*
X105729416Y-83257646D02*
G75*
G02*
X104729408Y-83257646I-500004J0D01*
G01*
X104729408Y-83257646D02*
G75*
G02*
X105729416Y-83257646I500004J0D01*
G01*
X181606965Y-46927556D02*
G75*
G02*
X180406959Y-46927556I-600003J0D01*
G01*
X180406959Y-46927556D02*
G75*
G02*
X181606965Y-46927556I600003J0D01*
G01*
X181506964Y-52427558D02*
G75*
G02*
X180506972Y-52427558I-499996J0D01*
G01*
X180506972Y-52427558D02*
G75*
G02*
X181506964Y-52427558I499996J0D01*
G01*
X193206965Y-46927562D02*
G75*
G02*
X192006951Y-46927562I-600007J0D01*
G01*
X192006951Y-46927562D02*
G75*
G02*
X193206965Y-46927562I600007J0D01*
G01*
X193106963Y-52427564D02*
G75*
G02*
X192106965Y-52427564I-499999J0D01*
G01*
X192106965Y-52427564D02*
G75*
G02*
X193106963Y-52427564I499999J0D01*
G01*
X128636031Y-62623687D02*
G75*
G02*
X127436029Y-62623687I-600001J0D01*
G01*
X127436029Y-62623687D02*
G75*
G02*
X128636031Y-62623687I600001J0D01*
G01*
X128919688Y-68110286D02*
G75*
G02*
X127919698Y-68110286I-499995J0D01*
G01*
X127919698Y-68110286D02*
G75*
G02*
X128919688Y-68110286I499995J0D01*
G01*
X140207774Y-61814514D02*
G75*
G02*
X139007768Y-61814514I-600003J0D01*
G01*
X139007768Y-61814514D02*
G75*
G02*
X140207774Y-61814514I600003J0D01*
G01*
X140491437Y-67301113D02*
G75*
G02*
X139491431Y-67301113I-500003J0D01*
G01*
X139491431Y-67301113D02*
G75*
G02*
X140491437Y-67301113I500003J0D01*
G01*
X129821887Y-79582281D02*
G75*
G02*
X128621885Y-79582281I-600001J0D01*
G01*
X128621885Y-79582281D02*
G75*
G02*
X129821887Y-79582281I600001J0D01*
G01*
X130105544Y-85068880D02*
G75*
G02*
X129105554Y-85068880I-499995J0D01*
G01*
X129105554Y-85068880D02*
G75*
G02*
X130105544Y-85068880I499995J0D01*
G01*
X141393630Y-78773108D02*
G75*
G02*
X140193624Y-78773108I-600003J0D01*
G01*
X140193624Y-78773108D02*
G75*
G02*
X141393630Y-78773108I600003J0D01*
G01*
X141677293Y-84259707D02*
G75*
G02*
X140677287Y-84259707I-500003J0D01*
G01*
X140677287Y-84259707D02*
G75*
G02*
X141677293Y-84259707I500003J0D01*
G01*
X164606964Y-44927550D02*
G75*
G02*
X163406958Y-44927550I-600003J0D01*
G01*
X163406958Y-44927550D02*
G75*
G02*
X164606964Y-44927550I600003J0D01*
G01*
X164506963Y-50427552D02*
G75*
G02*
X163506971Y-50427552I-499996J0D01*
G01*
X163506971Y-50427552D02*
G75*
G02*
X164506963Y-50427552I499996J0D01*
G01*
X176206964Y-44927556D02*
G75*
G02*
X175006950Y-44927556I-600007J0D01*
G01*
X175006950Y-44927556D02*
G75*
G02*
X176206964Y-44927556I600007J0D01*
G01*
X176106962Y-50427558D02*
G75*
G02*
X175106964Y-50427558I-499999J0D01*
G01*
X175106964Y-50427558D02*
G75*
G02*
X176106962Y-50427558I499999J0D01*
G01*
X147606961Y-55927552D02*
G75*
G02*
X146406955Y-55927552I-600003J0D01*
G01*
X146406955Y-55927552D02*
G75*
G02*
X147606961Y-55927552I600003J0D01*
G01*
X147506960Y-61427554D02*
G75*
G02*
X146506968Y-61427554I-499996J0D01*
G01*
X146506968Y-61427554D02*
G75*
G02*
X147506960Y-61427554I499996J0D01*
G01*
X159206961Y-55927558D02*
G75*
G02*
X158006947Y-55927558I-600007J0D01*
G01*
X158006947Y-55927558D02*
G75*
G02*
X159206961Y-55927558I600007J0D01*
G01*
X159106959Y-61427560D02*
G75*
G02*
X158106961Y-61427560I-499999J0D01*
G01*
X158106961Y-61427560D02*
G75*
G02*
X159106959Y-61427560I499999J0D01*
G01*
X181606963Y-63927556D02*
G75*
G02*
X180406957Y-63927556I-600003J0D01*
G01*
X180406957Y-63927556D02*
G75*
G02*
X181606963Y-63927556I600003J0D01*
G01*
X181506962Y-69427558D02*
G75*
G02*
X180506970Y-69427558I-499996J0D01*
G01*
X180506970Y-69427558D02*
G75*
G02*
X181506962Y-69427558I499996J0D01*
G01*
X193206963Y-63927562D02*
G75*
G02*
X192006949Y-63927562I-600007J0D01*
G01*
X192006949Y-63927562D02*
G75*
G02*
X193206963Y-63927562I600007J0D01*
G01*
X193106961Y-69427564D02*
G75*
G02*
X192106963Y-69427564I-499999J0D01*
G01*
X192106963Y-69427564D02*
G75*
G02*
X193106961Y-69427564I499999J0D01*
G01*
X164606958Y-61927555D02*
G75*
G02*
X163406952Y-61927555I-600003J0D01*
G01*
X163406952Y-61927555D02*
G75*
G02*
X164606958Y-61927555I600003J0D01*
G01*
X164506957Y-67427557D02*
G75*
G02*
X163506965Y-67427557I-499996J0D01*
G01*
X163506965Y-67427557D02*
G75*
G02*
X164506957Y-67427557I499996J0D01*
G01*
X176206958Y-61927561D02*
G75*
G02*
X175006944Y-61927561I-600007J0D01*
G01*
X175006944Y-61927561D02*
G75*
G02*
X176206958Y-61927561I600007J0D01*
G01*
X176106956Y-67427563D02*
G75*
G02*
X175106958Y-67427563I-499999J0D01*
G01*
X175106958Y-67427563D02*
G75*
G02*
X176106956Y-67427563I499999J0D01*
G01*
X90852448Y-62849303D02*
G75*
G02*
X89652448Y-62849303I-600000J0D01*
G01*
X89652448Y-62849303D02*
G75*
G02*
X90852448Y-62849303I600000J0D01*
G01*
X91612837Y-68281588D02*
G75*
G02*
X90612841Y-68281588I-499998J0D01*
G01*
X90612841Y-68281588D02*
G75*
G02*
X91612837Y-68281588I499998J0D01*
G01*
X102309639Y-61034664D02*
G75*
G02*
X101109627Y-61034664I-600006J0D01*
G01*
X101109627Y-61034664D02*
G75*
G02*
X102309639Y-61034664I600006J0D01*
G01*
X103070028Y-66466949D02*
G75*
G02*
X102070020Y-66466949I-500004J0D01*
G01*
X102070020Y-66466949D02*
G75*
G02*
X103070028Y-66466949I500004J0D01*
G01*
X147606966Y-38927555D02*
G75*
G02*
X146406960Y-38927555I-600003J0D01*
G01*
X146406960Y-38927555D02*
G75*
G02*
X147606966Y-38927555I600003J0D01*
G01*
X147506965Y-44427557D02*
G75*
G02*
X146506973Y-44427557I-499996J0D01*
G01*
X146506973Y-44427557D02*
G75*
G02*
X147506965Y-44427557I499996J0D01*
G01*
X159206966Y-38927561D02*
G75*
G02*
X158006952Y-38927561I-600007J0D01*
G01*
X158006952Y-38927561D02*
G75*
G02*
X159206966Y-38927561I600007J0D01*
G01*
X159106964Y-44427563D02*
G75*
G02*
X158106966Y-44427563I-499999J0D01*
G01*
X158106966Y-44427563D02*
G75*
G02*
X159106964Y-44427563I499999J0D01*
G01*
X181606963Y-80927552D02*
G75*
G02*
X180406957Y-80927552I-600003J0D01*
G01*
X180406957Y-80927552D02*
G75*
G02*
X181606963Y-80927552I600003J0D01*
G01*
X181506962Y-86427554D02*
G75*
G02*
X180506970Y-86427554I-499996J0D01*
G01*
X180506970Y-86427554D02*
G75*
G02*
X181506962Y-86427554I499996J0D01*
G01*
X193206963Y-80927558D02*
G75*
G02*
X192006949Y-80927558I-600007J0D01*
G01*
X192006949Y-80927558D02*
G75*
G02*
X193206963Y-80927558I600007J0D01*
G01*
X193106961Y-86427560D02*
G75*
G02*
X192106963Y-86427560I-499999J0D01*
G01*
X192106963Y-86427560D02*
G75*
G02*
X193106961Y-86427560I499999J0D01*
G01*
X107643149Y-60189910D02*
G75*
G02*
X106443149Y-60189910I-600000J0D01*
G01*
X106443149Y-60189910D02*
G75*
G02*
X107643149Y-60189910I600000J0D01*
G01*
X108403538Y-65622195D02*
G75*
G02*
X107403542Y-65622195I-499998J0D01*
G01*
X107403542Y-65622195D02*
G75*
G02*
X108403538Y-65622195I499998J0D01*
G01*
X119100340Y-58375271D02*
G75*
G02*
X117900328Y-58375271I-600006J0D01*
G01*
X117900328Y-58375271D02*
G75*
G02*
X119100340Y-58375271I600006J0D01*
G01*
X119860729Y-63807556D02*
G75*
G02*
X118860721Y-63807556I-500004J0D01*
G01*
X118860721Y-63807556D02*
G75*
G02*
X119860729Y-63807556I500004J0D01*
G01*
X199348194Y-107747705D02*
G75*
G02*
X198348206Y-107747705I-499994J0D01*
G01*
X198348206Y-107747705D02*
G75*
G02*
X199348194Y-107747705I499994J0D01*
G01*
X201329313Y-102579403D02*
G75*
G02*
X200129307Y-102579403I-600003J0D01*
G01*
X200129307Y-102579403D02*
G75*
G02*
X201329313Y-102579403I600003J0D01*
G01*
X210248620Y-111715137D02*
G75*
G02*
X209248632Y-111715137I-499994J0D01*
G01*
X209248632Y-111715137D02*
G75*
G02*
X210248620Y-111715137I499994J0D01*
G01*
X212229740Y-106546835D02*
G75*
G02*
X211029732Y-106546835I-600004J0D01*
G01*
X211029732Y-106546835D02*
G75*
G02*
X212229740Y-106546835I600004J0D01*
G01*
X147606964Y-72927554D02*
G75*
G02*
X146406958Y-72927554I-600003J0D01*
G01*
X146406958Y-72927554D02*
G75*
G02*
X147606964Y-72927554I600003J0D01*
G01*
X147506963Y-78427556D02*
G75*
G02*
X146506971Y-78427556I-499996J0D01*
G01*
X146506971Y-78427556D02*
G75*
G02*
X147506963Y-78427556I499996J0D01*
G01*
X159206964Y-72927560D02*
G75*
G02*
X158006950Y-72927560I-600007J0D01*
G01*
X158006950Y-72927560D02*
G75*
G02*
X159206964Y-72927560I600007J0D01*
G01*
X159106962Y-78427562D02*
G75*
G02*
X158106964Y-78427562I-499999J0D01*
G01*
X158106964Y-78427562D02*
G75*
G02*
X159106962Y-78427562I499999J0D01*
G01*
D10*
%TO.C,XIAOBLE*%
X201806961Y-45877559D02*
X204806961Y-45877559D01*
X201806961Y-49577559D02*
X201806961Y-45877559D01*
X204806961Y-45877559D02*
X204806961Y-49577559D01*
X204806961Y-49577559D02*
X201806961Y-49577559D01*
X205481961Y-39959059D02*
X208021961Y-39959059D01*
X205481961Y-43399059D02*
X205481961Y-39959059D01*
X208021961Y-43399059D02*
X205481961Y-43399059D01*
X208021961Y-43399059D02*
X208021961Y-39959059D01*
X208806961Y-45877560D02*
X208806961Y-49577559D01*
X208806961Y-49577559D02*
X211806961Y-49577559D01*
X211806961Y-45877559D02*
X208806961Y-45877560D01*
X211806961Y-49577559D02*
X211806961Y-45877559D01*
D12*
%TO.C,CPG1316*%
X96171224Y-96430707D02*
G75*
G02*
X94971224Y-96430707I-600000J0D01*
G01*
X94971224Y-96430707D02*
G75*
G02*
X96171224Y-96430707I600000J0D01*
G01*
X96931613Y-101862992D02*
G75*
G02*
X95931617Y-101862992I-499998J0D01*
G01*
X95931617Y-101862992D02*
G75*
G02*
X96931613Y-101862992I499998J0D01*
G01*
X107628415Y-94616068D02*
G75*
G02*
X106428403Y-94616068I-600006J0D01*
G01*
X106428403Y-94616068D02*
G75*
G02*
X107628415Y-94616068I600006J0D01*
G01*
X108388804Y-100048353D02*
G75*
G02*
X107388796Y-100048353I-500004J0D01*
G01*
X107388796Y-100048353D02*
G75*
G02*
X108388804Y-100048353I500004J0D01*
G01*
X110302544Y-76980616D02*
G75*
G02*
X109102544Y-76980616I-600000J0D01*
G01*
X109102544Y-76980616D02*
G75*
G02*
X110302544Y-76980616I600000J0D01*
G01*
X111062933Y-82412901D02*
G75*
G02*
X110062937Y-82412901I-499998J0D01*
G01*
X110062937Y-82412901D02*
G75*
G02*
X111062933Y-82412901I499998J0D01*
G01*
X121759735Y-75165977D02*
G75*
G02*
X120559723Y-75165977I-600006J0D01*
G01*
X120559723Y-75165977D02*
G75*
G02*
X121759735Y-75165977I600006J0D01*
G01*
X122520124Y-80598262D02*
G75*
G02*
X121520116Y-80598262I-500004J0D01*
G01*
X121520116Y-80598262D02*
G75*
G02*
X122520124Y-80598262I500004J0D01*
G01*
X181029039Y-104969919D02*
G75*
G02*
X180029035Y-104969919I-500002J0D01*
G01*
X180029035Y-104969919D02*
G75*
G02*
X181029039Y-104969919I500002J0D01*
G01*
X181608394Y-99490846D02*
G75*
G02*
X180408396Y-99490846I-599999J0D01*
G01*
X180408396Y-99490846D02*
G75*
G02*
X181608394Y-99490846I599999J0D01*
G01*
X192584901Y-105980920D02*
G75*
G02*
X191584901Y-105980920I-500000J0D01*
G01*
X191584901Y-105980920D02*
G75*
G02*
X192584901Y-105980920I500000J0D01*
G01*
X193164257Y-100501847D02*
G75*
G02*
X191964261Y-100501847I-599998J0D01*
G01*
X191964261Y-100501847D02*
G75*
G02*
X193164257Y-100501847I599998J0D01*
G01*
%TD*%
M02*
