%TF.GenerationSoftware,KiCad,Pcbnew,9.0.3*%
%TF.CreationDate,2025-09-20T00:38:34+02:00*%
%TF.ProjectId,reversible,72657665-7273-4696-926c-652e6b696361,v1.0.0*%
%TF.SameCoordinates,Original*%
%TF.FileFunction,Paste,Top*%
%TF.FilePolarity,Positive*%
%FSLAX46Y46*%
G04 Gerber Fmt 4.6, Leading zero omitted, Abs format (unit mm)*
G04 Created by KiCad (PCBNEW 9.0.3) date 2025-09-20 00:38:34*
%MOMM*%
%LPD*%
G01*
G04 APERTURE LIST*
G04 Aperture macros list*
%AMRotRect*
0 Rectangle, with rotation*
0 The origin of the aperture is its center*
0 $1 length*
0 $2 width*
0 $3 Rotation angle, in degrees counterclockwise*
0 Add horizontal line*
21,1,$1,$2,0,0,$3*%
G04 Aperture macros list end*
%ADD10RotRect,1.550000X2.000000X9.000000*%
%ADD11RotRect,2.000000X2.000000X9.000000*%
%ADD12R,0.900000X1.200000*%
%ADD13RotRect,0.900000X1.200000X355.000000*%
%ADD14RotRect,1.000000X0.800000X160.600000*%
%ADD15RotRect,0.700000X1.500000X160.600000*%
%ADD16RotRect,0.900000X1.200000X4.000000*%
%ADD17R,1.550000X2.000000*%
%ADD18R,2.000000X2.000000*%
%ADD19RotRect,1.550000X2.000000X4.000000*%
%ADD20RotRect,2.000000X2.000000X4.000000*%
%ADD21RotRect,0.900000X1.200000X9.000000*%
%ADD22RotRect,0.900000X1.200000X340.000000*%
%ADD23RotRect,1.550000X2.000000X340.000000*%
%ADD24RotRect,2.000000X2.000000X340.000000*%
%ADD25RotRect,1.550000X2.000000X355.000000*%
%ADD26RotRect,2.000000X2.000000X355.000000*%
G04 APERTURE END LIST*
D10*
%TO.C,CPG1316*%
X117453732Y-98432171D03*
X120416798Y-97962874D03*
D11*
X113187496Y-102499636D03*
X111310284Y-90647377D03*
X125731138Y-100512923D03*
X123853926Y-88660664D03*
%TD*%
D12*
%TO.C,D15*%
X168156959Y-44977557D03*
X171456961Y-44977563D03*
%TD*%
D13*
%TO.C,D20*%
X185138247Y-99902351D03*
X188425695Y-100189965D03*
%TD*%
D14*
%TO.C,PWR1*%
X163203802Y-35233571D03*
X170089334Y-37658345D03*
X163937881Y-33149051D03*
X170823409Y-35573826D03*
D15*
X168552917Y-37806413D03*
X165723246Y-36809931D03*
X164308408Y-36311688D03*
%TD*%
D12*
%TO.C,D12*%
X151156962Y-38977557D03*
X154456964Y-38977563D03*
%TD*%
D16*
%TO.C,D8*%
X132179411Y-62384083D03*
X135471363Y-62153887D03*
%TD*%
D17*
%TO.C,CPG1316*%
X168306957Y-84327559D03*
X171306961Y-84327564D03*
D18*
X163456955Y-75677561D03*
X163456958Y-87677554D03*
X176156958Y-75677564D03*
X176156961Y-87677557D03*
%TD*%
D19*
%TO.C,CPG1316*%
X131516376Y-50751995D03*
X134509068Y-50542727D03*
D20*
X126911876Y-54432153D03*
X126074799Y-42461385D03*
X139580933Y-53546245D03*
X138743856Y-41575477D03*
%TD*%
D17*
%TO.C,CPG1316*%
X167306959Y-104327557D03*
X170306963Y-104327562D03*
D18*
X162456957Y-95677559D03*
X162456960Y-107677552D03*
X175156960Y-95677562D03*
X175156963Y-107677555D03*
%TD*%
D21*
%TO.C,D2*%
X97018567Y-79040183D03*
X100277937Y-78523953D03*
%TD*%
D12*
%TO.C,D11*%
X151156961Y-55977556D03*
X154456963Y-55977562D03*
%TD*%
%TO.C,D13*%
X168156964Y-78977554D03*
X171456966Y-78977560D03*
%TD*%
%TO.C,D10*%
X151156958Y-72977557D03*
X154456960Y-72977563D03*
%TD*%
D10*
%TO.C,CPG1316*%
X98003645Y-84300844D03*
X100966711Y-83831547D03*
D11*
X93737409Y-88368309D03*
X91860197Y-76516050D03*
X106281051Y-86381596D03*
X104403839Y-74529337D03*
%TD*%
D21*
%TO.C,D6*%
X111149883Y-59590093D03*
X114409253Y-59073863D03*
%TD*%
D17*
%TO.C,CPG1316*%
X185306962Y-52327560D03*
X188306966Y-52327565D03*
D18*
X180456960Y-43677562D03*
X180456963Y-55677555D03*
X193156963Y-43677565D03*
X193156966Y-55677558D03*
%TD*%
D22*
%TO.C,D21*%
X204611931Y-104045757D03*
X207712917Y-105174423D03*
%TD*%
D12*
%TO.C,D19*%
X167156960Y-98977552D03*
X170456962Y-98977558D03*
%TD*%
D21*
%TO.C,D5*%
X113809269Y-76380799D03*
X117068639Y-75864569D03*
%TD*%
D19*
%TO.C,CPG1316*%
X132702242Y-67710580D03*
X135694934Y-67501312D03*
D20*
X128097742Y-71390738D03*
X127260665Y-59419970D03*
X140766799Y-70504830D03*
X139929722Y-58534062D03*
%TD*%
D12*
%TO.C,D17*%
X185156957Y-63977553D03*
X188456959Y-63977559D03*
%TD*%
D19*
%TO.C,CPG1316*%
X133888098Y-84669174D03*
X136880790Y-84459906D03*
D20*
X129283598Y-88349332D03*
X128446521Y-76378564D03*
X141952655Y-87463424D03*
X141115578Y-75492656D03*
%TD*%
D17*
%TO.C,CPG1316*%
X168306961Y-50327554D03*
X171306965Y-50327559D03*
D18*
X163456959Y-41677556D03*
X163456962Y-53677549D03*
X176156962Y-41677559D03*
X176156965Y-53677552D03*
%TD*%
D17*
%TO.C,CPG1316*%
X151306958Y-61327556D03*
X154306962Y-61327561D03*
D18*
X146456956Y-52677558D03*
X146456959Y-64677551D03*
X159156959Y-52677561D03*
X159156962Y-64677554D03*
%TD*%
D17*
%TO.C,CPG1316*%
X185306960Y-69327560D03*
X188306964Y-69327565D03*
D18*
X180456958Y-60677562D03*
X180456961Y-72677555D03*
X193156961Y-60677565D03*
X193156964Y-72677558D03*
%TD*%
D17*
%TO.C,CPG1316*%
X168306955Y-67327559D03*
X171306959Y-67327564D03*
D18*
X163456953Y-58677561D03*
X163456956Y-70677554D03*
X176156956Y-58677564D03*
X176156959Y-70677557D03*
%TD*%
D16*
%TO.C,D7*%
X133365269Y-79342667D03*
X136657221Y-79112471D03*
%TD*%
D21*
%TO.C,D3*%
X94359178Y-62249478D03*
X97618548Y-61733248D03*
%TD*%
D10*
%TO.C,CPG1316*%
X95344257Y-67510147D03*
X98307323Y-67040850D03*
D11*
X91078021Y-71577612D03*
X89200809Y-59725353D03*
X103621663Y-69590899D03*
X101744451Y-57738640D03*
%TD*%
D21*
%TO.C,D4*%
X116468655Y-93171500D03*
X119728025Y-92655270D03*
%TD*%
D17*
%TO.C,CPG1316*%
X151306963Y-44327559D03*
X154306967Y-44327564D03*
D18*
X146456961Y-35677561D03*
X146456964Y-47677554D03*
X159156964Y-35677564D03*
X159156967Y-47677557D03*
%TD*%
D12*
%TO.C,D16*%
X185156961Y-80977550D03*
X188456963Y-80977556D03*
%TD*%
%TO.C,D14*%
X168156962Y-61977551D03*
X171456964Y-61977557D03*
%TD*%
D21*
%TO.C,D1*%
X99677952Y-95830886D03*
X102937322Y-95314656D03*
%TD*%
D17*
%TO.C,CPG1316*%
X185306960Y-86327556D03*
X188306964Y-86327561D03*
D18*
X180456958Y-77677558D03*
X180456961Y-89677551D03*
X193156961Y-77677561D03*
X193156964Y-89677554D03*
%TD*%
D10*
%TO.C,CPG1316*%
X112134958Y-64850754D03*
X115098024Y-64381457D03*
D11*
X107868722Y-68918219D03*
X105991510Y-57065960D03*
X120412364Y-66931506D03*
X118535152Y-55079247D03*
%TD*%
D23*
%TO.C,CPG1316*%
X202923077Y-109124422D03*
X205742157Y-110150482D03*
D24*
X201324040Y-99337287D03*
X197219800Y-110613599D03*
X213258136Y-103680941D03*
X209153896Y-114957253D03*
%TD*%
D12*
%TO.C,D18*%
X185156961Y-46977555D03*
X188456963Y-46977561D03*
%TD*%
D16*
%TO.C,D9*%
X130993557Y-45425491D03*
X134285509Y-45195295D03*
%TD*%
D17*
%TO.C,CPG1316*%
X151306961Y-78327558D03*
X154306965Y-78327563D03*
D18*
X146456959Y-69677560D03*
X146456962Y-81677553D03*
X159156962Y-69677563D03*
X159156965Y-81677556D03*
%TD*%
D10*
%TO.C,CPG1316*%
X100663033Y-101091551D03*
X103626099Y-100622254D03*
D11*
X96396797Y-105159016D03*
X94519585Y-93306757D03*
X108940439Y-103172303D03*
X107063227Y-91320044D03*
%TD*%
D10*
%TO.C,CPG1316*%
X114794353Y-81641460D03*
X117757419Y-81172163D03*
D11*
X110528117Y-85708925D03*
X108650905Y-73856666D03*
X123071759Y-83722212D03*
X121194547Y-71869953D03*
%TD*%
D25*
%TO.C,CPG1316*%
X184821388Y-105245065D03*
X187809975Y-105506529D03*
D26*
X180743746Y-96205277D03*
X179697877Y-108159616D03*
X193395419Y-97312150D03*
X192349550Y-109266489D03*
%TD*%
M02*
