M48
; DRILL file {KiCad 9.0.3} date 2025-10-08T20:58:48+0400
; FORMAT={-:-/ absolute / inch / decimal}
; #@! TF.CreationDate,2025-10-08T20:58:48+04:00
; #@! TF.GenerationSoftware,Kicad,Pcbnew,9.0.3
; #@! TF.FileFunction,Plated,1,2,PTH
FMAT,2
INCH
; #@! TA.AperFunction,Plated,PTH,ViaDrill
T1C0.0118
; #@! TA.AperFunction,Plated,PTH,ComponentDrill
T2C0.0295
; #@! TA.AperFunction,Plated,PTH,ComponentDrill
T3C0.0394
%
G90
G05
T1
X3.6683Y-2.4582
X3.773Y-3.1192
X3.8777Y-3.7803
X3.8899Y-2.4231
X3.9946Y-3.0841
X4.0993Y-3.7452
X4.1232Y-3.6547
X4.1386Y-3.8594
X4.2783Y-2.3543
X4.3293Y-2.3535
X4.434Y-3.0145
X4.5387Y-3.6756
X4.551Y-2.3184
X4.5577Y-1.9216
X4.6031Y-2.2878
X4.6557Y-2.9794
X4.7604Y-3.6405
X4.7629Y-1.7744
X4.7685Y-2.0925
X4.7945Y-2.2469
X5.1035Y-1.9071
X5.1101Y-1.7917
X5.1173Y-2.7469
X5.1272Y-2.3618
X5.1343Y-2.5657
X5.1568Y-2.4594
X5.2035Y-3.127
X5.2291Y-1.6031
X5.2807Y-2.3437
X5.3071Y-2.0744
X5.328Y-2.7496
X5.334Y-1.776
X5.3394Y-1.8878
X5.3806Y-2.4437
X5.4035Y-2.5252
X5.413Y-1.9098
X5.4273Y-3.1114
X5.5669Y-1.761
X5.6331Y-1.6177
X5.8406Y-2.4382
X5.8567Y-1.7343
X5.861Y-2.315
X5.8638Y-1.8528
X5.8831Y-3.0079
X5.9038Y-1.5345
X5.9038Y-2.2038
X5.9038Y-2.8731
X6.0638Y-2.4996
X6.0646Y-1.8878
X6.0697Y-2.7461
X6.1282Y-2.2038
X6.1282Y-1.5345
X6.1282Y-2.8731
X6.1575Y-2.2854
X6.1665Y-2.9858
X6.3898Y-3.5594
X6.5319Y-2.5543
X6.5337Y-3.8968
X6.5731Y-3.1094
X6.5731Y-1.7708
X6.5731Y-2.4401
X6.6146Y-1.6579
X6.6382Y-1.6272
X6.6539Y-1.5563
X6.6571Y-3.4421
X6.6685Y-1.8988
X6.6882Y-2.7638
X6.6909Y-2.5543
X6.7272Y-2.1386
X6.7354Y-2.3409
X6.7581Y-3.8968
X6.7634Y-3.0087
X6.7975Y-2.4401
X6.7975Y-1.7708
X6.7975Y-3.1094
X6.8319Y-2.5571
X6.8346Y-1.9016
X7.1638Y-1.9795
X7.1748Y-2.6213
X7.2134Y-2.0638
X7.2378Y-1.6323
X7.2418Y-3.929
X7.2424Y-1.8495
X7.2424Y-3.1881
X7.2424Y-2.5188
X7.2752Y-1.9319
X7.298Y-1.961
X7.3039Y-1.9079
X7.4467Y-1.9085
X7.4634Y-1.9587
X7.4654Y-3.9486
X7.4668Y-3.1881
X7.4668Y-2.5188
X7.4668Y-1.8495
X7.4748Y-1.9291
X7.5Y-1.7579
X7.837Y-1.9693
X7.8783Y-1.8126
X7.8799Y-2.0465
X7.8823Y-1.6862
X7.8866Y-1.561
X7.889Y-1.7236
X7.8955Y-2.0947
X7.8961Y-2.1957
X7.9063Y-1.7539
X7.9087Y-1.537
X8.0112Y-4.0801
X8.0295Y-1.6925
X8.0295Y-1.6402
X8.2221Y-4.1569
X8.3906Y-2.2311
X8.3933Y-2.1307
X8.4047Y-2.0819
X8.4169Y-1.5843
X8.4209Y-1.7902
X8.4256Y-1.8642
X8.461Y-1.9874
X8.5059Y-1.5638
X8.5323Y-1.8795
T2
X7.8673Y-2.3965
X7.9461Y-2.3965
T3
X3.7537Y-2.6579
X3.8584Y-3.3189
X3.8704Y-2.6394
X3.9631Y-3.98
X3.9751Y-3.3005
X4.0798Y-3.9615
X4.4148Y-2.5532
X4.5195Y-3.2142
X4.5314Y-2.5347
X4.6242Y-3.8753
X4.6361Y-3.1958
X4.7408Y-3.8568
X5.1778Y-1.9981
X5.2245Y-2.6658
X5.2712Y-3.3334
X5.2956Y-1.9899
X5.3423Y-2.6575
X5.389Y-3.3252
X5.957Y-2.4145
X5.957Y-3.0838
X5.957Y-1.7452
X6.0751Y-2.4145
X6.0751Y-3.0838
X6.0751Y-1.7452
X6.5869Y-4.1074
X6.6263Y-2.6507
X6.6263Y-3.32
X6.6263Y-1.9814
X6.705Y-4.1074
X6.7444Y-2.6507
X6.7444Y-3.32
X6.7444Y-1.9814
X7.2764Y-4.1435
X7.2955Y-2.7294
X7.2955Y-3.3987
X7.2955Y-2.0601
X7.3941Y-4.1538
X7.4137Y-2.7294
X7.4137Y-3.3987
X7.4137Y-2.0601
X7.9452Y-1.9159
X7.9452Y-1.8409
X7.9891Y-4.2962
X8.0898Y-1.5909
X8.0898Y-1.6909
X8.1001Y-4.3366
X8.1898Y-1.6909
X8.1898Y-1.5909
X8.3389Y-1.9159
X8.3389Y-1.8409
M30
