%TF.GenerationSoftware,KiCad,Pcbnew,9.0.3*%
%TF.CreationDate,2025-10-08T20:58:50+04:00*%
%TF.ProjectId,reversible,72657665-7273-4696-926c-652e6b696361,v1.0.0*%
%TF.SameCoordinates,Original*%
%TF.FileFunction,Legend,Top*%
%TF.FilePolarity,Positive*%
%FSLAX46Y46*%
G04 Gerber Fmt 4.6, Leading zero omitted, Abs format (unit mm)*
G04 Created by KiCad (PCBNEW 9.0.3) date 2025-10-08 20:58:50*
%MOMM*%
%LPD*%
G01*
G04 APERTURE LIST*
%ADD10C,0.300000*%
%ADD11C,0.150000*%
%ADD12C,0.106680*%
%ADD13C,0.100000*%
%ADD14C,0.120000*%
%ADD15C,0.127000*%
%ADD16C,0.503998*%
G04 APERTURE END LIST*
D10*
G36*
X143561308Y-99946908D02*
G01*
X143480460Y-99886284D01*
X143416498Y-99821468D01*
X143367438Y-99752205D01*
X143331180Y-99675929D01*
X143310903Y-99598793D01*
X143305798Y-99519530D01*
X143315942Y-99440717D01*
X143341873Y-99361926D01*
X143385069Y-99281931D01*
X143533624Y-99053176D01*
X143589910Y-98980081D01*
X143651535Y-98924137D01*
X143718988Y-98883273D01*
X143793078Y-98856188D01*
X143871612Y-98843602D01*
X143956070Y-98845791D01*
X144039299Y-98862438D01*
X144124527Y-98894507D01*
X144212794Y-98943708D01*
X144304250Y-99012689D01*
X144373363Y-99084643D01*
X144423270Y-99159918D01*
X144456074Y-99239409D01*
X144472231Y-99324103D01*
X144469735Y-99408209D01*
X144448331Y-99493643D01*
X144406116Y-99582211D01*
X144149171Y-99415349D01*
X144166009Y-99371251D01*
X144169478Y-99328325D01*
X144160098Y-99284841D01*
X144139717Y-99244533D01*
X144108382Y-99207247D01*
X144064190Y-99172539D01*
X144009631Y-99144273D01*
X143961065Y-99132371D01*
X143916457Y-99134154D01*
X143874581Y-99149032D01*
X143835273Y-99178119D01*
X143797636Y-99224628D01*
X143649082Y-99453382D01*
X143622574Y-99505512D01*
X143612046Y-99553057D01*
X143615257Y-99597961D01*
X143631523Y-99639968D01*
X143661979Y-99679765D01*
X143709863Y-99718154D01*
X143759543Y-99744537D01*
X143806176Y-99758270D01*
X143850917Y-99760939D01*
X143894025Y-99752187D01*
X143932035Y-99731350D01*
X143966296Y-99696952D01*
X144223241Y-99863814D01*
X144159472Y-99938444D01*
X144090112Y-99992769D01*
X144014284Y-100029269D01*
X143930346Y-100048960D01*
X143844412Y-100051291D01*
X143755363Y-100036294D01*
X143661526Y-100002408D01*
X143561308Y-99946908D01*
G37*
G36*
X144200769Y-100337170D02*
G01*
X145035130Y-99052367D01*
X145299142Y-99223818D01*
X145093420Y-99540602D01*
X144971400Y-99709158D01*
X145028056Y-99667347D01*
X145088684Y-99641037D01*
X145154697Y-99629212D01*
X145221809Y-99632361D01*
X145288583Y-99650955D01*
X145356489Y-99686432D01*
X145420898Y-99737491D01*
X145468241Y-99794745D01*
X145500580Y-99858998D01*
X145518630Y-99931844D01*
X145521533Y-100006672D01*
X145509336Y-100083622D01*
X145480823Y-100164131D01*
X145433744Y-100249560D01*
X145027987Y-100874371D01*
X144763975Y-100702920D01*
X145152572Y-100104533D01*
X145179455Y-100052422D01*
X145190771Y-100005471D01*
X145188909Y-99961804D01*
X145174675Y-99920640D01*
X145147795Y-99883342D01*
X145105874Y-99849017D01*
X145057412Y-99824647D01*
X145012354Y-99815228D01*
X144968911Y-99818936D01*
X144928310Y-99835018D01*
X144890045Y-99864468D01*
X144853378Y-99910235D01*
X144464781Y-100508621D01*
X144200769Y-100337170D01*
G37*
G36*
X146046666Y-100204455D02*
G01*
X146129284Y-100220645D01*
X146217783Y-100254260D01*
X146313677Y-100308037D01*
X146406253Y-100377125D01*
X146475180Y-100446909D01*
X146524115Y-100517719D01*
X146555703Y-100590365D01*
X146571182Y-100668190D01*
X146568128Y-100745479D01*
X146546176Y-100824286D01*
X146503062Y-100906525D01*
X146080195Y-101557683D01*
X145825017Y-101391969D01*
X145933614Y-101224743D01*
X145880694Y-101266493D01*
X145821258Y-101291441D01*
X145753161Y-101300310D01*
X145683917Y-101293029D01*
X145610740Y-101269334D01*
X145531990Y-101226684D01*
X145464228Y-101174533D01*
X145413995Y-101118830D01*
X145378860Y-101059151D01*
X145357433Y-100994505D01*
X145349976Y-100928331D01*
X145668135Y-100928331D01*
X145673456Y-100968317D01*
X145689672Y-101005544D01*
X145718358Y-101041266D01*
X145762375Y-101076080D01*
X145819369Y-101105894D01*
X145871445Y-101119729D01*
X145920335Y-101119905D01*
X145966918Y-101106959D01*
X146005998Y-101081800D01*
X146039065Y-101043024D01*
X146103066Y-100944470D01*
X145918250Y-100824449D01*
X145869757Y-100799063D01*
X145826828Y-100787885D01*
X145787720Y-100788499D01*
X145750570Y-100799919D01*
X145719087Y-100820971D01*
X145692211Y-100852831D01*
X145674246Y-100890343D01*
X145668135Y-100928331D01*
X145349976Y-100928331D01*
X145349772Y-100926520D01*
X145356376Y-100859105D01*
X145377696Y-100790865D01*
X145415333Y-100720530D01*
X145468386Y-100653892D01*
X145527581Y-100605799D01*
X145593802Y-100573899D01*
X145668812Y-100557402D01*
X145745134Y-100557092D01*
X145827208Y-100572910D01*
X145916855Y-100607018D01*
X146015887Y-100662665D01*
X146205927Y-100786078D01*
X146245934Y-100724473D01*
X146263939Y-100687033D01*
X146269474Y-100650934D01*
X146263486Y-100614539D01*
X146247165Y-100580786D01*
X146218791Y-100547278D01*
X146175334Y-100513499D01*
X146108227Y-100480160D01*
X146051632Y-100470735D01*
X146016243Y-100476463D01*
X145985556Y-100492544D01*
X145958256Y-100520179D01*
X145708301Y-100357856D01*
X145762428Y-100294962D01*
X145823005Y-100249370D01*
X145891046Y-100219174D01*
X145968368Y-100203922D01*
X146046666Y-100204455D01*
G37*
G36*
X146891282Y-102084409D02*
G01*
X146827619Y-102035902D01*
X146777623Y-101982791D01*
X146739751Y-101924737D01*
X146713043Y-101860921D01*
X146699028Y-101794982D01*
X146697470Y-101725820D01*
X146708455Y-101657382D01*
X146732526Y-101588527D01*
X146770956Y-101518319D01*
X147228143Y-100814312D01*
X146920193Y-100614327D01*
X147074484Y-100376739D01*
X147646447Y-100748176D01*
X147040655Y-101681014D01*
X147017654Y-101733030D01*
X147015965Y-101782599D01*
X147033845Y-101827656D01*
X147071998Y-101863982D01*
X147344767Y-102041120D01*
X147190475Y-102278708D01*
X146891282Y-102084409D01*
G37*
G36*
X147376828Y-102399727D02*
G01*
X148211189Y-101114923D01*
X148475201Y-101286375D01*
X148031732Y-101969258D01*
X148165466Y-102056106D01*
X148605620Y-101821452D01*
X148895980Y-102010013D01*
X148319259Y-102308656D01*
X148272641Y-102981475D01*
X147976981Y-102789471D01*
X148019684Y-102276723D01*
X147887716Y-102191022D01*
X147640840Y-102571178D01*
X147376828Y-102399727D01*
G37*
G36*
X149495126Y-101963855D02*
G01*
X149598874Y-102001524D01*
X149707748Y-102061791D01*
X149799653Y-102130772D01*
X149870504Y-102203167D01*
X149923081Y-102279278D01*
X149961239Y-102363169D01*
X149981750Y-102447524D01*
X149985517Y-102533767D01*
X149973238Y-102619441D01*
X149945070Y-102703494D01*
X149899855Y-102787092D01*
X149591272Y-103262268D01*
X149539693Y-103328917D01*
X149484298Y-103378003D01*
X149424608Y-103411955D01*
X149359544Y-103432094D01*
X149291718Y-103438157D01*
X149222553Y-103429750D01*
X149150589Y-103405922D01*
X149074453Y-103364573D01*
X149007531Y-103313036D01*
X148958085Y-103258063D01*
X148923667Y-103199227D01*
X148902880Y-103135533D01*
X148900237Y-103110066D01*
X149129539Y-103110066D01*
X149137318Y-103144245D01*
X149154765Y-103172924D01*
X149183050Y-103197347D01*
X149218002Y-103213889D01*
X149251523Y-103218226D01*
X149285319Y-103211231D01*
X149332349Y-103182202D01*
X149380108Y-103125136D01*
X149494393Y-102949154D01*
X149527100Y-102882313D01*
X149534490Y-102827542D01*
X149527134Y-102793822D01*
X149509538Y-102764964D01*
X149480210Y-102739762D01*
X149446393Y-102723856D01*
X149413098Y-102719582D01*
X149378710Y-102726377D01*
X149331058Y-102755100D01*
X149283152Y-102811973D01*
X149168868Y-102987955D01*
X149136397Y-103054852D01*
X149129539Y-103110066D01*
X148900237Y-103110066D01*
X148895964Y-103068892D01*
X148903475Y-103001143D01*
X148926287Y-102930811D01*
X148966461Y-102856511D01*
X149080745Y-102680528D01*
X149145002Y-102598266D01*
X149211148Y-102542492D01*
X149280031Y-102508526D01*
X149354102Y-102494717D01*
X149425109Y-102504098D01*
X149496371Y-102537626D01*
X149558726Y-102589795D01*
X149595123Y-102645549D01*
X149610267Y-102707428D01*
X149602229Y-102771496D01*
X149607530Y-102774938D01*
X149688691Y-102649960D01*
X149727931Y-102571316D01*
X149742081Y-102498846D01*
X149734303Y-102429381D01*
X149706171Y-102364626D01*
X149655111Y-102301414D01*
X149575437Y-102238626D01*
X149505903Y-102201625D01*
X149439502Y-102181650D01*
X149374797Y-102176806D01*
X149310246Y-102186540D01*
X149249710Y-102209790D01*
X149191130Y-102247787D01*
X149133698Y-102302756D01*
X149077075Y-102377927D01*
X148689626Y-102974547D01*
X148645773Y-103054733D01*
X148620839Y-103128528D01*
X148612149Y-103197559D01*
X148618289Y-103263495D01*
X148638899Y-103326403D01*
X148674458Y-103386029D01*
X148726951Y-103443361D01*
X148799540Y-103498819D01*
X148993190Y-103624577D01*
X148867482Y-103818150D01*
X148673832Y-103692393D01*
X148571077Y-103615053D01*
X148491758Y-103533373D01*
X148432835Y-103446990D01*
X148390793Y-103351856D01*
X148368549Y-103254061D01*
X148365541Y-103151888D01*
X148381771Y-103050625D01*
X148418577Y-102946333D01*
X148478462Y-102837416D01*
X148865912Y-102240796D01*
X148940860Y-102141455D01*
X149020317Y-102064845D01*
X149104655Y-102008033D01*
X149197627Y-101967986D01*
X149293803Y-101947523D01*
X149394972Y-101946258D01*
X149495126Y-101963855D01*
G37*
G36*
X149727666Y-103926379D02*
G01*
X150034221Y-102749195D01*
X150306990Y-102926334D01*
X150122803Y-103579927D01*
X150085543Y-103700870D01*
X150038287Y-103810298D01*
X150118036Y-103721971D01*
X150209609Y-103638811D01*
X150729394Y-103200646D01*
X151005697Y-103380079D01*
X150058507Y-104141229D01*
X149727666Y-103926379D01*
G37*
G36*
X151386394Y-103930941D02*
G01*
X151442000Y-103956209D01*
X151488962Y-103997680D01*
X151512863Y-104043510D01*
X151516940Y-104076714D01*
X151510181Y-104111842D01*
X151490856Y-104150551D01*
X151463332Y-104184072D01*
X151433573Y-104205225D01*
X151400823Y-104216036D01*
X151348252Y-104214040D01*
X151291150Y-104188497D01*
X151245843Y-104147670D01*
X151222152Y-104100005D01*
X151218254Y-104065302D01*
X151225213Y-104029338D01*
X151244511Y-103990572D01*
X151272052Y-103957301D01*
X151301658Y-103937005D01*
X151334192Y-103927480D01*
X151386394Y-103930941D01*
G37*
G36*
X151537926Y-103319125D02*
G01*
X151619985Y-103335088D01*
X151704600Y-103366725D01*
X151792884Y-103415894D01*
X151874831Y-103477331D01*
X151938352Y-103541947D01*
X151985833Y-103609999D01*
X152020428Y-103685038D01*
X152039540Y-103761422D01*
X152043812Y-103840407D01*
X152033224Y-103918858D01*
X152007031Y-103997451D01*
X151963746Y-104077380D01*
X151609469Y-104622918D01*
X151554021Y-104695022D01*
X151492860Y-104750941D01*
X151425499Y-104792525D01*
X151351642Y-104820703D01*
X151274104Y-104834288D01*
X151191479Y-104833197D01*
X151109998Y-104817500D01*
X151025132Y-104785752D01*
X150935676Y-104735879D01*
X150854849Y-104675227D01*
X150791532Y-104610794D01*
X150743572Y-104542323D01*
X150708456Y-104466885D01*
X150689043Y-104390330D01*
X150685861Y-104333534D01*
X150977289Y-104333534D01*
X150983156Y-104381420D01*
X151002349Y-104426268D01*
X151035145Y-104467937D01*
X151084231Y-104507125D01*
X151141167Y-104536707D01*
X151192774Y-104549782D01*
X151240946Y-104548831D01*
X151286536Y-104534453D01*
X151326884Y-104506583D01*
X151363124Y-104462940D01*
X151717401Y-103917402D01*
X151742528Y-103866545D01*
X151751558Y-103818377D01*
X151746122Y-103770929D01*
X151727397Y-103726535D01*
X151694462Y-103684707D01*
X151644280Y-103644726D01*
X151587290Y-103615109D01*
X151535631Y-103602000D01*
X151487410Y-103602919D01*
X151441903Y-103617276D01*
X151401596Y-103645133D01*
X151365359Y-103688783D01*
X151011083Y-104234321D01*
X150986079Y-104285168D01*
X150977289Y-104333534D01*
X150685861Y-104333534D01*
X150684621Y-104311394D01*
X150695213Y-104232943D01*
X150721421Y-104154325D01*
X150764738Y-104074343D01*
X151119014Y-103528805D01*
X151174428Y-103456752D01*
X151235572Y-103400857D01*
X151302934Y-103359275D01*
X151376881Y-103331163D01*
X151454730Y-103317736D01*
X151537926Y-103319125D01*
G37*
G36*
X151991418Y-105421486D02*
G01*
X151944413Y-105382744D01*
X151912906Y-105338879D01*
X151894883Y-105288791D01*
X151890934Y-105235668D01*
X151901852Y-105182765D01*
X151929024Y-105128255D01*
X151967770Y-105081264D01*
X152011642Y-105049800D01*
X152061745Y-105031846D01*
X152114868Y-105027897D01*
X152167771Y-105038815D01*
X152222281Y-105065987D01*
X152269272Y-105104733D01*
X152300736Y-105148605D01*
X152318690Y-105198708D01*
X152322667Y-105251782D01*
X152311768Y-105304659D01*
X152284599Y-105359168D01*
X152245853Y-105406162D01*
X152201964Y-105437654D01*
X152151828Y-105455653D01*
X152098789Y-105459589D01*
X152045928Y-105448666D01*
X151991418Y-105421486D01*
G37*
G36*
X152671360Y-105838036D02*
G01*
X152825651Y-105600448D01*
X153149502Y-105810759D01*
X153655826Y-105031090D01*
X153175297Y-105054305D01*
X153365006Y-104762179D01*
X153803148Y-104746384D01*
X154093584Y-104934996D01*
X153413515Y-105982211D01*
X153670460Y-106149073D01*
X153516168Y-106386661D01*
X152671360Y-105838036D01*
G37*
G36*
X154102901Y-106792699D02*
G01*
X154055897Y-106753957D01*
X154024389Y-106710092D01*
X154006366Y-106660005D01*
X154002417Y-106606881D01*
X154013335Y-106553978D01*
X154040507Y-106499468D01*
X154079253Y-106452477D01*
X154123125Y-106421013D01*
X154173228Y-106403059D01*
X154226351Y-106399110D01*
X154279255Y-106410028D01*
X154333765Y-106437200D01*
X154380756Y-106475946D01*
X154412219Y-106519818D01*
X154430173Y-106569922D01*
X154434150Y-106622996D01*
X154423251Y-106675872D01*
X154396082Y-106730381D01*
X154357337Y-106777375D01*
X154313448Y-106808867D01*
X154263311Y-106826867D01*
X154210272Y-106830802D01*
X154157411Y-106819879D01*
X154102901Y-106792699D01*
G37*
G36*
X154756419Y-107192089D02*
G01*
X154909563Y-106956268D01*
X155711426Y-106788873D01*
X155787104Y-106762704D01*
X155849476Y-106719929D01*
X155900753Y-106659112D01*
X155925896Y-106609375D01*
X155937057Y-106560638D01*
X155935380Y-106511449D01*
X155920969Y-106464825D01*
X155893986Y-106424824D01*
X155852726Y-106390172D01*
X155803118Y-106366062D01*
X155754053Y-106357474D01*
X155703635Y-106363464D01*
X155656298Y-106382701D01*
X155614208Y-106414555D01*
X155576516Y-106460999D01*
X155312504Y-106289548D01*
X155371281Y-106213208D01*
X155436249Y-106154015D01*
X155507939Y-106110022D01*
X155586565Y-106079925D01*
X155668579Y-106064679D01*
X155755311Y-106064261D01*
X155841028Y-106078919D01*
X155927498Y-106109740D01*
X156015851Y-106158321D01*
X156094250Y-106217360D01*
X156155822Y-106280620D01*
X156202578Y-106348385D01*
X156236749Y-106423028D01*
X156255922Y-106499444D01*
X156260634Y-106578843D01*
X156250611Y-106657705D01*
X156225053Y-106735908D01*
X156182637Y-106814648D01*
X156134192Y-106878620D01*
X156076892Y-106934956D01*
X156010021Y-106984093D01*
X155936728Y-107023200D01*
X155849029Y-107055646D01*
X155744638Y-107080626D01*
X155248619Y-107173941D01*
X155755519Y-107503126D01*
X155601228Y-107740714D01*
X154756419Y-107192089D01*
G37*
D11*
X170892506Y-37800589D02*
X170955774Y-37620927D01*
X170955774Y-37620927D02*
X171032324Y-37546914D01*
X171032324Y-37546914D02*
X171153789Y-37488717D01*
X171153789Y-37488717D02*
X171349268Y-37507071D01*
X171349268Y-37507071D02*
X171663676Y-37617791D01*
X171663676Y-37617791D02*
X171827520Y-37725975D01*
X171827520Y-37725975D02*
X171885716Y-37847440D01*
X171885716Y-37847440D02*
X171898997Y-37953088D01*
X171898997Y-37953088D02*
X171835728Y-38132750D01*
X171835728Y-38132750D02*
X171759179Y-38206763D01*
X171759179Y-38206763D02*
X171637713Y-38264960D01*
X171637713Y-38264960D02*
X171442235Y-38246606D01*
X171442235Y-38246606D02*
X171127827Y-38135886D01*
X171127827Y-38135886D02*
X170963983Y-38027702D01*
X170963983Y-38027702D02*
X170905787Y-37906236D01*
X170905787Y-37906236D02*
X170892506Y-37800589D01*
X171737089Y-36835876D02*
X171626369Y-37150284D01*
X172120438Y-37324273D02*
X171177215Y-36992112D01*
X171177215Y-36992112D02*
X171335387Y-36542958D01*
X172021799Y-36027400D02*
X171911078Y-36341807D01*
X172405147Y-36515796D02*
X171461925Y-36183635D01*
X171461925Y-36183635D02*
X171620097Y-35734482D01*
X161570998Y-34164567D02*
X161634267Y-33984906D01*
X161634267Y-33984906D02*
X161710816Y-33910892D01*
X161710816Y-33910892D02*
X161832282Y-33852696D01*
X161832282Y-33852696D02*
X162027760Y-33871049D01*
X162027760Y-33871049D02*
X162342168Y-33981770D01*
X162342168Y-33981770D02*
X162506012Y-34089954D01*
X162506012Y-34089954D02*
X162564208Y-34211419D01*
X162564208Y-34211419D02*
X162577489Y-34317067D01*
X162577489Y-34317067D02*
X162514221Y-34496728D01*
X162514221Y-34496728D02*
X162437671Y-34570742D01*
X162437671Y-34570742D02*
X162316206Y-34628938D01*
X162316206Y-34628938D02*
X162120727Y-34610585D01*
X162120727Y-34610585D02*
X161806319Y-34499864D01*
X161806319Y-34499864D02*
X161642475Y-34391680D01*
X161642475Y-34391680D02*
X161584279Y-34270215D01*
X161584279Y-34270215D02*
X161570998Y-34164567D01*
X162798930Y-33688252D02*
X161855707Y-33356091D01*
X161855707Y-33356091D02*
X162988736Y-33149268D01*
X162988736Y-33149268D02*
X162045514Y-32817106D01*
X116587554Y-48663611D02*
X116034764Y-48483913D01*
X116131191Y-49007505D02*
X115529376Y-48208869D01*
X115529376Y-48208869D02*
X115833618Y-47979607D01*
X115833618Y-47979607D02*
X115938337Y-47960321D01*
X115938337Y-47960321D02*
X116005025Y-47969693D01*
X116005025Y-47969693D02*
X116100371Y-48017096D01*
X116100371Y-48017096D02*
X116186344Y-48131187D01*
X116186344Y-48131187D02*
X116205630Y-48235905D01*
X116205630Y-48235905D02*
X116196257Y-48302593D01*
X116196257Y-48302593D02*
X116148855Y-48397939D01*
X116148855Y-48397939D02*
X115844613Y-48627202D01*
X116863139Y-48396317D02*
X117005887Y-48348374D01*
X117005887Y-48348374D02*
X117196039Y-48205085D01*
X117196039Y-48205085D02*
X117243441Y-48109739D01*
X117243441Y-48109739D02*
X117252814Y-48043051D01*
X117252814Y-48043051D02*
X117233528Y-47938332D01*
X117233528Y-47938332D02*
X117176212Y-47862272D01*
X117176212Y-47862272D02*
X117080866Y-47814869D01*
X117080866Y-47814869D02*
X117014178Y-47805497D01*
X117014178Y-47805497D02*
X116909460Y-47824782D01*
X116909460Y-47824782D02*
X116728681Y-47901383D01*
X116728681Y-47901383D02*
X116623963Y-47920669D01*
X116623963Y-47920669D02*
X116557275Y-47911296D01*
X116557275Y-47911296D02*
X116461929Y-47863894D01*
X116461929Y-47863894D02*
X116404613Y-47787833D01*
X116404613Y-47787833D02*
X116385327Y-47683115D01*
X116385327Y-47683115D02*
X116394700Y-47616427D01*
X116394700Y-47616427D02*
X116442102Y-47521081D01*
X116442102Y-47521081D02*
X116632254Y-47377791D01*
X116632254Y-47377791D02*
X116775002Y-47329848D01*
X116974526Y-47119871D02*
X117430889Y-46775976D01*
X117804523Y-47746559D02*
X117202708Y-46947924D01*
D12*
X197215162Y-36587435D02*
X197982426Y-37130888D01*
X197702068Y-36400529D02*
X197495520Y-37317793D01*
X198260658Y-37024085D02*
X197980300Y-36293726D01*
X198493566Y-36695257D02*
X198841356Y-36561753D01*
X198504111Y-36930632D02*
X198467205Y-36106820D01*
X198467205Y-36106820D02*
X198991017Y-36743726D01*
X199093227Y-35866513D02*
X199232343Y-35813112D01*
X199232343Y-35813112D02*
X199315251Y-35821190D01*
X199315251Y-35821190D02*
X199411510Y-35864047D01*
X199411510Y-35864047D02*
X199499691Y-35989812D01*
X199499691Y-35989812D02*
X199593143Y-36233265D01*
X199593143Y-36233265D02*
X199611766Y-36385732D01*
X199611766Y-36385732D02*
X199568909Y-36481990D01*
X199568909Y-36481990D02*
X199512701Y-36543470D01*
X199512701Y-36543470D02*
X199373585Y-36596872D01*
X199373585Y-36596872D02*
X199290677Y-36588794D01*
X199290677Y-36588794D02*
X199194418Y-36545937D01*
X199194418Y-36545937D02*
X199106238Y-36420171D01*
X199106238Y-36420171D02*
X199012785Y-36176718D01*
X199012785Y-36176718D02*
X198994162Y-36024252D01*
X198994162Y-36024252D02*
X199037019Y-35927993D01*
X199037019Y-35927993D02*
X199093227Y-35866513D01*
X200096205Y-35880543D02*
X200213893Y-35875271D01*
X200213893Y-35875271D02*
X200262022Y-35896700D01*
X200262022Y-35896700D02*
X200323502Y-35952907D01*
X200323502Y-35952907D02*
X200363553Y-36057244D01*
X200363553Y-36057244D02*
X200355475Y-36140152D01*
X200355475Y-36140152D02*
X200334046Y-36188282D01*
X200334046Y-36188282D02*
X200277839Y-36249762D01*
X200277839Y-36249762D02*
X199999607Y-36356565D01*
X199999607Y-36356565D02*
X199719248Y-35626206D01*
X199719248Y-35626206D02*
X199962701Y-35532753D01*
X199962701Y-35532753D02*
X200045610Y-35540831D01*
X200045610Y-35540831D02*
X200093739Y-35562260D01*
X200093739Y-35562260D02*
X200155219Y-35618468D01*
X200155219Y-35618468D02*
X200181919Y-35688026D01*
X200181919Y-35688026D02*
X200173841Y-35770934D01*
X200173841Y-35770934D02*
X200152413Y-35819063D01*
X200152413Y-35819063D02*
X200096205Y-35880543D01*
X200096205Y-35880543D02*
X199852752Y-35973996D01*
X201077755Y-35942702D02*
X200729965Y-36076206D01*
X200729965Y-36076206D02*
X200449607Y-35345848D01*
X201174354Y-35466681D02*
X201417807Y-35373228D01*
X201668998Y-35715745D02*
X201321208Y-35849249D01*
X201321208Y-35849249D02*
X201040850Y-35118891D01*
X201040850Y-35118891D02*
X201388640Y-34985387D01*
D13*
%TO.C,D15*%
X169056962Y-44977562D02*
X169456965Y-44977561D01*
X169456965Y-44977561D02*
X169456966Y-44427563D01*
X169456965Y-44977561D02*
X169456968Y-45527566D01*
X169456965Y-44977561D02*
X170056960Y-44577559D01*
X170056956Y-45377568D02*
X169456965Y-44977561D01*
X170056960Y-44577559D02*
X170056956Y-45377568D01*
X170056965Y-44977564D02*
X170556960Y-44977562D01*
%TO.C,D20*%
X186034825Y-99980791D02*
X186433303Y-100015651D01*
X186433303Y-100015651D02*
X186385364Y-100563556D01*
X186433303Y-100015651D02*
X186481240Y-99467750D01*
X186433303Y-100015651D02*
X187065883Y-99669464D01*
X186996160Y-100466429D02*
X186433303Y-100015651D01*
X187031022Y-100067949D02*
X187529117Y-100111523D01*
X187065883Y-99669464D02*
X186996160Y-100466429D01*
D14*
%TO.C,PWR1*%
X163890698Y-33885179D02*
X163628280Y-34630313D01*
X165213118Y-36301632D02*
X165024483Y-36235203D01*
X168042786Y-37298112D02*
X166439310Y-36733437D01*
X170136518Y-36922229D02*
X170398929Y-36177079D01*
X170168472Y-35025124D02*
X164792109Y-33131806D01*
D13*
%TO.C,D12*%
X152056963Y-38977560D02*
X152456966Y-38977559D01*
X152456966Y-38977559D02*
X152456967Y-38427561D01*
X152456966Y-38977559D02*
X152456969Y-39527564D01*
X152456966Y-38977559D02*
X153056961Y-38577557D01*
X153056957Y-39377566D02*
X152456966Y-38977559D01*
X153056961Y-38577557D02*
X153056957Y-39377566D01*
X153056966Y-38977562D02*
X153556961Y-38977560D01*
%TO.C,D8*%
X133077210Y-62321300D02*
X133476242Y-62293402D01*
X133476242Y-62293402D02*
X133437871Y-61744741D01*
X133476242Y-62293402D02*
X133514606Y-62842062D01*
X133476242Y-62293402D02*
X134046869Y-61852522D01*
X134046869Y-61852522D02*
X134102683Y-62650573D01*
X134074778Y-62251541D02*
X134573566Y-62216668D01*
X134102683Y-62650573D02*
X133476242Y-62293402D01*
D11*
%TO.C,RST1*%
X113302104Y-48378648D02*
X113452558Y-48578303D01*
X113302104Y-48378648D02*
X118093918Y-44767751D01*
X115408454Y-51173871D02*
X115258004Y-50974213D01*
X115408454Y-51173871D02*
X120200268Y-47562974D01*
X118093918Y-44767751D02*
X118244368Y-44967409D01*
X120200268Y-47562974D02*
X120049814Y-47363319D01*
D13*
%TO.C,D2*%
X97907485Y-78899388D02*
X98302561Y-78836823D01*
X98302561Y-78836823D02*
X98216515Y-78293596D01*
X98302561Y-78836823D02*
X98388602Y-79380048D01*
X98302561Y-78836823D02*
X98832600Y-78347880D01*
X98832600Y-78347880D02*
X98957746Y-79138036D01*
X98895169Y-78742956D02*
X99389017Y-78664748D01*
X98957746Y-79138036D02*
X98302561Y-78836823D01*
%TO.C,D11*%
X152056963Y-55977557D02*
X152456966Y-55977556D01*
X152456966Y-55977556D02*
X152456967Y-55427558D01*
X152456966Y-55977556D02*
X152456969Y-56527561D01*
X152456966Y-55977556D02*
X153056961Y-55577554D01*
X153056957Y-56377563D02*
X152456966Y-55977556D01*
X153056961Y-55577554D02*
X153056957Y-56377563D01*
X153056966Y-55977559D02*
X153556961Y-55977557D01*
%TO.C,D13*%
X169056964Y-78977556D02*
X169456967Y-78977555D01*
X169456967Y-78977555D02*
X169456968Y-78427557D01*
X169456967Y-78977555D02*
X169456970Y-79527560D01*
X169456967Y-78977555D02*
X170056962Y-78577553D01*
X170056958Y-79377562D02*
X169456967Y-78977555D01*
X170056962Y-78577553D02*
X170056958Y-79377562D01*
X170056967Y-78977558D02*
X170556962Y-78977556D01*
%TO.C,D10*%
X152056960Y-72977559D02*
X152456963Y-72977558D01*
X152456963Y-72977558D02*
X152456964Y-72427560D01*
X152456963Y-72977558D02*
X152456966Y-73527563D01*
X152456963Y-72977558D02*
X153056958Y-72577556D01*
X153056954Y-73377565D02*
X152456963Y-72977558D01*
X153056958Y-72577556D02*
X153056954Y-73377565D01*
X153056963Y-72977561D02*
X153556958Y-72977559D01*
%TO.C,D6*%
X112038800Y-59449297D02*
X112433876Y-59386732D01*
X112433876Y-59386732D02*
X112347830Y-58843505D01*
X112433876Y-59386732D02*
X112519917Y-59929957D01*
X112433876Y-59386732D02*
X112963915Y-58897789D01*
X112963915Y-58897789D02*
X113089061Y-59687945D01*
X113026484Y-59292865D02*
X113520332Y-59214657D01*
X113089061Y-59687945D02*
X112433876Y-59386732D01*
%TO.C,D21*%
X205457650Y-104353576D02*
X205833540Y-104490384D01*
X205833540Y-104490384D02*
X205645416Y-105007218D01*
X205833540Y-104490384D02*
X206021642Y-103973551D01*
X205833540Y-104490384D02*
X206534153Y-104319718D01*
X206260536Y-105071470D02*
X205833540Y-104490384D01*
X206397346Y-104695595D02*
X206867194Y-104866604D01*
X206534153Y-104319718D02*
X206260536Y-105071470D01*
%TO.C,D19*%
X168056964Y-98977555D02*
X168456967Y-98977554D01*
X168456967Y-98977554D02*
X168456968Y-98427556D01*
X168456967Y-98977554D02*
X168456970Y-99527559D01*
X168456967Y-98977554D02*
X169056962Y-98577552D01*
X169056958Y-99377561D02*
X168456967Y-98977554D01*
X169056962Y-98577552D02*
X169056958Y-99377561D01*
X169056967Y-98977557D02*
X169556962Y-98977555D01*
%TO.C,D5*%
X114698189Y-76240003D02*
X115093265Y-76177438D01*
X115093265Y-76177438D02*
X115007219Y-75634211D01*
X115093265Y-76177438D02*
X115179306Y-76720663D01*
X115093265Y-76177438D02*
X115623304Y-75688495D01*
X115623304Y-75688495D02*
X115748450Y-76478651D01*
X115685873Y-76083571D02*
X116179721Y-76005363D01*
X115748450Y-76478651D02*
X115093265Y-76177438D01*
%TO.C,D17*%
X186056958Y-63977557D02*
X186456961Y-63977556D01*
X186456961Y-63977556D02*
X186456962Y-63427558D01*
X186456961Y-63977556D02*
X186456964Y-64527561D01*
X186456961Y-63977556D02*
X187056956Y-63577554D01*
X187056952Y-64377563D02*
X186456961Y-63977556D01*
X187056956Y-63577554D02*
X187056952Y-64377563D01*
X187056961Y-63977559D02*
X187556956Y-63977557D01*
%TO.C,D7*%
X134263067Y-79279885D02*
X134662099Y-79251987D01*
X134662099Y-79251987D02*
X134623728Y-78703326D01*
X134662099Y-79251987D02*
X134700463Y-79800647D01*
X134662099Y-79251987D02*
X135232726Y-78811107D01*
X135232726Y-78811107D02*
X135288540Y-79609158D01*
X135260635Y-79210126D02*
X135759423Y-79175253D01*
X135288540Y-79609158D02*
X134662099Y-79251987D01*
%TO.C,D3*%
X95248098Y-62108682D02*
X95643174Y-62046117D01*
X95643174Y-62046117D02*
X95557128Y-61502890D01*
X95643174Y-62046117D02*
X95729215Y-62589342D01*
X95643174Y-62046117D02*
X96173213Y-61557174D01*
X96173213Y-61557174D02*
X96298359Y-62347330D01*
X96235782Y-61952250D02*
X96729630Y-61874042D01*
X96298359Y-62347330D02*
X95643174Y-62046117D01*
%TO.C,D4*%
X117357574Y-93030706D02*
X117752650Y-92968141D01*
X117752650Y-92968141D02*
X117666604Y-92424914D01*
X117752650Y-92968141D02*
X117838691Y-93511366D01*
X117752650Y-92968141D02*
X118282689Y-92479198D01*
X118282689Y-92479198D02*
X118407835Y-93269354D01*
X118345258Y-92874274D02*
X118839106Y-92796066D01*
X118407835Y-93269354D02*
X117752650Y-92968141D01*
%TO.C,D16*%
X186056962Y-80977553D02*
X186456965Y-80977552D01*
X186456965Y-80977552D02*
X186456966Y-80427554D01*
X186456965Y-80977552D02*
X186456968Y-81527557D01*
X186456965Y-80977552D02*
X187056960Y-80577550D01*
X187056956Y-81377559D02*
X186456965Y-80977552D01*
X187056960Y-80577550D02*
X187056956Y-81377559D01*
X187056965Y-80977555D02*
X187556960Y-80977553D01*
%TO.C,D14*%
X169056965Y-61977554D02*
X169456968Y-61977553D01*
X169456968Y-61977553D02*
X169456969Y-61427555D01*
X169456968Y-61977553D02*
X169456971Y-62527558D01*
X169456968Y-61977553D02*
X170056963Y-61577551D01*
X170056959Y-62377560D02*
X169456968Y-61977553D01*
X170056963Y-61577551D02*
X170056959Y-62377560D01*
X170056968Y-61977556D02*
X170556963Y-61977554D01*
%TO.C,D1*%
X100566870Y-95690090D02*
X100961946Y-95627525D01*
X100961946Y-95627525D02*
X100875900Y-95084298D01*
X100961946Y-95627525D02*
X101047987Y-96170750D01*
X100961946Y-95627525D02*
X101491985Y-95138582D01*
X101491985Y-95138582D02*
X101617131Y-95928738D01*
X101554554Y-95533658D02*
X102048402Y-95455450D01*
X101617131Y-95928738D02*
X100961946Y-95627525D01*
%TO.C,D18*%
X186056965Y-46977557D02*
X186456968Y-46977556D01*
X186456968Y-46977556D02*
X186456969Y-46427558D01*
X186456968Y-46977556D02*
X186456971Y-47527561D01*
X186456968Y-46977556D02*
X187056963Y-46577554D01*
X187056959Y-47377563D02*
X186456968Y-46977556D01*
X187056963Y-46577554D02*
X187056959Y-47377563D01*
X187056968Y-46977559D02*
X187556963Y-46977557D01*
%TO.C,D9*%
X131891355Y-45362709D02*
X132290387Y-45334811D01*
X132290387Y-45334811D02*
X132252016Y-44786150D01*
X132290387Y-45334811D02*
X132328751Y-45883471D01*
X132290387Y-45334811D02*
X132861014Y-44893931D01*
X132861014Y-44893931D02*
X132916828Y-45691982D01*
X132888923Y-45292950D02*
X133387711Y-45258077D01*
X132916828Y-45691982D02*
X132290387Y-45334811D01*
%TO.C,JST1*%
X198029994Y-60770000D02*
X199030002Y-60769999D01*
X203129998Y-60269997D02*
X203129998Y-61269996D01*
X203629997Y-60770003D02*
X202630002Y-60769999D01*
%TO.C,XIAOBLE*%
X197861960Y-57490559D02*
X197861960Y-40345558D01*
X199766959Y-59395558D02*
X213736960Y-59395560D01*
D15*
X202256959Y-38440559D02*
X202260689Y-37430286D01*
X202760688Y-36930558D02*
X210755958Y-36930558D01*
X211255961Y-37430557D02*
X211255959Y-38440558D01*
D13*
X213736959Y-38440556D02*
X199766957Y-38440557D01*
X215641959Y-57490559D02*
X215641959Y-40345560D01*
X197861960Y-40341558D02*
G75*
G02*
X199766959Y-38436558I1905003J-3D01*
G01*
X199766959Y-59395558D02*
G75*
G02*
X197861960Y-57490559I2J1905001D01*
G01*
D15*
X202260689Y-37430286D02*
G75*
G02*
X202760688Y-36930558I500017J-289D01*
G01*
X210755958Y-36930558D02*
G75*
G02*
X211255960Y-37430557I-98J-500100D01*
G01*
D13*
X213736959Y-38440556D02*
G75*
G02*
X215641962Y-40345560I-49J-1905052D01*
G01*
X215641959Y-57490559D02*
G75*
G02*
X213736960Y-59395557I-1904999J1D01*
G01*
D16*
X197903960Y-38856558D02*
G75*
G02*
X197399962Y-38856558I-251999J0D01*
G01*
X197399962Y-38856558D02*
G75*
G02*
X197903960Y-38856558I251999J0D01*
G01*
X199177958Y-39573557D02*
G75*
G02*
X198673960Y-39573557I-251999J0D01*
G01*
X198673960Y-39573557D02*
G75*
G02*
X199177958Y-39573557I251999J0D01*
G01*
%TD*%
M02*
