%TF.GenerationSoftware,KiCad,Pcbnew,8.0.6*%
%TF.CreationDate,2025-08-04T21:50:58+02:00*%
%TF.ProjectId,reversible,72657665-7273-4696-926c-652e6b696361,v1.0.0*%
%TF.SameCoordinates,Original*%
%TF.FileFunction,Soldermask,Bot*%
%TF.FilePolarity,Negative*%
%FSLAX46Y46*%
G04 Gerber Fmt 4.6, Leading zero omitted, Abs format (unit mm)*
G04 Created by KiCad (PCBNEW 8.0.6) date 2025-08-04 21:50:58*
%MOMM*%
%LPD*%
G01*
G04 APERTURE LIST*
G04 Aperture macros list*
%AMRoundRect*
0 Rectangle with rounded corners*
0 $1 Rounding radius*
0 $2 $3 $4 $5 $6 $7 $8 $9 X,Y pos of 4 corners*
0 Add a 4 corners polygon primitive as box body*
4,1,4,$2,$3,$4,$5,$6,$7,$8,$9,$2,$3,0*
0 Add four circle primitives for the rounded corners*
1,1,$1+$1,$2,$3*
1,1,$1+$1,$4,$5*
1,1,$1+$1,$6,$7*
1,1,$1+$1,$8,$9*
0 Add four rect primitives between the rounded corners*
20,1,$1+$1,$2,$3,$4,$5,0*
20,1,$1+$1,$4,$5,$6,$7,0*
20,1,$1+$1,$6,$7,$8,$9,0*
20,1,$1+$1,$8,$9,$2,$3,0*%
G04 Aperture macros list end*
%ADD10C,2.300000*%
%ADD11C,1.500000*%
%ADD12RoundRect,0.050000X-0.609024X-1.108925X0.921893X-0.866452X0.609024X1.108925X-0.921893X0.866452X0*%
%ADD13RoundRect,0.050000X-0.831254X-1.144123X1.144123X-0.831254X0.831254X1.144123X-1.144123X0.831254X0*%
%ADD14RoundRect,0.050000X-0.450000X-0.600000X0.450000X-0.600000X0.450000X0.600000X-0.450000X0.600000X0*%
%ADD15RoundRect,0.050000X-0.500581X-0.558497X0.395994X-0.636937X0.500581X0.558497X-0.395994X0.636937X0*%
%ADD16RoundRect,0.050000X-0.602987X-0.215423X0.342532X-0.540992X0.602987X0.215423X-0.342532X0.540992X0*%
%ADD17C,1.000000*%
%ADD18RoundRect,0.050000X-0.575108X-0.595190X0.086755X-0.823088X0.575108X0.595190X-0.086755X0.823088X0*%
%ADD19RoundRect,0.050000X-0.407050X-0.629929X0.490758X-0.567148X0.407050X0.629929X-0.490758X0.567148X0*%
%ADD20C,1.800000*%
%ADD21RoundRect,0.050000X-0.775000X-1.000000X0.775000X-1.000000X0.775000X1.000000X-0.775000X1.000000X0*%
%ADD22RoundRect,0.050000X-1.000000X-1.000000X1.000000X-1.000000X1.000000X1.000000X-1.000000X1.000000X0*%
%ADD23RoundRect,0.050000X-0.703356X-1.051625X0.842869X-0.943503X0.703356X1.051625X-0.842869X0.943503X0*%
%ADD24RoundRect,0.050000X-0.927808X-1.067321X1.067321X-0.927808X0.927808X1.067321X-1.067321X0.927808X0*%
%ADD25RoundRect,0.050000X-0.350599X-0.663009X0.538320X-0.522217X0.350599X0.663009X-0.538320X0.522217X0*%
%ADD26RoundRect,0.050000X-0.628074X-0.409907X0.217650X-0.717725X0.628074X0.409907X-0.217650X0.717725X0*%
%ADD27RoundRect,0.050000X-1.070282X-0.674627X0.386242X-1.204758X1.070282X0.674627X-0.386242X1.204758X0*%
%ADD28RoundRect,0.050000X-1.281713X-0.597672X0.597672X-1.281713X1.281713X0.597672X-0.597672X1.281713X0*%
%ADD29RoundRect,0.260000X-0.390000X-0.665000X0.390000X-0.665000X0.390000X0.665000X-0.390000X0.665000X0*%
%ADD30O,1.300000X1.850000*%
%ADD31RoundRect,0.162400X1.537600X0.649600X-1.537600X0.649600X-1.537600X-0.649600X1.537600X-0.649600X0*%
%ADD32RoundRect,0.162400X-1.537600X-0.649600X1.537600X-0.649600X1.537600X0.649600X-1.537600X0.649600X0*%
%ADD33C,1.600000*%
%ADD34RoundRect,0.050000X-0.859207X-0.928649X0.684895X-1.063740X0.859207X0.928649X-0.684895X1.063740X0*%
%ADD35RoundRect,0.050000X-1.083350X-0.909039X0.909039X-1.083350X1.083350X0.909039X-0.909039X1.083350X0*%
G04 APERTURE END LIST*
D10*
%TO.C,MH3*%
X136100839Y-94809523D03*
%TD*%
D11*
%TO.C,CPG1316*%
X117453732Y-98432169D03*
D12*
X117453732Y-98432169D03*
D11*
X120416795Y-97962872D03*
D12*
X120416795Y-97962872D03*
D13*
X113187494Y-102499635D03*
X111310284Y-90647376D03*
X125731136Y-100512920D03*
X123853926Y-88660661D03*
%TD*%
D14*
%TO.C,D15*%
X168156959Y-44977560D03*
X171456961Y-44977558D03*
%TD*%
D15*
%TO.C,D20*%
X185138250Y-99902351D03*
X188425696Y-100189965D03*
%TD*%
D16*
%TO.C,PWR1*%
X163202579Y-35260125D03*
X170104869Y-37636772D03*
D17*
X165596824Y-34910568D03*
X168433385Y-35887273D03*
D16*
X163922084Y-33170530D03*
X170824375Y-35547177D03*
D18*
X164314684Y-36330505D03*
X167151240Y-37307211D03*
X168569521Y-37795561D03*
%TD*%
D14*
%TO.C,D12*%
X151156963Y-38977562D03*
X154456965Y-38977560D03*
%TD*%
D19*
%TO.C,D8*%
X132179413Y-62384081D03*
X135471363Y-62153887D03*
%TD*%
D20*
%TO.C,RST1*%
X119346758Y-46014913D03*
X114155620Y-49926705D03*
%TD*%
D11*
%TO.C,CPG1316*%
X168306958Y-84327559D03*
D21*
X168306958Y-84327559D03*
D11*
X171306959Y-84327563D03*
D21*
X171306959Y-84327563D03*
D22*
X163456956Y-87677553D03*
X163456957Y-75677560D03*
X176156959Y-87677556D03*
X176156960Y-75677563D03*
%TD*%
D11*
%TO.C,CPG1316*%
X131516375Y-50751996D03*
D23*
X131516375Y-50751996D03*
D11*
X134509070Y-50542727D03*
D23*
X134509070Y-50542727D03*
D24*
X126074794Y-42461386D03*
X126911873Y-54432152D03*
X138743859Y-41575476D03*
X139580938Y-53546242D03*
%TD*%
D11*
%TO.C,CPG1316*%
X167306959Y-104327556D03*
D21*
X167306959Y-104327556D03*
D11*
X170306960Y-104327560D03*
D21*
X170306960Y-104327560D03*
D22*
X162456957Y-107677550D03*
X162456958Y-95677557D03*
X175156960Y-107677553D03*
X175156961Y-95677560D03*
%TD*%
D25*
%TO.C,D2*%
X97018565Y-79040183D03*
X100277937Y-78523953D03*
%TD*%
D14*
%TO.C,D11*%
X151156960Y-55977562D03*
X154456962Y-55977560D03*
%TD*%
%TO.C,D13*%
X168156963Y-78977560D03*
X171456965Y-78977558D03*
%TD*%
D10*
%TO.C,MH4*%
X150806957Y-94677559D03*
%TD*%
D14*
%TO.C,D10*%
X151156959Y-72977561D03*
X154456961Y-72977559D03*
%TD*%
D11*
%TO.C,CPG1316*%
X98003647Y-84300847D03*
D12*
X98003647Y-84300847D03*
D11*
X100966710Y-83831550D03*
D12*
X100966710Y-83831550D03*
D13*
X93737409Y-88368313D03*
X91860199Y-76516054D03*
X106281051Y-86381598D03*
X104403841Y-74529339D03*
%TD*%
D25*
%TO.C,D6*%
X111149881Y-59590092D03*
X114409253Y-59073862D03*
%TD*%
D11*
%TO.C,CPG1316*%
X185306961Y-52327559D03*
D21*
X185306961Y-52327559D03*
D11*
X188306962Y-52327563D03*
D21*
X188306962Y-52327563D03*
D22*
X180456959Y-55677553D03*
X180456960Y-43677560D03*
X193156962Y-55677556D03*
X193156963Y-43677563D03*
%TD*%
D10*
%TO.C,MH1*%
X214161383Y-97252158D03*
%TD*%
D26*
%TO.C,D21*%
X204611935Y-104045756D03*
X207712919Y-105174428D03*
%TD*%
D14*
%TO.C,D19*%
X167156959Y-98977557D03*
X170456961Y-98977555D03*
%TD*%
D25*
%TO.C,D5*%
X113809266Y-76380799D03*
X117068638Y-75864569D03*
%TD*%
D11*
%TO.C,CPG1316*%
X132702241Y-67710585D03*
D23*
X132702241Y-67710585D03*
D11*
X135694936Y-67501316D03*
D23*
X135694936Y-67501316D03*
D24*
X127260660Y-59419975D03*
X128097739Y-71390741D03*
X139929725Y-58534065D03*
X140766804Y-70504831D03*
%TD*%
D14*
%TO.C,D17*%
X185156954Y-63977557D03*
X188456956Y-63977555D03*
%TD*%
D11*
%TO.C,CPG1316*%
X133888100Y-84669177D03*
D23*
X133888100Y-84669177D03*
D11*
X136880795Y-84459908D03*
D23*
X136880795Y-84459908D03*
D24*
X128446519Y-76378567D03*
X129283598Y-88349333D03*
X141115584Y-75492657D03*
X141952663Y-87463423D03*
%TD*%
D11*
%TO.C,CPG1316*%
X168306962Y-50327559D03*
D21*
X168306962Y-50327559D03*
D11*
X171306963Y-50327563D03*
D21*
X171306963Y-50327563D03*
D22*
X163456960Y-53677553D03*
X163456961Y-41677560D03*
X176156963Y-53677556D03*
X176156964Y-41677563D03*
%TD*%
D11*
%TO.C,CPG1316*%
X151306958Y-61327558D03*
D21*
X151306958Y-61327558D03*
D11*
X154306959Y-61327562D03*
D21*
X154306959Y-61327562D03*
D22*
X146456956Y-64677552D03*
X146456957Y-52677559D03*
X159156959Y-64677555D03*
X159156960Y-52677562D03*
%TD*%
D11*
%TO.C,CPG1316*%
X185306964Y-69327557D03*
D21*
X185306964Y-69327557D03*
D11*
X188306965Y-69327561D03*
D21*
X188306965Y-69327561D03*
D22*
X180456962Y-72677551D03*
X180456963Y-60677558D03*
X193156965Y-72677554D03*
X193156966Y-60677561D03*
%TD*%
D11*
%TO.C,CPG1316*%
X168306959Y-67327562D03*
D21*
X168306959Y-67327562D03*
D11*
X171306960Y-67327566D03*
D21*
X171306960Y-67327566D03*
D22*
X163456957Y-70677556D03*
X163456958Y-58677563D03*
X176156960Y-70677559D03*
X176156961Y-58677566D03*
%TD*%
D10*
%TO.C,MH2*%
X140598443Y-35842143D03*
%TD*%
D19*
%TO.C,D7*%
X133365269Y-79342665D03*
X136657219Y-79112471D03*
%TD*%
D25*
%TO.C,D3*%
X94359176Y-62249479D03*
X97618548Y-61733249D03*
%TD*%
D11*
%TO.C,CPG1316*%
X95344259Y-67510147D03*
D12*
X95344259Y-67510147D03*
D11*
X98307322Y-67040850D03*
D12*
X98307322Y-67040850D03*
D13*
X91078021Y-71577613D03*
X89200811Y-59725354D03*
X103621663Y-69590898D03*
X101744453Y-57738639D03*
%TD*%
D25*
%TO.C,D4*%
X116468653Y-93171496D03*
X119728025Y-92655266D03*
%TD*%
D11*
%TO.C,CPG1316*%
X151306963Y-44327560D03*
D21*
X151306963Y-44327560D03*
D11*
X154306964Y-44327564D03*
D21*
X154306964Y-44327564D03*
D22*
X146456961Y-47677554D03*
X146456962Y-35677561D03*
X159156964Y-47677557D03*
X159156965Y-35677564D03*
%TD*%
D14*
%TO.C,D16*%
X185156959Y-80977556D03*
X188456961Y-80977554D03*
%TD*%
%TO.C,D14*%
X168156961Y-61977554D03*
X171456963Y-61977552D03*
%TD*%
D25*
%TO.C,D1*%
X99677952Y-95830886D03*
X102937324Y-95314656D03*
%TD*%
D11*
%TO.C,CPG1316*%
X185306960Y-86327557D03*
D21*
X185306960Y-86327557D03*
D11*
X188306961Y-86327561D03*
D21*
X188306961Y-86327561D03*
D22*
X180456958Y-89677551D03*
X180456959Y-77677558D03*
X193156961Y-89677554D03*
X193156962Y-77677561D03*
%TD*%
D11*
%TO.C,CPG1316*%
X112134959Y-64850759D03*
D12*
X112134959Y-64850759D03*
D11*
X115098022Y-64381462D03*
D12*
X115098022Y-64381462D03*
D13*
X107868721Y-68918225D03*
X105991511Y-57065966D03*
X120412363Y-66931510D03*
X118535153Y-55079251D03*
%TD*%
D11*
%TO.C,CPG1316*%
X202923075Y-109124421D03*
D27*
X202923075Y-109124421D03*
D11*
X205742157Y-110150484D03*
D27*
X205742157Y-110150484D03*
D28*
X197219798Y-110613600D03*
X201324040Y-99337289D03*
X209153894Y-114957253D03*
X213258136Y-103680942D03*
%TD*%
D14*
%TO.C,D18*%
X185156959Y-46977558D03*
X188456961Y-46977556D03*
%TD*%
D19*
%TO.C,D9*%
X130993555Y-45425491D03*
X134285505Y-45195297D03*
%TD*%
D29*
%TO.C,JST1*%
X199830001Y-60870000D03*
D30*
X201829999Y-60869998D03*
%TD*%
D11*
%TO.C,CPG1316*%
X151306963Y-78327558D03*
D21*
X151306963Y-78327558D03*
D11*
X154306964Y-78327562D03*
D21*
X154306964Y-78327562D03*
D22*
X146456961Y-81677552D03*
X146456962Y-69677559D03*
X159156964Y-81677555D03*
X159156965Y-69677562D03*
%TD*%
D17*
%TO.C,REF\u002A\u002A*%
X199186952Y-51517558D03*
X199186956Y-48977557D03*
X199186959Y-43897558D03*
X199186959Y-46437563D03*
X199186959Y-54057562D03*
X199186960Y-56597556D03*
X199186962Y-41357562D03*
X214426954Y-56597558D03*
X214426956Y-41357564D03*
X214426957Y-43897558D03*
X214426957Y-51517557D03*
X214426957Y-54057562D03*
X214426960Y-48977563D03*
X214426964Y-46437562D03*
D31*
X198651955Y-41357568D03*
X198651959Y-43897561D03*
X198651959Y-46437557D03*
X198651958Y-48977557D03*
X198651957Y-51517561D03*
X198651952Y-54057559D03*
X198651960Y-56597561D03*
D32*
X214921960Y-56597557D03*
X214921958Y-54057563D03*
X214921960Y-51517563D03*
X214921957Y-48977562D03*
X214921957Y-46437560D03*
X214921957Y-43897563D03*
X214921960Y-41357560D03*
D33*
X201806957Y-48664060D03*
X211806957Y-48664054D03*
X201806955Y-46759062D03*
X211806962Y-46759061D03*
D20*
X205481955Y-40409060D03*
X208021956Y-40409056D03*
X205481961Y-42949058D03*
X208021953Y-42949059D03*
%TD*%
D11*
%TO.C,CPG1316*%
X100663033Y-101091549D03*
D12*
X100663033Y-101091549D03*
D11*
X103626096Y-100622252D03*
D12*
X103626096Y-100622252D03*
D13*
X96396795Y-105159015D03*
X94519585Y-93306756D03*
X108940437Y-103172300D03*
X107063227Y-91320041D03*
%TD*%
D11*
%TO.C,CPG1316*%
X114794352Y-81641461D03*
D12*
X114794352Y-81641461D03*
D11*
X117757415Y-81172164D03*
D12*
X117757415Y-81172164D03*
D13*
X110528114Y-85708927D03*
X108650904Y-73856668D03*
X123071756Y-83722212D03*
X121194546Y-71869953D03*
%TD*%
D11*
%TO.C,CPG1316*%
X184821388Y-105245066D03*
D34*
X184821388Y-105245066D03*
D11*
X187809977Y-105506532D03*
D34*
X187809977Y-105506532D03*
D35*
X179697877Y-108159613D03*
X180743747Y-96205276D03*
X192349549Y-109266490D03*
X193395419Y-97312153D03*
%TD*%
M02*
