%TF.GenerationSoftware,KiCad,Pcbnew,8.0.6*%
%TF.CreationDate,2025-08-05T00:15:38+02:00*%
%TF.ProjectId,reversible,72657665-7273-4696-926c-652e6b696361,v1.0.0*%
%TF.SameCoordinates,Original*%
%TF.FileFunction,Drillmap*%
%TF.FilePolarity,Positive*%
%FSLAX45Y45*%
G04 Gerber Fmt 4.5, Leading zero omitted, Abs format (unit mm)*
G04 Created by KiCad (PCBNEW 8.0.6) date 2025-08-05 00:15:38*
%MOMM*%
%LPD*%
G01*
G04 APERTURE LIST*
%ADD10C,0.150000*%
%ADD11C,0.050000*%
%ADD12C,0.100000*%
%ADD13C,0.200000*%
%ADD14C,0.220000*%
G04 APERTURE END LIST*
D10*
X21794496Y-10204945D02*
X21208312Y-11764206D01*
X17568699Y-11132756D02*
X15940906Y-11118290D01*
X21807288Y-10134485D02*
G75*
G02*
X21794496Y-10204945I-200028J-75D01*
G01*
X9533019Y-10885242D02*
G75*
G02*
X9302345Y-10719293I-33139J197232D01*
G01*
X21208312Y-11764206D02*
G75*
G02*
X20952700Y-11881767I-187212J70387D01*
G01*
X16246437Y-3217756D02*
G75*
G02*
X16313001Y-3229158I-8J-200024D01*
G01*
X17568699Y-11132756D02*
G75*
G02*
X17582625Y-11133365I-1759J-199514D01*
G01*
X21604778Y-3817756D02*
G75*
G02*
X21804784Y-4017674I2J-200004D01*
G01*
X18014955Y-3817756D02*
X21604778Y-3817756D01*
X19232156Y-11263277D02*
X17582625Y-11133366D01*
X15830789Y-11084069D02*
X14350049Y-10084569D01*
X14198669Y-10054276D02*
G75*
G02*
X14350049Y-10084569I39481J-196085D01*
G01*
X12784710Y-10338929D02*
X9533019Y-10885242D01*
X10223049Y-5389230D02*
G75*
G02*
X10135900Y-5425607I-118459J161210D01*
G01*
X12194233Y-3940620D02*
G75*
G02*
X12247984Y-3912530I118447J-161180D01*
G01*
X12791058Y-10337757D02*
G75*
G02*
X12784710Y-10338929I-39439J195857D01*
G01*
X9302344Y-10719293D02*
X8536110Y-5881481D01*
D11*
X21724000Y-9440000D02*
X19624000Y-9440000D01*
X19624000Y-6240000D01*
X21724000Y-6240000D01*
X21724000Y-9440000D01*
D10*
X21804778Y-4017674D02*
X21807288Y-10134485D01*
X10223049Y-5389230D02*
X12194233Y-3940620D01*
X14249247Y-3228505D02*
G75*
G02*
X14313932Y-3217756I64693J-189295D01*
G01*
X8702361Y-5652656D02*
X10135900Y-5425606D01*
X12247984Y-3912530D02*
X14249247Y-3228505D01*
X14198669Y-10054276D02*
X12791058Y-10337757D01*
X20952700Y-11881766D02*
X19284858Y-11274721D01*
X16313001Y-3229157D02*
X17948391Y-3806354D01*
X14313932Y-3217756D02*
X16246437Y-3217756D01*
X15940906Y-11118290D02*
G75*
G02*
X15830789Y-11084068I1784J200010D01*
G01*
X8536110Y-5881481D02*
G75*
G02*
X8702360Y-5652653I197550J31281D01*
G01*
X19232156Y-11263277D02*
G75*
G02*
X19284858Y-11274722I-15697J-199343D01*
G01*
X18014955Y-3817756D02*
G75*
G02*
X17948390Y-3806355I-5J199996D01*
G01*
D12*
X12517950Y-9738897D02*
G75*
G02*
X12417950Y-9738897I-50000J0D01*
G01*
X12417950Y-9738897D02*
G75*
G02*
X12517950Y-9738897I50000J0D01*
G01*
X12441911Y-9195669D02*
G75*
G02*
X12321910Y-9195669I-60001J0D01*
G01*
X12321910Y-9195669D02*
G75*
G02*
X12441911Y-9195669I60001J0D01*
G01*
X11372231Y-9920361D02*
G75*
G02*
X11272232Y-9920361I-50000J0D01*
G01*
X11272232Y-9920361D02*
G75*
G02*
X11372231Y-9920361I50000J0D01*
G01*
X11296192Y-9377133D02*
G75*
G02*
X11176192Y-9377133I-60000J0D01*
G01*
X11176192Y-9377133D02*
G75*
G02*
X11296192Y-9377133I60000J0D01*
G01*
X17610696Y-8442756D02*
G75*
G02*
X17510696Y-8442756I-50000J0D01*
G01*
X17510696Y-8442756D02*
G75*
G02*
X17610696Y-8442756I50000J0D01*
G01*
X17620696Y-7892756D02*
G75*
G02*
X17500695Y-7892756I-60001J0D01*
G01*
X17500695Y-7892756D02*
G75*
G02*
X17620696Y-7892756I60001J0D01*
G01*
X16450696Y-8442756D02*
G75*
G02*
X16350697Y-8442756I-50000J0D01*
G01*
X16350697Y-8442756D02*
G75*
G02*
X16450696Y-8442756I50000J0D01*
G01*
X16460696Y-7892755D02*
G75*
G02*
X16340695Y-7892755I-60000J0D01*
G01*
X16340695Y-7892755D02*
G75*
G02*
X16460696Y-7892755I60000J0D01*
G01*
X13930557Y-5034253D02*
G75*
G02*
X13830556Y-5034253I-50000J0D01*
G01*
X13830556Y-5034253D02*
G75*
G02*
X13930557Y-5034253I50000J0D01*
G01*
X13902191Y-4485593D02*
G75*
G02*
X13782190Y-4485593I-60000J0D01*
G01*
X13782190Y-4485593D02*
G75*
G02*
X13902191Y-4485593I60000J0D01*
G01*
X12773382Y-5115170D02*
G75*
G02*
X12673383Y-5115170I-50000J0D01*
G01*
X12673383Y-5115170D02*
G75*
G02*
X12773382Y-5115170I50000J0D01*
G01*
X12745017Y-4566510D02*
G75*
G02*
X12625016Y-4566510I-60000J0D01*
G01*
X12625016Y-4566510D02*
G75*
G02*
X12745017Y-4566510I60000J0D01*
G01*
X17510696Y-10442756D02*
G75*
G02*
X17410696Y-10442756I-50000J0D01*
G01*
X17410696Y-10442756D02*
G75*
G02*
X17510696Y-10442756I50000J0D01*
G01*
X17520696Y-9892756D02*
G75*
G02*
X17400695Y-9892756I-60001J0D01*
G01*
X17400695Y-9892756D02*
G75*
G02*
X17520696Y-9892756I60001J0D01*
G01*
X16350696Y-10442756D02*
G75*
G02*
X16250697Y-10442756I-50000J0D01*
G01*
X16250697Y-10442756D02*
G75*
G02*
X16350696Y-10442756I50000J0D01*
G01*
X16360696Y-9892755D02*
G75*
G02*
X16240696Y-9892755I-60000J0D01*
G01*
X16240696Y-9892755D02*
G75*
G02*
X16360696Y-9892755I60000J0D01*
G01*
X10572942Y-8325765D02*
G75*
G02*
X10472941Y-8325765I-50000J0D01*
G01*
X10472941Y-8325765D02*
G75*
G02*
X10572942Y-8325765I50000J0D01*
G01*
X10496903Y-7782536D02*
G75*
G02*
X10376901Y-7782536I-60001J0D01*
G01*
X10376901Y-7782536D02*
G75*
G02*
X10496903Y-7782536I60001J0D01*
G01*
X9427223Y-8507229D02*
G75*
G02*
X9327223Y-8507229I-50000J0D01*
G01*
X9327223Y-8507229D02*
G75*
G02*
X9427223Y-8507229I50000J0D01*
G01*
X9351184Y-7964000D02*
G75*
G02*
X9231184Y-7964000I-60000J0D01*
G01*
X9231184Y-7964000D02*
G75*
G02*
X9351184Y-7964000I60000J0D01*
G01*
X19310696Y-5242756D02*
G75*
G02*
X19210696Y-5242756I-50000J0D01*
G01*
X19210696Y-5242756D02*
G75*
G02*
X19310696Y-5242756I50000J0D01*
G01*
X19320696Y-4692756D02*
G75*
G02*
X19200695Y-4692756I-60001J0D01*
G01*
X19200695Y-4692756D02*
G75*
G02*
X19320696Y-4692756I60001J0D01*
G01*
X18150696Y-5242756D02*
G75*
G02*
X18050697Y-5242756I-50000J0D01*
G01*
X18050697Y-5242756D02*
G75*
G02*
X18150696Y-5242756I50000J0D01*
G01*
X18160697Y-4692756D02*
G75*
G02*
X18040696Y-4692756I-60000J0D01*
G01*
X18040696Y-4692756D02*
G75*
G02*
X18160697Y-4692756I60000J0D01*
G01*
X14049143Y-6730111D02*
G75*
G02*
X13949143Y-6730111I-50000J0D01*
G01*
X13949143Y-6730111D02*
G75*
G02*
X14049143Y-6730111I50000J0D01*
G01*
X14020777Y-6181451D02*
G75*
G02*
X13900777Y-6181451I-60000J0D01*
G01*
X13900777Y-6181451D02*
G75*
G02*
X14020777Y-6181451I60000J0D01*
G01*
X12891969Y-6811029D02*
G75*
G02*
X12791970Y-6811029I-50000J0D01*
G01*
X12791970Y-6811029D02*
G75*
G02*
X12891969Y-6811029I50000J0D01*
G01*
X12863603Y-6262369D02*
G75*
G02*
X12743603Y-6262369I-60000J0D01*
G01*
X12743603Y-6262369D02*
G75*
G02*
X12863603Y-6262369I60000J0D01*
G01*
X14167729Y-8425971D02*
G75*
G02*
X14067729Y-8425971I-50000J0D01*
G01*
X14067729Y-8425971D02*
G75*
G02*
X14167729Y-8425971I50000J0D01*
G01*
X14139363Y-7877311D02*
G75*
G02*
X14019362Y-7877311I-60000J0D01*
G01*
X14019362Y-7877311D02*
G75*
G02*
X14139363Y-7877311I60000J0D01*
G01*
X13010555Y-8506888D02*
G75*
G02*
X12910555Y-8506888I-50000J0D01*
G01*
X12910555Y-8506888D02*
G75*
G02*
X13010555Y-8506888I50000J0D01*
G01*
X12982189Y-7958228D02*
G75*
G02*
X12862188Y-7958228I-60000J0D01*
G01*
X12862188Y-7958228D02*
G75*
G02*
X12982189Y-7958228I60000J0D01*
G01*
X17610696Y-5042756D02*
G75*
G02*
X17510697Y-5042756I-50000J0D01*
G01*
X17510697Y-5042756D02*
G75*
G02*
X17610696Y-5042756I50000J0D01*
G01*
X17620696Y-4492756D02*
G75*
G02*
X17500695Y-4492756I-60001J0D01*
G01*
X17500695Y-4492756D02*
G75*
G02*
X17620696Y-4492756I60001J0D01*
G01*
X16450696Y-5042755D02*
G75*
G02*
X16350697Y-5042755I-50000J0D01*
G01*
X16350697Y-5042755D02*
G75*
G02*
X16450696Y-5042755I50000J0D01*
G01*
X16460697Y-4492755D02*
G75*
G02*
X16340696Y-4492755I-60000J0D01*
G01*
X16340696Y-4492755D02*
G75*
G02*
X16460697Y-4492755I60000J0D01*
G01*
X15910696Y-6142756D02*
G75*
G02*
X15810696Y-6142756I-50000J0D01*
G01*
X15810696Y-6142756D02*
G75*
G02*
X15910696Y-6142756I50000J0D01*
G01*
X15920696Y-5592756D02*
G75*
G02*
X15800695Y-5592756I-60001J0D01*
G01*
X15800695Y-5592756D02*
G75*
G02*
X15920696Y-5592756I60001J0D01*
G01*
X14750696Y-6142755D02*
G75*
G02*
X14650697Y-6142755I-50000J0D01*
G01*
X14650697Y-6142755D02*
G75*
G02*
X14750696Y-6142755I50000J0D01*
G01*
X14760696Y-5592755D02*
G75*
G02*
X14640695Y-5592755I-60000J0D01*
G01*
X14640695Y-5592755D02*
G75*
G02*
X14760696Y-5592755I60000J0D01*
G01*
X19310696Y-6942756D02*
G75*
G02*
X19210696Y-6942756I-50000J0D01*
G01*
X19210696Y-6942756D02*
G75*
G02*
X19310696Y-6942756I50000J0D01*
G01*
X19320696Y-6392756D02*
G75*
G02*
X19200695Y-6392756I-60001J0D01*
G01*
X19200695Y-6392756D02*
G75*
G02*
X19320696Y-6392756I60001J0D01*
G01*
X18150696Y-6942756D02*
G75*
G02*
X18050697Y-6942756I-50000J0D01*
G01*
X18050697Y-6942756D02*
G75*
G02*
X18150696Y-6942756I50000J0D01*
G01*
X18160697Y-6392755D02*
G75*
G02*
X18040696Y-6392755I-60000J0D01*
G01*
X18040696Y-6392755D02*
G75*
G02*
X18160697Y-6392755I60000J0D01*
G01*
X17610696Y-6742756D02*
G75*
G02*
X17510696Y-6742756I-50000J0D01*
G01*
X17510696Y-6742756D02*
G75*
G02*
X17610696Y-6742756I50000J0D01*
G01*
X17620696Y-6192756D02*
G75*
G02*
X17500695Y-6192756I-60001J0D01*
G01*
X17500695Y-6192756D02*
G75*
G02*
X17620696Y-6192756I60001J0D01*
G01*
X16450696Y-6742756D02*
G75*
G02*
X16350697Y-6742756I-50000J0D01*
G01*
X16350697Y-6742756D02*
G75*
G02*
X16450696Y-6742756I50000J0D01*
G01*
X16460696Y-6192756D02*
G75*
G02*
X16340695Y-6192756I-60000J0D01*
G01*
X16340695Y-6192756D02*
G75*
G02*
X16460696Y-6192756I60000J0D01*
G01*
X10307003Y-6646695D02*
G75*
G02*
X10207002Y-6646695I-50000J0D01*
G01*
X10207002Y-6646695D02*
G75*
G02*
X10307003Y-6646695I50000J0D01*
G01*
X10230964Y-6103466D02*
G75*
G02*
X10110963Y-6103466I-60001J0D01*
G01*
X10110963Y-6103466D02*
G75*
G02*
X10230964Y-6103466I60001J0D01*
G01*
X9161284Y-6828159D02*
G75*
G02*
X9061284Y-6828159I-50000J0D01*
G01*
X9061284Y-6828159D02*
G75*
G02*
X9161284Y-6828159I50000J0D01*
G01*
X9085245Y-6284930D02*
G75*
G02*
X8965245Y-6284930I-60000J0D01*
G01*
X8965245Y-6284930D02*
G75*
G02*
X9085245Y-6284930I60000J0D01*
G01*
X15910696Y-4442756D02*
G75*
G02*
X15810697Y-4442756I-50000J0D01*
G01*
X15810697Y-4442756D02*
G75*
G02*
X15910696Y-4442756I50000J0D01*
G01*
X15920696Y-3892756D02*
G75*
G02*
X15800695Y-3892756I-60001J0D01*
G01*
X15800695Y-3892756D02*
G75*
G02*
X15920696Y-3892756I60001J0D01*
G01*
X14750696Y-4442756D02*
G75*
G02*
X14650697Y-4442756I-50000J0D01*
G01*
X14650697Y-4442756D02*
G75*
G02*
X14750696Y-4442756I50000J0D01*
G01*
X14760697Y-3892756D02*
G75*
G02*
X14640696Y-3892756I-60000J0D01*
G01*
X14640696Y-3892756D02*
G75*
G02*
X14760697Y-3892756I60000J0D01*
G01*
X19310696Y-8642756D02*
G75*
G02*
X19210696Y-8642756I-50000J0D01*
G01*
X19210696Y-8642756D02*
G75*
G02*
X19310696Y-8642756I50000J0D01*
G01*
X19320696Y-8092756D02*
G75*
G02*
X19200695Y-8092756I-60001J0D01*
G01*
X19200695Y-8092756D02*
G75*
G02*
X19320696Y-8092756I60001J0D01*
G01*
X18150696Y-8642755D02*
G75*
G02*
X18050697Y-8642755I-50000J0D01*
G01*
X18050697Y-8642755D02*
G75*
G02*
X18150696Y-8642755I50000J0D01*
G01*
X18160696Y-8092755D02*
G75*
G02*
X18040696Y-8092755I-60000J0D01*
G01*
X18040696Y-8092755D02*
G75*
G02*
X18160696Y-8092755I60000J0D01*
G01*
X11986073Y-6380756D02*
G75*
G02*
X11886072Y-6380756I-50000J0D01*
G01*
X11886072Y-6380756D02*
G75*
G02*
X11986073Y-6380756I50000J0D01*
G01*
X11910034Y-5837527D02*
G75*
G02*
X11790033Y-5837527I-60001J0D01*
G01*
X11790033Y-5837527D02*
G75*
G02*
X11910034Y-5837527I60001J0D01*
G01*
X10840354Y-6562220D02*
G75*
G02*
X10740355Y-6562220I-50000J0D01*
G01*
X10740355Y-6562220D02*
G75*
G02*
X10840354Y-6562220I50000J0D01*
G01*
X10764315Y-6018991D02*
G75*
G02*
X10644315Y-6018991I-60000J0D01*
G01*
X10644315Y-6018991D02*
G75*
G02*
X10764315Y-6018991I60000J0D01*
G01*
X21222974Y-10654684D02*
G75*
G02*
X21102974Y-10654684I-60000J0D01*
G01*
X21102974Y-10654684D02*
G75*
G02*
X21222974Y-10654684I60000J0D01*
G01*
X21024862Y-11171514D02*
G75*
G02*
X20924863Y-11171514I-50000J0D01*
G01*
X20924863Y-11171514D02*
G75*
G02*
X21024862Y-11171514I50000J0D01*
G01*
X20132931Y-10257940D02*
G75*
G02*
X20012931Y-10257940I-60000J0D01*
G01*
X20012931Y-10257940D02*
G75*
G02*
X20132931Y-10257940I60000J0D01*
G01*
X19934819Y-10774771D02*
G75*
G02*
X19834820Y-10774771I-50000J0D01*
G01*
X19834820Y-10774771D02*
G75*
G02*
X19934819Y-10774771I50000J0D01*
G01*
X15910696Y-7842756D02*
G75*
G02*
X15810696Y-7842756I-50000J0D01*
G01*
X15810696Y-7842756D02*
G75*
G02*
X15910696Y-7842756I50000J0D01*
G01*
X15920696Y-7292756D02*
G75*
G02*
X15800695Y-7292756I-60001J0D01*
G01*
X15800695Y-7292756D02*
G75*
G02*
X15920696Y-7292756I60001J0D01*
G01*
X14750696Y-7842756D02*
G75*
G02*
X14650697Y-7842756I-50000J0D01*
G01*
X14650697Y-7842756D02*
G75*
G02*
X14750696Y-7842756I50000J0D01*
G01*
X14760697Y-7292756D02*
G75*
G02*
X14640696Y-7292756I-60000J0D01*
G01*
X14640696Y-7292756D02*
G75*
G02*
X14760697Y-7292756I60000J0D01*
G01*
D10*
X21180697Y-4720906D02*
G75*
G02*
X21180696Y-4630906I-1J45000D01*
G01*
X21180696Y-4911407D02*
G75*
G02*
X21180696Y-4821405I0J45001D01*
G01*
X20802196Y-4085906D02*
G75*
G02*
X20802196Y-3995905I0J45001D01*
G01*
X20802196Y-4339906D02*
G75*
G02*
X20802197Y-4249906I1J45000D01*
G01*
X20548196Y-3995906D02*
G75*
G02*
X20548197Y-4085906I0J-45000D01*
G01*
X20548196Y-4249906D02*
G75*
G02*
X20548196Y-4339906I0J-45000D01*
G01*
X20180696Y-4630906D02*
G75*
G02*
X20180696Y-4720906I-1J-45000D01*
G01*
X20180696Y-4821406D02*
G75*
G02*
X20180696Y-4911405I0J-45000D01*
G01*
X21180696Y-4957755D02*
X21180696Y-4911407D01*
X21180696Y-4587756D02*
X20880696Y-4587756D01*
X21180696Y-4821406D02*
X21180697Y-4720906D01*
X21180696Y-4630906D02*
X21180696Y-4587756D01*
X20880696Y-4587756D02*
X20880696Y-4957756D01*
X20880696Y-4957756D02*
X21180696Y-4957755D01*
X20802196Y-4085906D02*
X20802197Y-4249906D01*
X20802196Y-4339906D02*
X20548196Y-4339906D01*
X20548196Y-3995906D02*
X20802196Y-3995906D01*
X20548196Y-4249906D02*
X20548197Y-4085906D01*
X20480696Y-4587756D02*
X20480696Y-4957756D01*
X20480696Y-4957756D02*
X20180696Y-4957756D01*
X20180696Y-4587756D02*
X20480696Y-4587756D01*
X20180696Y-4957756D02*
X20180696Y-4911406D01*
X20180696Y-4630906D02*
X20180696Y-4587756D01*
X20180696Y-4821406D02*
X20180696Y-4720906D01*
D12*
X10838880Y-10004835D02*
G75*
G02*
X10738880Y-10004835I-50000J0D01*
G01*
X10738880Y-10004835D02*
G75*
G02*
X10838880Y-10004835I50000J0D01*
G01*
X10762841Y-9461607D02*
G75*
G02*
X10642840Y-9461607I-60001J0D01*
G01*
X10642840Y-9461607D02*
G75*
G02*
X10762841Y-9461607I60001J0D01*
G01*
X9693161Y-10186299D02*
G75*
G02*
X9593162Y-10186299I-50000J0D01*
G01*
X9593162Y-10186299D02*
G75*
G02*
X9693161Y-10186299I50000J0D01*
G01*
X9617122Y-9643071D02*
G75*
G02*
X9497122Y-9643071I-60000J0D01*
G01*
X9497122Y-9643071D02*
G75*
G02*
X9617122Y-9643071I60000J0D01*
G01*
X12252012Y-8059826D02*
G75*
G02*
X12152012Y-8059826I-50000J0D01*
G01*
X12152012Y-8059826D02*
G75*
G02*
X12252012Y-8059826I50000J0D01*
G01*
X12175973Y-7516598D02*
G75*
G02*
X12055972Y-7516598I-60001J0D01*
G01*
X12055972Y-7516598D02*
G75*
G02*
X12175973Y-7516598I60001J0D01*
G01*
X11106293Y-8241290D02*
G75*
G02*
X11006294Y-8241290I-50000J0D01*
G01*
X11006294Y-8241290D02*
G75*
G02*
X11106293Y-8241290I50000J0D01*
G01*
X11030254Y-7698062D02*
G75*
G02*
X10910254Y-7698062I-60000J0D01*
G01*
X10910254Y-7698062D02*
G75*
G02*
X11030254Y-7698062I60000J0D01*
G01*
X19316426Y-10050185D02*
G75*
G02*
X19196426Y-10050185I-60000J0D01*
G01*
X19196426Y-10050185D02*
G75*
G02*
X19316426Y-10050185I60000J0D01*
G01*
X19258490Y-10598092D02*
G75*
G02*
X19158490Y-10598092I-50000J0D01*
G01*
X19158490Y-10598092D02*
G75*
G02*
X19258490Y-10598092I50000J0D01*
G01*
X18160839Y-9949085D02*
G75*
G02*
X18040840Y-9949085I-60000J0D01*
G01*
X18040840Y-9949085D02*
G75*
G02*
X18160839Y-9949085I60000J0D01*
G01*
X18102904Y-10496992D02*
G75*
G02*
X18002904Y-10496992I-50000J0D01*
G01*
X18002904Y-10496992D02*
G75*
G02*
X18102904Y-10496992I50000J0D01*
G01*
D13*
D12*
X19874246Y-5107306D02*
X19963146Y-5196206D01*
X19963146Y-5107306D02*
X19874246Y-5196206D01*
X19874246Y-5107306D02*
X19963146Y-5196206D01*
X19963146Y-5107306D02*
X19874246Y-5196206D01*
X19874246Y-4345306D02*
X19963146Y-4434206D01*
X19963146Y-4345306D02*
X19874246Y-4434206D01*
X19874246Y-4345306D02*
X19963146Y-4434206D01*
X19963146Y-4345306D02*
X19874246Y-4434206D01*
X19874246Y-4853306D02*
X19963146Y-4942206D01*
X19963146Y-4853306D02*
X19874246Y-4942206D01*
X19874246Y-4853306D02*
X19963146Y-4942206D01*
X19963146Y-4853306D02*
X19874246Y-4942206D01*
X19874246Y-4599306D02*
X19963146Y-4688206D01*
X19963146Y-4599306D02*
X19874246Y-4688206D01*
X19874246Y-4599306D02*
X19963146Y-4688206D01*
X19963146Y-4599306D02*
X19874246Y-4688206D01*
X19874246Y-5361306D02*
X19963146Y-5450206D01*
X19963146Y-5361306D02*
X19874246Y-5450206D01*
X19874246Y-5361306D02*
X19963146Y-5450206D01*
X19963146Y-5361306D02*
X19874246Y-5450206D01*
X19874246Y-5615306D02*
X19963146Y-5704206D01*
X19963146Y-5615306D02*
X19874246Y-5704206D01*
X19874246Y-5615306D02*
X19963146Y-5704206D01*
X19963146Y-5615306D02*
X19874246Y-5704206D01*
X19874246Y-4091306D02*
X19963146Y-4180206D01*
X19963146Y-4091306D02*
X19874246Y-4180206D01*
X19874246Y-4091306D02*
X19963146Y-4180206D01*
X19963146Y-4091306D02*
X19874246Y-4180206D01*
X21398246Y-5615306D02*
X21487146Y-5704206D01*
X21487146Y-5615306D02*
X21398246Y-5704206D01*
X21398246Y-5615306D02*
X21487146Y-5704206D01*
X21487146Y-5615306D02*
X21398246Y-5704206D01*
X21398246Y-4091306D02*
X21487146Y-4180206D01*
X21487146Y-4091306D02*
X21398246Y-4180206D01*
X21398246Y-4091306D02*
X21487146Y-4180206D01*
X21487146Y-4091306D02*
X21398246Y-4180206D01*
X21398246Y-4345306D02*
X21487146Y-4434206D01*
X21487146Y-4345306D02*
X21398246Y-4434206D01*
X21398246Y-4345306D02*
X21487146Y-4434206D01*
X21487146Y-4345306D02*
X21398246Y-4434206D01*
X21398246Y-5107306D02*
X21487146Y-5196206D01*
X21487146Y-5107306D02*
X21398246Y-5196206D01*
X21398246Y-5107306D02*
X21487146Y-5196206D01*
X21487146Y-5107306D02*
X21398246Y-5196206D01*
X21398246Y-4853306D02*
X21487146Y-4942206D01*
X21487146Y-4853306D02*
X21398246Y-4942206D01*
X21398246Y-4853306D02*
X21487146Y-4942206D01*
X21487146Y-4853306D02*
X21398246Y-4942206D01*
X21398246Y-5361306D02*
X21487146Y-5450206D01*
X21487146Y-5361306D02*
X21398246Y-5450206D01*
X21398246Y-5361306D02*
X21487146Y-5450206D01*
X21487146Y-5361306D02*
X21398246Y-5450206D01*
X21398246Y-4599306D02*
X21487146Y-4688206D01*
X21487146Y-4599306D02*
X21398246Y-4688206D01*
X21398246Y-4599306D02*
X21487146Y-4688206D01*
X21487146Y-4599306D02*
X21398246Y-4688206D01*
X16604682Y-3491057D02*
G75*
G02*
X16514682Y-3491057I-45000J0D01*
G01*
X16514682Y-3491057D02*
G75*
G02*
X16604682Y-3491057I45000J0D01*
G01*
X16888339Y-3588727D02*
G75*
G02*
X16798339Y-3588727I-45000J0D01*
G01*
X16798339Y-3588727D02*
G75*
G02*
X16888339Y-3588727I45000J0D01*
G01*
D14*
X13610084Y-9370952D02*
X13610084Y-9590952D01*
X13500084Y-9480952D02*
X13720084Y-9480952D01*
X14059844Y-3474215D02*
X14059844Y-3694215D01*
X13949844Y-3584215D02*
X14169844Y-3584215D01*
X15080696Y-9357756D02*
X15080696Y-9577756D01*
X14970696Y-9467756D02*
X15190696Y-9467756D01*
X21416138Y-9615216D02*
X21416138Y-9835216D01*
X21306138Y-9725216D02*
X21526138Y-9725216D01*
D13*
X8786926Y-12212810D02*
X8786926Y-12012810D01*
X8786926Y-12012810D02*
X8834545Y-12012810D01*
X8834545Y-12012810D02*
X8863116Y-12022334D01*
X8863116Y-12022334D02*
X8882164Y-12041382D01*
X8882164Y-12041382D02*
X8891688Y-12060429D01*
X8891688Y-12060429D02*
X8901211Y-12098524D01*
X8901211Y-12098524D02*
X8901211Y-12127096D01*
X8901211Y-12127096D02*
X8891688Y-12165191D01*
X8891688Y-12165191D02*
X8882164Y-12184239D01*
X8882164Y-12184239D02*
X8863116Y-12203286D01*
X8863116Y-12203286D02*
X8834545Y-12212810D01*
X8834545Y-12212810D02*
X8786926Y-12212810D01*
X8986926Y-12212810D02*
X8986926Y-12079477D01*
X8986926Y-12117572D02*
X8996450Y-12098524D01*
X8996450Y-12098524D02*
X9005973Y-12089001D01*
X9005973Y-12089001D02*
X9025021Y-12079477D01*
X9025021Y-12079477D02*
X9044069Y-12079477D01*
X9110735Y-12212810D02*
X9110735Y-12079477D01*
X9110735Y-12012810D02*
X9101211Y-12022334D01*
X9101211Y-12022334D02*
X9110735Y-12031858D01*
X9110735Y-12031858D02*
X9120259Y-12022334D01*
X9120259Y-12022334D02*
X9110735Y-12012810D01*
X9110735Y-12012810D02*
X9110735Y-12031858D01*
X9234545Y-12212810D02*
X9215497Y-12203286D01*
X9215497Y-12203286D02*
X9205973Y-12184239D01*
X9205973Y-12184239D02*
X9205973Y-12012810D01*
X9339307Y-12212810D02*
X9320259Y-12203286D01*
X9320259Y-12203286D02*
X9310735Y-12184239D01*
X9310735Y-12184239D02*
X9310735Y-12012810D01*
X9567878Y-12212810D02*
X9567878Y-12012810D01*
X9567878Y-12012810D02*
X9634545Y-12155667D01*
X9634545Y-12155667D02*
X9701211Y-12012810D01*
X9701211Y-12012810D02*
X9701211Y-12212810D01*
X9882164Y-12212810D02*
X9882164Y-12108048D01*
X9882164Y-12108048D02*
X9872640Y-12089001D01*
X9872640Y-12089001D02*
X9853592Y-12079477D01*
X9853592Y-12079477D02*
X9815497Y-12079477D01*
X9815497Y-12079477D02*
X9796450Y-12089001D01*
X9882164Y-12203286D02*
X9863116Y-12212810D01*
X9863116Y-12212810D02*
X9815497Y-12212810D01*
X9815497Y-12212810D02*
X9796450Y-12203286D01*
X9796450Y-12203286D02*
X9786926Y-12184239D01*
X9786926Y-12184239D02*
X9786926Y-12165191D01*
X9786926Y-12165191D02*
X9796450Y-12146143D01*
X9796450Y-12146143D02*
X9815497Y-12136620D01*
X9815497Y-12136620D02*
X9863116Y-12136620D01*
X9863116Y-12136620D02*
X9882164Y-12127096D01*
X9977402Y-12079477D02*
X9977402Y-12279477D01*
X9977402Y-12089001D02*
X9996450Y-12079477D01*
X9996450Y-12079477D02*
X10034545Y-12079477D01*
X10034545Y-12079477D02*
X10053592Y-12089001D01*
X10053592Y-12089001D02*
X10063116Y-12098524D01*
X10063116Y-12098524D02*
X10072640Y-12117572D01*
X10072640Y-12117572D02*
X10072640Y-12174715D01*
X10072640Y-12174715D02*
X10063116Y-12193762D01*
X10063116Y-12193762D02*
X10053592Y-12203286D01*
X10053592Y-12203286D02*
X10034545Y-12212810D01*
X10034545Y-12212810D02*
X9996450Y-12212810D01*
X9996450Y-12212810D02*
X9977402Y-12203286D01*
X10158354Y-12193762D02*
X10167878Y-12203286D01*
X10167878Y-12203286D02*
X10158354Y-12212810D01*
X10158354Y-12212810D02*
X10148831Y-12203286D01*
X10148831Y-12203286D02*
X10158354Y-12193762D01*
X10158354Y-12193762D02*
X10158354Y-12212810D01*
X10158354Y-12089001D02*
X10167878Y-12098524D01*
X10167878Y-12098524D02*
X10158354Y-12108048D01*
X10158354Y-12108048D02*
X10148831Y-12098524D01*
X10148831Y-12098524D02*
X10158354Y-12089001D01*
X10158354Y-12089001D02*
X10158354Y-12108048D01*
D12*
X8437249Y-12496876D02*
X8526149Y-12585776D01*
X8526149Y-12496876D02*
X8437249Y-12585776D01*
D13*
X8825021Y-12432810D02*
X8844069Y-12432810D01*
X8844069Y-12432810D02*
X8863116Y-12442334D01*
X8863116Y-12442334D02*
X8872640Y-12451858D01*
X8872640Y-12451858D02*
X8882164Y-12470905D01*
X8882164Y-12470905D02*
X8891688Y-12509001D01*
X8891688Y-12509001D02*
X8891688Y-12556620D01*
X8891688Y-12556620D02*
X8882164Y-12594715D01*
X8882164Y-12594715D02*
X8872640Y-12613762D01*
X8872640Y-12613762D02*
X8863116Y-12623286D01*
X8863116Y-12623286D02*
X8844069Y-12632810D01*
X8844069Y-12632810D02*
X8825021Y-12632810D01*
X8825021Y-12632810D02*
X8805973Y-12623286D01*
X8805973Y-12623286D02*
X8796450Y-12613762D01*
X8796450Y-12613762D02*
X8786926Y-12594715D01*
X8786926Y-12594715D02*
X8777402Y-12556620D01*
X8777402Y-12556620D02*
X8777402Y-12509001D01*
X8777402Y-12509001D02*
X8786926Y-12470905D01*
X8786926Y-12470905D02*
X8796450Y-12451858D01*
X8796450Y-12451858D02*
X8805973Y-12442334D01*
X8805973Y-12442334D02*
X8825021Y-12432810D01*
X8977402Y-12613762D02*
X8986926Y-12623286D01*
X8986926Y-12623286D02*
X8977402Y-12632810D01*
X8977402Y-12632810D02*
X8967878Y-12623286D01*
X8967878Y-12623286D02*
X8977402Y-12613762D01*
X8977402Y-12613762D02*
X8977402Y-12632810D01*
X9101211Y-12518524D02*
X9082164Y-12509001D01*
X9082164Y-12509001D02*
X9072640Y-12499477D01*
X9072640Y-12499477D02*
X9063116Y-12480429D01*
X9063116Y-12480429D02*
X9063116Y-12470905D01*
X9063116Y-12470905D02*
X9072640Y-12451858D01*
X9072640Y-12451858D02*
X9082164Y-12442334D01*
X9082164Y-12442334D02*
X9101211Y-12432810D01*
X9101211Y-12432810D02*
X9139307Y-12432810D01*
X9139307Y-12432810D02*
X9158354Y-12442334D01*
X9158354Y-12442334D02*
X9167878Y-12451858D01*
X9167878Y-12451858D02*
X9177402Y-12470905D01*
X9177402Y-12470905D02*
X9177402Y-12480429D01*
X9177402Y-12480429D02*
X9167878Y-12499477D01*
X9167878Y-12499477D02*
X9158354Y-12509001D01*
X9158354Y-12509001D02*
X9139307Y-12518524D01*
X9139307Y-12518524D02*
X9101211Y-12518524D01*
X9101211Y-12518524D02*
X9082164Y-12528048D01*
X9082164Y-12528048D02*
X9072640Y-12537572D01*
X9072640Y-12537572D02*
X9063116Y-12556620D01*
X9063116Y-12556620D02*
X9063116Y-12594715D01*
X9063116Y-12594715D02*
X9072640Y-12613762D01*
X9072640Y-12613762D02*
X9082164Y-12623286D01*
X9082164Y-12623286D02*
X9101211Y-12632810D01*
X9101211Y-12632810D02*
X9139307Y-12632810D01*
X9139307Y-12632810D02*
X9158354Y-12623286D01*
X9158354Y-12623286D02*
X9167878Y-12613762D01*
X9167878Y-12613762D02*
X9177402Y-12594715D01*
X9177402Y-12594715D02*
X9177402Y-12556620D01*
X9177402Y-12556620D02*
X9167878Y-12537572D01*
X9167878Y-12537572D02*
X9158354Y-12528048D01*
X9158354Y-12528048D02*
X9139307Y-12518524D01*
X9291688Y-12518524D02*
X9272640Y-12509001D01*
X9272640Y-12509001D02*
X9263116Y-12499477D01*
X9263116Y-12499477D02*
X9253592Y-12480429D01*
X9253592Y-12480429D02*
X9253592Y-12470905D01*
X9253592Y-12470905D02*
X9263116Y-12451858D01*
X9263116Y-12451858D02*
X9272640Y-12442334D01*
X9272640Y-12442334D02*
X9291688Y-12432810D01*
X9291688Y-12432810D02*
X9329783Y-12432810D01*
X9329783Y-12432810D02*
X9348831Y-12442334D01*
X9348831Y-12442334D02*
X9358354Y-12451858D01*
X9358354Y-12451858D02*
X9367878Y-12470905D01*
X9367878Y-12470905D02*
X9367878Y-12480429D01*
X9367878Y-12480429D02*
X9358354Y-12499477D01*
X9358354Y-12499477D02*
X9348831Y-12509001D01*
X9348831Y-12509001D02*
X9329783Y-12518524D01*
X9329783Y-12518524D02*
X9291688Y-12518524D01*
X9291688Y-12518524D02*
X9272640Y-12528048D01*
X9272640Y-12528048D02*
X9263116Y-12537572D01*
X9263116Y-12537572D02*
X9253592Y-12556620D01*
X9253592Y-12556620D02*
X9253592Y-12594715D01*
X9253592Y-12594715D02*
X9263116Y-12613762D01*
X9263116Y-12613762D02*
X9272640Y-12623286D01*
X9272640Y-12623286D02*
X9291688Y-12632810D01*
X9291688Y-12632810D02*
X9329783Y-12632810D01*
X9329783Y-12632810D02*
X9348831Y-12623286D01*
X9348831Y-12623286D02*
X9358354Y-12613762D01*
X9358354Y-12613762D02*
X9367878Y-12594715D01*
X9367878Y-12594715D02*
X9367878Y-12556620D01*
X9367878Y-12556620D02*
X9358354Y-12537572D01*
X9358354Y-12537572D02*
X9348831Y-12528048D01*
X9348831Y-12528048D02*
X9329783Y-12518524D01*
X9463116Y-12632810D02*
X9501211Y-12632810D01*
X9501211Y-12632810D02*
X9520259Y-12623286D01*
X9520259Y-12623286D02*
X9529783Y-12613762D01*
X9529783Y-12613762D02*
X9548831Y-12585191D01*
X9548831Y-12585191D02*
X9558354Y-12547096D01*
X9558354Y-12547096D02*
X9558354Y-12470905D01*
X9558354Y-12470905D02*
X9548831Y-12451858D01*
X9548831Y-12451858D02*
X9539307Y-12442334D01*
X9539307Y-12442334D02*
X9520259Y-12432810D01*
X9520259Y-12432810D02*
X9482164Y-12432810D01*
X9482164Y-12432810D02*
X9463116Y-12442334D01*
X9463116Y-12442334D02*
X9453592Y-12451858D01*
X9453592Y-12451858D02*
X9444069Y-12470905D01*
X9444069Y-12470905D02*
X9444069Y-12518524D01*
X9444069Y-12518524D02*
X9453592Y-12537572D01*
X9453592Y-12537572D02*
X9463116Y-12547096D01*
X9463116Y-12547096D02*
X9482164Y-12556620D01*
X9482164Y-12556620D02*
X9520259Y-12556620D01*
X9520259Y-12556620D02*
X9539307Y-12547096D01*
X9539307Y-12547096D02*
X9548831Y-12537572D01*
X9548831Y-12537572D02*
X9558354Y-12518524D01*
X9644069Y-12632810D02*
X9644069Y-12499477D01*
X9644069Y-12518524D02*
X9653592Y-12509001D01*
X9653592Y-12509001D02*
X9672640Y-12499477D01*
X9672640Y-12499477D02*
X9701212Y-12499477D01*
X9701212Y-12499477D02*
X9720259Y-12509001D01*
X9720259Y-12509001D02*
X9729783Y-12528048D01*
X9729783Y-12528048D02*
X9729783Y-12632810D01*
X9729783Y-12528048D02*
X9739307Y-12509001D01*
X9739307Y-12509001D02*
X9758354Y-12499477D01*
X9758354Y-12499477D02*
X9786926Y-12499477D01*
X9786926Y-12499477D02*
X9805973Y-12509001D01*
X9805973Y-12509001D02*
X9815497Y-12528048D01*
X9815497Y-12528048D02*
X9815497Y-12632810D01*
X9910735Y-12632810D02*
X9910735Y-12499477D01*
X9910735Y-12518524D02*
X9920259Y-12509001D01*
X9920259Y-12509001D02*
X9939307Y-12499477D01*
X9939307Y-12499477D02*
X9967878Y-12499477D01*
X9967878Y-12499477D02*
X9986926Y-12509001D01*
X9986926Y-12509001D02*
X9996450Y-12528048D01*
X9996450Y-12528048D02*
X9996450Y-12632810D01*
X9996450Y-12528048D02*
X10005973Y-12509001D01*
X10005973Y-12509001D02*
X10025021Y-12499477D01*
X10025021Y-12499477D02*
X10053592Y-12499477D01*
X10053592Y-12499477D02*
X10072640Y-12509001D01*
X10072640Y-12509001D02*
X10082164Y-12528048D01*
X10082164Y-12528048D02*
X10082164Y-12632810D01*
X10472640Y-12423286D02*
X10301212Y-12680429D01*
X10729783Y-12432810D02*
X10748831Y-12432810D01*
X10748831Y-12432810D02*
X10767878Y-12442334D01*
X10767878Y-12442334D02*
X10777402Y-12451858D01*
X10777402Y-12451858D02*
X10786926Y-12470905D01*
X10786926Y-12470905D02*
X10796450Y-12509001D01*
X10796450Y-12509001D02*
X10796450Y-12556620D01*
X10796450Y-12556620D02*
X10786926Y-12594715D01*
X10786926Y-12594715D02*
X10777402Y-12613762D01*
X10777402Y-12613762D02*
X10767878Y-12623286D01*
X10767878Y-12623286D02*
X10748831Y-12632810D01*
X10748831Y-12632810D02*
X10729783Y-12632810D01*
X10729783Y-12632810D02*
X10710735Y-12623286D01*
X10710735Y-12623286D02*
X10701212Y-12613762D01*
X10701212Y-12613762D02*
X10691688Y-12594715D01*
X10691688Y-12594715D02*
X10682164Y-12556620D01*
X10682164Y-12556620D02*
X10682164Y-12509001D01*
X10682164Y-12509001D02*
X10691688Y-12470905D01*
X10691688Y-12470905D02*
X10701212Y-12451858D01*
X10701212Y-12451858D02*
X10710735Y-12442334D01*
X10710735Y-12442334D02*
X10729783Y-12432810D01*
X10882164Y-12613762D02*
X10891688Y-12623286D01*
X10891688Y-12623286D02*
X10882164Y-12632810D01*
X10882164Y-12632810D02*
X10872640Y-12623286D01*
X10872640Y-12623286D02*
X10882164Y-12613762D01*
X10882164Y-12613762D02*
X10882164Y-12632810D01*
X11015497Y-12432810D02*
X11034545Y-12432810D01*
X11034545Y-12432810D02*
X11053593Y-12442334D01*
X11053593Y-12442334D02*
X11063116Y-12451858D01*
X11063116Y-12451858D02*
X11072640Y-12470905D01*
X11072640Y-12470905D02*
X11082164Y-12509001D01*
X11082164Y-12509001D02*
X11082164Y-12556620D01*
X11082164Y-12556620D02*
X11072640Y-12594715D01*
X11072640Y-12594715D02*
X11063116Y-12613762D01*
X11063116Y-12613762D02*
X11053593Y-12623286D01*
X11053593Y-12623286D02*
X11034545Y-12632810D01*
X11034545Y-12632810D02*
X11015497Y-12632810D01*
X11015497Y-12632810D02*
X10996450Y-12623286D01*
X10996450Y-12623286D02*
X10986926Y-12613762D01*
X10986926Y-12613762D02*
X10977402Y-12594715D01*
X10977402Y-12594715D02*
X10967878Y-12556620D01*
X10967878Y-12556620D02*
X10967878Y-12509001D01*
X10967878Y-12509001D02*
X10977402Y-12470905D01*
X10977402Y-12470905D02*
X10986926Y-12451858D01*
X10986926Y-12451858D02*
X10996450Y-12442334D01*
X10996450Y-12442334D02*
X11015497Y-12432810D01*
X11148831Y-12432810D02*
X11272640Y-12432810D01*
X11272640Y-12432810D02*
X11205973Y-12509001D01*
X11205973Y-12509001D02*
X11234545Y-12509001D01*
X11234545Y-12509001D02*
X11253593Y-12518524D01*
X11253593Y-12518524D02*
X11263116Y-12528048D01*
X11263116Y-12528048D02*
X11272640Y-12547096D01*
X11272640Y-12547096D02*
X11272640Y-12594715D01*
X11272640Y-12594715D02*
X11263116Y-12613762D01*
X11263116Y-12613762D02*
X11253593Y-12623286D01*
X11253593Y-12623286D02*
X11234545Y-12632810D01*
X11234545Y-12632810D02*
X11177402Y-12632810D01*
X11177402Y-12632810D02*
X11158355Y-12623286D01*
X11158355Y-12623286D02*
X11148831Y-12613762D01*
X11453593Y-12432810D02*
X11358354Y-12432810D01*
X11358354Y-12432810D02*
X11348831Y-12528048D01*
X11348831Y-12528048D02*
X11358354Y-12518524D01*
X11358354Y-12518524D02*
X11377402Y-12509001D01*
X11377402Y-12509001D02*
X11425021Y-12509001D01*
X11425021Y-12509001D02*
X11444069Y-12518524D01*
X11444069Y-12518524D02*
X11453593Y-12528048D01*
X11453593Y-12528048D02*
X11463116Y-12547096D01*
X11463116Y-12547096D02*
X11463116Y-12594715D01*
X11463116Y-12594715D02*
X11453593Y-12613762D01*
X11453593Y-12613762D02*
X11444069Y-12623286D01*
X11444069Y-12623286D02*
X11425021Y-12632810D01*
X11425021Y-12632810D02*
X11377402Y-12632810D01*
X11377402Y-12632810D02*
X11358354Y-12623286D01*
X11358354Y-12623286D02*
X11348831Y-12613762D01*
X11586926Y-12432810D02*
X11605974Y-12432810D01*
X11605974Y-12432810D02*
X11625021Y-12442334D01*
X11625021Y-12442334D02*
X11634545Y-12451858D01*
X11634545Y-12451858D02*
X11644069Y-12470905D01*
X11644069Y-12470905D02*
X11653593Y-12509001D01*
X11653593Y-12509001D02*
X11653593Y-12556620D01*
X11653593Y-12556620D02*
X11644069Y-12594715D01*
X11644069Y-12594715D02*
X11634545Y-12613762D01*
X11634545Y-12613762D02*
X11625021Y-12623286D01*
X11625021Y-12623286D02*
X11605974Y-12632810D01*
X11605974Y-12632810D02*
X11586926Y-12632810D01*
X11586926Y-12632810D02*
X11567878Y-12623286D01*
X11567878Y-12623286D02*
X11558354Y-12613762D01*
X11558354Y-12613762D02*
X11548831Y-12594715D01*
X11548831Y-12594715D02*
X11539307Y-12556620D01*
X11539307Y-12556620D02*
X11539307Y-12509001D01*
X11539307Y-12509001D02*
X11548831Y-12470905D01*
X11548831Y-12470905D02*
X11558354Y-12451858D01*
X11558354Y-12451858D02*
X11567878Y-12442334D01*
X11567878Y-12442334D02*
X11586926Y-12432810D01*
X11729783Y-12432810D02*
X11729783Y-12470905D01*
X11805974Y-12432810D02*
X11805974Y-12470905D01*
X12101212Y-12709001D02*
X12091688Y-12699477D01*
X12091688Y-12699477D02*
X12072640Y-12670905D01*
X12072640Y-12670905D02*
X12063116Y-12651858D01*
X12063116Y-12651858D02*
X12053593Y-12623286D01*
X12053593Y-12623286D02*
X12044069Y-12575667D01*
X12044069Y-12575667D02*
X12044069Y-12537572D01*
X12044069Y-12537572D02*
X12053593Y-12489953D01*
X12053593Y-12489953D02*
X12063116Y-12461382D01*
X12063116Y-12461382D02*
X12072640Y-12442334D01*
X12072640Y-12442334D02*
X12091688Y-12413762D01*
X12091688Y-12413762D02*
X12101212Y-12404239D01*
X12167878Y-12451858D02*
X12177402Y-12442334D01*
X12177402Y-12442334D02*
X12196450Y-12432810D01*
X12196450Y-12432810D02*
X12244069Y-12432810D01*
X12244069Y-12432810D02*
X12263116Y-12442334D01*
X12263116Y-12442334D02*
X12272640Y-12451858D01*
X12272640Y-12451858D02*
X12282164Y-12470905D01*
X12282164Y-12470905D02*
X12282164Y-12489953D01*
X12282164Y-12489953D02*
X12272640Y-12518524D01*
X12272640Y-12518524D02*
X12158355Y-12632810D01*
X12158355Y-12632810D02*
X12282164Y-12632810D01*
X12396450Y-12518524D02*
X12377402Y-12509001D01*
X12377402Y-12509001D02*
X12367878Y-12499477D01*
X12367878Y-12499477D02*
X12358355Y-12480429D01*
X12358355Y-12480429D02*
X12358355Y-12470905D01*
X12358355Y-12470905D02*
X12367878Y-12451858D01*
X12367878Y-12451858D02*
X12377402Y-12442334D01*
X12377402Y-12442334D02*
X12396450Y-12432810D01*
X12396450Y-12432810D02*
X12434545Y-12432810D01*
X12434545Y-12432810D02*
X12453593Y-12442334D01*
X12453593Y-12442334D02*
X12463116Y-12451858D01*
X12463116Y-12451858D02*
X12472640Y-12470905D01*
X12472640Y-12470905D02*
X12472640Y-12480429D01*
X12472640Y-12480429D02*
X12463116Y-12499477D01*
X12463116Y-12499477D02*
X12453593Y-12509001D01*
X12453593Y-12509001D02*
X12434545Y-12518524D01*
X12434545Y-12518524D02*
X12396450Y-12518524D01*
X12396450Y-12518524D02*
X12377402Y-12528048D01*
X12377402Y-12528048D02*
X12367878Y-12537572D01*
X12367878Y-12537572D02*
X12358355Y-12556620D01*
X12358355Y-12556620D02*
X12358355Y-12594715D01*
X12358355Y-12594715D02*
X12367878Y-12613762D01*
X12367878Y-12613762D02*
X12377402Y-12623286D01*
X12377402Y-12623286D02*
X12396450Y-12632810D01*
X12396450Y-12632810D02*
X12434545Y-12632810D01*
X12434545Y-12632810D02*
X12453593Y-12623286D01*
X12453593Y-12623286D02*
X12463116Y-12613762D01*
X12463116Y-12613762D02*
X12472640Y-12594715D01*
X12472640Y-12594715D02*
X12472640Y-12556620D01*
X12472640Y-12556620D02*
X12463116Y-12537572D01*
X12463116Y-12537572D02*
X12453593Y-12528048D01*
X12453593Y-12528048D02*
X12434545Y-12518524D01*
X12710736Y-12632810D02*
X12710736Y-12432810D01*
X12796450Y-12632810D02*
X12796450Y-12528048D01*
X12796450Y-12528048D02*
X12786926Y-12509001D01*
X12786926Y-12509001D02*
X12767878Y-12499477D01*
X12767878Y-12499477D02*
X12739307Y-12499477D01*
X12739307Y-12499477D02*
X12720259Y-12509001D01*
X12720259Y-12509001D02*
X12710736Y-12518524D01*
X12920259Y-12632810D02*
X12901212Y-12623286D01*
X12901212Y-12623286D02*
X12891688Y-12613762D01*
X12891688Y-12613762D02*
X12882164Y-12594715D01*
X12882164Y-12594715D02*
X12882164Y-12537572D01*
X12882164Y-12537572D02*
X12891688Y-12518524D01*
X12891688Y-12518524D02*
X12901212Y-12509001D01*
X12901212Y-12509001D02*
X12920259Y-12499477D01*
X12920259Y-12499477D02*
X12948831Y-12499477D01*
X12948831Y-12499477D02*
X12967878Y-12509001D01*
X12967878Y-12509001D02*
X12977402Y-12518524D01*
X12977402Y-12518524D02*
X12986926Y-12537572D01*
X12986926Y-12537572D02*
X12986926Y-12594715D01*
X12986926Y-12594715D02*
X12977402Y-12613762D01*
X12977402Y-12613762D02*
X12967878Y-12623286D01*
X12967878Y-12623286D02*
X12948831Y-12632810D01*
X12948831Y-12632810D02*
X12920259Y-12632810D01*
X13101212Y-12632810D02*
X13082164Y-12623286D01*
X13082164Y-12623286D02*
X13072640Y-12604239D01*
X13072640Y-12604239D02*
X13072640Y-12432810D01*
X13253593Y-12623286D02*
X13234545Y-12632810D01*
X13234545Y-12632810D02*
X13196450Y-12632810D01*
X13196450Y-12632810D02*
X13177402Y-12623286D01*
X13177402Y-12623286D02*
X13167878Y-12604239D01*
X13167878Y-12604239D02*
X13167878Y-12528048D01*
X13167878Y-12528048D02*
X13177402Y-12509001D01*
X13177402Y-12509001D02*
X13196450Y-12499477D01*
X13196450Y-12499477D02*
X13234545Y-12499477D01*
X13234545Y-12499477D02*
X13253593Y-12509001D01*
X13253593Y-12509001D02*
X13263117Y-12528048D01*
X13263117Y-12528048D02*
X13263117Y-12547096D01*
X13263117Y-12547096D02*
X13167878Y-12566143D01*
X13339307Y-12623286D02*
X13358355Y-12632810D01*
X13358355Y-12632810D02*
X13396450Y-12632810D01*
X13396450Y-12632810D02*
X13415498Y-12623286D01*
X13415498Y-12623286D02*
X13425021Y-12604239D01*
X13425021Y-12604239D02*
X13425021Y-12594715D01*
X13425021Y-12594715D02*
X13415498Y-12575667D01*
X13415498Y-12575667D02*
X13396450Y-12566143D01*
X13396450Y-12566143D02*
X13367878Y-12566143D01*
X13367878Y-12566143D02*
X13348831Y-12556620D01*
X13348831Y-12556620D02*
X13339307Y-12537572D01*
X13339307Y-12537572D02*
X13339307Y-12528048D01*
X13339307Y-12528048D02*
X13348831Y-12509001D01*
X13348831Y-12509001D02*
X13367878Y-12499477D01*
X13367878Y-12499477D02*
X13396450Y-12499477D01*
X13396450Y-12499477D02*
X13415498Y-12509001D01*
X13491688Y-12709001D02*
X13501212Y-12699477D01*
X13501212Y-12699477D02*
X13520259Y-12670905D01*
X13520259Y-12670905D02*
X13529783Y-12651858D01*
X13529783Y-12651858D02*
X13539307Y-12623286D01*
X13539307Y-12623286D02*
X13548831Y-12575667D01*
X13548831Y-12575667D02*
X13548831Y-12537572D01*
X13548831Y-12537572D02*
X13539307Y-12489953D01*
X13539307Y-12489953D02*
X13529783Y-12461382D01*
X13529783Y-12461382D02*
X13520259Y-12442334D01*
X13520259Y-12442334D02*
X13501212Y-12413762D01*
X13501212Y-12413762D02*
X13491688Y-12404239D01*
X13853593Y-12709001D02*
X13844069Y-12699477D01*
X13844069Y-12699477D02*
X13825021Y-12670905D01*
X13825021Y-12670905D02*
X13815498Y-12651858D01*
X13815498Y-12651858D02*
X13805974Y-12623286D01*
X13805974Y-12623286D02*
X13796450Y-12575667D01*
X13796450Y-12575667D02*
X13796450Y-12537572D01*
X13796450Y-12537572D02*
X13805974Y-12489953D01*
X13805974Y-12489953D02*
X13815498Y-12461382D01*
X13815498Y-12461382D02*
X13825021Y-12442334D01*
X13825021Y-12442334D02*
X13844069Y-12413762D01*
X13844069Y-12413762D02*
X13853593Y-12404239D01*
X13929783Y-12499477D02*
X13929783Y-12632810D01*
X13929783Y-12518524D02*
X13939307Y-12509001D01*
X13939307Y-12509001D02*
X13958355Y-12499477D01*
X13958355Y-12499477D02*
X13986926Y-12499477D01*
X13986926Y-12499477D02*
X14005974Y-12509001D01*
X14005974Y-12509001D02*
X14015498Y-12528048D01*
X14015498Y-12528048D02*
X14015498Y-12632810D01*
X14139307Y-12632810D02*
X14120259Y-12623286D01*
X14120259Y-12623286D02*
X14110736Y-12613762D01*
X14110736Y-12613762D02*
X14101212Y-12594715D01*
X14101212Y-12594715D02*
X14101212Y-12537572D01*
X14101212Y-12537572D02*
X14110736Y-12518524D01*
X14110736Y-12518524D02*
X14120259Y-12509001D01*
X14120259Y-12509001D02*
X14139307Y-12499477D01*
X14139307Y-12499477D02*
X14167879Y-12499477D01*
X14167879Y-12499477D02*
X14186926Y-12509001D01*
X14186926Y-12509001D02*
X14196450Y-12518524D01*
X14196450Y-12518524D02*
X14205974Y-12537572D01*
X14205974Y-12537572D02*
X14205974Y-12594715D01*
X14205974Y-12594715D02*
X14196450Y-12613762D01*
X14196450Y-12613762D02*
X14186926Y-12623286D01*
X14186926Y-12623286D02*
X14167879Y-12632810D01*
X14167879Y-12632810D02*
X14139307Y-12632810D01*
X14263117Y-12499477D02*
X14339307Y-12499477D01*
X14291688Y-12432810D02*
X14291688Y-12604239D01*
X14291688Y-12604239D02*
X14301212Y-12623286D01*
X14301212Y-12623286D02*
X14320259Y-12632810D01*
X14320259Y-12632810D02*
X14339307Y-12632810D01*
X14558355Y-12499477D02*
X14558355Y-12699477D01*
X14558355Y-12509001D02*
X14577402Y-12499477D01*
X14577402Y-12499477D02*
X14615498Y-12499477D01*
X14615498Y-12499477D02*
X14634545Y-12509001D01*
X14634545Y-12509001D02*
X14644069Y-12518524D01*
X14644069Y-12518524D02*
X14653593Y-12537572D01*
X14653593Y-12537572D02*
X14653593Y-12594715D01*
X14653593Y-12594715D02*
X14644069Y-12613762D01*
X14644069Y-12613762D02*
X14634545Y-12623286D01*
X14634545Y-12623286D02*
X14615498Y-12632810D01*
X14615498Y-12632810D02*
X14577402Y-12632810D01*
X14577402Y-12632810D02*
X14558355Y-12623286D01*
X14767879Y-12632810D02*
X14748831Y-12623286D01*
X14748831Y-12623286D02*
X14739307Y-12604239D01*
X14739307Y-12604239D02*
X14739307Y-12432810D01*
X14929783Y-12632810D02*
X14929783Y-12528048D01*
X14929783Y-12528048D02*
X14920260Y-12509001D01*
X14920260Y-12509001D02*
X14901212Y-12499477D01*
X14901212Y-12499477D02*
X14863117Y-12499477D01*
X14863117Y-12499477D02*
X14844069Y-12509001D01*
X14929783Y-12623286D02*
X14910736Y-12632810D01*
X14910736Y-12632810D02*
X14863117Y-12632810D01*
X14863117Y-12632810D02*
X14844069Y-12623286D01*
X14844069Y-12623286D02*
X14834545Y-12604239D01*
X14834545Y-12604239D02*
X14834545Y-12585191D01*
X14834545Y-12585191D02*
X14844069Y-12566143D01*
X14844069Y-12566143D02*
X14863117Y-12556620D01*
X14863117Y-12556620D02*
X14910736Y-12556620D01*
X14910736Y-12556620D02*
X14929783Y-12547096D01*
X14996450Y-12499477D02*
X15072640Y-12499477D01*
X15025021Y-12432810D02*
X15025021Y-12604239D01*
X15025021Y-12604239D02*
X15034545Y-12623286D01*
X15034545Y-12623286D02*
X15053593Y-12632810D01*
X15053593Y-12632810D02*
X15072640Y-12632810D01*
X15215498Y-12623286D02*
X15196450Y-12632810D01*
X15196450Y-12632810D02*
X15158355Y-12632810D01*
X15158355Y-12632810D02*
X15139307Y-12623286D01*
X15139307Y-12623286D02*
X15129783Y-12604239D01*
X15129783Y-12604239D02*
X15129783Y-12528048D01*
X15129783Y-12528048D02*
X15139307Y-12509001D01*
X15139307Y-12509001D02*
X15158355Y-12499477D01*
X15158355Y-12499477D02*
X15196450Y-12499477D01*
X15196450Y-12499477D02*
X15215498Y-12509001D01*
X15215498Y-12509001D02*
X15225021Y-12528048D01*
X15225021Y-12528048D02*
X15225021Y-12547096D01*
X15225021Y-12547096D02*
X15129783Y-12566143D01*
X15396450Y-12632810D02*
X15396450Y-12432810D01*
X15396450Y-12623286D02*
X15377402Y-12632810D01*
X15377402Y-12632810D02*
X15339307Y-12632810D01*
X15339307Y-12632810D02*
X15320260Y-12623286D01*
X15320260Y-12623286D02*
X15310736Y-12613762D01*
X15310736Y-12613762D02*
X15301212Y-12594715D01*
X15301212Y-12594715D02*
X15301212Y-12537572D01*
X15301212Y-12537572D02*
X15310736Y-12518524D01*
X15310736Y-12518524D02*
X15320260Y-12509001D01*
X15320260Y-12509001D02*
X15339307Y-12499477D01*
X15339307Y-12499477D02*
X15377402Y-12499477D01*
X15377402Y-12499477D02*
X15396450Y-12509001D01*
X15472641Y-12709001D02*
X15482164Y-12699477D01*
X15482164Y-12699477D02*
X15501212Y-12670905D01*
X15501212Y-12670905D02*
X15510736Y-12651858D01*
X15510736Y-12651858D02*
X15520260Y-12623286D01*
X15520260Y-12623286D02*
X15529783Y-12575667D01*
X15529783Y-12575667D02*
X15529783Y-12537572D01*
X15529783Y-12537572D02*
X15520260Y-12489953D01*
X15520260Y-12489953D02*
X15510736Y-12461382D01*
X15510736Y-12461382D02*
X15501212Y-12442334D01*
X15501212Y-12442334D02*
X15482164Y-12413762D01*
X15482164Y-12413762D02*
X15472641Y-12404239D01*
D12*
X8526149Y-12805326D02*
G75*
G02*
X8436149Y-12805326I-45000J0D01*
G01*
X8436149Y-12805326D02*
G75*
G02*
X8526149Y-12805326I45000J0D01*
G01*
D13*
X8825021Y-12696810D02*
X8844069Y-12696810D01*
X8844069Y-12696810D02*
X8863116Y-12706334D01*
X8863116Y-12706334D02*
X8872640Y-12715858D01*
X8872640Y-12715858D02*
X8882164Y-12734905D01*
X8882164Y-12734905D02*
X8891688Y-12773001D01*
X8891688Y-12773001D02*
X8891688Y-12820620D01*
X8891688Y-12820620D02*
X8882164Y-12858715D01*
X8882164Y-12858715D02*
X8872640Y-12877762D01*
X8872640Y-12877762D02*
X8863116Y-12887286D01*
X8863116Y-12887286D02*
X8844069Y-12896810D01*
X8844069Y-12896810D02*
X8825021Y-12896810D01*
X8825021Y-12896810D02*
X8805973Y-12887286D01*
X8805973Y-12887286D02*
X8796450Y-12877762D01*
X8796450Y-12877762D02*
X8786926Y-12858715D01*
X8786926Y-12858715D02*
X8777402Y-12820620D01*
X8777402Y-12820620D02*
X8777402Y-12773001D01*
X8777402Y-12773001D02*
X8786926Y-12734905D01*
X8786926Y-12734905D02*
X8796450Y-12715858D01*
X8796450Y-12715858D02*
X8805973Y-12706334D01*
X8805973Y-12706334D02*
X8825021Y-12696810D01*
X8977402Y-12877762D02*
X8986926Y-12887286D01*
X8986926Y-12887286D02*
X8977402Y-12896810D01*
X8977402Y-12896810D02*
X8967878Y-12887286D01*
X8967878Y-12887286D02*
X8977402Y-12877762D01*
X8977402Y-12877762D02*
X8977402Y-12896810D01*
X9082164Y-12896810D02*
X9120259Y-12896810D01*
X9120259Y-12896810D02*
X9139307Y-12887286D01*
X9139307Y-12887286D02*
X9148831Y-12877762D01*
X9148831Y-12877762D02*
X9167878Y-12849191D01*
X9167878Y-12849191D02*
X9177402Y-12811096D01*
X9177402Y-12811096D02*
X9177402Y-12734905D01*
X9177402Y-12734905D02*
X9167878Y-12715858D01*
X9167878Y-12715858D02*
X9158354Y-12706334D01*
X9158354Y-12706334D02*
X9139307Y-12696810D01*
X9139307Y-12696810D02*
X9101211Y-12696810D01*
X9101211Y-12696810D02*
X9082164Y-12706334D01*
X9082164Y-12706334D02*
X9072640Y-12715858D01*
X9072640Y-12715858D02*
X9063116Y-12734905D01*
X9063116Y-12734905D02*
X9063116Y-12782524D01*
X9063116Y-12782524D02*
X9072640Y-12801572D01*
X9072640Y-12801572D02*
X9082164Y-12811096D01*
X9082164Y-12811096D02*
X9101211Y-12820620D01*
X9101211Y-12820620D02*
X9139307Y-12820620D01*
X9139307Y-12820620D02*
X9158354Y-12811096D01*
X9158354Y-12811096D02*
X9167878Y-12801572D01*
X9167878Y-12801572D02*
X9177402Y-12782524D01*
X9301211Y-12696810D02*
X9320259Y-12696810D01*
X9320259Y-12696810D02*
X9339307Y-12706334D01*
X9339307Y-12706334D02*
X9348831Y-12715858D01*
X9348831Y-12715858D02*
X9358354Y-12734905D01*
X9358354Y-12734905D02*
X9367878Y-12773001D01*
X9367878Y-12773001D02*
X9367878Y-12820620D01*
X9367878Y-12820620D02*
X9358354Y-12858715D01*
X9358354Y-12858715D02*
X9348831Y-12877762D01*
X9348831Y-12877762D02*
X9339307Y-12887286D01*
X9339307Y-12887286D02*
X9320259Y-12896810D01*
X9320259Y-12896810D02*
X9301211Y-12896810D01*
X9301211Y-12896810D02*
X9282164Y-12887286D01*
X9282164Y-12887286D02*
X9272640Y-12877762D01*
X9272640Y-12877762D02*
X9263116Y-12858715D01*
X9263116Y-12858715D02*
X9253592Y-12820620D01*
X9253592Y-12820620D02*
X9253592Y-12773001D01*
X9253592Y-12773001D02*
X9263116Y-12734905D01*
X9263116Y-12734905D02*
X9272640Y-12715858D01*
X9272640Y-12715858D02*
X9282164Y-12706334D01*
X9282164Y-12706334D02*
X9301211Y-12696810D01*
X9491688Y-12696810D02*
X9510735Y-12696810D01*
X9510735Y-12696810D02*
X9529783Y-12706334D01*
X9529783Y-12706334D02*
X9539307Y-12715858D01*
X9539307Y-12715858D02*
X9548831Y-12734905D01*
X9548831Y-12734905D02*
X9558354Y-12773001D01*
X9558354Y-12773001D02*
X9558354Y-12820620D01*
X9558354Y-12820620D02*
X9548831Y-12858715D01*
X9548831Y-12858715D02*
X9539307Y-12877762D01*
X9539307Y-12877762D02*
X9529783Y-12887286D01*
X9529783Y-12887286D02*
X9510735Y-12896810D01*
X9510735Y-12896810D02*
X9491688Y-12896810D01*
X9491688Y-12896810D02*
X9472640Y-12887286D01*
X9472640Y-12887286D02*
X9463116Y-12877762D01*
X9463116Y-12877762D02*
X9453592Y-12858715D01*
X9453592Y-12858715D02*
X9444069Y-12820620D01*
X9444069Y-12820620D02*
X9444069Y-12773001D01*
X9444069Y-12773001D02*
X9453592Y-12734905D01*
X9453592Y-12734905D02*
X9463116Y-12715858D01*
X9463116Y-12715858D02*
X9472640Y-12706334D01*
X9472640Y-12706334D02*
X9491688Y-12696810D01*
X9644069Y-12896810D02*
X9644069Y-12763477D01*
X9644069Y-12782524D02*
X9653592Y-12773001D01*
X9653592Y-12773001D02*
X9672640Y-12763477D01*
X9672640Y-12763477D02*
X9701212Y-12763477D01*
X9701212Y-12763477D02*
X9720259Y-12773001D01*
X9720259Y-12773001D02*
X9729783Y-12792048D01*
X9729783Y-12792048D02*
X9729783Y-12896810D01*
X9729783Y-12792048D02*
X9739307Y-12773001D01*
X9739307Y-12773001D02*
X9758354Y-12763477D01*
X9758354Y-12763477D02*
X9786926Y-12763477D01*
X9786926Y-12763477D02*
X9805973Y-12773001D01*
X9805973Y-12773001D02*
X9815497Y-12792048D01*
X9815497Y-12792048D02*
X9815497Y-12896810D01*
X9910735Y-12896810D02*
X9910735Y-12763477D01*
X9910735Y-12782524D02*
X9920259Y-12773001D01*
X9920259Y-12773001D02*
X9939307Y-12763477D01*
X9939307Y-12763477D02*
X9967878Y-12763477D01*
X9967878Y-12763477D02*
X9986926Y-12773001D01*
X9986926Y-12773001D02*
X9996450Y-12792048D01*
X9996450Y-12792048D02*
X9996450Y-12896810D01*
X9996450Y-12792048D02*
X10005973Y-12773001D01*
X10005973Y-12773001D02*
X10025021Y-12763477D01*
X10025021Y-12763477D02*
X10053592Y-12763477D01*
X10053592Y-12763477D02*
X10072640Y-12773001D01*
X10072640Y-12773001D02*
X10082164Y-12792048D01*
X10082164Y-12792048D02*
X10082164Y-12896810D01*
X10472640Y-12687286D02*
X10301212Y-12944429D01*
X10729783Y-12696810D02*
X10748831Y-12696810D01*
X10748831Y-12696810D02*
X10767878Y-12706334D01*
X10767878Y-12706334D02*
X10777402Y-12715858D01*
X10777402Y-12715858D02*
X10786926Y-12734905D01*
X10786926Y-12734905D02*
X10796450Y-12773001D01*
X10796450Y-12773001D02*
X10796450Y-12820620D01*
X10796450Y-12820620D02*
X10786926Y-12858715D01*
X10786926Y-12858715D02*
X10777402Y-12877762D01*
X10777402Y-12877762D02*
X10767878Y-12887286D01*
X10767878Y-12887286D02*
X10748831Y-12896810D01*
X10748831Y-12896810D02*
X10729783Y-12896810D01*
X10729783Y-12896810D02*
X10710735Y-12887286D01*
X10710735Y-12887286D02*
X10701212Y-12877762D01*
X10701212Y-12877762D02*
X10691688Y-12858715D01*
X10691688Y-12858715D02*
X10682164Y-12820620D01*
X10682164Y-12820620D02*
X10682164Y-12773001D01*
X10682164Y-12773001D02*
X10691688Y-12734905D01*
X10691688Y-12734905D02*
X10701212Y-12715858D01*
X10701212Y-12715858D02*
X10710735Y-12706334D01*
X10710735Y-12706334D02*
X10729783Y-12696810D01*
X10882164Y-12877762D02*
X10891688Y-12887286D01*
X10891688Y-12887286D02*
X10882164Y-12896810D01*
X10882164Y-12896810D02*
X10872640Y-12887286D01*
X10872640Y-12887286D02*
X10882164Y-12877762D01*
X10882164Y-12877762D02*
X10882164Y-12896810D01*
X11015497Y-12696810D02*
X11034545Y-12696810D01*
X11034545Y-12696810D02*
X11053593Y-12706334D01*
X11053593Y-12706334D02*
X11063116Y-12715858D01*
X11063116Y-12715858D02*
X11072640Y-12734905D01*
X11072640Y-12734905D02*
X11082164Y-12773001D01*
X11082164Y-12773001D02*
X11082164Y-12820620D01*
X11082164Y-12820620D02*
X11072640Y-12858715D01*
X11072640Y-12858715D02*
X11063116Y-12877762D01*
X11063116Y-12877762D02*
X11053593Y-12887286D01*
X11053593Y-12887286D02*
X11034545Y-12896810D01*
X11034545Y-12896810D02*
X11015497Y-12896810D01*
X11015497Y-12896810D02*
X10996450Y-12887286D01*
X10996450Y-12887286D02*
X10986926Y-12877762D01*
X10986926Y-12877762D02*
X10977402Y-12858715D01*
X10977402Y-12858715D02*
X10967878Y-12820620D01*
X10967878Y-12820620D02*
X10967878Y-12773001D01*
X10967878Y-12773001D02*
X10977402Y-12734905D01*
X10977402Y-12734905D02*
X10986926Y-12715858D01*
X10986926Y-12715858D02*
X10996450Y-12706334D01*
X10996450Y-12706334D02*
X11015497Y-12696810D01*
X11148831Y-12696810D02*
X11272640Y-12696810D01*
X11272640Y-12696810D02*
X11205973Y-12773001D01*
X11205973Y-12773001D02*
X11234545Y-12773001D01*
X11234545Y-12773001D02*
X11253593Y-12782524D01*
X11253593Y-12782524D02*
X11263116Y-12792048D01*
X11263116Y-12792048D02*
X11272640Y-12811096D01*
X11272640Y-12811096D02*
X11272640Y-12858715D01*
X11272640Y-12858715D02*
X11263116Y-12877762D01*
X11263116Y-12877762D02*
X11253593Y-12887286D01*
X11253593Y-12887286D02*
X11234545Y-12896810D01*
X11234545Y-12896810D02*
X11177402Y-12896810D01*
X11177402Y-12896810D02*
X11158355Y-12887286D01*
X11158355Y-12887286D02*
X11148831Y-12877762D01*
X11453593Y-12696810D02*
X11358354Y-12696810D01*
X11358354Y-12696810D02*
X11348831Y-12792048D01*
X11348831Y-12792048D02*
X11358354Y-12782524D01*
X11358354Y-12782524D02*
X11377402Y-12773001D01*
X11377402Y-12773001D02*
X11425021Y-12773001D01*
X11425021Y-12773001D02*
X11444069Y-12782524D01*
X11444069Y-12782524D02*
X11453593Y-12792048D01*
X11453593Y-12792048D02*
X11463116Y-12811096D01*
X11463116Y-12811096D02*
X11463116Y-12858715D01*
X11463116Y-12858715D02*
X11453593Y-12877762D01*
X11453593Y-12877762D02*
X11444069Y-12887286D01*
X11444069Y-12887286D02*
X11425021Y-12896810D01*
X11425021Y-12896810D02*
X11377402Y-12896810D01*
X11377402Y-12896810D02*
X11358354Y-12887286D01*
X11358354Y-12887286D02*
X11348831Y-12877762D01*
X11634545Y-12763477D02*
X11634545Y-12896810D01*
X11586926Y-12687286D02*
X11539307Y-12830143D01*
X11539307Y-12830143D02*
X11663116Y-12830143D01*
X11729783Y-12696810D02*
X11729783Y-12734905D01*
X11805974Y-12696810D02*
X11805974Y-12734905D01*
X12101212Y-12973001D02*
X12091688Y-12963477D01*
X12091688Y-12963477D02*
X12072640Y-12934905D01*
X12072640Y-12934905D02*
X12063116Y-12915858D01*
X12063116Y-12915858D02*
X12053593Y-12887286D01*
X12053593Y-12887286D02*
X12044069Y-12839667D01*
X12044069Y-12839667D02*
X12044069Y-12801572D01*
X12044069Y-12801572D02*
X12053593Y-12753953D01*
X12053593Y-12753953D02*
X12063116Y-12725382D01*
X12063116Y-12725382D02*
X12072640Y-12706334D01*
X12072640Y-12706334D02*
X12091688Y-12677762D01*
X12091688Y-12677762D02*
X12101212Y-12668239D01*
X12167878Y-12715858D02*
X12177402Y-12706334D01*
X12177402Y-12706334D02*
X12196450Y-12696810D01*
X12196450Y-12696810D02*
X12244069Y-12696810D01*
X12244069Y-12696810D02*
X12263116Y-12706334D01*
X12263116Y-12706334D02*
X12272640Y-12715858D01*
X12272640Y-12715858D02*
X12282164Y-12734905D01*
X12282164Y-12734905D02*
X12282164Y-12753953D01*
X12282164Y-12753953D02*
X12272640Y-12782524D01*
X12272640Y-12782524D02*
X12158355Y-12896810D01*
X12158355Y-12896810D02*
X12282164Y-12896810D01*
X12520259Y-12896810D02*
X12520259Y-12696810D01*
X12605974Y-12896810D02*
X12605974Y-12792048D01*
X12605974Y-12792048D02*
X12596450Y-12773001D01*
X12596450Y-12773001D02*
X12577402Y-12763477D01*
X12577402Y-12763477D02*
X12548831Y-12763477D01*
X12548831Y-12763477D02*
X12529783Y-12773001D01*
X12529783Y-12773001D02*
X12520259Y-12782524D01*
X12729783Y-12896810D02*
X12710736Y-12887286D01*
X12710736Y-12887286D02*
X12701212Y-12877762D01*
X12701212Y-12877762D02*
X12691688Y-12858715D01*
X12691688Y-12858715D02*
X12691688Y-12801572D01*
X12691688Y-12801572D02*
X12701212Y-12782524D01*
X12701212Y-12782524D02*
X12710736Y-12773001D01*
X12710736Y-12773001D02*
X12729783Y-12763477D01*
X12729783Y-12763477D02*
X12758355Y-12763477D01*
X12758355Y-12763477D02*
X12777402Y-12773001D01*
X12777402Y-12773001D02*
X12786926Y-12782524D01*
X12786926Y-12782524D02*
X12796450Y-12801572D01*
X12796450Y-12801572D02*
X12796450Y-12858715D01*
X12796450Y-12858715D02*
X12786926Y-12877762D01*
X12786926Y-12877762D02*
X12777402Y-12887286D01*
X12777402Y-12887286D02*
X12758355Y-12896810D01*
X12758355Y-12896810D02*
X12729783Y-12896810D01*
X12910736Y-12896810D02*
X12891688Y-12887286D01*
X12891688Y-12887286D02*
X12882164Y-12868239D01*
X12882164Y-12868239D02*
X12882164Y-12696810D01*
X13063117Y-12887286D02*
X13044069Y-12896810D01*
X13044069Y-12896810D02*
X13005974Y-12896810D01*
X13005974Y-12896810D02*
X12986926Y-12887286D01*
X12986926Y-12887286D02*
X12977402Y-12868239D01*
X12977402Y-12868239D02*
X12977402Y-12792048D01*
X12977402Y-12792048D02*
X12986926Y-12773001D01*
X12986926Y-12773001D02*
X13005974Y-12763477D01*
X13005974Y-12763477D02*
X13044069Y-12763477D01*
X13044069Y-12763477D02*
X13063117Y-12773001D01*
X13063117Y-12773001D02*
X13072640Y-12792048D01*
X13072640Y-12792048D02*
X13072640Y-12811096D01*
X13072640Y-12811096D02*
X12977402Y-12830143D01*
X13148831Y-12887286D02*
X13167878Y-12896810D01*
X13167878Y-12896810D02*
X13205974Y-12896810D01*
X13205974Y-12896810D02*
X13225021Y-12887286D01*
X13225021Y-12887286D02*
X13234545Y-12868239D01*
X13234545Y-12868239D02*
X13234545Y-12858715D01*
X13234545Y-12858715D02*
X13225021Y-12839667D01*
X13225021Y-12839667D02*
X13205974Y-12830143D01*
X13205974Y-12830143D02*
X13177402Y-12830143D01*
X13177402Y-12830143D02*
X13158355Y-12820620D01*
X13158355Y-12820620D02*
X13148831Y-12801572D01*
X13148831Y-12801572D02*
X13148831Y-12792048D01*
X13148831Y-12792048D02*
X13158355Y-12773001D01*
X13158355Y-12773001D02*
X13177402Y-12763477D01*
X13177402Y-12763477D02*
X13205974Y-12763477D01*
X13205974Y-12763477D02*
X13225021Y-12773001D01*
X13301212Y-12973001D02*
X13310736Y-12963477D01*
X13310736Y-12963477D02*
X13329783Y-12934905D01*
X13329783Y-12934905D02*
X13339307Y-12915858D01*
X13339307Y-12915858D02*
X13348831Y-12887286D01*
X13348831Y-12887286D02*
X13358355Y-12839667D01*
X13358355Y-12839667D02*
X13358355Y-12801572D01*
X13358355Y-12801572D02*
X13348831Y-12753953D01*
X13348831Y-12753953D02*
X13339307Y-12725382D01*
X13339307Y-12725382D02*
X13329783Y-12706334D01*
X13329783Y-12706334D02*
X13310736Y-12677762D01*
X13310736Y-12677762D02*
X13301212Y-12668239D01*
X13663117Y-12973001D02*
X13653593Y-12963477D01*
X13653593Y-12963477D02*
X13634545Y-12934905D01*
X13634545Y-12934905D02*
X13625021Y-12915858D01*
X13625021Y-12915858D02*
X13615498Y-12887286D01*
X13615498Y-12887286D02*
X13605974Y-12839667D01*
X13605974Y-12839667D02*
X13605974Y-12801572D01*
X13605974Y-12801572D02*
X13615498Y-12753953D01*
X13615498Y-12753953D02*
X13625021Y-12725382D01*
X13625021Y-12725382D02*
X13634545Y-12706334D01*
X13634545Y-12706334D02*
X13653593Y-12677762D01*
X13653593Y-12677762D02*
X13663117Y-12668239D01*
X13739307Y-12763477D02*
X13739307Y-12896810D01*
X13739307Y-12782524D02*
X13748831Y-12773001D01*
X13748831Y-12773001D02*
X13767878Y-12763477D01*
X13767878Y-12763477D02*
X13796450Y-12763477D01*
X13796450Y-12763477D02*
X13815498Y-12773001D01*
X13815498Y-12773001D02*
X13825021Y-12792048D01*
X13825021Y-12792048D02*
X13825021Y-12896810D01*
X13948831Y-12896810D02*
X13929783Y-12887286D01*
X13929783Y-12887286D02*
X13920259Y-12877762D01*
X13920259Y-12877762D02*
X13910736Y-12858715D01*
X13910736Y-12858715D02*
X13910736Y-12801572D01*
X13910736Y-12801572D02*
X13920259Y-12782524D01*
X13920259Y-12782524D02*
X13929783Y-12773001D01*
X13929783Y-12773001D02*
X13948831Y-12763477D01*
X13948831Y-12763477D02*
X13977402Y-12763477D01*
X13977402Y-12763477D02*
X13996450Y-12773001D01*
X13996450Y-12773001D02*
X14005974Y-12782524D01*
X14005974Y-12782524D02*
X14015498Y-12801572D01*
X14015498Y-12801572D02*
X14015498Y-12858715D01*
X14015498Y-12858715D02*
X14005974Y-12877762D01*
X14005974Y-12877762D02*
X13996450Y-12887286D01*
X13996450Y-12887286D02*
X13977402Y-12896810D01*
X13977402Y-12896810D02*
X13948831Y-12896810D01*
X14072640Y-12763477D02*
X14148831Y-12763477D01*
X14101212Y-12696810D02*
X14101212Y-12868239D01*
X14101212Y-12868239D02*
X14110736Y-12887286D01*
X14110736Y-12887286D02*
X14129783Y-12896810D01*
X14129783Y-12896810D02*
X14148831Y-12896810D01*
X14367879Y-12763477D02*
X14367879Y-12963477D01*
X14367879Y-12773001D02*
X14386926Y-12763477D01*
X14386926Y-12763477D02*
X14425021Y-12763477D01*
X14425021Y-12763477D02*
X14444069Y-12773001D01*
X14444069Y-12773001D02*
X14453593Y-12782524D01*
X14453593Y-12782524D02*
X14463117Y-12801572D01*
X14463117Y-12801572D02*
X14463117Y-12858715D01*
X14463117Y-12858715D02*
X14453593Y-12877762D01*
X14453593Y-12877762D02*
X14444069Y-12887286D01*
X14444069Y-12887286D02*
X14425021Y-12896810D01*
X14425021Y-12896810D02*
X14386926Y-12896810D01*
X14386926Y-12896810D02*
X14367879Y-12887286D01*
X14577402Y-12896810D02*
X14558355Y-12887286D01*
X14558355Y-12887286D02*
X14548831Y-12868239D01*
X14548831Y-12868239D02*
X14548831Y-12696810D01*
X14739307Y-12896810D02*
X14739307Y-12792048D01*
X14739307Y-12792048D02*
X14729783Y-12773001D01*
X14729783Y-12773001D02*
X14710736Y-12763477D01*
X14710736Y-12763477D02*
X14672640Y-12763477D01*
X14672640Y-12763477D02*
X14653593Y-12773001D01*
X14739307Y-12887286D02*
X14720260Y-12896810D01*
X14720260Y-12896810D02*
X14672640Y-12896810D01*
X14672640Y-12896810D02*
X14653593Y-12887286D01*
X14653593Y-12887286D02*
X14644069Y-12868239D01*
X14644069Y-12868239D02*
X14644069Y-12849191D01*
X14644069Y-12849191D02*
X14653593Y-12830143D01*
X14653593Y-12830143D02*
X14672640Y-12820620D01*
X14672640Y-12820620D02*
X14720260Y-12820620D01*
X14720260Y-12820620D02*
X14739307Y-12811096D01*
X14805974Y-12763477D02*
X14882164Y-12763477D01*
X14834545Y-12696810D02*
X14834545Y-12868239D01*
X14834545Y-12868239D02*
X14844069Y-12887286D01*
X14844069Y-12887286D02*
X14863117Y-12896810D01*
X14863117Y-12896810D02*
X14882164Y-12896810D01*
X15025021Y-12887286D02*
X15005974Y-12896810D01*
X15005974Y-12896810D02*
X14967879Y-12896810D01*
X14967879Y-12896810D02*
X14948831Y-12887286D01*
X14948831Y-12887286D02*
X14939307Y-12868239D01*
X14939307Y-12868239D02*
X14939307Y-12792048D01*
X14939307Y-12792048D02*
X14948831Y-12773001D01*
X14948831Y-12773001D02*
X14967879Y-12763477D01*
X14967879Y-12763477D02*
X15005974Y-12763477D01*
X15005974Y-12763477D02*
X15025021Y-12773001D01*
X15025021Y-12773001D02*
X15034545Y-12792048D01*
X15034545Y-12792048D02*
X15034545Y-12811096D01*
X15034545Y-12811096D02*
X14939307Y-12830143D01*
X15205974Y-12896810D02*
X15205974Y-12696810D01*
X15205974Y-12887286D02*
X15186926Y-12896810D01*
X15186926Y-12896810D02*
X15148831Y-12896810D01*
X15148831Y-12896810D02*
X15129783Y-12887286D01*
X15129783Y-12887286D02*
X15120260Y-12877762D01*
X15120260Y-12877762D02*
X15110736Y-12858715D01*
X15110736Y-12858715D02*
X15110736Y-12801572D01*
X15110736Y-12801572D02*
X15120260Y-12782524D01*
X15120260Y-12782524D02*
X15129783Y-12773001D01*
X15129783Y-12773001D02*
X15148831Y-12763477D01*
X15148831Y-12763477D02*
X15186926Y-12763477D01*
X15186926Y-12763477D02*
X15205974Y-12773001D01*
X15282164Y-12973001D02*
X15291688Y-12963477D01*
X15291688Y-12963477D02*
X15310736Y-12934905D01*
X15310736Y-12934905D02*
X15320260Y-12915858D01*
X15320260Y-12915858D02*
X15329783Y-12887286D01*
X15329783Y-12887286D02*
X15339307Y-12839667D01*
X15339307Y-12839667D02*
X15339307Y-12801572D01*
X15339307Y-12801572D02*
X15329783Y-12753953D01*
X15329783Y-12753953D02*
X15320260Y-12725382D01*
X15320260Y-12725382D02*
X15310736Y-12706334D01*
X15310736Y-12706334D02*
X15291688Y-12677762D01*
X15291688Y-12677762D02*
X15282164Y-12668239D01*
X8426149Y-12969326D02*
X8426149Y-13169326D01*
X8326149Y-13069326D02*
X8526149Y-13069326D01*
X8777402Y-12979858D02*
X8786926Y-12970334D01*
X8786926Y-12970334D02*
X8805973Y-12960810D01*
X8805973Y-12960810D02*
X8853592Y-12960810D01*
X8853592Y-12960810D02*
X8872640Y-12970334D01*
X8872640Y-12970334D02*
X8882164Y-12979858D01*
X8882164Y-12979858D02*
X8891688Y-12998905D01*
X8891688Y-12998905D02*
X8891688Y-13017953D01*
X8891688Y-13017953D02*
X8882164Y-13046524D01*
X8882164Y-13046524D02*
X8767878Y-13160810D01*
X8767878Y-13160810D02*
X8891688Y-13160810D01*
X8977402Y-13141762D02*
X8986926Y-13151286D01*
X8986926Y-13151286D02*
X8977402Y-13160810D01*
X8977402Y-13160810D02*
X8967878Y-13151286D01*
X8967878Y-13151286D02*
X8977402Y-13141762D01*
X8977402Y-13141762D02*
X8977402Y-13160810D01*
X9063116Y-12979858D02*
X9072640Y-12970334D01*
X9072640Y-12970334D02*
X9091688Y-12960810D01*
X9091688Y-12960810D02*
X9139307Y-12960810D01*
X9139307Y-12960810D02*
X9158354Y-12970334D01*
X9158354Y-12970334D02*
X9167878Y-12979858D01*
X9167878Y-12979858D02*
X9177402Y-12998905D01*
X9177402Y-12998905D02*
X9177402Y-13017953D01*
X9177402Y-13017953D02*
X9167878Y-13046524D01*
X9167878Y-13046524D02*
X9053592Y-13160810D01*
X9053592Y-13160810D02*
X9177402Y-13160810D01*
X9301211Y-12960810D02*
X9320259Y-12960810D01*
X9320259Y-12960810D02*
X9339307Y-12970334D01*
X9339307Y-12970334D02*
X9348831Y-12979858D01*
X9348831Y-12979858D02*
X9358354Y-12998905D01*
X9358354Y-12998905D02*
X9367878Y-13037001D01*
X9367878Y-13037001D02*
X9367878Y-13084620D01*
X9367878Y-13084620D02*
X9358354Y-13122715D01*
X9358354Y-13122715D02*
X9348831Y-13141762D01*
X9348831Y-13141762D02*
X9339307Y-13151286D01*
X9339307Y-13151286D02*
X9320259Y-13160810D01*
X9320259Y-13160810D02*
X9301211Y-13160810D01*
X9301211Y-13160810D02*
X9282164Y-13151286D01*
X9282164Y-13151286D02*
X9272640Y-13141762D01*
X9272640Y-13141762D02*
X9263116Y-13122715D01*
X9263116Y-13122715D02*
X9253592Y-13084620D01*
X9253592Y-13084620D02*
X9253592Y-13037001D01*
X9253592Y-13037001D02*
X9263116Y-12998905D01*
X9263116Y-12998905D02*
X9272640Y-12979858D01*
X9272640Y-12979858D02*
X9282164Y-12970334D01*
X9282164Y-12970334D02*
X9301211Y-12960810D01*
X9491688Y-12960810D02*
X9510735Y-12960810D01*
X9510735Y-12960810D02*
X9529783Y-12970334D01*
X9529783Y-12970334D02*
X9539307Y-12979858D01*
X9539307Y-12979858D02*
X9548831Y-12998905D01*
X9548831Y-12998905D02*
X9558354Y-13037001D01*
X9558354Y-13037001D02*
X9558354Y-13084620D01*
X9558354Y-13084620D02*
X9548831Y-13122715D01*
X9548831Y-13122715D02*
X9539307Y-13141762D01*
X9539307Y-13141762D02*
X9529783Y-13151286D01*
X9529783Y-13151286D02*
X9510735Y-13160810D01*
X9510735Y-13160810D02*
X9491688Y-13160810D01*
X9491688Y-13160810D02*
X9472640Y-13151286D01*
X9472640Y-13151286D02*
X9463116Y-13141762D01*
X9463116Y-13141762D02*
X9453592Y-13122715D01*
X9453592Y-13122715D02*
X9444069Y-13084620D01*
X9444069Y-13084620D02*
X9444069Y-13037001D01*
X9444069Y-13037001D02*
X9453592Y-12998905D01*
X9453592Y-12998905D02*
X9463116Y-12979858D01*
X9463116Y-12979858D02*
X9472640Y-12970334D01*
X9472640Y-12970334D02*
X9491688Y-12960810D01*
X9644069Y-13160810D02*
X9644069Y-13027477D01*
X9644069Y-13046524D02*
X9653592Y-13037001D01*
X9653592Y-13037001D02*
X9672640Y-13027477D01*
X9672640Y-13027477D02*
X9701212Y-13027477D01*
X9701212Y-13027477D02*
X9720259Y-13037001D01*
X9720259Y-13037001D02*
X9729783Y-13056048D01*
X9729783Y-13056048D02*
X9729783Y-13160810D01*
X9729783Y-13056048D02*
X9739307Y-13037001D01*
X9739307Y-13037001D02*
X9758354Y-13027477D01*
X9758354Y-13027477D02*
X9786926Y-13027477D01*
X9786926Y-13027477D02*
X9805973Y-13037001D01*
X9805973Y-13037001D02*
X9815497Y-13056048D01*
X9815497Y-13056048D02*
X9815497Y-13160810D01*
X9910735Y-13160810D02*
X9910735Y-13027477D01*
X9910735Y-13046524D02*
X9920259Y-13037001D01*
X9920259Y-13037001D02*
X9939307Y-13027477D01*
X9939307Y-13027477D02*
X9967878Y-13027477D01*
X9967878Y-13027477D02*
X9986926Y-13037001D01*
X9986926Y-13037001D02*
X9996450Y-13056048D01*
X9996450Y-13056048D02*
X9996450Y-13160810D01*
X9996450Y-13056048D02*
X10005973Y-13037001D01*
X10005973Y-13037001D02*
X10025021Y-13027477D01*
X10025021Y-13027477D02*
X10053592Y-13027477D01*
X10053592Y-13027477D02*
X10072640Y-13037001D01*
X10072640Y-13037001D02*
X10082164Y-13056048D01*
X10082164Y-13056048D02*
X10082164Y-13160810D01*
X10472640Y-12951286D02*
X10301212Y-13208429D01*
X10729783Y-12960810D02*
X10748831Y-12960810D01*
X10748831Y-12960810D02*
X10767878Y-12970334D01*
X10767878Y-12970334D02*
X10777402Y-12979858D01*
X10777402Y-12979858D02*
X10786926Y-12998905D01*
X10786926Y-12998905D02*
X10796450Y-13037001D01*
X10796450Y-13037001D02*
X10796450Y-13084620D01*
X10796450Y-13084620D02*
X10786926Y-13122715D01*
X10786926Y-13122715D02*
X10777402Y-13141762D01*
X10777402Y-13141762D02*
X10767878Y-13151286D01*
X10767878Y-13151286D02*
X10748831Y-13160810D01*
X10748831Y-13160810D02*
X10729783Y-13160810D01*
X10729783Y-13160810D02*
X10710735Y-13151286D01*
X10710735Y-13151286D02*
X10701212Y-13141762D01*
X10701212Y-13141762D02*
X10691688Y-13122715D01*
X10691688Y-13122715D02*
X10682164Y-13084620D01*
X10682164Y-13084620D02*
X10682164Y-13037001D01*
X10682164Y-13037001D02*
X10691688Y-12998905D01*
X10691688Y-12998905D02*
X10701212Y-12979858D01*
X10701212Y-12979858D02*
X10710735Y-12970334D01*
X10710735Y-12970334D02*
X10729783Y-12960810D01*
X10882164Y-13141762D02*
X10891688Y-13151286D01*
X10891688Y-13151286D02*
X10882164Y-13160810D01*
X10882164Y-13160810D02*
X10872640Y-13151286D01*
X10872640Y-13151286D02*
X10882164Y-13141762D01*
X10882164Y-13141762D02*
X10882164Y-13160810D01*
X11015497Y-12960810D02*
X11034545Y-12960810D01*
X11034545Y-12960810D02*
X11053593Y-12970334D01*
X11053593Y-12970334D02*
X11063116Y-12979858D01*
X11063116Y-12979858D02*
X11072640Y-12998905D01*
X11072640Y-12998905D02*
X11082164Y-13037001D01*
X11082164Y-13037001D02*
X11082164Y-13084620D01*
X11082164Y-13084620D02*
X11072640Y-13122715D01*
X11072640Y-13122715D02*
X11063116Y-13141762D01*
X11063116Y-13141762D02*
X11053593Y-13151286D01*
X11053593Y-13151286D02*
X11034545Y-13160810D01*
X11034545Y-13160810D02*
X11015497Y-13160810D01*
X11015497Y-13160810D02*
X10996450Y-13151286D01*
X10996450Y-13151286D02*
X10986926Y-13141762D01*
X10986926Y-13141762D02*
X10977402Y-13122715D01*
X10977402Y-13122715D02*
X10967878Y-13084620D01*
X10967878Y-13084620D02*
X10967878Y-13037001D01*
X10967878Y-13037001D02*
X10977402Y-12998905D01*
X10977402Y-12998905D02*
X10986926Y-12979858D01*
X10986926Y-12979858D02*
X10996450Y-12970334D01*
X10996450Y-12970334D02*
X11015497Y-12960810D01*
X11196450Y-13046524D02*
X11177402Y-13037001D01*
X11177402Y-13037001D02*
X11167878Y-13027477D01*
X11167878Y-13027477D02*
X11158355Y-13008429D01*
X11158355Y-13008429D02*
X11158355Y-12998905D01*
X11158355Y-12998905D02*
X11167878Y-12979858D01*
X11167878Y-12979858D02*
X11177402Y-12970334D01*
X11177402Y-12970334D02*
X11196450Y-12960810D01*
X11196450Y-12960810D02*
X11234545Y-12960810D01*
X11234545Y-12960810D02*
X11253593Y-12970334D01*
X11253593Y-12970334D02*
X11263116Y-12979858D01*
X11263116Y-12979858D02*
X11272640Y-12998905D01*
X11272640Y-12998905D02*
X11272640Y-13008429D01*
X11272640Y-13008429D02*
X11263116Y-13027477D01*
X11263116Y-13027477D02*
X11253593Y-13037001D01*
X11253593Y-13037001D02*
X11234545Y-13046524D01*
X11234545Y-13046524D02*
X11196450Y-13046524D01*
X11196450Y-13046524D02*
X11177402Y-13056048D01*
X11177402Y-13056048D02*
X11167878Y-13065572D01*
X11167878Y-13065572D02*
X11158355Y-13084620D01*
X11158355Y-13084620D02*
X11158355Y-13122715D01*
X11158355Y-13122715D02*
X11167878Y-13141762D01*
X11167878Y-13141762D02*
X11177402Y-13151286D01*
X11177402Y-13151286D02*
X11196450Y-13160810D01*
X11196450Y-13160810D02*
X11234545Y-13160810D01*
X11234545Y-13160810D02*
X11253593Y-13151286D01*
X11253593Y-13151286D02*
X11263116Y-13141762D01*
X11263116Y-13141762D02*
X11272640Y-13122715D01*
X11272640Y-13122715D02*
X11272640Y-13084620D01*
X11272640Y-13084620D02*
X11263116Y-13065572D01*
X11263116Y-13065572D02*
X11253593Y-13056048D01*
X11253593Y-13056048D02*
X11234545Y-13046524D01*
X11444069Y-12960810D02*
X11405973Y-12960810D01*
X11405973Y-12960810D02*
X11386926Y-12970334D01*
X11386926Y-12970334D02*
X11377402Y-12979858D01*
X11377402Y-12979858D02*
X11358354Y-13008429D01*
X11358354Y-13008429D02*
X11348831Y-13046524D01*
X11348831Y-13046524D02*
X11348831Y-13122715D01*
X11348831Y-13122715D02*
X11358354Y-13141762D01*
X11358354Y-13141762D02*
X11367878Y-13151286D01*
X11367878Y-13151286D02*
X11386926Y-13160810D01*
X11386926Y-13160810D02*
X11425021Y-13160810D01*
X11425021Y-13160810D02*
X11444069Y-13151286D01*
X11444069Y-13151286D02*
X11453593Y-13141762D01*
X11453593Y-13141762D02*
X11463116Y-13122715D01*
X11463116Y-13122715D02*
X11463116Y-13075096D01*
X11463116Y-13075096D02*
X11453593Y-13056048D01*
X11453593Y-13056048D02*
X11444069Y-13046524D01*
X11444069Y-13046524D02*
X11425021Y-13037001D01*
X11425021Y-13037001D02*
X11386926Y-13037001D01*
X11386926Y-13037001D02*
X11367878Y-13046524D01*
X11367878Y-13046524D02*
X11358354Y-13056048D01*
X11358354Y-13056048D02*
X11348831Y-13075096D01*
X11634545Y-12960810D02*
X11596450Y-12960810D01*
X11596450Y-12960810D02*
X11577402Y-12970334D01*
X11577402Y-12970334D02*
X11567878Y-12979858D01*
X11567878Y-12979858D02*
X11548831Y-13008429D01*
X11548831Y-13008429D02*
X11539307Y-13046524D01*
X11539307Y-13046524D02*
X11539307Y-13122715D01*
X11539307Y-13122715D02*
X11548831Y-13141762D01*
X11548831Y-13141762D02*
X11558354Y-13151286D01*
X11558354Y-13151286D02*
X11577402Y-13160810D01*
X11577402Y-13160810D02*
X11615497Y-13160810D01*
X11615497Y-13160810D02*
X11634545Y-13151286D01*
X11634545Y-13151286D02*
X11644069Y-13141762D01*
X11644069Y-13141762D02*
X11653593Y-13122715D01*
X11653593Y-13122715D02*
X11653593Y-13075096D01*
X11653593Y-13075096D02*
X11644069Y-13056048D01*
X11644069Y-13056048D02*
X11634545Y-13046524D01*
X11634545Y-13046524D02*
X11615497Y-13037001D01*
X11615497Y-13037001D02*
X11577402Y-13037001D01*
X11577402Y-13037001D02*
X11558354Y-13046524D01*
X11558354Y-13046524D02*
X11548831Y-13056048D01*
X11548831Y-13056048D02*
X11539307Y-13075096D01*
X11729783Y-12960810D02*
X11729783Y-12998905D01*
X11805974Y-12960810D02*
X11805974Y-12998905D01*
X12101212Y-13237001D02*
X12091688Y-13227477D01*
X12091688Y-13227477D02*
X12072640Y-13198905D01*
X12072640Y-13198905D02*
X12063116Y-13179858D01*
X12063116Y-13179858D02*
X12053593Y-13151286D01*
X12053593Y-13151286D02*
X12044069Y-13103667D01*
X12044069Y-13103667D02*
X12044069Y-13065572D01*
X12044069Y-13065572D02*
X12053593Y-13017953D01*
X12053593Y-13017953D02*
X12063116Y-12989382D01*
X12063116Y-12989382D02*
X12072640Y-12970334D01*
X12072640Y-12970334D02*
X12091688Y-12941762D01*
X12091688Y-12941762D02*
X12101212Y-12932239D01*
X12263116Y-13027477D02*
X12263116Y-13160810D01*
X12215497Y-12951286D02*
X12167878Y-13094143D01*
X12167878Y-13094143D02*
X12291688Y-13094143D01*
X12520259Y-13160810D02*
X12520259Y-12960810D01*
X12605974Y-13160810D02*
X12605974Y-13056048D01*
X12605974Y-13056048D02*
X12596450Y-13037001D01*
X12596450Y-13037001D02*
X12577402Y-13027477D01*
X12577402Y-13027477D02*
X12548831Y-13027477D01*
X12548831Y-13027477D02*
X12529783Y-13037001D01*
X12529783Y-13037001D02*
X12520259Y-13046524D01*
X12729783Y-13160810D02*
X12710736Y-13151286D01*
X12710736Y-13151286D02*
X12701212Y-13141762D01*
X12701212Y-13141762D02*
X12691688Y-13122715D01*
X12691688Y-13122715D02*
X12691688Y-13065572D01*
X12691688Y-13065572D02*
X12701212Y-13046524D01*
X12701212Y-13046524D02*
X12710736Y-13037001D01*
X12710736Y-13037001D02*
X12729783Y-13027477D01*
X12729783Y-13027477D02*
X12758355Y-13027477D01*
X12758355Y-13027477D02*
X12777402Y-13037001D01*
X12777402Y-13037001D02*
X12786926Y-13046524D01*
X12786926Y-13046524D02*
X12796450Y-13065572D01*
X12796450Y-13065572D02*
X12796450Y-13122715D01*
X12796450Y-13122715D02*
X12786926Y-13141762D01*
X12786926Y-13141762D02*
X12777402Y-13151286D01*
X12777402Y-13151286D02*
X12758355Y-13160810D01*
X12758355Y-13160810D02*
X12729783Y-13160810D01*
X12910736Y-13160810D02*
X12891688Y-13151286D01*
X12891688Y-13151286D02*
X12882164Y-13132239D01*
X12882164Y-13132239D02*
X12882164Y-12960810D01*
X13063117Y-13151286D02*
X13044069Y-13160810D01*
X13044069Y-13160810D02*
X13005974Y-13160810D01*
X13005974Y-13160810D02*
X12986926Y-13151286D01*
X12986926Y-13151286D02*
X12977402Y-13132239D01*
X12977402Y-13132239D02*
X12977402Y-13056048D01*
X12977402Y-13056048D02*
X12986926Y-13037001D01*
X12986926Y-13037001D02*
X13005974Y-13027477D01*
X13005974Y-13027477D02*
X13044069Y-13027477D01*
X13044069Y-13027477D02*
X13063117Y-13037001D01*
X13063117Y-13037001D02*
X13072640Y-13056048D01*
X13072640Y-13056048D02*
X13072640Y-13075096D01*
X13072640Y-13075096D02*
X12977402Y-13094143D01*
X13148831Y-13151286D02*
X13167878Y-13160810D01*
X13167878Y-13160810D02*
X13205974Y-13160810D01*
X13205974Y-13160810D02*
X13225021Y-13151286D01*
X13225021Y-13151286D02*
X13234545Y-13132239D01*
X13234545Y-13132239D02*
X13234545Y-13122715D01*
X13234545Y-13122715D02*
X13225021Y-13103667D01*
X13225021Y-13103667D02*
X13205974Y-13094143D01*
X13205974Y-13094143D02*
X13177402Y-13094143D01*
X13177402Y-13094143D02*
X13158355Y-13084620D01*
X13158355Y-13084620D02*
X13148831Y-13065572D01*
X13148831Y-13065572D02*
X13148831Y-13056048D01*
X13148831Y-13056048D02*
X13158355Y-13037001D01*
X13158355Y-13037001D02*
X13177402Y-13027477D01*
X13177402Y-13027477D02*
X13205974Y-13027477D01*
X13205974Y-13027477D02*
X13225021Y-13037001D01*
X13301212Y-13237001D02*
X13310736Y-13227477D01*
X13310736Y-13227477D02*
X13329783Y-13198905D01*
X13329783Y-13198905D02*
X13339307Y-13179858D01*
X13339307Y-13179858D02*
X13348831Y-13151286D01*
X13348831Y-13151286D02*
X13358355Y-13103667D01*
X13358355Y-13103667D02*
X13358355Y-13065572D01*
X13358355Y-13065572D02*
X13348831Y-13017953D01*
X13348831Y-13017953D02*
X13339307Y-12989382D01*
X13339307Y-12989382D02*
X13329783Y-12970334D01*
X13329783Y-12970334D02*
X13310736Y-12941762D01*
X13310736Y-12941762D02*
X13301212Y-12932239D01*
X13663117Y-13237001D02*
X13653593Y-13227477D01*
X13653593Y-13227477D02*
X13634545Y-13198905D01*
X13634545Y-13198905D02*
X13625021Y-13179858D01*
X13625021Y-13179858D02*
X13615498Y-13151286D01*
X13615498Y-13151286D02*
X13605974Y-13103667D01*
X13605974Y-13103667D02*
X13605974Y-13065572D01*
X13605974Y-13065572D02*
X13615498Y-13017953D01*
X13615498Y-13017953D02*
X13625021Y-12989382D01*
X13625021Y-12989382D02*
X13634545Y-12970334D01*
X13634545Y-12970334D02*
X13653593Y-12941762D01*
X13653593Y-12941762D02*
X13663117Y-12932239D01*
X13739307Y-13027477D02*
X13739307Y-13160810D01*
X13739307Y-13046524D02*
X13748831Y-13037001D01*
X13748831Y-13037001D02*
X13767878Y-13027477D01*
X13767878Y-13027477D02*
X13796450Y-13027477D01*
X13796450Y-13027477D02*
X13815498Y-13037001D01*
X13815498Y-13037001D02*
X13825021Y-13056048D01*
X13825021Y-13056048D02*
X13825021Y-13160810D01*
X13948831Y-13160810D02*
X13929783Y-13151286D01*
X13929783Y-13151286D02*
X13920259Y-13141762D01*
X13920259Y-13141762D02*
X13910736Y-13122715D01*
X13910736Y-13122715D02*
X13910736Y-13065572D01*
X13910736Y-13065572D02*
X13920259Y-13046524D01*
X13920259Y-13046524D02*
X13929783Y-13037001D01*
X13929783Y-13037001D02*
X13948831Y-13027477D01*
X13948831Y-13027477D02*
X13977402Y-13027477D01*
X13977402Y-13027477D02*
X13996450Y-13037001D01*
X13996450Y-13037001D02*
X14005974Y-13046524D01*
X14005974Y-13046524D02*
X14015498Y-13065572D01*
X14015498Y-13065572D02*
X14015498Y-13122715D01*
X14015498Y-13122715D02*
X14005974Y-13141762D01*
X14005974Y-13141762D02*
X13996450Y-13151286D01*
X13996450Y-13151286D02*
X13977402Y-13160810D01*
X13977402Y-13160810D02*
X13948831Y-13160810D01*
X14072640Y-13027477D02*
X14148831Y-13027477D01*
X14101212Y-12960810D02*
X14101212Y-13132239D01*
X14101212Y-13132239D02*
X14110736Y-13151286D01*
X14110736Y-13151286D02*
X14129783Y-13160810D01*
X14129783Y-13160810D02*
X14148831Y-13160810D01*
X14367879Y-13027477D02*
X14367879Y-13227477D01*
X14367879Y-13037001D02*
X14386926Y-13027477D01*
X14386926Y-13027477D02*
X14425021Y-13027477D01*
X14425021Y-13027477D02*
X14444069Y-13037001D01*
X14444069Y-13037001D02*
X14453593Y-13046524D01*
X14453593Y-13046524D02*
X14463117Y-13065572D01*
X14463117Y-13065572D02*
X14463117Y-13122715D01*
X14463117Y-13122715D02*
X14453593Y-13141762D01*
X14453593Y-13141762D02*
X14444069Y-13151286D01*
X14444069Y-13151286D02*
X14425021Y-13160810D01*
X14425021Y-13160810D02*
X14386926Y-13160810D01*
X14386926Y-13160810D02*
X14367879Y-13151286D01*
X14577402Y-13160810D02*
X14558355Y-13151286D01*
X14558355Y-13151286D02*
X14548831Y-13132239D01*
X14548831Y-13132239D02*
X14548831Y-12960810D01*
X14739307Y-13160810D02*
X14739307Y-13056048D01*
X14739307Y-13056048D02*
X14729783Y-13037001D01*
X14729783Y-13037001D02*
X14710736Y-13027477D01*
X14710736Y-13027477D02*
X14672640Y-13027477D01*
X14672640Y-13027477D02*
X14653593Y-13037001D01*
X14739307Y-13151286D02*
X14720260Y-13160810D01*
X14720260Y-13160810D02*
X14672640Y-13160810D01*
X14672640Y-13160810D02*
X14653593Y-13151286D01*
X14653593Y-13151286D02*
X14644069Y-13132239D01*
X14644069Y-13132239D02*
X14644069Y-13113191D01*
X14644069Y-13113191D02*
X14653593Y-13094143D01*
X14653593Y-13094143D02*
X14672640Y-13084620D01*
X14672640Y-13084620D02*
X14720260Y-13084620D01*
X14720260Y-13084620D02*
X14739307Y-13075096D01*
X14805974Y-13027477D02*
X14882164Y-13027477D01*
X14834545Y-12960810D02*
X14834545Y-13132239D01*
X14834545Y-13132239D02*
X14844069Y-13151286D01*
X14844069Y-13151286D02*
X14863117Y-13160810D01*
X14863117Y-13160810D02*
X14882164Y-13160810D01*
X15025021Y-13151286D02*
X15005974Y-13160810D01*
X15005974Y-13160810D02*
X14967879Y-13160810D01*
X14967879Y-13160810D02*
X14948831Y-13151286D01*
X14948831Y-13151286D02*
X14939307Y-13132239D01*
X14939307Y-13132239D02*
X14939307Y-13056048D01*
X14939307Y-13056048D02*
X14948831Y-13037001D01*
X14948831Y-13037001D02*
X14967879Y-13027477D01*
X14967879Y-13027477D02*
X15005974Y-13027477D01*
X15005974Y-13027477D02*
X15025021Y-13037001D01*
X15025021Y-13037001D02*
X15034545Y-13056048D01*
X15034545Y-13056048D02*
X15034545Y-13075096D01*
X15034545Y-13075096D02*
X14939307Y-13094143D01*
X15205974Y-13160810D02*
X15205974Y-12960810D01*
X15205974Y-13151286D02*
X15186926Y-13160810D01*
X15186926Y-13160810D02*
X15148831Y-13160810D01*
X15148831Y-13160810D02*
X15129783Y-13151286D01*
X15129783Y-13151286D02*
X15120260Y-13141762D01*
X15120260Y-13141762D02*
X15110736Y-13122715D01*
X15110736Y-13122715D02*
X15110736Y-13065572D01*
X15110736Y-13065572D02*
X15120260Y-13046524D01*
X15120260Y-13046524D02*
X15129783Y-13037001D01*
X15129783Y-13037001D02*
X15148831Y-13027477D01*
X15148831Y-13027477D02*
X15186926Y-13027477D01*
X15186926Y-13027477D02*
X15205974Y-13037001D01*
X15282164Y-13237001D02*
X15291688Y-13227477D01*
X15291688Y-13227477D02*
X15310736Y-13198905D01*
X15310736Y-13198905D02*
X15320260Y-13179858D01*
X15320260Y-13179858D02*
X15329783Y-13151286D01*
X15329783Y-13151286D02*
X15339307Y-13103667D01*
X15339307Y-13103667D02*
X15339307Y-13065572D01*
X15339307Y-13065572D02*
X15329783Y-13017953D01*
X15329783Y-13017953D02*
X15320260Y-12989382D01*
X15320260Y-12989382D02*
X15310736Y-12970334D01*
X15310736Y-12970334D02*
X15291688Y-12941762D01*
X15291688Y-12941762D02*
X15282164Y-12932239D01*
M02*
