%TF.GenerationSoftware,KiCad,Pcbnew,8.0.6*%
%TF.CreationDate,2025-08-04T21:47:16+02:00*%
%TF.ProjectId,reversible,72657665-7273-4696-926c-652e6b696361,v1.0.0*%
%TF.SameCoordinates,Original*%
%TF.FileFunction,Legend,Bot*%
%TF.FilePolarity,Positive*%
%FSLAX46Y46*%
G04 Gerber Fmt 4.6, Leading zero omitted, Abs format (unit mm)*
G04 Created by KiCad (PCBNEW 8.0.6) date 2025-08-04 21:47:16*
%MOMM*%
%LPD*%
G01*
G04 APERTURE LIST*
%ADD10C,0.150000*%
%ADD11C,0.100000*%
%ADD12C,0.120000*%
%ADD13C,0.127000*%
%ADD14C,0.504001*%
%ADD15C,0.504000*%
G04 APERTURE END LIST*
D10*
X171529142Y-35972413D02*
X171467129Y-36152512D01*
X171467129Y-36152512D02*
X171481147Y-36258065D01*
X171481147Y-36258065D02*
X171540190Y-36379121D01*
X171540190Y-36379121D02*
X171704785Y-36486158D01*
X171704785Y-36486158D02*
X172019958Y-36594681D01*
X172019958Y-36594681D02*
X172215560Y-36611669D01*
X172215560Y-36611669D02*
X172336616Y-36552626D01*
X172336616Y-36552626D02*
X172412647Y-36478080D01*
X172412647Y-36478080D02*
X172474660Y-36297982D01*
X172474660Y-36297982D02*
X172460642Y-36192429D01*
X172460642Y-36192429D02*
X172401599Y-36071373D01*
X172401599Y-36071373D02*
X172237004Y-35964335D01*
X172237004Y-35964335D02*
X171921831Y-35855813D01*
X171921831Y-35855813D02*
X171726229Y-35838824D01*
X171726229Y-35838824D02*
X171605173Y-35897867D01*
X171605173Y-35897867D02*
X171529142Y-35972413D01*
X171591807Y-37253063D02*
X171700330Y-36937890D01*
X172195602Y-37108426D02*
X171250083Y-36782858D01*
X171250083Y-36782858D02*
X171095051Y-37233105D01*
X171312749Y-38063508D02*
X171421272Y-37748335D01*
X171916543Y-37918871D02*
X170971025Y-37593302D01*
X170971025Y-37593302D02*
X170815992Y-38043549D01*
X161965435Y-33031906D02*
X161903422Y-33212005D01*
X161903422Y-33212005D02*
X161917440Y-33317557D01*
X161917440Y-33317557D02*
X161976483Y-33438613D01*
X161976483Y-33438613D02*
X162141079Y-33545651D01*
X162141079Y-33545651D02*
X162456251Y-33654174D01*
X162456251Y-33654174D02*
X162651853Y-33671162D01*
X162651853Y-33671162D02*
X162772909Y-33612119D01*
X162772909Y-33612119D02*
X162848941Y-33537573D01*
X162848941Y-33537573D02*
X162910954Y-33357474D01*
X162910954Y-33357474D02*
X162896935Y-33251921D01*
X162896935Y-33251921D02*
X162837892Y-33130866D01*
X162837892Y-33130866D02*
X162673297Y-33023828D01*
X162673297Y-33023828D02*
X162358124Y-32915305D01*
X162358124Y-32915305D02*
X162162522Y-32898317D01*
X162162522Y-32898317D02*
X162041466Y-32957360D01*
X162041466Y-32957360D02*
X161965435Y-33031906D01*
X162631895Y-34167919D02*
X161686377Y-33842350D01*
X161686377Y-33842350D02*
X162445856Y-34708215D01*
X162445856Y-34708215D02*
X161500338Y-34382647D01*
X117462254Y-48004478D02*
X117441887Y-47423570D01*
X117918617Y-47660583D02*
X117316802Y-46861948D01*
X117316802Y-46861948D02*
X117012560Y-47091211D01*
X117012560Y-47091211D02*
X116965157Y-47186557D01*
X116965157Y-47186557D02*
X116955785Y-47253245D01*
X116955785Y-47253245D02*
X116975070Y-47357963D01*
X116975070Y-47357963D02*
X117061044Y-47472054D01*
X117061044Y-47472054D02*
X117156390Y-47519457D01*
X117156390Y-47519457D02*
X117223078Y-47528829D01*
X117223078Y-47528829D02*
X117327796Y-47509544D01*
X117327796Y-47509544D02*
X117632038Y-47280281D01*
X117129354Y-48195710D02*
X117043921Y-48319714D01*
X117043921Y-48319714D02*
X116853769Y-48463003D01*
X116853769Y-48463003D02*
X116749051Y-48482289D01*
X116749051Y-48482289D02*
X116682363Y-48472916D01*
X116682363Y-48472916D02*
X116587017Y-48425514D01*
X116587017Y-48425514D02*
X116529701Y-48349453D01*
X116529701Y-48349453D02*
X116510416Y-48244735D01*
X116510416Y-48244735D02*
X116519788Y-48178047D01*
X116519788Y-48178047D02*
X116567191Y-48082701D01*
X116567191Y-48082701D02*
X116690654Y-47930039D01*
X116690654Y-47930039D02*
X116738057Y-47834693D01*
X116738057Y-47834693D02*
X116747429Y-47768005D01*
X116747429Y-47768005D02*
X116728144Y-47663287D01*
X116728144Y-47663287D02*
X116670828Y-47587226D01*
X116670828Y-47587226D02*
X116575482Y-47539823D01*
X116575482Y-47539823D02*
X116508794Y-47530451D01*
X116508794Y-47530451D02*
X116404075Y-47549736D01*
X116404075Y-47549736D02*
X116213924Y-47693026D01*
X116213924Y-47693026D02*
X116128491Y-47817030D01*
X115871652Y-47950947D02*
X115415289Y-48294841D01*
X116245285Y-48921529D02*
X115643470Y-48122894D01*
D11*
%TO.C,D15*%
X169056961Y-44977559D02*
X169456962Y-44977560D01*
X169456962Y-44977560D02*
X169456964Y-44427560D01*
X169456962Y-44977560D02*
X169456965Y-45527562D01*
X169456962Y-44977560D02*
X170056959Y-44577557D01*
X170056956Y-45377562D02*
X169456962Y-44977560D01*
X170056959Y-44577557D02*
X170056956Y-45377562D01*
X170056961Y-44977561D02*
X170556959Y-44977559D01*
%TO.C,D20*%
X186034827Y-99980793D02*
X186433305Y-100015652D01*
X186433305Y-100015652D02*
X186385370Y-100563559D01*
X186433305Y-100015652D02*
X186481244Y-99467748D01*
X186433305Y-100015652D02*
X187065887Y-99669466D01*
X186996159Y-100466425D02*
X186433305Y-100015652D01*
X187031025Y-100067950D02*
X187529119Y-100111523D01*
X187065887Y-99669466D02*
X186996159Y-100466425D01*
D12*
%TO.C,PWR1*%
X163622834Y-34653919D02*
X163880038Y-33906966D01*
X164776171Y-33147325D02*
X170165623Y-35003062D01*
X165030202Y-36249020D02*
X166637578Y-36802481D01*
X167866757Y-37225718D02*
X168055856Y-37290835D01*
X170404115Y-36153380D02*
X170146913Y-36900343D01*
D11*
%TO.C,D12*%
X152056965Y-38977561D02*
X152456966Y-38977562D01*
X152456966Y-38977562D02*
X152456968Y-38427562D01*
X152456966Y-38977562D02*
X152456969Y-39527564D01*
X152456966Y-38977562D02*
X153056963Y-38577559D01*
X153056960Y-39377564D02*
X152456966Y-38977562D01*
X153056963Y-38577559D02*
X153056960Y-39377564D01*
X153056965Y-38977563D02*
X153556963Y-38977561D01*
%TO.C,D8*%
X133077212Y-62321302D02*
X133476242Y-62293400D01*
X133476242Y-62293400D02*
X133437871Y-61744739D01*
X133476242Y-62293400D02*
X133514607Y-62842063D01*
X133476242Y-62293400D02*
X134046873Y-61852518D01*
X134046873Y-61852518D02*
X134102680Y-62650572D01*
X134074780Y-62251543D02*
X134573564Y-62216666D01*
X134102680Y-62650572D02*
X133476242Y-62293400D01*
D10*
%TO.C,RST1*%
X113302107Y-48378644D02*
X118093920Y-44767749D01*
X113452563Y-48578302D02*
X113302107Y-48378644D01*
X115408458Y-51173869D02*
X115258007Y-50974213D01*
X118093920Y-44767749D02*
X118244371Y-44967405D01*
X120049815Y-47363316D02*
X120200271Y-47562974D01*
X120200271Y-47562974D02*
X115408458Y-51173869D01*
D11*
%TO.C,D2*%
X97907486Y-78899393D02*
X98302561Y-78836822D01*
X98302561Y-78836822D02*
X98216514Y-78293593D01*
X98302561Y-78836822D02*
X98388601Y-79380051D01*
X98302561Y-78836822D02*
X98832602Y-78347880D01*
X98832602Y-78347880D02*
X98957745Y-79138037D01*
X98895170Y-78742957D02*
X99389016Y-78664743D01*
X98957745Y-79138037D02*
X98302561Y-78836822D01*
%TO.C,D11*%
X152056962Y-55977561D02*
X152456963Y-55977562D01*
X152456963Y-55977562D02*
X152456965Y-55427562D01*
X152456963Y-55977562D02*
X152456966Y-56527564D01*
X152456963Y-55977562D02*
X153056960Y-55577559D01*
X153056957Y-56377564D02*
X152456963Y-55977562D01*
X153056960Y-55577559D02*
X153056957Y-56377564D01*
X153056962Y-55977563D02*
X153556960Y-55977561D01*
%TO.C,D13*%
X169056965Y-78977559D02*
X169456966Y-78977560D01*
X169456966Y-78977560D02*
X169456968Y-78427560D01*
X169456966Y-78977560D02*
X169456969Y-79527562D01*
X169456966Y-78977560D02*
X170056963Y-78577557D01*
X170056960Y-79377562D02*
X169456966Y-78977560D01*
X170056963Y-78577557D02*
X170056960Y-79377562D01*
X170056965Y-78977561D02*
X170556963Y-78977559D01*
%TO.C,D10*%
X152056961Y-72977560D02*
X152456962Y-72977561D01*
X152456962Y-72977561D02*
X152456964Y-72427561D01*
X152456962Y-72977561D02*
X152456965Y-73527563D01*
X152456962Y-72977561D02*
X153056959Y-72577558D01*
X153056956Y-73377563D02*
X152456962Y-72977561D01*
X153056959Y-72577558D02*
X153056956Y-73377563D01*
X153056961Y-72977562D02*
X153556959Y-72977560D01*
%TO.C,D6*%
X112038802Y-59449302D02*
X112433877Y-59386731D01*
X112433877Y-59386731D02*
X112347830Y-58843502D01*
X112433877Y-59386731D02*
X112519917Y-59929960D01*
X112433877Y-59386731D02*
X112963918Y-58897789D01*
X112963918Y-58897789D02*
X113089061Y-59687946D01*
X113026486Y-59292866D02*
X113520332Y-59214652D01*
X113089061Y-59687946D02*
X112433877Y-59386731D01*
%TO.C,D21*%
X205457657Y-104353579D02*
X205833540Y-104490385D01*
X205833540Y-104490385D02*
X205645423Y-105007217D01*
X205833540Y-104490385D02*
X206021648Y-103973555D01*
X205833540Y-104490385D02*
X206534157Y-104319723D01*
X206260541Y-105071474D02*
X205833540Y-104490385D01*
X206397350Y-104695596D02*
X206867197Y-104866605D01*
X206534157Y-104319723D02*
X206260541Y-105071474D01*
%TO.C,D19*%
X168056961Y-98977556D02*
X168456962Y-98977557D01*
X168456962Y-98977557D02*
X168456964Y-98427557D01*
X168456962Y-98977557D02*
X168456965Y-99527559D01*
X168456962Y-98977557D02*
X169056959Y-98577554D01*
X169056956Y-99377559D02*
X168456962Y-98977557D01*
X169056959Y-98577554D02*
X169056956Y-99377559D01*
X169056961Y-98977558D02*
X169556959Y-98977556D01*
%TO.C,D5*%
X114698187Y-76240009D02*
X115093262Y-76177438D01*
X115093262Y-76177438D02*
X115007215Y-75634209D01*
X115093262Y-76177438D02*
X115179302Y-76720667D01*
X115093262Y-76177438D02*
X115623303Y-75688496D01*
X115623303Y-75688496D02*
X115748446Y-76478653D01*
X115685871Y-76083573D02*
X116179717Y-76005359D01*
X115748446Y-76478653D02*
X115093262Y-76177438D01*
%TO.C,D17*%
X186056956Y-63977556D02*
X186456957Y-63977557D01*
X186456957Y-63977557D02*
X186456959Y-63427557D01*
X186456957Y-63977557D02*
X186456960Y-64527559D01*
X186456957Y-63977557D02*
X187056954Y-63577554D01*
X187056951Y-64377559D02*
X186456957Y-63977557D01*
X187056954Y-63577554D02*
X187056951Y-64377559D01*
X187056956Y-63977558D02*
X187556954Y-63977556D01*
%TO.C,D7*%
X134263068Y-79279886D02*
X134662098Y-79251984D01*
X134662098Y-79251984D02*
X134623727Y-78703323D01*
X134662098Y-79251984D02*
X134700463Y-79800647D01*
X134662098Y-79251984D02*
X135232729Y-78811102D01*
X135232729Y-78811102D02*
X135288536Y-79609156D01*
X135260636Y-79210127D02*
X135759420Y-79175250D01*
X135288536Y-79609156D02*
X134662098Y-79251984D01*
%TO.C,D3*%
X95248097Y-62108689D02*
X95643172Y-62046118D01*
X95643172Y-62046118D02*
X95557125Y-61502889D01*
X95643172Y-62046118D02*
X95729212Y-62589347D01*
X95643172Y-62046118D02*
X96173213Y-61557176D01*
X96173213Y-61557176D02*
X96298356Y-62347333D01*
X96235781Y-61952253D02*
X96729627Y-61874039D01*
X96298356Y-62347333D02*
X95643172Y-62046118D01*
%TO.C,D4*%
X117357574Y-93030706D02*
X117752649Y-92968135D01*
X117752649Y-92968135D02*
X117666602Y-92424906D01*
X117752649Y-92968135D02*
X117838689Y-93511364D01*
X117752649Y-92968135D02*
X118282690Y-92479193D01*
X118282690Y-92479193D02*
X118407833Y-93269350D01*
X118345258Y-92874270D02*
X118839104Y-92796056D01*
X118407833Y-93269350D02*
X117752649Y-92968135D01*
%TO.C,D16*%
X186056961Y-80977555D02*
X186456962Y-80977556D01*
X186456962Y-80977556D02*
X186456964Y-80427556D01*
X186456962Y-80977556D02*
X186456965Y-81527558D01*
X186456962Y-80977556D02*
X187056959Y-80577553D01*
X187056956Y-81377558D02*
X186456962Y-80977556D01*
X187056959Y-80577553D02*
X187056956Y-81377558D01*
X187056961Y-80977557D02*
X187556959Y-80977555D01*
%TO.C,D14*%
X169056963Y-61977553D02*
X169456964Y-61977554D01*
X169456964Y-61977554D02*
X169456966Y-61427554D01*
X169456964Y-61977554D02*
X169456967Y-62527556D01*
X169456964Y-61977554D02*
X170056961Y-61577551D01*
X170056958Y-62377556D02*
X169456964Y-61977554D01*
X170056961Y-61577551D02*
X170056958Y-62377556D01*
X170056963Y-61977555D02*
X170556961Y-61977553D01*
%TO.C,D1*%
X100566873Y-95690096D02*
X100961948Y-95627525D01*
X100961948Y-95627525D02*
X100875901Y-95084296D01*
X100961948Y-95627525D02*
X101047988Y-96170754D01*
X100961948Y-95627525D02*
X101491989Y-95138583D01*
X101491989Y-95138583D02*
X101617132Y-95928740D01*
X101554557Y-95533660D02*
X102048403Y-95455446D01*
X101617132Y-95928740D02*
X100961948Y-95627525D01*
%TO.C,D18*%
X186056961Y-46977557D02*
X186456962Y-46977558D01*
X186456962Y-46977558D02*
X186456964Y-46427558D01*
X186456962Y-46977558D02*
X186456965Y-47527560D01*
X186456962Y-46977558D02*
X187056959Y-46577555D01*
X187056956Y-47377560D02*
X186456962Y-46977558D01*
X187056959Y-46577555D02*
X187056956Y-47377560D01*
X187056961Y-46977559D02*
X187556959Y-46977557D01*
%TO.C,D9*%
X131891354Y-45362712D02*
X132290384Y-45334810D01*
X132290384Y-45334810D02*
X132252013Y-44786149D01*
X132290384Y-45334810D02*
X132328749Y-45883473D01*
X132290384Y-45334810D02*
X132861015Y-44893928D01*
X132861015Y-44893928D02*
X132916822Y-45691982D01*
X132888922Y-45292953D02*
X133387706Y-45258076D01*
X132916822Y-45691982D02*
X132290384Y-45334810D01*
%TO.C,JST1*%
X198029998Y-60770003D02*
X199030001Y-60769999D01*
X203129998Y-60269999D02*
X203130000Y-61269999D01*
X203630003Y-60770001D02*
X202630003Y-60770002D01*
%TO.C,REF\u002A\u002A*%
X197861953Y-57490559D02*
X197861957Y-40345568D01*
X199766959Y-59395563D02*
X213736956Y-59395558D01*
D13*
X202256961Y-38440564D02*
X202260687Y-37430292D01*
X202760682Y-36930560D02*
X210755960Y-36930558D01*
X211255958Y-37430558D02*
X211255962Y-38440563D01*
D11*
X213736959Y-38440561D02*
X199766959Y-38440560D01*
X215641954Y-57490557D02*
X215641962Y-40345559D01*
X197861957Y-40341561D02*
G75*
G02*
X199766959Y-38436564I1905000J-3D01*
G01*
X199766959Y-59395563D02*
G75*
G02*
X197861953Y-57490559I-1J1905005D01*
G01*
D13*
X202260687Y-37430292D02*
G75*
G02*
X202760682Y-36930560I500010J-278D01*
G01*
X210755960Y-36930558D02*
G75*
G02*
X211255960Y-37430558I-102J-500102D01*
G01*
D11*
X213736959Y-38440561D02*
G75*
G02*
X215641957Y-40345559I-31J-1905029D01*
G01*
X215641954Y-57490557D02*
G75*
G02*
X213736956Y-59395556I-1905006J7D01*
G01*
D14*
X197903958Y-38856560D02*
G75*
G02*
X197399958Y-38856560I-252000J0D01*
G01*
X197399958Y-38856560D02*
G75*
G02*
X197903958Y-38856560I252000J0D01*
G01*
D15*
X199177960Y-39573559D02*
G75*
G02*
X198673960Y-39573559I-252000J0D01*
G01*
X198673960Y-39573559D02*
G75*
G02*
X199177960Y-39573559I252000J0D01*
G01*
%TD*%
M02*
