%TF.GenerationSoftware,KiCad,Pcbnew,8.0.6*%
%TF.CreationDate,2025-08-04T20:43:42+02:00*%
%TF.ProjectId,reversible,72657665-7273-4696-926c-652e6b696361,v1.0.0*%
%TF.SameCoordinates,Original*%
%TF.FileFunction,Profile,NP*%
%FSLAX46Y46*%
G04 Gerber Fmt 4.6, Leading zero omitted, Abs format (unit mm)*
G04 Created by KiCad (PCBNEW 8.0.6) date 2025-08-04 20:43:42*
%MOMM*%
%LPD*%
G01*
G04 APERTURE LIST*
%TA.AperFunction,Profile*%
%ADD10C,0.150000*%
%TD*%
%TA.AperFunction,Profile*%
%ADD11C,0.050000*%
%TD*%
%TA.AperFunction,Profile*%
%ADD12C,0.100000*%
%TD*%
G04 APERTURE END LIST*
D10*
X217944958Y-102049451D02*
X212083120Y-117642062D01*
X175686985Y-111327557D02*
X159409065Y-111182902D01*
X218072879Y-101344848D02*
G75*
G02*
X217944960Y-102049452I-2000379J-751D01*
G01*
X95330185Y-108852417D02*
G75*
G02*
X93023454Y-107192927I-331386J1972316D01*
G01*
X212083120Y-117642062D02*
G75*
G02*
X209526998Y-118817669I-1872121J703861D01*
G01*
X162464376Y-32177556D02*
G75*
G02*
X163130015Y-32291569I-77J-2000543D01*
G01*
X175686985Y-111327557D02*
G75*
G02*
X175826244Y-111333653I-17685J-1997544D01*
G01*
X216047781Y-38177557D02*
G75*
G02*
X218047743Y-40176739I19J-1999943D01*
G01*
X180149546Y-38177556D02*
X216047781Y-38177557D01*
X192321562Y-112632773D02*
X175826244Y-111333656D01*
X158307885Y-110840685D02*
X143500489Y-100845692D01*
X141986692Y-100542756D02*
G75*
G02*
X143500487Y-100845695I394808J-1960845D01*
G01*
X127847100Y-103389286D02*
X95330185Y-108852417D01*
X102230487Y-53892295D02*
G75*
G02*
X101358989Y-54256041I-1184389J1611792D01*
G01*
X121942331Y-39406195D02*
G75*
G02*
X122479838Y-39125297I1184469J-1611805D01*
G01*
X127910584Y-103377565D02*
G75*
G02*
X127847100Y-103389285I-393583J1954065D01*
G01*
X93023437Y-107192930D02*
X85361100Y-58814806D01*
D11*
X217239999Y-62400001D02*
X217240000Y-94399998D01*
X196239999Y-94400001D01*
X196240000Y-62400000D01*
X217239999Y-62400001D01*
D10*
X218047780Y-40176739D02*
X218072879Y-101344848D01*
X102230487Y-53892295D02*
X121942331Y-39406195D01*
X142492467Y-32285051D02*
G75*
G02*
X143139320Y-32177556I646932J-1892950D01*
G01*
X87023606Y-56526561D02*
X101358992Y-54256060D01*
X122479839Y-39125299D02*
X142492467Y-32285051D01*
X141986692Y-100542756D02*
X127910584Y-103377565D01*
X209526999Y-118817665D02*
X192848578Y-112747213D01*
X163130012Y-32291577D02*
X179483907Y-38063541D01*
X143139320Y-32177557D02*
X162464376Y-32177556D01*
X159409065Y-111182902D02*
G75*
G02*
X158307883Y-110840688I17835J2000201D01*
G01*
X85361100Y-58814806D02*
G75*
G02*
X87023614Y-56526611I1975401J312807D01*
G01*
X192321562Y-112632773D02*
G75*
G02*
X192848579Y-112747209I-156962J-1993626D01*
G01*
X180149546Y-38177556D02*
G75*
G02*
X179483910Y-38063534I-47J1999658D01*
G01*
D12*
%TO.C,CPG1316*%
X125179504Y-97388973D02*
G75*
G02*
X124179496Y-97388973I-500004J0D01*
G01*
X124179496Y-97388973D02*
G75*
G02*
X125179504Y-97388973I500004J0D01*
G01*
X124419110Y-91956684D02*
G75*
G02*
X123219102Y-91956684I-600004J0D01*
G01*
X123219102Y-91956684D02*
G75*
G02*
X124419110Y-91956684I600004J0D01*
G01*
X113722314Y-99203612D02*
G75*
G02*
X112722314Y-99203612I-500000J0D01*
G01*
X112722314Y-99203612D02*
G75*
G02*
X113722314Y-99203612I500000J0D01*
G01*
X112961918Y-93771323D02*
G75*
G02*
X111761922Y-93771323I-599998J0D01*
G01*
X111761922Y-93771323D02*
G75*
G02*
X112961918Y-93771323I599998J0D01*
G01*
X176106958Y-84427563D02*
G75*
G02*
X175106958Y-84427563I-500000J0D01*
G01*
X175106958Y-84427563D02*
G75*
G02*
X176106958Y-84427563I500000J0D01*
G01*
X176206958Y-78927560D02*
G75*
G02*
X175006948Y-78927560I-600005J0D01*
G01*
X175006948Y-78927560D02*
G75*
G02*
X176206958Y-78927560I600005J0D01*
G01*
X164506958Y-84427556D02*
G75*
G02*
X163506968Y-84427556I-499995J0D01*
G01*
X163506968Y-84427556D02*
G75*
G02*
X164506958Y-84427556I499995J0D01*
G01*
X164606959Y-78927553D02*
G75*
G02*
X163406957Y-78927553I-600001J0D01*
G01*
X163406957Y-78927553D02*
G75*
G02*
X164606959Y-78927553I600001J0D01*
G01*
X139305565Y-50342527D02*
G75*
G02*
X138305567Y-50342527I-499999J0D01*
G01*
X138305567Y-50342527D02*
G75*
G02*
X139305565Y-50342527I499999J0D01*
G01*
X139021908Y-44855925D02*
G75*
G02*
X137821906Y-44855925I-600001J0D01*
G01*
X137821906Y-44855925D02*
G75*
G02*
X139021908Y-44855925I600001J0D01*
G01*
X127733825Y-51151703D02*
G75*
G02*
X126733825Y-51151703I-500000J0D01*
G01*
X126733825Y-51151703D02*
G75*
G02*
X127733825Y-51151703I500000J0D01*
G01*
X127450168Y-45665101D02*
G75*
G02*
X126250164Y-45665101I-600002J0D01*
G01*
X126250164Y-45665101D02*
G75*
G02*
X127450168Y-45665101I600002J0D01*
G01*
X175106959Y-104427560D02*
G75*
G02*
X174106959Y-104427560I-500000J0D01*
G01*
X174106959Y-104427560D02*
G75*
G02*
X175106959Y-104427560I500000J0D01*
G01*
X175206959Y-98927557D02*
G75*
G02*
X174006949Y-98927557I-600005J0D01*
G01*
X174006949Y-98927557D02*
G75*
G02*
X175206959Y-98927557I600005J0D01*
G01*
X163506959Y-104427553D02*
G75*
G02*
X162506969Y-104427553I-499995J0D01*
G01*
X162506969Y-104427553D02*
G75*
G02*
X163506959Y-104427553I499995J0D01*
G01*
X163606960Y-98927550D02*
G75*
G02*
X162406958Y-98927550I-600001J0D01*
G01*
X162406958Y-98927550D02*
G75*
G02*
X163606960Y-98927550I600001J0D01*
G01*
X105729419Y-83257651D02*
G75*
G02*
X104729411Y-83257651I-500004J0D01*
G01*
X104729411Y-83257651D02*
G75*
G02*
X105729419Y-83257651I500004J0D01*
G01*
X104969025Y-77825362D02*
G75*
G02*
X103769017Y-77825362I-600004J0D01*
G01*
X103769017Y-77825362D02*
G75*
G02*
X104969025Y-77825362I600004J0D01*
G01*
X94272229Y-85072290D02*
G75*
G02*
X93272229Y-85072290I-500000J0D01*
G01*
X93272229Y-85072290D02*
G75*
G02*
X94272229Y-85072290I500000J0D01*
G01*
X93511833Y-79640001D02*
G75*
G02*
X92311837Y-79640001I-599998J0D01*
G01*
X92311837Y-79640001D02*
G75*
G02*
X93511833Y-79640001I599998J0D01*
G01*
X193106961Y-52427563D02*
G75*
G02*
X192106961Y-52427563I-500000J0D01*
G01*
X192106961Y-52427563D02*
G75*
G02*
X193106961Y-52427563I500000J0D01*
G01*
X193206961Y-46927560D02*
G75*
G02*
X192006951Y-46927560I-600005J0D01*
G01*
X192006951Y-46927560D02*
G75*
G02*
X193206961Y-46927560I600005J0D01*
G01*
X181506961Y-52427556D02*
G75*
G02*
X180506971Y-52427556I-499995J0D01*
G01*
X180506971Y-52427556D02*
G75*
G02*
X181506961Y-52427556I499995J0D01*
G01*
X181606962Y-46927553D02*
G75*
G02*
X180406960Y-46927553I-600001J0D01*
G01*
X180406960Y-46927553D02*
G75*
G02*
X181606962Y-46927553I600001J0D01*
G01*
X140491431Y-67301116D02*
G75*
G02*
X139491433Y-67301116I-499999J0D01*
G01*
X139491433Y-67301116D02*
G75*
G02*
X140491431Y-67301116I499999J0D01*
G01*
X140207774Y-61814514D02*
G75*
G02*
X139007772Y-61814514I-600001J0D01*
G01*
X139007772Y-61814514D02*
G75*
G02*
X140207774Y-61814514I600001J0D01*
G01*
X128919691Y-68110292D02*
G75*
G02*
X127919691Y-68110292I-500000J0D01*
G01*
X127919691Y-68110292D02*
G75*
G02*
X128919691Y-68110292I500000J0D01*
G01*
X128636034Y-62623690D02*
G75*
G02*
X127436030Y-62623690I-600002J0D01*
G01*
X127436030Y-62623690D02*
G75*
G02*
X128636034Y-62623690I600002J0D01*
G01*
X141677290Y-84259708D02*
G75*
G02*
X140677292Y-84259708I-499999J0D01*
G01*
X140677292Y-84259708D02*
G75*
G02*
X141677290Y-84259708I499999J0D01*
G01*
X141393633Y-78773106D02*
G75*
G02*
X140193631Y-78773106I-600001J0D01*
G01*
X140193631Y-78773106D02*
G75*
G02*
X141393633Y-78773106I600001J0D01*
G01*
X130105550Y-85068884D02*
G75*
G02*
X129105550Y-85068884I-500000J0D01*
G01*
X129105550Y-85068884D02*
G75*
G02*
X130105550Y-85068884I500000J0D01*
G01*
X129821893Y-79582282D02*
G75*
G02*
X128621889Y-79582282I-600002J0D01*
G01*
X128621889Y-79582282D02*
G75*
G02*
X129821893Y-79582282I600002J0D01*
G01*
X176106962Y-50427563D02*
G75*
G02*
X175106962Y-50427563I-500000J0D01*
G01*
X175106962Y-50427563D02*
G75*
G02*
X176106962Y-50427563I500000J0D01*
G01*
X176206962Y-44927560D02*
G75*
G02*
X175006952Y-44927560I-600005J0D01*
G01*
X175006952Y-44927560D02*
G75*
G02*
X176206962Y-44927560I600005J0D01*
G01*
X164506962Y-50427556D02*
G75*
G02*
X163506972Y-50427556I-499995J0D01*
G01*
X163506972Y-50427556D02*
G75*
G02*
X164506962Y-50427556I499995J0D01*
G01*
X164606963Y-44927553D02*
G75*
G02*
X163406961Y-44927553I-600001J0D01*
G01*
X163406961Y-44927553D02*
G75*
G02*
X164606963Y-44927553I600001J0D01*
G01*
X159106958Y-61427562D02*
G75*
G02*
X158106958Y-61427562I-500000J0D01*
G01*
X158106958Y-61427562D02*
G75*
G02*
X159106958Y-61427562I500000J0D01*
G01*
X159206958Y-55927559D02*
G75*
G02*
X158006948Y-55927559I-600005J0D01*
G01*
X158006948Y-55927559D02*
G75*
G02*
X159206958Y-55927559I600005J0D01*
G01*
X147506958Y-61427555D02*
G75*
G02*
X146506968Y-61427555I-499995J0D01*
G01*
X146506968Y-61427555D02*
G75*
G02*
X147506958Y-61427555I499995J0D01*
G01*
X147606959Y-55927552D02*
G75*
G02*
X146406957Y-55927552I-600001J0D01*
G01*
X146406957Y-55927552D02*
G75*
G02*
X147606959Y-55927552I600001J0D01*
G01*
X193106964Y-69427561D02*
G75*
G02*
X192106964Y-69427561I-500000J0D01*
G01*
X192106964Y-69427561D02*
G75*
G02*
X193106964Y-69427561I500000J0D01*
G01*
X193206964Y-63927558D02*
G75*
G02*
X192006954Y-63927558I-600005J0D01*
G01*
X192006954Y-63927558D02*
G75*
G02*
X193206964Y-63927558I600005J0D01*
G01*
X181506964Y-69427554D02*
G75*
G02*
X180506974Y-69427554I-499995J0D01*
G01*
X180506974Y-69427554D02*
G75*
G02*
X181506964Y-69427554I499995J0D01*
G01*
X181606965Y-63927551D02*
G75*
G02*
X180406963Y-63927551I-600001J0D01*
G01*
X180406963Y-63927551D02*
G75*
G02*
X181606965Y-63927551I600001J0D01*
G01*
X176106959Y-67427566D02*
G75*
G02*
X175106959Y-67427566I-500000J0D01*
G01*
X175106959Y-67427566D02*
G75*
G02*
X176106959Y-67427566I500000J0D01*
G01*
X176206959Y-61927563D02*
G75*
G02*
X175006949Y-61927563I-600005J0D01*
G01*
X175006949Y-61927563D02*
G75*
G02*
X176206959Y-61927563I600005J0D01*
G01*
X164506959Y-67427559D02*
G75*
G02*
X163506969Y-67427559I-499995J0D01*
G01*
X163506969Y-67427559D02*
G75*
G02*
X164506959Y-67427559I499995J0D01*
G01*
X164606960Y-61927556D02*
G75*
G02*
X163406958Y-61927556I-600001J0D01*
G01*
X163406958Y-61927556D02*
G75*
G02*
X164606960Y-61927556I600001J0D01*
G01*
X103070031Y-66466951D02*
G75*
G02*
X102070023Y-66466951I-500004J0D01*
G01*
X102070023Y-66466951D02*
G75*
G02*
X103070031Y-66466951I500004J0D01*
G01*
X102309637Y-61034662D02*
G75*
G02*
X101109629Y-61034662I-600004J0D01*
G01*
X101109629Y-61034662D02*
G75*
G02*
X102309637Y-61034662I600004J0D01*
G01*
X91612841Y-68281590D02*
G75*
G02*
X90612841Y-68281590I-500000J0D01*
G01*
X90612841Y-68281590D02*
G75*
G02*
X91612841Y-68281590I500000J0D01*
G01*
X90852445Y-62849301D02*
G75*
G02*
X89652449Y-62849301I-599998J0D01*
G01*
X89652449Y-62849301D02*
G75*
G02*
X90852445Y-62849301I599998J0D01*
G01*
X159106963Y-44427564D02*
G75*
G02*
X158106963Y-44427564I-500000J0D01*
G01*
X158106963Y-44427564D02*
G75*
G02*
X159106963Y-44427564I500000J0D01*
G01*
X159206963Y-38927561D02*
G75*
G02*
X158006953Y-38927561I-600005J0D01*
G01*
X158006953Y-38927561D02*
G75*
G02*
X159206963Y-38927561I600005J0D01*
G01*
X147506963Y-44427557D02*
G75*
G02*
X146506973Y-44427557I-499995J0D01*
G01*
X146506973Y-44427557D02*
G75*
G02*
X147506963Y-44427557I499995J0D01*
G01*
X147606964Y-38927554D02*
G75*
G02*
X146406962Y-38927554I-600001J0D01*
G01*
X146406962Y-38927554D02*
G75*
G02*
X147606964Y-38927554I600001J0D01*
G01*
X193106960Y-86427561D02*
G75*
G02*
X192106960Y-86427561I-500000J0D01*
G01*
X192106960Y-86427561D02*
G75*
G02*
X193106960Y-86427561I500000J0D01*
G01*
X193206960Y-80927558D02*
G75*
G02*
X192006950Y-80927558I-600005J0D01*
G01*
X192006950Y-80927558D02*
G75*
G02*
X193206960Y-80927558I600005J0D01*
G01*
X181506960Y-86427554D02*
G75*
G02*
X180506970Y-86427554I-499995J0D01*
G01*
X180506970Y-86427554D02*
G75*
G02*
X181506960Y-86427554I499995J0D01*
G01*
X181606961Y-80927551D02*
G75*
G02*
X180406959Y-80927551I-600001J0D01*
G01*
X180406959Y-80927551D02*
G75*
G02*
X181606961Y-80927551I600001J0D01*
G01*
X119860731Y-63807563D02*
G75*
G02*
X118860723Y-63807563I-500004J0D01*
G01*
X118860723Y-63807563D02*
G75*
G02*
X119860731Y-63807563I500004J0D01*
G01*
X119100337Y-58375274D02*
G75*
G02*
X117900329Y-58375274I-600004J0D01*
G01*
X117900329Y-58375274D02*
G75*
G02*
X119100337Y-58375274I600004J0D01*
G01*
X108403541Y-65622202D02*
G75*
G02*
X107403541Y-65622202I-500000J0D01*
G01*
X107403541Y-65622202D02*
G75*
G02*
X108403541Y-65622202I500000J0D01*
G01*
X107643145Y-60189913D02*
G75*
G02*
X106443149Y-60189913I-599998J0D01*
G01*
X106443149Y-60189913D02*
G75*
G02*
X107643145Y-60189913I599998J0D01*
G01*
X212229737Y-106546834D02*
G75*
G02*
X211029735Y-106546834I-600001J0D01*
G01*
X211029735Y-106546834D02*
G75*
G02*
X212229737Y-106546834I600001J0D01*
G01*
X210248623Y-111715139D02*
G75*
G02*
X209248629Y-111715139I-499997J0D01*
G01*
X209248629Y-111715139D02*
G75*
G02*
X210248623Y-111715139I499997J0D01*
G01*
X201329312Y-102579403D02*
G75*
G02*
X200129304Y-102579403I-600004J0D01*
G01*
X200129304Y-102579403D02*
G75*
G02*
X201329312Y-102579403I600004J0D01*
G01*
X199348191Y-107747708D02*
G75*
G02*
X198348205Y-107747708I-499993J0D01*
G01*
X198348205Y-107747708D02*
G75*
G02*
X199348191Y-107747708I499993J0D01*
G01*
X159106963Y-78427562D02*
G75*
G02*
X158106963Y-78427562I-500000J0D01*
G01*
X158106963Y-78427562D02*
G75*
G02*
X159106963Y-78427562I500000J0D01*
G01*
X159206963Y-72927559D02*
G75*
G02*
X158006953Y-72927559I-600005J0D01*
G01*
X158006953Y-72927559D02*
G75*
G02*
X159206963Y-72927559I600005J0D01*
G01*
X147506963Y-78427555D02*
G75*
G02*
X146506973Y-78427555I-499995J0D01*
G01*
X146506973Y-78427555D02*
G75*
G02*
X147506963Y-78427555I499995J0D01*
G01*
X147606964Y-72927552D02*
G75*
G02*
X146406962Y-72927552I-600001J0D01*
G01*
X146406962Y-72927552D02*
G75*
G02*
X147606964Y-72927552I600001J0D01*
G01*
D10*
%TO.C,REF\u002A\u002A*%
X211806963Y-47209060D02*
G75*
G02*
X211806957Y-46309060I-5J450000D01*
G01*
X211806958Y-49114065D02*
G75*
G02*
X211806957Y-48214053I0J450006D01*
G01*
X208021961Y-40859064D02*
G75*
G02*
X208021958Y-39959058I-3J450003D01*
G01*
X208021957Y-43399060D02*
G75*
G02*
X208021962Y-42499060I8J450000D01*
G01*
X205481956Y-39959063D02*
G75*
G02*
X205481962Y-40859063I2J-450000D01*
G01*
X205481955Y-42499063D02*
G75*
G02*
X205481959Y-43399061I1J-449999D01*
G01*
X201806959Y-46309057D02*
G75*
G02*
X201806956Y-47209061I-6J-450002D01*
G01*
X201806957Y-48214056D02*
G75*
G02*
X201806958Y-49114064I0J-450004D01*
G01*
X211806961Y-49577555D02*
X211806958Y-49114065D01*
X211806957Y-46309061D02*
X211806958Y-45877561D01*
X211806958Y-45877561D02*
X208806962Y-45877557D01*
X211806957Y-48214064D02*
X211806963Y-47209060D01*
X208806962Y-45877557D02*
X208806959Y-49577562D01*
X208806959Y-49577562D02*
X211806961Y-49577555D01*
X208021961Y-40859064D02*
X208021962Y-42499056D01*
X208021957Y-43399060D02*
X205481959Y-43399061D01*
X205481956Y-39959063D02*
X208021958Y-39959059D01*
X205481955Y-42499063D02*
X205481962Y-40859059D01*
X204806959Y-45877558D02*
X204806955Y-49577561D01*
X204806955Y-49577561D02*
X201806959Y-49577558D01*
X201806961Y-45877558D02*
X204806959Y-45877558D01*
X201806959Y-49577558D02*
X201806958Y-49114061D01*
X201806959Y-46309057D02*
X201806961Y-45877558D01*
X201806957Y-48214056D02*
X201806956Y-47209063D01*
D12*
%TO.C,CPG1316*%
X108388805Y-100048353D02*
G75*
G02*
X107388797Y-100048353I-500004J0D01*
G01*
X107388797Y-100048353D02*
G75*
G02*
X108388805Y-100048353I500004J0D01*
G01*
X107628411Y-94616064D02*
G75*
G02*
X106428403Y-94616064I-600004J0D01*
G01*
X106428403Y-94616064D02*
G75*
G02*
X107628411Y-94616064I600004J0D01*
G01*
X96931615Y-101862992D02*
G75*
G02*
X95931615Y-101862992I-500000J0D01*
G01*
X95931615Y-101862992D02*
G75*
G02*
X96931615Y-101862992I500000J0D01*
G01*
X96171219Y-96430703D02*
G75*
G02*
X94971223Y-96430703I-599998J0D01*
G01*
X94971223Y-96430703D02*
G75*
G02*
X96171219Y-96430703I599998J0D01*
G01*
X122520124Y-80598265D02*
G75*
G02*
X121520116Y-80598265I-500004J0D01*
G01*
X121520116Y-80598265D02*
G75*
G02*
X122520124Y-80598265I500004J0D01*
G01*
X121759730Y-75165976D02*
G75*
G02*
X120559722Y-75165976I-600004J0D01*
G01*
X120559722Y-75165976D02*
G75*
G02*
X121759730Y-75165976I600004J0D01*
G01*
X111062934Y-82412904D02*
G75*
G02*
X110062934Y-82412904I-500000J0D01*
G01*
X110062934Y-82412904D02*
G75*
G02*
X111062934Y-82412904I500000J0D01*
G01*
X110302538Y-76980615D02*
G75*
G02*
X109102542Y-76980615I-599998J0D01*
G01*
X109102542Y-76980615D02*
G75*
G02*
X110302538Y-76980615I599998J0D01*
G01*
X193164257Y-100501849D02*
G75*
G02*
X191964257Y-100501849I-600000J0D01*
G01*
X191964257Y-100501849D02*
G75*
G02*
X193164257Y-100501849I600000J0D01*
G01*
X192584903Y-105980920D02*
G75*
G02*
X191584901Y-105980920I-500001J0D01*
G01*
X191584901Y-105980920D02*
G75*
G02*
X192584903Y-105980920I500001J0D01*
G01*
X181608390Y-99490846D02*
G75*
G02*
X180408398Y-99490846I-599996J0D01*
G01*
X180408398Y-99490846D02*
G75*
G02*
X181608390Y-99490846I599996J0D01*
G01*
X181029040Y-104969917D02*
G75*
G02*
X180029038Y-104969917I-500001J0D01*
G01*
X180029038Y-104969917D02*
G75*
G02*
X181029040Y-104969917I500001J0D01*
G01*
%TD*%
M02*
