%TF.GenerationSoftware,KiCad,Pcbnew,8.0.6*%
%TF.CreationDate,2025-08-05T00:22:36+02:00*%
%TF.ProjectId,reversible,72657665-7273-4696-926c-652e6b696361,v1.0.0*%
%TF.SameCoordinates,Original*%
%TF.FileFunction,Legend,Bot*%
%TF.FilePolarity,Positive*%
%FSLAX46Y46*%
G04 Gerber Fmt 4.6, Leading zero omitted, Abs format (unit mm)*
G04 Created by KiCad (PCBNEW 8.0.6) date 2025-08-05 00:22:36*
%MOMM*%
%LPD*%
G01*
G04 APERTURE LIST*
%ADD10C,0.150000*%
%ADD11C,0.100000*%
%ADD12C,0.120000*%
%ADD13C,0.503997*%
%ADD14C,0.504002*%
%ADD15C,0.127000*%
G04 APERTURE END LIST*
D10*
X161965434Y-33031903D02*
X161903421Y-33212002D01*
X161903421Y-33212002D02*
X161917439Y-33317554D01*
X161917439Y-33317554D02*
X161976482Y-33438610D01*
X161976482Y-33438610D02*
X162141078Y-33545648D01*
X162141078Y-33545648D02*
X162456250Y-33654171D01*
X162456250Y-33654171D02*
X162651852Y-33671159D01*
X162651852Y-33671159D02*
X162772908Y-33612116D01*
X162772908Y-33612116D02*
X162848940Y-33537570D01*
X162848940Y-33537570D02*
X162910953Y-33357471D01*
X162910953Y-33357471D02*
X162896934Y-33251918D01*
X162896934Y-33251918D02*
X162837891Y-33130863D01*
X162837891Y-33130863D02*
X162673296Y-33023825D01*
X162673296Y-33023825D02*
X162358123Y-32915302D01*
X162358123Y-32915302D02*
X162162521Y-32898314D01*
X162162521Y-32898314D02*
X162041465Y-32957357D01*
X162041465Y-32957357D02*
X161965434Y-33031903D01*
X162631894Y-34167916D02*
X161686376Y-33842347D01*
X161686376Y-33842347D02*
X162445855Y-34708212D01*
X162445855Y-34708212D02*
X161500337Y-34382644D01*
X171529143Y-35972416D02*
X171467130Y-36152515D01*
X171467130Y-36152515D02*
X171481148Y-36258068D01*
X171481148Y-36258068D02*
X171540191Y-36379124D01*
X171540191Y-36379124D02*
X171704786Y-36486161D01*
X171704786Y-36486161D02*
X172019959Y-36594684D01*
X172019959Y-36594684D02*
X172215561Y-36611672D01*
X172215561Y-36611672D02*
X172336617Y-36552629D01*
X172336617Y-36552629D02*
X172412648Y-36478083D01*
X172412648Y-36478083D02*
X172474661Y-36297985D01*
X172474661Y-36297985D02*
X172460643Y-36192432D01*
X172460643Y-36192432D02*
X172401600Y-36071376D01*
X172401600Y-36071376D02*
X172237005Y-35964338D01*
X172237005Y-35964338D02*
X171921832Y-35855816D01*
X171921832Y-35855816D02*
X171726230Y-35838827D01*
X171726230Y-35838827D02*
X171605174Y-35897870D01*
X171605174Y-35897870D02*
X171529143Y-35972416D01*
X171591808Y-37253066D02*
X171700331Y-36937893D01*
X172195603Y-37108429D02*
X171250084Y-36782861D01*
X171250084Y-36782861D02*
X171095052Y-37233108D01*
X171312750Y-38063511D02*
X171421273Y-37748338D01*
X171916544Y-37918874D02*
X170971026Y-37593305D01*
X170971026Y-37593305D02*
X170815993Y-38043552D01*
X117462252Y-48004478D02*
X117441885Y-47423570D01*
X117918615Y-47660583D02*
X117316800Y-46861948D01*
X117316800Y-46861948D02*
X117012558Y-47091211D01*
X117012558Y-47091211D02*
X116965155Y-47186557D01*
X116965155Y-47186557D02*
X116955783Y-47253245D01*
X116955783Y-47253245D02*
X116975068Y-47357963D01*
X116975068Y-47357963D02*
X117061042Y-47472054D01*
X117061042Y-47472054D02*
X117156388Y-47519457D01*
X117156388Y-47519457D02*
X117223076Y-47528829D01*
X117223076Y-47528829D02*
X117327794Y-47509544D01*
X117327794Y-47509544D02*
X117632036Y-47280281D01*
X117129352Y-48195710D02*
X117043919Y-48319714D01*
X117043919Y-48319714D02*
X116853767Y-48463003D01*
X116853767Y-48463003D02*
X116749049Y-48482289D01*
X116749049Y-48482289D02*
X116682361Y-48472916D01*
X116682361Y-48472916D02*
X116587015Y-48425514D01*
X116587015Y-48425514D02*
X116529699Y-48349453D01*
X116529699Y-48349453D02*
X116510414Y-48244735D01*
X116510414Y-48244735D02*
X116519786Y-48178047D01*
X116519786Y-48178047D02*
X116567189Y-48082701D01*
X116567189Y-48082701D02*
X116690652Y-47930039D01*
X116690652Y-47930039D02*
X116738055Y-47834693D01*
X116738055Y-47834693D02*
X116747427Y-47768005D01*
X116747427Y-47768005D02*
X116728142Y-47663287D01*
X116728142Y-47663287D02*
X116670826Y-47587226D01*
X116670826Y-47587226D02*
X116575480Y-47539823D01*
X116575480Y-47539823D02*
X116508792Y-47530451D01*
X116508792Y-47530451D02*
X116404073Y-47549736D01*
X116404073Y-47549736D02*
X116213922Y-47693026D01*
X116213922Y-47693026D02*
X116128489Y-47817030D01*
X115871650Y-47950947D02*
X115415287Y-48294841D01*
X116245283Y-48921529D02*
X115643468Y-48122894D01*
D11*
%TO.C,D15*%
X170056964Y-44977562D02*
X170556959Y-44977563D01*
X170056959Y-44577556D02*
X170056955Y-45377564D01*
X170056955Y-45377564D02*
X169456963Y-44977560D01*
X169456963Y-44977560D02*
X170056959Y-44577556D01*
X169456963Y-44977560D02*
X169456966Y-45527563D01*
X169456963Y-44977560D02*
X169456964Y-44427560D01*
X169056961Y-44977557D02*
X169456963Y-44977560D01*
%TO.C,D20*%
X187065884Y-99669465D02*
X186996159Y-100466428D01*
X187031023Y-100067951D02*
X187529117Y-100111523D01*
X186996159Y-100466428D02*
X186433301Y-100015652D01*
X186433301Y-100015652D02*
X187065884Y-99669465D01*
X186433301Y-100015652D02*
X186481241Y-99467749D01*
X186433301Y-100015652D02*
X186385367Y-100563558D01*
X186034825Y-99980793D02*
X186433301Y-100015652D01*
D12*
%TO.C,PWR1*%
X170404115Y-36153379D02*
X170146914Y-36900342D01*
X167866758Y-37225720D02*
X168055855Y-37290833D01*
X165030202Y-36249020D02*
X166637580Y-36802482D01*
X164776173Y-33147322D02*
X170165624Y-35003060D01*
X163622835Y-34653919D02*
X163880041Y-33906968D01*
D11*
%TO.C,D12*%
X153056968Y-38977563D02*
X153556963Y-38977564D01*
X153056963Y-38577557D02*
X153056959Y-39377565D01*
X153056959Y-39377565D02*
X152456967Y-38977561D01*
X152456967Y-38977561D02*
X153056963Y-38577557D01*
X152456967Y-38977561D02*
X152456970Y-39527564D01*
X152456967Y-38977561D02*
X152456968Y-38427561D01*
X152056965Y-38977558D02*
X152456967Y-38977561D01*
%TO.C,D8*%
X134102683Y-62650572D02*
X133476241Y-62293401D01*
X134074779Y-62251542D02*
X134573566Y-62216670D01*
X134046869Y-61852521D02*
X134102683Y-62650572D01*
X133476241Y-62293401D02*
X134046869Y-61852521D01*
X133476241Y-62293401D02*
X133514607Y-62842064D01*
X133476241Y-62293401D02*
X133437871Y-61744742D01*
X133077210Y-62321300D02*
X133476241Y-62293401D01*
D10*
%TO.C,RST1*%
X120200268Y-47562973D02*
X115408456Y-51173871D01*
X120049815Y-47363317D02*
X120200268Y-47562973D01*
X118093918Y-44767747D02*
X118244369Y-44967407D01*
X115408456Y-51173871D02*
X115258005Y-50974211D01*
X113452559Y-48578301D02*
X113302106Y-48378645D01*
X113302106Y-48378645D02*
X118093918Y-44767747D01*
D11*
%TO.C,D2*%
X98957746Y-79138037D02*
X98302562Y-78836822D01*
X98895169Y-78742957D02*
X99389015Y-78664746D01*
X98832602Y-78347880D02*
X98957746Y-79138037D01*
X98302562Y-78836822D02*
X98832602Y-78347880D01*
X98302562Y-78836822D02*
X98388600Y-79380050D01*
X98302562Y-78836822D02*
X98216514Y-78293595D01*
X97907487Y-78899390D02*
X98302562Y-78836822D01*
%TO.C,D11*%
X153056967Y-55977562D02*
X153556962Y-55977563D01*
X153056962Y-55577556D02*
X153056958Y-56377564D01*
X153056958Y-56377564D02*
X152456966Y-55977560D01*
X152456966Y-55977560D02*
X153056962Y-55577556D01*
X152456966Y-55977560D02*
X152456969Y-56527563D01*
X152456966Y-55977560D02*
X152456967Y-55427560D01*
X152056964Y-55977557D02*
X152456966Y-55977560D01*
%TO.C,D13*%
X170056968Y-78977559D02*
X170556963Y-78977560D01*
X170056963Y-78577553D02*
X170056959Y-79377561D01*
X170056959Y-79377561D02*
X169456967Y-78977557D01*
X169456967Y-78977557D02*
X170056963Y-78577553D01*
X169456967Y-78977557D02*
X169456970Y-79527560D01*
X169456967Y-78977557D02*
X169456968Y-78427557D01*
X169056965Y-78977554D02*
X169456967Y-78977557D01*
%TO.C,D10*%
X153056964Y-72977562D02*
X153556959Y-72977563D01*
X153056959Y-72577556D02*
X153056955Y-73377564D01*
X153056955Y-73377564D02*
X152456963Y-72977560D01*
X152456963Y-72977560D02*
X153056959Y-72577556D01*
X152456963Y-72977560D02*
X152456966Y-73527563D01*
X152456963Y-72977560D02*
X152456964Y-72427560D01*
X152056961Y-72977557D02*
X152456963Y-72977560D01*
%TO.C,D6*%
X113089062Y-59687945D02*
X112433878Y-59386730D01*
X113026485Y-59292865D02*
X113520331Y-59214654D01*
X112963918Y-58897788D02*
X113089062Y-59687945D01*
X112433878Y-59386730D02*
X112963918Y-58897788D01*
X112433878Y-59386730D02*
X112519916Y-59929958D01*
X112433878Y-59386730D02*
X112347830Y-58843503D01*
X112038803Y-59449298D02*
X112433878Y-59386730D01*
%TO.C,D21*%
X206534156Y-104319719D02*
X206260539Y-105071470D01*
X206397347Y-104695596D02*
X206867196Y-104866607D01*
X206260539Y-105071470D02*
X205833540Y-104490384D01*
X205833540Y-104490384D02*
X206534156Y-104319719D01*
X205833540Y-104490384D02*
X206021644Y-103973552D01*
X205833540Y-104490384D02*
X205645419Y-105007220D01*
X205457652Y-104353575D02*
X205833540Y-104490384D01*
%TO.C,D19*%
X169056965Y-98977557D02*
X169556960Y-98977558D01*
X169056960Y-98577551D02*
X169056956Y-99377559D01*
X169056956Y-99377559D02*
X168456964Y-98977555D01*
X168456964Y-98977555D02*
X169056960Y-98577551D01*
X168456964Y-98977555D02*
X168456967Y-99527558D01*
X168456964Y-98977555D02*
X168456965Y-98427555D01*
X168056962Y-98977552D02*
X168456964Y-98977555D01*
%TO.C,D5*%
X115748449Y-76478654D02*
X115093265Y-76177439D01*
X115685872Y-76083574D02*
X116179718Y-76005363D01*
X115623305Y-75688497D02*
X115748449Y-76478654D01*
X115093265Y-76177439D02*
X115623305Y-75688497D01*
X115093265Y-76177439D02*
X115179303Y-76720667D01*
X115093265Y-76177439D02*
X115007217Y-75634212D01*
X114698190Y-76240007D02*
X115093265Y-76177439D01*
%TO.C,D17*%
X187056962Y-63977559D02*
X187556957Y-63977560D01*
X187056957Y-63577553D02*
X187056953Y-64377561D01*
X187056953Y-64377561D02*
X186456961Y-63977557D01*
X186456961Y-63977557D02*
X187056957Y-63577553D01*
X186456961Y-63977557D02*
X186456964Y-64527560D01*
X186456961Y-63977557D02*
X186456962Y-63427557D01*
X186056959Y-63977554D02*
X186456961Y-63977557D01*
%TO.C,D7*%
X135288540Y-79609155D02*
X134662098Y-79251984D01*
X135260636Y-79210125D02*
X135759423Y-79175253D01*
X135232726Y-78811104D02*
X135288540Y-79609155D01*
X134662098Y-79251984D02*
X135232726Y-78811104D01*
X134662098Y-79251984D02*
X134700464Y-79800647D01*
X134662098Y-79251984D02*
X134623728Y-78703325D01*
X134263067Y-79279883D02*
X134662098Y-79251984D01*
%TO.C,D3*%
X96298358Y-62347331D02*
X95643174Y-62046116D01*
X96235781Y-61952251D02*
X96729627Y-61874040D01*
X96173214Y-61557174D02*
X96298358Y-62347331D01*
X95643174Y-62046116D02*
X96173214Y-61557174D01*
X95643174Y-62046116D02*
X95729212Y-62589344D01*
X95643174Y-62046116D02*
X95557126Y-61502889D01*
X95248099Y-62108684D02*
X95643174Y-62046116D01*
%TO.C,D4*%
X118407834Y-93269353D02*
X117752650Y-92968138D01*
X118345257Y-92874273D02*
X118839103Y-92796062D01*
X118282690Y-92479196D02*
X118407834Y-93269353D01*
X117752650Y-92968138D02*
X118282690Y-92479196D01*
X117752650Y-92968138D02*
X117838688Y-93511366D01*
X117752650Y-92968138D02*
X117666602Y-92424911D01*
X117357575Y-93030706D02*
X117752650Y-92968138D01*
%TO.C,D16*%
X187056966Y-80977555D02*
X187556961Y-80977556D01*
X187056961Y-80577549D02*
X187056957Y-81377557D01*
X187056957Y-81377557D02*
X186456965Y-80977553D01*
X186456965Y-80977553D02*
X187056961Y-80577549D01*
X186456965Y-80977553D02*
X186456968Y-81527556D01*
X186456965Y-80977553D02*
X186456966Y-80427553D01*
X186056963Y-80977550D02*
X186456965Y-80977553D01*
%TO.C,D14*%
X170056967Y-61977556D02*
X170556962Y-61977557D01*
X170056962Y-61577550D02*
X170056958Y-62377558D01*
X170056958Y-62377558D02*
X169456966Y-61977554D01*
X169456966Y-61977554D02*
X170056962Y-61577550D01*
X169456966Y-61977554D02*
X169456969Y-62527557D01*
X169456966Y-61977554D02*
X169456967Y-61427554D01*
X169056964Y-61977551D02*
X169456966Y-61977554D01*
%TO.C,D1*%
X101617132Y-95928740D02*
X100961948Y-95627525D01*
X101554555Y-95533660D02*
X102048401Y-95455449D01*
X101491988Y-95138583D02*
X101617132Y-95928740D01*
X100961948Y-95627525D02*
X101491988Y-95138583D01*
X100961948Y-95627525D02*
X101047986Y-96170753D01*
X100961948Y-95627525D02*
X100875900Y-95084298D01*
X100566873Y-95690093D02*
X100961948Y-95627525D01*
%TO.C,D18*%
X187056965Y-46977560D02*
X187556960Y-46977561D01*
X187056960Y-46577554D02*
X187056956Y-47377562D01*
X187056956Y-47377562D02*
X186456964Y-46977558D01*
X186456964Y-46977558D02*
X187056960Y-46577554D01*
X186456964Y-46977558D02*
X186456967Y-47527561D01*
X186456964Y-46977558D02*
X186456965Y-46427558D01*
X186056962Y-46977555D02*
X186456964Y-46977558D01*
%TO.C,D9*%
X132916827Y-45691981D02*
X132290385Y-45334810D01*
X132888923Y-45292951D02*
X133387710Y-45258079D01*
X132861013Y-44893930D02*
X132916827Y-45691981D01*
X132290385Y-45334810D02*
X132861013Y-44893930D01*
X132290385Y-45334810D02*
X132328751Y-45883473D01*
X132290385Y-45334810D02*
X132252015Y-44786151D01*
X131891354Y-45362709D02*
X132290385Y-45334810D01*
%TO.C,JST1*%
X203629998Y-60770004D02*
X202630003Y-60770001D01*
X203129998Y-60269997D02*
X203129998Y-61269996D01*
X198029996Y-60770001D02*
X199030001Y-60769999D01*
%TO.C,REF\u002A\u002A*%
D13*
X199177960Y-39573555D02*
G75*
G02*
X198673964Y-39573555I-251998J0D01*
G01*
X198673964Y-39573555D02*
G75*
G02*
X199177960Y-39573555I251998J0D01*
G01*
D14*
X197903961Y-38856559D02*
G75*
G02*
X197399959Y-38856559I-252001J0D01*
G01*
X197399959Y-38856559D02*
G75*
G02*
X197903961Y-38856559I252001J0D01*
G01*
D11*
X215641956Y-57490558D02*
G75*
G02*
X213736957Y-59395554I-1905006J10D01*
G01*
X213736961Y-38440560D02*
G75*
G02*
X215641969Y-40345559I-31J-1905039D01*
G01*
D15*
X210755962Y-36930557D02*
G75*
G02*
X211255965Y-37430555I-102J-500105D01*
G01*
X202260690Y-37430292D02*
G75*
G02*
X202760685Y-36930559I500008J-275D01*
G01*
D11*
X199766959Y-59395562D02*
G75*
G02*
X197861952Y-57490559I-1J1905006D01*
G01*
X197861959Y-40341563D02*
G75*
G02*
X199766961Y-38436563I1905001J-1D01*
G01*
X215641956Y-57490558D02*
X215641964Y-40345559D01*
X213736961Y-38440560D02*
X199766961Y-38440556D01*
D15*
X211255962Y-37430555D02*
X211255966Y-38440562D01*
X202760685Y-36930558D02*
X210755962Y-36930557D01*
X202256964Y-38440562D02*
X202260690Y-37430292D01*
D11*
X199766959Y-59395562D02*
X213736957Y-59395559D01*
X197861956Y-57490559D02*
X197861960Y-40345566D01*
%TD*%
M02*
