%TF.GenerationSoftware,KiCad,Pcbnew,9.0.3*%
%TF.CreationDate,2025-12-01T13:17:09+01:00*%
%TF.ProjectId,reversible,72657665-7273-4696-926c-652e6b696361,v1.0.0*%
%TF.SameCoordinates,Original*%
%TF.FileFunction,Soldermask,Top*%
%TF.FilePolarity,Negative*%
%FSLAX46Y46*%
G04 Gerber Fmt 4.6, Leading zero omitted, Abs format (unit mm)*
G04 Created by KiCad (PCBNEW 9.0.3) date 2025-12-01 13:17:09*
%MOMM*%
%LPD*%
G01*
G04 APERTURE LIST*
G04 Aperture macros list*
%AMRoundRect*
0 Rectangle with rounded corners*
0 $1 Rounding radius*
0 $2 $3 $4 $5 $6 $7 $8 $9 X,Y pos of 4 corners*
0 Add a 4 corners polygon primitive as box body*
4,1,4,$2,$3,$4,$5,$6,$7,$8,$9,$2,$3,0*
0 Add four circle primitives for the rounded corners*
1,1,$1+$1,$2,$3*
1,1,$1+$1,$4,$5*
1,1,$1+$1,$6,$7*
1,1,$1+$1,$8,$9*
0 Add four rect primitives between the rounded corners*
20,1,$1+$1,$2,$3,$4,$5,0*
20,1,$1+$1,$4,$5,$6,$7,0*
20,1,$1+$1,$6,$7,$8,$9,0*
20,1,$1+$1,$8,$9,$2,$3,0*%
G04 Aperture macros list end*
%ADD10C,1.300000*%
%ADD11C,2.300000*%
%ADD12C,1.500000*%
%ADD13RoundRect,0.050000X-0.609024X-1.108925X0.921893X-0.866452X0.609024X1.108925X-0.921893X0.866452X0*%
%ADD14RoundRect,0.050000X-0.831254X-1.144123X1.144123X-0.831254X0.831254X1.144123X-1.144123X0.831254X0*%
%ADD15RoundRect,0.050000X-0.450000X-0.600000X0.450000X-0.600000X0.450000X0.600000X-0.450000X0.600000X0*%
%ADD16RoundRect,0.050000X-0.500581X-0.558497X0.395994X-0.636937X0.500581X0.558497X-0.395994X0.636937X0*%
%ADD17RoundRect,0.050000X0.604476X0.211208X-0.338747X0.543370X-0.604476X-0.211208X0.338747X-0.543370X0*%
%ADD18C,1.000000*%
%ADD19RoundRect,0.050000X0.579249X0.591161X-0.081007X0.823673X-0.579249X-0.591161X0.081007X-0.823673X0*%
%ADD20RoundRect,0.050000X-0.407050X-0.629929X0.490758X-0.567148X0.407050X0.629929X-0.490758X0.567148X0*%
%ADD21RoundRect,0.050000X-0.167297X-1.190383X1.190383X-0.167297X0.167297X1.190383X-1.190383X0.167297X0*%
%ADD22RoundRect,0.050000X-0.775000X-1.000000X0.775000X-1.000000X0.775000X1.000000X-0.775000X1.000000X0*%
%ADD23RoundRect,0.050000X-1.000000X-1.000000X1.000000X-1.000000X1.000000X1.000000X-1.000000X1.000000X0*%
%ADD24RoundRect,0.050000X-0.703356X-1.051625X0.842869X-0.943503X0.703356X1.051625X-0.842869X0.943503X0*%
%ADD25RoundRect,0.050000X-0.927808X-1.067321X1.067321X-0.927808X0.927808X1.067321X-1.067321X0.927808X0*%
%ADD26RoundRect,0.050000X-0.350599X-0.663009X0.538320X-0.522217X0.350599X0.663009X-0.538320X0.522217X0*%
%ADD27RoundRect,0.050000X-0.628074X-0.409907X0.217650X-0.717725X0.628074X0.409907X-0.217650X0.717725X0*%
%ADD28RoundRect,0.050000X-1.070282X-0.674627X0.386242X-1.204758X1.070282X0.674627X-0.386242X1.204758X0*%
%ADD29RoundRect,0.050000X-1.281713X-0.597672X0.597672X-1.281713X1.281713X0.597672X-0.597672X1.281713X0*%
%ADD30RoundRect,0.260000X-0.390000X-0.665000X0.390000X-0.665000X0.390000X0.665000X-0.390000X0.665000X0*%
%ADD31O,1.300000X1.850000*%
%ADD32RoundRect,0.140000X0.560000X0.672000X-0.560000X0.672000X-0.560000X-0.672000X0.560000X-0.672000X0*%
%ADD33C,1.600000*%
%ADD34C,1.800000*%
%ADD35RoundRect,0.050000X-0.859207X-0.928649X0.684895X-1.063740X0.859207X0.928649X-0.684895X1.063740X0*%
%ADD36RoundRect,0.050000X-1.083350X-0.909039X0.909039X-1.083350X1.083350X0.909039X-0.909039X1.083350X0*%
G04 APERTURE END LIST*
D10*
%TO.C,*%
X210360000Y-96529999D03*
%TD*%
D11*
%TO.C,MH3*%
X136100838Y-94809521D03*
%TD*%
D12*
%TO.C,CPG1316*%
X117453732Y-98432169D03*
D13*
X117453732Y-98432169D03*
D12*
X120416798Y-97962875D03*
D13*
X120416798Y-97962875D03*
D14*
X113187497Y-102499635D03*
X111310285Y-90647376D03*
X125731137Y-100512924D03*
X123853925Y-88660665D03*
%TD*%
D15*
%TO.C,D15*%
X168156960Y-44977558D03*
X171456962Y-44977566D03*
%TD*%
D16*
%TO.C,D20*%
X185138248Y-99902350D03*
X188425694Y-100189964D03*
%TD*%
D17*
%TO.C,PWR1*%
X163203804Y-35233572D03*
X170089334Y-37658346D03*
D18*
X165600431Y-34900738D03*
X168430103Y-35897223D03*
D17*
X163937880Y-33149051D03*
X170823409Y-35573829D03*
D19*
X168552918Y-37806412D03*
X165723247Y-36809933D03*
X164308409Y-36311689D03*
%TD*%
D15*
%TO.C,D12*%
X151156961Y-38977556D03*
X154456963Y-38977564D03*
%TD*%
D20*
%TO.C,D8*%
X132179413Y-62384082D03*
X135471363Y-62153886D03*
%TD*%
D21*
%TO.C,RST1*%
X119346754Y-46014914D03*
X114155618Y-49926708D03*
%TD*%
D12*
%TO.C,CPG1316*%
X168306958Y-84327557D03*
D22*
X168306958Y-84327557D03*
D12*
X171306960Y-84327560D03*
D22*
X171306960Y-84327560D03*
D23*
X163456955Y-75677559D03*
X163456961Y-87677553D03*
X176156955Y-75677561D03*
X176156961Y-87677555D03*
%TD*%
D12*
%TO.C,CPG1316*%
X131516375Y-50751994D03*
D24*
X131516375Y-50751994D03*
D12*
X134509068Y-50542726D03*
D24*
X134509068Y-50542726D03*
D25*
X126911874Y-54432152D03*
X126074799Y-42461384D03*
X139580933Y-53546244D03*
X138743858Y-41575476D03*
%TD*%
D12*
%TO.C,CPG1316*%
X167306959Y-104327557D03*
D22*
X167306959Y-104327557D03*
D12*
X170306961Y-104327560D03*
D22*
X170306961Y-104327560D03*
D23*
X162456956Y-95677559D03*
X162456962Y-107677553D03*
X175156956Y-95677561D03*
X175156962Y-107677555D03*
%TD*%
D26*
%TO.C,D2*%
X97018566Y-79040183D03*
X100277936Y-78523953D03*
%TD*%
D15*
%TO.C,D11*%
X151156961Y-55977553D03*
X154456963Y-55977561D03*
%TD*%
%TO.C,D13*%
X168156962Y-78977552D03*
X171456964Y-78977560D03*
%TD*%
D11*
%TO.C,MH4*%
X150806954Y-94677560D03*
%TD*%
D15*
%TO.C,D10*%
X151156958Y-72977555D03*
X154456960Y-72977563D03*
%TD*%
D12*
%TO.C,CPG1316*%
X98003645Y-84300844D03*
D13*
X98003645Y-84300844D03*
D12*
X100966711Y-83831550D03*
D13*
X100966711Y-83831550D03*
D14*
X93737410Y-88368310D03*
X91860198Y-76516051D03*
X106281050Y-86381599D03*
X104403838Y-74529340D03*
%TD*%
D26*
%TO.C,D6*%
X111149881Y-59590092D03*
X114409251Y-59073862D03*
%TD*%
D12*
%TO.C,CPG1316*%
X185306963Y-52327560D03*
D22*
X185306963Y-52327560D03*
D12*
X188306965Y-52327563D03*
D22*
X188306965Y-52327563D03*
D23*
X180456960Y-43677562D03*
X180456966Y-55677556D03*
X193156960Y-43677564D03*
X193156966Y-55677558D03*
%TD*%
D11*
%TO.C,MH1*%
X214161381Y-97252158D03*
%TD*%
D27*
%TO.C,D21*%
X204611929Y-104045758D03*
X207712915Y-105174422D03*
%TD*%
D15*
%TO.C,D19*%
X167156962Y-98977551D03*
X170456964Y-98977559D03*
%TD*%
D26*
%TO.C,D5*%
X113809270Y-76380798D03*
X117068640Y-75864568D03*
%TD*%
D12*
%TO.C,CPG1316*%
X132702241Y-67710581D03*
D24*
X132702241Y-67710581D03*
D12*
X135694934Y-67501313D03*
D24*
X135694934Y-67501313D03*
D25*
X128097740Y-71390739D03*
X127260665Y-59419971D03*
X140766799Y-70504831D03*
X139929724Y-58534063D03*
%TD*%
D15*
%TO.C,D17*%
X185156956Y-63977553D03*
X188456958Y-63977561D03*
%TD*%
D12*
%TO.C,CPG1316*%
X133888098Y-84669172D03*
D24*
X133888098Y-84669172D03*
D12*
X136880791Y-84459904D03*
D24*
X136880791Y-84459904D03*
D25*
X129283597Y-88349330D03*
X128446522Y-76378562D03*
X141952656Y-87463422D03*
X141115581Y-75492654D03*
%TD*%
D12*
%TO.C,CPG1316*%
X168306963Y-50327553D03*
D22*
X168306963Y-50327553D03*
D12*
X171306965Y-50327556D03*
D22*
X171306965Y-50327556D03*
D23*
X163456960Y-41677555D03*
X163456966Y-53677549D03*
X176156960Y-41677557D03*
X176156966Y-53677551D03*
%TD*%
D10*
%TO.C,REF\u002A\u002A*%
X107390000Y-52890000D03*
%TD*%
D12*
%TO.C,CPG1316*%
X151306958Y-61327556D03*
D22*
X151306958Y-61327556D03*
D12*
X154306960Y-61327559D03*
D22*
X154306960Y-61327559D03*
D23*
X146456955Y-52677558D03*
X146456961Y-64677552D03*
X159156955Y-52677560D03*
X159156961Y-64677554D03*
%TD*%
D12*
%TO.C,CPG1316*%
X185306961Y-69327558D03*
D22*
X185306961Y-69327558D03*
D12*
X188306963Y-69327561D03*
D22*
X188306963Y-69327561D03*
D23*
X180456958Y-60677560D03*
X180456964Y-72677554D03*
X193156958Y-60677562D03*
X193156964Y-72677556D03*
%TD*%
D12*
%TO.C,CPG1316*%
X168306956Y-67327559D03*
D22*
X168306956Y-67327559D03*
D12*
X171306958Y-67327562D03*
D22*
X171306958Y-67327562D03*
D23*
X163456953Y-58677561D03*
X163456959Y-70677555D03*
X176156953Y-58677563D03*
X176156959Y-70677557D03*
%TD*%
D11*
%TO.C,MH2*%
X140598443Y-35842146D03*
%TD*%
D20*
%TO.C,D7*%
X133365270Y-79342667D03*
X136657220Y-79112471D03*
%TD*%
D26*
%TO.C,D3*%
X94359179Y-62249477D03*
X97618549Y-61733247D03*
%TD*%
D12*
%TO.C,CPG1316*%
X95344257Y-67510144D03*
D13*
X95344257Y-67510144D03*
D12*
X98307323Y-67040850D03*
D13*
X98307323Y-67040850D03*
D14*
X91078022Y-71577610D03*
X89200810Y-59725351D03*
X103621662Y-69590899D03*
X101744450Y-57738640D03*
%TD*%
D26*
%TO.C,D4*%
X116468655Y-93171501D03*
X119728025Y-92655271D03*
%TD*%
D12*
%TO.C,CPG1316*%
X151306964Y-44327561D03*
D22*
X151306964Y-44327561D03*
D12*
X154306966Y-44327564D03*
D22*
X154306966Y-44327564D03*
D23*
X146456961Y-35677563D03*
X146456967Y-47677557D03*
X159156961Y-35677565D03*
X159156967Y-47677559D03*
%TD*%
D15*
%TO.C,D16*%
X185156960Y-80977549D03*
X188456962Y-80977557D03*
%TD*%
%TO.C,D14*%
X168156963Y-61977550D03*
X171456965Y-61977558D03*
%TD*%
D26*
%TO.C,D1*%
X99677951Y-95830885D03*
X102937321Y-95314655D03*
%TD*%
D12*
%TO.C,CPG1316*%
X185306961Y-86327555D03*
D22*
X185306961Y-86327555D03*
D12*
X188306963Y-86327558D03*
D22*
X188306963Y-86327558D03*
D23*
X180456958Y-77677557D03*
X180456964Y-89677551D03*
X193156958Y-77677559D03*
X193156964Y-89677553D03*
%TD*%
D12*
%TO.C,CPG1316*%
X112134958Y-64850752D03*
D13*
X112134958Y-64850752D03*
D12*
X115098024Y-64381458D03*
D13*
X115098024Y-64381458D03*
D14*
X107868723Y-68918218D03*
X105991511Y-57065959D03*
X120412363Y-66931507D03*
X118535151Y-55079248D03*
%TD*%
D12*
%TO.C,CPG1316*%
X202923078Y-109124424D03*
D28*
X202923078Y-109124424D03*
D12*
X205742156Y-110150483D03*
D28*
X205742156Y-110150483D03*
D29*
X201324041Y-99337287D03*
X197219799Y-110613603D03*
X213258137Y-103680941D03*
X209153895Y-114957257D03*
%TD*%
D15*
%TO.C,D18*%
X185156963Y-46977553D03*
X188456965Y-46977561D03*
%TD*%
D20*
%TO.C,D9*%
X130993558Y-45425491D03*
X134285508Y-45195295D03*
%TD*%
D30*
%TO.C,JST1*%
X199830002Y-60870000D03*
D31*
X201829996Y-60869996D03*
%TD*%
D12*
%TO.C,CPG1316*%
X151306962Y-78327558D03*
D22*
X151306962Y-78327558D03*
D12*
X154306964Y-78327561D03*
D22*
X154306964Y-78327561D03*
D23*
X146456959Y-69677560D03*
X146456965Y-81677554D03*
X159156959Y-69677562D03*
X159156965Y-81677556D03*
%TD*%
D18*
%TO.C,XIAOBLE*%
X199186958Y-46437559D03*
X199186960Y-41357560D03*
X199186960Y-43897559D03*
X199186960Y-54057558D03*
X199186961Y-48977558D03*
X199186961Y-51517557D03*
X199186962Y-56597558D03*
X214426958Y-41357558D03*
X214426959Y-46437559D03*
X214426959Y-48977558D03*
X214426960Y-43897558D03*
X214426960Y-54057557D03*
X214426960Y-56597556D03*
X214426962Y-51517557D03*
D32*
X197606958Y-41357558D03*
X197606959Y-43897560D03*
X197606960Y-46437558D03*
X197606959Y-48977558D03*
X197606958Y-51517558D03*
X197606960Y-54057557D03*
X197606958Y-56597557D03*
X216006962Y-56597558D03*
X216006961Y-54057556D03*
X216006960Y-51517558D03*
X216006961Y-48977558D03*
X216006962Y-46437558D03*
X216006960Y-43897559D03*
X216006962Y-41357559D03*
D33*
X201806959Y-48664057D03*
X211806959Y-48664061D03*
X201806960Y-46759057D03*
X211806961Y-46759058D03*
D34*
X205481959Y-40409057D03*
X208021961Y-40409057D03*
X205481959Y-42949057D03*
X208021960Y-42949059D03*
%TD*%
D12*
%TO.C,CPG1316*%
X100663033Y-101091549D03*
D13*
X100663033Y-101091549D03*
D12*
X103626099Y-100622255D03*
D13*
X103626099Y-100622255D03*
D14*
X96396798Y-105159015D03*
X94519586Y-93306756D03*
X108940438Y-103172304D03*
X107063226Y-91320045D03*
%TD*%
D12*
%TO.C,CPG1316*%
X114794352Y-81641458D03*
D13*
X114794352Y-81641458D03*
D12*
X117757418Y-81172164D03*
D13*
X117757418Y-81172164D03*
D14*
X110528117Y-85708924D03*
X108650905Y-73856665D03*
X123071757Y-83722213D03*
X121194545Y-71869954D03*
%TD*%
D10*
%TO.C,*%
X143920001Y-96250001D03*
%TD*%
D12*
%TO.C,CPG1316*%
X184821389Y-105245064D03*
D35*
X184821389Y-105245064D03*
D12*
X187809976Y-105506530D03*
D35*
X187809976Y-105506530D03*
D36*
X180743746Y-96205279D03*
X179697878Y-108159615D03*
X193395420Y-97312151D03*
X192349552Y-109266487D03*
%TD*%
M02*
