%TF.GenerationSoftware,KiCad,Pcbnew,8.0.6*%
%TF.CreationDate,2025-08-04T20:43:40+02:00*%
%TF.ProjectId,reversible,72657665-7273-4696-926c-652e6b696361,v1.0.0*%
%TF.SameCoordinates,Original*%
%TF.FileFunction,Drillmap*%
%TF.FilePolarity,Positive*%
%FSLAX45Y45*%
G04 Gerber Fmt 4.5, Leading zero omitted, Abs format (unit mm)*
G04 Created by KiCad (PCBNEW 8.0.6) date 2025-08-04 20:43:40*
%MOMM*%
%LPD*%
G01*
G04 APERTURE LIST*
%ADD10C,0.150000*%
%ADD11C,0.050000*%
%ADD12C,0.100000*%
%ADD13C,0.200000*%
G04 APERTURE END LIST*
D10*
X21794496Y-10204945D02*
X21208312Y-11764206D01*
X17568699Y-11132756D02*
X15940906Y-11118290D01*
X21807288Y-10134485D02*
G75*
G02*
X21794496Y-10204945I-200038J-75D01*
G01*
X9533019Y-10885242D02*
G75*
G02*
X9302345Y-10719293I-33139J197232D01*
G01*
X21208312Y-11764206D02*
G75*
G02*
X20952700Y-11881767I-187212J70386D01*
G01*
X16246438Y-3217756D02*
G75*
G02*
X16313001Y-3229157I-8J-200054D01*
G01*
X17568699Y-11132756D02*
G75*
G02*
X17582624Y-11133365I-1769J-199754D01*
G01*
X21604778Y-3817756D02*
G75*
G02*
X21804774Y-4017674I2J-199994D01*
G01*
X18014955Y-3817756D02*
X21604778Y-3817756D01*
X19232156Y-11263277D02*
X17582624Y-11133366D01*
X15830788Y-11084069D02*
X14350049Y-10084569D01*
X14198669Y-10054276D02*
G75*
G02*
X14350049Y-10084570I39481J-196085D01*
G01*
X12784710Y-10338929D02*
X9533019Y-10885242D01*
X10223049Y-5389230D02*
G75*
G02*
X10135899Y-5425604I-118439J161179D01*
G01*
X12194233Y-3940619D02*
G75*
G02*
X12247984Y-3912530I118447J-161181D01*
G01*
X12791058Y-10337757D02*
G75*
G02*
X12784710Y-10338929I-39358J195407D01*
G01*
X9302344Y-10719293D02*
X8536110Y-5881481D01*
D11*
X21724000Y-6240000D02*
X21724000Y-9440000D01*
X19624000Y-9440000D01*
X19624000Y-6240000D01*
X21724000Y-6240000D01*
D10*
X21804778Y-4017674D02*
X21807288Y-10134485D01*
X10223049Y-5389230D02*
X12194233Y-3940619D01*
X14249247Y-3228505D02*
G75*
G02*
X14313932Y-3217756I64693J-189295D01*
G01*
X8702361Y-5652656D02*
X10135899Y-5425606D01*
X12247984Y-3912530D02*
X14249247Y-3228505D01*
X14198669Y-10054276D02*
X12791058Y-10337757D01*
X20952700Y-11881766D02*
X19284858Y-11274721D01*
X16313001Y-3229158D02*
X17948391Y-3806354D01*
X14313932Y-3217756D02*
X16246438Y-3217756D01*
X15940906Y-11118290D02*
G75*
G02*
X15830788Y-11084069I1784J200020D01*
G01*
X8536110Y-5881481D02*
G75*
G02*
X8702361Y-5652661I197540J31281D01*
G01*
X19232156Y-11263277D02*
G75*
G02*
X19284858Y-11274721I-15696J-199363D01*
G01*
X18014955Y-3817756D02*
G75*
G02*
X17948391Y-3806353I-5J199966D01*
G01*
D12*
X12517950Y-9738897D02*
G75*
G02*
X12417950Y-9738897I-50000J0D01*
G01*
X12417950Y-9738897D02*
G75*
G02*
X12517950Y-9738897I50000J0D01*
G01*
X12441911Y-9195668D02*
G75*
G02*
X12321910Y-9195668I-60000J0D01*
G01*
X12321910Y-9195668D02*
G75*
G02*
X12441911Y-9195668I60000J0D01*
G01*
X11372231Y-9920361D02*
G75*
G02*
X11272231Y-9920361I-50000J0D01*
G01*
X11272231Y-9920361D02*
G75*
G02*
X11372231Y-9920361I50000J0D01*
G01*
X11296192Y-9377132D02*
G75*
G02*
X11176192Y-9377132I-60000J0D01*
G01*
X11176192Y-9377132D02*
G75*
G02*
X11296192Y-9377132I60000J0D01*
G01*
X17610696Y-8442756D02*
G75*
G02*
X17510696Y-8442756I-50000J0D01*
G01*
X17510696Y-8442756D02*
G75*
G02*
X17610696Y-8442756I50000J0D01*
G01*
X17620696Y-7892756D02*
G75*
G02*
X17500695Y-7892756I-60001J0D01*
G01*
X17500695Y-7892756D02*
G75*
G02*
X17620696Y-7892756I60001J0D01*
G01*
X16450696Y-8442756D02*
G75*
G02*
X16350697Y-8442756I-50000J0D01*
G01*
X16350697Y-8442756D02*
G75*
G02*
X16450696Y-8442756I50000J0D01*
G01*
X16460696Y-7892755D02*
G75*
G02*
X16340696Y-7892755I-60000J0D01*
G01*
X16340696Y-7892755D02*
G75*
G02*
X16460696Y-7892755I60000J0D01*
G01*
X13930556Y-5034253D02*
G75*
G02*
X13830557Y-5034253I-50000J0D01*
G01*
X13830557Y-5034253D02*
G75*
G02*
X13930556Y-5034253I50000J0D01*
G01*
X13902191Y-4485593D02*
G75*
G02*
X13782191Y-4485593I-60000J0D01*
G01*
X13782191Y-4485593D02*
G75*
G02*
X13902191Y-4485593I60000J0D01*
G01*
X12773382Y-5115170D02*
G75*
G02*
X12673382Y-5115170I-50000J0D01*
G01*
X12673382Y-5115170D02*
G75*
G02*
X12773382Y-5115170I50000J0D01*
G01*
X12745017Y-4566510D02*
G75*
G02*
X12625016Y-4566510I-60000J0D01*
G01*
X12625016Y-4566510D02*
G75*
G02*
X12745017Y-4566510I60000J0D01*
G01*
X17510696Y-10442756D02*
G75*
G02*
X17410696Y-10442756I-50000J0D01*
G01*
X17410696Y-10442756D02*
G75*
G02*
X17510696Y-10442756I50000J0D01*
G01*
X17520696Y-9892756D02*
G75*
G02*
X17400695Y-9892756I-60001J0D01*
G01*
X17400695Y-9892756D02*
G75*
G02*
X17520696Y-9892756I60001J0D01*
G01*
X16350696Y-10442755D02*
G75*
G02*
X16250697Y-10442755I-50000J0D01*
G01*
X16250697Y-10442755D02*
G75*
G02*
X16350696Y-10442755I50000J0D01*
G01*
X16360696Y-9892755D02*
G75*
G02*
X16240696Y-9892755I-60000J0D01*
G01*
X16240696Y-9892755D02*
G75*
G02*
X16360696Y-9892755I60000J0D01*
G01*
X10572942Y-8325765D02*
G75*
G02*
X10472941Y-8325765I-50000J0D01*
G01*
X10472941Y-8325765D02*
G75*
G02*
X10572942Y-8325765I50000J0D01*
G01*
X10496903Y-7782536D02*
G75*
G02*
X10376902Y-7782536I-60000J0D01*
G01*
X10376902Y-7782536D02*
G75*
G02*
X10496903Y-7782536I60000J0D01*
G01*
X9427223Y-8507229D02*
G75*
G02*
X9327223Y-8507229I-50000J0D01*
G01*
X9327223Y-8507229D02*
G75*
G02*
X9427223Y-8507229I50000J0D01*
G01*
X9351183Y-7964000D02*
G75*
G02*
X9231184Y-7964000I-60000J0D01*
G01*
X9231184Y-7964000D02*
G75*
G02*
X9351183Y-7964000I60000J0D01*
G01*
X19310696Y-5242756D02*
G75*
G02*
X19210696Y-5242756I-50000J0D01*
G01*
X19210696Y-5242756D02*
G75*
G02*
X19310696Y-5242756I50000J0D01*
G01*
X19320696Y-4692756D02*
G75*
G02*
X19200695Y-4692756I-60001J0D01*
G01*
X19200695Y-4692756D02*
G75*
G02*
X19320696Y-4692756I60001J0D01*
G01*
X18150696Y-5242756D02*
G75*
G02*
X18050697Y-5242756I-50000J0D01*
G01*
X18050697Y-5242756D02*
G75*
G02*
X18150696Y-5242756I50000J0D01*
G01*
X18160696Y-4692755D02*
G75*
G02*
X18040696Y-4692755I-60000J0D01*
G01*
X18040696Y-4692755D02*
G75*
G02*
X18160696Y-4692755I60000J0D01*
G01*
X14049143Y-6730112D02*
G75*
G02*
X13949143Y-6730112I-50000J0D01*
G01*
X13949143Y-6730112D02*
G75*
G02*
X14049143Y-6730112I50000J0D01*
G01*
X14020777Y-6181451D02*
G75*
G02*
X13900777Y-6181451I-60000J0D01*
G01*
X13900777Y-6181451D02*
G75*
G02*
X14020777Y-6181451I60000J0D01*
G01*
X12891969Y-6811029D02*
G75*
G02*
X12791969Y-6811029I-50000J0D01*
G01*
X12791969Y-6811029D02*
G75*
G02*
X12891969Y-6811029I50000J0D01*
G01*
X12863603Y-6262369D02*
G75*
G02*
X12743603Y-6262369I-60000J0D01*
G01*
X12743603Y-6262369D02*
G75*
G02*
X12863603Y-6262369I60000J0D01*
G01*
X14167729Y-8425971D02*
G75*
G02*
X14067729Y-8425971I-50000J0D01*
G01*
X14067729Y-8425971D02*
G75*
G02*
X14167729Y-8425971I50000J0D01*
G01*
X14139363Y-7877311D02*
G75*
G02*
X14019363Y-7877311I-60000J0D01*
G01*
X14019363Y-7877311D02*
G75*
G02*
X14139363Y-7877311I60000J0D01*
G01*
X13010555Y-8506888D02*
G75*
G02*
X12910555Y-8506888I-50000J0D01*
G01*
X12910555Y-8506888D02*
G75*
G02*
X13010555Y-8506888I50000J0D01*
G01*
X12982189Y-7958228D02*
G75*
G02*
X12862189Y-7958228I-60000J0D01*
G01*
X12862189Y-7958228D02*
G75*
G02*
X12982189Y-7958228I60000J0D01*
G01*
X17610696Y-5042756D02*
G75*
G02*
X17510696Y-5042756I-50000J0D01*
G01*
X17510696Y-5042756D02*
G75*
G02*
X17610696Y-5042756I50000J0D01*
G01*
X17620696Y-4492756D02*
G75*
G02*
X17500695Y-4492756I-60001J0D01*
G01*
X17500695Y-4492756D02*
G75*
G02*
X17620696Y-4492756I60001J0D01*
G01*
X16450696Y-5042756D02*
G75*
G02*
X16350697Y-5042756I-50000J0D01*
G01*
X16350697Y-5042756D02*
G75*
G02*
X16450696Y-5042756I50000J0D01*
G01*
X16460696Y-4492755D02*
G75*
G02*
X16340696Y-4492755I-60000J0D01*
G01*
X16340696Y-4492755D02*
G75*
G02*
X16460696Y-4492755I60000J0D01*
G01*
X15910696Y-6142756D02*
G75*
G02*
X15810696Y-6142756I-50000J0D01*
G01*
X15810696Y-6142756D02*
G75*
G02*
X15910696Y-6142756I50000J0D01*
G01*
X15920696Y-5592756D02*
G75*
G02*
X15800695Y-5592756I-60001J0D01*
G01*
X15800695Y-5592756D02*
G75*
G02*
X15920696Y-5592756I60001J0D01*
G01*
X14750696Y-6142755D02*
G75*
G02*
X14650697Y-6142755I-50000J0D01*
G01*
X14650697Y-6142755D02*
G75*
G02*
X14750696Y-6142755I50000J0D01*
G01*
X14760696Y-5592755D02*
G75*
G02*
X14640696Y-5592755I-60000J0D01*
G01*
X14640696Y-5592755D02*
G75*
G02*
X14760696Y-5592755I60000J0D01*
G01*
X19310696Y-6942756D02*
G75*
G02*
X19210696Y-6942756I-50000J0D01*
G01*
X19210696Y-6942756D02*
G75*
G02*
X19310696Y-6942756I50000J0D01*
G01*
X19320696Y-6392756D02*
G75*
G02*
X19200695Y-6392756I-60001J0D01*
G01*
X19200695Y-6392756D02*
G75*
G02*
X19320696Y-6392756I60001J0D01*
G01*
X18150696Y-6942755D02*
G75*
G02*
X18050697Y-6942755I-50000J0D01*
G01*
X18050697Y-6942755D02*
G75*
G02*
X18150696Y-6942755I50000J0D01*
G01*
X18160697Y-6392755D02*
G75*
G02*
X18040696Y-6392755I-60000J0D01*
G01*
X18040696Y-6392755D02*
G75*
G02*
X18160697Y-6392755I60000J0D01*
G01*
X17610696Y-6742757D02*
G75*
G02*
X17510696Y-6742757I-50000J0D01*
G01*
X17510696Y-6742757D02*
G75*
G02*
X17610696Y-6742757I50000J0D01*
G01*
X17620696Y-6192756D02*
G75*
G02*
X17500695Y-6192756I-60001J0D01*
G01*
X17500695Y-6192756D02*
G75*
G02*
X17620696Y-6192756I60001J0D01*
G01*
X16450696Y-6742756D02*
G75*
G02*
X16350697Y-6742756I-50000J0D01*
G01*
X16350697Y-6742756D02*
G75*
G02*
X16450696Y-6742756I50000J0D01*
G01*
X16460696Y-6192756D02*
G75*
G02*
X16340696Y-6192756I-60000J0D01*
G01*
X16340696Y-6192756D02*
G75*
G02*
X16460696Y-6192756I60000J0D01*
G01*
X10307003Y-6646695D02*
G75*
G02*
X10207002Y-6646695I-50000J0D01*
G01*
X10207002Y-6646695D02*
G75*
G02*
X10307003Y-6646695I50000J0D01*
G01*
X10230964Y-6103466D02*
G75*
G02*
X10110963Y-6103466I-60000J0D01*
G01*
X10110963Y-6103466D02*
G75*
G02*
X10230964Y-6103466I60000J0D01*
G01*
X9161284Y-6828159D02*
G75*
G02*
X9061284Y-6828159I-50000J0D01*
G01*
X9061284Y-6828159D02*
G75*
G02*
X9161284Y-6828159I50000J0D01*
G01*
X9085245Y-6284930D02*
G75*
G02*
X8965245Y-6284930I-60000J0D01*
G01*
X8965245Y-6284930D02*
G75*
G02*
X9085245Y-6284930I60000J0D01*
G01*
X15910696Y-4442756D02*
G75*
G02*
X15810696Y-4442756I-50000J0D01*
G01*
X15810696Y-4442756D02*
G75*
G02*
X15910696Y-4442756I50000J0D01*
G01*
X15920696Y-3892756D02*
G75*
G02*
X15800695Y-3892756I-60001J0D01*
G01*
X15800695Y-3892756D02*
G75*
G02*
X15920696Y-3892756I60001J0D01*
G01*
X14750696Y-4442756D02*
G75*
G02*
X14650697Y-4442756I-50000J0D01*
G01*
X14650697Y-4442756D02*
G75*
G02*
X14750696Y-4442756I50000J0D01*
G01*
X14760696Y-3892755D02*
G75*
G02*
X14640696Y-3892755I-60000J0D01*
G01*
X14640696Y-3892755D02*
G75*
G02*
X14760696Y-3892755I60000J0D01*
G01*
X19310696Y-8642756D02*
G75*
G02*
X19210696Y-8642756I-50000J0D01*
G01*
X19210696Y-8642756D02*
G75*
G02*
X19310696Y-8642756I50000J0D01*
G01*
X19320696Y-8092756D02*
G75*
G02*
X19200695Y-8092756I-60001J0D01*
G01*
X19200695Y-8092756D02*
G75*
G02*
X19320696Y-8092756I60001J0D01*
G01*
X18150696Y-8642755D02*
G75*
G02*
X18050697Y-8642755I-50000J0D01*
G01*
X18050697Y-8642755D02*
G75*
G02*
X18150696Y-8642755I50000J0D01*
G01*
X18160696Y-8092755D02*
G75*
G02*
X18040696Y-8092755I-60000J0D01*
G01*
X18040696Y-8092755D02*
G75*
G02*
X18160696Y-8092755I60000J0D01*
G01*
X11986073Y-6380756D02*
G75*
G02*
X11886072Y-6380756I-50000J0D01*
G01*
X11886072Y-6380756D02*
G75*
G02*
X11986073Y-6380756I50000J0D01*
G01*
X11910034Y-5837527D02*
G75*
G02*
X11790033Y-5837527I-60000J0D01*
G01*
X11790033Y-5837527D02*
G75*
G02*
X11910034Y-5837527I60000J0D01*
G01*
X10840354Y-6562220D02*
G75*
G02*
X10740354Y-6562220I-50000J0D01*
G01*
X10740354Y-6562220D02*
G75*
G02*
X10840354Y-6562220I50000J0D01*
G01*
X10764315Y-6018991D02*
G75*
G02*
X10644315Y-6018991I-60000J0D01*
G01*
X10644315Y-6018991D02*
G75*
G02*
X10764315Y-6018991I60000J0D01*
G01*
X21222974Y-10654683D02*
G75*
G02*
X21102974Y-10654683I-60000J0D01*
G01*
X21102974Y-10654683D02*
G75*
G02*
X21222974Y-10654683I60000J0D01*
G01*
X21024862Y-11171514D02*
G75*
G02*
X20924863Y-11171514I-50000J0D01*
G01*
X20924863Y-11171514D02*
G75*
G02*
X21024862Y-11171514I50000J0D01*
G01*
X20132931Y-10257940D02*
G75*
G02*
X20012930Y-10257940I-60000J0D01*
G01*
X20012930Y-10257940D02*
G75*
G02*
X20132931Y-10257940I60000J0D01*
G01*
X19934819Y-10774771D02*
G75*
G02*
X19834821Y-10774771I-49999J0D01*
G01*
X19834821Y-10774771D02*
G75*
G02*
X19934819Y-10774771I49999J0D01*
G01*
X15910696Y-7842756D02*
G75*
G02*
X15810696Y-7842756I-50000J0D01*
G01*
X15810696Y-7842756D02*
G75*
G02*
X15910696Y-7842756I50000J0D01*
G01*
X15920696Y-7292756D02*
G75*
G02*
X15800695Y-7292756I-60001J0D01*
G01*
X15800695Y-7292756D02*
G75*
G02*
X15920696Y-7292756I60001J0D01*
G01*
X14750696Y-7842755D02*
G75*
G02*
X14650697Y-7842755I-50000J0D01*
G01*
X14650697Y-7842755D02*
G75*
G02*
X14750696Y-7842755I50000J0D01*
G01*
X14760696Y-7292755D02*
G75*
G02*
X14640696Y-7292755I-60000J0D01*
G01*
X14640696Y-7292755D02*
G75*
G02*
X14760696Y-7292755I60000J0D01*
G01*
D10*
X21180696Y-4720906D02*
G75*
G02*
X21180696Y-4630906I-1J45000D01*
G01*
X21180696Y-4911407D02*
G75*
G02*
X21180696Y-4821405I0J45001D01*
G01*
X20802196Y-4085906D02*
G75*
G02*
X20802196Y-3995906I0J45000D01*
G01*
X20802196Y-4339906D02*
G75*
G02*
X20802196Y-4249906I1J45000D01*
G01*
X20548196Y-3995906D02*
G75*
G02*
X20548196Y-4085906I0J-45000D01*
G01*
X20548196Y-4249906D02*
G75*
G02*
X20548196Y-4339906I0J-45000D01*
G01*
X20180696Y-4630906D02*
G75*
G02*
X20180696Y-4720906I-1J-45000D01*
G01*
X20180696Y-4821406D02*
G75*
G02*
X20180696Y-4911406I0J-45000D01*
G01*
X21180696Y-4957756D02*
X21180696Y-4911407D01*
X21180696Y-4630906D02*
X21180696Y-4587756D01*
X21180696Y-4587756D02*
X20880696Y-4587756D01*
X21180696Y-4821406D02*
X21180696Y-4720906D01*
X20880696Y-4587756D02*
X20880696Y-4957756D01*
X20880696Y-4957756D02*
X21180696Y-4957756D01*
X20802196Y-4085906D02*
X20802196Y-4249906D01*
X20802196Y-4339906D02*
X20548196Y-4339906D01*
X20548196Y-3995906D02*
X20802196Y-3995906D01*
X20548196Y-4249906D02*
X20548196Y-4085906D01*
X20480696Y-4587756D02*
X20480696Y-4957756D01*
X20480696Y-4957756D02*
X20180696Y-4957756D01*
X20180696Y-4587756D02*
X20480696Y-4587756D01*
X20180696Y-4957756D02*
X20180696Y-4911406D01*
X20180696Y-4630906D02*
X20180696Y-4587756D01*
X20180696Y-4821406D02*
X20180696Y-4720906D01*
D12*
X10838881Y-10004835D02*
G75*
G02*
X10738880Y-10004835I-50000J0D01*
G01*
X10738880Y-10004835D02*
G75*
G02*
X10838881Y-10004835I50000J0D01*
G01*
X10762841Y-9461606D02*
G75*
G02*
X10642840Y-9461606I-60000J0D01*
G01*
X10642840Y-9461606D02*
G75*
G02*
X10762841Y-9461606I60000J0D01*
G01*
X9693162Y-10186299D02*
G75*
G02*
X9593162Y-10186299I-50000J0D01*
G01*
X9593162Y-10186299D02*
G75*
G02*
X9693162Y-10186299I50000J0D01*
G01*
X9617122Y-9643070D02*
G75*
G02*
X9497122Y-9643070I-60000J0D01*
G01*
X9497122Y-9643070D02*
G75*
G02*
X9617122Y-9643070I60000J0D01*
G01*
X12252012Y-8059826D02*
G75*
G02*
X12152012Y-8059826I-50000J0D01*
G01*
X12152012Y-8059826D02*
G75*
G02*
X12252012Y-8059826I50000J0D01*
G01*
X12175973Y-7516598D02*
G75*
G02*
X12055972Y-7516598I-60000J0D01*
G01*
X12055972Y-7516598D02*
G75*
G02*
X12175973Y-7516598I60000J0D01*
G01*
X11106293Y-8241290D02*
G75*
G02*
X11006293Y-8241290I-50000J0D01*
G01*
X11006293Y-8241290D02*
G75*
G02*
X11106293Y-8241290I50000J0D01*
G01*
X11030254Y-7698061D02*
G75*
G02*
X10910254Y-7698061I-60000J0D01*
G01*
X10910254Y-7698061D02*
G75*
G02*
X11030254Y-7698061I60000J0D01*
G01*
X19316426Y-10050185D02*
G75*
G02*
X19196426Y-10050185I-60000J0D01*
G01*
X19196426Y-10050185D02*
G75*
G02*
X19316426Y-10050185I60000J0D01*
G01*
X19258490Y-10598092D02*
G75*
G02*
X19158490Y-10598092I-50000J0D01*
G01*
X19158490Y-10598092D02*
G75*
G02*
X19258490Y-10598092I50000J0D01*
G01*
X18160839Y-9949085D02*
G75*
G02*
X18040840Y-9949085I-60000J0D01*
G01*
X18040840Y-9949085D02*
G75*
G02*
X18160839Y-9949085I60000J0D01*
G01*
X18102904Y-10496992D02*
G75*
G02*
X18002904Y-10496992I-50000J0D01*
G01*
X18002904Y-10496992D02*
G75*
G02*
X18102904Y-10496992I50000J0D01*
G01*
D13*
D12*
X9302395Y-6228720D02*
X9332395Y-6258720D01*
X9332395Y-6228720D02*
X9302395Y-6258720D01*
X9568334Y-7907791D02*
X9598334Y-7937791D01*
X9598334Y-7907791D02*
X9568334Y-7937791D01*
X9834272Y-9586861D02*
X9864272Y-9616861D01*
X9864272Y-9586861D02*
X9834272Y-9616861D01*
X9865378Y-6139553D02*
X9895378Y-6169553D01*
X9895378Y-6139553D02*
X9865378Y-6169553D01*
X10131317Y-7818623D02*
X10161317Y-7848623D01*
X10161317Y-7818623D02*
X10131317Y-7848623D01*
X10397255Y-9497694D02*
X10427255Y-9527694D01*
X10427255Y-9497694D02*
X10397255Y-9527694D01*
X10981465Y-5962782D02*
X11011465Y-5992782D01*
X11011465Y-5962782D02*
X10981465Y-5992782D01*
X11247404Y-7641852D02*
X11277404Y-7671852D01*
X11277404Y-7641852D02*
X11247404Y-7671852D01*
X11513343Y-9320922D02*
X11543343Y-9350922D01*
X11543343Y-9320922D02*
X11513343Y-9350922D01*
X11544448Y-5873614D02*
X11574448Y-5903614D01*
X11574448Y-5873614D02*
X11544448Y-5903614D01*
X11810387Y-7552684D02*
X11840387Y-7582684D01*
X11840387Y-7552684D02*
X11810387Y-7582684D01*
X12076325Y-9231755D02*
X12106325Y-9261755D01*
X12106325Y-9231755D02*
X12076325Y-9261755D01*
X12964647Y-4535920D02*
X12994647Y-4565920D01*
X12994647Y-4535920D02*
X12964647Y-4565920D01*
X13083233Y-6231779D02*
X13113233Y-6261779D01*
X13113233Y-6231779D02*
X13083233Y-6261779D01*
X13201819Y-7927637D02*
X13231819Y-7957637D01*
X13231819Y-7927637D02*
X13201819Y-7957637D01*
X13533258Y-4496159D02*
X13563258Y-4526159D01*
X13563258Y-4496159D02*
X13533258Y-4526159D01*
X13651845Y-6192017D02*
X13681845Y-6222017D01*
X13681845Y-6192017D02*
X13651845Y-6222017D01*
X13770431Y-7887877D02*
X13800431Y-7917877D01*
X13800431Y-7887877D02*
X13770431Y-7917877D01*
X14980696Y-7282756D02*
X15010696Y-7312756D01*
X15010696Y-7282756D02*
X14980696Y-7312756D01*
X14980696Y-3882756D02*
X15010696Y-3912756D01*
X15010696Y-3882756D02*
X14980696Y-3912756D01*
X14980696Y-5582756D02*
X15010696Y-5612756D01*
X15010696Y-5582756D02*
X14980696Y-5612756D01*
X15550696Y-5582756D02*
X15580696Y-5612756D01*
X15580696Y-5582756D02*
X15550696Y-5612756D01*
X15550696Y-3882756D02*
X15580696Y-3912756D01*
X15580696Y-3882756D02*
X15550696Y-3912756D01*
X15550696Y-7282756D02*
X15580696Y-7312756D01*
X15580696Y-7282756D02*
X15550696Y-7312756D01*
X16580696Y-9882756D02*
X16610696Y-9912756D01*
X16610696Y-9882756D02*
X16580696Y-9912756D01*
X16680696Y-7882756D02*
X16710696Y-7912756D01*
X16710696Y-7882756D02*
X16680696Y-7912756D01*
X16680696Y-4482756D02*
X16710696Y-4512756D01*
X16710696Y-4482756D02*
X16680696Y-4512756D01*
X16680696Y-6182756D02*
X16710696Y-6212756D01*
X16710696Y-6182756D02*
X16680696Y-6212756D01*
X16785000Y-4177000D02*
X16815000Y-4207000D01*
X16815000Y-4177000D02*
X16785000Y-4207000D01*
X16846000Y-4118000D02*
X16876000Y-4148000D01*
X16876000Y-4118000D02*
X16846000Y-4148000D01*
X17150696Y-9882756D02*
X17180696Y-9912756D01*
X17180696Y-9882756D02*
X17150696Y-9912756D01*
X17250696Y-6182756D02*
X17280696Y-6212756D01*
X17280696Y-6182756D02*
X17250696Y-6212756D01*
X17250696Y-7882756D02*
X17280696Y-7912756D01*
X17280696Y-7882756D02*
X17250696Y-7912756D01*
X17250696Y-4482756D02*
X17280696Y-4512756D01*
X17280696Y-4482756D02*
X17250696Y-4512756D01*
X18307000Y-5227000D02*
X18337000Y-5257000D01*
X18337000Y-5227000D02*
X18307000Y-5257000D01*
X18379282Y-9964776D02*
X18409282Y-9994776D01*
X18409282Y-9964776D02*
X18379282Y-9994776D01*
X18380696Y-8082756D02*
X18410696Y-8112756D01*
X18410696Y-8082756D02*
X18380696Y-8112756D01*
X18380696Y-4682756D02*
X18410696Y-4712756D01*
X18410696Y-4682756D02*
X18380696Y-4712756D01*
X18380696Y-6382756D02*
X18410696Y-6412756D01*
X18410696Y-6382756D02*
X18380696Y-6412756D01*
X18479000Y-4892000D02*
X18509000Y-4922000D01*
X18509000Y-4892000D02*
X18479000Y-4922000D01*
X18483000Y-4811000D02*
X18513000Y-4841000D01*
X18513000Y-4811000D02*
X18483000Y-4841000D01*
X18483500Y-4981500D02*
X18513500Y-5011500D01*
X18513500Y-4981500D02*
X18483500Y-5011500D01*
X18941000Y-4810000D02*
X18971000Y-4840000D01*
X18971000Y-4810000D02*
X18941000Y-4840000D01*
X18942000Y-4898000D02*
X18972000Y-4928000D01*
X18972000Y-4898000D02*
X18942000Y-4928000D01*
X18945000Y-4989000D02*
X18975000Y-5019000D01*
X18975000Y-4989000D02*
X18945000Y-5019000D01*
X18947113Y-10014455D02*
X18977113Y-10044455D01*
X18977113Y-10014455D02*
X18947113Y-10044455D01*
X18950696Y-8082755D02*
X18980696Y-8112755D01*
X18980696Y-8082755D02*
X18950696Y-8112755D01*
X18950696Y-6382756D02*
X18980696Y-6412756D01*
X18980696Y-6382756D02*
X18950696Y-6412756D01*
X18950697Y-4682756D02*
X18980697Y-4712756D01*
X18980697Y-4682756D02*
X18950697Y-4712756D01*
X19321000Y-5114000D02*
X19351000Y-5144000D01*
X19351000Y-5114000D02*
X19321000Y-5144000D01*
X19412000Y-5087000D02*
X19442000Y-5117000D01*
X19442000Y-5087000D02*
X19412000Y-5117000D01*
X20051000Y-4752000D02*
X20081000Y-4782000D01*
X20081000Y-4752000D02*
X20051000Y-4782000D01*
X20068000Y-5644000D02*
X20098000Y-5674000D01*
X20098000Y-5644000D02*
X20068000Y-5674000D01*
X20069000Y-5397000D02*
X20099000Y-5427000D01*
X20099000Y-5397000D02*
X20069000Y-5427000D01*
X20072000Y-5143000D02*
X20102000Y-5173000D01*
X20102000Y-5143000D02*
X20072000Y-5173000D01*
X20080000Y-4046000D02*
X20110000Y-4076000D01*
X20110000Y-4046000D02*
X20080000Y-4076000D01*
X20185000Y-4321000D02*
X20215000Y-4351000D01*
X20215000Y-4321000D02*
X20185000Y-4351000D01*
X20193000Y-5068000D02*
X20223000Y-5098000D01*
X20223000Y-5068000D02*
X20193000Y-5098000D01*
X20196000Y-4411000D02*
X20226000Y-4441000D01*
X20226000Y-4411000D02*
X20196000Y-4441000D01*
X20333430Y-10348534D02*
X20363430Y-10378534D01*
X20363430Y-10348534D02*
X20333430Y-10378534D01*
X20869055Y-10543485D02*
X20899055Y-10573485D01*
X20899055Y-10543485D02*
X20869055Y-10573485D01*
X21040000Y-5081000D02*
X21070000Y-5111000D01*
X21070000Y-5081000D02*
X21040000Y-5111000D01*
X21256000Y-5397000D02*
X21286000Y-5427000D01*
X21286000Y-5397000D02*
X21256000Y-5427000D01*
X21260000Y-5135000D02*
X21290000Y-5165000D01*
X21290000Y-5135000D02*
X21260000Y-5165000D01*
X21261000Y-5652000D02*
X21291000Y-5682000D01*
X21291000Y-5652000D02*
X21261000Y-5682000D01*
X21261000Y-4488000D02*
X21291000Y-4518000D01*
X21291000Y-4488000D02*
X21261000Y-4518000D01*
X21479000Y-3981000D02*
X21509000Y-4011000D01*
X21509000Y-3981000D02*
X21479000Y-4011000D01*
X20020500Y-6087000D02*
G75*
G02*
X19945500Y-6087000I-37500J0D01*
G01*
X19945500Y-6087000D02*
G75*
G02*
X20020500Y-6087000I37500J0D01*
G01*
X20220500Y-6087000D02*
G75*
G02*
X20145500Y-6087000I-37500J0D01*
G01*
X20145500Y-6087000D02*
G75*
G02*
X20220500Y-6087000I37500J0D01*
G01*
X9534426Y-6701015D02*
X9534426Y-6801015D01*
X9484426Y-6751015D02*
X9584426Y-6751015D01*
X9800365Y-8380085D02*
X9800365Y-8480085D01*
X9750365Y-8430085D02*
X9850365Y-8430085D01*
X9830732Y-6654085D02*
X9830732Y-6754085D01*
X9780732Y-6704085D02*
X9880732Y-6704085D01*
X10066303Y-10059155D02*
X10066303Y-10159155D01*
X10016303Y-10109155D02*
X10116303Y-10109155D01*
X10096671Y-8333155D02*
X10096671Y-8433155D01*
X10046671Y-8383155D02*
X10146671Y-8383155D01*
X10362610Y-10012225D02*
X10362610Y-10112225D01*
X10312610Y-10062225D02*
X10412610Y-10062225D01*
X11213496Y-6435076D02*
X11213496Y-6535076D01*
X11163496Y-6485076D02*
X11263496Y-6485076D01*
X11415562Y-4942671D02*
X11415562Y-5042671D01*
X11365562Y-4992671D02*
X11465562Y-4992671D01*
X11479435Y-8114146D02*
X11479435Y-8214146D01*
X11429435Y-8164146D02*
X11529435Y-8164146D01*
X11509802Y-6388146D02*
X11509802Y-6488146D01*
X11459802Y-6438146D02*
X11559802Y-6438146D01*
X11745373Y-9793217D02*
X11745373Y-9893217D01*
X11695373Y-9843217D02*
X11795373Y-9843217D01*
X11775741Y-8067216D02*
X11775741Y-8167216D01*
X11725741Y-8117216D02*
X11825741Y-8117216D01*
X11934676Y-4551491D02*
X11934676Y-4651491D01*
X11884676Y-4601491D02*
X11984676Y-4601491D01*
X12041679Y-9746287D02*
X12041679Y-9846287D01*
X11991679Y-9796287D02*
X12091679Y-9796287D01*
X13151637Y-5025200D02*
X13151637Y-5125200D01*
X13101637Y-5075200D02*
X13201637Y-5075200D01*
X13270224Y-6721058D02*
X13270224Y-6821058D01*
X13220224Y-6771058D02*
X13320224Y-6771058D01*
X13388810Y-8416918D02*
X13388810Y-8516918D01*
X13338810Y-8466918D02*
X13438810Y-8466918D01*
X13450907Y-5004273D02*
X13450907Y-5104273D01*
X13400907Y-5054273D02*
X13500907Y-5054273D01*
X13569494Y-6700132D02*
X13569494Y-6800132D01*
X13519494Y-6750132D02*
X13619494Y-6750132D01*
X13688079Y-8395991D02*
X13688079Y-8495991D01*
X13638079Y-8445991D02*
X13738079Y-8445991D01*
X15130696Y-6082756D02*
X15130696Y-6182756D01*
X15080696Y-6132756D02*
X15180696Y-6132756D01*
X15130696Y-4382756D02*
X15130696Y-4482756D01*
X15080696Y-4432756D02*
X15180696Y-4432756D01*
X15130696Y-7782756D02*
X15130696Y-7882756D01*
X15080696Y-7832756D02*
X15180696Y-7832756D01*
X15430696Y-6082756D02*
X15430696Y-6182756D01*
X15380696Y-6132756D02*
X15480696Y-6132756D01*
X15430696Y-4382756D02*
X15430696Y-4482756D01*
X15380696Y-4432756D02*
X15480696Y-4432756D01*
X15430696Y-7782756D02*
X15430696Y-7882756D01*
X15380696Y-7832756D02*
X15480696Y-7832756D01*
X16730696Y-10382756D02*
X16730696Y-10482756D01*
X16680696Y-10432756D02*
X16780696Y-10432756D01*
X16830696Y-8382756D02*
X16830696Y-8482756D01*
X16780696Y-8432756D02*
X16880696Y-8432756D01*
X16830696Y-6682756D02*
X16830696Y-6782756D01*
X16780696Y-6732756D02*
X16880696Y-6732756D01*
X16830696Y-4982756D02*
X16830696Y-5082756D01*
X16780696Y-5032756D02*
X16880696Y-5032756D01*
X17030696Y-10382756D02*
X17030696Y-10482756D01*
X16980696Y-10432756D02*
X17080696Y-10432756D01*
X17130696Y-8382756D02*
X17130696Y-8482756D01*
X17080696Y-8432756D02*
X17180696Y-8432756D01*
X17130696Y-6682757D02*
X17130696Y-6782757D01*
X17080696Y-6732757D02*
X17180696Y-6732757D01*
X17130696Y-4982756D02*
X17130696Y-5082756D01*
X17080696Y-5032756D02*
X17180696Y-5032756D01*
X18482139Y-10474507D02*
X18482139Y-10574507D01*
X18432139Y-10524507D02*
X18532139Y-10524507D01*
X18530696Y-8582756D02*
X18530696Y-8682756D01*
X18480696Y-8632756D02*
X18580696Y-8632756D01*
X18530696Y-5182756D02*
X18530696Y-5282756D01*
X18480696Y-5232756D02*
X18580696Y-5232756D01*
X18530696Y-6882756D02*
X18530696Y-6982756D01*
X18480696Y-6932756D02*
X18580696Y-6932756D01*
X18780998Y-10500653D02*
X18780998Y-10600653D01*
X18730998Y-10550653D02*
X18830998Y-10550653D01*
X18830696Y-8582756D02*
X18830696Y-8682756D01*
X18780696Y-8632756D02*
X18880696Y-8632756D01*
X18830696Y-5182756D02*
X18830696Y-5282756D01*
X18780696Y-5232756D02*
X18880696Y-5232756D01*
X18830697Y-6882756D02*
X18830697Y-6982756D01*
X18780697Y-6932756D02*
X18880697Y-6932756D01*
X20180696Y-4625906D02*
X20180696Y-4725906D01*
X20130696Y-4675906D02*
X20230696Y-4675906D01*
X20180696Y-4816406D02*
X20180696Y-4916406D01*
X20130696Y-4866406D02*
X20230696Y-4866406D01*
X20292307Y-10862442D02*
X20292307Y-10962442D01*
X20242307Y-10912442D02*
X20342307Y-10912442D01*
X20548196Y-3990906D02*
X20548196Y-4090906D01*
X20498196Y-4040906D02*
X20598196Y-4040906D01*
X20548196Y-4244906D02*
X20548196Y-4344906D01*
X20498196Y-4294906D02*
X20598196Y-4294906D01*
X20574216Y-10965048D02*
X20574216Y-11065048D01*
X20524216Y-11015048D02*
X20624216Y-11015048D01*
X20802195Y-4244906D02*
X20802195Y-4344906D01*
X20752195Y-4294906D02*
X20852195Y-4294906D01*
X20802196Y-3990906D02*
X20802196Y-4090906D01*
X20752196Y-4040906D02*
X20852196Y-4040906D01*
X21180696Y-4816405D02*
X21180696Y-4916405D01*
X21130696Y-4866405D02*
X21230696Y-4866405D01*
X21180696Y-4625906D02*
X21180696Y-4725906D01*
X21130696Y-4675906D02*
X21230696Y-4675906D01*
D13*
X8786926Y-12212810D02*
X8786926Y-12012810D01*
X8786926Y-12012810D02*
X8834545Y-12012810D01*
X8834545Y-12012810D02*
X8863116Y-12022334D01*
X8863116Y-12022334D02*
X8882164Y-12041382D01*
X8882164Y-12041382D02*
X8891687Y-12060429D01*
X8891687Y-12060429D02*
X8901211Y-12098524D01*
X8901211Y-12098524D02*
X8901211Y-12127096D01*
X8901211Y-12127096D02*
X8891687Y-12165191D01*
X8891687Y-12165191D02*
X8882164Y-12184239D01*
X8882164Y-12184239D02*
X8863116Y-12203286D01*
X8863116Y-12203286D02*
X8834545Y-12212810D01*
X8834545Y-12212810D02*
X8786926Y-12212810D01*
X8986926Y-12212810D02*
X8986926Y-12079477D01*
X8986926Y-12117572D02*
X8996449Y-12098524D01*
X8996449Y-12098524D02*
X9005973Y-12089001D01*
X9005973Y-12089001D02*
X9025021Y-12079477D01*
X9025021Y-12079477D02*
X9044068Y-12079477D01*
X9110735Y-12212810D02*
X9110735Y-12079477D01*
X9110735Y-12012810D02*
X9101211Y-12022334D01*
X9101211Y-12022334D02*
X9110735Y-12031858D01*
X9110735Y-12031858D02*
X9120259Y-12022334D01*
X9120259Y-12022334D02*
X9110735Y-12012810D01*
X9110735Y-12012810D02*
X9110735Y-12031858D01*
X9234545Y-12212810D02*
X9215497Y-12203286D01*
X9215497Y-12203286D02*
X9205973Y-12184239D01*
X9205973Y-12184239D02*
X9205973Y-12012810D01*
X9339306Y-12212810D02*
X9320259Y-12203286D01*
X9320259Y-12203286D02*
X9310735Y-12184239D01*
X9310735Y-12184239D02*
X9310735Y-12012810D01*
X9567878Y-12212810D02*
X9567878Y-12012810D01*
X9567878Y-12012810D02*
X9634545Y-12155667D01*
X9634545Y-12155667D02*
X9701211Y-12012810D01*
X9701211Y-12012810D02*
X9701211Y-12212810D01*
X9882164Y-12212810D02*
X9882164Y-12108048D01*
X9882164Y-12108048D02*
X9872640Y-12089001D01*
X9872640Y-12089001D02*
X9853592Y-12079477D01*
X9853592Y-12079477D02*
X9815497Y-12079477D01*
X9815497Y-12079477D02*
X9796449Y-12089001D01*
X9882164Y-12203286D02*
X9863116Y-12212810D01*
X9863116Y-12212810D02*
X9815497Y-12212810D01*
X9815497Y-12212810D02*
X9796449Y-12203286D01*
X9796449Y-12203286D02*
X9786926Y-12184239D01*
X9786926Y-12184239D02*
X9786926Y-12165191D01*
X9786926Y-12165191D02*
X9796449Y-12146144D01*
X9796449Y-12146144D02*
X9815497Y-12136620D01*
X9815497Y-12136620D02*
X9863116Y-12136620D01*
X9863116Y-12136620D02*
X9882164Y-12127096D01*
X9977402Y-12079477D02*
X9977402Y-12279477D01*
X9977402Y-12089001D02*
X9996449Y-12079477D01*
X9996449Y-12079477D02*
X10034545Y-12079477D01*
X10034545Y-12079477D02*
X10053592Y-12089001D01*
X10053592Y-12089001D02*
X10063116Y-12098524D01*
X10063116Y-12098524D02*
X10072640Y-12117572D01*
X10072640Y-12117572D02*
X10072640Y-12174715D01*
X10072640Y-12174715D02*
X10063116Y-12193763D01*
X10063116Y-12193763D02*
X10053592Y-12203286D01*
X10053592Y-12203286D02*
X10034545Y-12212810D01*
X10034545Y-12212810D02*
X9996449Y-12212810D01*
X9996449Y-12212810D02*
X9977402Y-12203286D01*
X10158354Y-12193763D02*
X10167878Y-12203286D01*
X10167878Y-12203286D02*
X10158354Y-12212810D01*
X10158354Y-12212810D02*
X10148830Y-12203286D01*
X10148830Y-12203286D02*
X10158354Y-12193763D01*
X10158354Y-12193763D02*
X10158354Y-12212810D01*
X10158354Y-12089001D02*
X10167878Y-12098524D01*
X10167878Y-12098524D02*
X10158354Y-12108048D01*
X10158354Y-12108048D02*
X10148830Y-12098524D01*
X10148830Y-12098524D02*
X10158354Y-12089001D01*
X10158354Y-12089001D02*
X10158354Y-12108048D01*
D12*
X8496149Y-12526326D02*
X8526149Y-12556326D01*
X8526149Y-12526326D02*
X8496149Y-12556326D01*
D13*
X8825021Y-12432810D02*
X8844068Y-12432810D01*
X8844068Y-12432810D02*
X8863116Y-12442334D01*
X8863116Y-12442334D02*
X8872640Y-12451858D01*
X8872640Y-12451858D02*
X8882164Y-12470905D01*
X8882164Y-12470905D02*
X8891687Y-12509001D01*
X8891687Y-12509001D02*
X8891687Y-12556620D01*
X8891687Y-12556620D02*
X8882164Y-12594715D01*
X8882164Y-12594715D02*
X8872640Y-12613763D01*
X8872640Y-12613763D02*
X8863116Y-12623286D01*
X8863116Y-12623286D02*
X8844068Y-12632810D01*
X8844068Y-12632810D02*
X8825021Y-12632810D01*
X8825021Y-12632810D02*
X8805973Y-12623286D01*
X8805973Y-12623286D02*
X8796449Y-12613763D01*
X8796449Y-12613763D02*
X8786926Y-12594715D01*
X8786926Y-12594715D02*
X8777402Y-12556620D01*
X8777402Y-12556620D02*
X8777402Y-12509001D01*
X8777402Y-12509001D02*
X8786926Y-12470905D01*
X8786926Y-12470905D02*
X8796449Y-12451858D01*
X8796449Y-12451858D02*
X8805973Y-12442334D01*
X8805973Y-12442334D02*
X8825021Y-12432810D01*
X8977402Y-12613763D02*
X8986926Y-12623286D01*
X8986926Y-12623286D02*
X8977402Y-12632810D01*
X8977402Y-12632810D02*
X8967878Y-12623286D01*
X8967878Y-12623286D02*
X8977402Y-12613763D01*
X8977402Y-12613763D02*
X8977402Y-12632810D01*
X9053592Y-12432810D02*
X9177402Y-12432810D01*
X9177402Y-12432810D02*
X9110735Y-12509001D01*
X9110735Y-12509001D02*
X9139307Y-12509001D01*
X9139307Y-12509001D02*
X9158354Y-12518524D01*
X9158354Y-12518524D02*
X9167878Y-12528048D01*
X9167878Y-12528048D02*
X9177402Y-12547096D01*
X9177402Y-12547096D02*
X9177402Y-12594715D01*
X9177402Y-12594715D02*
X9167878Y-12613763D01*
X9167878Y-12613763D02*
X9158354Y-12623286D01*
X9158354Y-12623286D02*
X9139307Y-12632810D01*
X9139307Y-12632810D02*
X9082164Y-12632810D01*
X9082164Y-12632810D02*
X9063116Y-12623286D01*
X9063116Y-12623286D02*
X9053592Y-12613763D01*
X9301211Y-12432810D02*
X9320259Y-12432810D01*
X9320259Y-12432810D02*
X9339307Y-12442334D01*
X9339307Y-12442334D02*
X9348830Y-12451858D01*
X9348830Y-12451858D02*
X9358354Y-12470905D01*
X9358354Y-12470905D02*
X9367878Y-12509001D01*
X9367878Y-12509001D02*
X9367878Y-12556620D01*
X9367878Y-12556620D02*
X9358354Y-12594715D01*
X9358354Y-12594715D02*
X9348830Y-12613763D01*
X9348830Y-12613763D02*
X9339307Y-12623286D01*
X9339307Y-12623286D02*
X9320259Y-12632810D01*
X9320259Y-12632810D02*
X9301211Y-12632810D01*
X9301211Y-12632810D02*
X9282164Y-12623286D01*
X9282164Y-12623286D02*
X9272640Y-12613763D01*
X9272640Y-12613763D02*
X9263116Y-12594715D01*
X9263116Y-12594715D02*
X9253592Y-12556620D01*
X9253592Y-12556620D02*
X9253592Y-12509001D01*
X9253592Y-12509001D02*
X9263116Y-12470905D01*
X9263116Y-12470905D02*
X9272640Y-12451858D01*
X9272640Y-12451858D02*
X9282164Y-12442334D01*
X9282164Y-12442334D02*
X9301211Y-12432810D01*
X9491687Y-12432810D02*
X9510735Y-12432810D01*
X9510735Y-12432810D02*
X9529783Y-12442334D01*
X9529783Y-12442334D02*
X9539307Y-12451858D01*
X9539307Y-12451858D02*
X9548830Y-12470905D01*
X9548830Y-12470905D02*
X9558354Y-12509001D01*
X9558354Y-12509001D02*
X9558354Y-12556620D01*
X9558354Y-12556620D02*
X9548830Y-12594715D01*
X9548830Y-12594715D02*
X9539307Y-12613763D01*
X9539307Y-12613763D02*
X9529783Y-12623286D01*
X9529783Y-12623286D02*
X9510735Y-12632810D01*
X9510735Y-12632810D02*
X9491687Y-12632810D01*
X9491687Y-12632810D02*
X9472640Y-12623286D01*
X9472640Y-12623286D02*
X9463116Y-12613763D01*
X9463116Y-12613763D02*
X9453592Y-12594715D01*
X9453592Y-12594715D02*
X9444068Y-12556620D01*
X9444068Y-12556620D02*
X9444068Y-12509001D01*
X9444068Y-12509001D02*
X9453592Y-12470905D01*
X9453592Y-12470905D02*
X9463116Y-12451858D01*
X9463116Y-12451858D02*
X9472640Y-12442334D01*
X9472640Y-12442334D02*
X9491687Y-12432810D01*
X9644068Y-12632810D02*
X9644068Y-12499477D01*
X9644068Y-12518524D02*
X9653592Y-12509001D01*
X9653592Y-12509001D02*
X9672640Y-12499477D01*
X9672640Y-12499477D02*
X9701211Y-12499477D01*
X9701211Y-12499477D02*
X9720259Y-12509001D01*
X9720259Y-12509001D02*
X9729783Y-12528048D01*
X9729783Y-12528048D02*
X9729783Y-12632810D01*
X9729783Y-12528048D02*
X9739307Y-12509001D01*
X9739307Y-12509001D02*
X9758354Y-12499477D01*
X9758354Y-12499477D02*
X9786926Y-12499477D01*
X9786926Y-12499477D02*
X9805973Y-12509001D01*
X9805973Y-12509001D02*
X9815497Y-12528048D01*
X9815497Y-12528048D02*
X9815497Y-12632810D01*
X9910735Y-12632810D02*
X9910735Y-12499477D01*
X9910735Y-12518524D02*
X9920259Y-12509001D01*
X9920259Y-12509001D02*
X9939307Y-12499477D01*
X9939307Y-12499477D02*
X9967878Y-12499477D01*
X9967878Y-12499477D02*
X9986926Y-12509001D01*
X9986926Y-12509001D02*
X9996449Y-12528048D01*
X9996449Y-12528048D02*
X9996449Y-12632810D01*
X9996449Y-12528048D02*
X10005973Y-12509001D01*
X10005973Y-12509001D02*
X10025021Y-12499477D01*
X10025021Y-12499477D02*
X10053592Y-12499477D01*
X10053592Y-12499477D02*
X10072640Y-12509001D01*
X10072640Y-12509001D02*
X10082164Y-12528048D01*
X10082164Y-12528048D02*
X10082164Y-12632810D01*
X10472640Y-12423286D02*
X10301211Y-12680429D01*
X10729783Y-12432810D02*
X10748831Y-12432810D01*
X10748831Y-12432810D02*
X10767878Y-12442334D01*
X10767878Y-12442334D02*
X10777402Y-12451858D01*
X10777402Y-12451858D02*
X10786926Y-12470905D01*
X10786926Y-12470905D02*
X10796450Y-12509001D01*
X10796450Y-12509001D02*
X10796450Y-12556620D01*
X10796450Y-12556620D02*
X10786926Y-12594715D01*
X10786926Y-12594715D02*
X10777402Y-12613763D01*
X10777402Y-12613763D02*
X10767878Y-12623286D01*
X10767878Y-12623286D02*
X10748831Y-12632810D01*
X10748831Y-12632810D02*
X10729783Y-12632810D01*
X10729783Y-12632810D02*
X10710735Y-12623286D01*
X10710735Y-12623286D02*
X10701211Y-12613763D01*
X10701211Y-12613763D02*
X10691688Y-12594715D01*
X10691688Y-12594715D02*
X10682164Y-12556620D01*
X10682164Y-12556620D02*
X10682164Y-12509001D01*
X10682164Y-12509001D02*
X10691688Y-12470905D01*
X10691688Y-12470905D02*
X10701211Y-12451858D01*
X10701211Y-12451858D02*
X10710735Y-12442334D01*
X10710735Y-12442334D02*
X10729783Y-12432810D01*
X10882164Y-12613763D02*
X10891688Y-12623286D01*
X10891688Y-12623286D02*
X10882164Y-12632810D01*
X10882164Y-12632810D02*
X10872640Y-12623286D01*
X10872640Y-12623286D02*
X10882164Y-12613763D01*
X10882164Y-12613763D02*
X10882164Y-12632810D01*
X11015497Y-12432810D02*
X11034545Y-12432810D01*
X11034545Y-12432810D02*
X11053592Y-12442334D01*
X11053592Y-12442334D02*
X11063116Y-12451858D01*
X11063116Y-12451858D02*
X11072640Y-12470905D01*
X11072640Y-12470905D02*
X11082164Y-12509001D01*
X11082164Y-12509001D02*
X11082164Y-12556620D01*
X11082164Y-12556620D02*
X11072640Y-12594715D01*
X11072640Y-12594715D02*
X11063116Y-12613763D01*
X11063116Y-12613763D02*
X11053592Y-12623286D01*
X11053592Y-12623286D02*
X11034545Y-12632810D01*
X11034545Y-12632810D02*
X11015497Y-12632810D01*
X11015497Y-12632810D02*
X10996450Y-12623286D01*
X10996450Y-12623286D02*
X10986926Y-12613763D01*
X10986926Y-12613763D02*
X10977402Y-12594715D01*
X10977402Y-12594715D02*
X10967878Y-12556620D01*
X10967878Y-12556620D02*
X10967878Y-12509001D01*
X10967878Y-12509001D02*
X10977402Y-12470905D01*
X10977402Y-12470905D02*
X10986926Y-12451858D01*
X10986926Y-12451858D02*
X10996450Y-12442334D01*
X10996450Y-12442334D02*
X11015497Y-12432810D01*
X11272640Y-12632810D02*
X11158354Y-12632810D01*
X11215497Y-12632810D02*
X11215497Y-12432810D01*
X11215497Y-12432810D02*
X11196449Y-12461382D01*
X11196449Y-12461382D02*
X11177402Y-12480429D01*
X11177402Y-12480429D02*
X11158354Y-12489953D01*
X11463116Y-12632810D02*
X11348830Y-12632810D01*
X11405973Y-12632810D02*
X11405973Y-12432810D01*
X11405973Y-12432810D02*
X11386926Y-12461382D01*
X11386926Y-12461382D02*
X11367878Y-12480429D01*
X11367878Y-12480429D02*
X11348830Y-12489953D01*
X11577402Y-12518524D02*
X11558354Y-12509001D01*
X11558354Y-12509001D02*
X11548830Y-12499477D01*
X11548830Y-12499477D02*
X11539307Y-12480429D01*
X11539307Y-12480429D02*
X11539307Y-12470905D01*
X11539307Y-12470905D02*
X11548830Y-12451858D01*
X11548830Y-12451858D02*
X11558354Y-12442334D01*
X11558354Y-12442334D02*
X11577402Y-12432810D01*
X11577402Y-12432810D02*
X11615497Y-12432810D01*
X11615497Y-12432810D02*
X11634545Y-12442334D01*
X11634545Y-12442334D02*
X11644069Y-12451858D01*
X11644069Y-12451858D02*
X11653592Y-12470905D01*
X11653592Y-12470905D02*
X11653592Y-12480429D01*
X11653592Y-12480429D02*
X11644069Y-12499477D01*
X11644069Y-12499477D02*
X11634545Y-12509001D01*
X11634545Y-12509001D02*
X11615497Y-12518524D01*
X11615497Y-12518524D02*
X11577402Y-12518524D01*
X11577402Y-12518524D02*
X11558354Y-12528048D01*
X11558354Y-12528048D02*
X11548830Y-12537572D01*
X11548830Y-12537572D02*
X11539307Y-12556620D01*
X11539307Y-12556620D02*
X11539307Y-12594715D01*
X11539307Y-12594715D02*
X11548830Y-12613763D01*
X11548830Y-12613763D02*
X11558354Y-12623286D01*
X11558354Y-12623286D02*
X11577402Y-12632810D01*
X11577402Y-12632810D02*
X11615497Y-12632810D01*
X11615497Y-12632810D02*
X11634545Y-12623286D01*
X11634545Y-12623286D02*
X11644069Y-12613763D01*
X11644069Y-12613763D02*
X11653592Y-12594715D01*
X11653592Y-12594715D02*
X11653592Y-12556620D01*
X11653592Y-12556620D02*
X11644069Y-12537572D01*
X11644069Y-12537572D02*
X11634545Y-12528048D01*
X11634545Y-12528048D02*
X11615497Y-12518524D01*
X11729783Y-12432810D02*
X11729783Y-12470905D01*
X11805973Y-12432810D02*
X11805973Y-12470905D01*
X12101212Y-12709001D02*
X12091688Y-12699477D01*
X12091688Y-12699477D02*
X12072640Y-12670905D01*
X12072640Y-12670905D02*
X12063116Y-12651858D01*
X12063116Y-12651858D02*
X12053592Y-12623286D01*
X12053592Y-12623286D02*
X12044069Y-12575667D01*
X12044069Y-12575667D02*
X12044069Y-12537572D01*
X12044069Y-12537572D02*
X12053592Y-12489953D01*
X12053592Y-12489953D02*
X12063116Y-12461382D01*
X12063116Y-12461382D02*
X12072640Y-12442334D01*
X12072640Y-12442334D02*
X12091688Y-12413763D01*
X12091688Y-12413763D02*
X12101212Y-12404239D01*
X12263116Y-12432810D02*
X12225021Y-12432810D01*
X12225021Y-12432810D02*
X12205973Y-12442334D01*
X12205973Y-12442334D02*
X12196450Y-12451858D01*
X12196450Y-12451858D02*
X12177402Y-12480429D01*
X12177402Y-12480429D02*
X12167878Y-12518524D01*
X12167878Y-12518524D02*
X12167878Y-12594715D01*
X12167878Y-12594715D02*
X12177402Y-12613763D01*
X12177402Y-12613763D02*
X12186926Y-12623286D01*
X12186926Y-12623286D02*
X12205973Y-12632810D01*
X12205973Y-12632810D02*
X12244069Y-12632810D01*
X12244069Y-12632810D02*
X12263116Y-12623286D01*
X12263116Y-12623286D02*
X12272640Y-12613763D01*
X12272640Y-12613763D02*
X12282164Y-12594715D01*
X12282164Y-12594715D02*
X12282164Y-12547096D01*
X12282164Y-12547096D02*
X12272640Y-12528048D01*
X12272640Y-12528048D02*
X12263116Y-12518524D01*
X12263116Y-12518524D02*
X12244069Y-12509001D01*
X12244069Y-12509001D02*
X12205973Y-12509001D01*
X12205973Y-12509001D02*
X12186926Y-12518524D01*
X12186926Y-12518524D02*
X12177402Y-12528048D01*
X12177402Y-12528048D02*
X12167878Y-12547096D01*
X12348831Y-12432810D02*
X12482164Y-12432810D01*
X12482164Y-12432810D02*
X12396450Y-12632810D01*
X12710735Y-12632810D02*
X12710735Y-12432810D01*
X12796450Y-12632810D02*
X12796450Y-12528048D01*
X12796450Y-12528048D02*
X12786926Y-12509001D01*
X12786926Y-12509001D02*
X12767878Y-12499477D01*
X12767878Y-12499477D02*
X12739307Y-12499477D01*
X12739307Y-12499477D02*
X12720259Y-12509001D01*
X12720259Y-12509001D02*
X12710735Y-12518524D01*
X12920259Y-12632810D02*
X12901212Y-12623286D01*
X12901212Y-12623286D02*
X12891688Y-12613763D01*
X12891688Y-12613763D02*
X12882164Y-12594715D01*
X12882164Y-12594715D02*
X12882164Y-12537572D01*
X12882164Y-12537572D02*
X12891688Y-12518524D01*
X12891688Y-12518524D02*
X12901212Y-12509001D01*
X12901212Y-12509001D02*
X12920259Y-12499477D01*
X12920259Y-12499477D02*
X12948831Y-12499477D01*
X12948831Y-12499477D02*
X12967878Y-12509001D01*
X12967878Y-12509001D02*
X12977402Y-12518524D01*
X12977402Y-12518524D02*
X12986926Y-12537572D01*
X12986926Y-12537572D02*
X12986926Y-12594715D01*
X12986926Y-12594715D02*
X12977402Y-12613763D01*
X12977402Y-12613763D02*
X12967878Y-12623286D01*
X12967878Y-12623286D02*
X12948831Y-12632810D01*
X12948831Y-12632810D02*
X12920259Y-12632810D01*
X13101212Y-12632810D02*
X13082164Y-12623286D01*
X13082164Y-12623286D02*
X13072640Y-12604239D01*
X13072640Y-12604239D02*
X13072640Y-12432810D01*
X13253593Y-12623286D02*
X13234545Y-12632810D01*
X13234545Y-12632810D02*
X13196450Y-12632810D01*
X13196450Y-12632810D02*
X13177402Y-12623286D01*
X13177402Y-12623286D02*
X13167878Y-12604239D01*
X13167878Y-12604239D02*
X13167878Y-12528048D01*
X13167878Y-12528048D02*
X13177402Y-12509001D01*
X13177402Y-12509001D02*
X13196450Y-12499477D01*
X13196450Y-12499477D02*
X13234545Y-12499477D01*
X13234545Y-12499477D02*
X13253593Y-12509001D01*
X13253593Y-12509001D02*
X13263116Y-12528048D01*
X13263116Y-12528048D02*
X13263116Y-12547096D01*
X13263116Y-12547096D02*
X13167878Y-12566144D01*
X13339307Y-12623286D02*
X13358354Y-12632810D01*
X13358354Y-12632810D02*
X13396450Y-12632810D01*
X13396450Y-12632810D02*
X13415497Y-12623286D01*
X13415497Y-12623286D02*
X13425021Y-12604239D01*
X13425021Y-12604239D02*
X13425021Y-12594715D01*
X13425021Y-12594715D02*
X13415497Y-12575667D01*
X13415497Y-12575667D02*
X13396450Y-12566144D01*
X13396450Y-12566144D02*
X13367878Y-12566144D01*
X13367878Y-12566144D02*
X13348831Y-12556620D01*
X13348831Y-12556620D02*
X13339307Y-12537572D01*
X13339307Y-12537572D02*
X13339307Y-12528048D01*
X13339307Y-12528048D02*
X13348831Y-12509001D01*
X13348831Y-12509001D02*
X13367878Y-12499477D01*
X13367878Y-12499477D02*
X13396450Y-12499477D01*
X13396450Y-12499477D02*
X13415497Y-12509001D01*
X13491688Y-12709001D02*
X13501212Y-12699477D01*
X13501212Y-12699477D02*
X13520259Y-12670905D01*
X13520259Y-12670905D02*
X13529783Y-12651858D01*
X13529783Y-12651858D02*
X13539307Y-12623286D01*
X13539307Y-12623286D02*
X13548831Y-12575667D01*
X13548831Y-12575667D02*
X13548831Y-12537572D01*
X13548831Y-12537572D02*
X13539307Y-12489953D01*
X13539307Y-12489953D02*
X13529783Y-12461382D01*
X13529783Y-12461382D02*
X13520259Y-12442334D01*
X13520259Y-12442334D02*
X13501212Y-12413763D01*
X13501212Y-12413763D02*
X13491688Y-12404239D01*
D12*
X8526149Y-12805326D02*
G75*
G02*
X8451149Y-12805326I-37500J0D01*
G01*
X8451149Y-12805326D02*
G75*
G02*
X8526149Y-12805326I37500J0D01*
G01*
D13*
X8825021Y-12696810D02*
X8844068Y-12696810D01*
X8844068Y-12696810D02*
X8863116Y-12706334D01*
X8863116Y-12706334D02*
X8872640Y-12715858D01*
X8872640Y-12715858D02*
X8882164Y-12734905D01*
X8882164Y-12734905D02*
X8891687Y-12773001D01*
X8891687Y-12773001D02*
X8891687Y-12820620D01*
X8891687Y-12820620D02*
X8882164Y-12858715D01*
X8882164Y-12858715D02*
X8872640Y-12877763D01*
X8872640Y-12877763D02*
X8863116Y-12887286D01*
X8863116Y-12887286D02*
X8844068Y-12896810D01*
X8844068Y-12896810D02*
X8825021Y-12896810D01*
X8825021Y-12896810D02*
X8805973Y-12887286D01*
X8805973Y-12887286D02*
X8796449Y-12877763D01*
X8796449Y-12877763D02*
X8786926Y-12858715D01*
X8786926Y-12858715D02*
X8777402Y-12820620D01*
X8777402Y-12820620D02*
X8777402Y-12773001D01*
X8777402Y-12773001D02*
X8786926Y-12734905D01*
X8786926Y-12734905D02*
X8796449Y-12715858D01*
X8796449Y-12715858D02*
X8805973Y-12706334D01*
X8805973Y-12706334D02*
X8825021Y-12696810D01*
X8977402Y-12877763D02*
X8986926Y-12887286D01*
X8986926Y-12887286D02*
X8977402Y-12896810D01*
X8977402Y-12896810D02*
X8967878Y-12887286D01*
X8967878Y-12887286D02*
X8977402Y-12877763D01*
X8977402Y-12877763D02*
X8977402Y-12896810D01*
X9053592Y-12696810D02*
X9186926Y-12696810D01*
X9186926Y-12696810D02*
X9101211Y-12896810D01*
X9358354Y-12696810D02*
X9263116Y-12696810D01*
X9263116Y-12696810D02*
X9253592Y-12792048D01*
X9253592Y-12792048D02*
X9263116Y-12782524D01*
X9263116Y-12782524D02*
X9282164Y-12773001D01*
X9282164Y-12773001D02*
X9329783Y-12773001D01*
X9329783Y-12773001D02*
X9348830Y-12782524D01*
X9348830Y-12782524D02*
X9358354Y-12792048D01*
X9358354Y-12792048D02*
X9367878Y-12811096D01*
X9367878Y-12811096D02*
X9367878Y-12858715D01*
X9367878Y-12858715D02*
X9358354Y-12877763D01*
X9358354Y-12877763D02*
X9348830Y-12887286D01*
X9348830Y-12887286D02*
X9329783Y-12896810D01*
X9329783Y-12896810D02*
X9282164Y-12896810D01*
X9282164Y-12896810D02*
X9263116Y-12887286D01*
X9263116Y-12887286D02*
X9253592Y-12877763D01*
X9491687Y-12696810D02*
X9510735Y-12696810D01*
X9510735Y-12696810D02*
X9529783Y-12706334D01*
X9529783Y-12706334D02*
X9539307Y-12715858D01*
X9539307Y-12715858D02*
X9548830Y-12734905D01*
X9548830Y-12734905D02*
X9558354Y-12773001D01*
X9558354Y-12773001D02*
X9558354Y-12820620D01*
X9558354Y-12820620D02*
X9548830Y-12858715D01*
X9548830Y-12858715D02*
X9539307Y-12877763D01*
X9539307Y-12877763D02*
X9529783Y-12887286D01*
X9529783Y-12887286D02*
X9510735Y-12896810D01*
X9510735Y-12896810D02*
X9491687Y-12896810D01*
X9491687Y-12896810D02*
X9472640Y-12887286D01*
X9472640Y-12887286D02*
X9463116Y-12877763D01*
X9463116Y-12877763D02*
X9453592Y-12858715D01*
X9453592Y-12858715D02*
X9444068Y-12820620D01*
X9444068Y-12820620D02*
X9444068Y-12773001D01*
X9444068Y-12773001D02*
X9453592Y-12734905D01*
X9453592Y-12734905D02*
X9463116Y-12715858D01*
X9463116Y-12715858D02*
X9472640Y-12706334D01*
X9472640Y-12706334D02*
X9491687Y-12696810D01*
X9644068Y-12896810D02*
X9644068Y-12763477D01*
X9644068Y-12782524D02*
X9653592Y-12773001D01*
X9653592Y-12773001D02*
X9672640Y-12763477D01*
X9672640Y-12763477D02*
X9701211Y-12763477D01*
X9701211Y-12763477D02*
X9720259Y-12773001D01*
X9720259Y-12773001D02*
X9729783Y-12792048D01*
X9729783Y-12792048D02*
X9729783Y-12896810D01*
X9729783Y-12792048D02*
X9739307Y-12773001D01*
X9739307Y-12773001D02*
X9758354Y-12763477D01*
X9758354Y-12763477D02*
X9786926Y-12763477D01*
X9786926Y-12763477D02*
X9805973Y-12773001D01*
X9805973Y-12773001D02*
X9815497Y-12792048D01*
X9815497Y-12792048D02*
X9815497Y-12896810D01*
X9910735Y-12896810D02*
X9910735Y-12763477D01*
X9910735Y-12782524D02*
X9920259Y-12773001D01*
X9920259Y-12773001D02*
X9939307Y-12763477D01*
X9939307Y-12763477D02*
X9967878Y-12763477D01*
X9967878Y-12763477D02*
X9986926Y-12773001D01*
X9986926Y-12773001D02*
X9996449Y-12792048D01*
X9996449Y-12792048D02*
X9996449Y-12896810D01*
X9996449Y-12792048D02*
X10005973Y-12773001D01*
X10005973Y-12773001D02*
X10025021Y-12763477D01*
X10025021Y-12763477D02*
X10053592Y-12763477D01*
X10053592Y-12763477D02*
X10072640Y-12773001D01*
X10072640Y-12773001D02*
X10082164Y-12792048D01*
X10082164Y-12792048D02*
X10082164Y-12896810D01*
X10472640Y-12687286D02*
X10301211Y-12944429D01*
X10729783Y-12696810D02*
X10748831Y-12696810D01*
X10748831Y-12696810D02*
X10767878Y-12706334D01*
X10767878Y-12706334D02*
X10777402Y-12715858D01*
X10777402Y-12715858D02*
X10786926Y-12734905D01*
X10786926Y-12734905D02*
X10796450Y-12773001D01*
X10796450Y-12773001D02*
X10796450Y-12820620D01*
X10796450Y-12820620D02*
X10786926Y-12858715D01*
X10786926Y-12858715D02*
X10777402Y-12877763D01*
X10777402Y-12877763D02*
X10767878Y-12887286D01*
X10767878Y-12887286D02*
X10748831Y-12896810D01*
X10748831Y-12896810D02*
X10729783Y-12896810D01*
X10729783Y-12896810D02*
X10710735Y-12887286D01*
X10710735Y-12887286D02*
X10701211Y-12877763D01*
X10701211Y-12877763D02*
X10691688Y-12858715D01*
X10691688Y-12858715D02*
X10682164Y-12820620D01*
X10682164Y-12820620D02*
X10682164Y-12773001D01*
X10682164Y-12773001D02*
X10691688Y-12734905D01*
X10691688Y-12734905D02*
X10701211Y-12715858D01*
X10701211Y-12715858D02*
X10710735Y-12706334D01*
X10710735Y-12706334D02*
X10729783Y-12696810D01*
X10882164Y-12877763D02*
X10891688Y-12887286D01*
X10891688Y-12887286D02*
X10882164Y-12896810D01*
X10882164Y-12896810D02*
X10872640Y-12887286D01*
X10872640Y-12887286D02*
X10882164Y-12877763D01*
X10882164Y-12877763D02*
X10882164Y-12896810D01*
X11015497Y-12696810D02*
X11034545Y-12696810D01*
X11034545Y-12696810D02*
X11053592Y-12706334D01*
X11053592Y-12706334D02*
X11063116Y-12715858D01*
X11063116Y-12715858D02*
X11072640Y-12734905D01*
X11072640Y-12734905D02*
X11082164Y-12773001D01*
X11082164Y-12773001D02*
X11082164Y-12820620D01*
X11082164Y-12820620D02*
X11072640Y-12858715D01*
X11072640Y-12858715D02*
X11063116Y-12877763D01*
X11063116Y-12877763D02*
X11053592Y-12887286D01*
X11053592Y-12887286D02*
X11034545Y-12896810D01*
X11034545Y-12896810D02*
X11015497Y-12896810D01*
X11015497Y-12896810D02*
X10996450Y-12887286D01*
X10996450Y-12887286D02*
X10986926Y-12877763D01*
X10986926Y-12877763D02*
X10977402Y-12858715D01*
X10977402Y-12858715D02*
X10967878Y-12820620D01*
X10967878Y-12820620D02*
X10967878Y-12773001D01*
X10967878Y-12773001D02*
X10977402Y-12734905D01*
X10977402Y-12734905D02*
X10986926Y-12715858D01*
X10986926Y-12715858D02*
X10996450Y-12706334D01*
X10996450Y-12706334D02*
X11015497Y-12696810D01*
X11158354Y-12715858D02*
X11167878Y-12706334D01*
X11167878Y-12706334D02*
X11186926Y-12696810D01*
X11186926Y-12696810D02*
X11234545Y-12696810D01*
X11234545Y-12696810D02*
X11253592Y-12706334D01*
X11253592Y-12706334D02*
X11263116Y-12715858D01*
X11263116Y-12715858D02*
X11272640Y-12734905D01*
X11272640Y-12734905D02*
X11272640Y-12753953D01*
X11272640Y-12753953D02*
X11263116Y-12782524D01*
X11263116Y-12782524D02*
X11148831Y-12896810D01*
X11148831Y-12896810D02*
X11272640Y-12896810D01*
X11367878Y-12896810D02*
X11405973Y-12896810D01*
X11405973Y-12896810D02*
X11425021Y-12887286D01*
X11425021Y-12887286D02*
X11434545Y-12877763D01*
X11434545Y-12877763D02*
X11453592Y-12849191D01*
X11453592Y-12849191D02*
X11463116Y-12811096D01*
X11463116Y-12811096D02*
X11463116Y-12734905D01*
X11463116Y-12734905D02*
X11453592Y-12715858D01*
X11453592Y-12715858D02*
X11444069Y-12706334D01*
X11444069Y-12706334D02*
X11425021Y-12696810D01*
X11425021Y-12696810D02*
X11386926Y-12696810D01*
X11386926Y-12696810D02*
X11367878Y-12706334D01*
X11367878Y-12706334D02*
X11358354Y-12715858D01*
X11358354Y-12715858D02*
X11348830Y-12734905D01*
X11348830Y-12734905D02*
X11348830Y-12782524D01*
X11348830Y-12782524D02*
X11358354Y-12801572D01*
X11358354Y-12801572D02*
X11367878Y-12811096D01*
X11367878Y-12811096D02*
X11386926Y-12820620D01*
X11386926Y-12820620D02*
X11425021Y-12820620D01*
X11425021Y-12820620D02*
X11444069Y-12811096D01*
X11444069Y-12811096D02*
X11453592Y-12801572D01*
X11453592Y-12801572D02*
X11463116Y-12782524D01*
X11644069Y-12696810D02*
X11548830Y-12696810D01*
X11548830Y-12696810D02*
X11539307Y-12792048D01*
X11539307Y-12792048D02*
X11548830Y-12782524D01*
X11548830Y-12782524D02*
X11567878Y-12773001D01*
X11567878Y-12773001D02*
X11615497Y-12773001D01*
X11615497Y-12773001D02*
X11634545Y-12782524D01*
X11634545Y-12782524D02*
X11644069Y-12792048D01*
X11644069Y-12792048D02*
X11653592Y-12811096D01*
X11653592Y-12811096D02*
X11653592Y-12858715D01*
X11653592Y-12858715D02*
X11644069Y-12877763D01*
X11644069Y-12877763D02*
X11634545Y-12887286D01*
X11634545Y-12887286D02*
X11615497Y-12896810D01*
X11615497Y-12896810D02*
X11567878Y-12896810D01*
X11567878Y-12896810D02*
X11548830Y-12887286D01*
X11548830Y-12887286D02*
X11539307Y-12877763D01*
X11729783Y-12696810D02*
X11729783Y-12734905D01*
X11805973Y-12696810D02*
X11805973Y-12734905D01*
X12101212Y-12973001D02*
X12091688Y-12963477D01*
X12091688Y-12963477D02*
X12072640Y-12934905D01*
X12072640Y-12934905D02*
X12063116Y-12915858D01*
X12063116Y-12915858D02*
X12053592Y-12887286D01*
X12053592Y-12887286D02*
X12044069Y-12839667D01*
X12044069Y-12839667D02*
X12044069Y-12801572D01*
X12044069Y-12801572D02*
X12053592Y-12753953D01*
X12053592Y-12753953D02*
X12063116Y-12725382D01*
X12063116Y-12725382D02*
X12072640Y-12706334D01*
X12072640Y-12706334D02*
X12091688Y-12677763D01*
X12091688Y-12677763D02*
X12101212Y-12668239D01*
X12167878Y-12715858D02*
X12177402Y-12706334D01*
X12177402Y-12706334D02*
X12196450Y-12696810D01*
X12196450Y-12696810D02*
X12244069Y-12696810D01*
X12244069Y-12696810D02*
X12263116Y-12706334D01*
X12263116Y-12706334D02*
X12272640Y-12715858D01*
X12272640Y-12715858D02*
X12282164Y-12734905D01*
X12282164Y-12734905D02*
X12282164Y-12753953D01*
X12282164Y-12753953D02*
X12272640Y-12782524D01*
X12272640Y-12782524D02*
X12158354Y-12896810D01*
X12158354Y-12896810D02*
X12282164Y-12896810D01*
X12520259Y-12896810D02*
X12520259Y-12696810D01*
X12605973Y-12896810D02*
X12605973Y-12792048D01*
X12605973Y-12792048D02*
X12596450Y-12773001D01*
X12596450Y-12773001D02*
X12577402Y-12763477D01*
X12577402Y-12763477D02*
X12548831Y-12763477D01*
X12548831Y-12763477D02*
X12529783Y-12773001D01*
X12529783Y-12773001D02*
X12520259Y-12782524D01*
X12729783Y-12896810D02*
X12710735Y-12887286D01*
X12710735Y-12887286D02*
X12701212Y-12877763D01*
X12701212Y-12877763D02*
X12691688Y-12858715D01*
X12691688Y-12858715D02*
X12691688Y-12801572D01*
X12691688Y-12801572D02*
X12701212Y-12782524D01*
X12701212Y-12782524D02*
X12710735Y-12773001D01*
X12710735Y-12773001D02*
X12729783Y-12763477D01*
X12729783Y-12763477D02*
X12758354Y-12763477D01*
X12758354Y-12763477D02*
X12777402Y-12773001D01*
X12777402Y-12773001D02*
X12786926Y-12782524D01*
X12786926Y-12782524D02*
X12796450Y-12801572D01*
X12796450Y-12801572D02*
X12796450Y-12858715D01*
X12796450Y-12858715D02*
X12786926Y-12877763D01*
X12786926Y-12877763D02*
X12777402Y-12887286D01*
X12777402Y-12887286D02*
X12758354Y-12896810D01*
X12758354Y-12896810D02*
X12729783Y-12896810D01*
X12910735Y-12896810D02*
X12891688Y-12887286D01*
X12891688Y-12887286D02*
X12882164Y-12868239D01*
X12882164Y-12868239D02*
X12882164Y-12696810D01*
X13063116Y-12887286D02*
X13044069Y-12896810D01*
X13044069Y-12896810D02*
X13005973Y-12896810D01*
X13005973Y-12896810D02*
X12986926Y-12887286D01*
X12986926Y-12887286D02*
X12977402Y-12868239D01*
X12977402Y-12868239D02*
X12977402Y-12792048D01*
X12977402Y-12792048D02*
X12986926Y-12773001D01*
X12986926Y-12773001D02*
X13005973Y-12763477D01*
X13005973Y-12763477D02*
X13044069Y-12763477D01*
X13044069Y-12763477D02*
X13063116Y-12773001D01*
X13063116Y-12773001D02*
X13072640Y-12792048D01*
X13072640Y-12792048D02*
X13072640Y-12811096D01*
X13072640Y-12811096D02*
X12977402Y-12830144D01*
X13148831Y-12887286D02*
X13167878Y-12896810D01*
X13167878Y-12896810D02*
X13205973Y-12896810D01*
X13205973Y-12896810D02*
X13225021Y-12887286D01*
X13225021Y-12887286D02*
X13234545Y-12868239D01*
X13234545Y-12868239D02*
X13234545Y-12858715D01*
X13234545Y-12858715D02*
X13225021Y-12839667D01*
X13225021Y-12839667D02*
X13205973Y-12830144D01*
X13205973Y-12830144D02*
X13177402Y-12830144D01*
X13177402Y-12830144D02*
X13158354Y-12820620D01*
X13158354Y-12820620D02*
X13148831Y-12801572D01*
X13148831Y-12801572D02*
X13148831Y-12792048D01*
X13148831Y-12792048D02*
X13158354Y-12773001D01*
X13158354Y-12773001D02*
X13177402Y-12763477D01*
X13177402Y-12763477D02*
X13205973Y-12763477D01*
X13205973Y-12763477D02*
X13225021Y-12773001D01*
X13301212Y-12973001D02*
X13310735Y-12963477D01*
X13310735Y-12963477D02*
X13329783Y-12934905D01*
X13329783Y-12934905D02*
X13339307Y-12915858D01*
X13339307Y-12915858D02*
X13348831Y-12887286D01*
X13348831Y-12887286D02*
X13358354Y-12839667D01*
X13358354Y-12839667D02*
X13358354Y-12801572D01*
X13358354Y-12801572D02*
X13348831Y-12753953D01*
X13348831Y-12753953D02*
X13339307Y-12725382D01*
X13339307Y-12725382D02*
X13329783Y-12706334D01*
X13329783Y-12706334D02*
X13310735Y-12677763D01*
X13310735Y-12677763D02*
X13301212Y-12668239D01*
D12*
X8476149Y-13019326D02*
X8476149Y-13119326D01*
X8426149Y-13069326D02*
X8526149Y-13069326D01*
D13*
X8891687Y-13160810D02*
X8777402Y-13160810D01*
X8834545Y-13160810D02*
X8834545Y-12960810D01*
X8834545Y-12960810D02*
X8815497Y-12989382D01*
X8815497Y-12989382D02*
X8796449Y-13008429D01*
X8796449Y-13008429D02*
X8777402Y-13017953D01*
X8977402Y-13141763D02*
X8986926Y-13151286D01*
X8986926Y-13151286D02*
X8977402Y-13160810D01*
X8977402Y-13160810D02*
X8967878Y-13151286D01*
X8967878Y-13151286D02*
X8977402Y-13141763D01*
X8977402Y-13141763D02*
X8977402Y-13160810D01*
X9110735Y-12960810D02*
X9129783Y-12960810D01*
X9129783Y-12960810D02*
X9148830Y-12970334D01*
X9148830Y-12970334D02*
X9158354Y-12979858D01*
X9158354Y-12979858D02*
X9167878Y-12998905D01*
X9167878Y-12998905D02*
X9177402Y-13037001D01*
X9177402Y-13037001D02*
X9177402Y-13084620D01*
X9177402Y-13084620D02*
X9167878Y-13122715D01*
X9167878Y-13122715D02*
X9158354Y-13141763D01*
X9158354Y-13141763D02*
X9148830Y-13151286D01*
X9148830Y-13151286D02*
X9129783Y-13160810D01*
X9129783Y-13160810D02*
X9110735Y-13160810D01*
X9110735Y-13160810D02*
X9091687Y-13151286D01*
X9091687Y-13151286D02*
X9082164Y-13141763D01*
X9082164Y-13141763D02*
X9072640Y-13122715D01*
X9072640Y-13122715D02*
X9063116Y-13084620D01*
X9063116Y-13084620D02*
X9063116Y-13037001D01*
X9063116Y-13037001D02*
X9072640Y-12998905D01*
X9072640Y-12998905D02*
X9082164Y-12979858D01*
X9082164Y-12979858D02*
X9091687Y-12970334D01*
X9091687Y-12970334D02*
X9110735Y-12960810D01*
X9301211Y-12960810D02*
X9320259Y-12960810D01*
X9320259Y-12960810D02*
X9339307Y-12970334D01*
X9339307Y-12970334D02*
X9348830Y-12979858D01*
X9348830Y-12979858D02*
X9358354Y-12998905D01*
X9358354Y-12998905D02*
X9367878Y-13037001D01*
X9367878Y-13037001D02*
X9367878Y-13084620D01*
X9367878Y-13084620D02*
X9358354Y-13122715D01*
X9358354Y-13122715D02*
X9348830Y-13141763D01*
X9348830Y-13141763D02*
X9339307Y-13151286D01*
X9339307Y-13151286D02*
X9320259Y-13160810D01*
X9320259Y-13160810D02*
X9301211Y-13160810D01*
X9301211Y-13160810D02*
X9282164Y-13151286D01*
X9282164Y-13151286D02*
X9272640Y-13141763D01*
X9272640Y-13141763D02*
X9263116Y-13122715D01*
X9263116Y-13122715D02*
X9253592Y-13084620D01*
X9253592Y-13084620D02*
X9253592Y-13037001D01*
X9253592Y-13037001D02*
X9263116Y-12998905D01*
X9263116Y-12998905D02*
X9272640Y-12979858D01*
X9272640Y-12979858D02*
X9282164Y-12970334D01*
X9282164Y-12970334D02*
X9301211Y-12960810D01*
X9491687Y-12960810D02*
X9510735Y-12960810D01*
X9510735Y-12960810D02*
X9529783Y-12970334D01*
X9529783Y-12970334D02*
X9539307Y-12979858D01*
X9539307Y-12979858D02*
X9548830Y-12998905D01*
X9548830Y-12998905D02*
X9558354Y-13037001D01*
X9558354Y-13037001D02*
X9558354Y-13084620D01*
X9558354Y-13084620D02*
X9548830Y-13122715D01*
X9548830Y-13122715D02*
X9539307Y-13141763D01*
X9539307Y-13141763D02*
X9529783Y-13151286D01*
X9529783Y-13151286D02*
X9510735Y-13160810D01*
X9510735Y-13160810D02*
X9491687Y-13160810D01*
X9491687Y-13160810D02*
X9472640Y-13151286D01*
X9472640Y-13151286D02*
X9463116Y-13141763D01*
X9463116Y-13141763D02*
X9453592Y-13122715D01*
X9453592Y-13122715D02*
X9444068Y-13084620D01*
X9444068Y-13084620D02*
X9444068Y-13037001D01*
X9444068Y-13037001D02*
X9453592Y-12998905D01*
X9453592Y-12998905D02*
X9463116Y-12979858D01*
X9463116Y-12979858D02*
X9472640Y-12970334D01*
X9472640Y-12970334D02*
X9491687Y-12960810D01*
X9644068Y-13160810D02*
X9644068Y-13027477D01*
X9644068Y-13046524D02*
X9653592Y-13037001D01*
X9653592Y-13037001D02*
X9672640Y-13027477D01*
X9672640Y-13027477D02*
X9701211Y-13027477D01*
X9701211Y-13027477D02*
X9720259Y-13037001D01*
X9720259Y-13037001D02*
X9729783Y-13056048D01*
X9729783Y-13056048D02*
X9729783Y-13160810D01*
X9729783Y-13056048D02*
X9739307Y-13037001D01*
X9739307Y-13037001D02*
X9758354Y-13027477D01*
X9758354Y-13027477D02*
X9786926Y-13027477D01*
X9786926Y-13027477D02*
X9805973Y-13037001D01*
X9805973Y-13037001D02*
X9815497Y-13056048D01*
X9815497Y-13056048D02*
X9815497Y-13160810D01*
X9910735Y-13160810D02*
X9910735Y-13027477D01*
X9910735Y-13046524D02*
X9920259Y-13037001D01*
X9920259Y-13037001D02*
X9939307Y-13027477D01*
X9939307Y-13027477D02*
X9967878Y-13027477D01*
X9967878Y-13027477D02*
X9986926Y-13037001D01*
X9986926Y-13037001D02*
X9996449Y-13056048D01*
X9996449Y-13056048D02*
X9996449Y-13160810D01*
X9996449Y-13056048D02*
X10005973Y-13037001D01*
X10005973Y-13037001D02*
X10025021Y-13027477D01*
X10025021Y-13027477D02*
X10053592Y-13027477D01*
X10053592Y-13027477D02*
X10072640Y-13037001D01*
X10072640Y-13037001D02*
X10082164Y-13056048D01*
X10082164Y-13056048D02*
X10082164Y-13160810D01*
X10472640Y-12951286D02*
X10301211Y-13208429D01*
X10729783Y-12960810D02*
X10748831Y-12960810D01*
X10748831Y-12960810D02*
X10767878Y-12970334D01*
X10767878Y-12970334D02*
X10777402Y-12979858D01*
X10777402Y-12979858D02*
X10786926Y-12998905D01*
X10786926Y-12998905D02*
X10796450Y-13037001D01*
X10796450Y-13037001D02*
X10796450Y-13084620D01*
X10796450Y-13084620D02*
X10786926Y-13122715D01*
X10786926Y-13122715D02*
X10777402Y-13141763D01*
X10777402Y-13141763D02*
X10767878Y-13151286D01*
X10767878Y-13151286D02*
X10748831Y-13160810D01*
X10748831Y-13160810D02*
X10729783Y-13160810D01*
X10729783Y-13160810D02*
X10710735Y-13151286D01*
X10710735Y-13151286D02*
X10701211Y-13141763D01*
X10701211Y-13141763D02*
X10691688Y-13122715D01*
X10691688Y-13122715D02*
X10682164Y-13084620D01*
X10682164Y-13084620D02*
X10682164Y-13037001D01*
X10682164Y-13037001D02*
X10691688Y-12998905D01*
X10691688Y-12998905D02*
X10701211Y-12979858D01*
X10701211Y-12979858D02*
X10710735Y-12970334D01*
X10710735Y-12970334D02*
X10729783Y-12960810D01*
X10882164Y-13141763D02*
X10891688Y-13151286D01*
X10891688Y-13151286D02*
X10882164Y-13160810D01*
X10882164Y-13160810D02*
X10872640Y-13151286D01*
X10872640Y-13151286D02*
X10882164Y-13141763D01*
X10882164Y-13141763D02*
X10882164Y-13160810D01*
X11015497Y-12960810D02*
X11034545Y-12960810D01*
X11034545Y-12960810D02*
X11053592Y-12970334D01*
X11053592Y-12970334D02*
X11063116Y-12979858D01*
X11063116Y-12979858D02*
X11072640Y-12998905D01*
X11072640Y-12998905D02*
X11082164Y-13037001D01*
X11082164Y-13037001D02*
X11082164Y-13084620D01*
X11082164Y-13084620D02*
X11072640Y-13122715D01*
X11072640Y-13122715D02*
X11063116Y-13141763D01*
X11063116Y-13141763D02*
X11053592Y-13151286D01*
X11053592Y-13151286D02*
X11034545Y-13160810D01*
X11034545Y-13160810D02*
X11015497Y-13160810D01*
X11015497Y-13160810D02*
X10996450Y-13151286D01*
X10996450Y-13151286D02*
X10986926Y-13141763D01*
X10986926Y-13141763D02*
X10977402Y-13122715D01*
X10977402Y-13122715D02*
X10967878Y-13084620D01*
X10967878Y-13084620D02*
X10967878Y-13037001D01*
X10967878Y-13037001D02*
X10977402Y-12998905D01*
X10977402Y-12998905D02*
X10986926Y-12979858D01*
X10986926Y-12979858D02*
X10996450Y-12970334D01*
X10996450Y-12970334D02*
X11015497Y-12960810D01*
X11148831Y-12960810D02*
X11272640Y-12960810D01*
X11272640Y-12960810D02*
X11205973Y-13037001D01*
X11205973Y-13037001D02*
X11234545Y-13037001D01*
X11234545Y-13037001D02*
X11253592Y-13046524D01*
X11253592Y-13046524D02*
X11263116Y-13056048D01*
X11263116Y-13056048D02*
X11272640Y-13075096D01*
X11272640Y-13075096D02*
X11272640Y-13122715D01*
X11272640Y-13122715D02*
X11263116Y-13141763D01*
X11263116Y-13141763D02*
X11253592Y-13151286D01*
X11253592Y-13151286D02*
X11234545Y-13160810D01*
X11234545Y-13160810D02*
X11177402Y-13160810D01*
X11177402Y-13160810D02*
X11158354Y-13151286D01*
X11158354Y-13151286D02*
X11148831Y-13141763D01*
X11367878Y-13160810D02*
X11405973Y-13160810D01*
X11405973Y-13160810D02*
X11425021Y-13151286D01*
X11425021Y-13151286D02*
X11434545Y-13141763D01*
X11434545Y-13141763D02*
X11453592Y-13113191D01*
X11453592Y-13113191D02*
X11463116Y-13075096D01*
X11463116Y-13075096D02*
X11463116Y-12998905D01*
X11463116Y-12998905D02*
X11453592Y-12979858D01*
X11453592Y-12979858D02*
X11444069Y-12970334D01*
X11444069Y-12970334D02*
X11425021Y-12960810D01*
X11425021Y-12960810D02*
X11386926Y-12960810D01*
X11386926Y-12960810D02*
X11367878Y-12970334D01*
X11367878Y-12970334D02*
X11358354Y-12979858D01*
X11358354Y-12979858D02*
X11348830Y-12998905D01*
X11348830Y-12998905D02*
X11348830Y-13046524D01*
X11348830Y-13046524D02*
X11358354Y-13065572D01*
X11358354Y-13065572D02*
X11367878Y-13075096D01*
X11367878Y-13075096D02*
X11386926Y-13084620D01*
X11386926Y-13084620D02*
X11425021Y-13084620D01*
X11425021Y-13084620D02*
X11444069Y-13075096D01*
X11444069Y-13075096D02*
X11453592Y-13065572D01*
X11453592Y-13065572D02*
X11463116Y-13046524D01*
X11634545Y-13027477D02*
X11634545Y-13160810D01*
X11586926Y-12951286D02*
X11539307Y-13094144D01*
X11539307Y-13094144D02*
X11663116Y-13094144D01*
X11729783Y-12960810D02*
X11729783Y-12998905D01*
X11805973Y-12960810D02*
X11805973Y-12998905D01*
X12101212Y-13237001D02*
X12091688Y-13227477D01*
X12091688Y-13227477D02*
X12072640Y-13198905D01*
X12072640Y-13198905D02*
X12063116Y-13179858D01*
X12063116Y-13179858D02*
X12053592Y-13151286D01*
X12053592Y-13151286D02*
X12044069Y-13103667D01*
X12044069Y-13103667D02*
X12044069Y-13065572D01*
X12044069Y-13065572D02*
X12053592Y-13017953D01*
X12053592Y-13017953D02*
X12063116Y-12989382D01*
X12063116Y-12989382D02*
X12072640Y-12970334D01*
X12072640Y-12970334D02*
X12091688Y-12941763D01*
X12091688Y-12941763D02*
X12101212Y-12932239D01*
X12272640Y-12960810D02*
X12177402Y-12960810D01*
X12177402Y-12960810D02*
X12167878Y-13056048D01*
X12167878Y-13056048D02*
X12177402Y-13046524D01*
X12177402Y-13046524D02*
X12196450Y-13037001D01*
X12196450Y-13037001D02*
X12244069Y-13037001D01*
X12244069Y-13037001D02*
X12263116Y-13046524D01*
X12263116Y-13046524D02*
X12272640Y-13056048D01*
X12272640Y-13056048D02*
X12282164Y-13075096D01*
X12282164Y-13075096D02*
X12282164Y-13122715D01*
X12282164Y-13122715D02*
X12272640Y-13141763D01*
X12272640Y-13141763D02*
X12263116Y-13151286D01*
X12263116Y-13151286D02*
X12244069Y-13160810D01*
X12244069Y-13160810D02*
X12196450Y-13160810D01*
X12196450Y-13160810D02*
X12177402Y-13151286D01*
X12177402Y-13151286D02*
X12167878Y-13141763D01*
X12358354Y-12979858D02*
X12367878Y-12970334D01*
X12367878Y-12970334D02*
X12386926Y-12960810D01*
X12386926Y-12960810D02*
X12434545Y-12960810D01*
X12434545Y-12960810D02*
X12453592Y-12970334D01*
X12453592Y-12970334D02*
X12463116Y-12979858D01*
X12463116Y-12979858D02*
X12472640Y-12998905D01*
X12472640Y-12998905D02*
X12472640Y-13017953D01*
X12472640Y-13017953D02*
X12463116Y-13046524D01*
X12463116Y-13046524D02*
X12348831Y-13160810D01*
X12348831Y-13160810D02*
X12472640Y-13160810D01*
X12710735Y-13160810D02*
X12710735Y-12960810D01*
X12796450Y-13160810D02*
X12796450Y-13056048D01*
X12796450Y-13056048D02*
X12786926Y-13037001D01*
X12786926Y-13037001D02*
X12767878Y-13027477D01*
X12767878Y-13027477D02*
X12739307Y-13027477D01*
X12739307Y-13027477D02*
X12720259Y-13037001D01*
X12720259Y-13037001D02*
X12710735Y-13046524D01*
X12920259Y-13160810D02*
X12901212Y-13151286D01*
X12901212Y-13151286D02*
X12891688Y-13141763D01*
X12891688Y-13141763D02*
X12882164Y-13122715D01*
X12882164Y-13122715D02*
X12882164Y-13065572D01*
X12882164Y-13065572D02*
X12891688Y-13046524D01*
X12891688Y-13046524D02*
X12901212Y-13037001D01*
X12901212Y-13037001D02*
X12920259Y-13027477D01*
X12920259Y-13027477D02*
X12948831Y-13027477D01*
X12948831Y-13027477D02*
X12967878Y-13037001D01*
X12967878Y-13037001D02*
X12977402Y-13046524D01*
X12977402Y-13046524D02*
X12986926Y-13065572D01*
X12986926Y-13065572D02*
X12986926Y-13122715D01*
X12986926Y-13122715D02*
X12977402Y-13141763D01*
X12977402Y-13141763D02*
X12967878Y-13151286D01*
X12967878Y-13151286D02*
X12948831Y-13160810D01*
X12948831Y-13160810D02*
X12920259Y-13160810D01*
X13101212Y-13160810D02*
X13082164Y-13151286D01*
X13082164Y-13151286D02*
X13072640Y-13132239D01*
X13072640Y-13132239D02*
X13072640Y-12960810D01*
X13253593Y-13151286D02*
X13234545Y-13160810D01*
X13234545Y-13160810D02*
X13196450Y-13160810D01*
X13196450Y-13160810D02*
X13177402Y-13151286D01*
X13177402Y-13151286D02*
X13167878Y-13132239D01*
X13167878Y-13132239D02*
X13167878Y-13056048D01*
X13167878Y-13056048D02*
X13177402Y-13037001D01*
X13177402Y-13037001D02*
X13196450Y-13027477D01*
X13196450Y-13027477D02*
X13234545Y-13027477D01*
X13234545Y-13027477D02*
X13253593Y-13037001D01*
X13253593Y-13037001D02*
X13263116Y-13056048D01*
X13263116Y-13056048D02*
X13263116Y-13075096D01*
X13263116Y-13075096D02*
X13167878Y-13094144D01*
X13339307Y-13151286D02*
X13358354Y-13160810D01*
X13358354Y-13160810D02*
X13396450Y-13160810D01*
X13396450Y-13160810D02*
X13415497Y-13151286D01*
X13415497Y-13151286D02*
X13425021Y-13132239D01*
X13425021Y-13132239D02*
X13425021Y-13122715D01*
X13425021Y-13122715D02*
X13415497Y-13103667D01*
X13415497Y-13103667D02*
X13396450Y-13094144D01*
X13396450Y-13094144D02*
X13367878Y-13094144D01*
X13367878Y-13094144D02*
X13348831Y-13084620D01*
X13348831Y-13084620D02*
X13339307Y-13065572D01*
X13339307Y-13065572D02*
X13339307Y-13056048D01*
X13339307Y-13056048D02*
X13348831Y-13037001D01*
X13348831Y-13037001D02*
X13367878Y-13027477D01*
X13367878Y-13027477D02*
X13396450Y-13027477D01*
X13396450Y-13027477D02*
X13415497Y-13037001D01*
X13491688Y-13237001D02*
X13501212Y-13227477D01*
X13501212Y-13227477D02*
X13520259Y-13198905D01*
X13520259Y-13198905D02*
X13529783Y-13179858D01*
X13529783Y-13179858D02*
X13539307Y-13151286D01*
X13539307Y-13151286D02*
X13548831Y-13103667D01*
X13548831Y-13103667D02*
X13548831Y-13065572D01*
X13548831Y-13065572D02*
X13539307Y-13017953D01*
X13539307Y-13017953D02*
X13529783Y-12989382D01*
X13529783Y-12989382D02*
X13520259Y-12970334D01*
X13520259Y-12970334D02*
X13501212Y-12941763D01*
X13501212Y-12941763D02*
X13491688Y-12932239D01*
M02*
