%TF.GenerationSoftware,KiCad,Pcbnew,8.0.6*%
%TF.CreationDate,2025-08-04T00:11:35+02:00*%
%TF.ProjectId,reversible,72657665-7273-4696-926c-652e6b696361,v1.0.0*%
%TF.SameCoordinates,Original*%
%TF.FileFunction,Profile,NP*%
%FSLAX46Y46*%
G04 Gerber Fmt 4.6, Leading zero omitted, Abs format (unit mm)*
G04 Created by KiCad (PCBNEW 8.0.6) date 2025-08-04 00:11:35*
%MOMM*%
%LPD*%
G01*
G04 APERTURE LIST*
%TA.AperFunction,Profile*%
%ADD10C,0.150000*%
%TD*%
%TA.AperFunction,Profile*%
%ADD11C,0.100000*%
%TD*%
G04 APERTURE END LIST*
D10*
X217944958Y-102049452D02*
X212083119Y-117642063D01*
X175686985Y-111327557D02*
X159409063Y-111182904D01*
X218072880Y-101344849D02*
G75*
G02*
X217944955Y-102049451I-2000280J-750D01*
G01*
X95330187Y-108852417D02*
G75*
G02*
X93023454Y-107192928I-331386J1972319D01*
G01*
X212083119Y-117642063D02*
G75*
G02*
X209527000Y-118817664I-1872118J703865D01*
G01*
X162464376Y-32177557D02*
G75*
G02*
X163130007Y-32291591I-76J-2000144D01*
G01*
X175686985Y-111327557D02*
G75*
G02*
X175826244Y-111333656I-17685J-1996846D01*
G01*
X216047780Y-38177557D02*
G75*
G02*
X218047844Y-40176738I22J-2000042D01*
G01*
X180149546Y-38177557D02*
X216047780Y-38177557D01*
X192321563Y-112632772D02*
X175826244Y-111333655D01*
X158307887Y-110840685D02*
X143500490Y-100845690D01*
X141986693Y-100542756D02*
G75*
G02*
X143500469Y-100845721I394805J-1960646D01*
G01*
X127847100Y-103389286D02*
X95330187Y-108852417D01*
X102230487Y-53892294D02*
G75*
G02*
X101358994Y-54256065I-1184489J1611890D01*
G01*
X121942332Y-39406196D02*
G75*
G02*
X122479838Y-39125299I1184468J-1611804D01*
G01*
X127910583Y-103377566D02*
G75*
G02*
X127847100Y-103389285I-392683J1949466D01*
G01*
X93023437Y-107192931D02*
X85361100Y-58814806D01*
X218047780Y-40176738D02*
X218072880Y-101344849D01*
X102230487Y-53892294D02*
X121942332Y-39406196D01*
X142492468Y-32285051D02*
G75*
G02*
X143139321Y-32177556I646932J-1892950D01*
G01*
X87023606Y-56526560D02*
X101358993Y-54256059D01*
X122479838Y-39125299D02*
X142492468Y-32285051D01*
X141986693Y-100542756D02*
X127910583Y-103377566D01*
X209526999Y-118817666D02*
X192848577Y-112747211D01*
X163130011Y-32291579D02*
X179483907Y-38063542D01*
X143139321Y-32177555D02*
X162464376Y-32177557D01*
X159409063Y-111182904D02*
G75*
G02*
X158307893Y-110840676I17838J2000103D01*
G01*
X85361100Y-58814806D02*
G75*
G02*
X87023602Y-56526532I1975500J312805D01*
G01*
X192321563Y-112632772D02*
G75*
G02*
X192848576Y-112747213I-156964J-1993527D01*
G01*
X180149546Y-38177557D02*
G75*
G02*
X179483904Y-38063551I-46J1999957D01*
G01*
D11*
%TO.C,CPG1316*%
X125179502Y-97388974D02*
G75*
G02*
X124179498Y-97388974I-500002J0D01*
G01*
X124179498Y-97388974D02*
G75*
G02*
X125179502Y-97388974I500002J0D01*
G01*
X124419109Y-91956684D02*
G75*
G02*
X123219105Y-91956684I-600002J0D01*
G01*
X123219105Y-91956684D02*
G75*
G02*
X124419109Y-91956684I600002J0D01*
G01*
X113722313Y-99203612D02*
G75*
G02*
X112722313Y-99203612I-500000J0D01*
G01*
X112722313Y-99203612D02*
G75*
G02*
X113722313Y-99203612I500000J0D01*
G01*
X112961919Y-93771322D02*
G75*
G02*
X111761921Y-93771322I-599999J0D01*
G01*
X111761921Y-93771322D02*
G75*
G02*
X112961919Y-93771322I599999J0D01*
G01*
X176106960Y-84427561D02*
G75*
G02*
X175106958Y-84427561I-500001J0D01*
G01*
X175106958Y-84427561D02*
G75*
G02*
X176106960Y-84427561I500001J0D01*
G01*
X176206959Y-78927559D02*
G75*
G02*
X175006949Y-78927559I-600005J0D01*
G01*
X175006949Y-78927559D02*
G75*
G02*
X176206959Y-78927559I600005J0D01*
G01*
X164506959Y-84427557D02*
G75*
G02*
X163506969Y-84427557I-499995J0D01*
G01*
X163506969Y-84427557D02*
G75*
G02*
X164506959Y-84427557I499995J0D01*
G01*
X164606960Y-78927555D02*
G75*
G02*
X163406958Y-78927555I-600001J0D01*
G01*
X163406958Y-78927555D02*
G75*
G02*
X164606960Y-78927555I600001J0D01*
G01*
X139305570Y-50342527D02*
G75*
G02*
X138305568Y-50342527I-500001J0D01*
G01*
X138305568Y-50342527D02*
G75*
G02*
X139305570Y-50342527I500001J0D01*
G01*
X139021908Y-44855923D02*
G75*
G02*
X137821910Y-44855923I-599999J0D01*
G01*
X137821910Y-44855923D02*
G75*
G02*
X139021908Y-44855923I599999J0D01*
G01*
X127733827Y-51151703D02*
G75*
G02*
X126733827Y-51151703I-500000J0D01*
G01*
X126733827Y-51151703D02*
G75*
G02*
X127733827Y-51151703I500000J0D01*
G01*
X127450169Y-45665099D02*
G75*
G02*
X126250165Y-45665099I-600002J0D01*
G01*
X126250165Y-45665099D02*
G75*
G02*
X127450169Y-45665099I600002J0D01*
G01*
X175106960Y-104427559D02*
G75*
G02*
X174106958Y-104427559I-500001J0D01*
G01*
X174106958Y-104427559D02*
G75*
G02*
X175106960Y-104427559I500001J0D01*
G01*
X175206959Y-98927557D02*
G75*
G02*
X174006949Y-98927557I-600005J0D01*
G01*
X174006949Y-98927557D02*
G75*
G02*
X175206959Y-98927557I600005J0D01*
G01*
X163506959Y-104427555D02*
G75*
G02*
X162506969Y-104427555I-499995J0D01*
G01*
X162506969Y-104427555D02*
G75*
G02*
X163506959Y-104427555I499995J0D01*
G01*
X163606960Y-98927553D02*
G75*
G02*
X162406958Y-98927553I-600001J0D01*
G01*
X162406958Y-98927553D02*
G75*
G02*
X163606960Y-98927553I600001J0D01*
G01*
X105729417Y-83257651D02*
G75*
G02*
X104729413Y-83257651I-500002J0D01*
G01*
X104729413Y-83257651D02*
G75*
G02*
X105729417Y-83257651I500002J0D01*
G01*
X104969024Y-77825361D02*
G75*
G02*
X103769020Y-77825361I-600002J0D01*
G01*
X103769020Y-77825361D02*
G75*
G02*
X104969024Y-77825361I600002J0D01*
G01*
X94272228Y-85072289D02*
G75*
G02*
X93272228Y-85072289I-500000J0D01*
G01*
X93272228Y-85072289D02*
G75*
G02*
X94272228Y-85072289I500000J0D01*
G01*
X93511834Y-79639999D02*
G75*
G02*
X92311836Y-79639999I-599999J0D01*
G01*
X92311836Y-79639999D02*
G75*
G02*
X93511834Y-79639999I599999J0D01*
G01*
X193106963Y-52427562D02*
G75*
G02*
X192106961Y-52427562I-500001J0D01*
G01*
X192106961Y-52427562D02*
G75*
G02*
X193106963Y-52427562I500001J0D01*
G01*
X193206962Y-46927560D02*
G75*
G02*
X192006952Y-46927560I-600005J0D01*
G01*
X192006952Y-46927560D02*
G75*
G02*
X193206962Y-46927560I600005J0D01*
G01*
X181506962Y-52427558D02*
G75*
G02*
X180506972Y-52427558I-499995J0D01*
G01*
X180506972Y-52427558D02*
G75*
G02*
X181506962Y-52427558I499995J0D01*
G01*
X181606963Y-46927556D02*
G75*
G02*
X180406961Y-46927556I-600001J0D01*
G01*
X180406961Y-46927556D02*
G75*
G02*
X181606963Y-46927556I600001J0D01*
G01*
X140491433Y-67301118D02*
G75*
G02*
X139491431Y-67301118I-500001J0D01*
G01*
X139491431Y-67301118D02*
G75*
G02*
X140491433Y-67301118I500001J0D01*
G01*
X140207771Y-61814514D02*
G75*
G02*
X139007773Y-61814514I-599999J0D01*
G01*
X139007773Y-61814514D02*
G75*
G02*
X140207771Y-61814514I599999J0D01*
G01*
X128919690Y-68110294D02*
G75*
G02*
X127919690Y-68110294I-500000J0D01*
G01*
X127919690Y-68110294D02*
G75*
G02*
X128919690Y-68110294I500000J0D01*
G01*
X128636032Y-62623690D02*
G75*
G02*
X127436028Y-62623690I-600002J0D01*
G01*
X127436028Y-62623690D02*
G75*
G02*
X128636032Y-62623690I600002J0D01*
G01*
X141677293Y-84259709D02*
G75*
G02*
X140677291Y-84259709I-500001J0D01*
G01*
X140677291Y-84259709D02*
G75*
G02*
X141677293Y-84259709I500001J0D01*
G01*
X141393631Y-78773105D02*
G75*
G02*
X140193633Y-78773105I-599999J0D01*
G01*
X140193633Y-78773105D02*
G75*
G02*
X141393631Y-78773105I599999J0D01*
G01*
X130105550Y-85068885D02*
G75*
G02*
X129105550Y-85068885I-500000J0D01*
G01*
X129105550Y-85068885D02*
G75*
G02*
X130105550Y-85068885I500000J0D01*
G01*
X129821892Y-79582281D02*
G75*
G02*
X128621888Y-79582281I-600002J0D01*
G01*
X128621888Y-79582281D02*
G75*
G02*
X129821892Y-79582281I600002J0D01*
G01*
X176106963Y-50427559D02*
G75*
G02*
X175106961Y-50427559I-500001J0D01*
G01*
X175106961Y-50427559D02*
G75*
G02*
X176106963Y-50427559I500001J0D01*
G01*
X176206962Y-44927557D02*
G75*
G02*
X175006952Y-44927557I-600005J0D01*
G01*
X175006952Y-44927557D02*
G75*
G02*
X176206962Y-44927557I600005J0D01*
G01*
X164506962Y-50427555D02*
G75*
G02*
X163506972Y-50427555I-499995J0D01*
G01*
X163506972Y-50427555D02*
G75*
G02*
X164506962Y-50427555I499995J0D01*
G01*
X164606963Y-44927553D02*
G75*
G02*
X163406961Y-44927553I-600001J0D01*
G01*
X163406961Y-44927553D02*
G75*
G02*
X164606963Y-44927553I600001J0D01*
G01*
X159106959Y-61427559D02*
G75*
G02*
X158106957Y-61427559I-500001J0D01*
G01*
X158106957Y-61427559D02*
G75*
G02*
X159106959Y-61427559I500001J0D01*
G01*
X159206958Y-55927557D02*
G75*
G02*
X158006948Y-55927557I-600005J0D01*
G01*
X158006948Y-55927557D02*
G75*
G02*
X159206958Y-55927557I600005J0D01*
G01*
X147506958Y-61427555D02*
G75*
G02*
X146506968Y-61427555I-499995J0D01*
G01*
X146506968Y-61427555D02*
G75*
G02*
X147506958Y-61427555I499995J0D01*
G01*
X147606959Y-55927553D02*
G75*
G02*
X146406957Y-55927553I-600001J0D01*
G01*
X146406957Y-55927553D02*
G75*
G02*
X147606959Y-55927553I600001J0D01*
G01*
X193106964Y-69427561D02*
G75*
G02*
X192106962Y-69427561I-500001J0D01*
G01*
X192106962Y-69427561D02*
G75*
G02*
X193106964Y-69427561I500001J0D01*
G01*
X193206963Y-63927559D02*
G75*
G02*
X192006953Y-63927559I-600005J0D01*
G01*
X192006953Y-63927559D02*
G75*
G02*
X193206963Y-63927559I600005J0D01*
G01*
X181506963Y-69427557D02*
G75*
G02*
X180506973Y-69427557I-499995J0D01*
G01*
X180506973Y-69427557D02*
G75*
G02*
X181506963Y-69427557I499995J0D01*
G01*
X181606964Y-63927555D02*
G75*
G02*
X180406962Y-63927555I-600001J0D01*
G01*
X180406962Y-63927555D02*
G75*
G02*
X181606964Y-63927555I600001J0D01*
G01*
X103070029Y-66466953D02*
G75*
G02*
X102070025Y-66466953I-500002J0D01*
G01*
X102070025Y-66466953D02*
G75*
G02*
X103070029Y-66466953I500002J0D01*
G01*
X102309636Y-61034663D02*
G75*
G02*
X101109632Y-61034663I-600002J0D01*
G01*
X101109632Y-61034663D02*
G75*
G02*
X102309636Y-61034663I600002J0D01*
G01*
X91612840Y-68281591D02*
G75*
G02*
X90612840Y-68281591I-500000J0D01*
G01*
X90612840Y-68281591D02*
G75*
G02*
X91612840Y-68281591I500000J0D01*
G01*
X90852446Y-62849301D02*
G75*
G02*
X89652448Y-62849301I-599999J0D01*
G01*
X89652448Y-62849301D02*
G75*
G02*
X90852446Y-62849301I599999J0D01*
G01*
X159106965Y-44427561D02*
G75*
G02*
X158106963Y-44427561I-500001J0D01*
G01*
X158106963Y-44427561D02*
G75*
G02*
X159106965Y-44427561I500001J0D01*
G01*
X159206964Y-38927559D02*
G75*
G02*
X158006954Y-38927559I-600005J0D01*
G01*
X158006954Y-38927559D02*
G75*
G02*
X159206964Y-38927559I600005J0D01*
G01*
X147506964Y-44427557D02*
G75*
G02*
X146506974Y-44427557I-499995J0D01*
G01*
X146506974Y-44427557D02*
G75*
G02*
X147506964Y-44427557I499995J0D01*
G01*
X147606965Y-38927555D02*
G75*
G02*
X146406963Y-38927555I-600001J0D01*
G01*
X146406963Y-38927555D02*
G75*
G02*
X147606965Y-38927555I600001J0D01*
G01*
X193106961Y-86427559D02*
G75*
G02*
X192106959Y-86427559I-500001J0D01*
G01*
X192106959Y-86427559D02*
G75*
G02*
X193106961Y-86427559I500001J0D01*
G01*
X193206960Y-80927557D02*
G75*
G02*
X192006950Y-80927557I-600005J0D01*
G01*
X192006950Y-80927557D02*
G75*
G02*
X193206960Y-80927557I600005J0D01*
G01*
X181506960Y-86427555D02*
G75*
G02*
X180506970Y-86427555I-499995J0D01*
G01*
X180506970Y-86427555D02*
G75*
G02*
X181506960Y-86427555I499995J0D01*
G01*
X181606961Y-80927553D02*
G75*
G02*
X180406959Y-80927553I-600001J0D01*
G01*
X180406959Y-80927553D02*
G75*
G02*
X181606961Y-80927553I600001J0D01*
G01*
X119860730Y-63807563D02*
G75*
G02*
X118860726Y-63807563I-500002J0D01*
G01*
X118860726Y-63807563D02*
G75*
G02*
X119860730Y-63807563I500002J0D01*
G01*
X119100337Y-58375273D02*
G75*
G02*
X117900333Y-58375273I-600002J0D01*
G01*
X117900333Y-58375273D02*
G75*
G02*
X119100337Y-58375273I600002J0D01*
G01*
X108403541Y-65622201D02*
G75*
G02*
X107403541Y-65622201I-500000J0D01*
G01*
X107403541Y-65622201D02*
G75*
G02*
X108403541Y-65622201I500000J0D01*
G01*
X107643147Y-60189911D02*
G75*
G02*
X106443149Y-60189911I-599999J0D01*
G01*
X106443149Y-60189911D02*
G75*
G02*
X107643147Y-60189911I599999J0D01*
G01*
X212229741Y-106546831D02*
G75*
G02*
X211029737Y-106546831I-600002J0D01*
G01*
X211029737Y-106546831D02*
G75*
G02*
X212229741Y-106546831I600002J0D01*
G01*
X210248628Y-111715138D02*
G75*
G02*
X209248630Y-111715138I-499999J0D01*
G01*
X209248630Y-111715138D02*
G75*
G02*
X210248628Y-111715138I499999J0D01*
G01*
X201329312Y-102579402D02*
G75*
G02*
X200129306Y-102579402I-600003J0D01*
G01*
X200129306Y-102579402D02*
G75*
G02*
X201329312Y-102579402I600003J0D01*
G01*
X199348192Y-107747709D02*
G75*
G02*
X198348206Y-107747709I-499993J0D01*
G01*
X198348206Y-107747709D02*
G75*
G02*
X199348192Y-107747709I499993J0D01*
G01*
X159106965Y-78427562D02*
G75*
G02*
X158106963Y-78427562I-500001J0D01*
G01*
X158106963Y-78427562D02*
G75*
G02*
X159106965Y-78427562I500001J0D01*
G01*
X159206964Y-72927560D02*
G75*
G02*
X158006954Y-72927560I-600005J0D01*
G01*
X158006954Y-72927560D02*
G75*
G02*
X159206964Y-72927560I600005J0D01*
G01*
X147506964Y-78427558D02*
G75*
G02*
X146506974Y-78427558I-499995J0D01*
G01*
X146506974Y-78427558D02*
G75*
G02*
X147506964Y-78427558I499995J0D01*
G01*
X147606965Y-72927556D02*
G75*
G02*
X146406963Y-72927556I-600001J0D01*
G01*
X146406963Y-72927556D02*
G75*
G02*
X147606965Y-72927556I600001J0D01*
G01*
D10*
%TO.C,REF\u002A\u002A*%
X211806961Y-47209059D02*
G75*
G02*
X211806958Y-46309061I-2J449999D01*
G01*
X211806958Y-49114065D02*
G75*
G02*
X211806957Y-48214051I-2J450007D01*
G01*
X208021962Y-40859064D02*
G75*
G02*
X208021958Y-39959054I-3J450005D01*
G01*
X208021957Y-43399059D02*
G75*
G02*
X208021961Y-42499063I1J449998D01*
G01*
X205481955Y-42499063D02*
G75*
G02*
X205481959Y-43399053I4J-449995D01*
G01*
X205481956Y-39959063D02*
G75*
G02*
X205481961Y-40859057I4J-449997D01*
G01*
X201806958Y-48214057D02*
G75*
G02*
X201806959Y-49114061I1J-450002D01*
G01*
X201806959Y-46309058D02*
G75*
G02*
X201806955Y-47209064I-4J-450003D01*
G01*
X211806961Y-49577556D02*
X211806958Y-49114065D01*
X211806958Y-45877560D02*
X208806961Y-45877558D01*
X211806958Y-46309060D02*
X211806958Y-45877560D01*
X211806957Y-48214062D02*
X211806961Y-47209059D01*
X208806961Y-45877558D02*
X208806960Y-49577561D01*
X208806960Y-49577561D02*
X211806961Y-49577556D01*
X208021962Y-40859064D02*
X208021961Y-42499056D01*
X208021957Y-43399059D02*
X205481959Y-43399060D01*
X205481955Y-42499063D02*
X205481961Y-40859060D01*
X205481956Y-39959063D02*
X208021958Y-39959058D01*
X204806959Y-45877557D02*
X204806957Y-49577561D01*
X204806957Y-49577561D02*
X201806959Y-49577561D01*
X201806958Y-48214057D02*
X201806955Y-47209063D01*
X201806959Y-46309058D02*
X201806960Y-45877558D01*
X201806960Y-45877558D02*
X204806959Y-45877557D01*
X201806959Y-49577561D02*
X201806959Y-49114060D01*
D11*
%TO.C,CPG1316*%
X108388802Y-100048356D02*
G75*
G02*
X107388798Y-100048356I-500002J0D01*
G01*
X107388798Y-100048356D02*
G75*
G02*
X108388802Y-100048356I500002J0D01*
G01*
X107628409Y-94616066D02*
G75*
G02*
X106428405Y-94616066I-600002J0D01*
G01*
X106428405Y-94616066D02*
G75*
G02*
X107628409Y-94616066I600002J0D01*
G01*
X96931613Y-101862994D02*
G75*
G02*
X95931613Y-101862994I-500000J0D01*
G01*
X95931613Y-101862994D02*
G75*
G02*
X96931613Y-101862994I500000J0D01*
G01*
X96171219Y-96430704D02*
G75*
G02*
X94971221Y-96430704I-599999J0D01*
G01*
X94971221Y-96430704D02*
G75*
G02*
X96171219Y-96430704I599999J0D01*
G01*
X122520121Y-80598266D02*
G75*
G02*
X121520117Y-80598266I-500002J0D01*
G01*
X121520117Y-80598266D02*
G75*
G02*
X122520121Y-80598266I500002J0D01*
G01*
X121759728Y-75165976D02*
G75*
G02*
X120559724Y-75165976I-600002J0D01*
G01*
X120559724Y-75165976D02*
G75*
G02*
X121759728Y-75165976I600002J0D01*
G01*
X111062932Y-82412904D02*
G75*
G02*
X110062932Y-82412904I-500000J0D01*
G01*
X110062932Y-82412904D02*
G75*
G02*
X111062932Y-82412904I500000J0D01*
G01*
X110302538Y-76980614D02*
G75*
G02*
X109102540Y-76980614I-599999J0D01*
G01*
X109102540Y-76980614D02*
G75*
G02*
X110302538Y-76980614I599999J0D01*
G01*
X193164255Y-100501850D02*
G75*
G02*
X191964259Y-100501850I-599998J0D01*
G01*
X191964259Y-100501850D02*
G75*
G02*
X193164255Y-100501850I599998J0D01*
G01*
X192584901Y-105980921D02*
G75*
G02*
X191584901Y-105980921I-500000J0D01*
G01*
X191584901Y-105980921D02*
G75*
G02*
X192584901Y-105980921I500000J0D01*
G01*
X181608394Y-99490847D02*
G75*
G02*
X180408396Y-99490847I-599999J0D01*
G01*
X180408396Y-99490847D02*
G75*
G02*
X181608394Y-99490847I599999J0D01*
G01*
X181029040Y-104969918D02*
G75*
G02*
X180029038Y-104969918I-500001J0D01*
G01*
X180029038Y-104969918D02*
G75*
G02*
X181029040Y-104969918I500001J0D01*
G01*
X176106961Y-67427563D02*
G75*
G02*
X175106959Y-67427563I-500001J0D01*
G01*
X175106959Y-67427563D02*
G75*
G02*
X176106961Y-67427563I500001J0D01*
G01*
X176206960Y-61927561D02*
G75*
G02*
X175006950Y-61927561I-600005J0D01*
G01*
X175006950Y-61927561D02*
G75*
G02*
X176206960Y-61927561I600005J0D01*
G01*
X164506960Y-67427559D02*
G75*
G02*
X163506970Y-67427559I-499995J0D01*
G01*
X163506970Y-67427559D02*
G75*
G02*
X164506960Y-67427559I499995J0D01*
G01*
X164606961Y-61927557D02*
G75*
G02*
X163406959Y-61927557I-600001J0D01*
G01*
X163406959Y-61927557D02*
G75*
G02*
X164606961Y-61927557I600001J0D01*
G01*
%TD*%
M02*
