M48
; DRILL file {KiCad 9.0.3} date 2025-08-17T23:49:47+0200
; FORMAT={-:-/ absolute / inch / decimal}
; #@! TF.CreationDate,2025-08-17T23:49:47+02:00
; #@! TF.GenerationSoftware,Kicad,Pcbnew,9.0.3
; #@! TF.FileFunction,NonPlated,1,2,NPTH
FMAT,2
INCH
; #@! TA.AperFunction,NonPlated,NPTH,ComponentDrill
T1C0.0354
; #@! TA.AperFunction,NonPlated,NPTH,ComponentDrill
T2C0.0866
%
G90
G05
T1
X6.5197Y-1.374
X6.6311Y-1.4133
X7.842Y-1.6283
X7.842Y-1.7283
X7.842Y-1.8283
X7.842Y-1.9283
X7.842Y-2.1283
X7.842Y-2.2283
X7.842Y-2.0283
X8.442Y-1.8283
X8.442Y-1.6283
X8.442Y-1.7283
X8.442Y-1.9283
X8.442Y-2.0283
X8.442Y-2.1283
X8.442Y-2.2283
T2
X5.3583Y-3.7327
X5.5354Y-1.4111
X5.9373Y-3.7275
X8.4316Y-3.8288
M30
