%TF.GenerationSoftware,KiCad,Pcbnew,9.0.3*%
%TF.CreationDate,2025-08-18T11:50:05+02:00*%
%TF.ProjectId,reversible,72657665-7273-4696-926c-652e6b696361,v1.0.0*%
%TF.SameCoordinates,Original*%
%TF.FileFunction,Legend,Top*%
%TF.FilePolarity,Positive*%
%FSLAX46Y46*%
G04 Gerber Fmt 4.6, Leading zero omitted, Abs format (unit mm)*
G04 Created by KiCad (PCBNEW 9.0.3) date 2025-08-18 11:50:05*
%MOMM*%
%LPD*%
G01*
G04 APERTURE LIST*
%ADD10C,0.150000*%
%ADD11C,0.106680*%
%ADD12C,0.120000*%
%ADD13C,0.100000*%
%ADD14C,0.127000*%
%ADD15C,0.504001*%
%ADD16C,0.504000*%
G04 APERTURE END LIST*
D10*
X170892505Y-37800589D02*
X170955773Y-37620927D01*
X170955773Y-37620927D02*
X171032323Y-37546914D01*
X171032323Y-37546914D02*
X171153788Y-37488717D01*
X171153788Y-37488717D02*
X171349267Y-37507071D01*
X171349267Y-37507071D02*
X171663675Y-37617791D01*
X171663675Y-37617791D02*
X171827519Y-37725975D01*
X171827519Y-37725975D02*
X171885715Y-37847440D01*
X171885715Y-37847440D02*
X171898996Y-37953088D01*
X171898996Y-37953088D02*
X171835727Y-38132750D01*
X171835727Y-38132750D02*
X171759178Y-38206763D01*
X171759178Y-38206763D02*
X171637712Y-38264960D01*
X171637712Y-38264960D02*
X171442234Y-38246606D01*
X171442234Y-38246606D02*
X171127826Y-38135886D01*
X171127826Y-38135886D02*
X170963982Y-38027702D01*
X170963982Y-38027702D02*
X170905786Y-37906236D01*
X170905786Y-37906236D02*
X170892505Y-37800589D01*
X171737088Y-36835876D02*
X171626368Y-37150284D01*
X172120437Y-37324273D02*
X171177214Y-36992112D01*
X171177214Y-36992112D02*
X171335386Y-36542958D01*
X172021798Y-36027400D02*
X171911077Y-36341807D01*
X172405146Y-36515796D02*
X171461924Y-36183635D01*
X171461924Y-36183635D02*
X171620096Y-35734482D01*
X161570997Y-34164565D02*
X161634266Y-33984904D01*
X161634266Y-33984904D02*
X161710815Y-33910890D01*
X161710815Y-33910890D02*
X161832281Y-33852694D01*
X161832281Y-33852694D02*
X162027759Y-33871047D01*
X162027759Y-33871047D02*
X162342167Y-33981768D01*
X162342167Y-33981768D02*
X162506011Y-34089952D01*
X162506011Y-34089952D02*
X162564207Y-34211417D01*
X162564207Y-34211417D02*
X162577488Y-34317065D01*
X162577488Y-34317065D02*
X162514220Y-34496726D01*
X162514220Y-34496726D02*
X162437670Y-34570740D01*
X162437670Y-34570740D02*
X162316205Y-34628936D01*
X162316205Y-34628936D02*
X162120726Y-34610583D01*
X162120726Y-34610583D02*
X161806318Y-34499862D01*
X161806318Y-34499862D02*
X161642474Y-34391678D01*
X161642474Y-34391678D02*
X161584278Y-34270213D01*
X161584278Y-34270213D02*
X161570997Y-34164565D01*
X162798929Y-33688250D02*
X161855706Y-33356089D01*
X161855706Y-33356089D02*
X162988735Y-33149266D01*
X162988735Y-33149266D02*
X162045513Y-32817104D01*
X116587555Y-48663610D02*
X116034765Y-48483912D01*
X116131192Y-49007504D02*
X115529377Y-48208868D01*
X115529377Y-48208868D02*
X115833619Y-47979606D01*
X115833619Y-47979606D02*
X115938338Y-47960320D01*
X115938338Y-47960320D02*
X116005026Y-47969692D01*
X116005026Y-47969692D02*
X116100372Y-48017095D01*
X116100372Y-48017095D02*
X116186345Y-48131186D01*
X116186345Y-48131186D02*
X116205631Y-48235904D01*
X116205631Y-48235904D02*
X116196258Y-48302592D01*
X116196258Y-48302592D02*
X116148856Y-48397938D01*
X116148856Y-48397938D02*
X115844614Y-48627201D01*
X116863140Y-48396316D02*
X117005888Y-48348373D01*
X117005888Y-48348373D02*
X117196040Y-48205084D01*
X117196040Y-48205084D02*
X117243442Y-48109738D01*
X117243442Y-48109738D02*
X117252815Y-48043050D01*
X117252815Y-48043050D02*
X117233529Y-47938331D01*
X117233529Y-47938331D02*
X117176213Y-47862271D01*
X117176213Y-47862271D02*
X117080867Y-47814868D01*
X117080867Y-47814868D02*
X117014179Y-47805496D01*
X117014179Y-47805496D02*
X116909461Y-47824781D01*
X116909461Y-47824781D02*
X116728682Y-47901382D01*
X116728682Y-47901382D02*
X116623964Y-47920668D01*
X116623964Y-47920668D02*
X116557276Y-47911295D01*
X116557276Y-47911295D02*
X116461930Y-47863893D01*
X116461930Y-47863893D02*
X116404614Y-47787832D01*
X116404614Y-47787832D02*
X116385328Y-47683114D01*
X116385328Y-47683114D02*
X116394701Y-47616426D01*
X116394701Y-47616426D02*
X116442103Y-47521080D01*
X116442103Y-47521080D02*
X116632255Y-47377790D01*
X116632255Y-47377790D02*
X116775003Y-47329847D01*
X116974527Y-47119870D02*
X117430890Y-46775975D01*
X117804524Y-47746558D02*
X117202709Y-46947923D01*
D11*
X197215163Y-36587436D02*
X197982427Y-37130889D01*
X197702069Y-36400530D02*
X197495521Y-37317794D01*
X198260659Y-37024086D02*
X197980301Y-36293727D01*
X198493567Y-36695258D02*
X198841357Y-36561754D01*
X198504112Y-36930633D02*
X198467206Y-36106821D01*
X198467206Y-36106821D02*
X198991018Y-36743727D01*
X199093228Y-35866514D02*
X199232344Y-35813113D01*
X199232344Y-35813113D02*
X199315252Y-35821191D01*
X199315252Y-35821191D02*
X199411511Y-35864048D01*
X199411511Y-35864048D02*
X199499692Y-35989813D01*
X199499692Y-35989813D02*
X199593144Y-36233266D01*
X199593144Y-36233266D02*
X199611767Y-36385733D01*
X199611767Y-36385733D02*
X199568910Y-36481991D01*
X199568910Y-36481991D02*
X199512702Y-36543471D01*
X199512702Y-36543471D02*
X199373586Y-36596873D01*
X199373586Y-36596873D02*
X199290678Y-36588795D01*
X199290678Y-36588795D02*
X199194419Y-36545938D01*
X199194419Y-36545938D02*
X199106239Y-36420172D01*
X199106239Y-36420172D02*
X199012786Y-36176719D01*
X199012786Y-36176719D02*
X198994163Y-36024253D01*
X198994163Y-36024253D02*
X199037020Y-35927994D01*
X199037020Y-35927994D02*
X199093228Y-35866514D01*
X200096206Y-35880544D02*
X200213894Y-35875272D01*
X200213894Y-35875272D02*
X200262023Y-35896701D01*
X200262023Y-35896701D02*
X200323503Y-35952908D01*
X200323503Y-35952908D02*
X200363554Y-36057245D01*
X200363554Y-36057245D02*
X200355476Y-36140153D01*
X200355476Y-36140153D02*
X200334047Y-36188283D01*
X200334047Y-36188283D02*
X200277840Y-36249763D01*
X200277840Y-36249763D02*
X199999608Y-36356566D01*
X199999608Y-36356566D02*
X199719249Y-35626207D01*
X199719249Y-35626207D02*
X199962702Y-35532754D01*
X199962702Y-35532754D02*
X200045611Y-35540832D01*
X200045611Y-35540832D02*
X200093740Y-35562261D01*
X200093740Y-35562261D02*
X200155220Y-35618469D01*
X200155220Y-35618469D02*
X200181920Y-35688027D01*
X200181920Y-35688027D02*
X200173842Y-35770935D01*
X200173842Y-35770935D02*
X200152414Y-35819064D01*
X200152414Y-35819064D02*
X200096206Y-35880544D01*
X200096206Y-35880544D02*
X199852753Y-35973997D01*
X201077756Y-35942703D02*
X200729966Y-36076207D01*
X200729966Y-36076207D02*
X200449608Y-35345849D01*
X201174355Y-35466682D02*
X201417808Y-35373229D01*
X201668999Y-35715746D02*
X201321209Y-35849250D01*
X201321209Y-35849250D02*
X201040851Y-35118892D01*
X201040851Y-35118892D02*
X201388641Y-34985388D01*
D12*
%TO.C,PWR1*%
X163890697Y-33885176D02*
X163628280Y-34630312D01*
X165213119Y-36301632D02*
X165024480Y-36235201D01*
X168042785Y-37298112D02*
X166439310Y-36733437D01*
X170136517Y-36922228D02*
X170398928Y-36177078D01*
X170168471Y-35025123D02*
X164792108Y-33131805D01*
D13*
%TO.C,D15*%
X169056962Y-44977557D02*
X169456963Y-44977560D01*
X169456963Y-44977560D02*
X169456965Y-44427561D01*
X169456963Y-44977560D02*
X169456966Y-45527563D01*
X169456963Y-44977560D02*
X170056959Y-44577556D01*
X170056955Y-45377565D02*
X169456963Y-44977560D01*
X170056959Y-44577556D02*
X170056955Y-45377565D01*
X170056963Y-44977561D02*
X170556958Y-44977563D01*
%TO.C,D20*%
X186034824Y-99980793D02*
X186433302Y-100015652D01*
X186433302Y-100015652D02*
X186385367Y-100563556D01*
X186433302Y-100015652D02*
X186481241Y-99467750D01*
X186433302Y-100015652D02*
X187065884Y-99669465D01*
X186996159Y-100466429D02*
X186433302Y-100015652D01*
X187031023Y-100067950D02*
X187529118Y-100111523D01*
X187065884Y-99669465D02*
X186996159Y-100466429D01*
%TO.C,D12*%
X152056965Y-38977557D02*
X152456966Y-38977560D01*
X152456966Y-38977560D02*
X152456968Y-38427561D01*
X152456966Y-38977560D02*
X152456969Y-39527563D01*
X152456966Y-38977560D02*
X153056962Y-38577556D01*
X153056958Y-39377565D02*
X152456966Y-38977560D01*
X153056962Y-38577556D02*
X153056958Y-39377565D01*
X153056966Y-38977561D02*
X153556961Y-38977563D01*
%TO.C,D8*%
X133077209Y-62321300D02*
X133476240Y-62293401D01*
X133476240Y-62293401D02*
X133437870Y-61744741D01*
X133476240Y-62293401D02*
X133514606Y-62842064D01*
X133476240Y-62293401D02*
X134046868Y-61852522D01*
X134046868Y-61852522D02*
X134102682Y-62650572D01*
X134074778Y-62251543D02*
X134573565Y-62216670D01*
X134102682Y-62650572D02*
X133476240Y-62293401D01*
D10*
%TO.C,RST1*%
X113302106Y-48378647D02*
X113452559Y-48578303D01*
X113302106Y-48378647D02*
X118093917Y-44767749D01*
X115408457Y-51173871D02*
X115258005Y-50974212D01*
X115408457Y-51173871D02*
X120200268Y-47562973D01*
X118093917Y-44767749D02*
X118244369Y-44967408D01*
X120200268Y-47562973D02*
X120049815Y-47363317D01*
D13*
%TO.C,D2*%
X97907487Y-78899389D02*
X98302564Y-78836821D01*
X98302564Y-78836821D02*
X98216515Y-78293594D01*
X98302564Y-78836821D02*
X98388601Y-79380048D01*
X98302564Y-78836821D02*
X98832602Y-78347880D01*
X98832602Y-78347880D02*
X98957747Y-79138037D01*
X98895170Y-78742956D02*
X99389017Y-78664747D01*
X98957747Y-79138037D02*
X98302564Y-78836821D01*
%TO.C,D11*%
X152056964Y-55977556D02*
X152456965Y-55977559D01*
X152456965Y-55977559D02*
X152456967Y-55427560D01*
X152456965Y-55977559D02*
X152456968Y-56527562D01*
X152456965Y-55977559D02*
X153056961Y-55577555D01*
X153056957Y-56377564D02*
X152456965Y-55977559D01*
X153056961Y-55577555D02*
X153056957Y-56377564D01*
X153056965Y-55977560D02*
X153556960Y-55977562D01*
%TO.C,D13*%
X169056967Y-78977554D02*
X169456968Y-78977557D01*
X169456968Y-78977557D02*
X169456970Y-78427558D01*
X169456968Y-78977557D02*
X169456971Y-79527560D01*
X169456968Y-78977557D02*
X170056964Y-78577553D01*
X170056960Y-79377562D02*
X169456968Y-78977557D01*
X170056964Y-78577553D02*
X170056960Y-79377562D01*
X170056968Y-78977558D02*
X170556963Y-78977560D01*
%TO.C,D10*%
X152056961Y-72977557D02*
X152456962Y-72977560D01*
X152456962Y-72977560D02*
X152456964Y-72427561D01*
X152456962Y-72977560D02*
X152456965Y-73527563D01*
X152456962Y-72977560D02*
X153056958Y-72577556D01*
X153056954Y-73377565D02*
X152456962Y-72977560D01*
X153056958Y-72577556D02*
X153056954Y-73377565D01*
X153056962Y-72977561D02*
X153556957Y-72977563D01*
%TO.C,D6*%
X112038803Y-59449299D02*
X112433880Y-59386731D01*
X112433880Y-59386731D02*
X112347831Y-58843504D01*
X112433880Y-59386731D02*
X112519917Y-59929958D01*
X112433880Y-59386731D02*
X112963918Y-58897790D01*
X112963918Y-58897790D02*
X113089063Y-59687947D01*
X113026486Y-59292866D02*
X113520333Y-59214657D01*
X113089063Y-59687947D02*
X112433880Y-59386731D01*
%TO.C,D21*%
X205457652Y-104353574D02*
X205833540Y-104490384D01*
X205833540Y-104490384D02*
X205645418Y-105007219D01*
X205833540Y-104490384D02*
X206021644Y-103973551D01*
X205833540Y-104490384D02*
X206534156Y-104319719D01*
X206260539Y-105071469D02*
X205833540Y-104490384D01*
X206397347Y-104695595D02*
X206867196Y-104866606D01*
X206534156Y-104319719D02*
X206260539Y-105071469D01*
%TO.C,D19*%
X168056963Y-98977552D02*
X168456964Y-98977555D01*
X168456964Y-98977555D02*
X168456966Y-98427556D01*
X168456964Y-98977555D02*
X168456967Y-99527558D01*
X168456964Y-98977555D02*
X169056960Y-98577551D01*
X169056956Y-99377560D02*
X168456964Y-98977555D01*
X169056960Y-98577551D02*
X169056956Y-99377560D01*
X169056964Y-98977556D02*
X169556959Y-98977558D01*
%TO.C,D5*%
X114698189Y-76240005D02*
X115093266Y-76177437D01*
X115093266Y-76177437D02*
X115007217Y-75634210D01*
X115093266Y-76177437D02*
X115179303Y-76720664D01*
X115093266Y-76177437D02*
X115623304Y-75688496D01*
X115623304Y-75688496D02*
X115748449Y-76478653D01*
X115685872Y-76083572D02*
X116179719Y-76005363D01*
X115748449Y-76478653D02*
X115093266Y-76177437D01*
%TO.C,D17*%
X186056960Y-63977553D02*
X186456961Y-63977556D01*
X186456961Y-63977556D02*
X186456963Y-63427557D01*
X186456961Y-63977556D02*
X186456964Y-64527559D01*
X186456961Y-63977556D02*
X187056957Y-63577552D01*
X187056953Y-64377561D02*
X186456961Y-63977556D01*
X187056957Y-63577552D02*
X187056953Y-64377561D01*
X187056961Y-63977557D02*
X187556956Y-63977559D01*
%TO.C,D7*%
X134263067Y-79279884D02*
X134662098Y-79251985D01*
X134662098Y-79251985D02*
X134623728Y-78703325D01*
X134662098Y-79251985D02*
X134700464Y-79800648D01*
X134662098Y-79251985D02*
X135232726Y-78811106D01*
X135232726Y-78811106D02*
X135288540Y-79609156D01*
X135260636Y-79210127D02*
X135759423Y-79175254D01*
X135288540Y-79609156D02*
X134662098Y-79251985D01*
%TO.C,D3*%
X95248098Y-62108684D02*
X95643175Y-62046116D01*
X95643175Y-62046116D02*
X95557126Y-61502889D01*
X95643175Y-62046116D02*
X95729212Y-62589343D01*
X95643175Y-62046116D02*
X96173213Y-61557175D01*
X96173213Y-61557175D02*
X96298358Y-62347332D01*
X96235781Y-61952251D02*
X96729628Y-61874042D01*
X96298358Y-62347332D02*
X95643175Y-62046116D01*
%TO.C,D4*%
X117357575Y-93030706D02*
X117752652Y-92968138D01*
X117752652Y-92968138D02*
X117666603Y-92424911D01*
X117752652Y-92968138D02*
X117838689Y-93511365D01*
X117752652Y-92968138D02*
X118282690Y-92479197D01*
X118282690Y-92479197D02*
X118407835Y-93269354D01*
X118345258Y-92874273D02*
X118839105Y-92796064D01*
X118407835Y-93269354D02*
X117752652Y-92968138D01*
%TO.C,D16*%
X186056964Y-80977550D02*
X186456965Y-80977553D01*
X186456965Y-80977553D02*
X186456967Y-80427554D01*
X186456965Y-80977553D02*
X186456968Y-81527556D01*
X186456965Y-80977553D02*
X187056961Y-80577549D01*
X187056957Y-81377558D02*
X186456965Y-80977553D01*
X187056961Y-80577549D02*
X187056957Y-81377558D01*
X187056965Y-80977554D02*
X187556960Y-80977556D01*
%TO.C,D14*%
X169056965Y-61977551D02*
X169456966Y-61977554D01*
X169456966Y-61977554D02*
X169456968Y-61427555D01*
X169456966Y-61977554D02*
X169456969Y-62527557D01*
X169456966Y-61977554D02*
X170056962Y-61577550D01*
X170056958Y-62377559D02*
X169456966Y-61977554D01*
X170056962Y-61577550D02*
X170056958Y-62377559D01*
X170056966Y-61977555D02*
X170556961Y-61977557D01*
%TO.C,D1*%
X100566872Y-95690092D02*
X100961949Y-95627524D01*
X100961949Y-95627524D02*
X100875900Y-95084297D01*
X100961949Y-95627524D02*
X101047986Y-96170751D01*
X100961949Y-95627524D02*
X101491987Y-95138583D01*
X101491987Y-95138583D02*
X101617132Y-95928740D01*
X101554555Y-95533659D02*
X102048402Y-95455450D01*
X101617132Y-95928740D02*
X100961949Y-95627524D01*
%TO.C,D18*%
X186056964Y-46977555D02*
X186456965Y-46977558D01*
X186456965Y-46977558D02*
X186456967Y-46427559D01*
X186456965Y-46977558D02*
X186456968Y-47527561D01*
X186456965Y-46977558D02*
X187056961Y-46577554D01*
X187056957Y-47377563D02*
X186456965Y-46977558D01*
X187056961Y-46577554D02*
X187056957Y-47377563D01*
X187056965Y-46977559D02*
X187556960Y-46977561D01*
%TO.C,D9*%
X131891355Y-45362708D02*
X132290386Y-45334809D01*
X132290386Y-45334809D02*
X132252016Y-44786149D01*
X132290386Y-45334809D02*
X132328752Y-45883472D01*
X132290386Y-45334809D02*
X132861014Y-44893930D01*
X132861014Y-44893930D02*
X132916828Y-45691980D01*
X132888924Y-45292951D02*
X133387711Y-45258078D01*
X132916828Y-45691980D02*
X132290386Y-45334809D01*
%TO.C,JST1*%
X198029994Y-60770001D02*
X199029999Y-60770000D01*
X203129997Y-60269997D02*
X203129996Y-61269996D01*
X203629996Y-60770003D02*
X202630001Y-60770000D01*
%TO.C,XIAOBLE*%
X197861961Y-57490559D02*
X197861961Y-40345559D01*
X199766961Y-59395560D02*
X213736961Y-59395559D01*
D14*
X202256961Y-38440559D02*
X202260689Y-37430287D01*
X202760689Y-36930559D02*
X210755961Y-36930559D01*
X211255961Y-37430559D02*
X211255961Y-38440559D01*
D13*
X213736961Y-38440559D02*
X199766961Y-38440559D01*
X215641961Y-57490559D02*
X215641961Y-40345559D01*
X197861961Y-40341559D02*
G75*
G02*
X199766961Y-38436559I1905003J-3D01*
G01*
X199766961Y-59395560D02*
G75*
G02*
X197861961Y-57490559I3J1905003D01*
G01*
D14*
X202260689Y-37430287D02*
G75*
G02*
X202760689Y-36930560I500018J-291D01*
G01*
X210755961Y-36930559D02*
G75*
G02*
X211255961Y-37430559I-100J-500100D01*
G01*
D13*
X213736961Y-38440559D02*
G75*
G02*
X215641961Y-40345559I-50J-1905050D01*
G01*
X215641961Y-57490559D02*
G75*
G02*
X213736961Y-59395559I-1905000J0D01*
G01*
D15*
X197903961Y-38856559D02*
G75*
G02*
X197399961Y-38856559I-252000J0D01*
G01*
X197399961Y-38856559D02*
G75*
G02*
X197903961Y-38856559I252000J0D01*
G01*
D16*
X199177961Y-39573559D02*
G75*
G02*
X198673961Y-39573559I-252000J0D01*
G01*
X198673961Y-39573559D02*
G75*
G02*
X199177961Y-39573559I252000J0D01*
G01*
%TD*%
M02*
